<?xml version="1.0" encoding="UTF-8"?><svg id="Layer_2" xmlns="http://www.w3.org/2000/svg" viewBox="0 0 129.83 179.82"><defs><style>.cls-1{fill:#64b5f6;}.cls-1,.cls-2{fill-rule:evenodd;}.cls-2{fill:#424242;}</style></defs><g id="Layer_1-2"><path id="Grey" class="cls-2" d="M114.51,76.76c-5.6-13.45-10.34-24.84-8.91-30.22h0c.54-2-.65-4.06-2.65-4.6-1.07-.29-2.15-.08-3.01.47-1.77,1.03-8.85,5.93-11.45,19.99C80.37,45.37,63.27,20.39,28.44.5h0c-1.8-1.04-4.09-.41-5.12,1.39-.85,1.48-.57,3.3.56,4.47,2.39,2.88,31.55,39.85,7.99,101.46-4.06-3.71-10.4-13.01-9.24-34.46h0c.11-2.07-1.47-3.84-3.54-3.95-1.47-.08-2.79.7-3.47,1.89-2.12,3.23-28.07,44-8.18,76.61,1.42,2.33,3.02,4.56,4.76,6.68,11.02,13.41,27.62,21.66,45.09,24.3,17.44,2.64,35.85-.3,50.55-9.27,2.41-1.47,4.74-3.12,6.97-4.95,27.04-22.23,11.59-59.34-.31-87.91h0ZM61.09,90.95c2.57.97,28.81,11.51,31.33,38.21.03-.37.06-.75.08-1.15h0c.11-2,1.8-3.51,3.78-3.41,1.42.08,2.6.97,3.12,2.19,1.22,2.44,10.8,22.69-.33,37.14-.85,1.11-1.74,2.11-2.66,3.01-6.02,5.89-14.44,8.99-22.98,9.35-8.49.35-17.17-2.03-23.77-7.11-1.14-.88-2.19-1.8-3.13-2.76-12.22-12.49-7.06-28.19-3.16-40.07,1.52-4.62,2.81-8.56,2.5-10.57h-.01c-.3-1.96,1.04-3.8,3-4.1,1.48-.23,2.88.48,3.62,1.68,5.33,7.58,8.9,11.55,11.16,13.01.17-1.13.16-2.73,0-4.61-.76-9.42-4.77-23.25-6.49-24.93h0c-1.43-1.37-1.46-3.65-.08-5.08,1.07-1.11,2.69-1.38,4.03-.79Z"/><path id="Color" class="cls-1" d="M60.21,94.64c2.62,3.41,5.02,13.89,5.78,17.56.62,3.04,1.14,6.15,1.39,9.25.14,1.77.23,3.74-.04,5.49l-.88,5.7-4.85-3.12c-4.41-2.84-9.03-9.21-11.97-13.66.2,3.41-1.71,8.61-2.71,11.66-4.04,12.3-8.1,25.67,2.28,36.28.85.87,1.77,1.67,2.74,2.41,5.98,4.61,13.84,6.65,21.33,6.34,7.49-.31,15.09-2.98,20.52-8.28.83-.81,1.6-1.69,2.31-2.61,4.5-5.84,5.19-13.1,4.04-20.17-.72-4.41-2.1-8.59-3.93-12.65-.01.21-.03.42-.05.63l-3.88,7.6c-6.35-13.37-4.97-22.82-17.92-33.77-4.19-3.54-9.07-6.52-14.13-8.65Z"/></g></svg>