<?xml version="1.0" encoding="UTF-8"?><svg id="Layer_2" xmlns="http://www.w3.org/2000/svg" viewBox="0 0 165.16 179.82"><defs><style>.cls-1{fill:#64b5f6;}.cls-2{fill:#424242;}</style></defs><g id="Layer_1-2"><path id="Grey" class="cls-2" d="M5.62.5l4.28,2.07-1.62,3.37,1.63-3.37c.68.33,1.22.84,1.58,1.44l38.13,53.75,58.65,28.21-1.61,3.37,1.62-3.38c1.09.52,1.81,1.51,2.04,2.61l10.87,35.67,40.57,49.47-2.88,2.37,2.9-2.38c1.31,1.6,1.08,3.96-.52,5.27-.7.57-1.54.85-2.38.85h0s0,0,0,0H3.75c-2.07,0-3.75-1.68-3.75-3.75V3.75C0,1.68,1.68,0,3.75,0c.68,0,1.32.18,1.87.5Z"/><g id="Color"><path class="cls-1" d="M31.23,7.32L48.52.84h0c1.01-.39,2.08-.31,2.98.14l8.82,4.1h0c1.63.76,2.46,2.54,2.07,4.23l-2.26,13.25-3.69-.63,3.69.63c-.25,1.48-1.34,2.6-2.69,2.98l-17.29,6.48h0c-1.4.54-2.91.17-3.91-.8l-7.06-5.77,2.36-2.9-2.37,2.9c-1.04-.85-1.5-2.14-1.35-3.38l.69-11.38,3.73.22-3.74-.23c.1-1.64,1.24-2.97,2.74-3.39Z"/><path class="cls-1" d="M56.97,31.47l20.85-5.04.88,3.63-.88-3.64c1.78-.43,3.56.48,4.29,2.09l11.29,19.63h.01c1.03,1.79.41,4.08-1.38,5.11-.28.16-.57.28-.87.36l-14.12,5.3h0c-.83.32-1.69.32-2.47.07l-11.6-3.13.97-3.61-.98,3.62c-1.32-.36-2.29-1.38-2.63-2.61l-6.28-16.75h-.01c-.73-1.93.26-4.09,2.19-4.82.25-.09.49-.16.74-.2Z"/><path class="cls-1" d="M110.09,45.55l11.06,4.66-1.45,3.44,1.46-3.45c1.01.43,1.74,1.25,2.08,2.21l7.08,16.13h.01c.48,1.09.4,2.28-.12,3.26l-4.93,11.7-3.44-1.45,3.45,1.46c-.8,1.91-3,2.8-4.91,2-.1-.04-.2-.09-.3-.14l-13.9-5.86,1.45-3.44-1.46,3.45c-.84-.35-1.48-.98-1.87-1.73l-6.24-10.19h0c-.72-1.17-.71-2.58-.11-3.71l6.95-16.48,3.44,1.45-3.45-1.46c.8-1.91,3-2.8,4.91-2,.1.04.2.09.3.14Z"/><path class="cls-1" d="M157.96,93.8l6.66,11.18-3.2,1.92,3.22-1.92c.78,1.32.67,2.92-.17,4.09l-9.57,16.37h.01c-.53.91-1.38,1.51-2.32,1.75l-17.84,4.84h0c-1.76.48-3.57-.38-4.34-1.96l-8.36-14.04,3.21-1.92-3.22,1.92c-.65-1.09-.68-2.38-.2-3.46l4.21-11.59,3.51,1.27-3.52-1.28c.44-1.22,1.46-2.07,2.63-2.36l24.95-6.77h0c1.76-.48,3.57.38,4.34,1.96Z"/></g></g></svg>