<?xml version="1.0" encoding="UTF-8"?><svg id="Layer_2" xmlns="http://www.w3.org/2000/svg" viewBox="0 0 156.96 179.82"><defs><style>.cls-1{fill:#64b5f6;}.cls-2{fill:#424242;}</style></defs><g id="Layer_1-2"><path id="Grey" class="cls-2" d="M123.12,93.51c9.23,0,17.62-3.26,23.73-8.54,6.25-5.4,10.12-12.9,10.12-21.21,0-6.3-2.22-12.12-6.01-16.94-3.14-3.98-7.36-7.25-12.28-9.49.06-.27.12-.55.17-.82.28-1.5.42-2.99.42-4.46,0-8.71-5.5-16.46-13.34-22.16C117.55,3.81,106.37,0,96.56,0c-9.1,0-15.59,1.22-20.81,3.39-4.58,1.9-8.07,4.47-11.41,7.54-.1-.02-.2-.05-.29-.07-6.03-1.31-12.63.17-18.26,3.6-5.54,3.37-10.21,8.65-12.52,15-.1.29-.2.57-.3.86-8.93,1.55-16.79,5.2-22.56,10.2C3.91,46.14,0,53.46,0,61.52c0,9.08,4.95,17.22,12.96,23.04,7.66,5.56,18.18,9.01,29.74,9.01,2.91,0,7.35,0,12.8,0l13.48-26.19h0s1.71-3.33,1.71-3.33c1.3-2.52,3.89-4.06,6.71-4.06h22.27c4.14,0,7.49,3.36,7.49,7.49,0,1.04-.24,2-.61,2.96l-9.08,23.1c9.01,0,17.88-.01,25.65-.01Z"/><path id="Color" class="cls-1" d="M77.39,63.72h22.27c2.07,0,3.75,1.68,3.75,3.75,0,.57-.13,1.11-.35,1.59l-14.59,37.14h22.33c2.07,0,3.75,1.68,3.75,3.75,0,1.04-.43,1.98-1.11,2.66l-57.08,65.91-2.82-2.44,2.83,2.45c-1.35,1.56-3.72,1.73-5.28.38-1.22-1.06-1.59-2.73-1.05-4.16l14.41-48.82h-15.25c-2.07,0-3.75-1.68-3.75-3.75,0-.71.2-1.38.55-1.95l28.05-54.48h0c.67-1.31,2.01-2.05,3.38-2.04Z"/></g></svg>