<?xml version="1.0" encoding="UTF-8"?><svg id="Layer_2" xmlns="http://www.w3.org/2000/svg" viewBox="0 0 179.82 126.81"><defs><style>.cls-1{fill:#64b5f6;}.cls-2{fill:#424242;}</style></defs><g id="Layer_1-2"><g id="Grey"><path class="cls-2" d="M94.38,70.97c-2.05.2-3.55,2.03-3.35,4.08.2,2.05,2.03,3.55,4.08,3.35l19.94-1.97-.37-3.72.37,3.73c1.09-.11,2.03-.68,2.64-1.5l14.71-17.32c1.33-1.58,1.14-3.93-.44-5.27-1.58-1.33-3.93-1.14-5.27.44l-13.89,16.35-18.44,1.82Z"/><path class="cls-2" d="M138.58,58.32c-1.41-1.5-3.78-1.58-5.28-.16-1.5,1.41-1.58,3.78-.16,5.28l10.66,11.3-4.71,25.21c-.38,2.03.96,3.98,2.99,4.36,2.03.38,3.98-.96,4.36-2.99l5.01-26.82c.31-1.21.02-2.54-.9-3.52h0s-11.96-12.67-11.96-12.67Z"/><path class="cls-2" d="M112.36,46.32c-1.52,1.39-1.62,3.75-.23,5.27,1.39,1.52,3.75,1.62,5.27.23l14.87-13.61,13.02-.89c2.06-.14,3.62-1.92,3.48-3.98-.14-2.06-1.92-3.62-3.98-3.48l-14.1.96c-.89,0-1.78.33-2.49.98h.01s-15.84,14.52-15.84,14.52Z"/><path class="cls-2" d="M157.8,38.92c-1.43-1.49-3.8-1.53-5.28-.1-1.49,1.43-1.53,3.8-.1,5.28l7.74,8.03h0c1.44,1.5,3.81,1.54,5.3.11.07-.07.13-.13.2-.2l13.04-12.6c1.49-1.43,1.53-3.8.1-5.28-1.43-1.49-3.8-1.53-5.28-.1l-10.56,10.2-5.14-5.34Z"/><path class="cls-2" d="M164.64,12.42c2.71,0,5.17,1.1,6.95,2.88s2.88,4.24,2.88,6.95-1.1,5.17-2.88,6.95-4.24,2.88-6.95,2.88-5.17-1.1-6.95-2.88-2.88-4.24-2.88-6.95,1.1-5.17,2.88-6.95,4.24-2.88,6.95-2.88Z"/><path class="cls-2" d="M159.31,36.25c.13,2.41-.67,4.87-2.41,6.8l-18.14,20.18c-.04.05-.09.11-.13.16-1.38,1.54-3.75,1.66-5.29.28h0s-8.31-7.48-8.31-7.48c-.05-.04-.1-.08-.15-.13-1.54-1.38-1.66-3.75-.28-5.29h0s18.14-20.18,18.14-20.18c.08-.1.17-.21.27-.3h0c1.73-1.84,4.03-2.83,6.39-2.96,2.33-.12,4.69.61,6.59,2.23.12.09.24.2.35.31h0c1.84,1.73,2.84,4.04,2.96,6.39Z"/></g><path id="Color" class="cls-1" d="M113.11,21.4l-9.2-1.55-1.19,4.27c-.03.09-.07.29-.11.45-.36,1.46-.54,2.18-2.15,3.01-1.66.85-2.36.56-3.72-.02-.12-.05-.26-.11-.41-.17-7.26-2.74-13.42-.84-17.93,3.59-2.7,2.65-4.88,6.19-6.43,10.2-1.59,4.12-2.51,8.71-2.65,13.36-.35,11.53,4.06,23.38,14.88,29.04l-1.73,3.31,1.74-3.32c.15.08.29.16.42.26,2.47,1.53,29.37,18.01,46.24,21.39h0c1.96.39,3.26,2.25,2.97,4.21-.28,2.85-3.07,12.84-27.95,16.32h0c-.12.03-.25.04-.37.04-2.96.24-51.72,4.02-85.15-4.48-1.54-.2-17.86-2.59-20.27-13.65h0c-.11-.5-.11-1-.02-1.48,2.31-23.86,10.65-49.61,25.29-69.84C37.9,18.98,55.05,5.64,77,.85h0c.13-.03.26-.05.39-.07,3.28-.61,29.78-4.84,39.92,15.29h0c.93,1.85.19,4.1-1.66,5.03-.82.41-1.71.5-2.54.3Z"/></g></svg>