<svg xmlns="http://www.w3.org/2000/svg" id="Layer_2" data-name="Layer 2" viewBox="0 0 33.946 22.631">
  <defs><clipPath id="circleClip"><circle cx="16.973" cy="11.3155" r="11.3155" /></clipPath></defs><g clip-path="url(#circleClip)"><g id="_&#209;&#235;&#238;&#233;_1" data-name="&#209;&#235;&#238;&#233; 1">
    <g>
      <g>
        <rect width="11.315" height="22.631" />
        <rect x="11.315" width="11.315" height="22.631" fill="red" />
        <rect x="22.631" width="11.315" height="22.631" fill="#007c29" />
      </g>
      <g>
        <polygon points="14.499 10.473 15.367 11.977 15.367 12.063 14.461 10.494 14.499 10.473" fill="#fff" fill-rule="evenodd" />
        <polygon points="15.343 10.379 18.604 10.379 18.903 10.079 18.017 10.079 17.722 9.784 16.224 9.784 15.929 10.079 15.043 10.079 15.343 10.379" fill="#fff" fill-rule="evenodd" />
        <rect x="15.396" y="9.15" width=".428" height=".802" fill="#fff" />
        <rect x="15.396" y="8.973" width=".428" height=".103" fill="#fff" />
        <path d="M15.609,8.544c.016,0,.035.005.049.013.118.069.198.197.198.343h-.494c0-.146.079-.274.197-.343.014-.008.033-.013.049-.013Z" fill="#fff" fill-rule="evenodd" />
        <path d="M15.977,10.954c.054-.12.13-.23.222-.322h-.222v.322Z" fill="#fff" fill-rule="evenodd" />
        <path d="M15.39,10.596h.439v.619h-.439v-.619h0ZM15.578,11.094v-.278c0-.017.014-.032.031-.032.017,0,.031.014.031.032v.278c0,.036.029.066.066.066s.066-.029.066-.066v-.278c0-.09-.073-.163-.163-.163s-.163.073-.163.163v.278c0,.036.029.066.066.066s.066-.029.066-.066Z" fill="#fff" fill-rule="evenodd" />
        <polygon points="15.429 11.471 15.79 11.471 15.859 11.351 15.36 11.351 15.429 11.471" fill="#fff" fill-rule="evenodd" />
        <rect x="15.394" y="11.607" width=".43" height=".12" fill="#fff" />
        <rect x="15.394" y="12.439" width=".43" height=".273" fill="#fff" />
        <path d="M15.394,12.338h.43v-.51h-.43v.51h0ZM15.446,12.286v-.406h.326v.406h-.326Z" fill="#fff" fill-rule="evenodd" />
        <path d="M15.474,12.259h.091v-.13h-.091v.13h0ZM15.655,12.259h.091v-.13h-.091v.13h0ZM15.746,12.037v-.13h-.091v.13h.091ZM15.564,11.907h-.091v.13h.091v-.13Z" fill="#fff" fill-rule="evenodd" />
        <rect x="15.564" y="12.037" width=".091" height=".091" fill="#fff" />
        <path d="M15.825,12.813c0,.099.081.18.179.18h.34v.32h-1.274v-.003l.168-.168c.091-.091.142-.208.152-.328h.433Z" fill="#fff" fill-rule="evenodd" />
        <polygon points="14.598 13.783 19.348 13.783 18.98 13.414 14.966 13.414 14.598 13.783" fill="#fff" fill-rule="evenodd" />
        <path d="M15.551,11.094v-.278c0-.033.026-.059.059-.059.032,0,.059.026.059.059v.278c0,.022.017.039.039.039.022,0,.039-.017.039-.039v-.278c0-.075-.061-.136-.136-.136s-.136.061-.136.136v.278c0,.022.017.039.038.039.022,0,.039-.017.039-.039Z" fill="#fff" fill-rule="evenodd" />
        <path d="M16.744,8.627c.106-.013.194-.086.229-.184.035.098.123.171.229.184.315.035.559.302.559.626,0,.195-.089.37-.228.485h-1.12c-.139-.115-.228-.29-.228-.485,0-.324.245-.591.559-.626h0ZM16.445,9.424c-.011-.044-.017-.091-.017-.139,0-.181.082-.343.21-.446.012-.01.02-.024.02-.041,0-.029-.023-.053-.053-.053-.011,0-.022.004-.03.01-.169.106-.279.278-.279.472,0,.081.019.158.054.229.008.018.025.031.046.031.028,0,.05-.023.05-.051,0-.004,0-.008-.001-.012h0ZM17.276,9.511c-.002.006-.003.012-.003.019,0,.035.028.063.063.063.026,0,.049-.016.058-.039.034-.072.054-.154.054-.241,0-.179-.082-.336-.207-.431-.008-.007-.019-.012-.032-.012-.027,0-.048.022-.048.048,0,.015.005.025.015.035.079.084.13.216.13.365,0,.069-.011.134-.03.192h0ZM17.501,9.424s-.001.008-.001.012c0,.028.023.051.05.051.021,0,.038-.013.046-.031.035-.07.054-.147.054-.229,0-.194-.11-.366-.279-.472-.009-.006-.02-.01-.031-.01-.029,0-.052.024-.052.053,0,.017.007.031.02.041.128.104.21.265.21.446,0,.048-.006.095-.017.139h0ZM16.67,9.511c-.02-.058-.031-.124-.031-.192,0-.149.051-.28.13-.365.01-.01.015-.02.015-.035,0-.027-.022-.048-.048-.048-.012,0-.023.005-.032.012-.125.094-.207.252-.207.431,0,.087.02.169.054.241.01.023.032.039.058.039.035,0,.063-.028.063-.063,0-.006-.001-.013-.003-.019Z" fill="#fff" fill-rule="evenodd" />
        <path d="M16.419,9.431c-.012-.048-.018-.097-.018-.146,0-.181.079-.353.22-.467.006-.005.01-.012.01-.02,0-.014-.012-.025-.026-.025-.005,0-.01.002-.015.005-.158.099-.268.261-.268.45,0,.076.018.149.052.217.004.009.012.015.022.015.013,0,.023-.01.023-.028Z" fill="#fff" fill-rule="evenodd" />
        <path d="M16.644,9.52c-.022-.064-.032-.133-.032-.201,0-.136.043-.282.137-.383.005-.005.008-.009.008-.016,0-.012-.01-.021-.021-.021-.005,0-.01.002-.015.006-.128.096-.197.252-.197.41,0,.079.017.158.051.23.006.014.019.023.033.023.02,0,.036-.016.036-.036,0-.003,0-.007-.001-.01Z" fill="#fff" fill-rule="evenodd" />
        <path d="M17.528,9.431c.012-.048.017-.097.017-.146,0-.181-.079-.353-.22-.467-.007-.005-.01-.012-.01-.02,0-.014.012-.025.026-.025.005,0,.011.002.015.005.158.099.268.261.268.45,0,.076-.018.149-.051.217-.004.009-.012.015-.022.015-.013,0-.023-.01-.023-.028Z" fill="#fff" fill-rule="evenodd" />
        <path d="M17.302,9.52c.022-.064.032-.133.032-.201,0-.136-.043-.282-.137-.383-.005-.005-.008-.009-.008-.016,0-.012.01-.021.021-.021.005,0,.01.002.015.006.128.096.197.252.197.41,0,.079-.017.158-.051.23-.006.014-.019.023-.034.023-.02,0-.036-.016-.036-.036,0-.003,0-.007.002-.01Z" fill="#fff" fill-rule="evenodd" />
        <path d="M15.377,10.439h3.192v.07h-1.247c.352.142.601.487.601.89v.328h-.069v-.328c0-.492-.398-.89-.889-.89s-.89.398-.89.89v1.313h-.069v-1.313c0-.403.249-.748.601-.89h-1.229v-.07h0ZM17.923,11.902h-.069v.436h.069v-.436Z" fill="#fff" fill-rule="evenodd" />
        <path d="M14.405,10.248c.059,0,.106.048.106.106s-.047.106-.106.106c-.058,0-.106-.048-.106-.106s.047-.106.106-.106Z" fill="#fff" fill-rule="evenodd" />
        <path d="M14.313,11.985c.027-.348.22-.65.5-.826l-.365-.631c-.087.124-.193.233-.314.324-.235.173-.363.473-.313.762.018.125.011.243-.027.364.16.108.296.249.399.413.065-.123.107-.26.12-.406h0ZM14.089,10.925v.008c0,.097.065.179.155.204.128.036.229.138.263.268-.111.147-.184.321-.211.508-.095-.15-.256-.254-.442-.271-.001-.011-.002-.021-.004-.032-.043-.251.055-.513.24-.684Z" fill="#fff" fill-rule="evenodd" />
        <rect x="18.123" y="9.15" width=".428" height=".802" fill="#fff" />
        <rect x="18.123" y="8.973" width=".428" height=".103" fill="#fff" />
        <path d="M18.337,8.544c-.016,0-.035.005-.049.013-.118.069-.198.197-.198.343h.494c0-.146-.079-.274-.197-.343-.014-.008-.033-.013-.049-.013Z" fill="#fff" fill-rule="evenodd" />
        <path d="M17.969,10.954c-.054-.12-.13-.23-.223-.322h.223v.322Z" fill="#fff" fill-rule="evenodd" />
        <path d="M18.556,10.596h-.439v.619h.439v-.619h0ZM18.368,11.094v-.278c0-.017-.014-.032-.031-.032-.018,0-.032.014-.032.032v.278c0,.036-.029.066-.066.066-.036,0-.066-.029-.066-.066v-.278c0-.09.073-.163.163-.163s.163.073.163.163v.278c0,.036-.029.066-.066.066-.037,0-.066-.029-.066-.066Z" fill="#fff" fill-rule="evenodd" />
        <polygon points="18.517 11.471 18.156 11.471 18.087 11.351 18.586 11.351 18.517 11.471" fill="#fff" fill-rule="evenodd" />
        <rect x="18.121" y="11.607" width=".43" height=".12" fill="#fff" />
        <rect x="18.121" y="12.439" width=".43" height=".273" fill="#fff" />
        <path d="M18.552,12.338h-.43v-.51h.43v.51h0ZM18.5,12.286v-.406h-.326v.406h.326Z" fill="#fff" fill-rule="evenodd" />
        <path d="M18.473,12.259h-.091v-.13h.091v.13h0ZM18.291,12.259h-.091v-.13h.091v.13h0ZM18.2,12.037v-.13h.091v.13h-.091ZM18.382,11.907h.091v.13h-.091v-.13Z" fill="#fff" fill-rule="evenodd" />
        <rect x="18.291" y="12.037" width=".091" height=".091" fill="#fff" />
        <path d="M18.555,12.813h-.433c-.01.159-.061.314-.152.436l-.048.064h.954v-.003l-.168-.168c-.091-.091-.142-.208-.152-.328Z" fill="#fff" fill-rule="evenodd" />
        <path d="M18.395,11.094v-.278c0-.033-.026-.059-.059-.059s-.059.026-.059.059v.278c0,.022-.017.039-.039.039-.022,0-.039-.017-.039-.039v-.278c0-.075.061-.136.136-.136s.136.061.136.136v.278c0,.022-.017.039-.039.039-.022,0-.039-.017-.039-.039Z" fill="#fff" fill-rule="evenodd" />
        <path d="M19.54,10.248c-.058,0-.106.048-.106.106s.047.106.106.106c.059,0,.106-.048.106-.106s-.047-.106-.106-.106Z" fill="#fff" fill-rule="evenodd" />
        <polygon points="19.447 10.473 18.579 11.977 18.579 12.063 19.485 10.494 19.447 10.473" fill="#fff" fill-rule="evenodd" />
        <path d="M19.633,11.985c-.027-.348-.22-.65-.5-.826l.365-.631c.087.124.193.233.314.324.235.173.363.473.313.762-.018.125-.011.243.028.364-.16.108-.296.249-.399.413-.065-.123-.107-.26-.12-.406h0ZM19.858,10.925v.008c0,.097-.065.179-.155.204-.128.036-.229.138-.263.268.111.147.185.321.212.508.095-.15.256-.254.442-.271.001-.011.002-.021.004-.032.043-.251-.055-.513-.24-.684Z" fill="#fff" fill-rule="evenodd" />
        <polygon points="16.345 12.993 16.688 12.993 16.64 12.713 16.345 12.713 16.345 12.993" fill="#fff" fill-rule="evenodd" />
        <rect x="16.101" y="12.466" width=".243" height=".247" fill="#fff" />
        <path d="M16.872,12.439h-.21v-.313c0-.135-.079-.253-.192-.31-.114.057-.192.174-.192.31v.313h-.175v-.805h.77v.805Z" fill="#fff" fill-rule="evenodd" />
        <rect x="16.391" y="12.003" width=".157" height=".436" fill="#fff" />
        <path d="M16.635,12.439h-.06v-.463h-.211v.463h-.06v-.313c0-.117.064-.223.166-.279.101.056.165.162.165.279v.313Z" fill="#fff" fill-rule="evenodd" />
        <rect x="16.049" y="11.411" width=".849" height=".195" fill="#fff" />
        <path d="M16.785,12.466l.066.247h-.211l-.043-.247h.188ZM16.926,12.993l.086.32h-.268l-.056-.32h.238Z" fill="#fff" fill-rule="evenodd" />
        <polygon points="17.861 13.313 17.404 13.313 17.219 12.993 17.541 12.993 17.861 13.313" fill="#fff" fill-rule="evenodd" />
        <polygon points="17.853 12.854 18.092 12.993 17.541 12.993 17.262 12.713 17.058 12.713 16.915 12.466 17.082 12.466 17.086 12.466 17.545 12.854 17.853 12.854" fill="#fff" fill-rule="evenodd" />
        <polygon points="16.899 12.439 16.899 11.645 16.978 11.724 16.978 11.957 17.16 12.006 17.16 12.219 17.364 12.337 17.364 12.535 17.518 12.623 17.518 12.796 17.097 12.439 16.899 12.439" fill="#fff" fill-rule="evenodd" />
        <polygon points="16.926 12.993 17.219 12.993 17.058 12.713 16.851 12.713 16.926 12.993" fill="#fff" fill-rule="evenodd" />
        <rect x="17.545" y="12.633" width=".278" height=".194" fill="#fff" />
        <polygon points="17.699 12.535 17.823 12.606 17.542 12.606 17.418 12.535 17.699 12.535" fill="#fff" fill-rule="evenodd" />
        <rect x="17.391" y="12.347" width=".277" height=".161" fill="#fff" />
        <polygon points="17.495 12.219 17.669 12.32 17.388 12.32 17.215 12.219 17.495 12.219" fill="#fff" fill-rule="evenodd" />
        <rect x="17.187" y="12.01" width=".278" height=".182" fill="#fff" />
        <polygon points="17.348 11.952 17.465 11.983 17.181 11.983 17.063 11.952 17.348 11.952" fill="#fff" fill-rule="evenodd" />
        <rect x="17.005" y="11.737" width=".278" height=".188" fill="#fff" />
        <polygon points="16.899 11.607 17.283 11.71 17.002 11.71 16.899 11.607" fill="#fff" fill-rule="evenodd" />
        <path d="M14.151,14.517c-.511.346-1.394.367-1.601-.318.341.114.709.078,1.024-.095.518-.285,1.205-.431,1.613.23-.081-.032-.157-.052-.23-.063-.027-.077-.071-.148-.128-.202l-.065-.062.02.088c.013.055.021.11.024.166-.023,0-.046.002-.068.005-.071-.09-.157-.123-.268-.132-.007.072-.006.126.023.195-.114.045-.226.11-.344.19Z" fill="#fff" fill-rule="evenodd" />
        <path d="M16.953,15.188c-.032.01-.067.015-.102.015-.146,0-.271-.088-.325-.214.071.042.152.069.239.076.082.005.152.054.188.123h0ZM14.469,15.856c-.012.021-.019.046-.019.072,0,.06.037.112.087.135.213.108.445.184.69.221,0,.095-.025.184-.078.262-.005.007-.008.016-.008.025,0,.024.02.044.044.044.008,0,.014-.002.02-.005.118-.074.245-.101.38-.101.151,0,.292.038.416.106.057.031.121.048.19.048.07,0,.131-.054.136-.122.006-.124.111-.205.231-.196.136.013.274.02.414.02s.278-.007.414-.02c.119-.009.224.072.231.196.005.068.067.122.136.122.069,0,.134-.017.19-.048.124-.067.265-.106.416-.106.135,0,.262.027.38.101.006.003.013.005.02.005.024,0,.044-.02.044-.044,0-.009-.003-.018-.008-.025-.053-.078-.079-.167-.078-.262.245-.037.477-.113.69-.221.051-.024.087-.076.087-.135,0-.026-.007-.051-.019-.072.336-.024.635-.179.848-.415-.141.083-.298.14-.467.163-.175.024-.343.069-.501.133l-.19-.169c.066.014.135.022.205.022.085,0,.168-.011.247-.031-.152-.018-.296-.062-.427-.128-.01-.006-.023-.009-.036-.009-.039,0-.071.032-.071.071v.003l-.215-.19c.052-.03.098-.067.137-.111-.047.007-.094.01-.143.01-.039,0-.078-.002-.115-.007l-.111-.098c-.048-.042-.105-.065-.17-.065-.033,0-.07.007-.1.02-.423.198-.896.309-1.394.309s-.971-.111-1.394-.309c-.03-.014-.067-.02-.1-.02-.065,0-.122.023-.17.065l-.111.098c-.038.004-.076.007-.115.007-.049,0-.096-.004-.143-.01.039.044.086.082.137.111l-.215.19v-.003c0-.039-.032-.071-.071-.071-.013,0-.025.003-.035.009-.131.066-.275.109-.427.128.079.02.162.031.247.031.07,0,.139-.008.205-.022l-.19.169c-.158-.064-.326-.109-.501-.133-.169-.023-.327-.08-.467-.163.212.235.512.39.848.415h0ZM16.579,15.208c-.023-.079-.078-.144-.15-.181-.031-.018-.06-.041-.083-.068.017.124.112.223.233.249h0ZM16.993,15.188c.036-.069.106-.118.188-.123.087-.008.168-.035.239-.076-.054.126-.179.214-.325.214-.036,0-.07-.005-.102-.015h0ZM17.367,15.208c.023-.079.078-.144.149-.181.032-.018.06-.041.083-.068-.018.124-.112.223-.233.249h0ZM16.459,14.406c.011-.088-.054-.241-.109-.312l.05-.108c.105.143.108.266.086.436l-.027-.016h0ZM16.673,13.992l-.023.1c.068.114.124.207.146.34l.034.021c-.002-.096-.024-.176-.041-.269.071-.034.097-.12.101-.153l-.034-.047c-.035.092-.134.077-.183.009h0ZM17.008,14.04c-.08.119-.009.26.111.197.004.047.02.166.053.199l.049-.074c-.041-.111-.04-.183-.057-.29-.019-.113-.093-.124-.155-.031h0ZM17.27,14.334c.077-.098.114-.217.135-.339l.036.01c.022.099.063.2.139.269l-.01.151c-.09-.091-.108-.177-.15-.292-.008.075-.069.263-.126.305l-.024-.104h0ZM16.042,14.835c-.037-.218-.145-.412-.3-.558.221.071.384.269.404.508.015.151.078.288.174.395-.144-.058-.251-.188-.278-.345h0ZM15.774,14.749c-.044-.186-.125-.354-.232-.492.168.091.293.253.334.445.033.168.108.316.211.429-.149-.056-.27-.2-.313-.382h0ZM17.039,14.617c.072-.028.149-.046.23-.052v.23c-.083.009-.161.035-.23.076v-.254h0ZM17.366,14.563c.104.005.202.029.292.069l-.06.225c-.07-.037-.149-.059-.232-.064v-.23h0ZM16.907,14.617c-.072-.028-.149-.046-.23-.052v.23c.083.009.161.035.23.076v-.254h0ZM16.58,14.563c-.104.005-.202.029-.292.069l.06.225c.07-.037.148-.059.232-.064v-.23h0ZM17.903,14.835c-.027.157-.134.287-.278.345.096-.107.159-.244.174-.395.019-.239.183-.437.404-.508-.154.146-.262.34-.3.558h0ZM18.172,14.749c-.043.183-.164.326-.313.382.102-.113.177-.261.211-.429.041-.193.166-.354.334-.445-.107.138-.187.306-.232.492h0ZM17.109,14.115c-.013.052-.078.031-.061-.024.016-.051.075-.032.061.024h0ZM18.137,15.322l-.025.095h-.145l.025-.095h.145ZM15.857,15.575l-.114.066-.084-.084.115-.066.084.084h0ZM17.81,15.469l-.026.095h-.144l.025-.095h.145ZM16.314,15.563l.075.063.075-.063.081.068-.081.067-.075-.063-.075.063-.081-.067.081-.068h0ZM17.198,15.644l.046-.089c.053.034.118.024.167-.014.087.096.113.173.166.274.053.103.119.098.205.06.108-.048.07-.111-.006-.089-.017.005-.037.015-.058.031l-.01-.109s.056-.05.121-.06c.117-.019.242.012.193.16,0,0,.076.004.179-.031.091-.03.158-.056.245-.092l-.075-.078c-.05.108-.203.126-.26.031-.102-.171.061-.251.21-.144.08.057.188.176.24.262-.128.047-.259.092-.388.135-.073.024-.148.024-.216-.016-.007.051-.066.076-.109.09-.126.041-.245.074-.321-.07-.057-.108-.128-.258-.128-.258-.046.036-.154.035-.202.005h0ZM18.254,15.588c-.03.053-.117.004-.079-.046.03-.04.108-.005.079.046h0ZM18.301,15.311c.084.066.178.144.258.216.06.053.159.155.117.244-.065-.08-.072-.114-.159-.192-.066-.06-.138-.118-.211-.169l-.005-.098h0ZM16.037,15.543l.103-.068c.027.053-.004.122-.028.169-.026.052-.056.102-.074.139-.027.054-.035.092.027.105.108.022.21.041.321.044.003-.034-.002-.074-.016-.105l.076-.068c.015.046.031.154.002.194.065.02.165-.049.186-.117,0,.087.027.128.114.133.033.002.082.003.128.003.062,0,.055-.039.055-.039l.077-.092s-.001.041.001.078c.005.068.102.082.099.003v-.04s.067-.052.067-.052l.019.116s.036.018.126.015c.089-.003.097-.007.097-.007-.008-.055-.05-.086-.087-.123l.034-.074c.094.069.128.167.134.279,0,0-.094.013-.169.012-.075-.001-.092-.022-.092-.022-.018.036-.057.039-.092.041-.015,0-.033,0-.058,0-.031,0-.108-.003-.116-.039-.026.03-.087.037-.125.039-.028.002-.062.002-.101.002-.065,0-.135-.011-.155-.087-.024.076-.156.071-.215.069-.12-.005-.232-.027-.375-.065-.142-.039-.058-.169-.058-.169,0,0,.026-.052.069-.129.042-.077.024-.145.024-.145h0ZM15.481,15.599l-.014.039s-.057.02-.119.053c-.091.047-.095.12,0,.17.067.035.141.077.241.086.116.01.255-.024.216-.175l.139-.057s-.037.1-.099.185c-.109.149-.22.153-.391.11-.05-.012-.107-.031-.174-.061-.204-.089-.111-.199.027-.275.085-.047.173-.075.173-.075h0ZM16.973,15.427c-.492,0-.975-.107-1.42-.315-.022-.01-.05-.014-.074-.014-.05,0-.092.017-.129.049l-.674.597c-.016.014-.024.033-.024.054,0,.029.017.055.043.066.704.283,1.473.439,2.279.439s1.575-.156,2.279-.439c.026-.012.043-.038.043-.066,0-.021-.009-.04-.024-.054l-.674-.597c-.037-.032-.08-.049-.129-.049-.024,0-.052.004-.074.014-.446.208-.929.315-1.42.315h0ZM16.973,15.454c-.495,0-.983-.108-1.432-.318-.018-.008-.042-.012-.062-.012-.043,0-.079.015-.111.043l-.674.597c-.01.009-.015.02-.015.034,0,.018.011.034.027.041.721.29,1.49.437,2.268.437s1.547-.147,2.268-.437c.016-.007.027-.023.027-.041,0-.014-.006-.025-.016-.034l-.673-.597c-.032-.028-.069-.043-.111-.043-.02,0-.044.004-.063.012-.449.21-.936.318-1.432.318h0ZM18.163,16.301c.069.006.139.01.21.01.089,0,.176-.005.261-.015,0,.063.012.125.034.183-.097-.039-.199-.055-.307-.055-.16,0-.316.039-.456.116-.045.025-.14.061-.179.01-.02-.026-.019-.067.006-.1.101-.138.274-.164.433-.15h0ZM15.783,16.301c.159-.014.332.012.433.15.024.033.025.074.006.1-.039.051-.135.014-.18-.01-.14-.077-.296-.116-.456-.116-.108,0-.211.016-.307.055.021-.058.033-.12.033-.183.086.01.173.015.261.015.071,0,.141-.003.21-.01Z" fill="#fff" fill-rule="evenodd" />
        <path d="M16.742,7.606l.012-.174.119.177.099-.286.099.286.12-.177.012.174.239-.251-.051.263.17-.126-.077.159.369-.213-.22.255.26-.102-.163.139.4-.139-.395.215c-.237-.091-.495-.141-.764-.141s-.527.05-.764.141l-.395-.215.401.139-.163-.139.26.102-.22-.255.369.213-.078-.159.17.126-.051-.263.24.251Z" fill="#fff" fill-rule="evenodd" />
        <path d="M16.138,8.24c.073-.037.139-.094.19-.158.039.023.054.037.085.067.074-.181.196-.275.361-.37l.008.089c-.032.017-.061.034-.088.052.063.004.128.021.128.021l-.01.044-.049.027c-.013.083-.018.166-.025.249l-.062.03c-.012-.058.007-.187.017-.249l-.046-.039.01-.056c-.084.067-.14.149-.171.269l-.082.051c-.023-.031-.045-.063-.07-.093-.019.041-.062.113-.101.136,0,0-.058-.045-.096-.071Z" fill="#fff" fill-rule="evenodd" />
        <path d="M17.052,8.261l.08-.078.055.102h.059l.022-.027.184-.007c.06-.047.069-.147.058-.216l-.038.02c-.003.035-.018.098-.035.128l-.064-.002-.01-.143-.04.01-.01.127-.076.008-.04-.088c-.064-.005-.147.057-.172.111l.028.053Z" fill="#fff" fill-rule="evenodd" />
        <path d="M17.312,7.969l-.016-.093.059-.042.011.113s-.018.019-.054.022Z" fill="#fff" fill-rule="evenodd" />
        <path d="M17.593,8.259c0-.006.007-.26.007-.26.046-.021.088-.042.13-.071l.002.06c-.025.016-.05.035-.074.053l-.007.198-.057.02Z" fill="#fff" fill-rule="evenodd" />
        <path d="M14.141,8.515v-.018c0-.172.121-.316.283-.351v.018c0,.173-.121.316-.283.351Z" fill="#fff" fill-rule="evenodd" />
        <path d="M14.284,8.553c.09-.025.167-.082.219-.157-.027.226-.219.401-.452.401-.014,0-.027,0-.041-.002.046-.119.148-.21.274-.242Z" fill="#fff" fill-rule="evenodd" />
        <path d="M13.917,8.752c-.029-.055-.046-.119-.046-.186,0-.11.045-.21.118-.282.029.056.046.119.046.186,0,.111-.045.21-.118.282Z" fill="#fff" fill-rule="evenodd" />
        <path d="M13.506,8.304c-.008-.031-.012-.063-.012-.096,0-.166.102-.308.246-.367.008.031.012.063.012.095,0,.166-.102.308-.246.367Z" fill="#fff" fill-rule="evenodd" />
        <path d="M13.768,9.118c-.051-.068-.082-.152-.082-.243,0-.111.045-.21.117-.283-.01.032-.015.066-.015.1,0,.039.006.076.018.11.014.038.021.078.021.121,0,.072-.022.139-.059.195Z" fill="#fff" fill-rule="evenodd" />
        <path d="M13.869,9.071c.032-.094.116-.163.218-.173.051-.009.097-.034.133-.069-.013.141-.132.252-.277.252-.026,0-.05-.003-.074-.01Z" fill="#fff" fill-rule="evenodd" />
        <path d="M13.883,9.221c.062-.016.119-.046.165-.088,0,.141-.115.256-.256.256-.035,0-.069-.007-.099-.02.039-.073.108-.128.191-.149Z" fill="#fff" fill-rule="evenodd" />
        <path d="M13.627,9.377c-.067-.055-.111-.138-.111-.232,0-.082.033-.156.087-.21.003.043.016.084.036.12.026.044.042.097.042.152,0,.063-.02.122-.053.17Z" fill="#fff" fill-rule="evenodd" />
        <path d="M12.734,9.808c-.009-.027-.014-.057-.014-.088,0-.13.09-.238.211-.266.009.028.014.057.014.087,0,.13-.09.238-.211.266Z" fill="#fff" fill-rule="evenodd" />
        <path d="M13.214,9.543c.069.086.127.183.171.287.008-.12.035-.236.077-.344.041-.005.082-.008.125-.008-.022.087-.033.177-.035.27.082-.076.176-.141.278-.191,0,.043-.003.084-.008.126-.272.126-.489.351-.603.63.199.295.321.63.321.975,0,.171-.05.329-.137.463.046-.017.089-.04.129-.068.006.146-.045.287-.143.396.362.105.547.509.511.874-.131-.133-.3-.229-.489-.269l-.918-.197c-.015-.003-.029-.007-.044-.011-.002-.072-.065-.217-.093-.297-.027.076-.061.157-.082.232-.337-.164-.557-.516-.541-.904.224.271.553.453.924.484l.581.061c.044-.077.069-.166.069-.26,0-.065-.012-.127-.033-.185-.055-.159-.125-.312-.207-.456.014-.075.01-.132.004-.205-.029.024-.058.047-.084.074-.034-.052-.069-.103-.107-.152-.014-.095-.045-.162-.087-.245-.015.028-.03.057-.042.086-.134-.153-.285-.29-.45-.409.118-.047.247-.073.382-.073.035,0,.069.002.103.005-.001-.02-.002-.04-.002-.061,0-.106.016-.208.046-.305.12.108.23.227.326.355.032-.107.049-.221.049-.339,0-.11-.015-.216-.043-.317.018-.007.036-.014.054-.02Z" fill="#fff" fill-rule="evenodd" />
        <path d="M13.683,10.182c.017-.119.068-.226.144-.312.022.015.043.032.063.05-.067.075-.112.169-.128.275-.031.179-.131.336-.276.44-.011-.025-.022-.051-.033-.075.119-.091.203-.224.23-.378Z" fill="#fff" fill-rule="evenodd" />
        <path d="M13.631,9.97c-.072.051-.134.119-.178.199-.006.087-.033.17-.076.243-.014-.026-.03-.051-.045-.077.027-.057.044-.12.046-.187.072-.139.19-.249.335-.311-.033.04-.061.084-.082.133Z" fill="#fff" fill-rule="evenodd" />
        <path d="M12.263,10.882c-.008-.023-.013-.047-.013-.073,0-.066.031-.126.08-.163.031-.025.054-.06.067-.099.014.032.022.067.022.104,0,.105-.064.195-.156.231Z" fill="#fff" fill-rule="evenodd" />
        <path d="M12.238,10.587c-.004-.015-.006-.032-.006-.048,0-.067.032-.126.081-.164.004.015.006.032.006.048,0,.067-.031.126-.081.164Z" fill="#fff" fill-rule="evenodd" />
        <path d="M12.192,10.327c-.056-.08-.089-.177-.089-.282,0-.082.02-.159.055-.227.056.08.089.177.089.282,0,.082-.02.159-.055.227Z" fill="#fff" fill-rule="evenodd" />
        <path d="M12.174,10.597c-.15-.084-.251-.244-.251-.428,0-.031.003-.06.008-.089.023.071.061.134.111.186.081.087.131.203.133.331Z" fill="#fff" fill-rule="evenodd" />
        <path d="M11.859,11.547c-.084-.107-.139-.236-.154-.378.02.012.042.024.063.034.022.133.083.253.171.348h-.009c-.024,0-.047-.001-.071-.003Z" fill="#fff" fill-rule="evenodd" />
        <path d="M13.862,15.107c.007-.001.015-.002.023-.002.049,0,.089.026.089.058,0,.037-.046.055-.077.058-.035.004-.071.007-.107.007-.167,0-.323-.047-.456-.128.094.017.19.026.289.026.081,0,.161-.006.239-.018Z" fill="#fff" fill-rule="evenodd" />
        <path d="M14.128,15.236c.007-.002.014-.004.022-.004.047-.005.088.015.091.046.004.035-.038.057-.067.064-.033.008-.067.014-.102.018-.16.018-.315-.01-.451-.073.092.006.185.004.28-.007.078-.009.154-.023.228-.043Z" fill="#fff" fill-rule="evenodd" />
        <path d="M14.422,15.467c-.036.008-.072.015-.11.019-.139.016-.275,0-.398-.043.166-.002.324-.033.471-.09.049-.019.099.002.106.035.007.03-.003.065-.068.079Z" fill="#fff" fill-rule="evenodd" />
        <path d="M13.638,15.015c-.219,0-.427-.081-.587-.23.101.038.211.059.326.059.026,0,.052-.001.077-.003.104-.009.187.072.184.175Z" fill="#fff" fill-rule="evenodd" />
        <path d="M13.852,15.01c-.065-.072-.112-.159-.135-.256.094.033.177.09.242.164.012.014.02.029.02.049,0,.039-.032.071-.071.071-.023,0-.043-.011-.056-.027Z" fill="#fff" fill-rule="evenodd" />
        <path d="M14.133,15.137c-.051-.082-.082-.176-.088-.276.087.05.158.12.209.204.01.016.014.032.011.052-.007.038-.044.064-.082.057-.022-.004-.04-.018-.05-.037Z" fill="#fff" fill-rule="evenodd" />
        <path d="M14.42,15.223c-.074-.105-.129-.223-.156-.344.107.069.201.162.275.269.014.02.022.041.023.063,0,.046-.035.074-.078.062-.026-.007-.048-.026-.063-.049Z" fill="#fff" fill-rule="evenodd" />
        <path d="M14.762,15.309c-.137-.149-.255-.313-.342-.479.161.106.318.242.456.395.026.028.045.057.055.087.021.061-.011.093-.07.071-.034-.013-.071-.041-.099-.074Z" fill="#fff" fill-rule="evenodd" />
        <path d="M13.371,13.723c-.113-.057-.183-.178-.179-.317.004-.162-.054-.312-.168-.424.143.065.238.213.231.381-.003.138.039.265.116.36Z" fill="#fff" fill-rule="evenodd" />
        <path d="M14.91,14.73c.034.007.061.037.061.073,0,.039-.03.071-.069.074-.01,0-.02,0-.03,0-.138,0-.262-.056-.352-.147.063-.013.128-.02.195-.02s.131.007.194.02Z" fill="#fff" fill-rule="evenodd" />
        <path d="M15.131,15.007c.023.009.04.033.04.06,0,.037-.032.066-.069.064-.156-.003-.297-.068-.4-.17.036-.004.072-.006.109-.006.112,0,.22.019.32.053Z" fill="#fff" fill-rule="evenodd" />
        <path d="M15.137,14.756c-.007.027-.031.047-.06.047-.035,0-.062-.028-.062-.062,0-.01.002-.019.006-.027.023-.07.037-.144.037-.221,0-.049-.005-.098-.015-.144.07.076.112.177.112.288,0,.041-.006.08-.017.119Z" fill="#fff" fill-rule="evenodd" />
        <path d="M15.32,15.009c-.011.021-.031.035-.056.035-.035,0-.063-.028-.063-.063,0-.01.003-.02.007-.029.038-.081.059-.171.059-.266,0-.022-.001-.044-.003-.066.059.06.096.142.096.233,0,.056-.014.109-.039.156Z" fill="#fff" fill-rule="evenodd" />
        <path d="M14.729,14.298c.012.017.018.033.018.055,0,.051-.042.093-.093.093-.025,0-.05-.011-.067-.029-.058-.057-.093-.137-.093-.224,0-.01,0-.02.001-.03.097.008.181.06.234.136Z" fill="#fff" fill-rule="evenodd" />
        <path d="M14.402,14.472c.066.014.133.021.203.021.029,0,.057-.001.086-.004.05-.007.096.034.096.084,0,.047-.038.085-.085.085-.127-.003-.241-.072-.299-.186Z" fill="#fff" fill-rule="evenodd" />
        <path d="M14.953,14.47c-.007.061-.042.107-.077.103-.052-.006-.055-.09-.05-.128.007-.037.009-.095.009-.133,0-.077-.009-.151-.025-.222.099.094.161.244.143.381Z" fill="#fff" fill-rule="evenodd" />
        <path d="M15.484,14.798c.037.012.04.108.007.214l-.072-.034c-.033-.016-.047-.054-.033-.087.012-.027.059-.105.097-.093Z" fill="#fff" fill-rule="evenodd" />
        <path d="M15.821,6.746c.036-.084.097-.155.172-.205.008-.007.019-.011.031-.011.027,0,.049.022.049.049,0,.015-.006.026-.017.037-.063.064-.144.11-.235.129Z" fill="#fff" fill-rule="evenodd" />
        <path d="M18.877,7.418c-.038-.048-.021-.114.001-.165l.251-.586c.026-.062.065-.097.101-.102.061-.008.066.029.041.107l-.394.745Z" fill="#fff" fill-rule="evenodd" />
        <path d="M19.387,7.372l-.285.004.02-.063c.051-.005.154-.012.26.015l.004.044Z" fill="#fff" fill-rule="evenodd" />
        <path d="M17.081,6.826c-.002.091,0,.159.008.207.02.138.078.109.17-.018.05-.069.097-.143.142-.217.031-.051.044-.078.111-.088-.036.135-.052.26-.034.399.023.172.193.017.23-.064l.006-.312s.001-.044.026-.069c.025-.025.05-.033.05-.033l-.005.471c.032.113.162.129.187-.019.031-.191.029-.206-.013-.39.137.008.158.14.135.248-.013.061-.034.145-.049.193-.067.208-.233.145-.341.043-.129.139-.278.163-.303-.051-.009-.078-.011-.164-.011-.164,0,0-.067.098-.133.185-.092.12-.149.142-.21-.01-.04-.099-.042-.189-.042-.189,0,0,.016-.087.077-.122Z" fill="#fff" fill-rule="evenodd" />
        <path d="M16.064,6.748c.006.072.009.173.027.24.037-.045.073-.094.11-.149.054-.081.041-.099-.005-.169-.063-.096.034-.146.109-.093.079.055.012.207-.03.273-.033.054-.084.122-.149.201.088.088.28-.037.36-.121.089-.094.106-.119.045-.261-.073-.173-.125-.274-.125-.274,0,0-.03-.061.003-.107.044-.062.066,0,.078.039.038.12.152.44.229.529.052-.055.1-.107.156-.157-.165-.016-.3-.027-.143-.207.086-.098.147-.139.272-.165.077-.016.124-.077.047-.082-.042-.003-.082-.021-.023-.062.092-.062.191.037.156.13-.024.063-.087.077-.148.09-.095.021-.166.063-.232.138-.034.039-.049.066.019.075.153.019.338.028.492.023.024.035-.049.079-.079.087,0,0-.094.002-.166.004-.09.003-.123.004-.192.071-.05.048-.111.124-.111.124,0,0,.102.18.126.221.024.04.035.061-.021.055-.056-.006-.084-.028-.137-.091-.039-.046-.074-.105-.091-.133-.023-.04-.04-.048-.08-.01-.106.103-.389.282-.496.155-.067.077-.146.161-.235.251-.003-.037-.006-.072-.02-.107.086-.073.157-.139.223-.211-.021-.081-.014-.224-.017-.312,0,0,.027-.006.047.005Z" fill="#fff" fill-rule="evenodd" />
        <path d="M15.764,6.96c.002-.054.032-.036.051-.011.017.024.055.13-.016.082-.029-.02-.036-.031-.035-.072Z" fill="#fff" fill-rule="evenodd" />
        <path d="M16.706,6.081c-.021.012-.054.031-.087.056-.055.042-.068.048-.028.067.059.028.126-.023.158-.071.051-.076.045-.1-.043-.052Z" fill="#fff" fill-rule="evenodd" />
        <path d="M16.935,6.015c.088-.1.158-.028.053.095-.176.204-.208.083-.053-.095Z" fill="#fff" fill-rule="evenodd" />
        <path d="M17.428,6.22c-.017.021-.04.052-.049.081-.016.047.008.063.06.014.023-.022.041-.041.053-.059.034-.054.005-.121-.064-.035Z" fill="#fff" fill-rule="evenodd" />
        <path d="M17.622,6.477c-.006.03.007.054.07.058.093.006.204-.01.182-.13-.022-.12-.046-.078-.062,0-.003.016-.024.069-.046.044-.017-.019-.049-.019-.057.006-.006.017-.027.023-.029-.007-.005-.073-.047-.019-.058.028Z" fill="#fff" fill-rule="evenodd" />
        <path d="M17.735,6.248s.006-.029-.009-.024c-.015.004-.027-.007-.015-.031.023-.048.096-.061.078.032-.01.051-.072.085-.054.023Z" fill="#fff" fill-rule="evenodd" />
        <path d="M16.666,6.395c.058.009.092,0,.096-.062.005-.085-.046-.055-.095-.014-.037.031-.078.064,0,.076Z" fill="#fff" fill-rule="evenodd" />
        <path d="M19.269,7.071c-.022-.037-.056-.026-.075.005-.016.026-.022.067.023.072.093.011.09-.014.052-.077Z" fill="#fff" fill-rule="evenodd" />
        <path d="M18.602,6.655c.018.042.046.046.075.012.031-.035.069-.041.06.017-.015.096-.173.108-.19.022-.008-.043.025-.119.054-.051Z" fill="#fff" fill-rule="evenodd" />
        <path d="M18.805,6.447c-.038.007-.081.015-.118.027-.031.01-.034.019-.034.04,0,.036.03.033.059.03.047-.006.092-.02.127-.053.066-.064.007-.051-.034-.043Z" fill="#fff" fill-rule="evenodd" />
        <path d="M18.262,7.364c.146.002.264-.012.348-.096-.013.002-.035,0-.054-.025-.067-.093-.112-.233-.151-.342,0,0-.037.196-.073.312-.036.116-.028.132-.08.131-.061.005-.047-.059-.015-.148.024-.067.07-.22.094-.311.031-.115.03-.119-.038-.222-.055-.084-.126-.189-.208-.249-.056-.041-.082-.039-.045-.132.03-.071.064-.063.1-.009.076.112.126.242.21.35.027.034.034.05.045-.022.009-.059.016-.132.024-.184.008-.054.01-.09.065-.113.04-.017.062-.003.042.091-.016.076-.047.166-.067.239-.03.114-.036.125.011.233.02.045.141.358.162.375.024-.031.044-.069.061-.116.071-.201.111-.374.168-.574.026-.094.066-.119.101-.002.023.079.016.09-.025.154-.064.099-.126.343-.162.457-.069.22-.208.311-.448.289-.047-.004-.089-.014-.109-.052-.022-.041-.001-.034.044-.033Z" fill="#fff" fill-rule="evenodd" />
        <path d="M18.708,7.462c.075.137.237.065.334.001.044-.029.057-.022.084,0,.031.024.035.054.035.107,0,.284.145.119.239-.024.078-.119.143-.245.208-.37-.036-.095-.086-.195-.156-.31,0,0,.002-.053.033-.096.031-.042.06-.025.095.038.033.059.063.147.09.248.018-.034.036-.068.055-.102.027-.049.067-.104.096-.037.019.043.006.059-.017.095-.034.052-.069.109-.104.168.015.07.029.143.04.215l.205-.379c.05.045.059.092.057.157-.091.108-.172.224-.245.346.016.116.026.223.03.304.163-.173.275-.477.329-.624.036-.098.064-.07.1.006.046.098,0,.141-.056.218-.19.261-.392.806-.835.542,0-.046,0-.098.054-.065.149.093.278.048.387-.056l-.042-.002c-.007-.083-.014-.158-.021-.228-.046.085-.088.172-.126.26l-.031-.034c-.024-.027-.008-.069.006-.097.011-.021.068-.127.135-.251-.011-.074-.025-.143-.045-.212-.063.112-.125.226-.181.327-.074.136-.344.37-.367.104-.005-.064-.008-.106-.01-.133-.005-.043-.006-.04-.035-.024-.035.019-.113.051-.202.064-.17.025-.2-.031-.213-.181-.003-.034.005-.037.033-.023.028.014.025.023.039.049Z" fill="#fff" fill-rule="evenodd" />
        <path d="M15.004,7.29c.071.163.264.213.42.081.143-.121.133-.293.023-.436l-.13.084s-.033.01-.063,0c-.051-.018-.027-.043,0-.064.05-.038.107-.071.161-.103-.101-.157-.193-.316-.179-.507.008-.02.042-.012.059-.009.049.01.044.021.042.062-.005.124.089.299.152.402.08-.036.18-.159.193-.262-.136-.002-.269-.003-.211-.185.037-.113.128-.113.19.008.023.044.06.069.06.069.084-.031.142-.135.172-.215.014-.039.021-.026.033.002.018.039.069.131.118.129.016-.034.033-.068.051-.101.016-.027.025-.033.06,0,.04.037.077.055.077.055,0,0,.009-.066.019-.102.007-.025.019-.04.031-.051.033-.031.034-.028.034.027,0,.064,0,.121-.012.184-.007.034-.015.038-.057.033-.028-.004-.058-.009-.078-.014-.031-.006-.031-.011-.051.021-.045.071-.084.035-.153.008-.039-.015-.056-.032-.091.005-.037.039-.089.077-.089.077.003.134-.146.322-.257.389.101.18.125.364-.027.521-.184.187-.551.203-.536-.1.003-.069.025-.039.039-.007h0ZM15.653,6.469c-.008-.017-.026-.051-.047-.078-.03-.039-.064-.063-.075.006-.007.042.003.09.122.072Z" fill="#fff" fill-rule="evenodd" />
        <path d="M13.931,7.714c.002.039.025.075.046.095.032.032.065.022.065-.107,0,0-.053-.018-.111.012Z" fill="#fff" fill-rule="evenodd" />
        <path d="M13.917,7.525c-.039-.015-.04-.011-.002-.041.037-.03.074-.058.023-.088-.033-.02-.057-.032-.057-.032-.038-.064-.008-.077.048-.058.036.012.067.033.091.049.043.029.059.035.024.089-.016.024-.038.047-.053.06-.028.027-.032.038-.074.022Z" fill="#fff" fill-rule="evenodd" />
        <path d="M14.173,7.088c-.051-.061-.014-.097.031-.03.016.024.024.046.014.061-.01.015-.042.017-.044-.031Z" fill="#fff" fill-rule="evenodd" />
        <path d="M14.17,7.266c.013-.026.034-.024.058-.022.034.003.038,0,.038-.02,0-.024-.019-.052.038-.046.058.007.11.028.076-.02-.034-.048-.074-.074-.085-.083-.011-.009-.015-.041.032-.042.046-.002.063.011.092.047.021.027.033.055.042.078.017.042.016.048-.021.064-.038.016-.055.017-.096.014-.023-.002-.033-.005-.03.023.003.028-.002.047-.021.06-.019.014-.037-.003-.08-.011-.041-.007-.062-.002-.042-.042Z" fill="#fff" fill-rule="evenodd" />
        <path d="M14.45,6.798c.01-.038.03-.07.063-.092.032-.021.047-.009.044.031-.005.055-.019.077-.072.095-.034.012-.046.011-.035-.034Z" fill="#fff" fill-rule="evenodd" />
        <path d="M15.018,6.541c.021-.043.015-.055-.012-.06-.031-.006-.035-.037.015-.062.05-.025.087-.002.097.037.008.031.007.055-.022.099-.108.158-.192.223-.078-.013Z" fill="#fff" fill-rule="evenodd" />
        <path d="M14.676,6.68c.035.052.121.16.141.212.006.014.004.022,0,.028-.004.009-.01.015.003.035.006.01.022.024.031.033.013.013.022.015.032.015.011,0,.019.005.033.023.071.089.116.193.193.283.023.026.052.054.052.004,0-.043-.01-.073-.033-.115-.101-.177-.261-.397-.376-.58-.024-.039-.044-.06-.079-.012-.023.032-.018.046.001.075Z" fill="#fff" fill-rule="evenodd" />
        <path d="M14.075,8.023c.003-.017.014-.041.054-.027.058.02.077.041.073-.035-.004-.076-.011-.25-.01-.309.001-.059.005-.065.025-.081.02-.016.035-.022.07.031.034.052.105.138.154.187.049.05.08.07.115-.029.035-.099.054-.142-.01-.2-.065-.058-.087-.099-.108-.122-.02-.023-.03-.046-.006-.081.024-.035.039-.041.067,0,.028.041.099.145.151.2.052.056.079.052.118.018.039-.034.05-.052-.004-.122-.053-.07-.153-.153-.168-.17-.015-.016-.023-.042.001-.09.024-.048.042-.032.084.01.042.042.163.16.192.212.029.052.036.099.026.157-.015.087-.037.108-.123.109-.112.003-.118.091-.166.171-.033.056-.065.13-.177.034-.079-.068-.113-.101-.131-.12-.035-.038-.042-.054-.038.024.004.075.013.138.013.211,0,.125-.012.152-.142.109-.04-.014-.067-.035-.058-.087Z" fill="#fff" fill-rule="evenodd" />
        <path d="M13.355,8.499c-.03-.089-.046-.184-.046-.283,0-.086.012-.169.035-.247.022-.087.03-.177.025-.267.048.135.075.28.075.432,0,.075-.007.145-.018.218-.01.056-.035.107-.07.147Z" fill="#fff" fill-rule="evenodd" />
        <path d="M13.63,8.319c.112-.048.209-.126.28-.224-.021.153-.102.288-.218.38-.072.058-.164.078-.252.052.029-.094.099-.171.19-.208Z" fill="#fff" fill-rule="evenodd" />
        <path d="M13.321,8.79c.016-.075.081-.133.16-.139.053-.005.102-.021.145-.047-.01.114-.106.202-.222.202-.029,0-.057-.006-.083-.016Z" fill="#fff" fill-rule="evenodd" />
        <path d="M13.219,8.828c-.073-.103-.077-.204-.077-.324,0-.152.019-.299.055-.44.044.156.068.321.068.491,0,.097-.002.184-.046.273Z" fill="#fff" fill-rule="evenodd" />
        <path d="M13.165,9.069c.015-.089.091-.158.184-.162.06-.005.118-.018.172-.04-.02.125-.129.22-.259.22-.034,0-.067-.006-.097-.018Z" fill="#fff" fill-rule="evenodd" />
        <path d="M13.171,9.198c.065,0,.126-.011.182-.035-.051.122-.171.207-.311.207-.012,0-.024,0-.037-.002v-.005c0-.092.074-.166.166-.166Z" fill="#fff" fill-rule="evenodd" />
        <path d="M13.099,8.878c.002.033.006.197-.046.201-.032.002-.066-.077-.077-.181-.009-.097-.018-.183-.018-.282,0-.112.008-.221.025-.329.064.187.104.384.116.59Z" fill="#fff" fill-rule="evenodd" />
        <path d="M12.94,9.178c.002.033.006.197-.046.201-.033.003-.066-.077-.077-.181-.009-.097-.018-.183-.018-.282,0-.112.008-.221.025-.328.064.186.104.384.116.59Z" fill="#fff" fill-rule="evenodd" />
        <path d="M12.677,9.034c-.019-.057-.028-.119-.028-.182,0-.076.015-.149.041-.216h.05c-.026.067-.041.14-.041.216,0,.064.009.125.028.182.016.065.025.133.025.203,0,.077-.01.151-.03.222h-.05c.02-.071.03-.145.03-.222,0-.07-.009-.138-.025-.203Z" fill="#fff" fill-rule="evenodd" />
        <path d="M12.427,9.433c.033-.104.051-.214.051-.329,0-.071-.007-.14-.02-.207h.082c.013.067.02.136.02.207,0,.115-.018.225-.051.329-.015.05-.024.103-.024.157,0,.069.013.135.037.196.029.079.046.164.046.253,0,.022-.001.043-.003.064h-.082c.002-.021.003-.042.003-.064,0-.089-.016-.174-.046-.253-.024-.06-.037-.126-.037-.196,0-.055.008-.108.024-.157Z" fill="#fff" fill-rule="evenodd" />
        <path d="M12.262,9.431c.011-.037.017-.076.017-.117,0-.052-.01-.102-.028-.147h.057c.018.045.028.095.028.147,0,.041-.006.08-.017.117-.014.041-.021.084-.021.13,0,.05.009.097.026.141h-.057c-.017-.044-.026-.092-.026-.141,0-.045.008-.089.021-.13Z" fill="#fff" fill-rule="evenodd" />
        <path d="M12.164,10.865c-.157-.069-.274-.219-.291-.403-.003-.03-.003-.06,0-.09.029.068.073.127.128.175.089.079.15.19.164.317Z" fill="#fff" fill-rule="evenodd" />
        <path d="M12.168,11.185c-.157-.069-.274-.219-.291-.403-.003-.03-.003-.06,0-.09.029.068.073.127.128.175.089.078.15.19.164.317Z" fill="#fff" fill-rule="evenodd" />
        <path d="M12.196,11.472c-.165-.05-.298-.185-.337-.365-.006-.03-.01-.059-.011-.089.037.064.088.118.148.158.098.067.172.17.2.295Z" fill="#fff" fill-rule="evenodd" />
        <path d="M12.261,11.168c-.006-.023-.008-.048-.006-.074.006-.066.043-.122.095-.155.033-.022.06-.054.076-.092.012.033.016.069.012.105-.01.104-.083.187-.177.215Z" fill="#fff" fill-rule="evenodd" />
        <path d="M12.288,11.46c-.006-.023-.008-.048-.006-.073.006-.066.043-.122.096-.155.033-.022.06-.054.076-.092.011.033.016.069.012.105-.01.104-.083.187-.178.215Z" fill="#fff" fill-rule="evenodd" />
        <path d="M12.195,11.641c.033.058.033.121,0,.14-.039.023-.091-.023-.112-.054-.061-.086-.104-.186-.122-.295.079.043.19.131.235.209Z" fill="#fff" fill-rule="evenodd" />
        <path d="M12.328,11.63c.035-.073.092-.133.162-.172.004.022.006.046.006.069,0,.059-.013.116-.037.166-.027.058-.072.07-.11.06-.037-.01-.052-.059-.021-.123Z" fill="#fff" fill-rule="evenodd" />
        <path d="M12.723,10.965c0-.103.024-.199.068-.285.043.086.067.182.067.285-.001.074-.013.131-.067.189-.054-.057-.066-.115-.068-.189Z" fill="#fff" fill-rule="evenodd" />
        <path d="M12.586,11.061c.097.081.166.194.189.323.004.024.009.075-.016.086-.024.011-.056-.024-.069-.042-.066-.091-.106-.203-.106-.325,0-.014,0-.029.002-.043Z" fill="#fff" fill-rule="evenodd" />
        <path d="M13.046,10.997c-.097.081-.165.194-.189.323-.004.024-.009.075.016.086.024.011.056-.024.069-.042.078-.107.114-.236.104-.368Z" fill="#fff" fill-rule="evenodd" />
        <path d="M12.794,11.733c-.129-.044-.223-.166-.223-.31v-.005c.045.05.1.09.161.119.046.026.076.075.076.131,0,.023-.005.045-.015.065Z" fill="#fff" fill-rule="evenodd" />
        <path d="M12.965,11.477c.027-.022.048-.049.062-.081.018.032.027.068.027.107,0,.102-.07.188-.164.213-.006-.02-.01-.042-.01-.065,0-.07.033-.133.084-.174Z" fill="#fff" fill-rule="evenodd" />
        <path d="M12.812,11.956c-.131-.038-.229-.157-.234-.301v-.005c.047.048.103.086.165.113.046.024.079.072.081.128.001.023-.003.045-.012.065Z" fill="#fff" fill-rule="evenodd" />
        <path d="M13.029,11.751c.028-.014.053-.033.074-.057.003.015.005.03.005.046,0,.118-.09.215-.205.226-.001-.021,0-.043.005-.064.016-.069.063-.122.122-.15Z" fill="#fff" fill-rule="evenodd" />
        <path d="M13.328,13.364c.027.059.068.111.119.152.078.06.122.158.111.256-.008.077.01.156.047.226-.091-.051-.153-.147-.155-.258,0-.065-.021-.126-.056-.175-.04-.058-.064-.127-.066-.202Z" fill="#fff" fill-rule="evenodd" />
        <path d="M12.355,12.612c-.041-.031-.067-.08-.067-.135,0-.054.048-.164.067-.219.019.055.067.164.067.219,0,.055-.026.104-.067.135Z" fill="#fff" fill-rule="evenodd" />
        <path d="M12.055,12.587c-.118-.102-.22-.234-.299-.378.096.091.204.169.321.232.092.048.167.125.213.219-.014.002-.029.003-.043.003-.074,0-.141-.029-.192-.076Z" fill="#fff" fill-rule="evenodd" />
        <path d="M13.783,12.992c.012.013.02.032.014.05-.01.035-.067.049-.127.031-.035-.011-.067-.03-.085-.062-.032-.056-.049-.117-.049-.182,0-.023.002-.045.006-.066.087.069.168.146.241.229Z" fill="#fff" fill-rule="evenodd" />
        <path d="M12.609,12.785c.012.048-.005.094-.036.101-.031.008-.067-.026-.079-.075-.018-.083-.013-.194.003-.278.053.077.089.16.112.251Z" fill="#fff" fill-rule="evenodd" />
        <path d="M12.692,12.714c.062.094.077.194.056.302-.006.031-.029.076-.067.071-.043-.005-.046-.057-.047-.092,0-.052.01-.101.028-.147.016-.043.026-.088.03-.134Z" fill="#fff" fill-rule="evenodd" />
        <path d="M12.801,13.377c-.008.035-.044.099-.088.087-.033-.009-.049-.061-.034-.117.015-.056.054-.13.081-.178.03-.052.052-.109.066-.169.003.035.005.071.005.108,0,.087-.01.184-.031.269Z" fill="#fff" fill-rule="evenodd" />
        <path d="M12.957,13.755c-.038.006-.079-.056-.091-.138-.012-.077.009-.186.028-.252.01-.038.016-.079.016-.12,0-.013,0-.026-.001-.039.064.12.101.256.101.402,0,.045,0,.139-.052.147Z" fill="#fff" fill-rule="evenodd" />
        <path d="M13.144,13.951c-.007-.129-.008-.257-.002-.385.071.089.148.249.148.369,0,.062-.033.112-.073.112-.037,0-.067-.042-.073-.096Z" fill="#fff" fill-rule="evenodd" />
        <path d="M12.368,12.8c.018.01.102.068.073.111-.018.027-.078.024-.136-.006-.12-.063-.213-.125-.301-.231.132.017.254.059.364.126Z" fill="#fff" fill-rule="evenodd" />
        <path d="M12.539,13.051c.019.011.112.069.083.116-.018.03-.082.029-.145,0-.131-.062-.233-.124-.332-.234.141.013.274.051.394.118Z" fill="#fff" fill-rule="evenodd" />
        <path d="M12.477,13.225c.019.012.108.074.08.111-.018.023-.079.014-.141-.02-.126-.071-.224-.138-.319-.245.136.03.265.081.38.154Z" fill="#fff" fill-rule="evenodd" />
        <path d="M12.522,13.438c.019.012.108.074.08.11-.018.023-.079.014-.141-.02-.126-.071-.224-.138-.319-.245.137.03.265.081.38.154Z" fill="#fff" fill-rule="evenodd" />
        <path d="M12.872,13.863c-.222-.027-.415-.144-.544-.314.131.065.272.115.418.148.079.014.133.087.125.166Z" fill="#fff" fill-rule="evenodd" />
        <path d="M13.036,13.986c-.145-.039-.289-.071-.438-.095.085.103.247.228.384.257.07.015.135-.011.145-.056.009-.042-.031-.087-.091-.106Z" fill="#fff" fill-rule="evenodd" />
        <path d="M14.34,13.752c-.007.034-.031.059-.054.054-.022-.005-.034-.037-.027-.071.002-.011.006-.02.012-.03.025-.042.047-.086.063-.133.008.033.012.068.012.103,0,.026-.003.052-.007.077Z" fill="#fff" fill-rule="evenodd" />
        <path d="M14.163,13.759c-.027.039-.068.057-.092.041-.038-.026-.006-.088.016-.114.044-.054.077-.132.092-.199.011.038.017.079.017.121,0,.042-.006.112-.033.152Z" fill="#fff" fill-rule="evenodd" />
        <path d="M14.054,13.538c-.026.045-.074.066-.108.047-.048-.028-.03-.106.003-.14.061-.067.105-.151.121-.244.015.047.023.097.023.149,0,.048-.011.14-.04.189Z" fill="#fff" fill-rule="evenodd" />
        <path d="M13.949,13.275c-.026.045-.074.066-.108.047-.048-.028-.03-.106.003-.14.061-.067.105-.151.121-.244.015.047.023.097.023.149,0,.048-.011.14-.039.189Z" fill="#fff" fill-rule="evenodd" />
        <path d="M13.93,13.734c-.098-.049-.198-.092-.301-.13.046.086.145.199.239.239.048.021.099.012.112-.02.012-.029-.01-.067-.051-.089Z" fill="#fff" fill-rule="evenodd" />
        <path d="M13.818,13.59c-.211-.073-.376-.228-.466-.42.115.091.242.169.379.232.074.03.112.112.087.189Z" fill="#fff" fill-rule="evenodd" />
        <path d="M13.573,13.094c.09.048.179.134.164.245-.249-.144-.467-.334-.645-.558.146.123.307.229.481.313Z" fill="#fff" fill-rule="evenodd" />
        <path d="M13.479,12.907c-.013.021-.036.034-.062.034-.015,0-.029-.005-.041-.012-.075-.053-.123-.137-.13-.228.069.077.148.146.233.206Z" fill="#fff" fill-rule="evenodd" />
        <path d="M19.795,14.517c.511.346,1.394.367,1.601-.318-.341.114-.709.078-1.024-.095-.518-.285-1.205-.431-1.613.23.081-.032.157-.052.23-.063.027-.077.071-.148.128-.202l.065-.062-.02.088c-.013.055-.021.11-.024.166.023,0,.046.002.068.005.071-.09.157-.123.268-.132.007.072.006.126-.023.195.114.045.226.11.343.19Z" fill="#fff" fill-rule="evenodd" />
        <path d="M19.805,8.515v-.018c0-.172-.121-.316-.283-.351v.018c0,.173.121.316.283.351Z" fill="#fff" fill-rule="evenodd" />
        <path d="M19.662,8.553c-.09-.025-.167-.082-.219-.157.027.226.219.401.452.401.014,0,.027,0,.041-.002-.046-.119-.148-.21-.274-.242Z" fill="#fff" fill-rule="evenodd" />
        <path d="M20.029,8.752c.029-.055.046-.119.046-.186,0-.11-.045-.21-.118-.282-.029.056-.046.119-.046.186,0,.111.045.21.118.282Z" fill="#fff" fill-rule="evenodd" />
        <path d="M20.44,8.304c.008-.031.012-.063.012-.096,0-.166-.102-.308-.246-.367-.007.031-.012.063-.012.095,0,.166.102.308.246.367Z" fill="#fff" fill-rule="evenodd" />
        <path d="M20.178,9.118c.052-.068.082-.152.082-.243,0-.111-.045-.21-.117-.283.01.032.015.066.015.1,0,.039-.006.076-.018.11-.014.038-.022.078-.022.121,0,.072.022.139.06.195Z" fill="#fff" fill-rule="evenodd" />
        <path d="M20.077,9.071c-.031-.094-.116-.163-.217-.173-.051-.009-.097-.034-.133-.069.013.141.132.252.277.252.026,0,.05-.003.074-.01Z" fill="#fff" fill-rule="evenodd" />
        <path d="M20.063,9.221c-.062-.016-.119-.046-.165-.088,0,.141.115.256.256.256.035,0,.069-.007.099-.02-.039-.073-.108-.128-.191-.149Z" fill="#fff" fill-rule="evenodd" />
        <path d="M20.319,9.377c.067-.055.111-.138.111-.232,0-.082-.033-.156-.087-.21-.003.043-.016.084-.036.12-.026.044-.042.097-.042.152,0,.063.02.122.053.17Z" fill="#fff" fill-rule="evenodd" />
        <path d="M21.212,9.808c.009-.027.014-.057.014-.088,0-.13-.09-.238-.211-.266-.009.028-.015.057-.015.087,0,.13.09.238.211.266Z" fill="#fff" fill-rule="evenodd" />
        <path d="M20.732,9.543c-.07.086-.127.183-.171.287-.008-.12-.035-.236-.077-.344-.041-.005-.082-.008-.125-.008.021.087.033.177.035.27-.083-.076-.176-.141-.278-.191,0,.043.003.084.008.126.272.126.489.351.603.63-.199.295-.322.63-.322.975,0,.171.05.329.137.463-.046-.017-.089-.04-.129-.068-.006.146.045.287.143.396-.362.105-.547.509-.511.874.131-.133.3-.229.49-.269l.918-.197c.015-.003.029-.007.044-.011.002-.072.065-.217.093-.297.027.076.062.157.082.232.337-.164.557-.516.541-.904-.224.271-.552.453-.924.484l-.581.061c-.044-.077-.069-.166-.069-.26,0-.065.012-.127.034-.185.055-.159.125-.312.207-.456-.014-.075-.01-.132-.004-.205.029.024.058.047.084.074.034-.052.069-.103.107-.152.014-.095.045-.162.087-.245.014.028.029.057.042.086.134-.153.285-.29.45-.409-.118-.047-.247-.073-.382-.073-.035,0-.069.002-.104.005.002-.02.002-.04.002-.061,0-.106-.016-.208-.046-.305-.12.108-.23.227-.326.355-.032-.107-.049-.221-.049-.339,0-.11.015-.216.043-.317-.018-.007-.036-.014-.054-.02Z" fill="#fff" fill-rule="evenodd" />
        <path d="M20.263,10.182c-.017-.119-.069-.226-.144-.312-.022.015-.043.032-.064.05.067.075.113.169.128.275.031.179.131.336.276.44.011-.025.022-.051.033-.075-.119-.091-.203-.224-.23-.378Z" fill="#fff" fill-rule="evenodd" />
        <path d="M20.315,9.97c.072.051.134.119.178.199.006.087.033.17.076.243.015-.026.03-.051.045-.077-.027-.057-.044-.12-.046-.187-.072-.139-.19-.249-.335-.311.033.04.061.084.082.133Z" fill="#fff" fill-rule="evenodd" />
        <path d="M21.683,10.882c.008-.023.013-.047.013-.073,0-.066-.031-.126-.08-.163-.031-.025-.054-.06-.067-.099-.014.032-.022.067-.022.104,0,.105.064.195.156.231Z" fill="#fff" fill-rule="evenodd" />
        <path d="M21.708,10.587c.004-.015.006-.032.006-.048,0-.067-.031-.126-.08-.164-.004.015-.006.032-.006.048,0,.067.031.126.08.164Z" fill="#fff" fill-rule="evenodd" />
        <path d="M21.754,10.327c.056-.08.089-.177.089-.282,0-.082-.02-.159-.055-.227-.056.08-.089.177-.089.282,0,.082.02.159.055.227Z" fill="#fff" fill-rule="evenodd" />
        <path d="M21.772,10.597c.15-.084.252-.244.252-.428,0-.031-.003-.06-.008-.089-.023.071-.061.134-.111.186-.081.087-.131.203-.133.331Z" fill="#fff" fill-rule="evenodd" />
        <path d="M22.087,11.547c.084-.107.14-.236.155-.378-.02.012-.042.024-.063.034-.022.133-.083.253-.171.348h.009c.024,0,.048-.001.071-.003Z" fill="#fff" fill-rule="evenodd" />
        <path d="M20.084,15.107c-.007-.001-.015-.002-.023-.002-.049,0-.088.026-.088.058,0,.037.046.055.077.058.035.004.071.007.107.007.167,0,.323-.047.455-.128-.094.017-.19.026-.288.026-.081,0-.161-.006-.239-.018Z" fill="#fff" fill-rule="evenodd" />
        <path d="M19.818,15.236c-.007-.002-.014-.004-.022-.004-.047-.005-.088.015-.091.046-.004.035.038.057.067.064.033.008.067.014.102.018.16.018.315-.01.452-.073-.092.006-.185.004-.28-.007-.078-.009-.154-.023-.228-.043Z" fill="#fff" fill-rule="evenodd" />
        <path d="M19.524,15.467c.036.008.072.015.11.019.139.016.274,0,.398-.043-.166-.002-.324-.033-.471-.09-.049-.019-.099.002-.106.035-.006.03.003.065.068.079Z" fill="#fff" fill-rule="evenodd" />
        <path d="M20.308,15.015c.219,0,.427-.081.587-.23-.102.038-.212.059-.326.059-.026,0-.052-.001-.077-.003-.104-.009-.187.072-.184.175Z" fill="#fff" fill-rule="evenodd" />
        <path d="M20.094,15.01c.065-.072.112-.159.135-.256-.094.033-.177.09-.242.164-.012.014-.02.029-.02.049,0,.039.032.071.071.071.023,0,.043-.011.056-.027Z" fill="#fff" fill-rule="evenodd" />
        <path d="M19.813,15.137c.051-.082.082-.176.088-.276-.087.05-.159.12-.209.204-.01.016-.014.032-.011.052.007.038.044.064.082.057.022-.004.04-.018.05-.037Z" fill="#fff" fill-rule="evenodd" />
        <path d="M19.526,15.223c.074-.105.129-.223.156-.344-.107.069-.201.162-.275.269-.014.02-.022.041-.023.063,0,.046.035.074.079.062.026-.007.048-.026.063-.049Z" fill="#fff" fill-rule="evenodd" />
        <path d="M19.184,15.309c.137-.149.255-.313.342-.479-.161.106-.318.242-.456.395-.026.028-.045.057-.055.087-.021.061.011.093.07.071.034-.013.071-.041.099-.074Z" fill="#fff" fill-rule="evenodd" />
        <path d="M20.576,13.723c.112-.057.182-.178.179-.317-.004-.162.054-.312.168-.424-.143.065-.238.213-.231.381.003.138-.038.265-.116.36Z" fill="#fff" fill-rule="evenodd" />
        <path d="M19.036,14.73c-.034.007-.061.037-.061.073,0,.039.03.071.069.074.01,0,.02,0,.03,0,.138,0,.262-.056.352-.147-.063-.013-.128-.02-.195-.02s-.131.007-.194.02Z" fill="#fff" fill-rule="evenodd" />
        <path d="M18.816,15.007c-.024.009-.04.033-.04.06,0,.037.032.066.069.064.156-.003.297-.068.4-.17-.036-.004-.072-.006-.109-.006-.112,0-.219.019-.32.053Z" fill="#fff" fill-rule="evenodd" />
        <path d="M18.809,14.756c.007.027.031.047.06.047.035,0,.062-.028.062-.062,0-.01-.002-.019-.006-.027-.024-.07-.036-.144-.036-.221,0-.049.005-.098.015-.144-.07.076-.112.177-.112.288,0,.041.006.08.017.119Z" fill="#fff" fill-rule="evenodd" />
        <path d="M18.626,15.009c.011.021.031.035.056.035.035,0,.063-.028.063-.063,0-.01-.003-.02-.007-.029-.038-.081-.059-.171-.059-.266,0-.022.001-.044.003-.066-.059.06-.096.142-.096.233,0,.056.014.109.039.156Z" fill="#fff" fill-rule="evenodd" />
        <path d="M19.217,14.298c-.012.017-.018.033-.018.055,0,.051.042.093.093.093.025,0,.05-.011.067-.029.058-.057.093-.137.093-.224,0-.01,0-.02-.001-.03-.097.008-.181.06-.234.136Z" fill="#fff" fill-rule="evenodd" />
        <path d="M19.544,14.472c-.065.014-.133.021-.203.021-.029,0-.058-.001-.086-.004-.05-.007-.096.034-.096.084,0,.047.038.085.085.085.128-.003.241-.072.3-.186Z" fill="#fff" fill-rule="evenodd" />
        <path d="M18.993,14.47c.007.061.042.107.077.103.052-.006.055-.09.05-.128-.007-.037-.009-.095-.009-.133,0-.077.009-.151.025-.222-.099.094-.162.244-.143.381Z" fill="#fff" fill-rule="evenodd" />
        <path d="M18.462,14.798c-.037.012-.04.108-.007.214l.072-.034c.033-.016.047-.054.033-.087-.012-.027-.059-.105-.097-.093Z" fill="#fff" fill-rule="evenodd" />
        <path d="M20.591,8.499c.03-.089.046-.184.046-.283,0-.086-.012-.169-.035-.247-.022-.087-.03-.177-.025-.267-.049.135-.075.28-.075.432,0,.075.007.145.018.218.01.056.035.107.07.147Z" fill="#fff" fill-rule="evenodd" />
        <path d="M20.316,8.319c-.112-.048-.209-.126-.28-.224.021.153.102.288.217.38.072.058.164.078.253.052-.029-.094-.1-.171-.19-.208Z" fill="#fff" fill-rule="evenodd" />
        <path d="M20.625,8.79c-.016-.075-.081-.133-.16-.139-.053-.005-.102-.021-.145-.047.01.114.106.202.222.202.029,0,.057-.006.083-.016Z" fill="#fff" fill-rule="evenodd" />
        <path d="M20.727,8.828c.073-.103.076-.204.076-.324,0-.152-.019-.299-.054-.44-.044.156-.068.321-.068.491,0,.097.002.184.046.273Z" fill="#fff" fill-rule="evenodd" />
        <path d="M20.781,9.069c-.015-.089-.091-.158-.184-.162-.06-.005-.118-.018-.172-.04.02.125.129.22.259.22.034,0,.067-.006.097-.018Z" fill="#fff" fill-rule="evenodd" />
        <path d="M20.775,9.198c-.065,0-.126-.011-.182-.035.051.122.171.207.312.207.012,0,.024,0,.036-.002v-.005c0-.092-.074-.166-.166-.166Z" fill="#fff" fill-rule="evenodd" />
        <path d="M20.847,8.878c-.002.033-.006.197.046.201.032.002.066-.077.077-.181.009-.097.018-.183.018-.282,0-.112-.008-.221-.024-.329-.065.187-.104.384-.116.59Z" fill="#fff" fill-rule="evenodd" />
        <path d="M21.006,9.178c-.002.033-.006.197.046.201.032.003.066-.077.076-.181.009-.097.018-.183.018-.282,0-.112-.008-.221-.025-.328-.064.186-.104.384-.116.59Z" fill="#fff" fill-rule="evenodd" />
        <path d="M21.269,9.034c.019-.057.028-.119.028-.182,0-.076-.014-.149-.041-.216h-.05c.026.067.041.14.041.216,0,.064-.009.125-.028.182-.016.065-.025.133-.025.203,0,.077.01.151.03.222h.05c-.019-.071-.03-.145-.03-.222,0-.07.009-.138.025-.203Z" fill="#fff" fill-rule="evenodd" />
        <path d="M21.519,9.433c-.033-.104-.051-.214-.051-.329,0-.071.007-.14.02-.207h-.082c-.013.067-.02.136-.02.207,0,.115.018.225.051.329.015.05.024.103.024.157,0,.069-.013.135-.037.196-.029.079-.046.164-.046.253,0,.022,0,.043.003.064h.082c-.002-.021-.003-.042-.003-.064,0-.089.016-.174.046-.253.024-.06.037-.126.037-.196,0-.055-.008-.108-.024-.157Z" fill="#fff" fill-rule="evenodd" />
        <path d="M21.684,9.431c-.011-.037-.017-.076-.017-.117,0-.052.01-.102.028-.147h-.057c-.018.045-.028.095-.028.147,0,.041.006.08.017.117.014.041.022.084.022.13,0,.05-.009.097-.026.141h.057c.017-.044.026-.092.026-.141,0-.045-.008-.089-.021-.13Z" fill="#fff" fill-rule="evenodd" />
        <path d="M21.783,10.865c.157-.069.274-.219.291-.403.003-.03.003-.06,0-.09-.029.068-.073.127-.128.175-.089.079-.15.19-.164.317Z" fill="#fff" fill-rule="evenodd" />
        <path d="M21.778,11.185c.157-.069.274-.219.291-.403.003-.03.003-.06,0-.09-.029.068-.073.127-.128.175-.089.078-.15.19-.163.317Z" fill="#fff" fill-rule="evenodd" />
        <path d="M21.75,11.472c.164-.05.298-.185.337-.365.007-.03.01-.059.011-.089-.037.064-.088.118-.148.158-.098.067-.172.17-.2.295Z" fill="#fff" fill-rule="evenodd" />
        <path d="M21.685,11.168c.006-.023.008-.048.006-.074-.007-.066-.043-.122-.096-.155-.033-.022-.06-.054-.076-.092-.011.033-.016.069-.012.105.01.104.083.187.177.215Z" fill="#fff" fill-rule="evenodd" />
        <path d="M21.658,11.46c.006-.023.008-.048.006-.073-.006-.066-.043-.122-.096-.155-.033-.022-.06-.054-.076-.092-.011.033-.016.069-.012.105.01.104.083.187.178.215Z" fill="#fff" fill-rule="evenodd" />
        <path d="M21.751,11.641c-.033.058-.033.121,0,.14.039.023.091-.023.112-.054.062-.086.105-.186.122-.295-.079.043-.19.131-.235.209Z" fill="#fff" fill-rule="evenodd" />
        <path d="M21.618,11.63c-.035-.073-.092-.133-.162-.172-.004.022-.006.046-.006.069,0,.059.014.116.037.166.027.058.072.07.109.06.037-.01.052-.059.022-.123Z" fill="#fff" fill-rule="evenodd" />
        <path d="M21.223,10.965c0-.103-.024-.199-.067-.285-.043.086-.067.182-.067.285.001.074.013.131.067.189.054-.057.066-.115.067-.189Z" fill="#fff" fill-rule="evenodd" />
        <path d="M21.36,11.061c-.097.081-.166.194-.189.323-.004.024-.009.075.016.086.024.011.056-.024.069-.042.066-.091.106-.203.106-.325,0-.014,0-.029-.002-.043Z" fill="#fff" fill-rule="evenodd" />
        <path d="M20.9,10.997c.097.081.165.194.189.323.004.024.009.075-.016.086-.024.011-.056-.024-.069-.042-.078-.107-.114-.236-.104-.368Z" fill="#fff" fill-rule="evenodd" />
        <path d="M21.152,11.733c.129-.044.222-.166.222-.31v-.005c-.045.05-.099.09-.161.119-.045.026-.076.075-.076.131,0,.023.005.045.015.065Z" fill="#fff" fill-rule="evenodd" />
        <path d="M20.981,11.477c-.027-.022-.048-.049-.062-.081-.017.032-.027.068-.027.107,0,.102.07.188.164.213.006-.02.01-.042.01-.065,0-.07-.033-.133-.084-.174Z" fill="#fff" fill-rule="evenodd" />
        <path d="M21.135,11.956c.131-.038.228-.157.234-.301v-.005c-.047.048-.103.086-.165.113-.046.024-.079.072-.081.128,0,.023.004.045.012.065Z" fill="#fff" fill-rule="evenodd" />
        <path d="M20.916,11.751c-.028-.014-.053-.033-.073-.057-.003.015-.005.03-.005.046,0,.118.09.215.206.226.001-.021,0-.043-.006-.064-.016-.069-.062-.122-.122-.15Z" fill="#fff" fill-rule="evenodd" />
        <path d="M20.618,13.364c-.027.059-.069.111-.119.152-.078.06-.122.158-.111.256.008.077-.01.156-.047.226.091-.051.153-.147.155-.258,0-.065.021-.126.056-.175.04-.058.064-.127.066-.202Z" fill="#fff" fill-rule="evenodd" />
        <path d="M21.591,12.612c.041-.031.067-.08.067-.135,0-.054-.048-.164-.067-.219-.019.055-.067.164-.067.219,0,.055.026.104.067.135Z" fill="#fff" fill-rule="evenodd" />
        <path d="M21.891,12.587c.118-.102.22-.234.299-.378-.096.091-.204.169-.321.232-.092.048-.167.125-.213.219.014.002.029.003.043.003.074,0,.141-.029.192-.076Z" fill="#fff" fill-rule="evenodd" />
        <path d="M20.163,12.992c-.012.013-.02.032-.014.05.01.035.067.049.127.031.035-.011.067-.03.085-.062.032-.056.049-.117.049-.182,0-.023-.002-.045-.006-.066-.087.069-.168.146-.241.229Z" fill="#fff" fill-rule="evenodd" />
        <path d="M21.337,12.785c-.011.048.005.094.036.101.031.008.067-.026.079-.075.018-.083.013-.194-.003-.278-.053.077-.089.16-.112.251Z" fill="#fff" fill-rule="evenodd" />
        <path d="M21.254,12.714c-.062.094-.077.194-.056.302.006.031.03.076.067.071.043-.005.046-.057.047-.092,0-.052-.01-.101-.028-.147-.016-.043-.026-.088-.03-.134Z" fill="#fff" fill-rule="evenodd" />
        <path d="M21.145,13.377c.008.035.044.099.088.087.033-.009.048-.061.034-.117-.015-.056-.054-.13-.081-.178-.03-.052-.052-.109-.066-.169-.003.035-.005.071-.005.108,0,.087.01.184.031.269Z" fill="#fff" fill-rule="evenodd" />
        <path d="M20.989,13.755c.038.006.079-.056.091-.138.012-.077-.009-.186-.028-.252-.01-.038-.016-.079-.016-.12,0-.013,0-.026.001-.039-.064.12-.101.256-.101.402,0,.045,0,.139.052.147Z" fill="#fff" fill-rule="evenodd" />
        <path d="M20.802,13.951c.007-.129.008-.257.002-.385-.071.089-.148.249-.148.369,0,.062.033.112.073.112.037,0,.067-.042.073-.096Z" fill="#fff" fill-rule="evenodd" />
        <path d="M21.578,12.8c-.018.01-.102.068-.073.111.018.027.078.024.136-.006.12-.063.213-.125.301-.231-.132.017-.254.059-.364.126Z" fill="#fff" fill-rule="evenodd" />
        <path d="M21.407,13.051c-.019.011-.112.069-.083.116.018.03.082.029.145,0,.131-.062.233-.124.332-.234-.141.013-.274.051-.394.118Z" fill="#fff" fill-rule="evenodd" />
        <path d="M21.469,13.225c-.019.012-.108.074-.08.111.018.023.079.014.141-.02.126-.071.224-.138.319-.245-.137.03-.265.081-.38.154Z" fill="#fff" fill-rule="evenodd" />
        <path d="M21.424,13.438c-.019.012-.108.074-.08.11.018.023.079.014.141-.02.126-.071.224-.138.32-.245-.137.03-.265.081-.38.154Z" fill="#fff" fill-rule="evenodd" />
        <path d="M21.074,13.863c.222-.027.415-.144.543-.314-.131.065-.272.115-.418.148-.079.014-.133.087-.125.166Z" fill="#fff" fill-rule="evenodd" />
        <path d="M20.91,13.986c.145-.039.289-.071.438-.095-.084.103-.247.228-.384.257-.07.015-.135-.011-.145-.056-.009-.042.031-.087.091-.106Z" fill="#fff" fill-rule="evenodd" />
        <path d="M19.606,13.752c.007.034.031.059.054.054.022-.005.035-.037.027-.071-.002-.011-.006-.02-.012-.03-.025-.042-.047-.086-.063-.133-.008.033-.013.068-.013.103,0,.026.003.052.007.077Z" fill="#fff" fill-rule="evenodd" />
        <path d="M19.783,13.759c.027.039.068.057.092.041.037-.026.006-.088-.016-.114-.044-.054-.077-.132-.092-.199-.011.038-.017.079-.017.121,0,.042.006.112.033.152Z" fill="#fff" fill-rule="evenodd" />
        <path d="M19.892,13.538c.026.045.075.066.108.047.048-.028.03-.106-.003-.14-.061-.067-.105-.151-.121-.244-.015.047-.023.097-.023.149,0,.048.011.14.039.189Z" fill="#fff" fill-rule="evenodd" />
        <path d="M19.997,13.275c.026.045.074.066.108.047.048-.028.03-.106-.004-.14-.061-.067-.104-.151-.12-.244-.015.047-.023.097-.023.149,0,.048.011.14.039.189Z" fill="#fff" fill-rule="evenodd" />
        <path d="M20.016,13.734c.098-.049.198-.092.301-.13-.046.086-.145.199-.239.239-.048.021-.099.012-.112-.02-.012-.029.01-.067.05-.089Z" fill="#fff" fill-rule="evenodd" />
        <path d="M20.128,13.59c.211-.073.376-.228.466-.42-.115.091-.242.169-.378.232-.075.03-.112.112-.088.189Z" fill="#fff" fill-rule="evenodd" />
        <path d="M20.373,13.094c-.09.048-.179.134-.164.245.249-.144.467-.334.645-.558-.146.123-.307.229-.481.313Z" fill="#fff" fill-rule="evenodd" />
        <path d="M20.467,12.907c.013.021.036.034.062.034.015,0,.029-.005.041-.012.075-.053.123-.137.13-.228-.069.077-.148.146-.233.206Z" fill="#fff" fill-rule="evenodd" />
      </g>
    </g>
  </g>
</g></svg>