<?xml version="1.0" encoding="UTF-8"?>
<svg id="Layer_2" data-name="Layer 2" xmlns="http://www.w3.org/2000/svg" viewBox="0 0 33.946 22.63">
  <g id="_Ñëîé_1" data-name="Ñëîé 1">
    <g>
      <rect width="33.946" height="22.63" fill="red"/>
      <path d="M16.973,6.565c.146-.25.344-.465.58-.631-.107-.032-.218-.054-.332-.068.234-.179.508-.308.807-.371-.167-.013-.334-.023-.503-.03.182-.211.406-.385.661-.506-.158-.099-.303-.218-.43-.353.367.02.728-.05,1.059-.212.166-.082.396-.132.649-.132.178,0,.332.104.404.255.09-.022.184-.035.28-.035.219-.003.397.166.397.387,0,.022-.018.04-.04.04-.016,0-.03-.01-.036-.023-.037-.083-.119-.141-.216-.141-.04,0-.078.01-.111.028-.129.064-.241.16-.322.278.085.022.175.033.267.033.334,0,.629-.15.808-.381.076-.1.154-.09.189-.036.039.061.026.179-.103.267-.243.166-.556.255-.875.255-.118,0-.235-.013-.347-.037-.012.024-.023.048-.032.073.106.067.231.106.366.106.133,0,.257-.038.361-.104.006-.004.013-.006.021-.006.022,0,.04.018.04.04,0,.012-.005.023-.014.03-.168.14-.379.229-.61.246-.389.026-.761.143-1.094.348-.386.238-.643.663-.643,1.15,0,.296.24.536.536.536s.536-.24.536-.536c0-.052-.008-.102-.021-.15-.063-.258.048-.539.289-.678l1.024-.591c.045-.027.097-.043.154-.043.133,0,.246.088.284.208.754-.056,1.4-.502,1.735-1.137.049-.107.13-.177.221-.177.15,0,.271.19.271.424,0,.81-1.297,1.367-1.982,1.358-.124,0-.225.101-.225.225,0,.257.338.252.524.252.505,0,.963-.201,1.299-.527.049-.049.108-.074.165-.064.125.022.198.197.165.391-.019.11-.068.203-.13.259-.278.265-.655.428-1.069.428-.286,0-.564-.033-.831-.096-.082-.015-.158.049-.158.132,0,.031.01.059.027.082.222.289.571.476.964.476.315,0,.603-.12.818-.317.105-.09.226-.121.314-.07.13.075.14.3.023.503-.154.266-.513.407-.808.407-.361,0-.816-.165-1.119-.352-.026-.018-.059-.028-.093-.028-.092,0-.167.075-.167.167,0,.044.017.084.045.114.294.291.766.611,1.198.611.177,0,.38-.053.537-.145.137-.083.295-.084.388.009.115.115.086.331-.065.482-.152.153-.414.171-.619.171-.466,0-.89-.189-1.204-.487-.026-.025-.05-.041-.088-.041-.063,0-.115.052-.115.115,0,.026.008.05.023.069.224.288.514.523.847.682.2.098.425.153.663.153.125,0,.245-.016.361-.044.055-.013.108-.008.154.018.124.072.141.276.037.456-.104.181-.274.249-.476.249-.478,0-1.102-.4-1.412-.745-.03-.036-.075-.059-.126-.059-.091,0-.164.073-.164.164,0,.023.005.045.013.065.286.715.978,1.129,1.738,1.115.104-.002.205-.018.301-.043.046-.012.09-.009.129.012.105.058.123.229.039.381-.084.153-.225.213-.393.217-.725,0-1.36-.388-1.708-.968-.056-.093-.118-.111-.16-.087-.042.024-.062.09-.029.163.175.385.414.735.701,1.038.318.338.77.506,1.231.46.184-.018.341.05.373.172.043.16-.084.28-.249.36-.317.154-.745.171-1.037-.05-.368-.273-.692-.603-.958-.976-.144-.203-.305-.394-.48-.569-.095-.096-.166-.113-.215-.084-.14.082-.1.434-.052.574.095.279.336.499.618.578.125.032.214.118.214.219,0,.129-.144.233-.323.233-.493,0-.913-.861-.963-1.285-.009-.104-.096-.185-.202-.185-.112,0-.203.091-.203.203,0,.292.193.604.427.77.072.044.114.104.099.157-.02.076-.15.108-.289.07-.305-.082-.617-.659-.712-.932-.017-.054-.067-.093-.126-.093-.085,0-.148.079-.129.161.165.835.842,1.486,1.689,1.612.035.003.062.032.062.067,0,.019-.007.036-.02.048l-.368.369c.514.05,1.002.184,1.452.388l.765-.442c-.018-.079.003-.166.065-.227.084-.084.255-.12.369-.115.04.002.078.008.11.023.123-.037.261-.007.358.09.03.03.053.065.071.1.008.017.005.033-.006.043-.01.01-.028.012-.045-.001-.087-.061-.196-.078-.295-.053-.017.07-.071.139-.121.188-.107.108-.27.194-.404.1l-.636.367h1.011c.015-.063.054-.119.115-.154.103-.059.278-.05.386-.016.074.024.137.06.152.137.081.027.153.082.199.162.021.037.034.076.042.115.004.018-.004.033-.016.04-.013.007-.03.004-.044-.013-.064-.077-.157-.121-.253-.127-.034.033-.074.06-.111.081-.143.083-.344.125-.444-.047h-.94l.536.31c.048-.044.112-.072.183-.072.132,0,.294.106.379.199.058.064.099.133.07.215.063.07.101.164.101.266,0,.047-.009.092-.023.134-.006.02-.022.03-.038.029-.016,0-.031-.013-.035-.037-.019-.109-.084-.203-.173-.262-.05.012-.104.016-.151.016-.184,0-.4-.071-.4-.292,0-.013,0-.027.003-.04l-.64-.37-.821.22v.015c0,.199-.194.263-.36.263-.042,0-.091-.004-.136-.015-.081.053-.139.138-.156.237-.003.022-.017.032-.031.033-.014,0-.028-.008-.034-.026-.013-.038-.021-.079-.021-.121,0-.092.035-.176.092-.24-.026-.074.011-.137.063-.194.077-.084.223-.18.342-.18.064,0,.122.025.165.065l.652-.175c-.486-.221-1.02-.355-1.583-.382l-.302.302c-.043.042-.101.068-.166.068-.102,0-.19-.065-.223-.156-.081-.226-.187-.455-.318-.681-.098-.17-.205-.329-.318-.476-.202-.27-.471-.405-.643-.306-.19.11-.194.466-.011.809.202.423.499.793.863,1.082.123.097.279.156.449.156.039,0,.078-.003.115-.009.22-.034.412.021.446.136.037.128-.134.281-.383.341-.303.074-.607-.034-.772-.306-.055-.088-.167-.128-.252-.058-.058.048-.061.135-.032.213.151.403.53.643.96.636.122-.005.221.038.242.114.026.099-.09.216-.259.262-.372.1-.826-.184-1.015-.496-.02-.034-.057-.056-.099-.056-.064,0-.117.052-.117.116-.021.439.326.794.764.79.066,0,.119.022.145.066.05.087-.05.239-.179.314s-.223.079-.297.05c-.308-.116-.542-.384-.612-.711-.01-.054-.057-.095-.114-.095-.057,0-.105.042-.114.096-.013.066-.02.134-.02.204,0,.287.116.546.303.734.026.028.031.053.012.087l-.705,1.22h0c-.008.015-.024.026-.043.026-.018,0-.035-.01-.043-.026h0l-.704-1.22c-.02-.034-.014-.058.012-.087.187-.188.303-.448.303-.734,0-.07-.007-.138-.02-.204-.009-.055-.057-.096-.114-.096s-.105.041-.115.095c-.07.327-.304.595-.612.711-.074.029-.168.024-.297-.05s-.23-.227-.179-.314c.025-.044.079-.066.145-.066.438.003.786-.351.764-.79,0-.064-.052-.116-.116-.116-.042,0-.079.022-.099.056-.189.312-.642.596-1.015.496-.17-.046-.286-.163-.259-.262.02-.076.12-.119.241-.114.429.007.809-.233.96-.636.03-.078.027-.165-.032-.213-.085-.069-.198-.03-.252.058-.165.272-.469.38-.773.306-.249-.061-.42-.214-.383-.341.034-.115.226-.171.445-.136.038.006.076.009.115.009.169,0,.325-.058.449-.156.364-.289.661-.659.863-1.082.183-.343.18-.699-.011-.809-.172-.1-.442.035-.644.306-.112.147-.219.306-.318.476-.131.226-.236.456-.318.681-.033.091-.121.156-.223.156-.065,0-.123-.026-.166-.068l-.302-.302c-.562.027-1.097.161-1.583.382l.653.175c.043-.04.101-.065.165-.065.119,0,.265.096.342.18.052.057.089.12.063.194.057.064.091.148.091.24,0,.042-.008.083-.021.121-.006.018-.02.027-.034.026-.014,0-.028-.012-.031-.033-.018-.099-.075-.184-.156-.237-.046.011-.094.015-.136.015-.166,0-.36-.064-.36-.263v-.015s-.821-.22-.821-.22l-.64.37c.002.013.003.026.003.04,0,.22-.216.292-.399.292-.047,0-.101-.004-.151-.016-.089.059-.154.153-.173.262-.003.024-.019.036-.035.037-.015,0-.031-.01-.038-.029-.014-.042-.023-.087-.023-.134,0-.102.038-.195.101-.266-.028-.083.012-.152.07-.215.085-.093.247-.199.379-.199.071,0,.135.027.183.072l.536-.31h-.94c-.099.172-.3.13-.444.047-.036-.021-.077-.048-.11-.081-.097.006-.189.05-.254.127-.014.017-.031.02-.044.013-.012-.006-.02-.021-.016-.04.008-.039.021-.079.042-.115.046-.08.118-.135.199-.162.015-.077.078-.113.152-.137.109-.034.283-.044.386.016.06.035.1.091.115.154h1.011l-.636-.367c-.135.094-.297.008-.405-.1-.049-.049-.104-.118-.12-.188-.1-.025-.208-.008-.295.053-.018.013-.035.011-.046.001-.01-.009-.014-.026-.005-.043.017-.036.04-.07.07-.1.097-.097.236-.127.358-.09.032-.015.07-.021.11-.023.114-.005.285.031.369.115.061.062.083.148.064.227l.765.442c.45-.205.939-.339,1.452-.388l-.368-.369c-.012-.012-.02-.029-.02-.048,0-.035.027-.064.062-.067.848-.126,1.525-.778,1.69-1.612.018-.082-.044-.161-.129-.161-.059,0-.11.039-.126.093-.095.273-.407.85-.712.932-.139.037-.269.006-.289-.07-.014-.052.027-.112.099-.157.234-.166.427-.478.427-.77,0-.112-.091-.203-.203-.203-.106,0-.194.082-.202.185-.05.424-.47,1.285-.963,1.285-.178,0-.323-.104-.323-.233,0-.101.089-.187.214-.219.282-.079.523-.3.618-.578.048-.14.087-.493-.052-.574-.049-.029-.12-.012-.215.084-.175.175-.336.365-.48.569-.266.373-.59.703-.958.976-.291.221-.719.204-1.037.05-.165-.08-.291-.2-.249-.36.033-.122.19-.189.373-.172.461.046.912-.122,1.23-.46.288-.303.526-.653.701-1.038.033-.073.013-.139-.029-.163-.041-.023-.104-.005-.16.087-.348.58-.982.968-1.708.968-.168-.004-.309-.064-.393-.217-.084-.152-.067-.323.039-.381.038-.021.083-.024.129-.012.096.026.197.041.301.043.759.014,1.452-.4,1.738-1.115.009-.02.013-.042.013-.065,0-.09-.073-.164-.164-.164-.051,0-.096.023-.126.059-.31.345-.934.745-1.412.745-.201,0-.371-.068-.475-.249-.104-.18-.088-.384.037-.456.045-.026.099-.031.154-.018.116.028.237.044.361.044.238,0,.463-.055.663-.153.333-.159.623-.393.847-.682.014-.019.023-.043.023-.069,0-.064-.052-.115-.115-.115-.038,0-.062.015-.088.041-.314.298-.738.487-1.204.487-.205,0-.467-.019-.619-.171-.151-.151-.18-.367-.065-.482.093-.093.251-.092.388-.009.158.092.36.145.537.145.431,0,.904-.319,1.198-.611.028-.03.045-.07.045-.114,0-.092-.075-.167-.167-.167-.035,0-.067.01-.093.028-.302.187-.758.352-1.119.352-.294,0-.654-.14-.808-.407-.117-.203-.107-.428.023-.503.088-.051.209-.019.314.07.216.197.503.317.818.317.393,0,.742-.187.964-.476.017-.023.028-.051.028-.082,0-.084-.076-.147-.158-.132-.267.063-.545.096-.831.096-.414,0-.791-.163-1.069-.428-.062-.056-.111-.149-.13-.259-.033-.195.04-.37.165-.391.058-.01.116.015.166.064.336.326.794.527,1.299.527.186,0,.524.005.524-.252,0-.124-.101-.225-.225-.225-.685.009-1.982-.548-1.982-1.358,0-.234.121-.424.271-.424.091,0,.172.07.221.177.336.635.981,1.081,1.735,1.137.038-.121.151-.208.284-.208.056,0,.109.016.154.043l1.024.591c.241.139.352.42.289.678-.014.048-.021.098-.021.15,0,.296.24.536.536.536s.536-.24.536-.536c0-.487-.257-.912-.643-1.15-.333-.205-.704-.321-1.094-.348-.231-.016-.442-.106-.61-.246-.008-.007-.014-.018-.014-.03,0-.022.018-.04.04-.04.008,0,.015.003.021.006.105.066.228.104.361.104.134,0,.26-.039.366-.106-.01-.025-.02-.049-.033-.073-.112.024-.229.037-.347.037-.319,0-.631-.089-.875-.255-.129-.088-.142-.206-.103-.267.035-.054.113-.064.189.036.179.231.475.381.808.381.093,0,.182-.012.267-.033-.081-.118-.192-.214-.322-.278-.033-.018-.071-.028-.111-.028-.097,0-.18.058-.216.141-.006.014-.02.023-.036.023-.022,0-.04-.018-.04-.04,0-.221.179-.39.397-.387.097,0,.19.013.28.035.072-.151.226-.255.405-.255.254,0,.483.05.649.132.331.162.692.232,1.059.212-.127.136-.272.254-.43.353.255.121.479.294.661.506-.168.007-.336.017-.503.03.299.062.573.191.807.371-.114.013-.225.036-.332.068.236.166.434.381.58.631h0ZM14.702,4.678c-.147,0-.266.067-.266.15s.119.15.266.15.266-.067.266-.15-.119-.15-.266-.15h0ZM19.243,4.678c-.147,0-.266.067-.266.15s.119.15.266.15.267-.067.267-.15-.119-.15-.267-.15Z" fill-rule="evenodd"/>
    </g>
  </g>
</svg>