<?xml version="1.0" encoding="UTF-8"?>
<svg id="Layer_2" data-name="Layer 2" xmlns="http://www.w3.org/2000/svg" xmlns:xlink="http://www.w3.org/1999/xlink" viewBox="0 0 118.972 79.38">
  <defs>
    <clipPath id="clippath">
      <circle cx="59.413" cy="39.795" r="39.585" fill="none"/>
    </clipPath>
  </defs>
  <g id="Layer_1-2" data-name="Layer 1">
    <g clip-path="url(#clippath)">
      <g>
        <rect width="118.972" height="79.17" fill="#fff"/>
        <rect width="59.413" height="79.17" fill="#2b8742"/>
        <polygon points="72.252 31.673 73.177 36.996 78.89 39.402 73.2 41.768 72.317 47.088 67.869 43.235 61.612 44.115 64.548 39.371 61.573 34.601 67.842 35.515 72.252 31.673" fill="#ef4848"/>
        <path d="M66.895,55.544c-8.886,0-16.075-7.11-16.075-15.881s7.188-15.879,16.075-15.879c4.037,0,7.716,1.481,10.544,3.913-3.608-4.627-9.225-7.601-15.549-7.601-10.885,0-19.722,8.819-19.722,19.691s8.836,19.707,19.722,19.707c6.671,0,12.55-3.311,16.132-8.37-2.895,2.738-6.798,4.42-11.127,4.42Z" fill="#ef4848"/>
      </g>
    </g>
  </g>
</svg>