<?xml version="1.0" encoding="UTF-8"?>
<svg id="Layer_2" data-name="Layer 2" xmlns="http://www.w3.org/2000/svg" viewBox="0 0 33.946 22.63">
  <g id="_Ñëîé_1" data-name="Ñëîé 1">
    <g>
      <g>
        <rect x="11.315" width="11.315" height="22.63" fill="#fed700"/>
        <rect width="11.315" height="22.63" fill="#039"/>
        <rect x="22.63" width="11.315" height="22.63" fill="red"/>
      </g>
      <g>
        <path d="M16.973,16.708s.005,0,.008-.002c.087-.035.169-.083.242-.141.068-.053.129-.115.181-.184.086.068.195.109.314.109.069,0,.136-.014.196-.039.061-.025.115-.062.161-.107.084-.013.143-.047.204-.103.066-.066.107-.158.107-.259,0-.088-.034-.178-.092-.243-.025-.028-.055-.052-.089-.07.057-.071.127-.131.207-.175.085-.047.181-.076.283-.083l1.614-.111c.373-.03.734-.211.997-.481.252-.258.415-.6.415-.97,0-.253-.086-.486-.23-.671-.021-.027-.044-.053-.067-.078.022.005.045.008.069.008.084,0,.16-.034.216-.09.055-.055.09-.131.09-.216s-.034-.16-.09-.216c-.01-.01-.02-.019-.031-.027,0-.069-.028-.131-.074-.176-.025-.025-.054-.044-.088-.057-.009-.041-.032-.077-.063-.103-.033-.029-.077-.046-.124-.046-.053,0-.101.021-.136.056-.035.035-.056.083-.056.136,0,.014.001.028.004.04-.075-.069-.138-.151-.185-.243-.06-.117-.094-.25-.094-.39,0-.094.015-.185.043-.27.027-.08.064-.155.112-.223.024.021.052.039.083.051.033.013.068.02.105.02.078,0,.149-.032.2-.083s.083-.122.083-.2-.031-.149-.083-.2c-.033-.033-.074-.058-.119-.071.167-.055.315-.15.434-.273.183-.191.296-.45.296-.736,0-.251-.087-.482-.233-.664-.148-.186-.358-.32-.598-.374-.036-.008-.072-.012-.108-.012-.116,0-.225.04-.312.107.006-.024.01-.05.01-.077,0-.033-.006-.066-.016-.097-.01-.031-.026-.061-.046-.087-.029-.039-.074-.062-.123-.062-.042,0-.081.017-.109.045-.024.024-.041.057-.044.093-.022-.045-.033-.092-.033-.141,0-.039.007-.076.02-.111.013-.036.033-.069.057-.097l.587-.665c.062-.068.096-.157.096-.249,0-.095-.036-.181-.094-.246-.057-.064-.136-.107-.224-.12-.003-.005-.006-.01-.009-.014-.056-.088-.136-.159-.231-.204-.03-.044-.068-.082-.112-.113-.068-.046-.149-.073-.237-.073-.053,0-.107.01-.156.03-.009-.008-.019-.014-.029-.021-.052-.034-.115-.054-.182-.054-.037,0-.075.007-.111.019-.012-.01-.025-.019-.038-.027-.044-.026-.095-.041-.149-.041-.056,0-.109.016-.154.044-.042.026-.077.063-.101.107-.005,0-.01,0-.015,0-.076,0-.146.026-.202.07-.057.044-.098.108-.116.18-.017.071-.001.144.043.202.045.057.113.091.186.091.004,0,.008,0,.012,0-.067.045-.14.082-.217.111-.118.044-.247.069-.381.069-.103,0-.226-.011-.322-.054-.092-.042-.16-.115-.16-.242,0-.061.021-.121.059-.168h0c.053-.064.094-.136.123-.214.027-.075.042-.157.042-.242,0-.094-.018-.188-.055-.275-.037-.088-.099-.162-.178-.214-.076-.051-.167-.08-.265-.08-.118,0-.222.041-.313.116-.083.071-.179.128-.282.168-.101.039-.211.063-.325.067-.114-.004-.224-.028-.325-.067-.103-.04-.199-.097-.282-.168-.09-.075-.195-.116-.313-.116-.098,0-.189.029-.265.08-.078.052-.141.126-.178.214-.037.087-.055.18-.055.275,0,.085.015.167.042.242.028.078.07.151.123.213h0c.039.048.06.108.06.169,0,.126-.068.2-.16.242-.096.043-.218.054-.322.054-.134,0-.263-.024-.381-.069-.077-.029-.15-.066-.217-.111.004,0,.008,0,.012,0,.073,0,.141-.034.186-.091.045-.058.061-.131.044-.202-.018-.073-.059-.136-.116-.18-.055-.044-.126-.07-.202-.07-.005,0-.01,0-.015,0-.024-.044-.059-.081-.102-.107-.045-.028-.097-.044-.154-.044-.054,0-.105.015-.149.041-.014.008-.026.017-.039.027-.035-.012-.073-.019-.111-.019-.067,0-.129.02-.181.054-.01.007-.02.014-.03.021-.05-.02-.103-.03-.156-.03-.088,0-.169.027-.237.073-.044.03-.082.068-.112.113-.095.045-.175.116-.231.204-.003.005-.006.01-.009.014-.089.012-.167.056-.224.12-.058.066-.094.152-.094.246,0,.092.034.181.096.249l.587.665c.024.029.044.061.057.097.013.035.02.072.02.111,0,.05-.011.097-.033.141-.004-.036-.02-.068-.044-.093-.028-.028-.066-.045-.109-.045-.049,0-.094.023-.123.062-.02.026-.035.055-.046.087-.01.031-.016.063-.016.097,0,.027.003.052.01.077-.087-.068-.196-.107-.312-.107-.035,0-.071.004-.108.012-.24.054-.449.188-.597.374-.146.182-.233.413-.233.664,0,.286.112.545.296.736.119.124.267.219.434.273-.045.014-.086.038-.119.071-.051.051-.083.122-.083.2s.032.149.083.2c.052.051.122.083.2.083.037,0,.073-.007.105-.02.031-.012.059-.03.083-.051.048.068.086.142.112.223.028.085.043.175.043.27,0,.14-.034.273-.093.39-.047.091-.11.174-.185.243.003-.013.004-.026.004-.04,0-.053-.021-.101-.056-.136-.035-.035-.083-.056-.136-.056-.047,0-.091.017-.124.046-.031.026-.054.062-.063.103-.033.013-.063.033-.088.057-.045.045-.073.108-.074.176-.011.008-.022.017-.031.027-.055.056-.09.132-.09.216s.034.16.09.216.131.09.216.09c.024,0,.047-.003.069-.008-.023.025-.046.051-.067.078-.144.185-.23.418-.23.671,0,.37.163.711.415.97.263.27.623.451.997.481l1.614.111c.102.007.198.036.283.083.08.044.151.103.207.175-.034.017-.063.041-.089.07-.058.066-.092.155-.092.243,0,.101.041.192.107.259.062.056.12.091.204.103.046.045.1.082.161.107.06.026.126.039.196.039.119,0,.228-.041.314-.109.052.069.113.131.181.184.073.058.154.105.242.141.003.001.005.002.008.002Z" fill-rule="evenodd"/>
        <path d="M16.973,7.591h3.192v5.209c0,.367-.149.7-.39.941-.241.241-.573.39-.941.39-.1,0-.199-.011-.296-.033-.145-.032-.293-.048-.442-.048-.206,0-.405.031-.593.088-.19.058-.368.143-.53.25-.162-.107-.34-.192-.53-.25-.188-.057-.387-.088-.593-.088-.149,0-.297.016-.442.048-.097.022-.197.033-.296.033-.367,0-.7-.149-.941-.39-.241-.241-.39-.574-.39-.941v-5.209h3.192Z" fill="#e0c080" fill-rule="evenodd"/>
        <path d="M13.454,12.989c-.048-.011-.098-.016-.149-.016-.102,0-.198.022-.285.061-.091.041-.171.1-.237.173-.007.008-.02.009-.029.002-.009-.007-.009-.02-.002-.029.069-.077.154-.14.25-.183.092-.041.195-.064.302-.064.054,0,.107.006.157.017.01.002.021.005.031.007-.047-.05-.106-.088-.169-.113-.083-.031-.176-.039-.263-.016-.236.066-.423.181-.574.375-.139.178-.221.403-.221.646,0,.359.158.69.403.941.256.263.607.439.97.469l1.613.112c.108.007.21.038.3.087.088.049.166.115.227.194.027-.009.057-.014.088-.014.076,0,.145.031.196.081.05.05.081.119.081.196,0,.055-.017.107-.05.144-.03.035-.073.057-.129.057-.048,0-.093-.02-.124-.051-.032-.032-.052-.076-.052-.125,0-.022.004-.044.012-.065.004-.011.016-.016.026-.012.01.004.016.016.012.027-.006.016-.01.032-.01.05,0,.037.015.071.04.096.024.024.058.04.096.04.042,0,.076-.016.098-.042.026-.03.04-.073.04-.118,0-.065-.026-.124-.069-.167-.043-.042-.102-.069-.167-.069-.075,0-.138.035-.185.087-.052.058-.082.137-.082.216,0,.09.036.171.095.23.056.061.148.095.23.095.11,0,.209-.045.282-.117.072-.072.116-.172.116-.281,0-.172-.12-.321-.283-.438-.222-.158-.522-.256-.719-.271l-1.671-.115c-.311-.021-.589-.162-.789-.376-.199-.213-.32-.499-.32-.812,0-.208.085-.397.221-.534s.325-.221.533-.221c.134,0,.259.042.348.122.082.073.133.179.133.312,0,.042-.007.086-.021.13.02-.025.037-.051.051-.08.029-.058.045-.123.045-.193,0-.087-.025-.168-.07-.236-.046-.07-.111-.126-.188-.16-.045-.02-.093-.036-.142-.047Z" fill="#e0c080" fill-rule="evenodd"/>
        <path d="M16.722,16.097c.062-.018.116-.055.156-.103.046-.056.074-.127.074-.205,0-.045-.009-.088-.026-.127-.016-.037-.044-.079-.074-.106-.201-.189-.438-.34-.699-.443-.251-.099-.526-.154-.812-.154l-1.673-.116c-.248-.017-.469-.129-.628-.299-.159-.17-.255-.398-.255-.647,0-.119.049-.251.132-.348.074-.088.175-.148.29-.148.059,0,.114.015.163.041.047.025.087.062.118.105.021.03.033.065.033.103,0,.036-.011.07-.029.097-.019.029-.046.052-.079.065-.01.005-.022,0-.027-.011-.004-.011,0-.022.011-.027.025-.011.046-.028.06-.05.014-.022.022-.047.022-.075,0-.034-.014-.072-.039-.096-.025-.024-.058-.04-.096-.04-.027,0-.051.008-.072.021-.039.024-.057.062-.066.105-.004.016-.006.034-.006.052,0,.067.027.127.07.171.044.044.104.07.171.07.082,0,.151-.042.203-.103.059-.071.094-.167.094-.255,0-.121-.046-.216-.12-.281-.081-.073-.197-.111-.321-.111-.197,0-.375.08-.505.209-.129.129-.209.308-.209.505,0,.303.117.579.309.784.193.207.461.342.762.363l1.671.115c.202.016.512.116.739.279.173.124.3.284.3.471,0,.121-.049.231-.128.31-.077.077-.182.125-.299.128.033.027.071.049.111.066.055.023.116.036.18.036.117,0,.25-.05.33-.137.084-.084.137-.201.137-.33,0-.125-.05-.243-.139-.331-.11-.108-.232-.203-.366-.282-.131-.078-.273-.14-.422-.184-.011-.003-.017-.014-.014-.025.003-.011.015-.017.025-.014.152.045.297.109.431.189.136.081.262.177.374.288.097.096.151.224.151.36,0,.039-.004.077-.013.113Z" fill="#e0c080" fill-rule="evenodd"/>
        <path d="M12.477,12.313c.014-.002.029-.004.044-.004.069,0,.132.028.178.074.019.019.035.041.047.066.005-.007.008-.015.012-.023.007-.018.011-.037.011-.057,0-.042-.017-.08-.044-.107-.027-.027-.065-.044-.107-.044-.037,0-.071.013-.098.036-.019.016-.033.036-.043.059Z" fill="#e0c080" fill-rule="evenodd"/>
        <path d="M12.311,12.532c.042-.022.091-.035.142-.035.04,0,.079.008.114.022.036.014.069.036.097.063.018.017.032.037.042.06.001.003.003.007.004.011.003-.006.005-.012.008-.017.008-.023.013-.049.013-.075,0-.058-.023-.111-.062-.149-.038-.038-.091-.062-.149-.062-.058,0-.111.024-.149.062-.032.032-.053.074-.06.12Z" fill="#e0c080" fill-rule="evenodd"/>
        <path d="M13.583,11.243c.048.067.089.141.12.219.014.034.025.068.036.104v-.523c-.005.011-.01.022-.016.033-.034.066-.082.123-.141.168Z" fill="#e0c080" fill-rule="evenodd"/>
        <path d="M12.957,11.253c.052.073.094.154.123.241.029.089.045.184.045.283,0,.147-.035.286-.098.408-.063.123-.153.23-.263.312.005.021.008.041.008.064,0,.007,0,.015-.001.022.054-.037.104-.079.15-.125.056-.058.106-.123.147-.193.006-.01.018-.013.028-.007.01.006.013.018.007.028-.042.073-.094.14-.153.201-.057.058-.121.11-.19.153-.001.003-.002.007-.004.011-.009.023-.02.044-.035.063,0,.033-.008.064-.024.092.164-.071.305-.183.411-.324.128-.17.203-.382.203-.611,0-.167-.04-.325-.111-.464-.054-.106-.127-.202-.213-.282.001.009.002.019.002.029,0,.024-.005.046-.014.067-.005.012-.011.022-.018.033Z" fill="#e0c080" fill-rule="evenodd"/>
        <path d="M12.967,10.854c-.058,0-.121-.008-.177-.019-.017-.003-.032-.005-.049-.005-.067,0-.127.027-.171.071-.044.044-.07.104-.07.171s.027.128.071.172c.044.044.104.071.171.071.032,0,.063-.006.09-.017.029-.012.055-.029.077-.05.012-.012.023-.027.029-.043.007-.015.01-.033.01-.051,0-.036-.014-.069-.038-.092-.024-.023-.057-.038-.092-.038-.034,0-.065.013-.089.035-.023.022-.039.052-.041.086,0,.011-.01.02-.022.019-.011,0-.02-.011-.019-.022.003-.045.023-.085.054-.114.03-.028.072-.046.117-.046.041,0,.079.015.109.039.129.096.236.222.31.366.074.145.116.309.116.483,0,.238-.079.459-.212.636-.129.171-.309.302-.517.37-.026.014-.055.022-.087.022-.048,0-.092-.019-.125-.049-.033-.031-.055-.074-.058-.122,0-.011.008-.021.019-.022.011,0,.021.008.022.019.002.038.019.071.045.095.025.024.06.038.097.038.039,0,.075-.016.101-.042.026-.026.042-.061.042-.101,0-.02-.004-.039-.011-.056-.008-.018-.019-.034-.033-.047-.024-.023-.053-.042-.084-.055-.03-.012-.063-.019-.099-.019-.073,0-.139.03-.187.077-.048.048-.077.114-.077.187,0,.073.03.139.077.187.048.048.114.077.187.077.032,0,.062-.005.09-.016.032-.012.054-.026.08-.047.142-.106.258-.174.432-.217.134-.114.243-.256.318-.417.073-.157.113-.331.113-.515,0-.204-.05-.397-.139-.566-.091-.174-.223-.323-.382-.435Z" fill="#e0c080" fill-rule="evenodd"/>
        <path d="M12.967,9.05c-.031-.006-.062-.01-.094-.01-.163,0-.311.084-.419.22-.108.137-.175.326-.175.536s.067.399.175.536c.108.136.256.219.419.219h.006c-.011-.008-.021-.018-.03-.029-.011-.013-.02-.028-.028-.044-.114-.032-.214-.116-.286-.234-.072-.118-.114-.268-.114-.433,0-.174.048-.332.127-.452s.188-.202.312-.223c.004-.005.008-.011.012-.015.027-.031.059-.056.096-.07Z" fill="#e0c080" fill-rule="evenodd"/>
        <path d="M13.74,10.297c-.016.033-.037.064-.061.09-.023.026-.05.048-.08.068.053.044.096.098.128.16.005.009.009.019.013.028v-.346Z" fill="#e0c080" fill-rule="evenodd"/>
        <path d="M13.672,9.006c.027.029.05.06.067.092v-.173c-.013.023-.03.044-.048.063-.006.006-.012.012-.019.017Z" fill="#e0c080" fill-rule="evenodd"/>
        <path d="M13.668,9.908c-.048.046-.104.085-.165.114-.084.041-.177.063-.277.063-.128,0-.247-.038-.347-.102-.103-.067-.185-.163-.236-.276-.005-.01,0-.022.01-.027.01-.005.023,0,.027.01.047.106.125.195.221.258.093.06.205.095.324.095.093,0,.181-.021.259-.059.081-.039.152-.096.208-.166.014-.019.026-.04.034-.064.008-.022.012-.046.012-.071,0-.029-.005-.056-.015-.081-.007-.017-.016-.033-.026-.048-.022.035-.047.067-.076.096-.098.098-.233.158-.383.158-.054,0-.107-.008-.156-.023-.051-.015-.099-.038-.143-.067-.009-.006-.012-.019-.006-.028.006-.009.019-.012.028-.006.04.027.084.048.132.062.046.014.094.021.144.021.138,0,.264-.056.354-.147.09-.091.147-.216.147-.354,0-.054-.01-.098-.029-.137-.017-.035-.041-.068-.071-.1-.047.03-.103.048-.164.048-.051,0-.1-.013-.143-.035.015.032.026.066.033.102.008.034.011.071.011.108,0,.093-.026.184-.081.25-.048.057-.119.094-.212.094-.079,0-.15-.032-.202-.084-.052-.052-.084-.123-.084-.202,0-.041.011-.086.031-.127-.098.028-.184.098-.249.197-.074.114-.12.264-.12.43,0,.157.041.301.109.412.06.1.142.173.235.207-.003-.016-.005-.031-.005-.047,0-.06.024-.115.064-.154s.094-.064.154-.064c.082,0,.154.042.208.103.062.071.098.165.093.259-.005.092-.047.174-.109.233-.049.046-.111.078-.18.09.147.112.269.256.356.421.091.175.143.374.143.585,0,.19-.042.371-.117.532-.069.147-.164.278-.281.388.071-.005.142.006.208.031.089.034.17.094.226.173.016.006.032.012.047.019.064.028.12.07.166.122-.025-.103-.038-.21-.038-.321v-.651c-.01.035-.022.07-.036.103-.051.127-.127.241-.22.338-.008.008-.021.008-.029,0-.008-.008-.008-.021,0-.029.09-.093.162-.203.211-.325.048-.117.074-.246.074-.38s-.026-.263-.074-.38c-.049-.122-.122-.232-.211-.325-.008-.008-.008-.021,0-.029.008-.008.021-.008.029,0,.027.028.052.057.075.087.054-.041.098-.094.129-.154.033-.064.052-.136.052-.213,0-.075-.018-.146-.05-.209-.031-.061-.075-.115-.129-.156-.042.021-.088.035-.137.039-.011.001-.022-.007-.023-.018,0-.011.007-.021.018-.022.09-.009.171-.052.228-.116.057-.063.092-.147.092-.238,0-.044-.008-.085-.022-.123-.012-.033-.029-.063-.049-.091Z" fill="#e0c080" fill-rule="evenodd"/>
        <path d="M13.74,9.825c-.004.007-.009.013-.014.019h0c-.009.012-.019.023-.029.034.016.021.031.044.042.068v-.121Z" fill="#e0c080" fill-rule="evenodd"/>
        <path d="M13.72,9.517c.007.008.014.017.02.027v-.069c-.006.014-.012.028-.02.042Z" fill="#e0c080" fill-rule="evenodd"/>
        <path d="M13.075,7.081c-.066.016-.125.052-.169.101-.052.058-.084.135-.084.219,0,.082.03.16.086.221.188.226.398.441.588.666.028.032.05.07.064.11.014.039.022.081.022.125,0,.055-.012.107-.034.154-.035.074-.103.159-.193.159-.011,0-.02-.009-.02-.02,0-.011.009-.02.02-.02.031,0,.06-.013.08-.033.02-.021.033-.049.033-.08s-.013-.06-.033-.08c-.02-.02-.049-.033-.08-.033-.036,0-.069.017-.09.046-.017.023-.031.048-.04.075-.009.026-.013.054-.013.084,0,.073.029.139.077.187.048.048.114.077.186.077s.139-.03.187-.077c.048-.048.077-.114.077-.187h0v-.278c0-.05-.004-.092-.022-.139-.015-.039-.036-.075-.063-.106l-.493-.559c-.045-.05-.08-.109-.104-.172-.023-.061-.036-.128-.036-.198,0-.086.019-.167.054-.24Z" fill="#e0c080" fill-rule="evenodd"/>
        <path d="M14.31,7.345c.01.006.013.018.007.028-.006.01-.018.013-.028.007-.077-.046-.141-.112-.186-.19-.043-.076-.067-.163-.067-.256,0-.043.005-.086.015-.126.015-.059.04-.123.081-.17-.025-.007-.051-.01-.078-.01-.059,0-.113.017-.159.047-.047.031-.085.075-.109.127-.024.054-.037.112-.037.172,0,.077.021.15.057.212.037.064.092.118.156.155.01.005.013.018.008.028-.006.01-.018.013-.028.008-.071-.04-.13-.099-.171-.17-.04-.068-.062-.147-.062-.232,0-.065.014-.129.04-.189.015-.034.036-.065.061-.092-.04-.014-.081-.02-.123-.02-.079,0-.153.024-.214.066-.063.043-.112.104-.14.175-.047.118-.042.245.005.355.046.109.133.201.252.249.011.004.015.016.011.027-.004.01-.016.015-.027.011-.128-.053-.223-.153-.274-.272-.05-.119-.056-.257-.005-.386.002-.005.004-.01.006-.015-.064.041-.118.095-.159.159-.053.083-.081.179-.081.278,0,.065.012.126.033.183.022.059.055.113.097.16l.493.559c.021.024.039.051.054.081v-.733c0-.011.009-.02.02-.02h1.058c-.037-.011-.073-.025-.108-.04-.121-.053-.228-.131-.317-.226-.037-.04-.066-.093-.082-.145-.015-.051-.02-.105-.013-.16.009-.082.049-.155.107-.207.044-.039.098-.066.158-.077-.02-.031-.047-.058-.079-.077-.038-.024-.084-.038-.132-.038-.047,0-.091.013-.128.035-.076.045-.114.122-.134.204-.009.037-.014.076-.014.116,0,.086.022.167.062.236.041.072.1.133.171.176Z" fill="#e0c080" fill-rule="evenodd"/>
        <path d="M16.454,7.55c-.006-.005-.012-.01-.018-.016-.035-.035-.057-.083-.057-.137,0-.023.004-.046.012-.067-.132.076-.273.137-.422.181-.052.015-.104.028-.157.039h.641Z" fill="#e0c080" fill-rule="evenodd"/>
        <path d="M20.492,12.989c.048-.011.097-.016.148-.016.102,0,.198.022.286.061.09.041.171.1.236.173.008.008.02.009.029.002.008-.007.009-.02.001-.029-.069-.077-.154-.14-.25-.183-.092-.041-.195-.064-.302-.064-.054,0-.106.006-.157.017-.01.002-.021.005-.031.007.047-.05.106-.088.17-.113.083-.031.175-.039.263-.016.235.066.422.181.574.375.139.178.221.403.221.646,0,.359-.159.69-.403.941-.256.263-.607.439-.971.469l-1.613.112c-.108.007-.21.038-.3.087-.088.049-.165.115-.227.194-.027-.009-.056-.014-.087-.014-.076,0-.146.031-.196.081-.05.05-.081.119-.081.196,0,.055.017.107.05.144.03.035.073.057.129.057.048,0,.093-.02.124-.051.032-.032.052-.076.052-.125,0-.022-.004-.044-.012-.065-.004-.011-.016-.016-.027-.012-.01.004-.016.016-.012.027.007.016.01.032.01.05,0,.037-.015.071-.04.096-.024.024-.058.04-.095.04-.042,0-.075-.016-.098-.042-.026-.03-.04-.073-.04-.118,0-.065.026-.124.069-.167.043-.042.102-.069.167-.069.074,0,.138.035.184.087.052.058.082.137.082.216,0,.09-.036.171-.095.23-.056.061-.149.095-.23.095-.11,0-.209-.045-.281-.117-.072-.072-.117-.172-.117-.281,0-.172.12-.321.283-.438.222-.158.523-.256.719-.271l1.671-.115c.311-.021.589-.162.789-.376.198-.213.32-.499.32-.812,0-.208-.084-.397-.221-.534-.136-.136-.325-.221-.533-.221-.134,0-.259.042-.348.122-.082.073-.133.179-.133.312,0,.042.007.086.021.13-.019-.025-.037-.051-.051-.08-.029-.058-.045-.123-.045-.193,0-.087.026-.168.07-.236.046-.07.111-.126.188-.16.045-.02.093-.036.141-.047Z" fill="#e0c080" fill-rule="evenodd"/>
        <path d="M17.223,16.097c-.062-.018-.116-.055-.156-.103-.046-.056-.074-.127-.074-.205,0-.045.009-.088.026-.127.016-.037.044-.079.074-.106.201-.189.438-.34.698-.443.251-.099.525-.154.813-.154l1.672-.116c.248-.017.469-.129.628-.299.159-.17.255-.398.255-.647,0-.119-.05-.251-.132-.348-.074-.088-.175-.148-.291-.148-.059,0-.114.015-.162.041-.047.025-.088.062-.118.105-.021.03-.033.065-.033.103,0,.036.011.07.029.097.019.029.046.052.078.065.01.005.022,0,.027-.011.004-.011,0-.022-.011-.027-.025-.011-.046-.028-.06-.05-.014-.022-.022-.047-.022-.075,0-.034.014-.072.04-.096.024-.024.058-.04.096-.04.027,0,.052.008.072.021.039.024.057.062.067.105.003.016.005.034.005.052,0,.067-.027.127-.071.171-.044.044-.104.07-.171.07-.082,0-.151-.042-.202-.103-.06-.071-.094-.167-.094-.255,0-.121.046-.216.119-.281.081-.073.197-.111.321-.111.197,0,.375.08.504.209.129.129.209.308.209.505,0,.303-.118.579-.309.784-.193.207-.461.342-.762.363l-1.671.115c-.202.016-.512.116-.739.279-.173.124-.3.284-.3.471,0,.121.049.231.129.31.077.077.182.125.299.128-.033.027-.071.049-.111.066-.055.023-.116.036-.18.036-.117,0-.249-.05-.33-.137-.084-.084-.137-.201-.137-.33,0-.125.05-.243.139-.331.11-.108.232-.203.366-.282.131-.078.273-.14.422-.184.011-.003.017-.014.014-.025-.003-.011-.015-.017-.025-.014-.152.045-.297.109-.431.189-.136.081-.262.177-.374.288-.097.096-.151.224-.151.36,0,.039.004.077.013.113Z" fill="#e0c080" fill-rule="evenodd"/>
        <path d="M21.468,12.313c-.014-.002-.029-.004-.043-.004-.069,0-.132.028-.178.074-.019.019-.035.041-.048.066-.004-.007-.008-.015-.012-.023-.007-.018-.011-.037-.011-.057,0-.042.017-.08.044-.107.027-.027.065-.044.107-.044.037,0,.072.013.098.036.018.016.033.036.042.059Z" fill="#e0c080" fill-rule="evenodd"/>
        <path d="M21.634,12.532c-.042-.022-.09-.035-.142-.035-.04,0-.078.008-.114.022-.037.014-.07.036-.098.063-.017.017-.032.037-.042.06-.001.003-.003.007-.004.011-.003-.006-.005-.012-.008-.017-.009-.023-.014-.049-.014-.075,0-.058.024-.111.062-.149.038-.038.091-.062.149-.062s.111.024.149.062c.032.032.053.074.06.12Z" fill="#e0c080" fill-rule="evenodd"/>
        <path d="M20.362,11.243c-.048.067-.089.141-.12.219-.014.034-.026.068-.036.104v-.523c.004.011.01.022.015.033.034.066.082.123.141.168Z" fill="#e0c080" fill-rule="evenodd"/>
        <path d="M20.988,11.253c-.052.073-.094.154-.122.241-.029.089-.045.184-.045.283,0,.147.036.286.098.408.063.123.153.23.263.312-.005.021-.008.041-.008.064,0,.007,0,.015,0,.022-.054-.037-.104-.079-.15-.125-.056-.058-.106-.123-.146-.193-.006-.01-.018-.013-.028-.007-.01.006-.013.018-.007.028.043.073.094.14.153.201.057.058.121.11.19.153.001.003.003.007.004.011.008.023.021.044.035.063,0,.033.008.064.024.092-.163-.071-.305-.183-.411-.324-.128-.17-.204-.382-.204-.611,0-.167.04-.325.111-.464.054-.106.127-.202.213-.282-.001.009-.002.019-.002.029,0,.024.005.046.014.067.005.012.011.022.018.033Z" fill="#e0c080" fill-rule="evenodd"/>
        <path d="M20.979,10.854c.057,0,.121-.008.177-.019.017-.003.032-.005.049-.005.067,0,.128.027.171.071.044.044.071.104.071.171s-.027.128-.071.172c-.044.044-.105.071-.171.071-.032,0-.063-.006-.09-.017-.029-.012-.055-.029-.077-.05-.012-.012-.022-.027-.029-.043-.006-.015-.01-.033-.01-.051,0-.036.015-.069.038-.092.023-.023.057-.038.092-.038.034,0,.066.013.089.035s.039.052.041.086c0,.011.01.02.021.019.011,0,.02-.011.019-.022-.003-.045-.023-.085-.054-.114-.031-.028-.072-.046-.117-.046-.041,0-.079.015-.109.039-.129.096-.235.222-.309.366-.075.145-.116.309-.116.483,0,.238.079.459.212.636.129.171.309.302.517.37.026.014.055.022.087.022.048,0,.093-.019.125-.049.033-.031.055-.074.058-.122,0-.011-.008-.021-.019-.022-.011,0-.021.008-.022.019-.003.038-.019.071-.045.095-.025.024-.06.038-.097.038-.039,0-.075-.016-.101-.042-.025-.026-.042-.061-.042-.101,0-.02.004-.039.011-.056.007-.018.018-.034.032-.047.024-.023.053-.042.084-.055.03-.012.063-.019.098-.019.073,0,.139.03.187.077.048.048.077.114.077.187,0,.073-.029.139-.077.187-.048.048-.114.077-.187.077-.032,0-.062-.005-.09-.016-.032-.012-.054-.026-.08-.047-.142-.106-.259-.174-.432-.217-.134-.114-.243-.256-.318-.417-.073-.157-.113-.331-.113-.515,0-.204.05-.397.139-.566.091-.174.223-.323.382-.435Z" fill="#e0c080" fill-rule="evenodd"/>
        <path d="M20.978,9.05c.031-.006.062-.01.094-.01.163,0,.312.084.419.22.109.137.176.326.176.536s-.067.399-.176.536c-.107.136-.256.219-.419.219h-.006c.011-.008.021-.018.03-.029.011-.013.02-.028.028-.044.114-.032.215-.116.286-.234.071-.118.114-.268.114-.433,0-.174-.048-.332-.127-.452-.079-.12-.188-.202-.313-.223-.004-.005-.008-.011-.012-.015-.026-.031-.059-.056-.096-.07Z" fill="#e0c080" fill-rule="evenodd"/>
        <path d="M20.206,10.297c.016.033.037.064.061.09.024.026.051.048.08.068-.053.044-.097.098-.128.16-.005.009-.009.019-.013.028v-.346Z" fill="#e0c080" fill-rule="evenodd"/>
        <path d="M20.273,9.006c-.027.029-.049.06-.067.092v-.173c.013.023.029.044.048.063.006.006.012.012.019.017Z" fill="#e0c080" fill-rule="evenodd"/>
        <path d="M20.278,9.908c.048.046.104.085.165.114.084.041.178.063.277.063.128,0,.247-.038.347-.102.103-.067.186-.163.236-.276.005-.01,0-.022-.01-.027-.01-.005-.022,0-.027.01-.048.106-.125.195-.221.258-.093.06-.205.095-.325.095-.093,0-.18-.021-.259-.059-.081-.039-.153-.096-.208-.166-.014-.019-.026-.04-.034-.064-.008-.022-.012-.046-.012-.071,0-.029.005-.056.015-.081.007-.017.016-.033.026-.048.022.035.047.067.076.096.098.098.233.158.383.158.054,0,.107-.008.156-.023.051-.015.099-.038.143-.067.009-.006.012-.019.006-.028-.006-.009-.019-.012-.028-.006-.04.027-.085.048-.132.062-.046.014-.094.021-.144.021-.138,0-.264-.056-.354-.147-.091-.091-.146-.216-.146-.354,0-.054.01-.098.029-.137.017-.035.041-.068.071-.1.047.03.103.048.164.048.052,0,.1-.013.143-.035-.014.032-.026.066-.033.102-.007.034-.011.071-.011.108,0,.093.026.184.081.25.048.057.119.094.212.094.079,0,.15-.032.202-.084.052-.052.084-.123.084-.202,0-.041-.011-.086-.031-.127.097.028.184.098.249.197.075.114.12.264.12.43,0,.157-.04.301-.108.412-.06.1-.142.173-.235.207.003-.016.005-.031.005-.047,0-.06-.025-.115-.064-.154s-.094-.064-.154-.064c-.082,0-.154.042-.208.103-.062.071-.098.165-.093.259.005.092.047.174.109.233.049.046.111.078.18.09-.147.112-.269.256-.356.421-.091.175-.143.374-.143.585,0,.19.042.371.117.532.069.147.164.278.281.388-.071-.005-.142.006-.208.031-.09.034-.17.094-.226.173-.016.006-.032.012-.047.019-.064.028-.12.07-.166.122.025-.103.038-.21.038-.321v-.651c.01.035.022.07.036.103.051.127.126.241.22.338.008.008.021.008.029,0,.008-.008.008-.021,0-.029-.09-.093-.162-.203-.212-.325-.047-.117-.073-.246-.073-.38s.026-.263.073-.38c.05-.122.122-.232.212-.325.008-.008.008-.021,0-.029-.008-.008-.021-.008-.029,0-.027.028-.052.057-.075.087-.053-.041-.097-.094-.129-.154-.033-.064-.051-.136-.051-.213,0-.075.018-.146.05-.209.031-.061.075-.115.129-.156.042.021.088.035.137.039.011.001.021-.007.022-.018,0-.011-.007-.021-.018-.022-.09-.009-.17-.052-.228-.116-.057-.063-.091-.147-.091-.238,0-.044.008-.085.022-.123.012-.033.029-.063.05-.091Z" fill="#e0c080" fill-rule="evenodd"/>
        <path d="M20.206,9.825c.004.007.009.013.013.019h0c.009.012.019.023.029.034-.016.021-.031.044-.042.068v-.121Z" fill="#e0c080" fill-rule="evenodd"/>
        <path d="M20.225,9.517c-.007.008-.014.017-.019.027v-.069c.006.014.012.028.019.042Z" fill="#e0c080" fill-rule="evenodd"/>
        <path d="M20.871,7.081c.067.016.125.052.169.101.052.058.083.135.083.219,0,.082-.03.16-.085.221-.189.226-.398.441-.588.666-.027.032-.05.07-.064.11-.014.039-.022.081-.022.125,0,.055.012.107.034.154.035.074.103.159.193.159.011,0,.02-.009.02-.02,0-.011-.009-.02-.02-.02-.031,0-.059-.013-.08-.033-.02-.021-.033-.049-.033-.08s.012-.06.033-.08c.021-.02.049-.033.08-.033.036,0,.069.017.091.046.017.023.031.048.039.075.009.026.014.054.014.084,0,.073-.03.139-.077.187-.048.048-.114.077-.187.077s-.139-.03-.187-.077c-.048-.048-.077-.114-.077-.187h0v-.278c0-.05.004-.092.021-.139.015-.039.036-.075.063-.106l.493-.559c.044-.05.08-.109.104-.172.023-.061.036-.128.036-.198,0-.086-.019-.167-.054-.24Z" fill="#e0c080" fill-rule="evenodd"/>
        <path d="M19.635,7.345c-.01.006-.013.018-.007.028.006.01.018.013.028.007.077-.046.141-.112.186-.19.043-.076.067-.163.067-.256,0-.043-.005-.086-.015-.126-.015-.059-.041-.123-.081-.17.025-.007.051-.01.078-.01.059,0,.114.017.159.047.047.031.085.075.109.127.024.054.036.112.036.172,0,.077-.02.15-.056.212-.038.064-.092.118-.156.155-.01.005-.013.018-.008.028.006.01.018.013.028.008.071-.04.13-.099.172-.17.04-.068.062-.147.062-.232,0-.065-.014-.129-.04-.189-.015-.034-.036-.065-.061-.092.04-.014.081-.02.123-.02.079,0,.153.024.214.066.063.043.112.104.14.175.047.118.042.245-.004.355-.046.109-.134.201-.252.249-.01.004-.015.016-.011.027.004.01.016.015.027.011.128-.053.224-.153.274-.272.051-.119.056-.257.005-.386-.002-.005-.004-.01-.006-.015.064.041.119.095.16.159.053.083.081.179.081.278,0,.065-.012.126-.033.183-.022.059-.056.113-.097.16l-.494.559c-.021.024-.039.051-.054.081v-.733c0-.011-.009-.02-.02-.02h-1.058c.037-.011.073-.025.108-.04.121-.053.228-.131.316-.226.037-.04.066-.093.082-.145.015-.051.02-.105.013-.16-.009-.082-.049-.155-.107-.207-.044-.039-.098-.066-.158-.077.02-.031.047-.058.078-.077.038-.024.084-.038.132-.038.047,0,.091.013.128.035.076.045.114.122.134.204.009.037.014.076.014.116,0,.086-.023.167-.062.236-.041.072-.1.133-.171.176Z" fill="#e0c080" fill-rule="evenodd"/>
        <path d="M17.491,7.55c.006-.005.012-.01.018-.016.035-.035.057-.083.057-.137,0-.023-.005-.046-.012-.067.132.076.273.137.422.181.051.015.103.028.157.039h-.641Z" fill="#e0c080" fill-rule="evenodd"/>
        <path d="M16.973,6.314c.107,0,.24-.031.34-.069.108-.042.207-.101.293-.175.08-.069.181-.106.287-.106.09,0,.173.027.243.073.072.048.129.116.163.196.034.082.051.17.051.259,0,.08-.014.157-.04.228-.027.074-.066.142-.116.201h-.001c-.045.056-.069.124-.069.195,0,.146.078.23.184.279.102.047.231.058.339.058.139,0,.273-.025.396-.071.126-.047.242-.117.342-.203.005-.005.011-.01.016-.015.043-.043.069-.102.069-.167,0-.035-.014-.067-.037-.09-.023-.023-.055-.037-.09-.037-.035,0-.067.014-.09.037-.024.026-.037.054-.037.09,0,.011.009.02.02.02.011,0,.02-.009.02-.02,0-.022.009-.046.025-.061.016-.015.037-.025.061-.025s.046.01.061.025c.016.016.025.037.025.061,0,.054-.022.103-.057.138-.035.035-.084.057-.138.057-.061,0-.117-.027-.154-.075-.037-.047-.05-.109-.036-.167.015-.063.052-.119.101-.158.049-.038.11-.061.177-.061.073,0,.139.027.19.072.051.045.086.109.094.181h0c.006.05.002.099-.012.144-.013.045-.039.093-.071.128-.085.092-.188.167-.304.218-.111.049-.234.077-.363.077h-.332c-.187,0-.367-.028-.537-.078-.179-.053-.347-.131-.5-.23-.024-.016-.052-.025-.082-.025-.04,0-.077.016-.103.042-.026.026-.043.063-.043.103,0,.031.01.061.027.084.017.025.042.043.072.053.011.004.022-.002.026-.013.004-.011-.002-.022-.013-.026-.021-.007-.039-.021-.052-.038-.012-.017-.02-.038-.02-.061,0-.029.012-.055.031-.074.019-.019.045-.03.074-.03.033,0,.062.016.082.039.024.027.038.064.038.101,0,.042-.017.081-.045.108-.03.03-.068.045-.111.045-.063,0-.12-.027-.161-.068-.042-.042-.068-.1-.068-.164,0-.076.028-.132.073-.169.052-.044.126-.065.206-.065.089,0,.173.019.25.051.08.034.151.084.21.146.005.005.012.007.02.006.011-.003.018-.014.015-.025-.013-.048-.018-.096-.018-.146,0-.063.011-.124.031-.183.021-.058.052-.112.091-.16.033-.04.059-.085.076-.132.017-.047.026-.098.026-.15,0-.058-.011-.115-.034-.169-.016-.039-.043-.071-.077-.093-.034-.022-.074-.035-.116-.035-.049,0-.096.016-.133.048-.111.094-.235.168-.368.219-.133.051-.274.08-.419.084-.145-.004-.286-.033-.419-.084-.133-.051-.257-.125-.368-.219-.037-.032-.085-.048-.134-.048-.042,0-.082.013-.116.035-.033.022-.061.054-.077.093-.023.054-.033.111-.033.169,0,.052.009.102.026.15.017.048.043.092.076.132.04.048.071.102.091.16.021.058.031.12.031.183,0,.05-.005.098-.018.146-.003.011.004.022.014.025.007.002.015,0,.02-.006.059-.062.13-.112.21-.146.077-.033.161-.051.25-.051.08,0,.154.021.206.065.044.038.072.094.072.169,0,.064-.026.122-.068.164-.041.041-.098.067-.161.068-.042,0-.081-.014-.111-.045-.027-.028-.045-.066-.045-.108,0-.036.014-.073.038-.101.021-.024.049-.039.082-.039.029,0,.055.012.074.03.019.019.031.045.031.074,0,.023-.007.044-.02.061-.012.018-.031.031-.051.038-.011.004-.017.015-.013.026.004.011.015.016.026.013.029-.01.054-.028.072-.053.017-.024.027-.053.027-.084,0-.04-.016-.077-.043-.103-.026-.026-.063-.042-.103-.042-.029,0-.057.009-.082.025-.153.1-.321.178-.5.23-.17.05-.351.078-.537.078h-.332c-.129,0-.252-.028-.363-.077-.116-.051-.22-.126-.304-.218-.032-.035-.058-.083-.071-.128-.014-.046-.018-.095-.012-.144h0c.008-.072.043-.135.094-.181.05-.045.117-.072.19-.072.067,0,.128.023.177.061.05.039.086.094.101.158.014.058.001.12-.036.167-.037.048-.094.075-.154.075-.054,0-.103-.022-.138-.057s-.057-.084-.057-.138c0-.024.01-.046.025-.061.016-.015.037-.025.061-.025s.045.01.061.025c.016.015.025.039.025.061,0,.011.009.02.02.02.011,0,.02-.009.02-.02,0-.036-.013-.064-.037-.09-.023-.023-.055-.037-.09-.037s-.067.014-.09.037c-.023.023-.037.055-.037.09,0,.066.026.124.069.167.005.005.01.01.016.015.1.087.215.156.341.203.123.046.257.071.396.071.108,0,.236-.011.339-.058.106-.048.184-.133.184-.279,0-.071-.024-.139-.069-.194h0c-.05-.06-.089-.128-.116-.202-.025-.071-.04-.148-.04-.228,0-.089.017-.177.052-.259.034-.08.091-.148.163-.196.07-.046.153-.073.243-.073.106,0,.207.037.287.106.087.073.186.133.293.175.099.039.233.069.34.069Z" fill="#e0c080" fill-rule="evenodd"/>
        <path d="M16.973,15.909c.014.041.036.078.063.111.05.061.12.105.2.122.025.076.068.144.123.2.005.004.009.009.013.013-.05.067-.11.128-.175.179-.068.053-.143.098-.224.132-.081-.034-.156-.078-.224-.132-.066-.052-.125-.112-.175-.179.004-.004.008-.008.013-.013.056-.055.098-.124.123-.2.08-.018.15-.061.2-.122.027-.033.048-.07.063-.111Z" fill="#e0c080" fill-rule="evenodd"/>
        <path d="M16.973,14.432s.008-.001.012-.004c.161-.109.34-.194.529-.252.184-.056.379-.086.581-.086.146,0,.291.016.433.047.1.023.203.034.306.034.379,0,.722-.153.97-.402.098-.098.182-.212.247-.336,0,.075.018.147.049.21.032.065.079.121.135.165.01.017.022.033.035.048.058.069.139.117.234.117.078,0,.148-.032.199-.083s.083-.122.083-.2c0-.021-.002-.041-.006-.06-.012-.054-.036-.101-.085-.131-.027-.017-.058-.027-.092-.027.04-.02.086-.032.135-.032.103,0,.193.055.259.133.076.091.122.213.122.322,0,.238-.092.457-.244.619s-.363.27-.601.286l-1.67.115c-.292,0-.571.056-.828.157-.266.105-.506.259-.711.451-.037.038-.063.071-.084.12-.003.008-.006.015-.009.023-.003-.008-.006-.015-.009-.023-.021-.049-.047-.082-.084-.12-.205-.192-.446-.346-.712-.451-.256-.101-.535-.157-.827-.157l-1.67-.115c-.238-.016-.449-.124-.601-.286-.152-.163-.244-.381-.244-.619,0-.11.046-.232.122-.322.067-.079.157-.133.259-.133.049,0,.095.012.135.032-.034,0-.065.01-.092.027-.048.03-.073.077-.084.131-.004.02-.007.04-.007.06,0,.078.031.149.082.2.051.051.122.083.2.083.095,0,.175-.048.234-.117.012-.015.024-.031.035-.048.057-.044.103-.1.135-.165.031-.063.049-.134.049-.21.065.124.149.238.247.336.248.248.591.402.97.402.103,0,.205-.011.305-.034.142-.031.287-.047.433-.047.202,0,.398.03.581.086.19.058.368.143.53.252.003.003.008.004.012.004Z" fill="#e0c080" fill-rule="evenodd"/>
        <path d="M16.973,6.585c.139,0,.304-.037.433-.086.137-.053.266-.129.38-.226.03-.025.068-.038.107-.038.034,0,.066.01.093.028.027.018.049.044.062.075.02.048.03.101.03.153,0,.047-.008.093-.024.136-.016.043-.039.084-.069.12-.043.052-.076.11-.098.172-.022.063-.034.129-.034.196,0,.031.003.061.007.092-.052-.045-.111-.083-.175-.11-.082-.035-.171-.054-.266-.054-.089,0-.173.024-.233.075-.053.045-.087.112-.087.201,0,.075.031.144.08.193.015.015.031.028.049.039h-.511c.018-.011.034-.024.049-.039.05-.049.08-.118.08-.193,0-.089-.033-.155-.087-.201-.06-.051-.144-.075-.233-.075-.094,0-.184.019-.266.054-.064.028-.123.065-.175.11.004-.031.007-.06.007-.092,0-.067-.012-.134-.034-.196-.022-.062-.055-.12-.098-.172-.03-.036-.054-.077-.069-.12-.016-.043-.024-.089-.024-.136,0-.052.01-.105.03-.153.013-.031.035-.057.062-.075.027-.018.059-.028.093-.028.039,0,.077.013.107.038.114.097.243.173.38.226.129.05.295.086.433.086h0ZM17.712,6.853c-.004.01,0,.022.011.026.01.004.022,0,.026-.011.008-.019.012-.04.012-.06,0-.045-.018-.086-.048-.115-.029-.029-.07-.048-.115-.048s-.087.018-.118.05c-.068.069-.149.126-.238.164-.083.036-.175.059-.27.063-.096-.004-.187-.027-.27-.063-.089-.039-.17-.095-.238-.164-.031-.032-.073-.05-.118-.05s-.086.018-.115.048c-.029.03-.048.07-.048.115,0,.021.004.041.012.06.004.011.016.016.026.011.01-.004.016-.016.012-.026-.006-.015-.008-.03-.008-.045,0-.033.014-.064.035-.086.022-.022.053-.036.086-.036.036,0,.064.014.089.039.071.073.157.132.251.173.081.035.197.066.286.066s.205-.031.286-.066c.093-.041.179-.1.251-.173.025-.025.053-.039.089-.039.034,0,.064.014.086.036.022.022.036.053.036.086,0,.016-.003.031-.009.045Z" fill="#e0c080" fill-rule="evenodd"/>
        <path d="M21.072,10.592c.177,0,.336-.09.451-.235.114-.144.185-.342.185-.561s-.071-.417-.185-.561c-.115-.145-.274-.235-.451-.235-.085,0-.219.028-.279.088-.031.031-.05.074-.05.121,0,.047.019.09.05.121.031.031.074.05.121.05.011,0,.02-.009.02-.02,0-.011-.009-.02-.02-.02-.036,0-.068-.015-.092-.038-.024-.023-.038-.056-.038-.092,0-.036.014-.068.038-.092.023-.024.056-.038.092-.038.05,0,.095.028.129.068.038.044.063.107.063.164,0,.067-.028.129-.071.173-.044.044-.105.071-.173.071-.08,0-.14-.031-.181-.08-.048-.057-.071-.139-.071-.223,0-.035.004-.068.01-.1.023-.107.083-.2.164-.266.081-.065.184-.104.294-.104.033,0,.066.004.099.011.231.052.432.181.575.359.14.175.224.397.224.638,0,.275-.108.524-.285.708-.177.184-.422.302-.695.314-.089.003-.166-.021-.231-.083-.055-.052-.092-.124-.097-.206-.002-.086.025-.164.083-.23.046-.052.109-.088.177-.088.049,0,.093.02.125.052.032.032.052.076.052.125,0,.039-.014.082-.04.113-.021.026-.05.043-.085.043-.028,0-.054-.011-.072-.03-.018-.018-.03-.044-.03-.072,0-.013.002-.025.007-.036.004-.012.011-.022.019-.032.007-.008.006-.021-.002-.029s-.021-.007-.029.002c-.011.013-.02.028-.026.044-.006.016-.009.033-.009.05,0,.039.016.075.042.101.046.046.132.053.193.053Z" fill="#e0c080" fill-rule="evenodd"/>
        <path d="M12.873,10.592c-.176,0-.336-.09-.451-.235-.114-.144-.184-.342-.184-.561s.071-.417.184-.561c.115-.145.275-.235.451-.235.085,0,.219.028.28.088.031.031.05.074.05.121,0,.047-.019.09-.05.121-.031.031-.074.05-.121.05-.011,0-.021-.009-.021-.02,0-.011.009-.02.021-.02.036,0,.068-.015.092-.038.023-.023.038-.056.038-.092,0-.036-.015-.068-.038-.092-.024-.024-.056-.038-.092-.038-.05,0-.095.028-.129.068-.038.044-.063.107-.063.164,0,.067.027.129.072.173.044.044.105.071.173.071.08,0,.14-.031.181-.08.048-.057.071-.139.071-.223,0-.035-.004-.068-.01-.1-.023-.107-.083-.2-.164-.266-.081-.065-.185-.104-.294-.104-.033,0-.066.004-.099.011-.231.052-.432.181-.575.359-.14.175-.224.397-.224.638,0,.275.108.524.285.708.177.184.422.302.695.314.089.003.165-.021.231-.083.055-.052.092-.124.096-.206.002-.086-.025-.164-.083-.23-.046-.052-.108-.088-.177-.088-.049,0-.093.02-.125.052s-.052.076-.052.125c0,.039.014.082.04.113.021.026.05.043.085.043.028,0,.054-.011.072-.03.018-.018.03-.044.03-.072,0-.013-.002-.025-.006-.036-.005-.012-.011-.022-.019-.032-.007-.008-.007-.021.002-.029.008-.007.021-.007.029.002.011.013.02.028.026.044.006.016.009.033.009.05,0,.039-.016.075-.042.101-.045.046-.131.053-.193.053Z" fill="#e0c080" fill-rule="evenodd"/>
        <path d="M17.58,13.825c-.168.038-.331.095-.487.17-.003.002-.007.003-.01.003-.011,0-.021-.009-.021-.021v-3.039c0-.011.009-.02.021-.02h2.78c.011,0,.02.009.02.02v1.862c0,.29-.117.552-.307.742-.19.19-.452.307-.741.307-.079,0-.158-.009-.235-.026-.165-.037-.334-.055-.504-.055-.175,0-.348.02-.516.058Z" fill-rule="evenodd"/>
        <path d="M14.083,7.873h2.78c.011,0,.021.009.021.021v2.824c0,.011-.009.021-.021.021h-2.78c-.011,0-.02-.009-.02-.02v-2.825c0-.011.009-.02.02-.02Z"/>
        <path d="M17.082,7.873h2.78c.011,0,.021.009.021.021v2.824c0,.011-.009.021-.021.021h-2.78c-.011,0-.021-.009-.021-.021v-2.825c0-.011.009-.02.02-.02Z"/>
        <path d="M14.083,10.917h2.78c.011,0,.021.009.021.02v3.039s0,.006-.002.009c-.005.01-.017.014-.027.01-.156-.075-.32-.132-.488-.17-.168-.038-.341-.058-.516-.058-.085,0-.171.005-.255.014-.084.009-.167.023-.249.041-.039.009-.078.015-.118.02-.039.004-.078.006-.117.006-.29,0-.552-.117-.742-.307-.19-.19-.307-.452-.307-.742v-1.862c0-.011.009-.02.02-.02Z" fill-rule="evenodd"/>
        <path d="M17.103,13.945c.15-.07.307-.123.468-.16.171-.039.347-.059.525-.059.172,0,.344.018.512.056.074.017.15.025.226.025.278,0,.53-.113.713-.295.182-.182.295-.434.295-.713v-1.842h-2.739v2.987Z" fill="#fed700" fill-rule="evenodd"/>
        <rect x="14.103" y="7.914" width="2.739" height="2.784" fill="red"/>
        <path d="M14.935,9.736l-.246-.656c-.003-.007-.001-.015.003-.02l.764-.942c.007-.008.02-.01.029-.003l.003.003.476.588.119-.119c.016-.016.027-.032.032-.049.006-.021.003-.039-.002-.059-.007-.026-.011-.053-.011-.08,0-.083.033-.158.088-.212.054-.054.129-.088.212-.088s.158.033.212.088.088.129.088.212c0,.067-.022.13-.06.18-.038.051-.093.09-.156.108-.011.003-.022-.003-.025-.014l-.03-.111c-.003-.011.004-.022.015-.025.029-.009.055-.028.073-.052.018-.024.028-.054.028-.086,0-.04-.016-.076-.042-.102-.026-.026-.062-.042-.102-.042-.04,0-.076.016-.102.042-.026.026-.042.062-.042.102,0,.014.002.027.005.04.011.046.017.095.002.14-.012.043-.036.083-.072.118l-.13.13.189.233c.005.006.006.014.003.02l-.382,1.02c-.004.01-.015.016-.025.013-.027-.008-.055-.016-.083-.022,0,.004-.002.007-.002.011-.001.01-.003.019-.003.029,0,.046.02.088.05.119.032.031.075.051.119.051.043,0,.081-.014.109-.038.03-.025.05-.06.058-.1.007-.056.024-.109.048-.157.025-.05.058-.095.097-.134.025-.025.055-.046.088-.06.032-.014.067-.021.104-.021.074,0,.141.03.19.079s.078.116.078.19-.03.141-.078.19c-.049.048-.116.079-.19.079-.007,0-.014-.004-.018-.011l-.073-.126c-.006-.012,0-.026.013-.03.031-.008.067-.025.092-.049.018-.018.031-.039.031-.064,0-.022-.009-.043-.024-.057-.014-.015-.035-.024-.057-.024-.012,0-.024.003-.035.008-.01.005-.02.012-.027.021v.002c-.031.033-.057.071-.076.111-.019.039-.032.082-.039.127h0c-.018.081-.062.15-.123.199-.06.048-.136.077-.219.077-.097,0-.185-.039-.248-.103-.064-.064-.103-.151-.103-.248v-.104c-.018,0-.037-.001-.056-.001-.019,0-.037,0-.056.001v.104c0,.097-.039.184-.103.248s-.151.103-.248.103c-.083,0-.159-.029-.219-.077-.061-.048-.105-.117-.123-.194-.005-.021-.008-.041-.013-.062l-.288.288c-.008.008-.021.008-.029,0l-.081-.081c-.008-.008-.008-.021,0-.029l.064-.065c-.037-.021-.069-.051-.092-.086-.028-.042-.044-.093-.044-.147,0-.074.03-.142.078-.19.049-.049.116-.079.19-.079.037,0,.072.007.104.021.049.021.085.054.119.094.005.006.009.011.014.018l.188-.188h0ZM14.609,9.998c-.007-.009-.017-.017-.028-.022-.01-.005-.022-.008-.035-.008-.022,0-.042.009-.057.024-.015.014-.024.035-.024.057,0,.019.007.037.019.051.012.015.029.028.047.039l.106-.107c-.009-.012-.018-.024-.029-.035h0ZM15.071,10.099l-.076-.203-.171.171c.013.037.016.062.024.101.008.039.028.072.057.096.028.023.066.038.109.038.044,0,.088-.02.119-.051.031-.031.05-.073.05-.119,0-.01,0-.02-.002-.029,0-.004-.001-.007-.002-.011-.028.006-.056.014-.083.022-.011.003-.022-.003-.025-.014Z" fill-rule="evenodd"/>
        <rect x="17.103" y="7.914" width=".356" height="2.784" fill="#fed700"/>
        <rect x="17.5" y="7.914" width=".356" height="2.784" fill="red"/>
        <rect x="17.897" y="7.914" width=".356" height="2.784" fill="#fed700"/>
        <rect x="18.295" y="7.914" width=".356" height="2.784" fill="red"/>
        <rect x="18.692" y="7.914" width=".356" height="2.784" fill="#fed700"/>
        <rect x="19.089" y="7.914" width=".356" height="2.784" fill="red"/>
        <rect x="19.486" y="7.914" width=".356" height="2.784" fill="#fed700"/>
        <path d="M14.371,10.958h-.268v1.842c0,.264.102.505.268.684v-2.526Z" fill="red" fill-rule="evenodd"/>
        <path d="M14.68,10.958h-.268v2.568c.078.075.169.138.268.185v-2.753Z" fill="#fed700" fill-rule="evenodd"/>
        <path d="M14.989,10.958h-.268v2.771c.084.035.174.06.268.071v-2.843Z" fill="red" fill-rule="evenodd"/>
        <path d="M15.298,10.958h-.268v2.846c.027.002.054.003.081.003.038,0,.076-.002.113-.007.025-.003.05-.006.074-.011v-2.833Z" fill="#fed700" fill-rule="evenodd"/>
        <path d="M15.607,10.958h-.268v2.824c.083-.019.167-.032.252-.042l.016-.002v-2.781Z" fill="red" fill-rule="evenodd"/>
        <path d="M15.916,10.958h-.268v2.777c.067-.006.135-.008.202-.008.022,0,.044,0,.066,0v-2.769Z" fill="#fed700" fill-rule="evenodd"/>
        <path d="M16.224,10.958h-.268v2.771c.09.004.18.013.268.027v-2.798Z" fill="red" fill-rule="evenodd"/>
        <path d="M16.533,10.958h-.268v2.805c.037.006.073.014.109.022.053.012.106.026.159.042v-2.869Z" fill="#fed700" fill-rule="evenodd"/>
        <path d="M16.842,10.958h-.268v2.882c.091.029.181.064.268.105v-2.987Z" fill="red" fill-rule="evenodd"/>
        <path d="M14.732,9.076l.371.992c.056-.016.114-.028.173-.037.064-.009.13-.014.196-.014s.132.005.196.014c.059.009.117.021.173.037l.371-.992-.741-.914-.741.914h0ZM15.293,9.914c-.034.004-.069.01-.102.016-.01.002-.019-.003-.023-.013l-.303-.81c-.002-.007-.001-.014.003-.02l.51-.629c.004-.005.01-.009.017-.009.011,0,.02.009.02.02v1.415c0,.011-.008.02-.019.02-.034.002-.069.005-.104.009h0ZM15.652,9.914c-.034-.004-.068-.007-.102-.009h0c-.011,0-.02-.009-.02-.02v-1.415c0-.006.002-.012.008-.016.009-.007.021-.006.029.003l.512.631c.004.006.006.013.003.02l-.302.808c-.003.01-.013.016-.024.014-.034-.006-.068-.012-.102-.016Z" fill="#fff" fill-rule="evenodd"/>
        <path d="M15.991,8.737l.047.058.127-.127c.031-.03.051-.064.061-.1.009-.041.011-.078-.002-.119-.005-.016-.007-.034-.007-.051,0-.051.021-.097.054-.131.034-.033.08-.054.131-.054s.097.021.131.054c.034.034.054.08.054.131,0,.041-.013.079-.036.11-.019.026-.046.047-.076.06l.019.072c.046-.018.086-.048.115-.087.032-.043.052-.097.052-.155,0-.071-.029-.136-.076-.183-.047-.047-.112-.076-.183-.076s-.136.029-.183.076c-.047.047-.076.112-.076.183,0,.023.003.047.009.069.008.026.009.056.002.082-.007.024-.021.045-.042.066l-.122.122Z" fill="#fed700" fill-rule="evenodd"/>
        <path d="M15.726,10.082c-.021-.004-.042-.008-.063-.011-.031-.005-.062-.008-.093-.01v.101c0,.085.035.163.091.219.056.056.134.091.219.091.073,0,.141-.025.194-.068.054-.043.093-.104.109-.173.007-.049.022-.095.042-.138.021-.044.049-.085.082-.122.011-.013.025-.024.041-.032.016-.008.034-.012.052-.012.034,0,.064.014.086.036.022.022.036.053.036.086,0,.038-.017.069-.043.094-.024.023-.055.04-.085.051l.054.093c.058-.003.111-.028.15-.067.041-.041.067-.098.067-.161s-.025-.12-.067-.161c-.041-.041-.098-.067-.161-.067-.031,0-.061.006-.088.017-.028.012-.053.029-.074.051h0c-.036.036-.067.078-.09.124-.022.045-.038.094-.044.145h0c-.009.051-.034.095-.072.125-.035.029-.082.047-.135.047-.055,0-.109-.024-.148-.063-.038-.038-.062-.09-.062-.147,0-.012.001-.025.003-.037,0-.004.002-.008.003-.012Z" fill="#fff" fill-rule="evenodd"/>
        <path d="M14.598,9.85c-.027-.011-.056-.017-.088-.017-.063,0-.12.025-.161.067-.041.041-.067.098-.067.161,0,.046.014.089.037.125.022.033.052.06.087.078l.094-.094c-.019-.012-.036-.026-.049-.043-.017-.021-.028-.047-.028-.076,0-.033.014-.064.036-.086.022-.022.052-.036.086-.036.018,0,.036.004.052.012.016.008.031.019.042.033.009.01.018.021.026.031l.052-.052c-.005-.007-.01-.013-.016-.02-.029-.035-.061-.065-.104-.083Z" fill="#fff" fill-rule="evenodd"/>
        <path d="M15.376,10.061c-.031.002-.063.006-.093.01-.021.003-.042.007-.063.011,0,.004.002.008.002.012.002.012.003.024.003.037,0,.058-.024.109-.062.147-.039.039-.092.063-.148.063-.053,0-.1-.018-.135-.047-.036-.03-.061-.072-.071-.121-.005-.026-.008-.05-.016-.075l-.048.049c.01.031.014.056.021.087.016.068.055.128.108.17.053.042.12.068.194.068.086,0,.163-.035.219-.091.056-.056.091-.134.091-.219v-.101Z" fill="#fff" fill-rule="evenodd"/>
        <polygon points="14.979 9.854 14.951 9.778 14.356 10.372 14.409 10.424 14.979 9.854" fill="#fed700" fill-rule="evenodd"/>
        <path d="M15.571,9.866c.029.002.058.004.086.008.03.004.059.008.088.014l.293-.783-.468-.577v1.338Z" fill="#fed700" fill-rule="evenodd"/>
        <path d="M15.2,9.887c.029-.005.059-.01.088-.013.028-.003.058-.006.087-.008v-1.338l-.468.577.293.782Z" fill="#fed700" fill-rule="evenodd"/>
        <g>
          <path d="M17.66,11.217c-.001-.03.008-.063.022-.089.014-.027.035-.05.061-.067.005-.003.011-.004.017-.002.011.003.017.014.014.025-.003.012-.006.024-.008.037-.002.013-.003.025-.003.039,0,.016.001.032.004.048h.078c.003-.016.004-.032.004-.048,0-.013,0-.026-.003-.039-.002-.013-.005-.025-.008-.037-.003-.011.003-.022.014-.025.006-.002.012,0,.017.002.025.017.046.04.061.067.013.024.021.051.022.08h.125c.011,0,.02.009.02.02,0,.004,0,.007-.002.01-.013.03-.033.055-.058.075l.023.023h1.093c.054,0,.103.022.138.057.035.035.057.084.057.138s-.021.103-.057.138c-.023.023-.051.04-.083.049-.001.01-.002.019-.002.029,0,.029.005.056.014.082.009.026.023.051.04.072.004.004.005.011.004.016l-.035.278s-.001.006-.003.008l-.069.12c-.004.006-.01.01-.018.01h-.135c-.014,0-.021-.012-.02-.025.004-.027.014-.053.028-.075.013-.02.03-.037.05-.052l.012-.102-.2.245c-.004.005-.01.008-.016.008h-.136c-.014,0-.021-.012-.02-.025.004-.027.014-.053.028-.075.014-.022.033-.041.055-.055l.146-.179c-.008.001-.017.002-.025.002-.005,0-.011,0-.016,0v.02c0,.011-.009.02-.02.02s-.02-.009-.02-.02v-.027c-.01-.003-.021-.007-.031-.012v.029c0,.011-.009.02-.02.02-.011,0-.021-.009-.021-.02v-.056c-.015-.013-.029-.03-.04-.047-.014.004-.028.007-.042.011-.081.019-.166.029-.253.029-.028,0-.057-.001-.085-.003-.004.039-.006.079-.006.119v.13s-.001.009-.004.012l-.069.119c-.004.006-.011.01-.018.01h-.135c-.014,0-.021-.012-.02-.025.004-.027.014-.053.029-.075.013-.02.029-.037.048-.051v-.267c-.024-.006-.047-.012-.071-.019-.024-.007-.047-.015-.07-.024l-.046.067.052.089s.003.007.003.01v.139c0,.008-.005.015-.012.019l-.116.067c-.011.007-.023.001-.029-.01-.01-.026-.015-.053-.013-.08.001-.023.007-.047.017-.068l-.091-.158c-.004-.006-.003-.014,0-.02l.052-.09s-.007.009-.011.012c-.012.011-.028.017-.045.017-.017,0-.033-.006-.045-.017-.008-.008-.013-.014-.018-.025h-.036c-.011,0-.02-.009-.02-.02,0-.005.002-.01.005-.014.007-.01.014-.022.018-.034.004-.012.006-.025.007-.039v-.048c0-.024.01-.049.027-.065-.007-.002-.014-.004-.021-.007-.029-.011-.055-.026-.079-.046-.01.002-.02.003-.031.003-.033,0-.063-.009-.085-.025-.024-.016-.039-.04-.039-.067,0-.021.009-.04.025-.056.014-.013.032-.024.053-.03l.056-.061c-.001-.007-.002-.013-.002-.02,0-.018.005-.036.014-.05.007-.011.016-.021.026-.03Z" fill-rule="evenodd"/>
          <path d="M17.751,11.249c-.012,0-.018-.009-.021-.019-.005-.023-.008-.046-.008-.069,0-.007,0-.014,0-.02l-.004.008c-.013.024-.018.051-.017.077,0,.008,0,.016-.01.021-.009.005-.017.013-.022.022-.005.008-.008.019-.008.03,0,.007.001.013.003.019.003.007.001.015-.004.021l-.067.074s-.006.005-.01.006c-.016.004-.031.012-.04.021-.008.008-.013.017-.013.026,0,.012.008.024.021.033.016.011.037.017.062.017.01,0,.021-.002.031-.004.006-.002.013,0,.019.005.021.019.046.034.074.044.026.01.055.016.085.016.013,0,.025-.001.038-.003.04-.026.076-.058.105-.095.027-.034.05-.073.065-.116l-.027-.027c-.021.01-.045.017-.07.019-.011,0-.021-.008-.022-.019,0-.011.007-.021.019-.022.029-.002.055-.013.077-.029.014-.01.026-.022.036-.036h-.111c-.014,0-.02-.011-.02-.023,0-.003,0-.007,0-.01,0-.024-.006-.048-.017-.068l-.004-.008c0,.006,0,.014,0,.02,0,.024-.003.047-.008.071-.001.01-.01.018-.02.018h-.112ZM17.862,11.449c.007-.009.02-.01.029-.003.009.007.01.02.003.029-.014.018-.031.032-.051.044-.019.011-.04.018-.063.022-.011.001-.022-.006-.023-.017-.001-.011.006-.022.017-.023.018-.003.034-.008.049-.017.015-.008.028-.02.039-.034h0ZM17.598,11.485c-.011,0-.021-.009-.021-.02,0-.011.009-.021.021-.021h.019c.011,0,.02.009.02.021,0,.011-.009.02-.02.02h-.019ZM17.737,11.364c-.011,0-.021-.009-.021-.021,0-.011.009-.02.021-.02h.019c.011,0,.02.009.02.02,0,.011-.009.021-.02.021h-.019Z" fill="red" fill-rule="evenodd"/>
          <path d="M17.887,11.604c.001.025.006.05.014.073.009.027.023.052.04.074.006.006.007.016.002.024l-.094.164.09.156c.004.006.005.014.001.021-.01.019-.016.04-.017.061,0,.013,0,.027.003.04l.085-.049v-.122l-.055-.095c-.004-.006-.004-.016,0-.022l.059-.086v-.09c0-.011.009-.02.02-.02s.021.009.021.02v.082c.023.009.046.017.069.024.019.006.039.011.059.016v-.124c0-.011.009-.02.021-.02.011,0,.02.009.02.02v.445c0,.007-.003.013-.01.017-.018.011-.034.027-.046.045-.007.011-.013.023-.017.036h.098l.061-.106v-.125c0-.064.005-.127.013-.189.009-.063.022-.124.039-.185.003-.011.014-.017.025-.014.011.003.017.015.014.025-.017.058-.03.117-.038.178-.001.008-.002.015-.003.023.027.002.054.003.08.003.084,0,.165-.009.244-.027.071-.016.14-.04.205-.069-.017-.019-.033-.039-.048-.059-.007-.009-.004-.022.004-.029.009-.007.022-.005.029.004.033.044.07.084.11.121.04.036.084.069.131.097.007.004.012.012.011.02l-.028.233c0,.006-.004.011-.01.015-.018.011-.034.027-.045.045-.007.011-.013.023-.017.036h.098l.062-.107.034-.266c-.018-.023-.032-.049-.042-.077-.01-.03-.016-.062-.016-.095,0-.007,0-.014,0-.022-.004,0-.008,0-.013,0-.045,0-.09-.016-.124-.045-.031-.025-.067-.038-.106-.038-.03,0-.059.008-.084.023-.031.016-.065.025-.1.025-.036,0-.071-.009-.101-.026-.031-.017-.057-.043-.076-.073-.006-.01-.003-.022.007-.028.039-.024.082-.042.127-.055.044-.012.09-.019.137-.019.052,0,.102.008.149.022.049.015.095.037.136.065.011.008.023.013.037.013.016,0,.031-.007.042-.017.01-.011.017-.025.017-.042,0-.016-.006-.031-.017-.041-.011-.011-.025-.017-.042-.017-.011,0-.02-.009-.02-.02,0-.011.009-.02.02-.02.027,0,.052.011.071.029.018.018.029.043.029.07,0,.028-.011.052-.029.07-.018.018-.043.029-.071.029-.022,0-.043-.007-.06-.02-.038-.025-.08-.045-.124-.059-.043-.013-.089-.02-.137-.02-.044,0-.086.006-.126.017-.034.01-.067.023-.098.04.014.017.03.031.049.041.024.014.052.021.081.021.028,0,.055-.007.08-.02.032-.019.068-.028.105-.028.048,0,.094.016.131.047.029.023.062.036.099.036.042,0,.081-.017.109-.045.028-.028.045-.066.045-.109s-.017-.081-.045-.109c-.028-.028-.066-.045-.109-.045h-1.087c-.017.046-.041.088-.071.126-.031.039-.067.073-.109.1Z" fill="red" fill-rule="evenodd"/>
          <path d="M19.038,11.938l-.219.269s-.003.004-.005.005c-.018.011-.034.027-.046.045-.007.011-.013.023-.017.036h.1l.235-.288.004-.033c-.018-.011-.035-.022-.052-.034Z" fill="red" fill-rule="evenodd"/>
          <path d="M17.741,11.784h.015c.01,0,.019.008.02.018,0,.007.004.013.009.017.005.004.011.007.018.007s.013-.003.018-.007c.004-.004.008-.01.009-.016,0-.011.01-.019.02-.019h.015s-.004-.009-.005-.014c-.005-.016-.008-.032-.009-.05v-.05c0-.027-.022-.049-.049-.049s-.049.022-.049.049v.048c0,.018-.003.036-.009.052-.002.005-.003.009-.005.014Z" fill="red" fill-rule="evenodd"/>
          <path d="M18.825,11.937c.024.015.053.024.084.024.025,0,.049-.006.071-.017l.025-.031c-.015-.012-.029-.024-.043-.036-.013-.012-.026-.024-.038-.037-.046.022-.094.04-.143.056.012.016.027.031.044.042Z" fill="red" fill-rule="evenodd"/>
        </g>
        <g>
          <path d="M17.66,12.448c-.001-.03.008-.063.022-.089.014-.027.035-.05.061-.067.005-.003.011-.004.017-.003.011.003.017.014.014.025-.003.012-.006.025-.008.037-.002.013-.003.025-.003.039,0,.016.001.032.004.048h.078c.003-.016.004-.032.004-.048,0-.013,0-.026-.003-.039-.002-.013-.005-.025-.008-.037-.003-.011.003-.022.014-.025.006-.002.012,0,.017.003.025.017.046.04.061.067.013.024.021.051.022.08h.125c.011,0,.02.009.02.02,0,.004,0,.007-.002.01-.013.03-.033.055-.058.075l.023.023h1.093c.054,0,.103.022.138.057.035.035.057.084.057.138s-.021.103-.057.138c-.023.023-.051.04-.083.049-.001.01-.002.019-.002.029,0,.029.005.056.014.082.009.026.023.051.04.072.004.005.005.011.004.016l-.035.278s-.001.006-.003.008l-.069.12c-.004.007-.01.01-.018.01h-.135c-.014,0-.021-.012-.02-.025.004-.027.014-.053.028-.075.013-.02.03-.037.05-.052l.012-.102-.2.245c-.004.005-.01.008-.016.008h-.136c-.014,0-.021-.012-.02-.025.004-.027.014-.053.028-.075.014-.022.033-.041.055-.055l.146-.179c-.008.001-.017.002-.025.002-.005,0-.011,0-.016,0v.02c0,.011-.009.02-.02.02s-.02-.009-.02-.02v-.027c-.01-.003-.021-.007-.031-.012v.029c0,.011-.009.02-.02.02-.011,0-.021-.009-.021-.02v-.056c-.015-.013-.029-.029-.04-.047-.014.004-.028.007-.042.011-.081.019-.166.029-.253.029-.028,0-.057-.001-.085-.003-.004.039-.006.079-.006.119v.13s-.001.009-.004.012l-.069.119c-.004.007-.011.01-.018.01h-.135c-.014,0-.021-.012-.02-.025.004-.027.014-.053.029-.075.013-.02.029-.037.048-.051v-.267c-.024-.006-.047-.012-.071-.019-.024-.007-.047-.015-.07-.024l-.046.067.052.089s.003.007.003.01v.139c0,.008-.005.015-.012.019l-.116.067c-.011.007-.023.001-.029-.01-.01-.026-.015-.053-.013-.08.001-.024.007-.047.017-.068l-.091-.158c-.004-.006-.003-.014,0-.02l.052-.09s-.007.009-.011.013c-.012.01-.028.017-.045.017-.017,0-.033-.006-.045-.017-.008-.008-.013-.014-.018-.025h-.036c-.011,0-.02-.009-.02-.02,0-.005.002-.01.005-.014.007-.01.014-.022.018-.034.004-.012.006-.025.007-.039v-.048c0-.024.01-.049.027-.065-.007-.002-.014-.004-.021-.007-.029-.011-.055-.026-.079-.046-.01.002-.02.003-.031.003-.033,0-.063-.009-.085-.025-.024-.016-.039-.04-.039-.067,0-.021.009-.04.025-.056.014-.013.032-.024.053-.03l.056-.061c-.001-.007-.002-.013-.002-.02,0-.018.005-.035.014-.051.007-.011.016-.021.026-.03Z" fill-rule="evenodd"/>
          <path d="M17.751,12.48c-.012,0-.018-.009-.021-.019-.005-.023-.008-.046-.008-.069,0-.007,0-.014,0-.02l-.004.008c-.013.024-.018.05-.017.077,0,.008,0,.016-.01.021-.009.005-.017.013-.022.022-.005.008-.008.019-.008.03,0,.007.001.013.003.019.003.007.001.015-.004.021l-.067.074s-.006.005-.01.006c-.016.004-.031.012-.04.021-.008.008-.013.017-.013.026,0,.012.008.024.021.033.016.011.037.017.062.017.01,0,.021-.001.031-.004.006-.002.013,0,.019.004.021.019.046.034.074.044.026.01.055.016.085.016.013,0,.025-.001.038-.003.04-.025.076-.058.105-.095.027-.035.05-.073.065-.116l-.027-.027c-.021.01-.045.017-.07.019-.011,0-.021-.008-.022-.019,0-.011.007-.021.019-.022.029-.002.055-.013.077-.029.014-.01.026-.022.036-.036h-.111c-.014,0-.02-.011-.02-.023,0-.003,0-.007,0-.01,0-.024-.006-.048-.017-.068l-.004-.008c0,.006,0,.014,0,.02,0,.024-.003.047-.008.071-.001.01-.01.018-.02.018h-.112ZM17.862,12.68c.007-.009.02-.01.029-.003.009.007.01.02.003.029-.014.018-.031.032-.051.044-.019.011-.04.018-.063.022-.011.001-.022-.006-.023-.017-.001-.011.006-.022.017-.023.018-.003.034-.008.049-.017.015-.008.028-.02.039-.034h0ZM17.598,12.716c-.011,0-.021-.009-.021-.02,0-.011.009-.021.021-.021h.019c.011,0,.02.009.02.021,0,.011-.009.02-.02.02h-.019ZM17.737,12.595c-.011,0-.021-.009-.021-.021,0-.011.009-.02.021-.02h.019c.011,0,.02.009.02.02,0,.011-.009.021-.02.021h-.019Z" fill="red" fill-rule="evenodd"/>
          <path d="M17.887,12.834c.001.025.006.05.014.073.009.027.023.052.04.074.006.006.007.016.002.024l-.094.164.09.156c.004.006.005.014.001.021-.01.019-.016.04-.017.061,0,.013,0,.027.003.04l.085-.049v-.122l-.055-.095c-.004-.007-.004-.016,0-.022l.059-.086v-.09c0-.011.009-.021.02-.021s.021.009.021.021v.082c.023.009.046.017.069.024.019.006.039.011.059.016v-.124c0-.011.009-.02.021-.02.011,0,.02.009.02.02v.445c0,.007-.003.013-.01.017-.018.011-.034.027-.046.045-.007.011-.013.023-.017.036h.098l.061-.106v-.125c0-.064.005-.127.013-.189.009-.063.022-.124.039-.185.003-.011.014-.017.025-.014.011.003.017.015.014.025-.017.058-.03.117-.038.178-.001.008-.002.015-.003.023.027.002.054.003.08.003.084,0,.165-.009.244-.027.071-.016.14-.04.205-.069-.017-.019-.033-.039-.048-.059-.007-.009-.004-.022.004-.029.009-.007.022-.005.029.004.033.044.07.084.11.121.04.036.084.068.131.097.007.004.012.012.011.02l-.028.233c0,.006-.004.011-.01.015-.018.011-.034.027-.045.045-.007.011-.013.023-.017.036h.098l.062-.107.034-.266c-.018-.023-.032-.049-.042-.077-.01-.03-.016-.062-.016-.095,0-.007,0-.014,0-.022-.004,0-.008,0-.013,0-.045,0-.09-.016-.124-.045-.031-.025-.067-.038-.106-.038-.03,0-.059.008-.084.023-.031.016-.065.025-.1.025-.036,0-.071-.009-.101-.026-.031-.017-.057-.043-.076-.073-.006-.01-.003-.022.007-.028.039-.024.082-.042.127-.055.044-.012.09-.019.137-.019.052,0,.102.008.149.022.049.015.095.037.136.065.011.009.023.013.037.013.016,0,.031-.006.042-.017.01-.011.017-.025.017-.042,0-.016-.006-.031-.017-.041-.011-.011-.025-.017-.042-.017-.011,0-.02-.009-.02-.02,0-.011.009-.02.02-.02.027,0,.052.011.071.029.018.018.029.043.029.07,0,.028-.011.052-.029.07-.018.018-.043.029-.071.029-.022,0-.043-.007-.06-.02-.038-.025-.08-.045-.124-.059-.043-.013-.089-.02-.137-.02-.044,0-.086.006-.126.017-.034.01-.067.023-.098.04.014.017.03.031.049.041.024.014.052.021.081.021.028,0,.055-.007.08-.02.032-.019.068-.028.105-.028.048,0,.094.016.131.047.029.024.062.036.099.036.042,0,.081-.017.109-.045.028-.028.045-.066.045-.109s-.017-.081-.045-.109c-.028-.028-.066-.045-.109-.045h-1.087c-.017.046-.041.089-.071.126-.031.039-.067.073-.109.1Z" fill="red" fill-rule="evenodd"/>
          <path d="M19.038,13.169l-.219.269s-.003.004-.005.005c-.018.011-.034.027-.046.045-.007.011-.013.023-.017.036h.1l.235-.288.004-.033c-.018-.011-.035-.022-.052-.034Z" fill="red" fill-rule="evenodd"/>
          <path d="M17.741,13.015h.015c.01,0,.019.008.02.018,0,.007.004.013.009.017.005.004.011.007.018.007s.013-.003.018-.007c.004-.004.008-.01.009-.016,0-.011.01-.019.02-.019h.015s-.004-.009-.005-.014c-.005-.016-.008-.032-.009-.05v-.05c0-.027-.022-.049-.049-.049s-.049.022-.049.049v.048c0,.018-.003.036-.009.052-.002.005-.003.009-.005.014Z" fill="red" fill-rule="evenodd"/>
          <path d="M18.825,13.168c.024.015.053.024.084.024.025,0,.049-.006.071-.017l.025-.031c-.015-.012-.029-.024-.043-.036-.013-.012-.026-.024-.038-.037-.046.022-.094.04-.143.056.012.016.027.031.044.042Z" fill="red" fill-rule="evenodd"/>
        </g>
        <g>
          <path d="M13.923,14.108l-.004.014h-.003s-.002,0-.002,0c0,0-.001,0-.002,0h-.001c-.005-.002-.01-.002-.013,0-.003.001-.006.002-.007.004-.001.001-.002.003-.002.003,0,.001,0,.002-.001.003,0,0,0,.001,0,.003,0,.001,0,.002,0,.004,0,0,0,.001,0,.002,0,0,0,.001,0,.002,0,0,0,0,0,.001,0,0,0,.001,0,.001l.013.297h.003s.16-.217.16-.217c.003-.005.006-.008.008-.012.003-.003.004-.007.005-.01.003-.01.002-.018-.003-.025s-.011-.012-.018-.015c0,0,0,0-.001,0,0,0,0,0-.001,0l.004-.015.109.031-.004.015c-.013-.003-.025-.002-.036.003-.01.005-.02.013-.028.024l-.214.294-.029-.008-.02-.358c0-.016-.004-.029-.01-.037-.006-.009-.015-.016-.028-.021l.004-.015.121.034h0ZM14.207,14.19l-.003.015c.014.004.023.01.027.017.004.008.006.015.005.023,0,.004,0,.008-.001.011,0,.004-.001.007-.002.01l-.057.249s-.001.006-.003.01c0,.004-.002.007-.004.011-.003.007-.008.013-.015.018-.007.005-.018.006-.031.004l-.003.015.126.029.003-.015c-.016-.005-.026-.012-.029-.022-.003-.01-.004-.02-.002-.03,0-.001,0-.003.001-.005,0-.002,0-.003.001-.005l.057-.249s0-.003.001-.005c0-.001,0-.003.001-.005.003-.01.008-.019.015-.026.007-.007.019-.01.036-.007l.003-.015-.126-.029h0ZM14.538,14.267c.037.009.064.021.08.039.016.017.025.034.029.051.003.011.004.021.003.03,0,.009-.002.017-.003.023-.006.026-.017.045-.034.058-.017.012-.034.02-.051.023-.004,0-.009.002-.013.002s-.008,0-.012,0l.039.128s.002.005.002.007c0,.002,0,.003.002.005,0,0,0,0,0,0,0,0,0,0,0,0,0,0,.001.001.001.003,0,0,0,.002.001.003,0,.001.001.003.003.006.001.003.003.005.005.008.003.004.007.008.012.012.005.004.011.007.019.009h0s-.003.015-.003.015l-.122-.028.003-.015.007.002c.007.002.012.002.018.002.005,0,.009-.003.01-.007,0,0,0,0,0-.001,0,0,0-.001,0-.002,0-.003,0-.006-.002-.01-.002-.004-.003-.008-.004-.012,0,0-.001-.002-.001-.003,0,0,0-.002,0-.003l-.038-.121s-.005,0-.007-.001c-.002,0-.004,0-.005-.001-.003,0-.006-.001-.008-.002-.003,0-.007-.002-.011-.003,0,0-.002,0-.003,0s-.002,0-.003,0c-.002,0-.005-.002-.007-.002-.003,0-.005-.001-.007-.002-.003,0-.006-.002-.01-.003-.003-.001-.007-.003-.011-.005l-.022.097s0,.003-.001.005c0,.002,0,.003-.001.005-.002.01,0,.02.002.03.003.01.013.017.029.022l-.003.015-.125-.029.003-.015c.018.003.031.001.038-.008.007-.008.012-.02.015-.035l.057-.248c.003-.015.003-.028,0-.038-.004-.01-.013-.018-.029-.024l.003-.015.157.036h0ZM14.455,14.3l-.034.148c.007.003.014.005.021.007.007.002.013.004.019.005.039.009.069.006.092-.007.023-.014.038-.033.044-.059.006-.024.004-.043-.004-.058-.008-.014-.018-.025-.03-.033-.008-.005-.015-.008-.023-.011-.008-.003-.014-.005-.019-.006-.022-.005-.038-.007-.048-.006-.009,0-.015.007-.018.019h0ZM14.719,14.709l.003-.015c.015.002.027,0,.034-.008.008-.007.013-.019.016-.036l.046-.259c.003-.017.002-.029-.003-.033s-.013-.008-.023-.01c-.006-.002-.015-.002-.024-.002-.009,0-.02.003-.031.008-.006.002-.013.006-.02.011-.006.005-.013.011-.019.017l-.014-.002.03-.07.275.049.004.076-.014-.003c-.005-.013-.012-.024-.019-.032-.008-.008-.016-.016-.024-.021-.005-.003-.011-.006-.016-.008-.006-.002-.011-.003-.016-.004-.01-.002-.019-.001-.025.001-.007.003-.012.013-.015.03l-.046.259c-.003.017-.003.03.002.039.004.009.014.016.03.019l-.002.015-.126-.022h0ZM15.147,14.387l-.003.015s-.002,0-.003,0h-.003s-.001,0-.002,0h-.001c-.005-.001-.01,0-.013,0-.003.001-.005.003-.007.005,0,.001-.001.002-.002.004,0,.001,0,.002,0,.003v.01s0,0,0,.001h0s.042.295.042.295h.003s.138-.233.138-.233c.003-.005.005-.009.007-.013.002-.004.004-.007.004-.011.002-.01,0-.018-.005-.024-.005-.006-.012-.011-.02-.013,0,0,0,0-.001-.001,0,0-.001,0-.001,0l.003-.015.111.02-.002.015c-.014-.002-.025,0-.035.006-.01.006-.018.015-.025.027l-.183.314-.03-.005-.055-.354c-.002-.016-.007-.028-.013-.036-.007-.008-.016-.014-.03-.018l.003-.015.123.022h0ZM15.648,14.544l.003-.064c-.018-.014-.034-.024-.05-.03-.016-.006-.031-.01-.044-.012-.035-.005-.065,0-.088.016-.024.015-.037.037-.041.065-.003.024,0,.044.011.061.01.016.027.033.05.049.006.004.013.009.02.014.007.005.015.009.024.014.002.001.004.003.006.004.002.001.004.003.007.004.019.011.036.023.05.037.014.013.02.032.016.057-.003.02-.013.036-.031.048-.018.012-.04.016-.066.012,0,0-.001,0-.002,0h-.002c-.027-.005-.051-.017-.072-.037-.021-.02-.033-.042-.035-.066l-.014-.002-.005.074c.011.007.021.014.031.02.01.006.02.011.03.016.011.005.023.009.035.012.012.003.025.006.039.008.034.004.061,0,.082-.015.021-.014.036-.03.046-.049.003-.006.005-.011.006-.017.002-.005.003-.011.003-.016.004-.029-.001-.052-.015-.069-.014-.017-.033-.034-.058-.049-.005-.003-.01-.006-.015-.009-.005-.003-.01-.006-.016-.01-.005-.003-.009-.006-.013-.008-.004-.002-.009-.005-.013-.008-.019-.012-.034-.025-.045-.037-.011-.013-.015-.029-.013-.048.002-.017.01-.03.025-.039s.032-.012.053-.009c.004,0,.01.002.015.003.005.002.01.004.015.006.014.007.027.016.039.029.012.012.019.028.021.044l.014.002h0ZM16.042,14.497v.015s-.003,0-.004,0h-.002s-.001,0-.002,0h-.001c-.006,0-.01,0-.013.002-.003.002-.005.003-.006.005,0,.001-.001.003-.001.004,0,.001,0,.002,0,.003,0,0,0,.002,0,.003,0,.001,0,.002,0,.003,0,0,0,.001,0,.002v.002s0,0,0,.001c0,0,0,.001,0,.001l.072.288h.003s.114-.245.114-.245c.002-.005.004-.01.006-.013.002-.004.003-.008.003-.011,0-.01-.002-.018-.008-.024-.006-.006-.013-.01-.021-.011,0,0,0,0-.001,0h-.001v-.015s.114.008.114.008v.015c-.015,0-.026.003-.036.01-.009.007-.017.017-.022.029l-.151.331-.03-.002-.091-.347c-.004-.015-.01-.027-.017-.035-.007-.007-.018-.012-.031-.015v-.015s.126.01.126.01h0ZM16.685,14.53v.015c-.014.002-.023.005-.029.009-.006.005-.01.01-.011.015,0,.003-.002.006-.002.009,0,.003,0,.006,0,.008v.004s0,0,0,.001h0s0,.004,0,.005c0,0,0,.002,0,.003,0,0,0,0,0,.001h0s-.008.328-.008.328h-.031s-.222-.351-.222-.351h-.003l-.007.283c0,.012.004.021.012.028.009.007.019.011.03.011h.001v.015s-.114-.003-.114-.003v-.015c.02,0,.032-.005.038-.015.006-.011.009-.023.009-.039l.007-.255c0-.016-.003-.028-.009-.035-.006-.007-.013-.012-.021-.014-.002,0-.004-.001-.007-.002-.002,0-.005,0-.007,0v-.015s.098.003.098.003l.202.325h.004l.006-.244c0-.021-.001-.035-.006-.043-.005-.008-.01-.013-.016-.015-.002,0-.004-.001-.006-.002-.002,0-.004,0-.006,0h-.002s-.002,0-.002,0c0,0-.002,0-.003,0v-.015s.111.003.111.003h0ZM16.735,14.531l.129.003v.015c-.018,0-.029.006-.034.014-.005.009-.008.018-.009.029,0,.001,0,.003,0,.005v.005l-.007.255v.01c0,.011.003.02.008.029.005.009.016.014.033.016v.015s-.129-.003-.129-.003v-.015c.015,0,.025-.004.03-.01.006-.006.009-.013.011-.021,0-.004.002-.007.002-.011,0-.004,0-.007,0-.01l.006-.255v-.01s0-.008-.001-.011c-.001-.007-.004-.014-.01-.021-.005-.006-.015-.011-.029-.012v-.015h0ZM16.982,14.927v-.015c.015-.001.026-.006.031-.015.006-.009.009-.022.008-.038l-.006-.263c0-.018-.004-.028-.01-.032-.006-.004-.014-.005-.025-.005-.007,0-.015.001-.024.004-.009.002-.019.007-.029.014-.006.004-.012.009-.017.015-.005.006-.011.013-.016.021h-.014s.015-.075.015-.075l.279-.007.019.074h-.014c-.008-.011-.016-.021-.025-.028-.009-.007-.018-.012-.028-.016-.006-.002-.012-.003-.018-.004-.006,0-.011-.001-.016,0-.01,0-.019.002-.025.006-.006.004-.009.015-.008.033l.007.263c0,.017.004.03.01.038.006.008.017.013.033.013v.015s-.127.003-.127.003h0ZM17.331,14.57v-.014c.014-.004.026-.01.036-.017.01-.007.017-.018.02-.034h.024s.111.332.111.332c0,.001,0,.003.001.005,0,.002.001.003.001.005.006.015.012.027.02.034.007.008.02.013.038.015v.015s-.132.004-.132.004v-.015c.015,0,.025-.003.029-.007.005-.004.007-.01.006-.016,0-.003,0-.006-.001-.01,0-.003-.002-.007-.003-.011,0,0,0,0,0-.002,0,0,0-.001-.001-.002l-.018-.059-.14.004-.019.06s-.001.004-.001.006c0,.002,0,.004-.001.007,0,.003,0,.005,0,.008v.006c0,.006.003.01.009.013.006.002.013.004.02.006v.015s-.111.003-.111.003v-.015c.016-.004.028-.01.037-.019.009-.009.015-.02.02-.032l.081-.253s.001-.003.002-.005c0-.002,0-.003,0-.004,0-.002,0-.003,0-.005v-.005s-.001-.008-.004-.011c-.003-.003-.007-.005-.014-.005-.002,0-.003,0-.006,0-.002,0-.005,0-.007.002h0ZM17.455,14.77l-.064-.186h-.003s-.057.19-.057.19l.124-.003h0ZM18.062,14.478l.017.076h-.014s-.003-.004-.004-.007c-.002-.003-.003-.005-.005-.008-.007-.009-.016-.017-.029-.024-.012-.007-.028-.009-.048-.008l-.07.005c-.012,0-.019.003-.023.008-.004.005-.006.009-.007.014v.005s0,.004,0,.005l.008.113.081-.006c.012-.001.022-.005.029-.011.007-.006.01-.016.009-.029h0v-.002h.014s.008.099.008.099h-.014s0-.006,0-.006c0-.009-.003-.015-.008-.019-.005-.004-.01-.007-.015-.008-.005-.001-.009-.002-.012-.002-.003,0-.006,0-.008,0l-.081.006.01.133c.001.018.005.031.012.039.007.008.017.012.032.011h.003v.015s-.126.01-.126.01v-.015c.016-.002.026-.008.03-.018.004-.01.005-.023.004-.038l-.019-.255c-.001-.015-.004-.027-.01-.037-.005-.009-.016-.014-.034-.013v-.015s.271-.021.271-.021h0ZM18.116,14.661c-.007-.05,0-.091.019-.123.019-.031.042-.055.068-.071.012-.008.024-.013.037-.018.012-.004.023-.007.033-.008.01-.001.021-.001.034,0,.012,0,.026.003.039.007.029.008.058.025.085.051.027.026.044.064.05.115.007.058,0,.104-.023.14-.023.035-.049.061-.08.075-.009.004-.018.008-.027.01-.009.003-.018.005-.026.006-.009.001-.018.001-.029,0-.01,0-.02-.002-.031-.004-.032-.008-.064-.026-.093-.054-.03-.028-.048-.071-.055-.127h0ZM18.276,14.465c-.006,0-.013.002-.02.005-.007.002-.014.005-.021.009-.021.012-.039.032-.054.06-.015.028-.019.067-.013.117.007.052.023.094.05.126.026.033.061.047.105.041.04-.005.069-.023.085-.055.016-.031.025-.064.026-.099,0-.008,0-.016,0-.024,0-.008-.001-.015-.002-.023-.006-.05-.02-.087-.042-.11-.022-.023-.044-.038-.067-.044-.008-.002-.016-.004-.023-.004-.008,0-.015,0-.022,0h0ZM18.649,14.397c.038-.007.067-.005.088.004.021.009.037.021.047.035.006.009.011.017.014.026.003.008.005.016.006.022.005.026.002.049-.009.067-.011.018-.024.032-.038.041-.004.003-.007.005-.011.007-.003.002-.007.004-.011.005l.086.102s.003.004.005.005c.001.001.002.003.004.004h0s.002.002.003.003c0,0,.001.001.002.002,0,.001.002.002.005.004.002.002.005.003.008.005.004.003.009.005.015.006.006.002.013.002.021,0h0s0,0,0,0h0l.003.015-.123.022-.003-.015h.007c.007-.003.013-.004.017-.007.005-.002.007-.006.006-.01,0,0,0,0,0-.001,0,0,0-.001,0-.002,0-.003-.003-.006-.006-.009-.003-.003-.006-.006-.009-.009,0,0-.001-.001-.002-.002,0,0,0-.001-.001-.002l-.083-.096s-.005.001-.007.002c-.002,0-.004,0-.006,0-.002,0-.005.001-.008.001-.003,0-.007.001-.011.002-.001,0-.002,0-.003,0-.001,0-.002,0-.003,0-.003,0-.005,0-.008,0-.002,0-.005,0-.007,0-.003,0-.007,0-.01,0-.004,0-.008,0-.012,0l.018.097s0,.003,0,.005,0,.003,0,.005c.003.01.007.019.014.027.006.008.018.01.035.008l.002.015-.127.023-.003-.015c.018-.004.029-.011.032-.022.003-.011.003-.023,0-.038l-.045-.251c-.003-.015-.008-.027-.015-.034-.007-.007-.019-.011-.036-.011l-.003-.015.158-.028h0ZM18.585,14.46l.027.149c.008,0,.015,0,.022-.002.007,0,.014-.001.02-.003.039-.007.066-.021.082-.043.016-.022.022-.045.017-.071-.004-.024-.013-.041-.026-.051-.013-.01-.027-.016-.041-.019-.009-.001-.018-.002-.026-.001-.008,0-.015.001-.02.002-.022.004-.038.008-.046.013-.008.005-.011.013-.009.025h0ZM18.99,14.735l.126-.022-.003-.015c-.016.002-.028,0-.035-.008-.007-.007-.012-.019-.015-.036l-.046-.259c-.003-.017-.002-.028.003-.033.005-.005.013-.008.023-.01.005-.001.011-.002.016-.002.006,0,.012,0,.018.002.01.002.02.006.03.011.01.005.02.013.029.024l.014-.003-.03-.07-.275.049-.003.076.014-.002c.004-.009.008-.016.012-.023.004-.007.009-.012.014-.017.009-.008.018-.014.026-.018.009-.004.017-.006.023-.007.01-.002.019-.001.025.001.006.003.012.013.014.03l.046.259c.003.016.002.029-.002.039-.005.009-.014.016-.029.019l.002.015h0ZM19.152,14.305l.125-.029.003.014c-.016.005-.026.013-.029.022-.003.01-.004.02-.002.03,0,.001,0,.003,0,.005,0,.002,0,.003.001.005l.058.249s0,.003.001.005c0,.002,0,.003,0,.005.003.01.008.019.015.026.007.007.019.01.036.007l.003.015-.125.029-.003-.014c.014-.004.022-.01.026-.017.004-.008.006-.015.006-.023,0-.004,0-.008-.001-.011,0-.004-.001-.007-.002-.01l-.058-.249s-.001-.006-.003-.01c0-.004-.002-.007-.004-.011-.003-.007-.008-.013-.015-.018-.007-.005-.017-.007-.031-.004l-.003-.015h0ZM19.371,14.449c.012.055.035.096.068.121s.065.04.099.045c.01.001.021.001.031,0,.01,0,.02-.001.028-.004.008-.002.017-.004.026-.008.009-.003.018-.008.026-.013.029-.018.053-.046.072-.083.019-.038.022-.085.009-.141-.012-.05-.032-.087-.062-.11-.03-.023-.059-.037-.09-.042-.014-.003-.027-.003-.04-.003-.012,0-.024.002-.034.004-.01.003-.021.006-.032.012-.012.005-.023.013-.035.021-.024.018-.044.044-.06.077-.016.033-.018.075-.007.124h0ZM19.512,14.238c.006-.002.014-.003.021-.003.008,0,.016,0,.024.002.024.004.048.016.071.037.024.021.041.056.053.105.002.007.003.015.005.023.001.008.002.016.003.024.002.035-.003.069-.016.101-.013.033-.039.054-.079.063-.043.01-.079,0-.108-.03-.029-.03-.05-.07-.062-.121-.012-.049-.011-.088.001-.118.012-.029.028-.051.048-.065.006-.005.013-.008.02-.011.007-.003.014-.005.02-.006Z" fill-rule="evenodd"/>
          <path d="M19.873,14.124c.037-.01.067-.012.088-.005.022.007.039.018.05.031.007.008.013.016.016.025.004.008.006.016.008.021.007.026.007.048-.002.067-.008.019-.02.034-.033.045-.003.003-.007.006-.01.008-.003.002-.007.004-.01.006l.096.093s.004.003.005.005c.001.002.003.003.004.004h0s0,0,0,0c0,0,.002.001.003.002,0,0,.001.001.002.002,0,0,.003.002.005.004.003.002.005.003.008.005.005.002.01.004.016.005.006.001.013,0,.021-.002h.001s.004.014.004.014l-.12.034-.004-.014.007-.002c.006-.002.012-.004.017-.007.005-.003.006-.006.005-.011,0,0,0,0,0-.001,0,0,0-.001-.001-.002-.001-.003-.003-.005-.006-.008-.003-.003-.006-.005-.01-.008,0,0-.001,0-.002-.002,0,0-.001-.001-.002-.002l-.092-.087s-.005.002-.007.002c-.002,0-.004.001-.006.002-.003,0-.005.002-.008.003-.003,0-.007.002-.011.003-.001,0-.002,0-.003.001,0,0-.002,0-.003,0-.003,0-.005,0-.007.002-.002,0-.004.001-.007.001-.003,0-.007.002-.01.002-.003,0-.007,0-.012.001l.027.095s0,.003.001.005c0,.002,0,.003.001.005.004.01.009.018.016.025.007.007.019.009.036.005l.004.014-.124.035-.004-.014c.018-.006.027-.014.029-.025.002-.011,0-.023-.003-.038l-.07-.245c-.004-.015-.01-.026-.018-.033-.008-.007-.02-.009-.037-.008l-.004-.015.154-.044h0ZM19.816,14.194l.042.146c.007-.001.015-.002.022-.004.007-.001.013-.003.02-.005.038-.011.064-.028.077-.051.014-.023.017-.047.01-.072-.007-.024-.017-.04-.031-.049s-.028-.013-.042-.014c-.009,0-.018,0-.025.001-.008.001-.014.002-.02.004-.022.006-.037.012-.044.017-.008.005-.01.014-.007.026Z" fill-rule="evenodd"/>
        </g>
      </g>
    </g>
  </g>
</svg>