<svg xmlns="http://www.w3.org/2000/svg" id="Layer_2" data-name="Layer 2" viewBox="0 0 33.946 22.631">
  <defs><clipPath id="circleClip"><circle cx="16.973" cy="11.3155" r="11.3155" /></clipPath></defs><g clip-path="url(#circleClip)"><g id="_&#209;&#235;&#238;&#233;_1" data-name="&#209;&#235;&#238;&#233; 1">
    <g>
      <g>
        <rect width="33.946" height="22.631" fill="red" />
        <rect y="11.315" width="33.946" height="11.315" />
      </g>
      <g>
        <polygon points="15.744 6.807 16.127 7.99 17.371 7.988 16.364 8.718 16.75 9.9 15.744 9.166 14.739 9.9 15.125 8.718 14.118 7.988 15.361 7.99 15.744 6.807" fill="#fed700" fill-rule="evenodd" />
        <path d="M21.357,18.053c-.187-.325-.443-.617-.763-.855-.301-.224-.632-.378-.974-.467l.603-.813,1.93,1.433c.24.178.29.518.112.759-.178.24-.518.291-.759.112-.063-.047-.113-.105-.149-.169h0ZM19.512,16.676l.357-.481-5.578-4.142c-.026-.02-.032-.057-.012-.083.019-.026.057-.032.083-.012l5.578,4.142.187-.252-5.578-4.142c-.538-.4-.901-.951-1.073-1.552-.667,1.042-.339,2.405.705,3.054l5.331,3.47h0ZM21.191,16.941c-.045-.033-.108-.024-.141.021-.033.045-.024.108.021.141.045.034.108.024.141-.021.033-.045.024-.108-.021-.141h0ZM21.658,17.287c-.045-.033-.108-.024-.141.021-.033.045-.024.108.021.141.045.033.108.024.141-.021.033-.045.024-.108-.021-.141h0ZM20.725,16.595c-.044-.033-.108-.024-.141.021-.033.045-.024.108.021.141.045.033.108.024.141-.021.033-.045.024-.108-.021-.141Z" fill="#fed700" fill-rule="evenodd" />
        <path d="M15.744,4.303c.383.024.757.082,1.118.171l-.097.842c.315.084.618.195.908.331l.467-.707c.34.167.664.364.967.588l-.412.741c.256.197.494.415.712.653l.702-.475c.249.283.474.588.67.912l-.664.527c.161.278.298.571.409.876l.83-.17c.121.353.211.721.268,1.099l-.815.233c.031.236.047.478.047.723,0,.081-.002.162-.006.243l.832.161c-.024.383-.082.756-.171,1.118l-.842-.097c-.084.315-.195.619-.331.909l.708.467c-.167.34-.364.664-.588.966l-.741-.412c-.196.256-.415.494-.652.712l-.679-.505c1.004-.859,1.641-2.136,1.641-3.561,0-2.56-2.052-4.639-4.601-4.684l.319-1.656h0ZM12.394,14.285l-.819,1.474c.303.223.626.42.967.588l.467-.708c.29.136.594.247.908.331l-.097.842c.361.089.735.147,1.118.171l.161-.832c.08.004.161.006.243.006.245,0,.486-.016.723-.047l.232.816c.353-.053.696-.136,1.028-.244l-.259-1.264-.419-.273c-.414.12-.852.184-1.304.184-1.117,0-2.142-.391-2.947-1.043Z" fill="#fed700" fill-rule="evenodd" />
      </g>
    </g>
  </g>
</g></svg>