<svg xmlns="http://www.w3.org/2000/svg" id="Layer_2" data-name="Layer 2" viewBox="0 0 33.946 22.631">
  <defs><clipPath id="circleClip"><circle cx="16.973" cy="11.3155" r="11.3155" /></clipPath></defs><g clip-path="url(#circleClip)"><g id="_&#209;&#235;&#238;&#233;_1" data-name="&#209;&#235;&#238;&#233; 1">
    <g>
      <g>
        <rect width="33.946" height="22.631" fill="#fff" />
        <path d="M14.996,0l-4.773,3.336V0h4.773ZM6.715,0v3.365L1.9,0h4.815ZM16.939,0v1.329l-3.552,2.483h3.552v3.664h-3.552l3.552,2.482v1.358h-1.9l-4.815-3.365v3.365h-3.508v-3.336l-4.773,3.336H0v11.315h33.946V0h-17.007ZM0,9.987v-2.483h3.552l-3.552,2.483h0ZM0,3.841h3.552L0,1.358v2.483Z" fill="#039" fill-rule="evenodd" />
        <g>
          <rect y="4.561" width="16.939" height="2.223" fill="red" />
          <rect x="7.405" y="0" width="2.129" height="11.315" fill="red" />
          <polygon points="1.263 11.315 6.715 7.504 5.452 7.504 0 11.315 1.263 11.315" fill="red" fill-rule="evenodd" />
          <polygon points="4.232 3.841 0 .883 0 0 5.495 3.841 4.232 3.841" fill="red" fill-rule="evenodd" />
          <polygon points="15.676 0 10.223 3.811 11.486 3.811 16.939 0 15.676 0" fill="red" fill-rule="evenodd" />
          <polygon points="12.707 7.475 16.939 10.433 16.939 11.315 11.444 7.475 12.707 7.475" fill="red" fill-rule="evenodd" />
        </g>
      </g>
      <g>
        <path d="M29.709,6.078v3.903c0,2.957-1.751,5.524-4.267,6.717-2.516-1.193-4.267-3.76-4.267-6.717v-3.903c.601.339,1.295.533,2.035.533.822,0,1.587-.239,2.232-.651.644.412,1.41.651,2.232.651.739,0,1.433-.194,2.035-.533Z" fill="#f90" fill-rule="evenodd" />
        <path d="M29.428,6.531c-.552.238-1.148.361-1.754.361-.787,0-1.554-.207-2.232-.602-.677.396-1.445.602-2.232.602-.606,0-1.201-.123-1.754-.361v3.45c0,2.723,1.563,5.2,3.986,6.404,2.422-1.204,3.985-3.681,3.985-6.404v-3.45Z" fill="#fff" fill-rule="evenodd" />
        <path d="M22.464,13.627c.696,1.167,1.721,2.134,2.978,2.758,1.257-.625,2.282-1.592,2.978-2.758h-5.956Z" fill="#9cf" fill-rule="evenodd" />
        <g>
          <path d="M24.905,7.66c.385.002.751.089,1.079.242.183.083.387.129.602.129.14,0,.274-.019.402-.056.24-.071.495-.077.738-.016-.165.161-.372.282-.61.346-.054.015-.107.026-.161.033.043.034.083.07.122.109.175.174.293.384.356.605-.239-.068-.453-.197-.625-.377-.232-.234-.554-.378-.91-.378-.442,0-.833.224-1.063.565-.023.037-.036.08-.036.126,0,.131.107.238.238.238h.378c-.119.171-.317.284-.54.284h-.282c-.135.493-.332.962-.58,1.396-.073-.057-.119-.145-.119-.244v-.77c-.142-.226-.224-.493-.224-.779,0-.429.184-.815.478-1.083v-.453c0-.223.112-.421.284-.54v.149c0,.265.217.475.475.475h0ZM23.893,9.429c-.045,0-.081.037-.081.081s.036.081.081.081c.045,0,.081-.036.081-.081s-.037-.081-.081-.081Z" fill="#f90" fill-rule="evenodd" />
          <path d="M23.351,12.025c-.191-.335-.298-.694-.33-1.055-.02-.2-.082-.4-.189-.586-.07-.121-.154-.228-.25-.32-.182-.172-.315-.39-.383-.632.222.063.431.181.605.356.039.039.076.08.109.122.008-.054.019-.107.033-.161.064-.238.186-.445.346-.61.061.241.056.492-.013.73-.086.318-.051.669.127.977.221.383.61.609,1.021.639.043.001.087-.008.127-.032.113-.065.153-.212.087-.325l-.189-.328c.208.018.404.133.516.326l.141.244c.495-.13.999-.194,1.499-.196-.013.091-.066.176-.152.225l-.667.385c-.124.236-.315.441-.563.584-.371.214-.797.248-1.176.127l-.392.226c-.193.111-.421.113-.61.024l.129-.074c.229-.132.302-.426.174-.649h0ZM25.389,12.017c.022.039.072.052.111.03.039-.022.052-.072.03-.111-.023-.039-.072-.052-.111-.03-.039.023-.052.072-.03.111Z" fill="#f90" fill-rule="evenodd" />
          <path d="M27.908,11.188c-.195.332-.453.605-.749.813-.164.117-.306.271-.413.456-.07.121-.12.248-.152.377-.058.244-.18.467-.355.647-.056-.223-.058-.463.005-.702.014-.053.032-.105.052-.156-.05.02-.102.037-.156.052-.238.064-.478.062-.702.005.178-.173.398-.294.638-.353.319-.084.605-.291.782-.599.221-.383.222-.833.042-1.203-.02-.038-.051-.071-.091-.094-.113-.066-.259-.026-.325.087l-.189.327c-.089-.189-.087-.416.024-.61l.141-.244c-.359-.364-.667-.768-.919-1.2.086-.034.186-.031.271.019l.667.385c.266-.01.539.052.787.196.371.214.613.567.699.955l.392.226c.193.111.308.308.326.516l-.129-.075c-.229-.132-.52-.049-.648.174h0ZM26.882,9.427c.022-.039.009-.089-.03-.111-.039-.022-.089-.009-.111.03-.022.039-.009.089.03.111.039.022.089.009.111-.03Z" fill="#f90" fill-rule="evenodd" />
        </g>
      </g>
    </g>
  </g>
</g></svg>