<svg xmlns="http://www.w3.org/2000/svg" id="Layer_2" data-name="Layer 2" viewBox="0 0 33.946 22.631">
  <defs><clipPath id="circleClip"><circle cx="16.973" cy="11.3155" r="11.3155" /></clipPath></defs><g clip-path="url(#circleClip)"><g id="_&#209;&#235;&#238;&#233;_1" data-name="&#209;&#235;&#238;&#233; 1">
    <g>
      <g>
        <rect x="0" width="33.946" height="8.861" />
        <rect x="0" y="13.702" width="33.946" height="8.928" fill="#fff" />
        <rect x="0" y="8.861" width="33.946" height="4.841" fill="#007fff" />
        <polygon points="33.946 0 33.946 22.631 16.973 22.631 33.946 0" fill="#ce1126" fill-rule="evenodd" />
        <polygon points="0 0 0 22.631 16.973 22.631 0 0" fill="#ce1126" fill-rule="evenodd" />
      </g>
      <polygon points="16.254 5.23 16.973 1.476 17.695 5.244 19.809 2.042 19.031 5.785 22.195 3.639 20.041 6.814 23.8 6.045 20.604 8.142 24.358 8.861 20.59 9.583 23.792 11.697 20.049 10.92 22.195 14.083 19.02 11.929 19.789 15.688 17.692 12.492 16.973 16.246 16.251 12.478 14.137 15.68 14.914 11.937 11.751 14.083 13.905 10.908 10.146 11.677 13.342 9.581 9.588 8.861 13.356 8.139 10.154 6.025 13.897 6.803 11.751 3.639 14.926 5.793 14.157 2.034 16.254 5.23" fill="#fed700" fill-rule="evenodd" />
    </g>
  </g>
</g></svg>