<svg xmlns="http://www.w3.org/2000/svg" id="Layer_2" data-name="Layer 2" viewBox="0 0 33.946 22.631">
  <defs><clipPath id="circleClip"><circle cx="16.973" cy="11.3155" r="11.3155" /></clipPath></defs><g clip-path="url(#circleClip)"><g id="_&#209;&#235;&#238;&#233;_1" data-name="&#209;&#235;&#238;&#233; 1">
    <g>
      <rect width="33.946" height="22.631" fill="#fff" />
      <rect width="33.946" height="7.544" fill="#00adfe" />
      <rect y="15.087" width="33.946" height="7.543" fill="#00adfe" />
      <g>
        <path d="M17.928,10.124l1.212-1.083c.075-.066.174.032.108.108l-1.097,1.226c.045-.03.087-.064.126-.101.138-.129.308-.223.492-.27.133-.034.253-.115.327-.232.111-.174.315-.269.52-.242.106.013.08.166-.019.151-.105-.018-.209.037-.255.133-.101.209-.289.36-.514.417-.173.045-.331.141-.45.274-.022.027-.044.05-.066.073l1.534-.537c.095-.032.148.096.058.141l-1.486.716c.054-.011.108-.027.159-.047.177-.066.37-.087.558-.06.136.019.277-.01.391-.09.168-.118.394-.128.572-.024.093.053.009.185-.076.132-.09-.057-.208-.046-.286.025-.174.154-.405.222-.635.189-.177-.026-.359.003-.52.081-.031.015-.06.029-.09.042l1.623.091c.101.007.101.145,0,.152l-1.642.092c.053.01.106.016.16.017.189.007.376.061.539.157.118.071.26.097.395.067.201-.045.414.033.539.197.066.085-.062.175-.121.092-.061-.086-.175-.122-.274-.086-.219.076-.459.051-.658-.069-.154-.09-.333-.134-.512-.123-.034.003-.066.005-.099.005l1.464.705c.091.045.038.173-.058.141l-1.557-.544c.046.03.094.057.145.08.172.079.324.2.437.351.082.111.203.189.339.213.203.036.37.189.423.388.028.103-.124.137-.147.039-.023-.102-.114-.179-.22-.185-.231-.014-.443-.129-.582-.315-.108-.143-.256-.252-.426-.311-.032-.011-.062-.021-.092-.033l1.083,1.212c.066.075-.032.174-.108.108l-1.226-1.097c.03.045.064.087.101.126.129.138.223.308.27.492.034.132.115.252.232.326.174.111.269.315.242.519-.014.106-.167.08-.152-.019.018-.105-.036-.209-.133-.255-.209-.101-.36-.289-.417-.514-.045-.173-.141-.331-.274-.45-.026-.022-.05-.044-.073-.066l.537,1.534c.032.095-.096.148-.141.059l-.716-1.486c.011.054.027.108.046.159.066.177.087.37.06.558-.019.136.01.277.09.391.118.168.128.394.024.573-.053.093-.185.009-.132-.076.057-.09.046-.207-.025-.286-.154-.174-.222-.405-.189-.635.026-.177-.003-.359-.081-.52-.015-.031-.029-.06-.042-.09l-.091,1.623c-.006.101-.145.101-.152,0l-.092-1.642c-.01.053-.016.106-.017.16-.006.189-.061.376-.157.539-.071.118-.097.26-.067.395.045.201-.033.413-.197.539-.085.066-.175-.062-.092-.121.086-.061.122-.175.086-.274-.076-.22-.05-.459.069-.659.09-.154.134-.333.123-.512-.003-.034-.005-.066-.005-.099l-.705,1.464c-.044.091-.173.037-.141-.057l.544-1.557c-.03.046-.057.094-.079.144-.079.172-.2.324-.351.437-.111.082-.189.203-.213.339-.036.203-.188.37-.388.423-.103.028-.137-.124-.039-.147.102-.023.179-.114.185-.22.014-.232.129-.443.315-.582.143-.108.252-.256.311-.426.011-.032.021-.062.033-.092l-1.212,1.083c-.075.066-.174-.032-.108-.108l1.097-1.227c-.045.03-.087.064-.126.101-.138.129-.308.223-.492.27-.133.035-.252.115-.327.233-.111.174-.315.269-.519.242-.106-.014-.08-.167.02-.152.104.018.209-.037.254-.133.101-.208.289-.36.514-.417.173-.045.331-.141.45-.274.022-.027.044-.051.066-.073l-1.534.537c-.095.032-.148-.096-.059-.141l1.486-.716c-.054.011-.108.027-.159.047-.177.066-.37.087-.558.06-.136-.019-.277.01-.391.09-.168.118-.394.128-.573.024-.093-.053-.009-.185.076-.132.089.057.207.046.286-.025.174-.154.405-.222.635-.189.177.026.359-.002.52-.081.031-.015.059-.029.089-.042l-1.622-.092c-.101-.007-.101-.145,0-.152l1.642-.092c-.052-.01-.106-.015-.16-.017-.189-.006-.376-.061-.539-.157-.118-.07-.26-.097-.395-.067-.201.045-.413-.033-.539-.197-.066-.085.062-.175.121-.093.061.086.175.122.274.086.22-.076.459-.05.659.069.154.091.333.135.512.124.034-.003.067-.005.099-.005l-1.464-.705c-.09-.044-.037-.173.057-.141l1.557.544c-.046-.03-.094-.057-.144-.08-.172-.078-.324-.2-.437-.351-.082-.111-.203-.189-.339-.213-.203-.036-.37-.188-.423-.388-.028-.104.124-.137.147-.039.023.103.114.179.22.185.232.014.443.129.582.315.108.143.256.252.426.311.032.011.062.021.092.033l-1.083-1.212c-.066-.075.032-.174.108-.108l1.227,1.097c-.03-.045-.064-.087-.101-.126-.129-.138-.223-.308-.27-.492-.035-.133-.115-.253-.232-.327-.174-.111-.269-.315-.241-.52.013-.106.167-.08.151.02-.018.104.037.209.133.254.208.101.36.289.417.514.045.173.141.331.274.45.027.022.05.044.073.066l-.537-1.534c-.032-.095.096-.148.141-.058l.716,1.486c-.011-.054-.027-.108-.047-.159-.066-.177-.087-.37-.06-.558.019-.136-.01-.277-.089-.391-.118-.168-.128-.394-.024-.573.053-.093.185-.009.132.076-.057.09-.046.208.025.286.154.174.222.405.189.635-.026.176.002.359.081.52.014.031.029.059.042.09l.091-1.623c.007-.101.145-.101.152,0l.092,1.642c.01-.052.016-.106.018-.16.006-.189.061-.376.157-.539.07-.118.097-.26.067-.395-.045-.201.033-.413.197-.539.085-.066.175.062.092.121-.086.061-.122.175-.086.274.076.219.05.459-.069.659-.091.154-.135.333-.124.512.003.034.004.067.004.099l.705-1.464c.045-.091.173-.038.141.058l-.544,1.557c.03-.046.057-.094.08-.145.078-.172.2-.324.351-.437.11-.083.189-.203.213-.34.036-.203.188-.369.388-.422.103-.028.137.124.039.147-.103.023-.179.115-.185.221-.014.231-.129.443-.315.582-.143.108-.252.256-.311.426-.011.032-.021.062-.033.092Z" fill="#fc0" fill-rule="evenodd" />
        <g>
          <path d="M17.928,10.124l1.212-1.083c.075-.066.174.032.108.108l-1.096,1.227c.044-.031.086-.064.126-.101.138-.129.309-.222.492-.27.133-.034.252-.115.327-.232.11-.174.315-.269.52-.242.107.014.08.167-.019.151-.105-.018-.209.037-.255.133-.102.208-.289.36-.514.417-.173.045-.331.141-.45.275-.023.026-.044.05-.067.073l1.534-.537c.095-.032.148.096.058.141l-1.486.716c.054-.011.107-.027.159-.046.177-.066.37-.087.557-.061.136.019.278-.01.391-.089.169-.119.394-.128.573-.025.093.053.01.185-.076.132-.09-.056-.208-.046-.287.025-.174.153-.404.222-.634.189-.177-.025-.359.003-.52.082-.031.015-.06.029-.09.042l1.623.091c.1.007.1.146,0,.153l-1.643.092c.053.01.107.016.161.017.189.007.376.061.538.157.119.07.26.097.395.067.201-.045.413.033.539.196.066.085-.062.175-.12.093-.061-.087-.175-.122-.274-.086-.219.075-.459.05-.658-.068-.154-.091-.333-.135-.512-.124-.034.002-.066.004-.099.005l1.464.705c.09.044.037.173-.058.141l-1.557-.544c.046.03.095.057.145.08.172.078.323.2.437.351.083.11.203.189.34.213.203.035.369.189.422.387.028.104-.124.138-.147.04-.023-.103-.114-.179-.22-.185-.232-.014-.443-.129-.582-.315-.108-.143-.257-.252-.426-.31-.033-.011-.063-.022-.093-.034l1.083,1.212c.066.076-.032.174-.108.108l-1.227-1.096c.031.045.064.086.101.126.129.138.222.309.27.492.034.133.115.253.232.327.174.111.269.316.242.52-.014.107-.167.08-.151-.019.018-.104-.037-.209-.133-.255-.208-.102-.36-.289-.417-.514-.045-.173-.141-.331-.275-.45-.026-.023-.05-.044-.073-.067l.537,1.534c.032.095-.096.148-.141.058l-.716-1.485c.011.054.027.107.046.159.066.177.087.37.061.558-.019.136.01.278.089.391.118.169.128.395.025.573-.053.094-.185.01-.132-.076.056-.09.046-.208-.025-.286-.153-.174-.222-.405-.188-.635.025-.177-.003-.359-.082-.52-.015-.031-.029-.06-.042-.09l-.091,1.623c-.007.1-.146.1-.152,0l-.092-1.643c-.01.053-.016.107-.017.161-.007.189-.061.376-.157.538-.07.119-.097.26-.067.395.045.201-.033.414-.196.539-.085.066-.175-.062-.093-.12.086-.061.122-.175.086-.274-.075-.219-.05-.459.068-.658.091-.154.135-.334.124-.512-.002-.034-.004-.067-.005-.099l-.705,1.465c-.044.09-.173.037-.141-.058l.544-1.556c-.03.046-.057.094-.08.145-.078.172-.2.324-.351.437-.11.082-.189.203-.213.339-.035.203-.188.37-.387.422-.104.028-.137-.124-.04-.147.103-.023.179-.115.185-.22.014-.231.129-.443.315-.582.143-.108.252-.256.31-.426.011-.032.022-.063.034-.093l-1.212,1.083c-.076.066-.174-.032-.108-.108l1.096-1.227c-.045.031-.086.064-.126.101-.138.129-.309.223-.492.269-.133.034-.253.116-.327.233-.111.174-.316.269-.52.242-.107-.013-.08-.167.019-.151.104.018.209-.038.255-.133.102-.208.289-.36.514-.417.173-.045.331-.141.45-.275.023-.025.044-.05.067-.073l-1.534.537c-.095.032-.148-.096-.058-.141l1.485-.716c-.054.011-.107.027-.159.046-.177.066-.37.087-.558.06-.136-.019-.277.01-.391.09-.169.118-.395.128-.573.025-.094-.054-.01-.185.076-.132.089.056.208.046.286-.025.174-.154.405-.222.635-.189.177.025.359-.003.52-.082.031-.015.06-.029.089-.042l-1.623-.091c-.1-.007-.1-.146,0-.153l1.643-.092c-.053-.01-.107-.016-.161-.017-.189-.007-.376-.061-.538-.157-.118-.07-.26-.097-.395-.067-.201.045-.414-.033-.539-.196-.066-.085.062-.175.12-.093.061.086.175.122.274.086.219-.075.459-.051.658.068.154.091.334.135.512.123.034-.002.067-.004.099-.005l-1.465-.705c-.09-.044-.037-.173.058-.141l1.556.544c-.046-.03-.094-.057-.145-.08-.172-.078-.324-.2-.437-.351-.082-.11-.203-.189-.339-.213-.203-.036-.37-.188-.422-.387-.028-.104.124-.138.147-.04.023.103.115.179.22.185.231.014.443.129.582.315.108.143.256.252.426.31.032.011.063.022.093.033l-1.083-1.212c-.066-.075.032-.174.108-.108l1.227,1.096c-.031-.044-.064-.086-.101-.126-.129-.138-.223-.309-.269-.492-.034-.133-.116-.252-.232-.327-.174-.11-.269-.316-.242-.52.013-.107.167-.08.151.019-.018.105.037.21.133.255.208.102.36.289.417.514.045.173.141.331.275.45.025.023.05.044.073.067l-.537-1.534c-.032-.095.096-.149.141-.058l.716,1.486c-.011-.054-.027-.107-.046-.159-.066-.177-.087-.37-.06-.557.019-.136-.01-.278-.09-.391-.118-.169-.128-.394-.025-.573.054-.093.185-.01.132.076-.056.09-.046.208.025.287.154.174.222.404.189.634-.025.177.003.359.082.52.015.031.029.06.042.09l.091-1.623c.006-.1.146-.1.152,0l.092,1.643c.01-.053.016-.107.017-.161.007-.189.061-.376.157-.538.07-.118.097-.26.067-.395-.045-.201.033-.413.196-.539.085-.066.175.062.093.12-.086.061-.122.175-.086.274.075.219.051.459-.068.659-.091.154-.135.333-.123.512.002.034.004.066.004.099l.705-1.464c.044-.09.173-.037.141.058l-.544,1.557c.03-.046.057-.095.08-.145.078-.172.2-.323.351-.437.11-.083.189-.203.213-.34.036-.203.188-.369.387-.422.104-.028.138.124.04.147-.103.023-.179.115-.185.22-.014.232-.129.443-.315.582-.143.108-.252.257-.31.426-.011.033-.022.063-.033.093h0ZM18.222,10.611c.048-.042.084-.083.126-.13.125-.141.288-.24.469-.287.214-.055.392-.198.489-.397.053-.112.174-.175.296-.154.051.007.062-.07.008-.075-.19-.025-.38.064-.482.225-.079.125-.207.212-.349.249-.178.046-.344.137-.477.262-.07.067-.154.125-.24.17-.019.011-.044-.007-.021-.033l1.178-1.319c.035-.04-.014-.089-.054-.054l-1.277,1.141c-.016.015-.04,0-.031-.023.028-.057.046-.109.067-.169.061-.178.174-.332.324-.445.177-.132.286-.333.3-.553.006-.123.094-.228.214-.256.05-.012.031-.088-.021-.073-.185.049-.326.204-.36.392-.025.145-.11.275-.228.363-.147.11-.265.258-.341.425-.04.089-.095.176-.158.251-.013.015-.041.004-.032-.022l.584-1.672c.017-.051-.047-.077-.07-.029l-.743,1.544c-.01.02-.038.011-.037-.009.005-.064,0-.119-.002-.182-.012-.188.034-.373.129-.535.113-.19.137-.417.065-.626-.042-.116,0-.247.1-.318.041-.031-.006-.094-.048-.059-.152.116-.224.313-.182.5.032.144.003.297-.071.423-.094.158-.146.34-.152.523-.003.101-.021.196-.05.292-.005.017-.035.024-.037-.011l-.099-1.766c-.004-.053-.073-.053-.076,0l-.096,1.71c-.001.022-.031.025-.037.006-.02-.061-.045-.11-.072-.167-.082-.169-.111-.357-.085-.543.032-.218-.033-.438-.179-.604-.083-.091-.095-.228-.029-.332.026-.044-.041-.084-.067-.036-.096.166-.087.375.023.532.085.12.116.272.096.418-.026.182-.005.37.059.541.035.091.057.192.066.289.002.024-.027.03-.038.008l-.769-1.596c-.024-.048-.087-.021-.07.029l.566,1.617c.007.021-.019.035-.033.019-.042-.048-.083-.085-.131-.127-.141-.125-.24-.288-.287-.469-.054-.214-.198-.392-.397-.489-.112-.053-.175-.174-.154-.296.008-.051-.07-.062-.075-.008-.025.19.063.38.225.483.125.079.212.207.249.349.046.178.137.344.262.477.067.07.125.154.17.24.011.02-.007.044-.032.021l-1.319-1.178c-.04-.035-.089.014-.054.054l1.141,1.277c.014.016-.003.04-.023.03-.057-.028-.109-.046-.169-.067-.178-.062-.331-.174-.444-.324-.132-.177-.333-.286-.553-.3-.124-.006-.228-.094-.256-.214-.012-.05-.089-.031-.073.021.049.185.204.327.392.36.145.025.275.11.363.228.11.147.258.265.425.341.089.04.175.095.25.157.018.016.004.042-.02.033l-1.673-.584c-.05-.017-.077.047-.029.07l1.543.742c.02.01.014.038-.01.037-.063-.004-.118,0-.181.003-.188.011-.373-.034-.535-.129-.19-.113-.417-.137-.626-.065-.117.042-.247,0-.318-.1-.03-.041-.093.006-.059.048.116.152.313.224.5.182.144-.032.296-.003.423.071.158.094.34.146.523.152.097.003.197.021.29.049.021.006.027.036-.008.038l-1.765.099c-.053.004-.053.073,0,.076l1.709.096c.023.001.026.031.005.038-.06.02-.11.044-.167.072-.169.082-.358.111-.544.085-.219-.032-.438.033-.603.179-.092.083-.228.095-.332.029-.044-.026-.084.041-.036.067.165.096.375.087.532-.023.121-.085.273-.116.418-.096.182.026.37.005.542-.059.091-.035.191-.057.288-.066.022-.001.032.026.008.038l-1.596.769c-.048.024-.021.087.029.07l1.616-.566c.02-.007.036.017.019.033-.048.042-.084.083-.126.13-.125.141-.288.24-.469.287-.214.054-.392.198-.489.397-.053.112-.174.175-.296.154-.051-.008-.062.07-.008.075.189.025.38-.064.482-.225.079-.125.207-.212.349-.249.178-.046.344-.137.478-.263.07-.067.154-.125.239-.17.02-.011.044.006.021.033l-1.178,1.318c-.035.04.014.089.054.054l1.277-1.141c.016-.014.039,0,.03.023-.029.057-.046.109-.067.169-.061.178-.174.331-.324.444-.177.132-.286.333-.3.553-.006.124-.094.228-.214.256-.05.012-.031.089.022.073.185-.049.326-.204.359-.392.025-.145.111-.275.228-.363.147-.11.265-.258.341-.425.04-.089.095-.176.158-.251.012-.016.042-.005.032.021l-.584,1.673c-.017.05.046.077.07.029l.743-1.543c.009-.02.037-.015.037.009-.004.064-.001.118.003.182.011.188-.034.373-.129.535-.113.19-.137.417-.065.626.041.117,0,.247-.1.318-.041.03.006.093.048.059.152-.116.224-.313.182-.5-.032-.144-.003-.296.071-.423.094-.158.146-.34.152-.523.003-.097.021-.197.049-.29.006-.021.036-.027.038.008l.099,1.765c.003.053.072.053.076,0l.096-1.709c.001-.023.031-.026.038-.005.02.06.044.11.072.166.082.169.111.358.086.544-.032.219.033.438.179.603.083.092.095.228.029.332-.026.044.041.084.067.036.096-.165.087-.375-.023-.532-.085-.121-.116-.273-.096-.418.026-.182.005-.37-.059-.542-.035-.091-.057-.191-.066-.288-.001-.023.026-.032.038-.008l.769,1.596c.024.048.088.021.07-.029l-.566-1.617h0c-.007-.02.019-.035.033-.019.042.049.084.085.131.127.141.124.24.288.287.469.054.214.198.392.397.489.112.053.175.174.154.296-.007.051.07.062.075.008.025-.19-.063-.38-.225-.482-.125-.079-.212-.207-.249-.349-.046-.178-.137-.344-.262-.478-.067-.07-.125-.154-.17-.24-.01-.02.006-.044.033-.021l1.318,1.178c.04.035.089-.014.054-.054l-1.141-1.277c-.015-.016.002-.04.023-.03.057.028.109.046.169.067.178.061.332.174.445.324.132.177.333.286.553.3.123.006.228.094.256.214.012.05.088.031.072-.022-.049-.185-.204-.327-.392-.359-.145-.025-.275-.111-.363-.228-.11-.147-.258-.265-.425-.341-.089-.04-.175-.095-.251-.158-.016-.015-.004-.041.021-.032l1.672.584c.05.017.077-.046.029-.07l-1.543-.743c-.018-.008-.015-.037.01-.037.064.005.119.001.182-.003.188-.011.373.034.535.129.19.113.417.137.626.065.116-.041.247,0,.318.1.031.041.094-.006.059-.048-.116-.152-.313-.224-.5-.182-.144.032-.297.003-.423-.071-.158-.093-.34-.146-.523-.152-.097-.003-.197-.021-.29-.049-.021-.006-.027-.036.009-.038l1.765-.099c.053-.003.053-.072,0-.076l-1.71-.096c-.023-.001-.025-.032-.005-.038.06-.02.11-.044.167-.072.169-.082.357-.111.543-.086.218.032.438-.033.603-.179.091-.083.228-.095.332-.029.044.026.084-.041.036-.067-.166-.096-.375-.087-.532.023-.12.085-.272.117-.418.096-.182-.026-.37-.005-.541.059-.091.035-.191.057-.288.066-.022.002-.033-.026-.008-.038l1.596-.769c.048-.024.021-.088-.029-.07l-1.617.566c-.019.007-.037-.018-.018-.033Z" fill-rule="evenodd" />
          <g>
            <g>
              <g>
                <path d="M17.712,11.156c.018.018.045-.01.027-.027l-.048-.047c-.073-.071-.17-.111-.272-.111s-.199.04-.272.111l-.048.047c-.018.018.009.045.027.027l.048-.047c.065-.064.153-.1.245-.1s.179.036.245.1l.048.047Z" fill-rule="evenodd" />
                <path d="M17.217,11.212c-.021-.015-.042.017-.022.032.065.046.143.07.223.07s.158-.024.223-.07c.021-.015-.001-.046-.022-.032-.059.041-.129.064-.201.064s-.142-.022-.201-.064Z" fill-rule="evenodd" />
                <path d="M17.418,11.036c-.085,0-.165.033-.226.092-.008.008-.008.02,0,.027.06.059.141.092.226.092s.165-.033.225-.092c.008-.007.008-.02,0-.027-.06-.059-.141-.092-.225-.092h0ZM17.326,11.09c-.009.015-.014.033-.014.052s.005.037.014.052c-.033-.011-.064-.029-.092-.052.027-.023.058-.041.092-.052h0ZM17.51,11.194c.009-.015.014-.033.014-.052s-.005-.037-.014-.052c.033.011.064.029.092.052-.027.023-.058.041-.092.052h0ZM17.418,11.075c.037,0,.067.03.067.068s-.03.068-.067.068c-.037,0-.067-.03-.067-.068s.03-.068.067-.068Z" fill-rule="evenodd" />
              </g>
              <path d="M17.767,11.002c.018.018.045-.01.027-.027-.101-.099-.235-.154-.376-.154s-.275.055-.376.154c-.002.001-.003.003-.004.005-.034.065-.051.138-.051.212,0,.084.023.166.066.238.013.022.046.002.033-.02-.04-.066-.06-.141-.06-.218,0-.067.015-.132.046-.192.093-.09.217-.14.347-.14.131,0,.255.051.349.142Z" fill-rule="evenodd" />
            </g>
            <path d="M17.096,11.524c0-.025.038-.025.038,0s-.006.049-.016.07c.012.021.035.034.059.034.038,0,.069-.031.069-.068,0-.025.038-.025.038,0,0,.059-.048.107-.107.107-.032,0-.061-.015-.082-.038-.029.035-.073.057-.122.057s-.093-.022-.123-.057c-.02.024-.05.038-.082.038-.059,0-.106-.048-.106-.107,0-.025.038-.025.038,0,0,.038.031.068.068.068.025,0,.047-.013.059-.034-.01-.021-.016-.045-.016-.07s.039-.025.039,0c0,.068.055.123.123.123s.123-.055.123-.123Z" fill-rule="evenodd" />
            <path d="M16.816,12.219c-.008.024-.044.012-.036-.012.028-.083.106-.138.193-.138s.165.055.193.138c.008.024-.028.036-.036.012-.023-.067-.086-.112-.156-.112s-.134.045-.156.112Z" fill-rule="evenodd" />
            <path d="M16.709,11.907c-.007.007-.02.007-.027,0-.007-.008-.007-.02,0-.027l.121-.121c.008-.008.017-.014.027-.018.01-.004.022-.007.034-.007s.023.002.034.007c.01.005.02.011.028.019.006.006.013.011.022.014.007.003.016.005.025.005.009,0,.017-.002.025-.005.008-.003.015-.008.021-.014.008-.008.018-.015.028-.019.01-.004.022-.007.034-.007s.023.002.034.007c.011.005.02.011.028.019l.12.12c.008.007.008.02,0,.027-.007.007-.02.007-.027,0l-.12-.12s-.01-.008-.016-.011c-.006-.002-.012-.004-.019-.004s-.013.001-.019.004c-.006.003-.011.006-.016.011h0c-.01.01-.021.017-.034.022-.012.005-.025.008-.039.008-.014,0-.027-.002-.039-.008-.012-.005-.024-.012-.034-.022h0s-.01-.008-.016-.011c-.006-.002-.012-.004-.019-.004s-.013.001-.019.004c-.006.003-.011.006-.015.01l-.121.121h0ZM17.046,11.787h0,0Z" fill-rule="evenodd" />
            <path d="M16.769,11.938c-.018-.018.009-.045.027-.027l.079.078c.009.01.022.015.035.015h.126c.013,0,.026-.005.035-.015l.078-.078c.018-.018.045.009.027.027l-.078.078c-.016.016-.039.026-.062.026h-.126c-.023,0-.046-.009-.062-.026l-.078-.078Z" fill-rule="evenodd" />
            <path d="M16.973,11.895c.019,0,.037-.005.054-.015.023-.014.047-.021.074-.022.025,0,.026.038,0,.038-.022,0-.038.007-.056.017-.022.013-.047.019-.073.019s-.051-.007-.073-.019c-.018-.011-.035-.017-.056-.017-.025,0-.024-.039.001-.038.027,0,.051.008.074.022.016.009.035.015.054.015Z" fill-rule="evenodd" />
            <g>
              <g>
                <path d="M16.234,11.156c-.018.018-.045-.01-.027-.027l.048-.047c.073-.071.17-.111.272-.111s.199.04.272.111l.048.047c.018.018-.009.045-.027.027l-.049-.047c-.065-.064-.153-.1-.245-.1s-.179.036-.245.1l-.048.047Z" fill-rule="evenodd" />
                <path d="M16.729,11.212c.02-.015.042.017.022.032-.065.046-.143.07-.223.07s-.158-.024-.223-.07c-.021-.015.001-.046.022-.032.059.041.129.064.201.064s.142-.022.201-.064Z" fill-rule="evenodd" />
                <path d="M16.528,11.036c.085,0,.165.033.226.092.008.008.008.02,0,.027-.06.059-.141.092-.226.092s-.165-.033-.226-.092c-.008-.007-.008-.02,0-.027.06-.059.141-.092.226-.092h0ZM16.62,11.09c.009.015.014.033.014.052s-.005.037-.014.052c.033-.011.064-.029.092-.052-.027-.023-.058-.041-.092-.052h0ZM16.436,11.194c-.009-.015-.014-.033-.014-.052s.005-.037.014-.052c-.033.011-.064.029-.092.052.027.023.058.041.092.052h0ZM16.528,11.075c-.037,0-.067.03-.067.068s.03.068.067.068.067-.03.067-.068-.03-.068-.067-.068Z" fill-rule="evenodd" />
              </g>
              <path d="M16.179,11.002c-.018.018-.045-.01-.027-.027.101-.099.235-.154.376-.154s.275.055.376.154c.001.001.003.003.004.005.034.065.051.138.051.212,0,.084-.023.166-.066.238-.013.022-.046.002-.033-.02.04-.066.06-.141.06-.218,0-.067-.015-.132-.046-.192-.093-.09-.217-.14-.347-.14-.131,0-.256.051-.349.142Z" fill-rule="evenodd" />
            </g>
          </g>
          <path d="M16.973,10.047c.7,0,1.268.568,1.268,1.269s-.568,1.269-1.268,1.269-1.269-.568-1.269-1.269.568-1.269,1.269-1.269h0ZM16.973,10.085c-.679,0-1.23.551-1.23,1.23s.551,1.23,1.23,1.23,1.23-.551,1.23-1.23-.551-1.23-1.23-1.23Z" fill-rule="evenodd" />
        </g>
      </g>
    </g>
  </g>
</g></svg>