<?xml version="1.0" encoding="UTF-8"?>
<svg id="Layer_2" data-name="Layer 2" xmlns="http://www.w3.org/2000/svg" viewBox="0 0 118.973 79.168">
  <g id="Layer_1-2" data-name="Layer 1">
    <g>
      <rect width="118.973" height="79.168" fill="#2a3887"/>
      <polygon points="29.786 51.642 31.753 56.625 36.876 55.057 34.207 59.701 38.626 62.729 33.331 63.537 33.721 68.88 29.786 65.244 25.851 68.88 26.241 63.537 20.946 62.729 25.365 59.701 22.697 55.057 27.819 56.625 29.786 51.642" fill="#fff"/>
      <polygon points="89.638 61.42 90.508 63.625 92.773 62.932 91.593 64.985 93.547 66.324 91.205 66.683 91.378 69.046 89.638 67.438 87.897 69.046 88.069 66.683 85.727 66.324 87.682 64.985 86.501 62.932 88.767 63.625 89.638 61.42" fill="#fff"/>
      <polygon points="89.749 8.322 90.619 10.526 92.885 9.832 91.704 11.887 93.659 13.226 91.317 13.584 91.489 15.947 89.749 14.339 88.009 15.947 88.181 13.584 85.838 13.226 87.794 11.887 86.612 9.832 88.879 10.526 89.749 8.322" fill="#fff"/>
      <polygon points="74.354 30.031 75.223 32.235 77.489 31.541 76.309 33.596 78.264 34.935 75.921 35.293 76.094 37.656 74.354 36.048 72.612 37.656 72.785 35.293 70.442 34.935 72.397 33.596 71.217 31.541 73.482 32.235 74.354 30.031" fill="#fff"/>
      <polygon points="96.332 44.267 95.046 43.415 93.769 44.281 94.15 42.804 92.907 41.823 94.533 41.788 95.055 40.254 95.543 41.779 97.249 41.775 95.936 42.793 96.332 44.267" fill="#fff"/>
      <polygon points="102.795 24.76 103.665 26.964 105.931 26.27 104.75 28.325 106.705 29.664 104.362 30.022 104.535 32.386 102.795 30.777 101.054 32.386 101.227 30.022 98.884 29.664 100.839 28.325 99.659 26.27 101.925 26.964 102.795 24.76" fill="#fff"/>
      <rect width="59.486" height="39.426" fill="#2a3887"/>
      <polygon points="0 35.012 52.503 0 59.486 0 59.486 4.465 6.992 39.392 0 39.392 0 35.012" fill="#fff"/>
      <polygon points="59.486 35.012 6.992 0 0 0 0 4.465 52.503 39.392 59.486 39.392 59.486 35.012" fill="#fff"/>
      <rect y="13.045" width="59.486" height="13.547" fill="#fff"/>
      <rect x="24.908" width="9.885" height="39.516" fill="#fff"/>
      <rect x="26.689" width="6.115" height="39.392" fill="#ef4848"/>
      <rect y="15.653" width="59.486" height="8.087" fill="#ef4848"/>
      <polygon points="0 2.994 0 0 19.056 12.751 14.664 12.751 0 2.994" fill="#ef4848"/>
      <polygon points="39.775 26.263 44.107 26.263 59.486 36.482 59.486 39.392 39.775 26.263" fill="#ef4848"/>
      <polygon points="55.027 0 59.486 0 40.308 12.751 35.758 12.751 55.027 0" fill="#ef4848"/>
      <polygon points="0 39.392 19.807 26.263 24.157 26.263 4.531 39.392 0 39.392" fill="#ef4848"/>
    </g>
  </g>
</svg>