<?xml version="1.0" encoding="UTF-8"?>
<svg id="Layer_2" data-name="Layer 2" xmlns="http://www.w3.org/2000/svg" xmlns:xlink="http://www.w3.org/1999/xlink" viewBox="0 0 118.973 79.327">
  <defs>
    <clipPath id="clippath">
      <path d="M.19,39.584c0,21.862,17.723,39.586,39.585,39.586s39.585-17.724,39.585-39.586S61.638,0,39.775,0,.19,17.723.19,39.584Z" fill="none"/>
    </clipPath>
  </defs>
  <g id="Layer_1-2" data-name="Layer 1">
    <g clip-path="url(#clippath)">
      <g>
        <rect y=".159" width="118.973" height="79.168" fill="#2a3887"/>
        <polygon points="29.786 51.801 31.753 56.784 36.876 55.216 34.207 59.86 38.626 62.888 33.331 63.696 33.721 69.039 29.786 65.403 25.852 69.039 26.241 63.696 20.946 62.888 25.365 59.86 22.697 55.216 27.819 56.784 29.786 51.801" fill="#fff"/>
        <polygon points="89.638 61.579 90.508 63.784 92.773 63.091 91.593 65.145 93.547 66.483 91.205 66.842 91.378 69.205 89.638 67.598 87.897 69.205 88.069 66.842 85.727 66.483 87.682 65.145 86.501 63.091 88.767 63.784 89.638 61.579" fill="#fff"/>
        <polygon points="89.749 8.481 90.619 10.685 92.885 9.991 91.704 12.046 93.659 13.385 91.317 13.743 91.489 16.106 89.749 14.498 88.009 16.106 88.181 13.743 85.838 13.385 87.794 12.046 86.612 9.991 88.879 10.685 89.749 8.481" fill="#fff"/>
        <polygon points="74.354 30.19 75.223 32.395 77.489 31.7 76.309 33.755 78.264 35.094 75.921 35.452 76.094 37.815 74.354 36.207 72.612 37.815 72.785 35.452 70.442 35.094 72.398 33.755 71.217 31.7 73.482 32.395 74.354 30.19" fill="#fff"/>
        <polygon points="96.332 44.426 95.046 43.574 93.769 44.44 94.15 42.963 92.907 41.982 94.533 41.947 95.055 40.413 95.543 41.938 97.249 41.934 95.936 42.952 96.332 44.426" fill="#fff"/>
        <polygon points="102.795 24.919 103.665 27.123 105.931 26.429 104.75 28.484 106.705 29.823 104.362 30.181 104.535 32.545 102.795 30.936 101.054 32.545 101.227 30.181 98.884 29.823 100.839 28.484 99.659 26.429 101.925 27.123 102.795 24.919" fill="#fff"/>
        <rect y=".159" width="59.486" height="39.426" fill="#2a3887"/>
        <polygon points="0 35.171 52.503 .159 59.486 .159 59.486 4.624 6.992 39.552 0 39.552 0 35.171" fill="#fff"/>
        <polygon points="59.486 35.171 6.992 .159 0 .159 0 4.624 52.503 39.552 59.486 39.552 59.486 35.171" fill="#fff"/>
        <rect y="13.204" width="59.486" height="13.547" fill="#fff"/>
        <rect x="24.908" y=".159" width="9.885" height="39.516" fill="#fff"/>
        <rect x="26.69" y=".159" width="6.115" height="39.393" fill="#ef4848"/>
        <rect y="15.812" width="59.486" height="8.087" fill="#ef4848"/>
        <polygon points="0 3.153 0 .159 19.056 12.91 14.664 12.91 0 3.153" fill="#ef4848"/>
        <polygon points="39.775 26.422 44.107 26.422 59.486 36.642 59.486 39.552 39.775 26.422" fill="#ef4848"/>
        <polygon points="55.027 .159 59.486 .159 40.308 12.91 35.758 12.91 55.027 .159" fill="#ef4848"/>
        <polygon points="0 39.552 19.807 26.422 24.157 26.422 4.531 39.552 0 39.552" fill="#ef4848"/>
      </g>
    </g>
  </g>
</svg>