<?xml version="1.0" encoding="UTF-8"?>
<svg id="Layer_2" data-name="Layer 2" xmlns="http://www.w3.org/2000/svg" viewBox="0 0 118.972 79.168">
  <g id="Layer_1-2" data-name="Layer 1">
    <g>
      <rect width="118.972" height="79.168" fill="#00ac62"/>
      <rect width="118.972" height="26.574" fill="#0097c3"/>
      <rect y="26.574" width="118.972" height="26.575" fill="#e9233b"/>
      <path d="M59.618,49.485c-5.521,0-9.997-4.477-9.997-9.998s4.476-9.997,9.997-9.997c2.568,0,4.904.978,6.674,2.57-2.175-2.704-5.505-4.438-9.245-4.438-6.552,0-11.865,5.311-11.865,11.865s5.312,11.865,11.865,11.865c3.739,0,7.07-1.733,9.245-4.438-1.771,1.594-4.106,2.571-6.674,2.571Z" fill="#fff"/>
      <polygon points="70.87 36.844 73.846 35.464 72.41 38.413 75.491 39.541 72.391 40.61 73.772 43.586 70.822 42.151 69.695 45.233 68.624 42.131 65.649 43.512 67.083 40.562 64.004 39.435 67.104 38.364 65.723 35.39 68.672 36.823 69.799 33.742 70.87 36.844" fill="#fff"/>
    </g>
  </g>
</svg>