<?xml version="1.0" encoding="UTF-8"?>
<svg id="Layer_2" data-name="Layer 2" xmlns="http://www.w3.org/2000/svg" viewBox="0 0 33.946 22.631">
  <g id="_Ñëîé_1" data-name="Ñëîé 1">
    <g>
      <g>
        <rect width="33.946" height="22.631" fill="#ff0"/>
        <g>
          <rect width="11.315" height="22.631" fill="#039"/>
          <rect x="11.315" width="11.315" height="22.631" fill="#fed700"/>
          <rect x="22.63" width="11.315" height="22.631" fill="#039"/>
        </g>
      </g>
      <path d="M18.546,8.686c-.783-.754-1.343-1.737-1.573-2.841-.23,1.104-.791,2.088-1.573,2.841.347-.103.708-.173,1.08-.206v4.333c-.409.015-.817.05-1.223.103-.175-1.542-.619-3.001-1.283-4.329.248.015.491.046.729.092-.722-.639-1.613-1.093-2.598-1.284,1.356,1.893,2.177,4.194,2.243,6.684.69-.153,1.402-.247,2.131-.277v2.985h.988v-2.985c.729.03,1.441.124,2.131.277.066-2.49.888-4.791,2.243-6.684-.984.191-1.875.645-2.598,1.284.238-.046.481-.078.729-.092-.664,1.329-1.107,2.787-1.282,4.329-.406-.053-.814-.088-1.223-.103v-4.333c.372.033.733.103,1.079.206Z" fill-rule="evenodd"/>
    </g>
  </g>
</svg>