<?xml version="1.0" encoding="UTF-8"?>
<svg id="Layer_2" data-name="Layer 2" xmlns="http://www.w3.org/2000/svg" viewBox="0 0 33.946 22.631">
  <g id="_Ñëîé_1" data-name="Ñëîé 1">
    <g>
      <g>
        <rect width="33.946" height="22.631" fill="#fff"/>
        <path d="M14.996,0l-4.773,3.336V0h4.773ZM6.715,0v3.365L1.901,0h4.815ZM16.939,9.957l-3.552-2.482h3.552v2.482h0ZM16.939,3.811V1.329l-3.552,2.483h3.552ZM1.943,11.315l4.773-3.336v3.336H1.943ZM10.223,11.315h4.815l-4.815-3.365v3.365h0ZM0,9.987l3.552-2.483H0v2.483h0ZM0,3.841h3.552L0,1.358v2.483Z" fill="#039" fill-rule="evenodd"/>
        <path d="M1.263,11.315l5.452-3.811h-1.263L0,11.315v11.315h33.946V0h-17.007v4.561h-7.405V0h-2.129v4.561H0v2.223h7.405v4.532H1.263ZM12.707,7.475h-1.263l5.495,3.84h-7.405v-4.532h7.405v3.649l-4.232-2.957Z" fill="red" fill-rule="evenodd"/>
        <polygon points="4.231 3.841 0 .883 0 0 5.495 3.841 4.231 3.841" fill="red" fill-rule="evenodd"/>
        <polygon points="15.676 0 10.223 3.811 11.486 3.811 16.939 0 15.676 0" fill="red" fill-rule="evenodd"/>
      </g>
      <g>
        <path d="M21.106,5.827v8.015c0,.691.376,1.327.984,1.658,1.035.61,2.164,1.048,3.338,1.3l.014.003.014-.003c1.174-.252,2.303-.69,3.338-1.3.607-.331.984-.967.984-1.658V5.827h-8.672Z" fill-rule="evenodd"/>
        <path d="M21.176,5.897h8.533v7.945c0,.689-.383,1.289-.948,1.598-1.014.598-2.131,1.04-3.318,1.293-1.187-.253-2.304-.695-3.318-1.293-.565-.309-.949-.908-.949-1.598v-7.945Z" fill="#007c29" fill-rule="evenodd"/>
        <path d="M21.176,5.897h8.533v7.758c-.038.15-.118.282-.228.384.019-.067.029-.138.029-.211,0-.022,0-.044-.003-.066-.043.092-.104.174-.177.243.044-.095.07-.201.073-.312-.06.123-.151.227-.263.304.068-.117.107-.253.107-.398,0-.023-.001-.045-.003-.068-.033.162-.116.305-.231.414.013-.056.019-.115.019-.176,0-.074-.01-.145-.029-.213-.032.138-.1.262-.194.361.022-.072.033-.148.033-.226,0-.074-.01-.145-.029-.213-.039.21-.16.391-.329.508.053-.106.082-.225.082-.351,0-.02,0-.04-.003-.06-.062.161-.175.297-.32.387.088-.128.14-.283.14-.45,0-.028-.001-.055-.004-.081-.035.18-.132.337-.266.451.023-.074.035-.152.035-.233,0-.049-.004-.097-.013-.143-.053.149-.149.278-.274.371.053-.114.083-.241.083-.376,0-.064-.007-.127-.02-.188-.047.067-.085.141-.11.221-.008-.045-.012-.092-.012-.14,0-.074.01-.145.029-.213-.076.103-.128.226-.146.359-.021-.071-.032-.147-.032-.225,0-.08.012-.158.034-.231-.088.127-.139.279-.141.444-.04-.095-.063-.199-.064-.308-.044.099-.069.209-.069.325,0,.022,0,.044.003.066-.051-.105-.08-.224-.08-.349,0-.025.001-.05.003-.075-.062.113-.098.244-.098.382v.002c-.037-.092-.058-.193-.058-.299,0-.052.005-.102.014-.15-.066.116-.103.249-.103.392,0,.011,0,.022,0,.033-.04-.095-.062-.199-.062-.308,0-.011,0-.023,0-.034-.061.112-.095.241-.095.378h0c-.031-.083-.047-.174-.047-.269,0-.023.001-.045.003-.067-.057.092-.096.196-.111.308-.03-.084-.047-.175-.047-.269,0-.029.002-.058.004-.087-.056.109-.088.233-.088.364,0,.03.002.059.005.088-.039-.094-.06-.197-.06-.304,0-.054.005-.107.015-.158-.072.12-.114.261-.114.411,0,.026.001.052.004.077-.064-.115-.101-.247-.101-.388,0-.039.003-.077.008-.114-.053.107-.083.227-.083.355,0,.032.002.064.005.095-.059-.111-.092-.238-.092-.372,0-.004,0-.007,0-.011-.024.075-.036.155-.036.238,0,.069.008.135.025.198-.082-.115-.135-.253-.146-.403-.035.09-.055.188-.055.291,0,.075.01.148.03.217-.1-.115-.168-.258-.189-.417-.046.101-.072.213-.072.332,0,.03.002.059.005.089-.072-.1-.122-.218-.141-.346-.026.078-.04.163-.04.25,0,.033.002.065.006.097-.066-.113-.106-.243-.109-.383-.031.085-.048.177-.048.273,0,.028.001.055.004.082-.034-.088-.052-.184-.052-.285,0-.026.001-.052.004-.078-.061.106-.098.229-.104.359-.068-.11-.111-.238-.118-.374-.013.058-.021.118-.021.181,0,.083.013.163.036.238-.06-.112-.094-.24-.094-.376v-.01c-.054.107-.084.229-.084.357v.006c-.05-.099-.081-.21-.086-.328-.046.093-.074.198-.08.308-.038-.093-.059-.195-.059-.301,0-.045.004-.09.011-.133-.058.11-.091.236-.091.369v.003c-.036-.091-.055-.189-.055-.293,0-.031.002-.061.005-.091-.081.125-.128.274-.128.433,0,.007,0,.015,0,.022-.056-.109-.087-.233-.087-.363,0-.027.001-.054.004-.08-.05.105-.079.222-.079.346,0,.009,0,.018,0,.027-.038-.092-.058-.194-.058-.3,0-.011,0-.023,0-.034-.077.123-.121.267-.121.422,0,.01,0,.02,0,.029-.06-.112-.095-.24-.095-.377,0-.075.01-.147.03-.216-.093.13-.148.29-.148.462,0,.055.006.11.016.162-.063-.114-.099-.245-.099-.384,0-.039.003-.077.008-.114-.077.122-.121.267-.121.423,0,.025.001.05.003.075-.097-.132-.154-.295-.154-.471,0-.018,0-.035.002-.053-.026.079-.04.163-.04.251,0,.107.021.209.06.302-.125-.071-.23-.175-.301-.3v.009c0,.157.045.303.124.426-.149-.081-.27-.208-.342-.362-.015.053-.023.109-.023.167,0,.093.021.181.058.259-.087-.043-.164-.105-.224-.18,0,.005,0,.011,0,.016,0,.077.013.15.037.219-.092-.074-.164-.172-.207-.284-.004.03-.006.061-.006.092,0,.099.022.194.061.279-.133-.088-.232-.224-.274-.383-.013.062-.019.126-.019.192,0,.083.011.163.031.24-.103-.136-.17-.301-.187-.481-.031.093-.047.191-.047.294,0,.107.018.209.05.304-.091-.108-.158-.238-.193-.38-.014.096-.042.187-.082.272.003-.029.005-.06.005-.09,0-.222-.077-.426-.206-.586.047.112.073.235.073.364,0,.112-.019.219-.055.319-.144-.164-.231-.38-.231-.616,0-.083.01-.163.031-.239-.068.13-.106.276-.106.432,0,.137.03.268.083.385-.158-.168-.254-.393-.254-.641,0-.027.001-.054.004-.081-.046.11-.071.232-.071.359,0,.116.021.228.06.33-.134-.117-.234-.271-.285-.446v-7.869Z" fill="#fff" fill-rule="evenodd"/>
        <path d="M26.448,7.517c.058-.056.09-.133.09-.213,0-.005,0-.081-.021-.06-.041.039-.095.06-.152.06-.074,0-.142-.037-.183-.098.099-.069.158-.181.158-.302,0-.036-.005-.072-.016-.106,0-.005-.005-.008-.01-.008h-.282c.044-.071.067-.152.067-.235,0-.041-.006-.081-.016-.121-.002-.008-.014-.01-.018-.003-.048.079-.134.127-.227.127-.012,0-.025,0-.037-.002.019-.047.028-.096.028-.146,0-.042-.006-.083-.019-.123-.003-.007-.012-.009-.017-.003-.029.035-.064.065-.104.087-.023.013-.046.024-.072.031-.024-.025-.045-.054-.061-.085-.016-.033-.028-.068-.033-.105,0-.007-.008-.01-.014-.008-.05.019-.095.048-.131.085-.035.035-.063.078-.081.125-.043-.008-.083-.022-.12-.043-.04-.023-.075-.052-.103-.087-.005-.006-.015-.004-.017.003-.013.039-.019.081-.019.123,0,.05.01.099.028.146-.012.002-.025.002-.038.002-.093,0-.178-.048-.226-.127-.004-.008-.016-.006-.018.003-.011.039-.016.08-.016.121,0,.083.023.165.067.235h-.281s-.009.003-.01.008c-.01.035-.016.07-.016.106,0,.121.059.233.159.302-.041.061-.11.098-.183.098-.057,0-.111-.022-.152-.06-.022-.021-.021.055-.021.06,0,.081.033.157.09.213.022.02.034.048.034.078,0,.059-.048.106-.106.106-.061,0-.107-.049-.106-.109,0-.009-.011-.014-.018-.007-.039.045-.061.103-.061.163,0,.137.111.249.248.249.06,0,.118-.022.164-.061.017.051.015.107-.006.156-.016.039-.052.094-.101.094-.04,0-.073-.033-.073-.073,0-.02.008-.039.023-.053.007-.006.001-.018-.008-.017-.062.006-.116.034-.155.077-.039.043-.063.1-.063.162,0,.058.02.111.054.152.035.042.084.073.139.084.046.01.079.051.079.098,0,.055-.045.1-.1.1-.037,0-.071-.021-.089-.054-.002-.005-.008-.007-.013-.004-.002.001-.004.003-.004.005-.011.028-.017.056-.017.086,0,.078.041.15.108.191-.042.067-.115.108-.194.108-.046,0-.09-.013-.128-.039-.006-.004-.012-.001-.015.005-.018.035-.028.075-.028.114,0,.028.004.056.014.083-.064-.031-.137-.038-.205-.02l-.346.093c.001-.01.002-.02.002-.03,0-.057-.023-.11-.061-.147-.038-.038-.09-.061-.147-.061-.032,0-.062.007-.09.02-.013-.035-.035-.065-.065-.087-.031-.024-.071-.038-.113-.038-.052,0-.1.021-.134.056-.023.023-.04.052-.049.084-.032-.022-.069-.033-.107-.033-.052,0-.099.021-.134.055-.034.034-.055.082-.055.134,0,.072.041.138.105.17l.055.094c.007.013.016.025.025.035-.013.034-.02.07-.02.106v.067c0,.057.015.111.041.157.026.047.063.087.108.115v.169c-.085.003-.162.039-.219.095-.059.059-.095.14-.095.229v.19c0,.095.077.172.172.172.096,0,.172-.078.172-.173,0-.016-.004-.032-.011-.045.137.078.253.189.337.322.047.074.083.156.108.242-.05-.025-.106-.038-.163-.038-.067,0-.133.019-.191.054-.058-.035-.123-.054-.191-.054-.097,0-.188.038-.257.106l-.249.249c-.048.048-.076.112-.076.181v.355c-.07.004-.132.045-.162.108-.03.055-.088.089-.151.089-.047,0-.092-.019-.124-.053-.002-.003-.006-.004-.01-.004-.005.001-.009.007-.008.012.015.065.052.122.103.163.052.041.115.063.182.063-.027.047-.041.099-.041.153,0,.056.015.111.044.159.031.053.047.112.047.173,0,.052-.011.1-.031.144-.021.045-.051.085-.089.117-.003.003-.005.007-.003.011.002.005.008.008.013.006.089-.034.161-.095.207-.172.047-.077.068-.169.057-.264-.006-.041-.005-.082,0-.123.009.036.021.07.036.103.022.048.05.092.083.133.037.05.057.109.057.171,0,.065-.022.127-.063.178-.002.003-.003.006-.002.01.002.005.008.008.013.006.072-.025.133-.072.177-.133.042-.059.067-.131.067-.209,0-.043-.007-.083-.021-.121-.014-.039-.034-.075-.06-.107-.03-.034-.046-.077-.046-.122,0-.023.004-.046.013-.068.002.024.007.048.016.071.013.035.035.068.063.095.043.035.077.078.1.127.023.049.036.102.036.158,0,.024-.002.048-.007.071,0,.003,0,.007.003.009.004.004.01.003.014,0,.036-.04.064-.087.08-.138l.288.806c.044.124.124.238.227.318.095.074.209.12.334.12.111,0,.247-.052.349-.134.018-.015.036-.031.052-.047-.01.032-.016.064-.016.093,0,.022.002.044.004.065-.129-.003-.251.039-.35.123-.09.077-.203.118-.321.118-.046,0-.093-.007-.137-.02-.08-.025-.167-.004-.227.055-.039.038-.063.09-.066.148-.006,0-.013,0-.019,0-.079,0-.151.032-.203.084-.052.052-.084.124-.084.203,0,.061.019.12.055.169v.082c0,.097.056.185.143.226.006.003.014-.001.014-.009v-.079c0-.025.005-.048.017-.07l.02-.035c.039.005.078.003.115-.008,0,.01-.001.019-.001.029,0,.052.015.099.04.14.026.041.062.074.106.096.029.085.102.148.191.164.007.001.013-.005.011-.012l-.02-.076c-.006-.018-.007-.037-.005-.055.058-.014.108-.046.144-.091.028-.034.047-.075.055-.12.023.056.067.101.124.126l.008.029c.006.024.006.048-.002.072l-.021.076c-.002.007.005.014.012.012.046-.009.09-.031.124-.063.033-.031.059-.072.072-.119l.003-.011c.084-.04.136-.126.134-.219v-.132c0-.065.044-.121.106-.139.149-.048.276-.151.353-.288.208.094.414.202.623.291.073.034.119.107.119.187,0,.004,0,.008,0,.012-.02-.047-.073-.069-.122-.069-.087,0-.158.071-.158.158,0,.1.08.16.175.16.117,0,.207-.073.242-.174.059-.026.123-.04.187-.04s.129.014.188.04c.035.102.124.174.242.174.095,0,.175-.06.175-.16,0-.088-.071-.158-.158-.158-.048,0-.101.023-.122.069,0-.004,0-.008,0-.012,0-.08.046-.153.118-.187.208-.088.415-.197.623-.291.077.136.203.24.353.288.062.018.106.074.106.139v.132c-.002.093.051.179.134.219l.003.011c.012.047.038.088.072.119.035.032.078.054.124.063.007.002.014-.005.012-.012l-.02-.076c-.007-.024-.008-.048-.001-.072l.008-.029c.057-.025.101-.07.124-.126.008.045.027.086.055.12.036.044.086.077.144.091.002.018,0,.037-.005.055l-.02.076c-.002.007.004.014.012.012.089-.017.162-.08.191-.164.043-.022.08-.055.105-.096.026-.041.04-.088.04-.14,0-.01,0-.019-.001-.029.037.011.077.013.115.008l.02.035c.012.021.018.045.017.07v.079c0,.008.008.012.014.009.087-.042.143-.13.143-.226v-.082c.036-.049.055-.108.055-.169,0-.079-.032-.151-.084-.203-.052-.052-.124-.084-.204-.084-.006,0-.013,0-.019,0-.003-.058-.028-.11-.066-.148-.06-.06-.147-.08-.227-.055-.045.013-.091.02-.138.02-.118,0-.231-.041-.32-.118-.098-.084-.221-.126-.35-.123.003-.021.005-.043.005-.065,0-.03-.006-.062-.016-.093.016.017.033.033.052.047.102.082.238.134.349.134.125,0,.24-.046.334-.12.103-.081.183-.195.227-.318l.288-.806c.016.051.043.099.079.138.004.004.01.005.014,0,.003-.002.004-.006.003-.009-.005-.024-.007-.047-.007-.071,0-.056.012-.109.036-.158.023-.048.057-.092.1-.127.028-.027.05-.06.063-.095.009-.023.014-.046.016-.071.008.022.013.044.013.068,0,.045-.016.088-.046.122-.026.032-.046.068-.06.107-.014.038-.021.079-.021.121,0,.078.025.15.067.209.043.061.105.108.177.133.005.002.011-.001.012-.006.001-.004,0-.007-.002-.01-.04-.051-.062-.113-.062-.178,0-.062.02-.121.057-.171.033-.04.061-.085.083-.133.015-.033.027-.067.036-.103.006.041.006.081,0,.123-.011.094.01.186.057.264.046.077.118.138.207.172.005.002.011,0,.013-.006.002-.004,0-.008-.003-.011-.037-.032-.068-.072-.089-.117-.02-.044-.031-.092-.031-.144,0-.061.016-.12.047-.173.029-.048.044-.103.044-.159,0-.053-.014-.106-.04-.153.066,0,.13-.022.182-.063.051-.041.088-.097.103-.163.001-.005-.002-.011-.007-.012-.004,0-.008,0-.01.004-.032.034-.077.053-.124.053-.063,0-.12-.034-.151-.089-.03-.063-.093-.104-.162-.108v-.355c0-.068-.027-.133-.076-.181l-.249-.249c-.069-.068-.161-.106-.258-.106-.068,0-.133.019-.191.054-.057-.035-.124-.054-.191-.054-.056,0-.112.013-.162.038.025-.086.061-.168.108-.242.084-.133.2-.244.337-.322-.007.014-.011.029-.011.045,0,.096.076.173.172.173.095,0,.172-.077.172-.172v-.19c0-.089-.036-.17-.095-.229-.057-.057-.134-.092-.219-.095v-.169c.045-.029.082-.069.108-.115.026-.047.041-.1.041-.157v-.067c0-.036-.007-.072-.02-.106.01-.011.018-.022.025-.035l.054-.094c.065-.032.106-.098.106-.17,0-.052-.021-.099-.056-.134-.034-.034-.081-.055-.133-.055-.038,0-.076.011-.107.033-.009-.032-.026-.061-.049-.084-.034-.034-.081-.056-.133-.056-.042,0-.082.014-.114.038-.029.022-.052.052-.064.087-.027-.013-.058-.02-.09-.02-.057,0-.109.023-.147.061-.038.037-.061.09-.061.147,0,.01,0,.02.002.03l-.346-.093c-.069-.018-.141-.011-.206.02.009-.027.014-.055.014-.083,0-.04-.01-.079-.028-.114-.003-.006-.009-.008-.015-.005-.038.026-.082.039-.128.039-.079,0-.152-.041-.194-.108.067-.041.107-.113.107-.191,0-.029-.006-.058-.017-.086,0-.002-.002-.004-.004-.005-.005-.003-.011,0-.014.004-.017.033-.051.054-.089.054-.055,0-.1-.045-.1-.1,0-.047.033-.088.079-.098.055-.011.105-.041.139-.084.034-.041.054-.094.054-.152,0-.062-.024-.119-.063-.162-.039-.043-.094-.072-.155-.077-.01-.001-.016.011-.008.017.015.014.023.033.023.053,0,.04-.033.073-.073.073-.049,0-.084-.055-.101-.094-.021-.049-.023-.105-.006-.156.046.04.103.061.164.061.137,0,.249-.111.249-.249,0-.06-.022-.118-.061-.163-.006-.007-.017-.003-.017.007,0,.061-.045.109-.106.109-.059,0-.106-.047-.106-.106,0-.03.012-.057.034-.078h0ZM27.401,14.928c.015.008.03.014.046.019-.009.015-.017.03-.023.046-.005-.023-.013-.045-.024-.065h0ZM23.466,14.928c-.011.02-.019.042-.024.065-.006-.016-.014-.031-.023-.046.016-.005.032-.011.047-.019Z" fill-rule="evenodd"/>
        <path d="M24.913,10.342l.482-.185c.007-.003.011-.011.008-.018-.003-.007-.011-.011-.018-.008l-.482.184c-.007.003-.011.011-.008.018.003.007.011.011.018.008Z" fill="#630" fill-rule="evenodd"/>
        <polygon points="25.13 10.208 25.154 10.198 25.053 9.848 25.042 9.851 25.13 10.208" fill="#630" fill-rule="evenodd"/>
        <path d="M24.456,12.704c-.032.011-.065.022-.099.031-.023.006-.046.011-.069.016-.021.004-.041.008-.061.011,0,.06-.02.118-.056.165.026.019.049.042.068.067.046-.107.118-.211.21-.285l.007-.005Z" fill="#630" fill-rule="evenodd"/>
        <path d="M26.41,11.977c.107-.061.212-.126.313-.194l-.185-.542-.129.074v.661Z" fill="#630" fill-rule="evenodd"/>
        <path d="M26.41,12.135c.108-.058.213-.119.315-.183v-.146c-.103.068-.208.132-.315.194v.135Z" fill="#630" fill-rule="evenodd"/>
        <path d="M24.961,12.66c.101-.021.201-.044.3-.071.264-.071.517-.16.76-.265.126-.055.249-.114.369-.178v-.134c-.136.076-.276.147-.42.212-.265.12-.544.22-.834.298-.114.031-.229.057-.345.08.06.007.118.027.169.058Z" fill="#630" fill-rule="evenodd"/>
        <path d="M26.39,12.168c-.118.062-.238.12-.361.174-.244.106-.499.195-.763.266-.093.025-.187.047-.281.067.01.008.021.016.031.024.067.058.11.139.11.237,0,.026-.004.054-.012.08.07-.016.14-.033.209-.052.188-.051.371-.11.548-.178.178-.069.351-.146.518-.232v-.387h0ZM25.868,12.531c-.002-.005.002-.011.007-.012.005-.001.011.002.012.007l.041.154c.001.005-.002.011-.007.012-.048.018-.097.035-.146.051-.005.002-.011-.001-.012-.006l-.041-.155c-.001-.005.002-.011.007-.012.005-.001.01.002.012.007l.038.144c.043-.014.085-.029.127-.044l-.039-.145h0ZM25.482,12.656c-.001-.005.002-.011.007-.012s.011.002.012.007l.041.154c.001.005-.002.011-.007.012l-.149.04c-.005.001-.011-.002-.012-.007l-.041-.154c-.001-.005.002-.011.007-.012.005-.001.011.002.012.007l.039.145.13-.035-.039-.145Z" fill="#630" fill-rule="evenodd"/>
        <path d="M27.057,12.394c-.02-.074-.041-.149-.06-.223-.016-.06-.051-.11-.097-.146-.046-.036-.103-.057-.163-.058-.106.067-.216.13-.328.189v.521c.037-.005.075-.008.113-.008.111,0,.206.065.25.159.045-.171.145-.325.284-.435Z" fill="#630" fill-rule="evenodd"/>
        <path d="M26.39,11.775c-.145.069-.295.132-.447.189-.156.058-.316.108-.48.152l-.4.107c-.08.123-.183.232-.304.32-.029.022-.06.042-.092.061.154-.028.312-.062.464-.103.289-.077.567-.177.831-.296.147-.066.289-.139.428-.217v-.213Z" fill="#630" fill-rule="evenodd"/>
        <path d="M26.39,11.644c-.134.061-.27.117-.41.167-.143.052-.29.098-.44.138l-.473.127v.126l.391-.105c.163-.044.323-.094.478-.152.156-.057.307-.121.454-.192v-.109Z" fill="#630" fill-rule="evenodd"/>
        <polygon points="25.485 11.34 25.413 11.358 25.461 11.552 25.54 11.53 25.485 11.34" fill="#630" fill-rule="evenodd"/>
        <polygon points="25.409 11.339 25.479 11.32 25.173 10.264 25.146 10.274 25.409 11.339" fill="#630" fill-rule="evenodd"/>
        <polygon points="26.313 11.323 26.215 11.144 26.14 11.164 26.237 11.344 26.313 11.323" fill="#fff" fill-rule="evenodd"/>
        <polygon points="26.044 11.189 26.142 11.369 26.218 11.349 26.12 11.169 26.044 11.189" fill="#fff" fill-rule="evenodd"/>
        <polygon points="26.387 11.304 26.323 11.115 26.235 11.139 26.333 11.318 26.387 11.304" fill="#fff" fill-rule="evenodd"/>
        <polygon points="26.413 11.066 26.477 11.254 26.532 11.223 26.468 11.034 26.413 11.066" fill="#fff" fill-rule="evenodd"/>
        <polygon points="26.46 11.264 26.396 11.076 26.341 11.107 26.405 11.296 26.46 11.264" fill="#fff" fill-rule="evenodd"/>
        <polygon points="25.669 11.496 25.594 11.31 25.504 11.334 25.56 11.525 25.669 11.496" fill="#fff" fill-rule="evenodd"/>
        <path d="M23.634,11.4c.012-.051.01-.104-.003-.154-.013-.05-.038-.095-.073-.133-.004-.004-.003-.011,0-.014.004-.004.01-.003.014,0,.036.04.063.088.077.141.014.053.016.109.003.164-.011.05-.01.102.004.152.019.074.065.137.127.181.005.003.005.009.003.014-.003.005-.009.006-.014.003-.067-.046-.114-.114-.135-.192-.014-.053-.016-.108-.004-.161Z" fill="#fff" fill-rule="evenodd"/>
        <path d="M23.74,12.17s.005.01.002.014c-.003.005-.01.006-.014.002-.022-.016-.043-.034-.062-.054-.019-.02-.036-.041-.051-.064-.003-.005-.002-.011.003-.014.004-.003.011-.002.014.003.014.022.031.042.049.061.018.019.038.036.059.051Z" fill="#fff" fill-rule="evenodd"/>
        <path d="M24.564,10.45s.004.01,0,.014c-.004.004-.01.004-.014,0-.025-.023-.049-.046-.073-.07-.024-.024-.047-.048-.07-.073-.004-.004-.003-.011,0-.014.004-.004.01-.003.014,0,.023.025.046.049.069.073.024.024.048.047.072.069Z" fill="#fff" fill-rule="evenodd"/>
        <path d="M24.227,10.511c-.058.015-.112.038-.161.066-.049.028-.094.062-.133.1l.008.032c.057,0,.114-.009.169-.023.056-.015.108-.036.156-.063.047-.027.091-.058.129-.094l-.01-.04c-.054.001-.107.009-.158.023Z" fill="#630" fill-rule="evenodd"/>
        <path d="M24.173,10.507c.007-.002.014-.005.021-.007l-.065-.226-.014.004.057.229Z" fill="#630" fill-rule="evenodd"/>
        <path d="M23.99,10.603c.021-.016.043-.03.067-.043.031-.018.064-.033.098-.046l-.06-.241c-.001-.005.002-.011.007-.012l.023-.006-.044-.154c-.014-.053-.069-.085-.122-.071-.016.004-.03.012-.041.023l-.107.092v.003s.181.455.181.455Z" fill="#c93" fill-rule="evenodd"/>
        <path d="M24.039,10.72c-.015.003-.029.004-.044.005l.233,2.017c.02-.003.039-.007.058-.01.017-.004.035-.008.052-.012l-.299-2Z" fill="#c93" fill-rule="evenodd"/>
        <path d="M24.101,10.708c-.014.003-.029.007-.043.009l.298,1.998c.029-.008.059-.017.087-.027l-.342-1.98Z" fill="#c93" fill-rule="evenodd"/>
        <path d="M24.151,10.693c-.01.003-.02.007-.03.009l.341,1.978c.029-.011.057-.023.085-.035l-.396-1.952Z" fill="#c93" fill-rule="evenodd"/>
        <path d="M24.195,10.678c-.008.003-.016.006-.025.01l.395,1.949c.036-.018.071-.037.105-.057l-.475-1.902Z" fill="#c93" fill-rule="evenodd"/>
        <path d="M24.24,10.658c-.008.004-.017.008-.026.012l.474,1.898c.02-.013.04-.026.059-.04.008-.006.015-.011.023-.017l-.53-1.853Z" fill="#630" fill-rule="evenodd"/>
        <path d="M24.278,10.638h-.002c-.006.005-.012.008-.018.011l.529,1.849c.043-.035.084-.072.122-.112l-.631-1.748Z" fill="#c93" fill-rule="evenodd"/>
        <path d="M24.314,10.616c-.006.004-.012.008-.019.012l.629,1.742c.03-.032.058-.066.083-.101l-.693-1.652Z" fill="#c93" fill-rule="evenodd"/>
        <path d="M24.351,10.591c-.006.005-.013.01-.02.014l.69,1.645c.009-.012.017-.025.025-.038v-.141l-.696-1.48Z" fill="#c93" fill-rule="evenodd"/>
        <path d="M24.222,10.492c.056-.015.113-.023.171-.024.004,0,.008.003.01.007l.014.053s0,.008-.003.01c-.015.014-.03.028-.046.04l.482,1.026v-.436c0-.047-.013-.096-.038-.137-.022-.036-.053-.065-.094-.079-.005-.002-.008-.008-.006-.013.002-.005.008-.008.013-.006.045.016.08.048.104.088.027.044.041.097.041.148v.478s.177.378.177.378v-1.106c.001-.061-.024-.12-.069-.16-.03-.027-.068-.045-.108-.051-.044-.006-.086-.026-.12-.055-.032-.029-.057-.067-.069-.112-.006-.024-.009-.048-.007-.073.005-.064-.018-.127-.065-.171-.059-.059-.127-.122-.183-.183-.035-.036-.086-.05-.135-.037-.024.006-.046.019-.064.037l-.093.094.082.286.008-.002Z" fill="#c93" fill-rule="evenodd"/>
        <path d="M23.838,11.228s-.003-.01.001-.014c.004-.004.011-.003.014.001.035.043.061.093.075.147.011.042.016.086.012.13,0,.006-.005.01-.011.009-.005,0-.01-.005-.009-.011.003-.041,0-.083-.011-.123-.014-.051-.038-.098-.072-.139Z" fill="#fff" fill-rule="evenodd"/>
        <path d="M25.45,11.716l.019.075.026-.007c.156-.042.309-.09.458-.145.149-.055.294-.115.436-.181v-.084c-.143.068-.291.13-.441.185-.154.057-.311.107-.473.15l-.025.007Z" fill="#630" fill-rule="evenodd"/>
        <path d="M25.416,11.584l.029.113.025-.007c.161-.043.318-.093.471-.15s.303-.119.448-.188v-.029l-.974.261Z" fill="#630" fill-rule="evenodd"/>
        <polygon points="25.361 11.373 25.411 11.565 25.442 11.557 25.394 11.364 25.361 11.373" fill="#fff" fill-rule="evenodd"/>
        <polygon points="25.371 11.839 25.39 11.916 25.476 11.893 25.456 11.816 25.371 11.839" fill="#630" fill-rule="evenodd"/>
        <polygon points="25.349 11.743 25.367 11.819 25.451 11.797 25.431 11.721 25.349 11.743" fill="#630" fill-rule="evenodd"/>
        <polygon points="25.318 11.611 25.344 11.724 25.426 11.702 25.397 11.59 25.318 11.611" fill="#630" fill-rule="evenodd"/>
        <polygon points="25.268 11.398 25.314 11.591 25.392 11.57 25.342 11.378 25.268 11.398" fill="#fff" fill-rule="evenodd"/>
        <polygon points="25.265 11.867 25.281 11.945 25.37 11.921 25.352 11.844 25.265 11.867" fill="#630" fill-rule="evenodd"/>
        <polygon points="25.246 11.771 25.261 11.847 25.348 11.824 25.33 11.748 25.246 11.771" fill="#630" fill-rule="evenodd"/>
        <polygon points="25.218 11.637 25.242 11.752 25.325 11.729 25.299 11.616 25.218 11.637" fill="#630" fill-rule="evenodd"/>
        <polygon points="25.175 11.422 25.214 11.618 25.294 11.596 25.249 11.403 25.175 11.422" fill="#fff" fill-rule="evenodd"/>
        <polygon points="25.195 11.623 25.155 11.428 25.067 11.451 25.067 11.657 25.195 11.623" fill="#fff" fill-rule="evenodd"/>
        <polygon points="25.222 11.757 25.199 11.642 25.067 11.678 25.067 11.798 25.222 11.757" fill="#630" fill-rule="evenodd"/>
        <polygon points="25.242 11.853 25.226 11.776 25.067 11.819 25.067 11.9 25.242 11.853" fill="#630" fill-rule="evenodd"/>
        <path d="M25.276,11.967c-.006.002-.011-.002-.012-.008l-.018-.087-.179.048v.135l.468-.126c.149-.04.296-.086.438-.137.143-.051.282-.108.417-.17v-.142c-.139.065-.283.124-.429.178-.15.055-.303.103-.46.145l-.026.007.022.085c.002.006,0,.012-.006.013l-.215.057Z" fill="#630" fill-rule="evenodd"/>
        <path d="M23.936,13.933c.079-.067.135-.153.135-.247,0-.095-.077-.172-.172-.172-.07,0-.127.057-.127.126s.057.127.127.127c.033,0,.06-.027.06-.06,0-.033-.027-.06-.06-.06-.006,0-.01-.005-.01-.01s.004-.01.01-.01c.038,0,.07.027.078.063.021.077.01.16-.032.229-.003.005-.006.009-.009.014Z" fill="#fed700" fill-rule="evenodd"/>
        <path d="M23.027,9.42c-.001.024.002.047.01.07.01-.012.021-.022.035-.03l.161-.093c.014-.008.026-.02.034-.034.025-.044.01-.101-.034-.126-.044-.025-.101-.01-.126.034l-.055.096c-.015.026-.023.055-.025.084Z" fill="#00adfe" fill-rule="evenodd"/>
        <path d="M23.14,9.443l-.058.034c-.014.008-.027.02-.035.034.002.004.005.008.009.012l.09-.024s.002-.01.002-.015c0-.014-.002-.028-.007-.04Z" fill="#fed700" fill-rule="evenodd"/>
        <path d="M23.026,9.515c-.014-.03-.02-.063-.019-.096,0-.017.004-.033.008-.05-.026.003-.049.016-.067.033-.021.021-.033.049-.033.081,0,.071.02.137.055.193.086.137.25.193.405.193.105,0,.206-.014.302-.041.1-.028.194-.068.28-.12.155-.078.355-.2.506-.291.122-.07.356-.14.468-.02-.008-.015-.017-.029-.027-.042-.039-.051-.095-.088-.159-.105-.005-.001-.008-.007-.007-.012.001-.005.007-.008.012-.007.068.018.128.058.169.112.041.053.065.12.065.192,0,.041-.034.074-.074.074-.041,0-.074-.033-.074-.074,0-.005.004-.01.01-.01.006,0,.01.005.01.01,0,.03.024.054.054.054.03,0,.054-.024.054-.054,0-.032-.013-.061-.034-.082-.021-.021-.05-.034-.082-.034-.064,0-.116.052-.116.115,0,.105.085.19.19.19.052,0,.1-.022.134-.056.034-.034.055-.082.055-.134,0-.101-.041-.193-.107-.258-.066-.066-.158-.107-.259-.107-.103,0-.204.026-.295.077-.226.126-.448.265-.675.39-.147.083-.313.126-.482.126-.077,0-.151-.032-.204-.089-.034-.009-.062-.024-.089-.047-.024-.022-.043-.05-.055-.081-.003-.007.004-.015.012-.013.018.005.037.005.055,0l.017-.005s-.005-.008-.008-.013Z" fill="#fed700" fill-rule="evenodd"/>
        <path d="M23.02,9.287c.007-.025.003-.05-.009-.07-.025-.044-.082-.059-.126-.034-.02.012-.036.031-.043.056l-.028.106c-.008.029-.008.059-.002.088.005.023.014.045.028.065.006-.014.015-.027.026-.038l.131-.131c.012-.011.02-.026.024-.042Z" fill="#00adfe" fill-rule="evenodd"/>
        <path d="M22.775,9.302c-.013-.022-.034-.037-.056-.044-.023-.006-.048-.003-.069.009-.022.013-.038.034-.044.057-.006.023-.004.048.009.069l.056.096c.015.027.036.048.06.064.02.013.042.022.065.026-.006-.014-.008-.03-.008-.045v-.185c0-.016-.004-.032-.012-.047Z" fill="#00adfe" fill-rule="evenodd"/>
        <path d="M23.361,9.418s-.005-.002-.007-.004c-.003-.004-.003-.011.002-.014.046-.036.072-.09.072-.148,0-.052-.021-.099-.055-.133s-.081-.055-.133-.055c-.071,0-.137.041-.169.105-.002.005-.008.007-.013.005-.005-.002-.007-.008-.005-.013.018-.036.046-.065.079-.086-.011-.033-.031-.061-.059-.081-.028-.021-.063-.034-.101-.034-.047,0-.089.019-.12.05-.031.031-.05.073-.05.12,0,.011.001.023.003.034.001.005-.002.011-.008.012-.005.001-.01-.002-.012-.008-.002-.012-.004-.025-.004-.038,0-.009,0-.019.002-.028-.029-.022-.065-.035-.103-.035-.047,0-.089.019-.12.05s-.05.073-.05.12c0,.056.028.108.073.139-.005-.018-.004-.038,0-.056.007-.027.027-.053.053-.069.027-.015.057-.018.084-.011.028.007.052.025.068.052.004.006.007.014.01.021l.021-.079c.008-.03.027-.054.052-.068.054-.031.122-.012.153.041.014.025.019.055.011.084-.005.02-.015.037-.03.052l-.005.005h.02c.003-.007.007-.015.011-.022l.055-.096c.031-.054.099-.072.153-.041.054.031.072.099.041.153-.01.017-.024.032-.042.041l-.085.049c.007.016.01.033.01.05,0,.003,0,.006,0,.009l.029-.008c.019-.005.04-.005.059,0,.03.008.054.027.068.052.014.025.019.055.011.085-.016.06-.078.096-.137.079l-.062-.016c.046.037.103.058.163.058.063,0,.126-.006.188-.018.028-.034.043-.076.043-.12,0-.048-.018-.093-.048-.126-.03-.034-.072-.056-.12-.061Z" fill="red" fill-rule="evenodd"/>
        <path d="M23.1,12.275c.107-.077.198-.175.268-.288.097-.158.154-.345.154-.546,0-.206-.059-.398-.162-.558-.058-.092-.131-.173-.215-.241.028.029.055.06.08.093.157.207.248.486.248.705,0,.231-.07.446-.191.624-.052.077-.115.148-.184.209Z" fill="#fed700" fill-rule="evenodd"/>
        <path d="M23.928,13.91c.029-.048.042-.104.038-.16-.014.023-.039.038-.068.038-.004,0-.008,0-.011,0-.067.099-.179.158-.299.158-.094,0-.179-.037-.25-.094-.079-.064-.14-.154-.173-.248l-.404-1.134s0-.011.006-.012c.205-.082.379-.224.501-.404.118-.175.188-.386.188-.613,0-.215-.09-.489-.244-.693-.127-.167-.297-.287-.496-.287-.111,0-.201.09-.201.201,0,.084.068.152.152.152s.152-.068.152-.152c0-.047-.038-.085-.084-.085-.047,0-.085.038-.085.085,0,.005-.004.01-.01.01-.005,0-.01-.005-.01-.01,0-.058.047-.105.104-.105.017,0,.034.004.048.012.164.08.303.204.399.358.093.149.148.325.148.514,0,.226-.078.435-.208.6-.131.166-.315.287-.526.34l.452,1.266c.043.12.12.231.221.309.091.071.202.116.322.116.119,0,.275-.056.339-.162Z" fill="#fed700" fill-rule="evenodd"/>
        <path d="M23.279,11.206c-.052-.029-.11-.044-.17-.044-.066,0-.13.018-.185.053-.003.002-.007.002-.011,0-.056-.035-.12-.054-.186-.054-.091,0-.178.036-.243.1l-.249.249c-.045.044-.07.104-.07.167v.355c.05.003.097.025.131.062.033.035.078.055.126.055.005,0,.01.005.01.01,0,.006-.004.01-.01.01-.053,0-.104-.022-.14-.061-.033-.036-.078-.056-.127-.056-.066,0-.126.038-.154.097-.033.062-.098.1-.168.1-.041,0-.08-.013-.113-.037.017.048.048.089.086.12.056.044.116.061.187.058.008,0,.013.009.009.015-.031.047-.047.102-.047.158,0,.053.014.103.041.148.033.056.05.119.05.183,0,.054-.012.106-.033.152-.014.031-.033.059-.054.085.062-.034.112-.083.147-.141.044-.073.065-.161.054-.251-.008-.058-.004-.118.011-.175,0-.004.004-.007.008-.008.005-.001.01.003.012.008.009.051.024.099.045.144.021.046.049.09.08.129.04.053.061.117.061.183,0,.058-.016.114-.047.162.055-.025.101-.064.136-.112.04-.056.063-.124.063-.198,0-.04-.007-.079-.019-.114-.013-.037-.033-.071-.057-.101-.033-.037-.051-.085-.051-.135,0-.04.012-.079.034-.113.002-.003.005-.005.009-.005.005,0,.01.005.009.01-.003.036.002.071.015.104s.032.062.057.086c.045.037.081.082.105.134.024.051.038.108.038.166,0,.013,0,.026-.002.039.029-.039.049-.083.06-.131l-.156-.438c-.001-.005.002-.011.007-.012.211-.05.395-.17.526-.335.128-.162.204-.366.204-.588,0-.081-.01-.16-.029-.235h0ZM22.794,11.844c.021.019.033.046.033.074,0,.055-.045.1-.1.1-.006,0-.01-.005-.01-.01s.004-.01.01-.01c.044,0,.08-.036.08-.08,0-.023-.009-.044-.026-.059-.058-.051-.095-.117-.106-.193,0-.005.003-.011.008-.011.004,0,.007.001.009.004.027.033.062.06.101.079.038.017.08.028.125.028.006,0,.01.004.01.01,0,.005-.004.01-.01.01-.047,0-.092-.011-.133-.03-.031-.015-.06-.035-.084-.058.016.057.048.107.092.147h0ZM22.671,12.257c.005,0,.01.004.011.009,0,.005-.004.01-.009.011-.038.003-.077-.006-.11-.025-.036-.021-.064-.052-.08-.09-.002-.005,0-.011.005-.013.005-.002.011,0,.013.005.015.034.04.063.072.081.03.017.064.025.099.022Z" fill="red" fill-rule="evenodd"/>
        <path d="M24.215,13.838c.005,0,.01.005.01.01,0,.006-.005.01-.01.01-.044,0-.08.036-.08.08,0,.044.036.08.08.08.08,0,.144-.065.144-.144,0-.08-.065-.145-.144-.145-.059,0-.11.034-.149.081-.045.055-.072.129-.073.192.011-.037.031-.069.058-.096.045-.045.101-.067.164-.068Z" fill="#fed700" fill-rule="evenodd"/>
        <path d="M24.115,13.937c0-.025.01-.048.025-.066-.029.011-.054.028-.076.049-.039.038-.062.091-.062.15,0,.06.029.123.06.171.045.071.11.127.187.162.245.114.511.225.75.346.08.038.13.117.13.205,0,.035-.008.069-.023.1-.017.034-.052.056-.093.056-.029,0-.055-.012-.074-.03-.019-.019-.03-.045-.03-.073,0-.006.004-.01.01-.01.006,0,.01.005.01.01,0,.023.01.044.025.059.015.015.036.025.059.025.046,0,.084-.037.084-.084,0-.06-.056-.091-.11-.091-.076,0-.139.062-.139.139,0,.088.071.14.155.14.141,0,.237-.112.237-.25,0-.133-.075-.255-.195-.315l-.749-.345c-.056-.026-.102-.066-.134-.116-.031-.049-.05-.107-.05-.168v-.065Z" fill="#fed700" fill-rule="evenodd"/>
        <path d="M23.139,15.028c-.062.017-.098.08-.082.142l.035.13c.022.08.085.143.165.164l-.016-.059c-.008-.027-.009-.056-.002-.083l.041-.151c.005-.02.005-.041,0-.061-.016-.062-.08-.098-.141-.082Z" fill="#00adfe" fill-rule="evenodd"/>
        <path d="M22.76,14.782c-.064,0-.115.052-.115.116v.135c0,.083.045.16.117.201v-.062c-.001-.028.006-.056.02-.081l.078-.135c.01-.018.016-.038.016-.059,0-.064-.052-.116-.116-.116Z" fill="#00adfe" fill-rule="evenodd"/>
        <path d="M23.164,14.31c-.073-.023-.153-.005-.208.05-.037.037-.06.088-.061.144,0,.006-.005.011-.011.01-.009-.001-.018-.002-.028-.002-.074,0-.141.03-.189.078s-.078.115-.078.189c0,.047.012.092.035.133v-.016c0-.075.06-.135.135-.135s.136.061.136.135c0,.024-.007.048-.019.069l-.047.081c.038.004.077,0,.113-.013.007-.002.014.004.013.011-.002.014-.003.027-.003.041,0,.048.014.092.037.13.02.032.048.06.081.079l-.033-.121c-.019-.072.023-.147.096-.166.072-.02.147.024.166.096.006.023.006.048,0,.071l-.039.146c.05-.014.093-.043.124-.081.034-.042.054-.096.054-.154,0-.05-.015-.098-.043-.139-.005-.006-.002-.015.005-.016.035-.008.068-.025.095-.048.027-.023.049-.052.063-.085.002-.005.008-.007.013-.005.005.002.007.008.005.013-.014.033-.035.061-.061.085-.052.055-.072.133-.052.206.016.059.055.107.108.135l-.026-.097c-.006-.023-.007-.048,0-.071.02-.072.094-.115.166-.096.072.019.115.093.096.165l-.025.094c.068-.039.109-.113.107-.192v-.133c0-.073.049-.137.12-.157.144-.046.266-.145.341-.277-.036-.016-.072-.032-.109-.047-.08-.037-.149-.096-.196-.169-.031-.048-.054-.104-.065-.162-.126-.004-.244.036-.34.118-.093.079-.211.122-.334.122-.048,0-.097-.007-.143-.02h0ZM23.81,14.66s-.003-.01.002-.014c.004-.003.011-.002.014.002.016.022.029.046.038.073.009.026.013.053.013.082,0,.006-.004.01-.01.01-.005,0-.01-.004-.01-.01,0-.026-.004-.052-.012-.075-.008-.024-.02-.047-.035-.068h0ZM23.081,14.871s-.011,0-.013-.004c-.003-.005,0-.011.004-.014.036-.019.075-.029.116-.031.016-.032.037-.062.063-.087.025-.026.055-.048.087-.065.005-.003.011,0,.013.004.003.005,0,.011-.004.013-.031.016-.058.037-.082.061-.022.022-.04.047-.055.074.047.002.092.017.131.044.004.003.006.009.003.014-.003.005-.009.006-.014.003-.04-.027-.086-.041-.134-.041-.04,0-.079.01-.115.029h0ZM23.006,14.534s-.007-.008-.004-.013c.002-.005.008-.007.013-.004.021.011.041.025.058.041.012-.018.025-.033.041-.047.018-.017.04-.031.063-.041.005-.002.011,0,.013.005.002.005,0,.011-.005.013-.021.009-.04.022-.057.038s-.032.033-.043.053c-.003.006-.011.007-.016.002-.018-.019-.038-.035-.061-.047Z" fill="red" fill-rule="evenodd"/>
        <path d="M23.707,14.988c-.062-.016-.125.02-.142.082-.005.02-.005.041,0,.061l.04.151c.007.027.007.056-.002.083l-.016.06c.037-.01.071-.028.099-.054.031-.029.054-.066.066-.109l.035-.131c.016-.061-.02-.124-.082-.141Z" fill="#00adfe" fill-rule="evenodd"/>
        <path d="M26.931,13.933c-.079-.067-.135-.153-.135-.247,0-.095.077-.172.172-.172.07,0,.127.057.127.126s-.057.127-.127.127c-.033,0-.06-.027-.06-.06,0-.033.027-.06.06-.06.005,0,.01-.005.01-.01s-.004-.01-.01-.01c-.038,0-.07.027-.078.063-.021.077-.01.16.032.229.003.005.006.009.009.014Z" fill="#fed700" fill-rule="evenodd"/>
        <path d="M27.84,9.42c.001.024-.002.047-.01.07-.01-.012-.021-.022-.035-.03l-.161-.093c-.014-.008-.026-.02-.035-.034-.026-.044-.01-.101.034-.126.044-.025.101-.01.126.034l.055.096c.015.026.023.055.025.084Z" fill="#00adfe" fill-rule="evenodd"/>
        <path d="M27.727,9.443l.058.034c.014.008.027.02.035.034-.003.004-.006.008-.009.012l-.09-.024s-.002-.01-.002-.015c0-.014.002-.028.007-.04Z" fill="#fed700" fill-rule="evenodd"/>
        <path d="M27.841,9.515c.013-.03.02-.063.019-.096,0-.017-.004-.033-.009-.05.026.003.049.016.067.033.021.021.033.049.033.081,0,.071-.02.137-.055.193-.085.137-.249.193-.405.193-.105,0-.206-.014-.303-.041-.099-.028-.193-.068-.28-.12-.155-.078-.355-.2-.506-.291-.122-.07-.355-.14-.468-.02.008-.015.017-.029.027-.042.039-.051.095-.088.158-.105.005-.001.008-.007.007-.012-.001-.005-.007-.008-.012-.007-.068.018-.128.058-.169.112-.041.053-.065.12-.065.192,0,.041.033.074.074.074.041,0,.074-.033.074-.074,0-.005-.005-.01-.01-.01-.005,0-.01.005-.01.01,0,.03-.024.054-.054.054-.03,0-.054-.024-.054-.054,0-.032.013-.061.034-.082s.05-.034.082-.034c.064,0,.116.052.116.115,0,.105-.085.19-.19.19-.053,0-.1-.022-.134-.056s-.056-.082-.056-.134c0-.101.041-.193.107-.258.066-.066.158-.107.258-.107.103,0,.204.026.295.077.227.126.449.265.675.39.147.083.312.126.481.126.078,0,.151-.032.204-.089.034-.009.063-.024.089-.047.024-.022.043-.05.055-.081.003-.007-.004-.015-.012-.013-.018.005-.037.005-.055,0l-.017-.005s.006-.008.008-.013Z" fill="#fed700" fill-rule="evenodd"/>
        <path d="M27.848,9.287c-.007-.025-.003-.05.009-.07.025-.044.082-.059.126-.034.02.012.036.031.043.056l.029.106c.008.029.008.059.002.088-.005.023-.014.045-.027.065-.006-.014-.015-.027-.026-.038l-.131-.131c-.012-.011-.02-.026-.024-.042Z" fill="#00adfe" fill-rule="evenodd"/>
        <path d="M28.092,9.302c.013-.022.033-.037.056-.044.022-.006.047-.003.069.009.022.013.038.034.044.057.006.023.003.048-.009.069l-.055.096c-.015.027-.036.048-.06.064-.02.013-.042.022-.065.026.006-.014.008-.03.008-.045v-.185c0-.016.004-.032.012-.047Z" fill="#00adfe" fill-rule="evenodd"/>
        <path d="M27.506,9.418s.006-.002.007-.004c.003-.004.003-.011-.002-.014-.045-.036-.072-.09-.072-.148,0-.052.021-.099.055-.133s.081-.055.133-.055c.072,0,.137.041.169.105.002.005.008.007.014.005.005-.002.007-.008.004-.013-.018-.036-.045-.065-.079-.086.011-.033.032-.061.059-.081.028-.021.063-.034.102-.034.046,0,.089.019.12.05.031.031.05.073.05.12,0,.011-.001.023-.003.034-.001.005.002.011.008.012s.011-.002.012-.008c.002-.012.004-.025.004-.038,0-.009,0-.019-.002-.028.029-.022.065-.035.103-.035.046,0,.089.019.12.05s.05.073.05.12c0,.056-.028.108-.073.139.004-.018.004-.038,0-.056-.007-.027-.027-.053-.053-.069-.027-.015-.057-.018-.084-.011-.027.007-.052.025-.068.052-.004.006-.007.014-.01.021l-.021-.079c-.008-.03-.028-.054-.052-.068-.054-.031-.122-.012-.153.041-.014.025-.019.055-.011.084.005.02.015.037.03.052l.005.005h-.02c-.003-.007-.007-.015-.011-.022l-.055-.096c-.031-.054-.099-.072-.153-.041-.054.031-.072.099-.041.153.01.017.024.032.042.041l.085.049c-.007.016-.01.033-.01.05,0,.003,0,.006,0,.009l-.029-.008c-.019-.005-.04-.005-.059,0-.03.008-.054.027-.068.052-.014.025-.019.055-.011.085.016.06.078.096.137.079l.062-.016c-.046.037-.103.058-.163.058-.063,0-.126-.006-.188-.018-.028-.034-.043-.076-.043-.12,0-.048.018-.093.048-.126.03-.034.072-.056.12-.061Z" fill="red" fill-rule="evenodd"/>
        <path d="M27.768,12.275c-.107-.077-.198-.175-.268-.288-.098-.158-.154-.345-.154-.546,0-.206.059-.398.161-.558.059-.092.131-.173.215-.241-.028.029-.055.06-.08.093-.157.207-.249.486-.249.705,0,.231.071.446.191.624.053.077.114.148.184.209Z" fill="#fed700" fill-rule="evenodd"/>
        <path d="M26.94,13.91c-.029-.048-.042-.104-.039-.16.014.023.039.038.068.038.004,0,.007,0,.011,0,.067.099.179.158.299.158.094,0,.179-.037.25-.094.079-.064.14-.154.173-.248l.404-1.134s0-.011-.006-.012c-.205-.082-.379-.224-.501-.404-.119-.175-.188-.386-.188-.613,0-.215.09-.489.245-.693.127-.167.297-.287.496-.287.111,0,.201.09.201.201,0,.084-.068.152-.152.152s-.153-.068-.153-.152c0-.047.038-.085.085-.085s.085.038.084.085c0,.005.005.01.01.01.006,0,.01-.005.01-.01,0-.058-.047-.105-.105-.105-.017,0-.033.004-.048.012-.164.08-.303.204-.399.358-.093.149-.148.325-.148.514,0,.226.078.435.208.6.131.166.315.287.526.34l-.452,1.266c-.043.12-.12.231-.22.309-.091.071-.202.116-.322.116-.119,0-.275-.056-.339-.162Z" fill="#fed700" fill-rule="evenodd"/>
        <path d="M27.589,11.206c.052-.029.11-.044.169-.044.066,0,.13.018.185.053.003.002.008.002.011,0,.055-.035.119-.054.185-.054.091,0,.179.036.244.1l.249.249c.045.044.07.104.07.167v.355c-.05.003-.097.025-.131.062-.033.035-.078.055-.126.055-.006,0-.01.005-.01.01,0,.006.004.01.01.01.053,0,.104-.022.14-.061.033-.036.078-.056.127-.056.066,0,.126.038.154.097.034.062.098.1.168.1.04,0,.08-.013.112-.037-.017.048-.047.089-.086.12-.056.044-.116.061-.187.058-.008,0-.013.009-.009.015.031.047.047.102.047.158,0,.053-.014.103-.04.148-.033.056-.05.119-.05.183,0,.054.012.106.033.152.014.031.033.059.054.085-.062-.034-.112-.083-.147-.141-.044-.073-.065-.161-.054-.251.008-.058.005-.118-.011-.175,0-.004-.004-.007-.008-.008-.005-.001-.011.003-.012.008-.009.051-.024.099-.045.144-.021.046-.049.09-.08.129-.04.053-.061.117-.061.183,0,.058.016.114.047.162-.055-.025-.101-.064-.136-.112-.04-.056-.063-.124-.063-.198,0-.04.007-.079.019-.114.013-.037.032-.071.057-.101.033-.037.05-.085.05-.135,0-.04-.012-.079-.034-.113-.002-.003-.005-.005-.009-.005-.005,0-.01.005-.009.01.003.036-.002.071-.015.104-.012.032-.032.062-.058.086-.045.037-.081.082-.106.134-.024.051-.037.108-.037.166,0,.013,0,.026.002.039-.029-.039-.049-.083-.06-.131l.156-.438c.001-.005-.002-.011-.007-.012-.211-.05-.395-.17-.526-.335-.128-.162-.204-.366-.204-.588,0-.081.01-.16.029-.235h0ZM28.196,12.257c-.006,0-.01.004-.011.009,0,.005.004.01.009.011.038.003.077-.006.11-.025.036-.021.064-.052.08-.09.002-.005,0-.011-.005-.013-.005-.002-.011,0-.013.005-.015.034-.04.063-.072.081-.03.017-.064.025-.099.022h0ZM28.073,11.844c-.021.019-.033.046-.033.074,0,.055.045.1.1.1.005,0,.01-.005.01-.01s-.004-.01-.01-.01c-.044,0-.08-.036-.08-.08,0-.023.009-.044.026-.059.058-.051.095-.117.106-.193,0-.005-.003-.011-.008-.011-.004,0-.007.001-.009.004-.027.033-.062.06-.102.079-.038.017-.08.028-.125.028-.005,0-.01.004-.01.01,0,.005.004.01.01.01.048,0,.093-.011.133-.03.031-.015.06-.035.084-.058-.015.057-.048.107-.092.147Z" fill="red" fill-rule="evenodd"/>
        <path d="M26.652,13.838c-.005,0-.01.005-.01.01,0,.006.005.01.01.01.044,0,.08.036.08.08,0,.044-.036.08-.08.08-.08,0-.144-.065-.144-.144,0-.08.065-.145.144-.145.059,0,.11.034.149.081.045.055.072.129.073.192-.011-.037-.031-.069-.058-.096-.045-.045-.101-.067-.164-.068Z" fill="#fed700" fill-rule="evenodd"/>
        <path d="M26.752,13.937c0-.025-.01-.048-.025-.066.029.011.054.028.076.049.038.038.062.091.062.15,0,.06-.029.123-.06.171-.045.071-.111.127-.187.162-.245.114-.511.225-.75.346-.079.038-.13.117-.13.205,0,.035.008.069.024.1.017.034.052.056.093.056.029,0,.055-.012.073-.03.019-.019.031-.045.031-.073,0-.006-.004-.01-.01-.01-.006,0-.01.005-.01.01,0,.023-.009.044-.025.059-.015.015-.036.025-.059.025-.046,0-.084-.037-.084-.084,0-.06.056-.091.11-.091.076,0,.139.062.139.139,0,.088-.071.14-.155.14-.141,0-.237-.112-.237-.25,0-.133.075-.255.195-.315l.749-.345c.056-.026.102-.066.134-.116.032-.049.05-.107.05-.168v-.065Z" fill="#fed700" fill-rule="evenodd"/>
        <path d="M27.728,15.028c.061.017.098.08.082.142l-.035.13c-.022.08-.085.143-.165.164l.016-.059c.009-.027.009-.056.002-.083l-.041-.151c-.005-.02-.006-.041,0-.061.017-.062.08-.098.141-.082Z" fill="#00adfe" fill-rule="evenodd"/>
        <path d="M28.107,14.782c.064,0,.116.052.116.116v.135c0,.083-.045.16-.117.201v-.062c.001-.028-.005-.056-.02-.081l-.078-.135c-.01-.018-.016-.038-.016-.059,0-.064.052-.116.115-.116Z" fill="#00adfe" fill-rule="evenodd"/>
        <path d="M27.703,14.31c.073-.023.153-.005.207.05.037.037.06.088.061.144,0,.006.004.011.011.01.009-.001.019-.002.028-.002.074,0,.141.03.189.078s.078.115.078.189c0,.047-.012.092-.035.133v-.016c0-.075-.061-.135-.135-.135s-.135.061-.135.135c0,.024.006.048.019.069l.047.081c-.038.004-.077,0-.113-.013-.007-.002-.014.004-.013.011.002.014.003.027.003.041,0,.048-.014.092-.037.13-.02.032-.048.06-.081.079l.032-.121c.019-.072-.024-.147-.096-.166-.072-.02-.146.024-.166.096-.006.023-.006.048,0,.071l.039.146c-.049-.014-.093-.043-.124-.081-.034-.042-.055-.096-.055-.154,0-.05.015-.098.043-.139.005-.006.002-.015-.005-.016-.035-.008-.067-.025-.094-.048-.027-.023-.049-.052-.063-.085-.002-.005-.008-.007-.013-.005-.005.002-.007.008-.005.013.014.033.035.061.06.085.052.055.072.133.052.206-.016.059-.055.107-.108.135l.026-.097c.007-.023.007-.048,0-.071-.019-.072-.093-.115-.166-.096-.072.019-.115.093-.096.165l.025.094c-.068-.039-.109-.113-.107-.192v-.133c0-.073-.049-.137-.12-.157-.144-.046-.266-.145-.341-.277.036-.016.072-.032.109-.047.08-.037.148-.096.196-.169.031-.048.054-.104.065-.162.126-.004.244.036.34.118.094.079.211.122.333.122.048,0,.097-.007.143-.02h0ZM27.861,14.534s.007-.008.004-.013c-.003-.005-.009-.007-.013-.004-.021.011-.041.025-.058.041-.011-.018-.025-.033-.041-.047-.019-.017-.04-.031-.063-.041-.005-.002-.011,0-.013.005-.002.005,0,.011.005.013.021.009.041.022.058.038s.032.033.043.053c.003.006.011.007.016.002.018-.019.038-.035.061-.047h0ZM27.058,14.66s.003-.01-.002-.014c-.004-.003-.01-.002-.014.002-.016.022-.029.046-.038.073-.008.026-.013.053-.013.082,0,.006.004.01.01.01.005,0,.01-.004.01-.01,0-.026.004-.052.012-.075.008-.024.02-.047.035-.068h0ZM27.786,14.871s.011,0,.013-.004c.003-.005,0-.011-.004-.014-.036-.019-.075-.029-.116-.031-.016-.032-.038-.062-.063-.087-.026-.026-.055-.048-.087-.065-.005-.003-.011,0-.014.004-.002.005,0,.011.004.013.031.016.058.037.082.061.021.022.04.047.054.074-.047.002-.092.017-.131.044-.005.003-.006.009-.003.014.003.005.009.006.014.003.04-.027.087-.041.135-.041.04,0,.079.01.115.029Z" fill="red" fill-rule="evenodd"/>
        <path d="M27.16,14.988c.062-.016.125.02.142.082.005.02.005.041,0,.061l-.041.151c-.007.027-.007.056.002.083l.016.06c-.037-.01-.071-.028-.099-.054-.031-.029-.054-.066-.066-.109l-.035-.131c-.016-.061.02-.124.081-.141Z" fill="#00adfe" fill-rule="evenodd"/>
        <path d="M27.891,9.556c-.01.021-.025.04-.042.056-.021.019-.047.034-.077.042l-.106.028c-.049.013-.1-.016-.113-.065-.007-.025-.003-.05.009-.07.012-.02.031-.036.056-.043.016-.004.033-.004.049,0l.179.048c.015.004.031.005.046.004Z" fill="#00adfe" fill-rule="evenodd"/>
        <path d="M25.433,9.557c.116,0,.229.03.329.088-.02-.032-.031-.069-.031-.109,0-.106.043-.203.113-.273.004-.004.008-.008.013-.012-.135.052-.279.079-.424.079s-.289-.026-.424-.079c.004.004.008.008.013.012.07.07.113.166.113.273,0,.04-.011.077-.031.109.1-.058.213-.088.329-.088h0ZM25.662,9.491s.006.009.003.014c-.003.005-.009.006-.014.003-.066-.039-.141-.06-.218-.06-.077,0-.152.02-.218.06-.005.003-.011.001-.014-.003-.003-.005-.001-.011.003-.014.069-.041.148-.063.228-.063s.159.021.228.063Z" fill="#fed700" fill-rule="evenodd"/>
        <path d="M25.298,11.132c.011-.005.023-.01.035-.015l-.206-.836-.046.018.217.833Z" fill="#00adfe" fill-rule="evenodd"/>
        <path d="M25.217,11.18c.019-.015.04-.028.063-.039l-.217-.835-.047.018.201.856Z" fill="#00adfe" fill-rule="evenodd"/>
        <path d="M25.14,11.253c.007-.008.014-.016.021-.024.012-.012.025-.024.038-.035l-.202-.863-.042.016.184.907Z" fill="#00adfe" fill-rule="evenodd"/>
        <path d="M25.067,11.378c.014-.037.034-.072.058-.104l-.058-.283v.387Z" fill="#00adfe" fill-rule="evenodd"/>
        <path d="M25.13,11.3c-.027.039-.047.083-.059.13l.081-.022-.022-.108Z" fill="#fff" fill-rule="evenodd"/>
        <path d="M25.205,11.215c-.01.008-.02.018-.029.027-.011.011-.021.023-.031.036l.025.125.074-.02-.039-.168Z" fill="#fff" fill-rule="evenodd"/>
        <path d="M25.285,11.161c-.022.012-.044.025-.063.041l.041.177.073-.02-.051-.198Z" fill="#fff" fill-rule="evenodd"/>
        <path d="M25.338,11.137c-.012.004-.023.009-.035.014l.052.202.033-.009-.051-.207Z" fill="#fff" fill-rule="evenodd"/>
        <path d="M25.818,11.229l-.124-.243c-.013.001-.027.004-.04.007-.016.004-.031.01-.045.016l.115.245.094-.025Z" fill="#fff" fill-rule="evenodd"/>
        <polygon points="25.919 11.429 25.828 11.248 25.733 11.273 25.819 11.456 25.919 11.429" fill="#fff" fill-rule="evenodd"/>
        <path d="M25.917,11.203l-.113-.207c-.028-.008-.058-.012-.088-.011l.122.24.079-.021Z" fill="#fff" fill-rule="evenodd"/>
        <polygon points="26.025 11.401 25.927 11.221 25.847 11.242 25.939 11.424 26.025 11.401" fill="#fff" fill-rule="evenodd"/>
        <polygon points="25.947 11.216 26.045 11.395 26.122 11.375 26.024 11.195 25.947 11.216" fill="#fff" fill-rule="evenodd"/>
        <path d="M27.668,12.22c-.072-.065-.135-.14-.186-.223-.099-.16-.157-.351-.157-.556,0-.073.007-.145.021-.214-.029-.031-.067-.054-.108-.067-.041-.012-.087-.014-.132-.002-.014.004-.028.009-.041.015-.005.003-.011,0-.014-.005-.024-.053-.067-.093-.117-.117-.05-.023-.108-.029-.165-.014-.017.005-.034.011-.05.019-.004.003-.01,0-.013-.003-.027-.045-.069-.08-.117-.099-.047-.019-.1-.023-.152-.009-.013.003-.026.008-.038.014-.003.002-.008.001-.011-.002-.069-.061-.164-.084-.254-.06-.088.024-.158.089-.188.174-.002.007-.012.009-.017.003-.027-.031-.061-.054-.097-.069l.104.192.388-.104.143-.083s.011,0,.014.004v.002s.262.767.262.767c0,.001,0,.002,0,.004v.16c.062.003.12.025.168.062.049.038.086.092.104.156.018.072.038.144.057.215.138-.105.31-.166.497-.166.033,0,.065.002.098.006h0ZM26.043,11.102c-.002.005-.008.008-.013.006-.005-.002-.008-.008-.006-.013.011-.029.029-.055.051-.076.022-.02.049-.035.08-.044.005-.001.01.002.012.007.001.005-.002.011-.007.012-.028.007-.052.021-.072.039-.021.019-.036.042-.046.068h0ZM26.842,11.825c0,.005-.005.01-.01.009-.005,0-.01-.005-.01-.01.003-.063.025-.123.064-.172.005-.006.009-.011.014-.016v-.035c0-.015-.004-.03-.012-.043-.007-.011-.016-.02-.028-.024-.005-.002-.008-.007-.006-.013.002-.005.008-.008.013-.006.017.006.03.018.039.033.01.016.015.035.015.054v.015c.033-.029.073-.052.119-.064.023-.006.047-.009.071-.01v-.157c0-.02-.005-.041-.016-.059-.009-.015-.022-.027-.039-.033-.005-.002-.008-.008-.006-.013.002-.005.007-.008.013-.006.021.008.038.023.049.042.013.02.019.046.019.069v.157c.033.001.065.008.095.021.005.002.007.008.005.013-.002.005-.008.008-.013.005-.055-.022-.116-.026-.173-.011-.058.016-.107.049-.142.093-.036.045-.057.101-.059.16Z" fill="#fff" fill-rule="evenodd"/>
        <path d="M23.077,12.611c-.019-.004-.038-.007-.058-.007-.062,0-.121.022-.168.063l.332.93c.032.09.091.177.167.239.067.054.149.09.238.09.11,0,.212-.052.277-.141-.029-.007-.055-.022-.075-.044-.045.034-.1.052-.157.052-.073,0-.139-.03-.187-.078s-.077-.114-.077-.187c0-.048.013-.094.037-.135l.095-.165s.005-.006.009-.006c.006,0,.01.005.01.01v.227c0,.048.019.092.051.123.031.031.075.051.123.051.005,0,.01.004.01.01,0,.006-.005.01-.01.01-.054,0-.102-.022-.137-.057s-.057-.084-.057-.137v-.19l-.077.134c-.023.038-.034.081-.034.125,0,.068.027.129.072.173.044.044.105.072.173.072.052,0,.102-.016.144-.047-.016-.024-.026-.052-.026-.083,0-.082.065-.145.147-.147.106,0,.192.086.192.192,0,.028-.004.055-.013.081.038-.036.085-.06.137-.06.091,0,.164.074.164.165s-.074.164-.164.164c-.032,0-.061-.015-.08-.04v.005c0,.057.017.112.046.158.03.046.073.084.125.108l.749.345c.126.063.206.191.206.332,0,.024-.003.048-.008.071.057-.024.118-.035.18-.035.062,0,.123.012.181.035-.006-.023-.009-.047-.009-.071,0-.141.08-.27.206-.332l.749-.345c.052-.024.096-.062.125-.108.03-.046.046-.1.046-.158v-.005c-.019.025-.048.04-.08.04-.091,0-.164-.074-.164-.164s.074-.165.164-.165c.052,0,.099.024.137.06-.008-.026-.013-.053-.013-.081,0-.106.086-.192.192-.192.081.001.147.065.147.147,0,.068-.047.128-.113.143.065.089.167.141.277.141.089,0,.17-.035.237-.09.076-.062.135-.149.167-.239l.401-1.125c-.063-.026-.123-.057-.179-.093-.076-.036-.146-.082-.211-.136-.041-.007-.083-.01-.125-.01-.19,0-.365.066-.503.176-.14.112-.242.27-.283.45.008.027.013.055.013.085,0,.036-.007.071-.02.104.047.058.075.133.075.213,0,.137-.11.248-.247.248-.086,0-.166-.045-.211-.119-.108.028-.205.087-.279.169-.004.004-.01.004-.014,0-.004-.004-.004-.01,0-.014.078-.087.182-.149.296-.177.004-.001.009,0,.011.005.041.071.116.115.198.115.126,0,.228-.102.228-.228,0-.089-.036-.169-.094-.227-.058-.058-.138-.094-.227-.094-.005,0-.01-.005-.01-.01,0-.005.004-.01.01-.01.094,0,.179.038.241.1.004.003.007.007.01.01.01-.028.015-.057.015-.087,0-.141-.115-.256-.256-.256-.148,0-.286.043-.403.116-.121.076-.218.185-.28.314-.079.167-.246.274-.431.274-.161,0-.309-.081-.398-.214-.042.036-.093.059-.149.059-.014,0-.028-.002-.041-.005-.002.017-.004.033-.004.05,0,.052.012.103.034.149.003.005,0,.011-.004.013-.005.002-.011,0-.013-.005-.024-.049-.037-.103-.037-.158,0-.019.002-.038.005-.056-.025-.008-.047-.022-.066-.039-.088.044-.154.124-.179.219-.023.085-.013.179.035.262.031.054.076.098.13.128l.212.122s.006.009.003.014c-.002.005-.009.007-.014.004l-.211-.122c-.057-.032-.105-.079-.138-.136-.05-.087-.061-.186-.036-.277.027-.1.093-.181.184-.229-.029-.033-.046-.076-.046-.124,0-.042.013-.082.039-.114-.088.021-.16.085-.191.17-.002.005-.008.008-.013.006-.005-.002-.008-.008-.006-.013.037-.101.128-.174.234-.188.003,0,.007,0,.009.003.004.004.004.01,0,.014-.033.032-.052.076-.052.122,0,.092.075.167.168.167.138,0,.244-.153.244-.281,0-.092-.041-.168-.104-.222-.07-.061-.167-.096-.262-.096-.104,0-.198.042-.278.107-.093.076-.166.184-.211.294-.003.007-.013.008-.017.002-.022-.032-.05-.06-.082-.083-.005-.003-.007-.01-.003-.015.038-.046.058-.103.058-.162,0-.07-.028-.134-.074-.18s-.109-.074-.18-.074c-.086,0-.166.043-.213.116-.005.008-.018.005-.018-.005-.001-.172-.141-.31-.313-.31s-.313.14-.313.312c0,.127.077.241.194.289.007.003.008.012.003.017-.073.06-.115.148-.115.243,0,.086.035.167.098.227.004.004.004.01,0,.014-.004.004-.01.004-.014,0-.066-.063-.104-.15-.104-.241,0-.095.04-.184.11-.248-.117-.055-.192-.172-.192-.301v-.009h0ZM27.35,12.559c-.005-.001-.009-.006-.008-.012,0-.005.006-.009.012-.008.091.018.171.066.227.135.008.01.016.02.023.031.013-.026.028-.05.045-.073-.028-.026-.054-.053-.078-.083-.003-.004-.003-.011.001-.014.004-.003.011-.003.014.001.023.028.048.055.074.079.014-.017.028-.034.043-.049l.003-.003c-.034-.033-.067-.069-.095-.107-.003-.005-.002-.011.002-.014.004-.003.01-.002.014.002.028.038.059.073.093.105.017-.016.035-.031.054-.046-.046-.042-.086-.09-.119-.143-.003-.005-.001-.011.003-.014.005-.003.011-.002.014.003.033.053.073.1.119.142.02-.014.041-.027.063-.038.005-.003.011,0,.014.004.002.005,0,.011-.004.013-.054.029-.103.066-.145.109-.041.042-.075.091-.101.144.034.058.054.126.054.198,0,.108-.044.206-.114.276-.071.071-.168.114-.276.114-.006,0-.01-.005-.01-.01,0-.006.004-.01.01-.01.102,0,.195-.042.262-.109.067-.067.109-.16.109-.262,0-.09-.032-.172-.085-.236-.054-.065-.13-.112-.216-.128h0ZM26.405,13.854s.006.009.004.014c-.003.005-.008.007-.013.004-.07-.037-.146-.056-.225-.056-.088,0-.174.024-.249.07-.005.003-.011.001-.014-.003-.002-.004-.002-.009.002-.012.061-.054.128-.101.199-.14.071-.038.146-.069.225-.09.005-.001.01.002.012.007.001.005-.002.011-.007.012-.078.021-.152.051-.221.088-.045.024-.088.052-.128.082.058-.022.119-.034.181-.034.082,0,.162.02.235.058h0ZM25.836,14.519s-.01.003-.014-.001c-.003-.004-.003-.011.001-.014.076-.062.154-.122.234-.18.079-.057.16-.113.243-.166.004-.003.011-.002.014.003.003.005.002.011-.003.014-.082.053-.163.108-.242.165-.08.058-.158.117-.233.179h0ZM25.254,14.425s-.011.001-.014-.003c-.003-.005-.001-.011.003-.014.069-.041.138-.08.209-.118.071-.038.142-.074.214-.108.005-.003.011,0,.013.005.002.005,0,.011-.005.013-.072.034-.143.07-.213.108-.07.038-.139.077-.208.117h0ZM25.344,14.519s-.01.002-.014-.003c-.003-.005-.002-.01.002-.014.092-.064.187-.124.284-.182.096-.058.195-.112.295-.163.005-.002.011,0,.013.004.002.005,0,.011-.004.014-.1.051-.198.105-.294.162-.097.057-.191.118-.283.182h0ZM25.595,14.519s-.011.002-.014-.002c-.003-.005-.002-.011.002-.014.087-.063.176-.124.268-.181.091-.057.184-.112.279-.164.005-.003.011,0,.013.004.003.005,0,.011-.004.014-.094.052-.187.106-.277.164-.09.058-.179.118-.266.181h0ZM25.428,14.576s.011-.001.013.004c.003.005.001.011-.004.014l-.079.046c-.049.028-.074.085-.059.14.008.03.028.058.058.075.004.003.006.008.004.013-.003.005-.009.007-.014.004-.034-.02-.058-.052-.067-.087-.017-.064.012-.131.069-.163l.079-.046h0ZM24.859,14.194c.005.002.008.007.006.012-.002.005-.007.008-.012.006-.072-.025-.142-.055-.208-.091-.067-.037-.131-.079-.191-.125-.004-.003-.005-.01-.002-.014.003-.004.01-.005.014-.002.059.046.122.087.188.123.065.035.134.066.205.09h0ZM24.725,14.353c.005.002.008.008.006.013s-.008.008-.013.006c-.082-.033-.16-.072-.234-.117-.075-.045-.146-.097-.211-.154-.004-.004-.005-.01-.001-.014.004-.004.01-.005.014-.001.065.057.135.108.209.153.073.045.15.083.231.115h0ZM24.726,14.247s.007.008.005.013c-.002.005-.008.007-.013.005-.064-.028-.126-.06-.185-.096-.059-.036-.116-.077-.17-.121-.004-.003-.005-.01-.001-.014.003-.004.01-.005.014-.001.053.044.109.084.167.12.058.036.119.067.183.095h0ZM24.765,13.499s0,.011-.005.013c-.005.002-.011,0-.013-.005-.024-.049-.036-.104-.036-.158,0-.022.002-.043.006-.065,0-.005.006-.009.012-.008.005,0,.009.006.008.012-.004.02-.005.04-.005.061,0,.052.012.103.034.15h0ZM24.679,13.565c.002.005,0,.011-.005.013-.005.003-.011,0-.013-.005-.024-.049-.036-.103-.036-.158,0-.022.002-.044.006-.065.001-.005.006-.009.012-.008.005.001.009.006.008.012-.004.02-.005.041-.005.061,0,.052.012.103.034.149h0ZM23.403,13.145s0,.011-.005.013c-.005.002-.011,0-.013-.005-.017-.036-.027-.076-.027-.116,0-.055.018-.109.05-.154.003-.005.009-.005.014-.002.004.003.005.01.002.014-.03.042-.046.091-.046.143,0,.037.008.074.025.107h0ZM23.843,13.118s.005.01.001.014c-.004.004-.01.005-.014.001-.049-.041-.09-.092-.117-.151-.034-.072-.043-.137-.04-.215,0-.006.005-.01.01-.009.005,0,.01.005.009.011-.004.073.007.14.039.206.026.056.065.105.112.144h0ZM23.757,13.157s.004.01,0,.014c-.004.004-.01.004-.014,0-.044-.043-.081-.094-.108-.151-.026-.055-.043-.115-.048-.179,0-.006.004-.011.009-.011.005,0,.01.004.011.009.005.061.021.119.046.172.025.054.061.104.104.145h0ZM23.644,13.158s.003.011-.002.014c-.004.003-.01.003-.014-.002-.029-.037-.054-.078-.074-.122-.019-.043-.034-.088-.043-.135-.001-.005.002-.011.008-.012.005,0,.011.002.012.008.009.046.023.089.042.131.019.042.043.082.071.118Z" fill="#fff" fill-rule="evenodd"/>
        <path d="M23.207,10.67c.065.06.122.128.17.203.104.163.165.359.165.568,0,.205-.058.396-.157.556-.103.166-.25.299-.424.383-.056.036-.116.067-.179.093l.063.175c.049-.041.111-.063.175-.063.02,0,.039.002.059.006.015-.17.158-.303.331-.303.171,0,.315.131.331.302.052-.065.13-.102.213-.102.076,0,.144.031.194.08.018.018.033.038.046.06l-.027-.236c-.009-.077-.068-.14-.145-.155-.036-.008-.069-.025-.095-.051-.041-.039-.063-.094-.062-.15.002-.058-.024-.113-.07-.149-.031-.023-.069-.037-.109-.037h-.125c-.005,0-.01-.005-.01-.01,0-.006.004-.01.01-.01h.125c.044,0,.087.015.121.042.051.039.08.101.077.165-.001.051.019.1.055.135.024.023.053.039.085.046.054.01.102.043.131.089l-.034-.294c-.004-.033-.013-.064-.028-.093-.014-.028-.033-.052-.056-.072-.004-.004-.005-.01-.001-.014.003-.004.01-.005.014-.001.024.02.044.046.059.075l-.136-1.181c-.013,0-.027.001-.04.001-.004,0-.008-.003-.009-.007l-.012-.044s0-.008.003-.01c.018-.018.037-.035.058-.051l-.181-.46c-.008-.02-.022-.036-.04-.045-.018-.009-.04-.012-.061-.006-.014.004-.026.01-.037.02l-.209.18.264.584c.025.054.033.12.019.179-.001.005-.007.008-.012.007-.005-.001-.009-.007-.007-.012.013-.054.005-.115-.018-.166l-.302-.667c-.013-.03-.046-.046-.078-.038-.011.003-.02.008-.029.016l-.08.069.005.392Z" fill="#c93" fill-rule="evenodd"/>
        <path d="M25.385,10.182l.433.797c.043.014.083.038.116.071.035-.085.107-.148.196-.172.094-.025.193-.002.267.061.011-.005.023-.009.035-.012.057-.015.114-.01.165.01.049.02.092.054.122.1.015-.007.031-.013.046-.017.062-.017.124-.01.178.016.052.024.095.065.122.118.012-.005.024-.009.036-.012.048-.013.097-.011.142.002.04.012.077.034.107.063.027-.12.074-.232.138-.331.107-.168.26-.301.44-.381.069-.032.144-.05.223-.05.086,0,.165.051.201.129v-.098c0-.084-.034-.16-.089-.215-.055-.055-.131-.09-.215-.09-.005,0-.01-.004-.01-.01v-.185s.002-.007.005-.008c.044-.028.08-.066.106-.111.024-.044.038-.094.039-.148v-.067c0-.031-.005-.061-.016-.091-.008.007-.017.014-.026.02-.028.018-.059.029-.092.032-.008,0-.014-.008-.009-.015.009-.016.014-.034.014-.053v-.051c-.007.015-.016.029-.027.042-.005.007-.016.005-.018-.003-.004-.018-.014-.034-.027-.047l-.021-.022c.002.01.004.021.004.032,0,.075-.021.145-.058.204-.089.144-.26.202-.422.202-.107,0-.21-.015-.308-.041-.101-.028-.197-.069-.285-.122l-.506-.291c-.118-.067-.354-.141-.455-.01.022-.016.049-.025.078-.025.075,0,.135.061.135.136,0,.116-.094.21-.21.21-.049,0-.093-.016-.129-.044-.11-.081-.242-.125-.38-.125s-.269.043-.379.125c-.036.028-.08.044-.129.044-.116,0-.21-.094-.21-.21,0-.075.061-.136.136-.136.029,0,.056.009.078.025-.1-.131-.337-.057-.454.01l-.506.291c-.088.053-.184.094-.285.122-.098.027-.201.041-.308.041-.162,0-.333-.059-.422-.202-.037-.059-.058-.129-.058-.204,0-.011.001-.021.004-.032l-.021.022c-.013.013-.023.029-.027.047-.002.008-.013.01-.018.003-.01-.013-.019-.027-.027-.042v.051c0,.019.005.037.014.053.004.007-.001.015-.009.015-.033-.003-.064-.014-.092-.032-.009-.006-.018-.012-.026-.02-.01.029-.016.06-.016.091v.067c0,.054.014.104.038.148.025.045.062.083.106.111.003.002.005.005.005.008v.185c0,.006-.005.01-.01.01-.084,0-.16.034-.215.09-.055.055-.089.131-.089.215v.098c.036-.078.114-.129.201-.129.079,0,.154.018.223.05.091.041.175.095.25.16l-.005-.378s.001-.006.004-.008l.083-.071c.01-.01.023-.017.037-.021.041-.011.084.01.101.049l.029.064.204-.176c.013-.012.028-.021.045-.026.026-.007.052-.003.075.008.015.008.029.02.039.035l.103-.089c.014-.013.031-.022.05-.027.064-.017.129.021.147.084l.026.091.086-.086c.02-.02.045-.035.073-.043.055-.015.114.001.154.042l.183.183c.051.048.077.117.071.186-.001.022,0,.044.007.066.011.041.034.076.063.102.03.027.069.044.109.05.044.007.086.027.119.056.012.011.023.023.033.037l-.087-.426-.017.007c-.018.007-.037-.002-.044-.02-.007-.017.002-.037.019-.044l.215-.083-.091-.368c-.001-.005.002-.011.007-.012l.029-.008c.005-.001.011.002.012.007l.104.358.205-.078c.018-.007.037.002.044.02.007.017-.002.037-.019.044l-.017.006Z" fill="#00adfe" fill-rule="evenodd"/>
        <path d="M25.322,10.206l.384.758c.029-.002.058,0,.085.007l-.425-.782-.044.017Z" fill="#00adfe" fill-rule="evenodd"/>
        <path d="M25.247,10.235l.355.757c.015-.007.032-.013.048-.018.012-.003.024-.006.036-.007l-.382-.753-.057.022Z" fill="#00adfe" fill-rule="evenodd"/>
        <path d="M25.434,11.094c.016-.002.033-.003.05-.003.026-.038.06-.069.1-.091l-.356-.758-.036.014.243.837Z" fill="#00adfe" fill-rule="evenodd"/>
        <path d="M25.705,11.26l-.113-.241c-.038.021-.07.051-.095.088-.002.002-.005.005-.008.005-.016,0-.033,0-.049.002l.058.202.207-.055Z" fill="#fff" fill-rule="evenodd"/>
        <polygon points="25.8 11.461 25.714 11.278 25.613 11.305 25.689 11.491 25.8 11.461" fill="#fff" fill-rule="evenodd"/>
        <path d="M22.976,9.556c.01.021.025.04.042.056.021.019.047.034.077.042l.107.028c.049.013.1-.016.113-.065.006-.025.003-.05-.009-.07-.012-.02-.031-.036-.056-.043-.016-.004-.033-.004-.048,0l-.179.048c-.015.004-.031.005-.046.004Z" fill="#00adfe" fill-rule="evenodd"/>
        <path d="M23.441,9.303l.355-.095c.073-.02.15-.008.215.031.003.002.006.002.01,0,.005-.002.007-.008.004-.013-.015-.031-.023-.065-.023-.1,0-.033.007-.066.021-.096.039.024.084.036.13.036.09,0,.172-.048.217-.126h0c.002-.005,0-.011-.004-.014-.065-.036-.106-.104-.106-.179,0-.02.003-.04.009-.06.023.03.058.047.095.047.066,0,.12-.054.12-.12,0-.056-.04-.105-.095-.117-.051-.01-.096-.038-.128-.077-.031-.038-.05-.087-.05-.14,0-.058.022-.11.058-.149.031-.034.072-.058.119-.067-.009.014-.013.03-.013.047,0,.051.042.092.093.092.058,0,.099-.057.119-.106.024-.058.025-.126,0-.184-.003-.007-.011-.008-.016-.003-.043.042-.1.066-.16.066-.126,0-.229-.102-.229-.229,0-.047.014-.092.041-.13.011.06.063.103.124.103.069,0,.126-.057.126-.126,0-.035-.015-.069-.04-.092-.054-.052-.084-.124-.084-.199,0-.011,0-.022.002-.033.043.035.096.054.151.054.084,0,.162-.043.205-.115.003-.005.002-.011-.003-.014-.099-.064-.158-.173-.158-.291,0-.032.004-.064.013-.094h.292c.008,0,.013-.009.008-.016-.048-.072-.073-.154-.073-.24,0-.032.004-.063.01-.094.054.074.139.118.231.118.018,0,.036-.002.054-.005.006-.002.01-.007.007-.014-.021-.047-.031-.098-.031-.15,0-.034.004-.067.013-.1.028.031.061.058.097.078.041.023.086.039.134.047.005,0,.009-.002.011-.006.017-.048.044-.09.079-.126.032-.032.071-.058.113-.076.007.035.018.068.033.099.018.035.041.067.068.095.003.002.007.004.011.003.028-.008.055-.02.081-.035.037-.021.069-.047.097-.078.009.033.013.066.013.1,0,.052-.01.103-.031.15-.002.007.001.012.007.014.018.003.036.005.053.005.091,0,.177-.044.231-.118.007.031.01.062.01.094,0,.086-.025.169-.073.24-.005.006,0,.016.008.016h.292c.008.03.013.062.013.094,0,.117-.059.226-.158.291-.004.003-.006.009-.003.014.044.072.121.115.205.115.055,0,.108-.019.151-.054,0,.011.002.022.002.033,0,.075-.03.146-.084.199-.026.024-.04.057-.04.092,0,.07.056.126.126.126.061,0,.113-.044.124-.103.027.038.041.083.041.13,0,.126-.102.229-.228.229-.06,0-.118-.024-.16-.066-.005-.005-.014-.003-.016.003-.024.059-.023.126,0,.184.02.048.061.106.119.106.051,0,.092-.041.092-.092,0-.017-.004-.033-.013-.047.047.009.088.034.119.067.036.039.057.091.057.149,0,.053-.019.102-.05.14-.032.039-.077.067-.128.077-.055.012-.095.061-.095.117,0,.066.054.12.12.12.037,0,.072-.017.095-.047.006.02.009.04.009.06,0,.074-.041.143-.106.179-.005.003-.007.009-.004.014h0c.044.078.127.126.217.126.046,0,.091-.012.13-.036.014.03.021.063.021.096,0,.035-.008.069-.023.1-.002.005,0,.011.004.013.003.002.007.001.01,0,.065-.039.142-.051.215-.031l.355.095c.009.037.029.07.056.098-.044.009-.082.032-.111.064-.033.037-.054.086-.054.139,0,.041.012.08.034.113-.089-.02-.174-.054-.254-.099-.223-.133-.453-.257-.675-.39-.093-.052-.198-.079-.304-.079-.065,0-.125.016-.179.044-.158.076-.33.115-.505.115s-.347-.039-.505-.115c-.054-.028-.114-.044-.179-.044-.107,0-.211.027-.304.079-.222.133-.453.257-.676.39-.08.045-.165.078-.254.099.022-.033.033-.073.033-.113,0-.054-.02-.102-.053-.139-.029-.032-.068-.055-.112-.064.028-.027.047-.061.057-.098h0ZM24.949,8.746c-.034.025-.064.056-.088.09-.022.031-.039.065-.051.101-.023-.014-.045-.029-.064-.047-.023-.021-.043-.044-.06-.069-.003-.005-.009-.006-.014-.003-.005.003-.006.009-.003.014.018.027.039.052.063.073.023.021.05.04.078.055.006.003.013,0,.015-.006.012-.039.029-.075.052-.108.023-.033.051-.062.084-.086.004-.003.005-.01.002-.014-.003-.005-.01-.005-.014-.002h0ZM25.097,8.184c-.005.025-.007.05-.007.075,0,.027.003.053.008.079-.038-.013-.071-.035-.097-.065-.028-.033-.047-.076-.05-.122,0-.007-.008-.011-.014-.008-.045.017-.083.047-.11.086-.026.038-.042.084-.042.133,0,.011.001.022.003.033-.033-.006-.064-.02-.09-.04-.03-.023-.054-.054-.068-.089-.002-.005-.008-.007-.013-.005s-.007.008-.005.013c.016.039.042.072.074.097.032.025.071.041.113.047.006,0,.012-.005.011-.012-.003-.014-.004-.029-.004-.043,0-.045.014-.088.038-.122.022-.032.053-.058.089-.074.006.045.025.087.054.12.031.037.074.064.123.076.007.002.014-.005.012-.012-.007-.03-.011-.06-.011-.091,0-.024.002-.047.006-.071.001-.005-.002-.011-.008-.011-.005-.001-.01.002-.012.008h0ZM25.538,8.255c-.005.037-.002.075.007.11.008.031.021.061.039.088-.015.004-.031.006-.047.006-.086,0-.161-.058-.184-.141-.012-.038-.031-.074-.054-.106-.024-.032-.053-.06-.086-.083-.004-.003-.011-.002-.014.002-.003.005-.002.011.003.014.031.022.058.048.081.079.022.03.04.064.051.1.025.091.108.154.203.154.022,0,.045-.004.066-.011.006-.002.009-.01.005-.015-.021-.028-.035-.06-.044-.092-.009-.033-.011-.068-.007-.103.006-.042.004-.083-.008-.124-.002-.005-.007-.008-.013-.007-.005.002-.008.007-.007.012.011.039.013.076.008.116h0ZM26.11,8.368c-.018.04-.028.083-.028.128,0,.041.013.08.038.107.023.025.055.041.097.041.027,0,.053-.008.075-.023.001.009.002.018.002.028,0,.101-.087.18-.188.171-.095-.008-.164-.093-.155-.188.005-.055.003-.109-.004-.164-.005-.034-.012-.067-.022-.099-.001-.005-.007-.008-.012-.006-.005.002-.008.007-.006.012.01.031.017.063.021.096.008.053.009.107.005.16-.009.106.067.2.173.209.112.01.209-.077.209-.191,0-.016-.002-.032-.006-.047-.002-.007-.01-.01-.016-.005-.021.018-.047.028-.075.028-.036,0-.064-.013-.083-.034-.022-.024-.033-.058-.033-.094,0-.041.008-.082.026-.119.002-.005,0-.011-.005-.013-.005-.002-.011,0-.013.005h0ZM25.613,8.843c-.016-.025-.028-.051-.036-.08-.008-.027-.012-.057-.012-.087,0-.005-.004-.01-.01-.01-.006,0-.01.005-.01.01,0,.032.005.063.013.092.009.031.022.059.038.085.015.025.023.054.023.083,0,.035-.011.068-.032.096-.001.002-.002.005-.002.008,0,.005.006.009.011.008.078-.015.146-.056.194-.114.048-.057.077-.131.077-.211,0-.006-.005-.01-.01-.01-.006,0-.01.004-.01.01,0,.076-.027.145-.072.199-.04.049-.096.085-.159.102.014-.027.022-.056.022-.087,0-.033-.009-.066-.026-.094h0ZM25.254,7.891c.036.059.1.094.169.094s.132-.035.169-.094c.003-.005.002-.011-.003-.014-.004-.003-.011-.002-.014.003-.033.053-.09.085-.152.085s-.119-.032-.152-.084c-.003-.005-.009-.006-.014-.003-.005.003-.006.009-.003.013h0ZM25.885,7.329l.067-.067s.004-.01,0-.014c-.004-.004-.01-.004-.014,0l-.067.067s-.004.01,0,.014c.004.004.01.004.014,0h0ZM24.914,7.473l-.091.024c-.005.001-.008.007-.007.012.001.005.007.008.012.007l.091-.024c.005-.001.009-.007.007-.012-.001-.005-.007-.008-.012-.007h0ZM24.996,7.315l-.067-.067s-.01-.004-.014,0c-.004.004-.004.01,0,.014l.067.067s.01.004.014,0c.004-.004.004-.01,0-.014h0ZM25.509,7.67c.032.022.071.035.113.035.055,0,.105-.022.141-.058.036-.036.058-.085.058-.14,0-.005-.005-.01-.01-.01-.005,0-.01.005-.01.01,0,.049-.02.094-.052.126s-.077.052-.126.052-.094-.02-.126-.052c-.03-.03-.05-.072-.052-.118.014-.003.025-.011.032-.023l.045-.078c.004-.008.006-.016.006-.024,0-.027-.022-.049-.049-.049h-.09c-.027,0-.049.022-.049.049,0,.008.002.017.007.024l.045.078c.007.012.018.02.032.023-.002.046-.022.087-.052.118-.032.032-.077.052-.126.052s-.094-.02-.126-.052c-.032-.032-.052-.077-.052-.126,0-.005-.005-.01-.01-.01-.006,0-.01.005-.01.01,0,.055.022.105.058.14.036.036.085.058.14.058.042,0,.08-.013.113-.035.016.027.045.043.076.043.031,0,.06-.016.076-.043h0ZM25.947,7.492l.091.024c.005.001.011-.002.012-.007.001-.005-.002-.011-.007-.012l-.091-.024c-.005-.001-.011.002-.012.007-.001.005.002.011.007.012h0ZM24.719,7.066c.024-.031.054-.057.087-.077.006-.004.006-.01.002-.016l-.111-.111s-.01-.004-.014,0c-.004.004-.004.01,0,.014l.103.102c-.031.02-.059.046-.082.075-.003.004-.002.011.002.014.005.003.011.002.014-.002h0ZM25.303,6.811c.038.028.084.044.131.044.047,0,.093-.015.131-.044.033-.022.071-.034.111-.034.005,0,.01-.005.01-.01,0-.005-.005-.01-.01-.01-.044,0-.086.013-.123.038-.035.026-.076.04-.119.04s-.084-.014-.119-.04c-.037-.024-.078-.038-.122-.038-.005,0-.01.005-.01.01,0,.006.004.01.01.01.04,0,.078.012.11.034h0ZM25.553,6.678c-.035.026-.076.04-.119.04s-.084-.014-.119-.04c-.005-.003-.011-.002-.014.002-.003.005-.003.011.002.014.038.029.084.044.131.044.047,0,.093-.015.131-.044.004-.003.005-.009.002-.014-.003-.004-.01-.005-.014-.002h0ZM26.148,7.066s.01.005.014.002c.004-.003.005-.01.002-.014-.023-.029-.051-.055-.082-.075l.102-.102s.004-.01,0-.014c-.004-.004-.01-.004-.014,0l-.111.111c-.004.005-.004.012.002.016.034.02.064.046.088.077h0ZM25.872,6.915c-.029-.011-.06-.017-.091-.017-.05,0-.099.014-.141.042-.039.026-.083.039-.13.039-.009,0-.013.012-.006.018.044.041.101.063.161.063.046,0,.088-.013.125-.035.037-.023.068-.056.088-.096.003-.006,0-.012-.006-.014h0ZM24.995,6.915c-.006.002-.009.008-.006.014.02.039.051.073.088.096.036.022.079.035.124.035.06,0,.117-.022.161-.063.007-.006.003-.018-.006-.018-.046,0-.091-.013-.13-.039-.042-.027-.09-.042-.141-.042-.031,0-.062.006-.091.017Z" fill="red" fill-rule="evenodd"/>
        <path d="M25.695,6.938c-.027,0-.049.022-.049.049,0,.027.022.049.049.049s.049-.022.049-.049c0-.027-.022-.049-.049-.049Z" fill-rule="evenodd"/>
        <path d="M25.756,7.019c.005-.009.008-.02.008-.032,0-.028-.017-.052-.041-.063.019-.005.038-.007.057-.007.025,0,.05.004.074.012-.018.032-.044.058-.075.078-.007.005-.015.008-.023.012Z" fill="#fff" fill-rule="evenodd"/>
        <path d="M25.628,6.97c-.001.006-.002.012-.002.017,0,.02.009.039.023.051-.041-.003-.079-.017-.113-.041.032-.003.063-.012.092-.027Z" fill="#fff" fill-rule="evenodd"/>
        <path d="M25.373,7.658c.012.022.035.035.06.035s.048-.013.06-.035c-.004-.003-.008-.007-.012-.011-.021-.022-.038-.048-.048-.078-.01.03-.026.056-.048.078-.004.004-.008.008-.012.011Z" fill-rule="evenodd"/>
        <path d="M25.388,7.36c-.016,0-.029.013-.029.029,0,.005.001.01.004.015l.045.078c.006.01.016.015.025.015.01,0,.02-.005.026-.015l.045-.078s.004-.009.004-.015c0-.016-.013-.029-.029-.029h-.09Z" fill-rule="evenodd"/>
        <path d="M25.822,13.111c.064-.132.164-.244.288-.322.084-.053.179-.09.28-.107v-.105c-.165.084-.336.16-.511.228-.178.069-.362.129-.55.179-.073.02-.147.038-.222.054-.017.047-.045.092-.081.127.085.13.228.208.383.208.177,0,.338-.102.413-.262Z" fill="#630" fill-rule="evenodd"/>
        <path d="M27.245,15.045s-.01-.004-.014,0c-.004.004-.004.01,0,.014.015.015.02.036.014.056l-.04.151c-.001.005.002.011.007.012.005.001.011-.002.012-.007l.04-.151c.007-.027,0-.055-.019-.075Z" fill="#fff" fill-rule="evenodd"/>
        <path d="M27.769,15.108c-.002-.005-.008-.007-.013-.005-.005.002-.007.008-.005.013.005.012.006.025.003.038l-.035.13c-.008.03-.024.057-.046.079-.004.004-.004.01,0,.014.004.004.01.004.014,0,.024-.024.042-.054.051-.088l.035-.13c.004-.017.003-.035-.004-.051Z" fill="#fff" fill-rule="evenodd"/>
        <path d="M28.162,14.842s-.01-.004-.014,0c-.004.004-.004.01,0,.014.011.011.017.025.017.041v.135c0,.031-.008.061-.024.088-.003.005-.001.011.003.014.005.003.011.001.014-.004.018-.03.027-.064.027-.098v-.135c0-.021-.008-.041-.023-.055Z" fill="#fff" fill-rule="evenodd"/>
        <path d="M22.705,14.842s.01-.004.014,0c.004.004.004.01,0,.014-.011.011-.017.025-.017.041v.135c0,.031.008.061.024.088.003.005.001.011-.003.014-.004.003-.011.001-.014-.004-.017-.03-.027-.064-.027-.098v-.135c0-.021.008-.041.023-.055Z" fill="#fff" fill-rule="evenodd"/>
        <path d="M23.098,15.108c.002-.005.008-.007.013-.005.005.002.007.008.005.013-.005.012-.006.025-.003.038l.035.13c.008.03.024.057.046.079.004.004.004.01,0,.014-.004.004-.01.004-.014,0-.025-.024-.042-.054-.051-.088l-.035-.13c-.004-.017-.003-.035.004-.051Z" fill="#fff" fill-rule="evenodd"/>
        <path d="M23.622,15.045s.01-.004.014,0c.004.004.004.01,0,.014-.015.015-.02.036-.015.056l.041.151c.001.005-.002.011-.007.012-.005.001-.011-.002-.012-.007l-.04-.151c-.007-.027,0-.055.019-.075Z" fill="#fff" fill-rule="evenodd"/>
        <path d="M25.172,6.938c.027,0,.049.022.049.049,0,.027-.022.049-.049.049-.027,0-.049-.022-.049-.049,0-.027.022-.049.049-.049Z" fill-rule="evenodd"/>
        <path d="M25.111,7.019c-.005-.009-.008-.02-.008-.032,0-.028.017-.052.041-.063-.018-.005-.038-.007-.057-.007-.025,0-.05.004-.074.012.018.032.044.058.075.078.007.005.015.008.023.012Z" fill="#fff" fill-rule="evenodd"/>
        <path d="M25.239,6.97c.001.006.002.012.002.017,0,.02-.009.039-.023.051.04-.003.079-.017.112-.041-.032-.003-.063-.012-.092-.027Z" fill="#fff" fill-rule="evenodd"/>
        <path d="M22.998,9.239s.004.01,0,.014c-.003.004-.009.004-.012.001-.009-.005-.02-.006-.029-.003-.01.003-.019.009-.024.018l-.055.095c-.005.008-.008.016-.011.024-.003.008-.005.017-.006.026,0,.005-.006.009-.011.009-.005,0-.009-.006-.009-.011.001-.01.004-.02.007-.029.003-.009.007-.019.012-.028l.055-.096c.008-.014.021-.023.035-.027.014-.004.03-.002.044.005.001,0,.002.001.003.002Z" fill="#fff" fill-rule="evenodd"/>
        <path d="M22.728,9.302c-.021.006-.034.027-.028.048l.028.107c.005.017.012.033.023.046.003.005.002.011-.002.014-.004.003-.01.002-.014-.002-.012-.016-.021-.034-.026-.053l-.028-.107c-.009-.032.01-.064.042-.072.005-.001.01.001.012.006.002.005-.001.011-.006.012Z" fill="#fff" fill-rule="evenodd"/>
        <path d="M23.257,9.279s.004.01,0,.014c-.004.004-.01.004-.014,0-.015-.015-.04-.015-.055,0l-.078.078c-.012.012-.022.027-.029.043-.002.005-.008.008-.013.006-.005-.002-.007-.008-.005-.013.008-.019.019-.036.033-.05l.078-.078c.023-.023.061-.023.084,0Z" fill="#fff" fill-rule="evenodd"/>
        <path d="M23.261,9.549c0-.005.004-.01.01-.01.005,0,.01.005.01.01,0,.033-.027.059-.059.059h-.11c-.02,0-.04-.004-.059-.012-.005-.002-.008-.008-.005-.013.002-.005.008-.008.013-.005.016.007.033.01.051.01h.11c.021,0,.039-.017.039-.039Z" fill="#fff" fill-rule="evenodd"/>
        <path d="M27.869,9.239s-.004.01,0,.014c.003.004.009.004.013.001.009-.005.02-.006.029-.003.01.003.018.009.024.018l.055.095c.004.008.008.016.011.024.003.008.005.017.006.026,0,.005.006.009.011.009.005,0,.009-.006.008-.011-.001-.01-.003-.02-.007-.029-.003-.009-.007-.019-.012-.028l-.056-.096c-.008-.014-.021-.023-.036-.027-.014-.004-.03-.002-.044.005-.001,0-.002.001-.003.002Z" fill="#fff" fill-rule="evenodd"/>
        <path d="M28.139,9.302c.021.006.034.027.028.048l-.028.107c-.005.017-.012.033-.023.046-.003.005-.003.011.002.014.004.003.01.002.014-.002.012-.016.021-.034.026-.053l.029-.107c.008-.032-.01-.064-.042-.072-.005-.001-.01.001-.012.006-.002.005.001.011.006.012Z" fill="#fff" fill-rule="evenodd"/>
        <path d="M27.61,9.279s-.004.01,0,.014c.004.004.01.004.014,0,.015-.015.04-.015.056,0l.078.078c.012.012.022.027.029.043.002.005.008.008.013.006.005-.002.008-.008.006-.013-.008-.019-.019-.036-.033-.05l-.078-.078c-.023-.023-.061-.023-.084,0Z" fill="#fff" fill-rule="evenodd"/>
        <path d="M27.607,9.549c0-.005-.004-.01-.01-.01s-.01.005-.01.01c0,.033.027.059.059.059h.11c.02,0,.04-.004.059-.012.005-.002.007-.008.005-.013s-.008-.008-.013-.005c-.016.007-.033.01-.051.01h-.11c-.022,0-.039-.017-.039-.039Z" fill="#fff" fill-rule="evenodd"/>
      </g>
    </g>
  </g>
</svg>