<?xml version="1.0" encoding="UTF-8"?>
<svg id="Layer_2" data-name="Layer 2" xmlns="http://www.w3.org/2000/svg" viewBox="0 0 118.972 79.17">
  <g id="Layer_1-2" data-name="Layer 1">
    <g>
      <rect width="118.972" height="79.17" fill="#2b3086"/>
      <polygon points="40.999 0 99.565 0 99.565 79.17 40.999 0" fill="#eed649"/>
      <polygon points="41.92 23.672 42.371 20.909 39.973 19.025 43.172 18.537 44.538 16.002 46.065 18.466 49.294 18.784 47.022 20.785 47.671 23.521 44.763 22.302 41.92 23.672" fill="#fff"/>
      <polygon points="34.82 13.258 35.285 10.486 32.881 8.602 36.089 8.124 37.438 5.584 38.966 8.045 42.201 8.362 39.946 10.376 40.588 13.098 37.661 11.878 34.82 13.258" fill="#fff"/>
      <polygon points="49.416 33.048 49.881 30.281 47.476 28.393 50.685 27.916 52.028 25.375 53.563 27.838 56.791 28.157 54.536 30.168 55.177 32.888 52.252 31.673 49.416 33.048" fill="#fff"/>
      <polygon points="57.318 43.417 57.786 40.656 55.381 38.768 58.587 38.282 59.933 35.749 61.457 38.218 64.693 38.531 62.444 40.544 63.085 43.267 60.154 42.048 57.318 43.417" fill="#fff"/>
      <polygon points="64.816 52.967 65.273 50.208 62.868 48.323 66.076 47.83 67.436 45.302 68.953 47.767 72.184 48.082 69.935 50.085 70.575 52.819 67.644 51.602 64.816 52.967" fill="#fff"/>
      <polygon points="71.306 63.207 71.751 60.448 69.359 58.562 72.57 58.074 73.92 55.544 75.446 58.008 78.683 58.324 76.427 60.337 77.059 63.058 74.143 61.841 71.306 63.207" fill="#fff"/>
      <polygon points="79.007 73.11 79.46 70.341 77.059 68.463 80.262 67.978 81.62 65.436 83.147 67.902 86.383 68.215 84.12 70.227 84.76 72.963 81.843 71.742 79.007 73.11" fill="#fff"/>
      <polyline points="33.253 0 33.903 2.733 30.976 1.513 28.134 2.88 28.595 .124" fill="#fff"/>
      <polyline points="86.347 79.17 83.942 77.292 87.163 76.806 88.509 74.263 90.04 76.725 93.272 77.044 91.005 79.053" fill="#fff"/>
    </g>
  </g>
</svg>