<svg xmlns="http://www.w3.org/2000/svg" id="Layer_2" data-name="Layer 2" viewBox="0 0 33.946 22.631">
  <defs><clipPath id="circleClip"><circle cx="16.973" cy="11.3155" r="11.3155" /></clipPath></defs><g clip-path="url(#circleClip)"><g id="_&#209;&#235;&#238;&#233;_1" data-name="&#209;&#235;&#238;&#233; 1">
    <g>
      <rect width="33.946" height="22.631" fill="#007c29" />
      <g>
        <polygon points="3.457 11.315 16.973 2.541 30.488 11.315 16.973 20.09 3.457 11.315" fill="#fed700" fill-rule="evenodd" />
        <path d="M16.973,5.559c3.179,0,5.757,2.577,5.757,5.756,0,.252-.016.499-.048.742-2.507-2.079-5.728-3.329-9.239-3.329-.562,0-1.115.033-1.66.095.929-1.932,2.904-3.265,5.191-3.265h0ZM22.483,12.984c-2.408-2.13-5.574-3.423-9.041-3.423-.679,0-1.346.05-1.998.146-.148.511-.228,1.05-.228,1.608,0,3.179,2.577,5.757,5.756,5.757,2.599,0,4.795-1.722,5.511-4.088Z" fill="#039" fill-rule="evenodd" />
        <path d="M22.682,12.058c-.041.318-.108.627-.198.927-2.408-2.13-5.574-3.423-9.041-3.423-.679,0-1.346.05-1.998.146.089-.305.202-.601.338-.883.545-.062,1.099-.095,1.66-.095,3.512,0,6.732,1.25,9.239,3.329Z" fill="#fff" fill-rule="evenodd" />
        <path d="M12.05,9.239c-.004-.056,0-.103.014-.142.01-.029.025-.055.045-.078.02-.024.042-.042.067-.055.033-.017.071-.027.116-.03.08-.006.146.014.198.06.052.046.081.114.088.202.007.088-.012.159-.056.212-.044.053-.106.083-.186.089-.081.006-.147-.014-.199-.06-.052-.046-.08-.112-.087-.199h0ZM12.163,9.227c.004.061.022.107.053.137.031.029.068.043.112.039.044-.003.079-.022.105-.055.026-.034.036-.082.031-.145-.005-.062-.022-.108-.052-.136-.03-.029-.067-.041-.113-.038-.045.003-.081.022-.106.055-.025.034-.035.081-.031.144h0ZM12.799,9.455l-.014-.545.232-.006c.058-.001.101.002.127.011.027.009.048.026.065.051.016.025.025.053.026.085.001.041-.01.075-.033.102-.023.027-.059.045-.106.053.024.013.044.028.06.044.016.016.038.045.065.087l.069.105-.131.003-.082-.117c-.029-.042-.049-.068-.06-.078-.011-.011-.022-.018-.034-.022-.012-.004-.031-.005-.056-.005h-.022s.006.228.006.228l-.11.003h0ZM12.902,9.138l.082-.002c.053-.001.085-.004.099-.009.013-.005.023-.013.03-.024.007-.011.011-.025.01-.041,0-.018-.006-.033-.016-.044-.01-.011-.024-.018-.042-.02-.009,0-.036,0-.08,0l-.086.002.003.139h0ZM13.479,8.895l.201.005c.045.001.08.006.103.013.032.01.059.028.081.052.022.025.039.054.05.09.011.035.016.078.015.13-.001.045-.008.083-.02.115-.015.039-.035.071-.061.095-.019.018-.046.032-.078.041-.024.007-.057.01-.097.009l-.207-.005.014-.545h0ZM13.587,8.99l-.009.361.082.002c.031,0,.053,0,.066-.003.018-.004.033-.011.045-.022.012-.01.022-.027.03-.051.008-.024.013-.058.014-.1.001-.042-.002-.074-.009-.097-.007-.023-.017-.041-.03-.054-.013-.013-.029-.022-.05-.027-.015-.004-.045-.006-.09-.007h-.049ZM14.13,9.456l.041-.544.403.03-.007.092-.292-.022-.009.121.271.021-.007.092-.272-.02-.011.147.303.023-.007.092-.413-.031h0ZM14.751,9.497l.069-.541.164.021.05.381.143-.357.164.021-.069.541-.101-.013.054-.426-.161.412-.105-.014-.052-.439-.054.426-.101-.013h0ZM15.913,9.665l.096-.537.397.071-.016.091-.289-.052-.021.119.268.048-.016.091-.268-.048-.026.145.299.054-.016.091-.408-.073h0ZM16.936,9.887l.149-.524.17.048c.064.018.106.033.124.044.028.017.048.041.061.073.013.032.013.069.001.111-.009.032-.023.058-.041.076-.018.019-.037.032-.059.039-.022.007-.042.011-.062.009-.027-.002-.064-.01-.112-.024l-.069-.019-.056.198-.106-.03h0ZM17.166,9.482l-.043.149.058.017c.042.012.07.017.086.016.016-.001.029-.007.04-.016.011-.01.019-.022.023-.038.006-.019.004-.036-.003-.052-.008-.016-.02-.028-.036-.036-.012-.006-.037-.014-.075-.025l-.051-.014h0ZM17.535,10.058l.175-.517.22.074c.055.019.094.037.116.055.022.018.036.041.043.07s.005.058-.005.089c-.013.039-.035.067-.067.084-.031.018-.071.022-.118.013.018.021.032.042.041.062.009.021.019.055.031.104l.029.122-.125-.042-.037-.138c-.013-.049-.023-.081-.03-.094-.006-.014-.014-.024-.024-.032-.01-.008-.027-.016-.051-.024l-.021-.007-.073.216-.105-.035h0ZM17.741,9.795l.077.026c.05.017.082.025.096.025.014,0,.026-.004.037-.012.01-.008.018-.02.023-.035.006-.018.006-.033,0-.047-.006-.014-.017-.025-.033-.033-.008-.004-.033-.013-.075-.028l-.081-.028-.044.131h0ZM18.243,10.011c.02-.052.045-.092.074-.121.022-.021.047-.038.075-.051.028-.013.056-.02.084-.02.037,0,.076.007.117.023.075.03.125.077.152.14.027.064.023.138-.009.221-.032.082-.08.137-.143.166-.063.029-.131.029-.206,0-.075-.03-.126-.076-.153-.14-.027-.064-.024-.136.008-.217h0ZM18.351,10.049c-.023.058-.027.107-.012.147.015.04.043.068.084.084.041.016.081.014.118-.005.038-.019.068-.058.091-.117.023-.058.027-.107.013-.145-.014-.039-.042-.066-.085-.083-.042-.017-.082-.016-.119.003-.037.019-.067.058-.09.116h0ZM19.138,10.452l.038-.084.216.097-.09.198c-.03.011-.069.015-.116.013-.047-.002-.091-.013-.132-.031-.052-.024-.092-.055-.121-.094-.029-.039-.043-.084-.044-.133-.001-.05.009-.098.031-.146.024-.052.055-.093.095-.124.04-.03.086-.047.137-.05.039-.002.083.007.13.029.062.028.104.063.127.104.023.042.029.088.018.138l-.109-.027c.004-.028,0-.053-.013-.076-.013-.023-.034-.041-.063-.054-.044-.02-.085-.021-.123-.005-.038.017-.07.052-.095.107-.027.059-.034.109-.021.151.013.041.04.072.083.091.021.01.044.015.069.016.025.001.048,0,.068-.005l.028-.063-.114-.052h0ZM19.469,10.825l.249-.485.206.106c.052.027.087.05.106.071.019.021.03.046.033.075.003.03-.003.059-.018.088-.019.036-.045.061-.078.074-.033.013-.073.011-.118-.004.015.023.025.046.031.068.006.022.011.057.015.107l.01.125-.117-.06-.016-.142c-.006-.05-.011-.083-.015-.098-.004-.014-.01-.026-.019-.035-.009-.009-.024-.019-.047-.031l-.02-.01-.104.203-.098-.051h0ZM19.71,10.595l.073.037c.047.024.077.037.091.039.014.002.026,0,.038-.006.012-.007.021-.017.029-.032.008-.016.011-.032.007-.047-.004-.014-.013-.027-.027-.038-.007-.005-.031-.018-.071-.038l-.076-.039-.063.123h0ZM20.059,11.131l.359.207.046-.08-.264-.151.074-.128.236.136.046-.08-.236-.136.06-.105.254.146.046-.08-.35-.201-.271.472h0ZM20.67,11.278l.096.049c-.014.034-.017.063-.01.088.007.025.025.046.053.064.03.019.056.027.079.024.023-.003.04-.013.051-.03.007-.011.01-.022.008-.034-.001-.012-.008-.025-.02-.041-.008-.011-.029-.033-.061-.067-.042-.044-.067-.081-.075-.112-.012-.043-.006-.083.017-.12.015-.023.036-.041.062-.053.026-.012.055-.015.087-.01.032.005.065.019.1.042.057.037.093.077.105.121.013.044.006.088-.02.131l-.095-.056c.011-.026.014-.049.007-.067-.006-.019-.022-.036-.048-.053-.027-.017-.051-.025-.073-.024-.015,0-.025.007-.033.019-.007.011-.008.023-.004.037.005.018.027.046.065.085.038.039.064.072.079.097.014.025.021.052.021.079,0,.028-.01.056-.029.085-.017.026-.04.046-.069.06-.029.014-.061.018-.095.012-.034-.006-.071-.022-.111-.047-.058-.037-.094-.079-.108-.126-.014-.047-.007-.097.019-.153h0ZM21.204,11.618c-.029.054-.038.104-.026.152.012.047.046.091.102.131.039.028.075.045.108.053.033.007.065.005.095-.007.03-.012.054-.031.072-.057.02-.028.031-.056.033-.083.002-.028-.004-.054-.017-.08-.013-.026-.037-.059-.074-.101-.036-.041-.057-.071-.061-.088-.003-.014-.002-.026.006-.036.008-.012.019-.018.034-.018.022,0,.046.008.072.027.025.018.04.036.046.055.005.019.002.041-.01.067l.092.061c.028-.042.036-.086.026-.13s-.044-.087-.099-.126c-.034-.024-.067-.04-.098-.046-.031-.007-.06-.005-.087.006-.027.011-.048.028-.064.051-.025.035-.033.074-.023.118.007.031.03.07.069.116.031.036.05.059.058.07.011.016.018.03.018.042,0,.012-.002.023-.01.033-.012.016-.029.025-.052.027-.023.002-.049-.008-.078-.028-.027-.019-.044-.041-.05-.067-.007-.025-.002-.054.014-.087l-.094-.053h0ZM21.783,11.911c.034-.044.07-.075.106-.095.027-.015.056-.024.086-.028.031-.004.059-.003.086.005.035.01.071.028.106.056.063.05.098.109.106.178.007.069-.017.139-.072.209-.054.069-.116.109-.184.119-.068.01-.134-.011-.197-.06-.064-.05-.099-.109-.106-.178-.007-.068.016-.137.07-.206h0ZM21.875,11.978c-.038.049-.056.094-.053.137.003.043.021.078.056.105.035.027.073.037.114.029.042-.007.082-.036.121-.086.039-.049.057-.094.054-.136-.002-.041-.022-.076-.058-.104-.036-.028-.074-.038-.115-.031s-.081.036-.12.085Z" fill="#007c29" fill-rule="evenodd" />
        <g>
          <polygon points="18.726 8.98 18.798 9.204 19.034 9.204 18.843 9.342 18.916 9.566 18.726 9.427 18.535 9.566 18.608 9.342 18.417 9.204 18.653 9.204 18.726 8.98" fill="#fff" fill-rule="evenodd" />
          <polygon points="12.395 10.07 12.467 10.294 12.703 10.294 12.512 10.432 12.585 10.656 12.395 10.517 12.204 10.656 12.277 10.432 12.087 10.294 12.322 10.294 12.395 10.07" fill="#fff" fill-rule="evenodd" />
          <polygon points="12.853 12.479 12.926 12.703 13.161 12.703 12.97 12.842 13.044 13.065 12.853 12.927 12.663 13.065 12.736 12.842 12.545 12.703 12.781 12.703 12.853 12.479" fill="#fff" fill-rule="evenodd" />
          <polygon points="14.621 14.214 14.693 14.439 14.929 14.438 14.738 14.577 14.812 14.801 14.621 14.662 14.43 14.801 14.503 14.577 14.313 14.438 14.548 14.439 14.621 14.214" fill="#fff" fill-rule="evenodd" />
          <polygon points="17.004 13.701 17.076 13.925 17.312 13.925 17.121 14.063 17.194 14.287 17.004 14.148 16.813 14.287 16.886 14.063 16.695 13.925 16.931 13.925 17.004 13.701" fill="#fff" fill-rule="evenodd" />
          <polygon points="20.939 13.046 21.011 13.27 21.247 13.27 21.056 13.408 21.129 13.632 20.939 13.493 20.748 13.632 20.821 13.408 20.63 13.27 20.866 13.27 20.939 13.046" fill="#fff" fill-rule="evenodd" />
          <polygon points="14.781 11.29 14.842 11.48 15.042 11.48 14.88 11.597 14.942 11.786 14.781 11.668 14.62 11.786 14.682 11.597 14.521 11.48 14.72 11.48 14.781 11.29" fill="#fff" fill-rule="evenodd" />
          <polygon points="12.253 13.022 12.314 13.211 12.513 13.211 12.352 13.328 12.414 13.517 12.253 13.4 12.092 13.517 12.153 13.328 11.992 13.211 12.191 13.211 12.253 13.022" fill="#fff" fill-rule="evenodd" />
          <polygon points="13.992 13.054 14.053 13.244 14.253 13.244 14.091 13.361 14.153 13.55 13.992 13.433 13.831 13.55 13.893 13.361 13.732 13.244 13.931 13.244 13.992 13.054" fill="#fff" fill-rule="evenodd" />
          <polygon points="17.029 12.057 17.091 12.246 17.29 12.246 17.128 12.363 17.19 12.552 17.029 12.434 16.868 12.552 16.93 12.363 16.769 12.246 16.968 12.246 17.029 12.057" fill="#fff" fill-rule="evenodd" />
          <polygon points="17.547 12.569 17.608 12.759 17.808 12.758 17.646 12.875 17.708 13.065 17.547 12.947 17.386 13.065 17.448 12.875 17.287 12.758 17.486 12.759 17.547 12.569" fill="#fff" fill-rule="evenodd" />
          <polygon points="16.25 12.635 16.311 12.824 16.51 12.824 16.349 12.941 16.411 13.13 16.25 13.012 16.089 13.13 16.15 12.941 15.989 12.824 16.188 12.824 16.25 12.635" fill="#fff" fill-rule="evenodd" />
          <polygon points="18.311 10.715 18.372 10.905 18.571 10.905 18.41 11.021 18.472 11.211 18.311 11.093 18.15 11.211 18.211 11.021 18.05 10.905 18.249 10.905 18.311 10.715" fill="#fff" fill-rule="evenodd" />
          <polygon points="13.792 13.722 13.841 13.872 13.999 13.872 13.871 13.964 13.92 14.114 13.792 14.021 13.665 14.114 13.714 13.964 13.586 13.872 13.744 13.872 13.792 13.722" fill="#fff" fill-rule="evenodd" />
          <polygon points="18.173 14.407 18.222 14.557 18.38 14.557 18.252 14.65 18.301 14.799 18.173 14.706 18.046 14.799 18.095 14.65 17.967 14.557 18.125 14.557 18.173 14.407" fill="#fff" fill-rule="evenodd" />
          <polygon points="19.149 14.554 19.197 14.704 19.355 14.704 19.227 14.796 19.276 14.946 19.149 14.853 19.021 14.946 19.07 14.796 18.942 14.704 19.1 14.704 19.149 14.554" fill="#fff" fill-rule="evenodd" />
          <polygon points="19.815 14.421 19.864 14.571 20.021 14.571 19.894 14.663 19.943 14.813 19.815 14.72 19.688 14.813 19.737 14.663 19.609 14.571 19.767 14.571 19.815 14.421" fill="#fff" fill-rule="evenodd" />
          <polygon points="20.364 14.421 20.413 14.571 20.571 14.571 20.443 14.663 20.492 14.813 20.364 14.72 20.237 14.813 20.286 14.663 20.158 14.571 20.316 14.571 20.364 14.421" fill="#fff" fill-rule="evenodd" />
          <polygon points="21.765 13.197 21.814 13.347 21.972 13.347 21.844 13.439 21.893 13.589 21.765 13.496 21.638 13.589 21.687 13.439 21.559 13.347 21.717 13.347 21.765 13.197" fill="#fff" fill-rule="evenodd" />
          <polygon points="17.024 15.789 17.056 15.887 17.159 15.887 17.076 15.947 17.108 16.046 17.024 15.985 16.94 16.046 16.973 15.947 16.889 15.887 16.992 15.887 17.024 15.789" fill="#fff" fill-rule="evenodd" />
          <polygon points="16.668 13.033 16.708 13.157 16.838 13.157 16.733 13.233 16.773 13.357 16.668 13.28 16.562 13.357 16.603 13.233 16.497 13.157 16.627 13.157 16.668 13.033" fill="#fff" fill-rule="evenodd" />
          <polygon points="13.365 12.22 13.405 12.344 13.535 12.344 13.43 12.42 13.47 12.544 13.365 12.467 13.259 12.544 13.3 12.42 13.194 12.344 13.324 12.344 13.365 12.22" fill="#fff" fill-rule="evenodd" />
          <polygon points="18.634 15.059 18.696 15.248 18.895 15.248 18.733 15.365 18.795 15.554 18.634 15.437 18.473 15.554 18.535 15.365 18.374 15.248 18.573 15.248 18.634 15.059" fill="#fff" fill-rule="evenodd" />
          <polygon points="19.815 14.916 19.876 15.105 20.076 15.105 19.914 15.222 19.976 15.411 19.815 15.293 19.654 15.411 19.716 15.222 19.555 15.105 19.754 15.105 19.815 14.916" fill="#fff" fill-rule="evenodd" />
          <polygon points="19.815 15.59 19.864 15.74 20.021 15.74 19.894 15.832 19.943 15.982 19.815 15.889 19.688 15.982 19.737 15.832 19.609 15.74 19.767 15.74 19.815 15.59" fill="#fff" fill-rule="evenodd" />
          <polygon points="20.89 14.119 20.952 14.308 21.151 14.308 20.99 14.425 21.051 14.614 20.89 14.496 20.729 14.614 20.791 14.425 20.63 14.308 20.829 14.308 20.89 14.119" fill="#fff" fill-rule="evenodd" />
          <polygon points="21.169 13.67 21.23 13.859 21.429 13.859 21.268 13.976 21.33 14.165 21.169 14.048 21.008 14.165 21.07 13.976 20.908 13.859 21.107 13.859 21.169 13.67" fill="#fff" fill-rule="evenodd" />
        </g>
      </g>
    </g>
  </g>
</g></svg>