<svg xmlns="http://www.w3.org/2000/svg" id="Layer_2" data-name="Layer 2" viewBox="0 0 33.945 22.631">
  <defs><clipPath id="circleClip"><circle cx="16.9725" cy="11.3155" r="11.3155" /></clipPath></defs><g clip-path="url(#circleClip)"><g id="_&#209;&#235;&#238;&#233;_1" data-name="&#209;&#235;&#238;&#233; 1">
    <g>
      <g>
        <rect width="33.945" height="22.631" fill="#fff" />
        <polygon points="25.641 22.631 0 22.631 0 5.536 25.641 22.631" fill="#fed700" fill-rule="evenodd" />
        <polygon points="9.505 0 33.945 0 33.945 16.293 9.505 0" fill="#fed700" fill-rule="evenodd" />
        <polygon points="33.945 22.631 25.641 22.631 0 5.536 0 0 33.945 22.631" fill-rule="evenodd" />
      </g>
      <g>
        <path d="M20.487,8.943c.621.747.993,1.696.993,2.729,0,2.407-2.018,4.359-4.507,4.359s-4.507-1.952-4.507-4.359c0-1.033.372-1.982.993-2.729-.288.531-.451,1.136-.451,1.777,0,2.118,1.776,3.835,3.965,3.835s3.965-1.717,3.965-3.835c0-.641-.163-1.246-.451-1.777Z" fill="#c8102e" fill-rule="evenodd" />
        <path d="M9.244,9.158c0-.039.031-.07.07-.07.023,0,.044.011.057.03.098.144.156.318.156.505,0,.052-.004.103-.013.153.242.188.365.462.359.767.308.131.582.325.808.566.003-.033.005-.066.005-.099,0-.249-.083-.478-.223-.662-.066-.087-.201-.364-.082-.433.059-.034.16.024.245.135.224.284.489.535.786.744.148.106.236.283.236.465v2.422c-.17.11-.373.173-.59.173s-.42-.064-.59-.173v-1.81c0-.113-.044-.211-.124-.289l-.713-.713c-.058-.059-.106-.139-.128-.219l-.242-.904c-.011-.04-.016-.082-.016-.123v-.463h0ZM10.119,9.306v.029c.053.122.081.254.081.388,0,.041-.003.082-.008.123.031.026.06.053.086.082.013-.031.034-.057.067-.076.018-.01.037-.016.055-.019.001-.021.002-.042.002-.063,0-.187-.058-.361-.156-.505-.013-.018-.034-.03-.057-.03-.039,0-.07.032-.07.07h0ZM9.845,9.259v.08c.028.091.042.187.042.284,0,.041-.003.082-.008.123.194.164.313.386.345.637.093.034.181.078.262.132-.024-.043-.05-.084-.08-.124-.059-.077-.142-.241-.143-.373-.043-.051-.092-.099-.147-.142.008-.05.013-.101.013-.153,0-.188-.057-.361-.156-.505-.013-.018-.034-.029-.057-.029-.039,0-.07.031-.07.07h0ZM9.532,9.158v.11c.044.113.067.233.067.355,0,.041-.002.082-.008.123.225.19.346.456.353.749.249.112.473.262.666.442-.007-.098-.028-.194-.062-.285-.114-.096-.247-.171-.392-.217-.022-.261-.142-.494-.356-.66.008-.05.013-.101.013-.153,0-.188-.057-.362-.156-.505-.013-.018-.034-.03-.057-.03-.039,0-.07.032-.07.07Z" fill="#c8102e" fill-rule="evenodd" />
        <path d="M11.058,14.722c.312,0,.607-.073.869-.203.039-.016.067-.055.067-.1,0-.06-.049-.109-.109-.109-.014,0-.035.004-.047.011-.234.117-.499.184-.779.184s-.545-.066-.779-.184c-.012-.007-.033-.011-.047-.011-.06,0-.109.049-.109.109,0,.045.028.084.067.1.262.13.557.203.869.203Z" fill="#c8102e" fill-rule="evenodd" />
        <path d="M11.058,14.432c.279,0,.541-.068.772-.189.038-.019.062-.055.062-.098,0-.06-.049-.109-.109-.109-.019,0-.038.005-.054.015-.201.105-.429.164-.671.164s-.471-.059-.671-.164c-.016-.009-.035-.015-.054-.015-.06,0-.109.049-.109.109,0,.044.024.079.062.098.231.121.494.189.772.189Z" fill="#c8102e" fill-rule="evenodd" />
        <path d="M11.058,14.143c.231,0,.449-.057.641-.158.038-.019.062-.055.062-.099,0-.06-.049-.109-.109-.109-.019,0-.038.005-.054.014-.162.085-.345.133-.54.133s-.379-.048-.54-.133c-.016-.009-.035-.014-.054-.014-.06,0-.109.049-.109.109,0,.043.024.08.062.099.192.1.41.158.641.158Z" fill="#c8102e" fill-rule="evenodd" />
        <path d="M16.973,17.461c-.916,0-1.779-.242-2.536-.67.003.022.005.045.005.068,0,.238-.192.43-.43.43-.303,0-.647-.174-.858-.385-.223-.215-.527-.347-.861-.347-.223,0-.433.059-.614.162-.014.008-.029.012-.046.012-.052,0-.094-.042-.094-.094,0-.011.002-.022.006-.033.07-.221.259-.389.491-.43-.064-.068-.104-.16-.104-.261,0-.182.125-.332.301-.372.266-.064.547-.029.789.095-.065-.074-.129-.15-.191-.228-.07-.082-.112-.188-.112-.304,0-.258.209-.467.467-.467.13,0,.248.052.338.145.861.892,2.087,1.45,3.448,1.45s2.587-.557,3.448-1.45c.09-.093.208-.145.338-.145.258,0,.467.209.467.467,0,.116-.042.222-.112.304-.061.078-.125.154-.19.228.241-.124.522-.159.789-.095.176.04.301.19.301.372,0,.101-.04.193-.104.261.232.041.421.209.491.43.004.01.006.021.006.033,0,.052-.042.094-.094.094-.017,0-.032-.004-.046-.012-.181-.103-.391-.162-.614-.162-.334,0-.638.132-.861.347-.211.211-.555.385-.858.385-.237,0-.43-.192-.43-.43,0-.023.002-.046.005-.068-.756.428-1.619.67-2.536.67Z" fill="#c8102e" fill-rule="evenodd" />
        <path d="M16.973,13.272l-.299.493c-.031.052-.049.1-.049.162,0,.026.003.051.01.076-.105-.07-.333-.186-.333-.518,0-.319.075-.619.208-.886.042-.087.065-.185.065-.289,0-.179-.07-.342-.185-.463.026-.005.053-.007.08-.007.138,0,.26.064.34.163.013-.119.074-.223.162-.294.088.071.149.176.162.294.08-.099.203-.163.341-.163.027,0,.054.003.08.007-.115.12-.185.283-.185.463,0,.103.023.202.065.289.133.267.208.568.208.886,0,.332-.228.447-.333.518.006-.024.01-.05.01-.076,0-.061-.017-.11-.049-.162l-.299-.493Z" fill="#c8102e" fill-rule="evenodd" />
        <path d="M16.973,14.483c-.533,0-.993-.312-1.208-.764.111.063.232.11.36.139.208.046.398.14.557.27.008.006.018.01.029.01.025,0,.045-.02.045-.045,0-.01-.003-.02-.01-.028-.031-.038-.05-.086-.05-.139,0-.048.014-.084.038-.124l.238-.392.237.392c.025.041.039.076.039.124,0,.053-.019.101-.05.139-.006.008-.01.018-.01.028,0,.025.02.045.045.045.011,0,.021-.004.029-.01.159-.13.349-.225.557-.27.128-.029.249-.076.36-.139-.214.451-.674.764-1.207.764Z" fill="#c8102e" fill-rule="evenodd" />
        <path d="M24.701,9.158c0-.039-.031-.07-.07-.07-.023,0-.044.011-.057.03-.098.144-.156.318-.156.505,0,.052.004.103.013.153-.242.188-.364.462-.359.767-.308.131-.582.325-.808.566-.003-.033-.004-.066-.004-.099,0-.249.083-.478.223-.662.066-.087.202-.364.082-.433-.06-.034-.16.024-.245.135-.224.284-.49.535-.786.744-.148.106-.236.283-.236.465v2.422c.17.11.373.173.591.173s.42-.064.59-.173v-1.81c0-.113.044-.211.124-.289l.713-.713c.058-.059.106-.139.128-.219l.242-.904c.011-.04.016-.082.016-.123v-.463h0ZM23.826,9.306v.029c-.053.122-.081.254-.081.388,0,.041.003.082.008.123-.031.026-.059.053-.086.082-.013-.031-.035-.057-.067-.076-.018-.01-.037-.016-.055-.019-.001-.021-.002-.042-.002-.063,0-.187.057-.361.156-.505.014-.018.034-.03.057-.03.039,0,.07.032.07.07h0ZM24.1,9.259v.08c-.028.091-.042.187-.042.284,0,.041.002.082.008.123-.194.164-.313.386-.345.637-.093.034-.18.078-.262.132.024-.043.051-.084.081-.124.059-.077.142-.241.143-.373.043-.051.092-.099.147-.142-.008-.05-.013-.101-.013-.153,0-.188.058-.361.156-.505.013-.018.034-.029.057-.029.039,0,.07.031.07.07h0ZM24.413,9.158v.11c-.044.113-.067.233-.067.355,0,.041.002.082.008.123-.226.19-.347.456-.354.749-.249.112-.473.262-.666.442.007-.098.028-.194.062-.285.114-.096.247-.171.392-.217.022-.261.142-.494.355-.66-.008-.05-.013-.101-.013-.153,0-.188.057-.362.156-.505.013-.018.034-.03.057-.03.039,0,.07.032.07.07Z" fill="#c8102e" fill-rule="evenodd" />
        <path d="M22.887,14.722c-.312,0-.607-.073-.869-.203-.039-.016-.067-.055-.067-.1,0-.06.048-.109.109-.109.014,0,.035.004.047.011.234.117.499.184.78.184s.545-.066.779-.184c.012-.007.033-.011.047-.011.06,0,.109.049.109.109,0,.045-.027.084-.067.1-.262.13-.557.203-.869.203Z" fill="#c8102e" fill-rule="evenodd" />
        <path d="M22.887,14.432c-.279,0-.541-.068-.773-.189-.038-.019-.062-.055-.062-.098,0-.06.049-.109.109-.109.019,0,.038.005.054.015.201.105.429.164.672.164s.471-.059.672-.164c.016-.009.035-.015.054-.015.06,0,.109.049.109.109,0,.044-.024.079-.062.098-.231.121-.494.189-.772.189Z" fill="#c8102e" fill-rule="evenodd" />
        <path d="M22.887,14.143c-.232,0-.45-.057-.641-.158-.038-.019-.062-.055-.062-.099,0-.06.049-.109.109-.109.019,0,.037.005.054.014.161.085.345.133.54.133s.379-.048.54-.133c.017-.009.035-.014.054-.014.06,0,.109.049.109.109,0,.043-.024.08-.062.099-.192.1-.41.158-.641.158Z" fill="#c8102e" fill-rule="evenodd" />
        <path d="M17.192,5.762c.342.022.592.094.592.18,0,.103-.364.187-.812.187s-.812-.084-.812-.187c0-.095.304-.173.7-.185v.272h.331v-.267Z" fill="#c8102e" fill-rule="evenodd" />
        <path d="M15.902,6.938c.125-.284.204-.592.23-.916.115.104.448.179.841.179s.726-.075.84-.179c.025.323.105.632.23.916l-.268-.268-.268.268-.267-.268-.268.268-.268-.268-.268.268-.268-.268-.268.268Z" fill="#c8102e" fill-rule="evenodd" />
        <path d="M16.933,5.957h.188v-.74l.743.429-.337-.583.337-.194-.743-.429c.071-.015.121-.048.121-.085,0-.052-.096-.094-.215-.094s-.215.042-.215.094c0,.038.049.07.121.085v1.517Z" fill="#c8102e" fill-rule="evenodd" />
        <path d="M16.649,10.733c.042-.086.067-.182.067-.284,0-.233-.125-.438-.312-.549.028-.004.057-.006.086-.006.139,0,.268.045.374.121.011-.087.051-.165.11-.224.059.059.098.137.109.224.105-.076.234-.121.374-.121.029,0,.058.002.086.006-.187.111-.312.316-.312.549,0,.102.024.199.067.284.105.169.167.395.167.643,0,.295-.152.411-.289.489-.032-.083-.086-.157-.157-.214l-.045-.036-.045.036c-.071.057-.125.131-.157.214-.136-.079-.288-.194-.288-.489,0-.248.062-.474.166-.643Z" fill="#c8102e" fill-rule="evenodd" />
        <path d="M15.834,8.642c-.099.023-.192.066-.272.124l-.508.401c-.218.172-.534.135-.706-.083-.018-.023-.034-.046-.047-.071.029-.011.057-.024.084-.04l.579-.335c.102-.057.216-.086.333-.086.029,0,.058.002.086.005h.006c.02,0,.036-.016.036-.035,0-.018-.013-.033-.031-.035-.031-.004-.063-.006-.096-.006-.134,0-.259.035-.368.096l-.58.335c-.24.139-.548.056-.686-.184-.013-.022-.023-.044-.032-.067.089,0,.181-.016.269-.051l.75-.296c.077-.03.16-.045.243-.045.028,0,.056.002.084.005.002,0,.005,0,.007,0,.02,0,.036-.016.036-.036,0-.018-.013-.033-.031-.035-.032-.004-.064-.006-.096-.006-.095,0-.186.017-.27.049l-.751.296c-.339.134-.723-.032-.857-.372-.017-.043-.029-.087-.036-.13.157.042.322.065.492.065.433,0,.832-.145,1.151-.39.29-.225.632-.386,1.004-.464h0c.096-.021.197-.033.3-.033.333,0,.638.119.874.317v-.667l.171.171.171-.171v.667c.237-.198.541-.317.874-.317.103,0,.203.012.3.033h0c.372.077.714.239,1.004.464.319.245.718.39,1.151.39.17,0,.335-.022.492-.065-.008.044-.019.087-.036.13-.134.339-.518.506-.857.372l-.751-.296c-.084-.032-.174-.049-.269-.049-.033,0-.065.002-.096.006-.018.002-.031.017-.031.035,0,.02.016.036.036.036.003,0,.005,0,.007,0,.028-.003.056-.005.084-.005.083,0,.166.015.243.045l.75.296c.088.035.179.051.269.051-.009.023-.02.045-.032.067-.139.24-.446.323-.687.184l-.58-.335c-.109-.061-.235-.096-.368-.096-.032,0-.065.002-.096.006-.018.002-.031.017-.031.035,0,.02.016.036.036.036h.005c.028-.004.057-.006.086-.006.117,0,.231.029.333.086l.579.335c.027.016.056.029.084.04-.013.025-.029.049-.047.071-.172.218-.488.255-.706.083l-.508-.401c-.08-.058-.172-.101-.272-.124-.003,0-.006-.001-.009-.001-.02,0-.036.016-.036.036,0,.017.012.032.029.035.088.02.171.058.245.111l.507.4c.029.023.059.043.091.059-.023.044-.053.086-.09.123-.196.196-.514.196-.711,0l-.647-.647c-.006-.008-.016-.012-.027-.012-.02,0-.036.016-.036.036,0,.01.004.019.01.025l.172.172c.028.029.046.069.046.113,0,.089-.072.161-.161.161-.034,0-.065-.01-.091-.028-.006-.005-.016-.008-.025-.008-.023,0-.042.019-.042.042,0,.011.003.017.008.025.048.071.075.157.075.249,0,.28-.277.361-.293.369-.023-.061-.058-.116-.104-.162l-.051-.051-.051.051c-.046.047-.082.102-.104.162-.016-.008-.293-.09-.293-.369,0-.092.028-.178.076-.249.005-.007.008-.014.008-.025,0-.023-.019-.042-.042-.042-.009,0-.018.003-.025.008-.026.018-.057.028-.09.028-.089,0-.161-.072-.161-.161,0-.044.017-.083.046-.113l.172-.172c.006-.007.01-.015.01-.025,0-.02-.016-.036-.036-.036-.011,0-.02.005-.027.012l-.647.647c-.196.196-.514.196-.711,0-.037-.037-.067-.079-.09-.123.032-.016.062-.036.091-.059l.507-.4c.074-.053.156-.091.245-.111.016-.003.029-.018.029-.035,0-.02-.016-.036-.036-.036-.003,0-.006,0-.009.001Z" fill="#c8102e" fill-rule="evenodd" />
        <g>
          <path d="M18.964,16.916c.025,0,.045.02.045.045s-.02.045-.045.045c-.025,0-.045-.02-.045-.045s.02-.045.045-.045Z" fill="#fed700" fill-rule="evenodd" />
          <path d="M18.757,16.974c.025,0,.045.02.045.045s-.02.045-.045.045c-.025,0-.045-.02-.045-.045s.02-.045.045-.045Z" fill="#fed700" fill-rule="evenodd" />
          <path d="M20.629,15.574c.025,0,.045.02.045.045,0,.025-.02.045-.045.045s-.045-.02-.045-.045c0-.025.02-.045.045-.045Z" fill="#fed700" fill-rule="evenodd" />
          <path d="M18.851,16.02c.025,0,.045.02.045.045,0,.025-.02.045-.045.045-.025,0-.045-.02-.045-.045,0-.025.02-.045.045-.045Z" fill="#fed700" fill-rule="evenodd" />
          <path d="M20.07,16.227c.177-.125.215-.436.213-.638,0-.083-.016-.097.077-.137.148-.065.188-.056.288-.199.038-.056.082-.056.055.023-.055.162-.137.174-.281.239-.05.023-.077.047-.065.124.036.23-.045.485-.244.617-.053.035-.139.038-.044-.029Z" fill="#fed700" fill-rule="evenodd" />
          <path d="M19.528,16.468c.208-.13.481-.359.481-.621,0-.044-.029-.061-.061-.029-.134.134-.288-.022-.183-.254.103-.228.33-.21.34.081.013.362-.153.722-.552.868-.062.023-.121.015-.026-.045h0ZM19.975,15.623c.003-.13-.129-.103-.141.016-.015.16.138.127.141-.016Z" fill="#fed700" fill-rule="evenodd" />
          <path d="M18.412,16.576c-.269.352.046.399.332.354.253-.039.503-.214.59-.46.035-.097.014-.121-.049-.13-.08-.011-.155.006-.124-.104.02-.07.014-.128.009-.189-.009-.13-.007-.127-.103-.041-.045.041-.056.068-.002.115.091.08-.061.223-.131.276-.089.067-.063.111.041.071.037-.014.063-.028.084-.039.055-.03.056-.039.115.006.052.04.092.074.029.151-.063.078-.167.179-.4.245-.119.034-.43.084-.353-.14.012-.034.021-.062.026-.099.008-.058,0-.099-.064-.017Z" fill="#fed700" fill-rule="evenodd" />
          <path d="M17.442,16.643s.02-.031.046-.061c.044-.051.054-.043.089-.013.257.226.288.482-.093.581-.058.015-.068.025-.115.058-.057.038-.074.014-.034-.053.043-.074.033-.105.131-.102.264.007.203-.166.07-.309-.021-.023-.04-.033-.07-.033-.055,0-.056-.014-.023-.068Z" fill="#fed700" fill-rule="evenodd" />
          <path d="M17.066,16.455c.009-.011.023-.026.039-.041.052-.047.075-.052.076.022,0,.154.025.547-.052.667-.039.06-.06.055-.044-.027.028-.143.019-.352.008-.5-.002-.025-.004-.034-.023-.034-.052,0-.027-.062-.005-.088Z" fill="#fed700" fill-rule="evenodd" />
          <path d="M16.526,17.022c.017-.152.021-.315.02-.469-.001-.08-.014-.102.045-.153.114-.099.086-.016.078.067-.017.186-.039.426-.092.553-.022.052-.063.112-.051.002Z" fill="#fed700" fill-rule="evenodd" />
          <path d="M16.15,17.18c.09.004.216.016.344.012.201-.006.347-.053.34-.264-.002-.068-.015-.075.046-.116.118-.079.104-.01.08.085-.076.289-.201.35-.493.359-.175.005-.228-.004-.289-.005-.043-.001-.071-.016-.097-.04-.046-.043.015-.034.07-.031Z" fill="#fed700" fill-rule="evenodd" />
          <path d="M14.14,16.031c.056-.109.097-.207.136-.324.022-.066.026-.076.092-.094.102-.027.06.023.027.088-.065.129-.124.295-.234.38-.089.069-.038-.017-.021-.05Z" fill="#fed700" fill-rule="evenodd" />
          <path d="M13.765,16.051c.009-.111.067-.037.105.005.063.069.156.156.239.199.209.11.335-.154.366-.322.011-.062.027-.102.105-.132.15-.058.107.007.052.092-.058.09-.121.192-.166.279-.199.388.41.413.649.401.086-.004.123-.01.109.09-.014.101.173.052.234.042.076-.012.095-.006.098.071.004.122.141.038.215.004.091-.042.087-.018.112.061.088.264.306.038.274-.304-.007-.071-.017-.109.046-.161.1-.084.076-.006.072.076-.014.274-.16.908-.503.479-.025-.032-.027-.043-.122-.028-.078.012-.28.071-.26-.064.01-.066-.008-.049-.06-.041-.095.015-.221.028-.223-.101,0-.041.007-.065-.088-.057-.184.016-.608-.027-.711-.2-.041-.068-.023-.058-.105-.071-.126-.02-.236-.061-.342-.14-.055-.041-.101-.106-.095-.177Z" fill="#fed700" fill-rule="evenodd" />
          <path d="M12.976,15.32c.095-.012.15.061.202.129.109.141.255.236.434.143.101-.053.175-.137.298-.069.09.05.07.107-.008.202-.114.137-.365.245-.297.041.022-.066-.004-.056-.071-.058-.222-.005-.315.025-.418-.194-.045-.095-.05-.099-.123-.126-.052-.019-.121-.055-.016-.068h0ZM13.723,15.638c-.041.078.016.149.08.044.066-.109-.042-.116-.08-.044Z" fill="#fed700" fill-rule="evenodd" />
        </g>
        <g>
          <path d="M20.678,12.301c.003-.078.039-.049.075-.018.117.103.244.225.349.341.044.05.042.054.047.084.011.068-.004.057-.041.023-.118-.106-.242-.213-.364-.313-.051-.042-.068-.053-.066-.119Z" fill="#fed700" fill-rule="evenodd" />
          <path d="M20.293,13.069c.146.133.266.278.405.412.063.061.07.063.135.002.1-.092.232-.219.294-.341.05-.097.065-.156-.025-.245-.076-.076-.337-.32-.429-.389-.082-.062-.092-.045-.092.008,0,.081.012.081.078.117.114.062.303.244.393.347.037.042.047.061.018.128-.034.079-.071.062-.122.017-.056-.05-.134-.134-.188-.183-.048-.044-.091-.095-.091.002,0,.056.014.077.039.108.043.054.086.103.131.155.046.054.049.076-.005.135-.069.076-.083.053-.148-.004-.121-.105-.206-.22-.316-.329-.034-.034-.103-.112-.11-.018-.003.039-.003.045.032.077Z" fill="#fed700" fill-rule="evenodd" />
          <path d="M20.219,13.148c-.108-.03-.175.018-.167.132.003.054.015.113.075.129.039.011.051.016.043.073-.016.121.064.07.076-.043.005-.053.003-.05.044-.088.023-.021.032-.045.036-.066.012-.064-.028-.063-.065-.024-.036.04-.152.067-.129-.005.008-.026.022-.035.049-.036.03-.002.049-.012.059-.029.014-.022.015-.034-.021-.043Z" fill="#fed700" fill-rule="evenodd" />
          <path d="M18.839,15.009c-.027-.164-.084-.286-.141-.437-.026-.07-.033-.088.017-.148.06-.071.062-.027.075.024.015.061.05.149.069.2.023.061.05.027.063-.023.009-.036.012-.045.015-.062.005-.033.013-.097.054-.035.018.027.014.046.01.078-.007.059-.007.097.052.13.281.152.306-.148.194-.382-.024-.049-.031-.079,0-.145.022-.047.054-.073.077-.007.016.045.038.084.056.109.036.051.08.048.077-.02-.003-.053.01-.128.094-.168.116-.055.161.016.225.099.055.072.061.075.095-.006.022-.051.061-.142.096-.198.047-.074.104-.124.276-.158.179-.035.263-.046.215-.234-.017-.064-.027-.052.014-.113.035-.053.048-.038.057.037.034.306-.006.294-.246.406-.06.028-.058.061-.05.115.006.042.012.115-.042.18-.07.084-.131.064-.195.044-.08-.025-.068-.022-.129.026-.056.044-.052.072-.047.134.005.069.008.177-.061.327-.086.188-.148.241-.261.309-.113.068-.145.051-.107-.015.038-.066.041-.026.139-.122.098-.096.186-.162.211-.309.012-.07.013-.118.011-.151-.004-.065-.012-.087-.068-.087-.067,0-.105.02-.17-.016-.083-.045-.086.007-.082.073.019.298-.179.482-.473.389-.052-.016-.065-.024-.065.052,0,.058.006.112.002.171-.001.016-.011.105-.036.047-.012-.027-.014-.08-.019-.112h0ZM20.15,14.074c-.051-.08-.177.056-.099.127.08.073.15-.048.099-.127h0ZM19.603,14.329c.116.045.143-.077.05-.118-.104-.046-.135.084-.05.118Z" fill="#fed700" fill-rule="evenodd" />
          <path d="M17.872,15.423c.004-.026.011-.062.019-.092.015-.054.05-.055.047,0-.006.12.096.089.165.043.102-.067.209-.112.319-.017.057.048.282.037.221-.315-.024-.14-.071-.326-.158-.44-.054-.071-.041-.077-.019-.123.052-.114.056-.093.099.011.039.094.131.323.164.502.036.195.014.438-.231.461-.066.006-.077.027-.086.077-.023.143-.233.246-.3.006-.02-.075-.028-.07-.084-.047-.077.033-.176.048-.158-.067h0ZM18.192,15.541c.056.097.173.05.133-.072-.044-.134-.204-.051-.133.072Z" fill="#fed700" fill-rule="evenodd" />
          <path d="M19.06,14.149c.025,0,.045.02.045.045s-.02.045-.045.045-.045-.02-.045-.045.02-.045.045-.045Z" fill="#fed700" fill-rule="evenodd" />
          <path d="M16.154,14.765c.025,0,.045.02.045.045,0,.025-.02.045-.045.045s-.045-.02-.045-.045c0-.025.02-.045.045-.045Z" fill="#fed700" fill-rule="evenodd" />
          <path d="M15.433,14.489c.025,0,.045.02.045.045,0,.025-.02.045-.045.045-.025,0-.045-.02-.045-.045,0-.025.02-.045.045-.045Z" fill="#fed700" fill-rule="evenodd" />
          <path d="M14.499,14.96c.025,0,.045.02.045.045s-.02.045-.045.045-.045-.02-.045-.045.02-.045.045-.045Z" fill="#fed700" fill-rule="evenodd" />
          <path d="M14.808,15.262c.19.18.658.218.849-.015.035-.043.018-.04-.016-.04-.133.004-.085-.206.037-.283.164-.105.324-.059.233.12-.024.046-.003.056.031.06.139.019.155.013.287-.012.056-.01.115.008.052.06-.11.093-.007.123.096.129.198.012.29-.004.326-.008.056-.006.054-.011.046.045-.004.028-.003.05.062.033.058-.016.097-.037.13-.053.064-.03.117-.065.134.025.01.056.099.005.135-.009.063-.025.08-.03.082.022.003.078.12.048.178.036.169-.033.498-.168.185-.248-.034-.008-.069-.02-.104-.008-.092.031-.124.001-.05-.061.092-.078.16-.061.259-.008.086.045.158.061.245.056.034-.002.156-.025.08.034-.051.041-.069.031-.13.035-.06.004-.074.013-.121.082-.11.159-.353.205-.535.202-.029,0-.116.002-.116-.035,0-.048-.05-.032-.092-.025-.14.022-.256.041-.4.044-.037,0-.137.005-.099-.061.01-.017.025-.022-.038-.023-.09-.001-.178-.002-.268-.008-.082-.005-.213.009-.146-.11.015-.027.025-.038-.044-.036-.092.002-.128.002-.188-.01-.087-.017-.093.008-.139.07-.18.247-.553.258-.824.185-.081-.022-.143-.046-.177-.128-.022-.054-.017-.105.04-.057h0ZM15.709,15.007c-.083.113.05.16.113.04.051-.098-.051-.127-.113-.04Z" fill="#fed700" fill-rule="evenodd" />
          <path d="M14.849,14.283c-.045.058-.108.135-.201.233-.34.36-.128.526.205.335.052-.03.075-.037.064.015-.072.371.644.446.629-.056-.002-.09-.005-.141-.065-.097-.029.022-.026.074-.024.106.024.394-.603.299-.388.005.025-.035.076-.089.077-.132,0-.028-.033-.01-.071.017-.037.026-.077.061-.09.069-.035.021-.055.023-.039-.013.026-.064.026-.086-.042-.077-.029.004-.054.01-.09.058-.112.151-.392.175-.091-.184.077-.091.161-.177.241-.266.041-.047.117-.124-.012-.097-.063.013-.057.023-.104.084Z" fill="#fed700" fill-rule="evenodd" />
          <path d="M13.609,14.024c-.013.05.005.064.051.085.15.072.163.067.285-.048.077-.072.114-.128.15-.165.039-.041.041-.05.112-.048.071.002.063.024-.006.081-.069.057-.264.241-.31.294-.046.051-.041.094-.007.114.071.041.17-.02.249-.062.075-.04.157-.068.242-.041.076.024.041.053-.003.083-.051.034-.09.069-.132.106-.073.065-.073.067.046.068.141.002.169-.016.256-.118.053-.062.12-.14.17-.19.046-.047.059-.067.109-.07.099-.005.063.039.018.08-.089.083-.167.165-.251.253-.1.105-.131.132-.29.126-.075-.003-.16-.012-.22-.018-.117-.011-.106-.01-.182.081-.117.14-.067-.084-.007-.166.029-.039.043-.042-.031-.088-.051-.032-.028-.035-.092-.021-.041.009-.055.01-.045-.071.004-.033.015-.033-.047-.074-.058-.039-.119-.077-.163-.112-.053-.042-.116-.12-.012-.151.056-.017.129,0,.111.073h0ZM14.196,14.309c-.008,0-.081.019-.1.055-.019.036.099.018.143-.026.044-.044-.043-.028-.043-.028h0ZM14.027,14.432s-.023.03.001.052c.025.022.063-.005.065-.029.003-.025-.023-.053-.067-.022Z" fill="#fed700" fill-rule="evenodd" />
          <path d="M13.314,12.901c-.322.08-.309.463-.147.654.06.071.103.112.133.136.18.138.132-.107.121-.206-.01-.095,0-.163.133-.138.15.028.3.072.401.194.084.102.093.165-.02.239-.102.067-.17.029-.075-.071.049-.051.079-.077.001-.141-.092-.075-.137-.104-.222-.12-.085-.016-.113.007-.088.093.09.321-.238.346-.454.087-.22-.264-.24-.808.22-.775.154.012.052.033-.003.047Z" fill="#fed700" fill-rule="evenodd" />
        </g>
      </g>
    </g>
  </g>
</g></svg>