<?xml version="1.0" encoding="UTF-8"?>
<svg id="Layer_2" data-name="Layer 2" xmlns="http://www.w3.org/2000/svg" viewBox="0 0 33.946 22.631">
  <g id="_Ñëîé_1" data-name="Ñëîé 1">
    <g>
      <g>
        <rect y="16.973" width="33.946" height="5.658" fill="#039"/>
        <rect width="33.946" height="5.658" fill="#039"/>
        <rect y="5.658" width="33.946" height="11.315" fill="red"/>
      </g>
      <g>
        <path d="M10.961,13.528v-.332c0-.012.009-.021.021-.021h.247c.073,0,.139-.03.188-.078.048-.048.078-.114.078-.188v-1.201c0-.064-.026-.122-.068-.164s-.1-.068-.164-.068c-.011,0-.021-.01-.021-.022v-1.077c0-.012.01-.021.021-.021.064,0,.122.026.164.068.009.009.019.02.026.031v-.27c0-.028.012-.054.03-.073.018-.019.044-.03.073-.03.028,0,.054.012.073.03.019.019.03.044.03.073v.029h.184v-.465c0-.017.019-.027.033-.017.037.027.069.062.091.101l.046.079c.012.021.035.034.059.034.038,0,.069-.031.069-.069,0-.01-.002-.021-.007-.03l-.05-.087c-.029-.051-.044-.108-.044-.167,0-.063.017-.124.05-.177.008-.013.028-.014.036,0l.072.125c.005.008.013.013.023.013.014,0,.026-.012.026-.026,0-.004,0-.008-.002-.012l-.117-.203c-.015-.027-.023-.057-.023-.088,0-.065.035-.124.091-.155.014-.007.031.002.031.018v.113c0,.023.018.041.041.041s.041-.018.041-.041c0-.007-.001-.013-.004-.019l-.059-.102c-.018-.032-.027-.066-.027-.102,0-.035.008-.067.024-.096.016-.03.038-.055.065-.073.014-.01.033,0,.033.017v.1c0,.014.012.026.026.026s.026-.011.026-.026v-.192c0-.079.026-.152.07-.211.042-.056.101-.099.169-.122v-.063c0-.062.051-.113.113-.113.062,0,.113.05.113.113v.063c.068.023.126.066.169.122.044.059.071.132.071.211v.192c0,.014.012.026.026.026.014,0,.026-.011.026-.026v-.1c0-.017.02-.027.033-.017.027.019.05.044.066.073.015.029.024.061.024.096,0,.036-.009.071-.027.102l-.059.102c-.003.006-.004.012-.004.019,0,.023.018.041.041.041.023,0,.041-.018.042-.041v-.113c0-.016.017-.026.031-.018.056.031.091.091.091.155,0,.031-.008.061-.023.088l-.117.203s-.003.008-.003.012c0,.014.012.026.026.026.009,0,.018-.005.022-.013l.072-.125c.008-.014.028-.014.036,0,.033.053.05.114.05.177,0,.059-.016.116-.044.167l-.05.087c-.004.009-.006.02-.006.03,0,.038.031.069.069.069.025,0,.047-.013.059-.034l.045-.079c.023-.039.055-.074.091-.101.014-.01.033,0,.033.017v.841h.186c.004-.02.014-.038.028-.052.018-.019.044-.03.073-.03s.054.012.073.03c.014.014.024.032.028.052h1.38v-.797c0-.012.01-.021.021-.021.051,0,.097.021.131.054.033.034.054.08.054.131v.124h.143c.015,0,.029-.006.039-.016s.016-.024.016-.039v-.146c0-.038-.015-.072-.04-.097-.025-.024-.059-.041-.097-.041-.012,0-.021-.009-.021-.021v-.303c0-.012.009-.021.021-.021.084,0,.16.035.216.09.018.018.035.039.048.061,0-.015.008-.024.023-.024.029,0,.055.013.074.032.02.02.032.047.032.077v.263h.045v-.336c0-.018-.007-.034-.02-.047l-.09-.09c-.043-.043-.067-.1-.067-.161,0-.069.032-.135.087-.178.014-.011.035,0,.034.018v.068c0,.034.027.06.06.06s.06-.027.06-.06c0-.01-.002-.019-.006-.027l-.2-.346c-.025-.041-.038-.087-.038-.135,0-.074.032-.144.088-.192.014-.012.035-.002.035.016v.134c0,.047.038.085.085.085.047,0,.085-.038.085-.085,0-.013-.003-.026-.008-.038l-.131-.227c-.02-.034-.029-.073-.029-.112,0-.082.044-.157.116-.197.014-.008.031.003.031.019v.146c0,.033.027.061.06.061s.06-.027.06-.061c0-.009-.002-.019-.006-.027l-.1-.174c-.017-.028-.026-.06-.026-.093,0-.071.042-.135.107-.164.014-.007.03.005.03.02v.079c0,.027.022.049.049.049.027,0,.049-.022.049-.049,0-.008-.001-.015-.005-.022l-.086-.149c-.015-.025-.023-.053-.023-.081,0-.061.035-.117.091-.143.015-.007.031.005.03.02v.081c0,.021.017.038.039.038s.038-.017.038-.038c-.002-.045-.047-.181-.061-.236-.003-.015.004-.028.02-.028h.061l-.042-.156c-.004-.013.007-.027.02-.027h.072l-.033-.122c-.004-.013.006-.027.02-.027h.139l-.033-.123c-.004-.014.007-.027.02-.027h.135v-.099c0-.038.016-.072.04-.097.025-.025.059-.04.097-.04s.072.015.097.04c.025.025.04.059.04.097v.099h.135c.014,0,.024.013.02.027l-.033.123h.139c.014,0,.024.013.02.027l-.033.122h.072c.014,0,.024.013.02.027l-.042.156h.061c.017,0,.024.013.02.028-.015.055-.059.191-.062.236,0,.021.017.038.039.038.022,0,.039-.017.039-.038v-.081c0-.016.016-.027.03-.02.055.026.091.082.091.143,0,.028-.008.056-.022.081l-.086.149c-.003.007-.005.014-.005.022,0,.027.022.049.049.049.027,0,.049-.022.049-.049v-.079c0-.015.015-.026.029-.02.065.029.107.094.107.164,0,.033-.009.065-.026.093l-.1.174c-.004.008-.006.018-.006.027,0,.033.027.061.06.061.034,0,.06-.027.06-.061v-.146c0-.016.017-.027.031-.019.071.04.116.115.116.197,0,.039-.01.078-.03.112l-.131.227c-.006.012-.009.025-.009.038,0,.047.038.085.085.085.047,0,.085-.038.085-.085v-.134c0-.018.021-.028.035-.016.056.048.088.118.088.192,0,.048-.013.094-.039.135l-.2.346c-.004.008-.006.018-.006.027,0,.034.027.06.06.06s.06-.027.06-.06v-.068c-.001-.018.02-.029.034-.018.055.043.087.109.087.178,0,.061-.024.118-.067.161l-.09.09c-.013.013-.02.029-.02.047v.336h.045v-.263c0-.03.012-.057.032-.077.019-.019.045-.031.074-.032.015,0,.023.008.023.024.013-.022.029-.043.048-.061.055-.055.132-.09.216-.09.012,0,.021.01.021.021v.303c0,.012-.009.021-.021.021-.037,0-.072.016-.097.041-.025.025-.04.059-.04.097v.146c0,.015.006.029.016.039.01.01.024.016.039.016h.143v-.124c0-.051.021-.097.054-.131.034-.033.08-.054.131-.054.012,0,.021.009.021.021v.797h1.38c.004-.02.014-.038.028-.052.019-.019.044-.03.073-.03s.054.012.073.03c.014.014.024.032.028.052h.186v-.841c0-.017.02-.027.033-.017.037.027.069.062.091.101l.046.079c.012.021.035.034.059.034.038,0,.069-.031.069-.069,0-.01-.002-.021-.007-.03l-.05-.087c-.029-.051-.044-.108-.044-.167,0-.063.017-.124.05-.177.008-.013.028-.014.036,0l.072.125c.005.008.013.013.023.013.014,0,.026-.012.026-.026,0-.004,0-.008-.002-.012l-.117-.203c-.016-.027-.023-.057-.023-.088,0-.065.035-.124.091-.155.014-.007.031.002.031.018v.113c0,.023.018.041.041.041.023,0,.041-.018.041-.041,0-.007-.001-.013-.004-.019l-.059-.102c-.018-.032-.028-.066-.028-.102,0-.035.009-.067.024-.096.016-.03.038-.055.065-.073.014-.01.033,0,.033.017v.1c0,.014.011.026.025.026.014,0,.026-.011.026-.026v-.192c0-.079.026-.152.071-.211.042-.056.101-.099.168-.122v-.063c0-.062.051-.113.113-.113s.113.05.113.113v.063c.068.023.126.066.169.122.044.059.071.132.071.211v.192c0,.014.011.026.025.026s.025-.011.026-.026v-.1c0-.017.019-.027.033-.017.027.019.05.044.066.073.015.029.023.061.023.096,0,.036-.009.071-.027.102l-.059.102c-.003.006-.004.012-.004.019,0,.023.018.041.041.041.023,0,.041-.018.041-.041v-.113c0-.016.017-.026.031-.018.056.031.091.091.091.155,0,.031-.008.061-.024.088l-.117.203s-.002.008-.002.012c0,.014.012.026.026.026.009,0,.018-.005.023-.013l.072-.125c.008-.014.028-.014.036,0,.033.053.05.114.05.177,0,.059-.015.116-.044.167l-.05.087c-.004.009-.007.02-.007.03,0,.038.031.069.069.069.025,0,.047-.013.059-.034l.046-.079c.023-.039.054-.074.091-.101.014-.01.033,0,.033.017v.465h.184v-.029c0-.029.012-.054.03-.073.018-.018.045-.03.073-.03.028,0,.054.012.073.03.019.019.03.044.03.073v.27c.007-.011.017-.022.026-.031.042-.042.1-.068.164-.068.012,0,.021.009.021.021v1.077c0,.012-.01.022-.021.022-.063,0-.122.026-.164.068s-.068.1-.068.164v1.201c0,.073.03.139.078.188s.115.078.188.078h.247c.012,0,.021.009.021.021v.332h.192c.012,0,.021.009.021.021v.432h.342c.012,0,.021.009.021.021v.582h.347c.012,0,.021.01.021.021v.693h.344c.012,0,.021.009.021.021v.714c0,.012-.01.021-.021.021h-14.602c-.012,0-.021-.01-.021-.021v-.714c0-.012.009-.021.021-.021h.344v-.693c0-.012.01-.021.021-.021h.347v-.582c0-.012.009-.021.021-.021h.342v-.432c0-.012.01-.021.021-.021h.192Z" fill-rule="evenodd"/>
        <path d="M21.202,10.927c-.054.054-.1.116-.139.182-.041.071-.074.148-.095.23-.004.016-.025.021-.036.008-.039-.047-.084-.088-.133-.123-.041-.028-.085-.052-.132-.071v.327h1.071v-.327c-.047.019-.091.043-.132.071-.05.035-.094.076-.133.123-.011.013-.032.008-.036-.008-.021-.081-.053-.159-.095-.23-.038-.066-.085-.127-.139-.182Z" fill="#fff" fill-rule="evenodd"/>
        <path d="M20.856,11.214c.029.023.057.048.082.076.022-.071.052-.139.088-.202.044-.076.098-.145.161-.206.004-.004.009-.006.015-.006.005,0,.01.002.014.006.062.061.116.13.161.206.037.063.067.131.088.202.025-.027.053-.053.082-.076-.027-.101-.071-.195-.129-.278-.059-.085-.133-.159-.217-.218-.084.06-.158.134-.217.218-.058.084-.102.177-.13.279Z" fill="#fff" fill-rule="evenodd"/>
        <path d="M20.874,11.043c.022-.046.048-.091.077-.132.065-.093.146-.173.239-.237.007-.005.017-.005.024,0,.093.064.174.145.239.238.029.042.055.086.077.132l.201-.202v-.291c-.033.019-.065.04-.096.064-.04.031-.076.066-.109.103-.012.014-.034.007-.037-.011-.016-.1-.052-.193-.102-.276-.049-.081-.112-.152-.185-.21-.074.058-.137.13-.186.21-.05.083-.086.177-.102.276-.003.018-.025.024-.037.01-.033-.037-.069-.072-.109-.103-.03-.023-.062-.045-.096-.064v.291l.201.202Z" fill="#fff" fill-rule="evenodd"/>
        <path d="M20.882,10.654c.02-.088.053-.17.099-.245.054-.09.125-.168.209-.232.007-.006.017-.006.025,0,.084.063.154.142.209.232.045.075.079.157.099.245l.209-.267v-.324c-.034.02-.066.043-.096.069-.039.033-.074.071-.105.112-.011.014-.034.009-.037-.009-.02-.105-.056-.204-.107-.294-.049-.086-.111-.164-.183-.231-.073.067-.135.145-.183.231-.051.09-.088.189-.107.294-.003.018-.027.023-.038.008-.031-.041-.066-.078-.105-.111-.03-.026-.062-.049-.096-.069v.324l.209.267Z" fill="#fff" fill-rule="evenodd"/>
        <path d="M20.944,9.993c.012-.025.024-.049.038-.073.054-.096.124-.182.205-.255.008-.007.02-.008.028,0,.082.073.151.159.206.255.014.024.026.048.037.073l.143-.183v-.193c-.025.01-.048.022-.07.037-.03.02-.057.044-.08.072-.011.014-.033.008-.037-.009-.012-.061-.039-.116-.077-.162-.037-.045-.083-.081-.136-.104-.053.024-.1.06-.137.104-.038.046-.065.102-.077.162-.003.018-.027.023-.038.008-.023-.027-.05-.051-.079-.071-.022-.014-.046-.027-.07-.037v.193l.143.183Z" fill="#fff" fill-rule="evenodd"/>
        <path d="M20.983,9.605c.014-.028.031-.054.05-.078.042-.052.098-.094.161-.12.005-.002.011-.002.016,0,.063.026.118.068.161.12.019.024.036.05.05.078l.104-.132v-.146c-.012.008-.024.016-.035.025-.021.017-.04.035-.058.055-.01.011-.028.008-.035-.005-.021-.045-.05-.086-.085-.121-.032-.033-.069-.06-.11-.082-.041.021-.078.049-.11.082-.035.035-.063.076-.085.121-.007.014-.026.016-.035.004-.017-.019-.036-.037-.057-.054-.011-.009-.023-.018-.035-.025v.146l.104.132Z" fill="#fff" fill-rule="evenodd"/>
        <path d="M21.034,9.282c.008-.011.018-.021.027-.03.038-.038.082-.071.131-.095.006-.003.012-.003.018,0,.049.024.093.056.131.095.01.01.019.02.027.03l.044-.057v-.148l-.016.01c-.014.01-.028.02-.04.032-.011.011-.03.006-.035-.009-.011-.034-.028-.066-.05-.093-.02-.025-.044-.046-.071-.062-.027.016-.052.037-.071.062-.022.027-.04.058-.05.093-.005.016-.024.02-.035.008-.012-.012-.025-.022-.039-.032-.005-.003-.01-.006-.016-.01v.148l.044.057Z" fill="#fff" fill-rule="evenodd"/>
        <path d="M21.071,9.029c.008-.014.017-.026.027-.038.026-.032.058-.058.094-.078.006-.003.014-.003.02,0,.036.02.068.046.094.078.01.012.019.025.027.038l.081-.104v-.077c-.005.003-.011.006-.016.01-.014.009-.028.02-.039.032-.012.012-.031.006-.035-.009-.01-.033-.027-.063-.049-.088-.02-.023-.045-.043-.073-.057-.028.014-.052.033-.073.057-.022.025-.039.055-.049.088-.004.016-.023.021-.035.009-.012-.012-.025-.022-.039-.032-.005-.003-.011-.007-.016-.01v.077l.081.104Z" fill="#fff" fill-rule="evenodd"/>
        <path d="M20.116,10.632v.388c.027.023.053.048.076.075.043.049.079.104.107.164v-.627h-.184Z" fill="#fff" fill-rule="evenodd"/>
        <path d="M19.952,10.963v.392h.34c-.028-.087-.073-.165-.132-.232-.058-.066-.129-.121-.209-.16Z" fill="#fff" fill-rule="evenodd"/>
        <rect x="22.104" y="10.257" width=".184" height=".13" fill="#fff"/>
        <path d="M22.287,11.02v-.592h-.184v.83c.028-.06.064-.115.107-.164.024-.027.049-.052.076-.075Z" fill="#fff" fill-rule="evenodd"/>
        <path d="M22.451,10.917v-.732c0-.017-.007-.032-.018-.043-.011-.011-.026-.018-.043-.018-.016,0-.032.007-.043.018-.011.011-.018.026-.018.043v.802c.038-.028.079-.051.122-.07Z" fill="#fff" fill-rule="evenodd"/>
        <path d="M22.111,11.355h.34v-.392c-.08.039-.151.094-.209.16-.058.067-.104.146-.131.232Z" fill="#fff" fill-rule="evenodd"/>
        <path d="M21.779,11.355h.282v-1.561c-.018.019-.033.037-.046.06l-.046.079c-.019.034-.056.055-.096.055-.061,0-.111-.05-.111-.111,0-.017.004-.034.011-.049l.052-.09c.026-.044.039-.094.039-.146,0-.043-.009-.085-.027-.123l-.053.092c-.012.021-.034.034-.059.034-.037,0-.068-.031-.068-.068,0-.01.002-.021.007-.031l.118-.205c.012-.02.018-.043.018-.067,0-.036-.014-.069-.039-.095v.071c0,.046-.037.083-.083.083-.046,0-.083-.037-.083-.083,0-.013.003-.026.009-.037.019-.035.042-.07.06-.105.014-.025.022-.052.022-.081,0-.028-.007-.054-.019-.076-.005-.011-.012-.02-.02-.029v.053c0,.037-.03.068-.068.068s-.068-.03-.068-.068v-.192c0-.07-.023-.134-.062-.186-.04-.053-.096-.093-.161-.111-.009-.002-.016-.011-.016-.02v-.079c0-.039-.032-.071-.071-.071-.039,0-.071.032-.071.071v.079c0,.01-.007.018-.016.02-.065.019-.121.059-.161.111-.039.052-.062.116-.062.186v.192c0,.037-.03.068-.068.068s-.068-.03-.068-.068v-.053c-.007.009-.014.019-.02.029-.012.023-.019.048-.019.076,0,.029.007.056.022.081.018.035.041.069.06.105.006.011.009.024.009.037,0,.046-.037.083-.084.083-.046,0-.083-.037-.083-.083v-.071c-.025.026-.039.059-.039.095,0,.024.006.047.018.067l.118.205c.005.009.007.02.007.031,0,.038-.031.068-.068.068-.024,0-.047-.013-.059-.034l-.053-.092c-.018.038-.027.081-.027.123,0,.052.013.101.038.146l.052.09c.007.015.011.032.011.049,0,.061-.05.111-.111.111-.039,0-.076-.021-.096-.055l-.046-.079c-.013-.023-.028-.041-.046-.06v1.561h.282v-.233c0-.015.016-.025.029-.019.059.021.115.05.166.085.01-.035.022-.07.036-.103l-.219-.219s-.006-.009-.006-.015v-.335c0-.016.016-.026.031-.019.028.014.055.03.081.047l-.106-.136s-.006-.009-.006-.014v-.367c0-.016.017-.026.031-.019.048.026.093.057.134.092.03.026.058.053.084.083.012-.05.027-.099.046-.146l-.161-.206s-.006-.009-.006-.014v-.23c0-.014.013-.024.027-.02.039.012.075.029.108.051.022.015.043.032.062.051.002-.007.004-.014.006-.02l-.121-.155s-.005-.009-.005-.014v-.19c0-.016.017-.026.031-.018.025.014.05.03.073.048.015.012.029.024.042.038.008-.014.016-.027.025-.04l-.055-.07s-.006-.009-.006-.015v-.189c0-.015.015-.025.029-.019.018.008.036.017.052.028.005.003.01.007.015.011l-.092-.117s-.004-.008-.004-.013v-.117c0-.016.016-.025.03-.019.018.007.035.016.051.026.008.005.015.01.022.016.012-.027.028-.052.047-.074.026-.03.059-.054.095-.071.003-.001.006-.002.009-.002.003,0,.006,0,.009.002.037.017.069.041.095.071.019.022.035.047.047.074.007-.006.014-.011.022-.016.016-.011.033-.019.051-.026.014-.007.03.003.03.019v.117s-.001.009-.005.013l-.092.117c.005-.003.01-.007.015-.011.016-.01.033-.019.051-.027.014-.007.031.003.031.019v.189s-.002.009-.005.013l-.056.071c.009.013.018.026.025.04.014-.013.027-.026.042-.038.022-.017.046-.033.071-.047.014-.008.032.001.032.018v.19s-.002.009-.005.013l-.122.157c.002.007.005.013.006.02.019-.019.04-.036.062-.051.033-.022.068-.039.107-.051.014-.006.029.004.029.02v.23s-.002.009-.005.013l-.162.207c.019.047.034.095.046.146.026-.03.054-.058.084-.083.041-.035.085-.065.133-.091.014-.009.033,0,.033.018v.367s-.002.009-.005.013l-.107.137c.025-.017.052-.033.08-.046.014-.008.032.001.032.018v.335c0,.005-.002.011-.006.015l-.219.219c.014.033.026.068.036.103.051-.035.107-.064.166-.085.014-.006.03.004.03.019v.233Z" fill="#fff" fill-rule="evenodd"/>
        <path d="M12.744,10.927c.054.054.1.116.139.182.041.071.074.148.095.23.004.016.025.021.037.008.039-.047.083-.088.133-.123.041-.028.085-.052.132-.071v.327h-1.071v-.327c.047.019.091.043.132.071.05.035.095.076.133.123.011.013.032.008.037-.008.021-.081.054-.159.095-.23.038-.066.085-.127.139-.182Z" fill="#fff" fill-rule="evenodd"/>
        <path d="M13.09,11.214c-.029.023-.057.048-.082.076-.022-.071-.052-.139-.089-.202-.044-.076-.098-.145-.16-.206-.004-.004-.009-.006-.015-.006-.005,0-.01.002-.014.006-.062.061-.116.13-.161.206-.037.063-.067.131-.088.202-.026-.027-.053-.053-.083-.076.027-.101.071-.195.13-.278.059-.085.132-.159.216-.218.084.06.158.134.217.218.058.084.103.177.129.279Z" fill="#fff" fill-rule="evenodd"/>
        <path d="M13.072,11.043c-.022-.046-.048-.091-.077-.132-.065-.093-.146-.173-.239-.237-.007-.005-.017-.005-.024,0-.093.064-.174.145-.239.238-.029.042-.055.086-.077.132l-.201-.202v-.291c.033.019.065.04.096.064.04.031.076.066.109.103.012.014.034.007.037-.011.017-.1.052-.193.102-.276.049-.081.112-.152.185-.21.074.058.137.13.186.21.05.083.086.177.102.276.003.018.025.024.037.01.033-.037.069-.072.109-.103.03-.023.062-.045.096-.064v.291l-.202.202Z" fill="#fff" fill-rule="evenodd"/>
        <path d="M13.064,10.654c-.02-.088-.054-.17-.099-.245-.054-.09-.126-.168-.209-.232-.007-.006-.017-.006-.025,0-.083.063-.154.142-.209.232-.045.075-.079.157-.099.245l-.209-.267v-.324c.034.02.066.043.096.069.039.033.075.071.106.112.011.014.034.009.037-.009.02-.105.056-.204.107-.294.049-.086.111-.164.183-.231.073.067.135.145.183.231.051.09.088.189.107.294.003.018.027.023.038.008.031-.041.066-.078.105-.111.03-.026.062-.049.096-.069v.324l-.209.267Z" fill="#fff" fill-rule="evenodd"/>
        <path d="M13.001,9.993c-.011-.025-.024-.049-.037-.073-.054-.096-.124-.182-.206-.255-.008-.007-.02-.008-.028,0-.082.073-.151.159-.206.255-.014.024-.026.048-.038.073l-.143-.183v-.193c.025.01.048.022.07.037.03.02.057.044.08.072.012.014.033.008.037-.009.012-.061.039-.116.077-.162.037-.045.083-.081.136-.104.053.024.1.06.137.104.038.046.065.102.077.162.003.018.027.023.037.008.023-.027.05-.051.08-.071.022-.014.045-.027.07-.037v.193l-.143.183Z" fill="#fff" fill-rule="evenodd"/>
        <path d="M12.963,9.605c-.014-.028-.031-.054-.051-.078-.042-.052-.098-.094-.161-.12-.005-.002-.011-.002-.016,0-.063.026-.118.068-.161.12-.019.024-.036.05-.05.078l-.103-.132v-.146c.012.008.024.016.035.025.021.017.04.035.057.055.01.011.028.008.035-.005.021-.045.05-.086.085-.121.032-.033.069-.06.11-.082.041.021.078.049.11.082.035.035.064.076.085.121.007.014.026.016.035.004.017-.019.036-.037.057-.054.011-.009.023-.018.035-.025v.146l-.104.132Z" fill="#fff" fill-rule="evenodd"/>
        <path d="M12.912,9.282c-.009-.011-.018-.021-.028-.03-.038-.038-.082-.071-.131-.095-.006-.003-.012-.003-.019,0-.049.024-.093.056-.131.095-.009.01-.019.02-.027.03l-.044-.057v-.148l.016.01c.014.01.027.02.04.032.011.011.03.006.035-.009.011-.034.028-.066.05-.093.02-.025.044-.046.071-.062.027.016.051.037.071.062.022.027.04.058.05.093.005.016.024.02.035.008.012-.012.025-.022.039-.032.005-.003.01-.006.016-.01v.148l-.044.057Z" fill="#fff" fill-rule="evenodd"/>
        <path d="M12.875,9.029c-.008-.014-.017-.026-.027-.038-.026-.032-.058-.058-.094-.078-.006-.003-.014-.003-.02,0-.036.02-.068.046-.094.078-.01.012-.019.025-.027.038l-.081-.104v-.077c.005.003.011.006.016.01.014.009.027.02.039.032.012.012.031.006.035-.009.01-.033.027-.063.049-.088.02-.023.045-.043.073-.057.028.014.052.033.073.057.022.025.039.055.049.088.004.016.024.021.035.009.012-.012.025-.022.039-.032.005-.003.011-.007.016-.01v.077l-.081.104Z" fill="#fff" fill-rule="evenodd"/>
        <path d="M13.83,10.632v.388c-.027.023-.053.048-.076.075-.043.049-.079.104-.107.164v-.627h.184Z" fill="#fff" fill-rule="evenodd"/>
        <path d="M13.994,10.963v.392h-.341c.028-.087.073-.165.132-.232.058-.066.129-.121.209-.16Z" fill="#fff" fill-rule="evenodd"/>
        <rect x="11.659" y="10.257" width=".184" height=".13" fill="#fff"/>
        <path d="M11.659,11.02v-.592h.184v.83c-.028-.06-.065-.115-.107-.164-.024-.027-.049-.052-.076-.075Z" fill="#fff" fill-rule="evenodd"/>
        <path d="M11.494,10.917v-.732c0-.017.007-.032.018-.043.011-.011.026-.018.043-.018.016,0,.032.007.043.018.011.011.018.026.018.043v.802c-.038-.028-.079-.051-.122-.07Z" fill="#fff" fill-rule="evenodd"/>
        <path d="M11.835,11.355h-.341v-.392c.08.039.151.094.209.16.058.067.104.146.132.232Z" fill="#fff" fill-rule="evenodd"/>
        <path d="M12.167,11.355h-.282v-1.561c.018.019.033.037.046.06l.045.079c.02.034.057.055.096.055.061,0,.111-.05.111-.111,0-.017-.004-.034-.011-.049l-.052-.09c-.025-.044-.039-.094-.039-.146,0-.043.009-.085.027-.123l.054.092c.012.021.034.034.059.034.037,0,.068-.031.068-.068,0-.01-.002-.021-.007-.031l-.118-.205c-.012-.02-.018-.043-.018-.067,0-.036.014-.069.038-.095v.071c0,.046.037.083.083.083s.083-.037.083-.083c0-.013-.003-.026-.009-.037-.019-.035-.042-.07-.06-.105-.014-.025-.022-.052-.022-.081,0-.028.007-.054.019-.076.005-.011.012-.02.02-.029v.053c0,.037.03.068.068.068s.068-.03.068-.068v-.192c0-.07.023-.134.062-.186.04-.053.096-.093.161-.111.009-.002.016-.011.016-.02v-.079c0-.039.031-.071.071-.071s.071.032.071.071v.079c0,.01.007.018.016.02.065.019.122.059.161.111.039.052.062.116.062.186v.192c0,.037.031.068.068.068s.068-.03.068-.068v-.053c.007.009.014.019.02.029.012.023.019.048.019.076,0,.029-.007.056-.022.081-.018.035-.041.069-.06.105-.006.011-.009.024-.009.037,0,.046.037.083.083.083.046,0,.084-.037.084-.083v-.071c.025.026.039.059.039.095,0,.024-.006.047-.018.067l-.118.205c-.005.009-.007.02-.007.031,0,.038.031.068.068.068.024,0,.047-.013.059-.034l.053-.092c.018.038.027.081.027.123,0,.052-.013.101-.039.146l-.052.09c-.007.015-.011.032-.011.049,0,.061.05.111.111.111.039,0,.076-.021.096-.055l.045-.079c.014-.023.028-.041.046-.06v1.561h-.282v-.233c0-.015-.016-.025-.029-.019-.059.021-.115.05-.166.085-.01-.035-.022-.07-.036-.103l.219-.219s.006-.009.006-.015v-.335c0-.016-.016-.026-.03-.019-.028.014-.055.03-.081.047l.106-.136s.005-.009.005-.014v-.367c0-.016-.017-.026-.031-.019-.048.026-.093.057-.134.092-.03.026-.058.053-.084.083-.012-.05-.027-.099-.046-.146l.161-.206s.005-.009.005-.014v-.23c0-.014-.013-.024-.027-.02-.039.012-.075.029-.108.051-.022.015-.043.032-.062.051-.002-.007-.004-.014-.006-.02l.121-.155s.006-.009.006-.014v-.19c0-.016-.017-.026-.031-.018-.025.014-.05.03-.073.048-.015.012-.029.024-.042.038-.008-.014-.016-.027-.025-.04l.055-.07s.006-.009.006-.015v-.189c0-.015-.015-.025-.029-.019-.018.008-.035.017-.052.028-.005.003-.01.007-.015.011l.092-.117s.004-.008.004-.013v-.117c0-.016-.016-.025-.03-.019-.018.007-.035.016-.051.026-.008.005-.015.01-.022.016-.012-.027-.027-.052-.047-.074-.026-.03-.059-.054-.095-.071-.003-.001-.006-.002-.009-.002-.003,0-.006,0-.008.002-.037.017-.069.041-.096.071-.019.022-.035.047-.046.074-.007-.006-.014-.011-.022-.016-.016-.011-.033-.019-.051-.026-.014-.007-.03.003-.03.019v.117s.001.009.005.013l.091.117s-.01-.007-.015-.011c-.016-.01-.033-.019-.051-.027-.014-.007-.031.003-.031.019v.189s.001.009.005.013l.055.071c-.009.013-.017.026-.025.04-.013-.013-.027-.026-.042-.038-.022-.017-.046-.033-.071-.047-.014-.008-.032.001-.032.018v.19s.002.009.005.013l.122.157c-.002.007-.005.013-.006.02-.019-.019-.04-.036-.062-.051-.033-.022-.068-.039-.107-.051-.014-.006-.029.004-.029.02v.23s.002.009.005.013l.162.207c-.019.047-.035.095-.046.146-.026-.03-.054-.058-.083-.083-.041-.035-.085-.065-.133-.091-.014-.009-.033,0-.033.018v.367s.002.009.005.013l.107.137c-.026-.017-.052-.033-.08-.046-.014-.008-.032.001-.032.018v.335c0,.005.002.011.006.015l.219.219c-.014.033-.026.068-.036.103-.051-.035-.107-.064-.165-.085-.014-.006-.029.004-.029.019v.233Z" fill="#fff" fill-rule="evenodd"/>
        <path d="M13.872,10.987v-.376c0-.017.007-.032.018-.043.011-.011.026-.018.043-.018.017,0,.032.007.043.018.011.011.018.026.018.043v.305c-.043.019-.084.043-.122.07Z" fill="#fff" fill-rule="evenodd"/>
        <path d="M15.976,11.233h-.377c-.012,0-.021-.01-.021-.021v-1.254c0-.039-.016-.075-.042-.101-.021-.021-.049-.036-.08-.04v1.539h.662c-.004-.031-.019-.059-.04-.08-.026-.026-.062-.042-.101-.042Z" fill="#fff" fill-rule="evenodd"/>
        <path d="M16.432,11.106c-.052-.032-.108-.06-.166-.084-.131-.053-.274-.082-.424-.082h-.222v.251h.812v-.085Z" fill="#fff" fill-rule="evenodd"/>
        <path d="M15.784,10.122v.776h.058c.035,0,.069.001.103.005v-1.197c0-.073-.03-.138-.078-.186-.043-.043-.101-.071-.165-.076v.261c.04.005.078.024.106.051.033.032.053.077.053.127v.146c0,.027-.011.051-.029.069-.013.013-.029.022-.048.026Z" fill="#fff" fill-rule="evenodd"/>
        <rect x="15.62" y="10.124" width=".122" height=".774" fill="#fff"/>
        <path d="M16.474,10.94v.143c.053.034.104.073.151.115.008-.092.033-.179.071-.257h-.222Z" fill="#fff" fill-rule="evenodd"/>
        <path d="M15.986,10.444v.463c.103.013.202.039.295.077.052.021.102.046.15.074v-.117h-.061c-.012,0-.021-.01-.021-.021v-.097c-.043-.084-.098-.16-.164-.227-.059-.059-.125-.111-.199-.152Z" fill="#fff" fill-rule="evenodd"/>
        <path d="M16.715,7.639h-.237c-.044,0-.081-.036-.081-.081v-.042c-.023.022-.036.052-.036.084,0,.021.005.041.016.059.025.049.06.103.088.152.006.013.01.027.01.041,0,.018-.005.035-.014.049h.167v-.157c0-.013.01-.021.023-.021.039,0,.075.01.108.025.022.01.042.024.061.04.003-.01.006-.02.01-.03l-.103-.06c-.007-.004-.01-.011-.01-.018v-.042Z" fill="#fff" fill-rule="evenodd"/>
        <path d="M16.837,8.056l-.194-.112h-.259c-.05,0-.091-.041-.091-.091v-.042c-.033.027-.052.066-.052.108,0,.025.006.05.02.071.028.056.069.121.102.176.007.015.011.031.011.046,0,.023-.007.044-.019.061h.226v-.188c0-.014.013-.024.027-.02.044.008.084.024.12.047.025.016.048.035.069.057.012-.039.026-.077.042-.114Z" fill="#fff" fill-rule="evenodd"/>
        <path d="M16.737,8.523l-.152-.152s-.006-.01-.006-.015v-.041h-.309c-.056,0-.103-.046-.103-.103v-.107c-.04.035-.063.085-.063.139,0,.032.008.063.024.091l.132.229c.009.018.013.037.013.057,0,.033-.012.062-.032.085h.205v-.109c0-.014.011-.022.025-.021.047.005.09.022.128.047.026.017.048.039.068.063.018-.057.042-.112.071-.164Z" fill="#fff" fill-rule="evenodd"/>
        <path d="M16.59,8.898h-.123c-.012,0-.021-.009-.021-.021v-.129h-.299c-.07,0-.127-.057-.127-.127v-.08c-.025.036-.039.078-.039.122,0,.04.011.079.032.113.052.107.14.243.202.35.007.014.011.03.011.046,0,.022-.007.043-.02.06h.207v-.101c0-.014.012-.022.025-.02.05.005.095.022.135.048.028.018.053.041.074.068.018-.058.042-.112.071-.164l-.128-.165Z" fill="#fff" fill-rule="evenodd"/>
        <path d="M16.838,8.898h-.195l.098.126c.004-.007.009-.015.014-.022.025-.036.052-.071.082-.104Z" fill="#fff" fill-rule="evenodd"/>
        <path d="M16.65,9.64c.015-.028.031-.054.049-.08.028-.042.059-.082.093-.119h-.249c.025.03.048.062.066.097.017.032.031.066.041.102Z" fill="#fff" fill-rule="evenodd"/>
        <path d="M16.161,9.898h.099v-.175c0-.014.012-.022.025-.021.063.007.121.029.171.062.039.025.073.057.1.095.017-.056.038-.11.064-.162-.01-.049-.026-.095-.049-.138-.023-.043-.052-.083-.086-.117h-.051c-.012,0-.021-.009-.021-.021v-.146h-.29c-.057,0-.103-.046-.103-.102v-.018c-.024.032-.036.071-.036.111,0,.049.019.096.054.131l.09.09c.02.02.032.048.032.077v.336Z" fill="#fff" fill-rule="evenodd"/>
        <path d="M16.449,10.569v-.061c0-.074-.012-.144-.034-.211-.022-.066-.053-.127-.092-.182h-.042c-.012,0-.021-.009-.021-.021v-.155h-.208c-.012,0-.021-.009-.021-.021v-.284c0-.018-.008-.035-.02-.047-.007-.007-.016-.013-.026-.016v.823c.085.045.162.103.229.17.051.051.096.109.134.17v-.199c0-.017.02-.027.034-.017.023.015.045.031.066.048Z" fill="#fff" fill-rule="evenodd"/>
        <path d="M16.374,10.116c.034.052.061.108.081.168.023.071.036.146.036.224v.1s.008.008.012.012c.019.021.036.043.052.065.009-.148.045-.289.104-.418.024-.053.052-.104.083-.152h-.367Z" fill="#fff" fill-rule="evenodd"/>
        <path d="M17.97,11.233h.377c.012,0,.021-.01.021-.021v-1.254c0-.039.016-.075.042-.101.021-.021.049-.036.08-.04v1.539h-.662c.004-.031.019-.059.04-.08.026-.026.062-.042.101-.042Z" fill="#fff" fill-rule="evenodd"/>
        <path d="M17.514,11.106c.053-.032.108-.06.166-.084.131-.053.274-.082.424-.082h.222v.251h-.812v-.085Z" fill="#fff" fill-rule="evenodd"/>
        <path d="M18.162,10.122v.776h-.057c-.035,0-.069.001-.103.005v-1.197c0-.073.029-.138.077-.186.043-.043.101-.071.165-.076v.261c-.04.005-.078.024-.105.051-.032.032-.053.077-.053.127v.146c0,.027.011.051.029.069.013.013.029.022.047.026Z" fill="#fff" fill-rule="evenodd"/>
        <rect x="18.204" y="10.124" width=".122" height=".774" fill="#fff"/>
        <path d="M17.472,10.94v.143c-.054.034-.104.073-.151.115-.008-.092-.033-.179-.072-.257h.222Z" fill="#fff" fill-rule="evenodd"/>
        <path d="M17.959,10.444v.463c-.103.013-.202.039-.295.077-.052.021-.102.046-.151.074v-.117h.061c.012,0,.021-.01.021-.021v-.097c.043-.084.098-.16.164-.227.059-.059.125-.111.199-.152Z" fill="#fff" fill-rule="evenodd"/>
        <path d="M17.231,7.639h.237c.045,0,.081-.036.081-.081v-.042c.023.022.036.052.036.084,0,.021-.005.041-.016.059-.025.049-.06.103-.088.152-.007.013-.01.027-.01.041,0,.018.005.035.014.049h-.167v-.157c0-.013-.011-.021-.023-.021-.039,0-.075.01-.108.025-.022.01-.042.024-.06.04-.003-.01-.006-.02-.01-.03l.103-.06c.006-.004.01-.011.01-.018v-.042Z" fill="#fff" fill-rule="evenodd"/>
        <path d="M17.109,8.056l.194-.112h.259c.05,0,.091-.041.091-.091v-.042c.033.027.052.066.052.108,0,.025-.006.05-.02.071-.028.056-.069.121-.102.176-.007.015-.011.031-.011.046,0,.023.007.044.019.061h-.226v-.188c0-.014-.014-.024-.027-.02-.043.008-.084.024-.12.047-.025.016-.048.035-.069.057-.012-.039-.026-.077-.042-.114Z" fill="#fff" fill-rule="evenodd"/>
        <path d="M17.209,8.523l.152-.152s.006-.01.006-.015v-.041h.309c.057,0,.103-.046.103-.103v-.107c.04.035.063.085.063.139,0,.032-.008.063-.024.091l-.132.229c-.009.018-.014.037-.014.057,0,.033.012.062.033.085h-.204v-.109c0-.014-.012-.022-.025-.021-.047.005-.09.022-.127.047-.025.017-.048.039-.068.063-.018-.057-.042-.112-.071-.164Z" fill="#fff" fill-rule="evenodd"/>
        <path d="M17.356,8.898h.123c.012,0,.021-.009.021-.021v-.129h.299c.07,0,.127-.057.127-.127v-.08c.025.036.039.078.039.122,0,.04-.011.079-.032.113-.052.107-.139.243-.201.35-.007.014-.011.03-.011.046,0,.022.007.043.02.06h-.207v-.101c0-.014-.012-.022-.025-.02-.05.005-.095.022-.135.048-.028.018-.053.041-.074.068-.018-.058-.042-.112-.071-.164l.129-.165Z" fill="#fff" fill-rule="evenodd"/>
        <path d="M17.108,8.898h.195l-.098.126c-.005-.007-.009-.015-.014-.022-.025-.036-.052-.071-.082-.104Z" fill="#fff" fill-rule="evenodd"/>
        <path d="M17.296,9.64c-.015-.028-.032-.054-.049-.08-.028-.042-.059-.082-.093-.119h.249c-.025.03-.048.062-.066.097-.017.032-.031.066-.041.102Z" fill="#fff" fill-rule="evenodd"/>
        <path d="M17.785,9.898h-.099v-.175c0-.014-.012-.022-.025-.021-.063.007-.121.029-.171.062-.039.025-.073.057-.1.095-.017-.056-.038-.11-.064-.162.01-.049.026-.095.049-.138.023-.043.052-.083.086-.117h.051c.012,0,.021-.009.021-.021v-.146h.29c.056,0,.103-.046.103-.102v-.018c.024.032.037.071.037.111,0,.049-.02.096-.054.131l-.09.09c-.02.02-.032.048-.032.077v.336Z" fill="#fff" fill-rule="evenodd"/>
        <path d="M17.497,10.569v-.061c0-.074.012-.144.034-.211.021-.066.053-.127.092-.182h.042c.012,0,.021-.009.021-.021v-.155h.207c.012,0,.021-.009.021-.021v-.284c0-.018.007-.035.019-.047.007-.007.016-.013.026-.016v.823c-.085.045-.162.103-.229.17-.051.051-.096.109-.134.17v-.199c0-.017-.02-.027-.034-.017-.023.015-.045.031-.066.048Z" fill="#fff" fill-rule="evenodd"/>
        <path d="M17.572,10.116c-.034.052-.061.108-.081.168-.023.071-.036.146-.036.224v.1s-.008.008-.012.012c-.019.021-.036.043-.052.065-.009-.148-.045-.289-.104-.418-.024-.053-.052-.104-.083-.152h.367Z" fill="#fff" fill-rule="evenodd"/>
        <path d="M16.973,10.686c-.09.06-.166.141-.22.236-.054.096-.086.205-.089.322,0,.018-.022.028-.036.015-.048-.046-.099-.088-.154-.125v.334h.998v-.334c-.055.037-.107.079-.154.125-.013.013-.035.003-.036-.015-.003-.117-.035-.226-.089-.322-.054-.095-.129-.175-.22-.236Z" fill="#fff" fill-rule="evenodd"/>
        <path d="M16.973,9.908c-.116.105-.211.233-.276.377-.065.144-.102.305-.102.474,0,.008-.004.015-.012.019-.01.005-.023.001-.028-.009-.022-.044-.05-.084-.083-.12-.024-.027-.051-.051-.08-.072v.321h.327c.059-.103.143-.191.243-.255.007-.004.016-.004.023,0,.1.064.184.151.243.255h.327v-.321c-.029.021-.056.045-.08.072-.033.035-.06.076-.082.12-.005.01-.018.014-.028.009-.007-.004-.012-.011-.012-.019,0-.169-.037-.329-.102-.474-.066-.144-.16-.273-.276-.377Z" fill="#fff" fill-rule="evenodd"/>
        <path d="M16.973,9.332c-.092.071-.173.156-.239.253-.067.099-.118.21-.149.329-.001.006-.004.011-.01.014-.01.006-.023.002-.029-.008-.027-.048-.066-.089-.113-.12-.039-.025-.084-.044-.131-.052v.327h.467c.055-.077.118-.148.189-.209.008-.007.02-.007.028,0,.071.062.134.132.189.209h.467v-.327c-.048.008-.092.026-.131.052-.047.03-.086.072-.113.12-.006.01-.019.014-.029.008-.005-.003-.009-.008-.01-.014-.031-.119-.082-.23-.149-.329-.065-.097-.146-.182-.239-.253Z" fill="#fff" fill-rule="evenodd"/>
        <path d="M16.973,8.832h0c-.071.054-.132.12-.182.194-.052.077-.091.162-.115.254-.001.006-.005.011-.01.014-.01.006-.023.002-.029-.008-.021-.037-.051-.069-.087-.092-.028-.018-.06-.032-.095-.038v.244h.376c.04-.04.083-.077.129-.111.007-.005.018-.005.025,0,.046.034.089.071.129.111h.376v-.244c-.034.007-.066.02-.095.038-.036.023-.065.055-.087.092-.006.01-.019.014-.029.008-.005-.003-.009-.008-.01-.014-.024-.092-.063-.178-.115-.254-.05-.074-.111-.139-.182-.194h0Z" fill="#fff" fill-rule="evenodd"/>
        <path d="M16.973,8.309c-.066.052-.123.115-.17.186-.049.074-.086.158-.108.247-.001.005-.005.01-.01.013-.01.005-.023.002-.028-.008-.02-.036-.048-.066-.081-.088-.026-.018-.056-.03-.087-.037v.235h.392c.025-.024.052-.047.08-.067.007-.006.018-.006.025,0,.028.021.055.043.08.067h.392v-.235c-.031.007-.061.019-.087.037-.033.022-.061.053-.081.088-.006.01-.018.014-.029.008-.005-.003-.009-.008-.01-.013-.023-.089-.06-.173-.108-.247-.047-.071-.104-.134-.17-.186Z" fill="#fff" fill-rule="evenodd"/>
        <path d="M16.973,7.906c-.032.043-.06.089-.084.137-.027.056-.049.115-.064.176-.001.005-.004.009-.008.012-.01.007-.023.005-.029-.005-.022-.032-.051-.058-.084-.079-.025-.016-.053-.028-.082-.036v.236l.138.138.009-.013c.052-.08.117-.15.192-.207.008-.006.018-.006.026,0,.075.057.14.127.192.207l.009.013.138-.138v-.236c-.029.008-.057.02-.082.036-.033.021-.061.048-.084.079-.007.009-.02.012-.029.005-.004-.003-.007-.007-.008-.012-.015-.062-.037-.12-.064-.176-.024-.048-.052-.094-.084-.137Z" fill="#fff" fill-rule="evenodd"/>
        <path d="M16.973,7.626c-.03.024-.056.054-.076.087-.022.037-.038.078-.045.122-.002.018-.025.025-.037.011-.02-.025-.046-.045-.075-.059-.022-.011-.046-.017-.071-.02v.144l.185.107c.029-.056.063-.109.102-.159.008-.01.025-.01.033,0,.039.049.073.102.102.159l.185-.107v-.144c-.025.003-.049.01-.071.02-.029.014-.054.034-.075.059-.012.014-.035.007-.037-.011-.007-.044-.023-.085-.045-.122-.02-.033-.046-.063-.076-.087Z" fill="#fff" fill-rule="evenodd"/>
        <path d="M16.973,7.448c-.019.014-.035.03-.049.048-.016.021-.029.046-.038.072-.005.017-.027.021-.037.006-.014-.02-.031-.037-.05-.05-.012-.008-.026-.015-.04-.02v.164l.088.051c.005-.01.01-.019.016-.029.025-.042.059-.079.099-.109.007-.006.018-.006.025,0,.04.029.074.066.099.109.006.01.011.019.016.029l.088-.051v-.164c-.014.005-.028.012-.04.02-.02.013-.037.03-.05.05-.01.015-.033.011-.038-.006-.008-.026-.021-.051-.038-.072-.014-.018-.031-.035-.049-.048Z" fill="#fff" fill-rule="evenodd"/>
        <path d="M16.503,7.336c.02.069.054.165.056.222,0,.014-.004.027-.01.038h.166v-.119c0-.014.014-.024.027-.02.028.006.055.017.078.033.014.009.027.02.038.032.008-.018.019-.035.031-.051.02-.026.044-.048.071-.066.007-.005.016-.005.023,0,.027.018.052.04.071.066.012.016.023.033.031.051.012-.012.024-.023.038-.032.023-.015.05-.027.078-.033.014-.004.027.006.027.02v.119h.166c-.006-.011-.01-.025-.01-.038.003-.057.036-.154.056-.222h-.941Z" fill="#fff" fill-rule="evenodd"/>
        <polygon points="16.542 7.153 16.58 7.294 17.366 7.294 17.403 7.153 16.542 7.153" fill="#fff" fill-rule="evenodd"/>
        <polygon points="16.602 7.005 16.631 7.111 17.315 7.111 17.344 7.005 16.602 7.005" fill="#fff" fill-rule="evenodd"/>
        <polygon points="16.728 6.855 16.757 6.962 17.189 6.962 17.218 6.855 16.728 6.855" fill="#fff" fill-rule="evenodd"/>
        <path d="M16.973,6.618c-.026,0-.05.011-.067.028-.017.017-.028.041-.028.067v.099h.19v-.099c0-.026-.011-.05-.028-.067-.018-.018-.042-.028-.067-.028Z" fill="#fff" fill-rule="evenodd"/>
        <rect x="14.036" y="10.632" width="1.378" height=".075" fill="#fff"/>
        <rect x="14.036" y="10.75" width="1.378" height=".16" fill="#fff"/>
        <rect x="14.036" y="10.951" width="1.378" height=".143" fill="#fff"/>
        <rect x="14.036" y="11.136" width="1.378" height=".219" fill="#fff"/>
        <path d="M15.576,11.519c-.005-.031-.019-.059-.04-.08-.026-.026-.062-.042-.101-.042h-1.42c-.039,0-.075.016-.101.042-.021.021-.036.049-.04.08h1.702Z" fill="#fff" fill-rule="evenodd"/>
        <rect x="13.872" y="11.561" width="1.706" height=".219" fill="#fff"/>
        <rect x="18.368" y="11.561" width="1.706" height=".219" fill="#fff"/>
        <path d="M18.511,11.397c-.039,0-.075.016-.101.042-.021.021-.036.049-.041.08h1.703c-.005-.031-.019-.059-.04-.08-.026-.026-.062-.042-.101-.042h-1.42Z" fill="#fff" fill-rule="evenodd"/>
        <rect x="18.532" y="11.136" width="1.378" height=".219" fill="#fff"/>
        <rect x="18.532" y="10.951" width="1.378" height=".143" fill="#fff"/>
        <rect x="18.532" y="10.75" width="1.378" height=".16" fill="#fff"/>
        <rect x="18.532" y="10.632" width="1.378" height=".075" fill="#fff"/>
        <path d="M22.33,12.888h.08v-1.18c0-.075.031-.144.081-.194.045-.045.105-.075.172-.08v-1.036c-.044.005-.083.025-.113.055-.034.035-.056.082-.056.134v.788c0,.012-.01.021-.021.021-.039,0-.075.016-.101.042-.026.026-.042.061-.042.101v1.348Z" fill="#fff" fill-rule="evenodd"/>
        <rect x="21.993" y="12.005" width=".122" height=".883" fill="#fff"/>
        <path d="M21.851,12.888h.1v-.903c0-.012.009-.021.021-.021h.164c.012,0,.021.009.021.021v.903h.131v-1.348c0-.051.021-.097.054-.131.004-.004.009-.008.014-.012h-.273c-.063,0-.121.026-.163.067-.042.042-.069.101-.069.165v1.259Z" fill="#fff" fill-rule="evenodd"/>
        <path d="M21.639,12.888h.169v-1.259c0-.075.031-.144.08-.194.014-.014.031-.028.048-.039h-.158v.103c0,.012-.011.021-.023.021-.032,0-.061.014-.082.035-.022.021-.035.051-.035.084v1.248Z" fill="#fff" fill-rule="evenodd"/>
        <path d="M21.475,12.888h.122v-1.248c0-.044.018-.084.047-.114l.005-.005h-.174v1.367Z" fill="#fff" fill-rule="evenodd"/>
        <rect x="20.97" y="11.521" width=".463" height="1.367" fill="#fff"/>
        <path d="M20.807,12.888h.122v-1.367h-.175s.003.003.005.005c.029.029.047.069.047.114v1.248Z" fill="#fff" fill-rule="evenodd"/>
        <path d="M20.595,12.888h.169v-1.248c0-.033-.013-.062-.035-.084-.021-.021-.05-.035-.082-.035-.012,0-.023-.009-.023-.021v-.103h-.158c.017.011.033.023.047.038.05.05.082.119.082.195v1.259Z" fill="#fff" fill-rule="evenodd"/>
        <rect x="20.289" y="12.005" width=".122" height=".883" fill="#fff"/>
        <path d="M20.116,12.888h.131v-.903c0-.012.009-.021.021-.021h.164c.012,0,.021.009.021.021v.903h.099v-1.259c0-.064-.026-.122-.068-.164-.042-.041-.101-.068-.164-.068h-.273s.009.008.014.012c.034.034.054.08.054.131v1.348Z" fill="#fff" fill-rule="evenodd"/>
        <rect x="19.952" y="12.005" width=".122" height=".883" fill="#fff"/>
        <rect x="19.556" y="12.005" width=".122" height=".883" fill="#fff"/>
        <rect x="19.16" y="12.005" width=".122" height=".883" fill="#fff"/>
        <rect x="18.764" y="12.005" width=".122" height=".883" fill="#fff"/>
        <path d="M18.532,12.888h.19v-.903c0-.012.01-.021.021-.021h.164c.012,0,.021.009.021.021v.903h.19v-.903c0-.012.01-.021.021-.021h.164c.012,0,.021.009.021.021v.903h.19v-.903c0-.012.01-.021.021-.021h.164c.012,0,.021.009.021.021v.903h.19v-.903c0-.012.01-.021.021-.021h.143v-.142h-1.706v.142h.143c.012,0,.021.009.021.021v.903Z" fill="#fff" fill-rule="evenodd"/>
        <rect x="18.368" y="12.005" width=".122" height=".883" fill="#fff"/>
        <path d="M17.991,12.888h.335v-1.348c0-.051.021-.097.054-.131.004-.005.009-.008.014-.012h-.567v.567h.143c.012,0,.021.009.021.021v.903Z" fill="#fff" fill-rule="evenodd"/>
        <rect x="17.827" y="12.005" width=".122" height=".883" fill="#fff"/>
        <path d="M17.411,12.888h.374v-1.512c0-.051.021-.097.054-.131.004-.004.009-.008.014-.012h-.338v.255c0,.012-.01.021-.022.021-.022,0-.042.01-.057.024-.015.015-.024.036-.024.058v1.296Z" fill="#fff" fill-rule="evenodd"/>
        <path d="M17.246,12.888h.122v-1.296c0-.032.012-.06.031-.083h-.153v1.379Z" fill="#fff" fill-rule="evenodd"/>
        <rect x="16.742" y="11.509" width=".463" height="1.379" fill="#fff"/>
        <path d="M16.578,12.888h.122v-1.379h-.153c.02.022.031.051.031.083v1.296Z" fill="#fff" fill-rule="evenodd"/>
        <path d="M16.161,12.888h.374v-1.296c0-.023-.009-.043-.024-.058-.015-.015-.035-.024-.057-.024-.012,0-.022-.009-.022-.021v-.255h-.338s.009.008.013.012c.034.033.054.08.054.131v1.512Z" fill="#fff" fill-rule="evenodd"/>
        <rect x="15.997" y="12.005" width=".122" height=".883" fill="#fff"/>
        <path d="M15.62,12.888h.335v-.903c0-.012.009-.021.021-.021h.143v-.567h-.567s.009.008.014.012c.033.034.054.08.054.131v1.348Z" fill="#fff" fill-rule="evenodd"/>
        <rect x="15.456" y="12.005" width=".122" height=".883" fill="#fff"/>
        <rect x="15.06" y="12.005" width=".122" height=".883" fill="#fff"/>
        <rect x="14.664" y="12.005" width=".122" height=".883" fill="#fff"/>
        <rect x="14.268" y="12.005" width=".122" height=".883" fill="#fff"/>
        <path d="M14.036,12.888h.19v-.903c0-.012.01-.021.021-.021h.164c.012,0,.021.009.021.021v.903h.19v-.903c0-.012.01-.021.021-.021h.164c.012,0,.021.009.021.021v.903h.19v-.903c0-.012.01-.021.021-.021h.164c.011,0,.021.009.021.021v.903h.19v-.903c0-.012.01-.021.021-.021h.143v-.142h-1.706v.142h.143c.012,0,.021.009.021.021v.903Z" fill="#fff" fill-rule="evenodd"/>
        <rect x="13.872" y="12.005" width=".122" height=".883" fill="#fff"/>
        <rect x="13.535" y="12.005" width=".122" height=".883" fill="#fff"/>
        <path d="M13.393,12.888h.1v-.903c0-.012.009-.021.021-.021h.164c.012,0,.021.009.021.021v.903h.131v-1.348c0-.051.021-.097.054-.131.004-.005.009-.008.014-.012h-.273c-.063,0-.122.027-.164.068-.042.042-.068.1-.068.164v1.259Z" fill="#fff" fill-rule="evenodd"/>
        <path d="M13.182,12.888h.169v-1.259c0-.075.032-.145.082-.195.014-.014.03-.027.047-.038h-.158v.103c0,.012-.011.021-.023.021-.032,0-.061.014-.082.035-.021.021-.035.051-.035.084v1.248Z" fill="#fff" fill-rule="evenodd"/>
        <path d="M13.017,12.888h.122v-1.248c0-.044.018-.084.047-.114.002-.002.004-.004.005-.005h-.175v1.367Z" fill="#fff" fill-rule="evenodd"/>
        <rect x="12.513" y="11.521" width=".463" height="1.367" fill="#fff"/>
        <path d="M12.349,12.888h.122v-1.367h-.175s.004.003.006.005c.029.029.047.069.047.114v1.248Z" fill="#fff" fill-rule="evenodd"/>
        <path d="M12.137,12.888h.169v-1.248c0-.033-.014-.062-.035-.084-.021-.021-.05-.035-.082-.035-.012,0-.023-.009-.023-.021v-.103h-.158c.017.011.034.024.048.039.05.05.081.118.081.194v1.259Z" fill="#fff" fill-rule="evenodd"/>
        <rect x="11.831" y="12.005" width=".122" height=".883" fill="#fff"/>
        <path d="M11.659,12.888h.131v-.903c0-.012.009-.021.021-.021h.164c.012,0,.021.009.021.021v.903h.1v-1.259c0-.064-.027-.123-.069-.165-.042-.041-.099-.067-.163-.067h-.273s.009.008.014.012c.033.034.054.08.054.131v1.348Z" fill="#fff" fill-rule="evenodd"/>
        <path d="M11.536,12.888h.08v-1.348c0-.039-.016-.075-.042-.101-.026-.026-.062-.042-.101-.042-.012,0-.021-.009-.021-.021v-.788c0-.052-.022-.1-.056-.134-.03-.03-.069-.05-.113-.055v1.036c.067.005.127.035.172.08.05.05.08.118.08.194v1.18Z" fill="#fff" fill-rule="evenodd"/>
        <path d="M11.615,12.93h-.08c-.005.076-.039.145-.09.196-.018.018-.037.033-.058.046.058-.008.111-.035.151-.075.043-.043.072-.102.077-.167Z" fill="#fff" fill-rule="evenodd"/>
        <path d="M22.411,12.93h-.08c.005.065.034.123.077.167.04.04.092.067.151.075-.021-.013-.041-.028-.058-.046-.051-.051-.084-.12-.09-.196Z" fill="#fff" fill-rule="evenodd"/>
        <rect x="12.504" y="13.572" width=".463" height=".313" fill="#fff"/>
        <rect x="12.504" y="13.927" width=".463" height=".312" fill="#fff"/>
        <rect x="12.504" y="14.281" width=".463" height=".312" fill="#fff"/>
        <rect x="12.504" y="14.636" width=".463" height=".313" fill="#fff"/>
        <rect x="12.504" y="14.99" width=".463" height=".313" fill="#fff"/>
        <rect x="12.504" y="15.345" width=".463" height=".313" fill="#fff"/>
        <rect x="12.504" y="15.7" width=".463" height=".312" fill="#fff"/>
        <rect x="9.693" y="15.34" width="2.604" height=".672" fill="#fff"/>
        <rect x="10.058" y="14.626" width="2.239" height=".672" fill="#fff"/>
        <rect x="10.426" y="14.023" width="1.871" height=".561" fill="#fff"/>
        <rect x="10.789" y="13.57" width="1.508" height=".411" fill="#fff"/>
        <rect x="11.003" y="13.217" width="1.294" height=".311" fill="#fff"/>
        <rect x="12.34" y="13.217" width=".122" height="2.795" fill="#fff"/>
        <rect x="12.504" y="13.217" width=".463" height=".313" fill="#fff"/>
        <rect x="13.008" y="13.217" width=".122" height="2.795" fill="#fff"/>
        <rect x="20.979" y="13.572" width=".463" height=".313" fill="#fff"/>
        <rect x="20.979" y="13.927" width=".463" height=".312" fill="#fff"/>
        <rect x="20.979" y="14.281" width=".463" height=".312" fill="#fff"/>
        <rect x="20.979" y="14.636" width=".463" height=".313" fill="#fff"/>
        <rect x="20.979" y="14.99" width=".463" height=".313" fill="#fff"/>
        <rect x="20.979" y="15.345" width=".463" height=".313" fill="#fff"/>
        <rect x="20.979" y="15.7" width=".463" height=".312" fill="#fff"/>
        <rect x="21.648" y="15.34" width="2.604" height=".672" fill="#fff"/>
        <rect x="21.648" y="14.626" width="2.239" height=".672" fill="#fff"/>
        <rect x="21.648" y="14.023" width="1.871" height=".561" fill="#fff"/>
        <rect x="21.648" y="13.57" width="1.508" height=".411" fill="#fff"/>
        <rect x="21.648" y="13.217" width="1.294" height=".311" fill="#fff"/>
        <rect x="21.484" y="13.217" width=".122" height="2.795" fill="#fff"/>
        <rect x="20.979" y="13.217" width=".463" height=".313" fill="#fff"/>
        <rect x="20.815" y="13.217" width=".122" height="2.795" fill="#fff"/>
        <rect x="17.411" y="15.34" width="3.363" height=".672" fill="#fff"/>
        <rect x="17.411" y="14.626" width="3.363" height=".672" fill="#fff"/>
        <rect x="17.411" y="14.023" width="3.363" height=".561" fill="#fff"/>
        <rect x="17.411" y="13.57" width="3.363" height=".411" fill="#fff"/>
        <rect x="17.411" y="13.217" width="3.363" height=".311" fill="#fff"/>
        <rect x="16.742" y="13.572" width=".463" height=".313" fill="#fff"/>
        <rect x="16.742" y="13.927" width=".463" height=".312" fill="#fff"/>
        <rect x="16.742" y="14.281" width=".463" height=".312" fill="#fff"/>
        <rect x="16.742" y="14.636" width=".463" height=".313" fill="#fff"/>
        <rect x="16.742" y="14.99" width=".463" height=".313" fill="#fff"/>
        <rect x="16.742" y="15.345" width=".463" height=".313" fill="#fff"/>
        <rect x="16.742" y="13.217" width=".463" height=".313" fill="#fff"/>
        <rect x="16.742" y="15.7" width=".463" height=".312" fill="#fff"/>
        <rect x="17.246" y="13.217" width=".122" height="2.795" fill="#fff"/>
        <rect x="13.173" y="13.217" width="3.363" height=".311" fill="#fff"/>
        <rect x="13.173" y="13.57" width="3.363" height=".411" fill="#fff"/>
        <rect x="13.173" y="14.023" width="3.363" height=".561" fill="#fff"/>
        <rect x="13.173" y="14.626" width="3.363" height=".672" fill="#fff"/>
        <rect x="13.173" y="15.34" width="3.363" height=".672" fill="#fff"/>
        <rect x="16.578" y="13.217" width=".122" height="2.795" fill="#fff"/>
        <path d="M22.117,13.175h.324c-.023-.014-.044-.03-.062-.048-.051-.051-.085-.12-.09-.196h-.436c.005.065.034.123.077.167.048.048.115.078.188.078Z" fill="#fff" fill-rule="evenodd"/>
        <path d="M21.905,13.175h.056c-.023-.014-.044-.03-.062-.048-.051-.051-.085-.12-.09-.196h-.169c.005.065.034.123.077.167.048.048.114.078.188.078Z" fill="#fff" fill-rule="evenodd"/>
        <path d="M21.475,13.175h.275c-.023-.014-.044-.03-.063-.048-.051-.051-.084-.12-.09-.196h-.122v.245Z" fill="#fff" fill-rule="evenodd"/>
        <rect x="20.97" y="12.93" width=".463" height=".245" fill="#fff"/>
        <path d="M20.653,13.175h.275v-.245h-.123c-.005.076-.038.145-.09.196-.019.019-.04.035-.063.048Z" fill="#fff" fill-rule="evenodd"/>
        <path d="M20.442,13.175h.056c.073,0,.14-.03.188-.078.043-.043.072-.102.077-.167h-.169c-.005.076-.039.145-.09.196-.019.019-.04.035-.063.048Z" fill="#fff" fill-rule="evenodd"/>
        <path d="M19.963,13.175h.324c.073,0,.14-.03.188-.078.043-.043.072-.102.077-.167h-.436c-.005.076-.039.145-.09.196-.019.019-.04.035-.063.048Z" fill="#fff" fill-rule="evenodd"/>
        <path d="M18.634,13.175h1.174c.073,0,.14-.03.188-.078.044-.043.072-.102.077-.167h-1.704c.005.065.034.123.077.167.048.048.115.078.188.078Z" fill="#fff" fill-rule="evenodd"/>
        <path d="M18.093,13.175h.386c-.023-.014-.044-.03-.063-.048-.051-.051-.085-.12-.09-.196h-.499c.005.065.035.124.078.168.048.047.114.077.187.077Z" fill="#fff" fill-rule="evenodd"/>
        <path d="M17.676,13.175h.261c-.022-.013-.043-.029-.061-.047-.051-.051-.086-.121-.091-.198h-.374c.005.065.033.123.077.167.048.048.114.078.188.078Z" fill="#fff" fill-rule="evenodd"/>
        <path d="M17.246,13.175h.275c-.023-.014-.044-.03-.063-.048-.051-.051-.084-.12-.09-.196h-.122v.245Z" fill="#fff" fill-rule="evenodd"/>
        <rect x="16.742" y="12.93" width=".463" height=".245" fill="#fff"/>
        <path d="M16.424,13.175h.275v-.245h-.123c-.005.076-.038.145-.09.196-.019.019-.04.035-.063.048Z" fill="#fff" fill-rule="evenodd"/>
        <path d="M16.008,13.175h.261c.073,0,.139-.03.188-.078.043-.043.072-.102.077-.167h-.374c-.005.077-.04.147-.091.198-.018.018-.039.034-.061.047Z" fill="#fff" fill-rule="evenodd"/>
        <path d="M15.467,13.175h.386c.073,0,.139-.03.187-.077.043-.044.073-.103.078-.168h-.499c-.005.076-.039.145-.09.196-.019.019-.04.035-.063.048Z" fill="#fff" fill-rule="evenodd"/>
        <path d="M14.138,13.175h1.174c.073,0,.14-.03.188-.078.043-.043.072-.102.077-.167h-1.704c.005.065.034.123.077.167.048.048.115.078.188.078Z" fill="#fff" fill-rule="evenodd"/>
        <path d="M13.659,13.175h.324c-.023-.014-.044-.03-.063-.048-.051-.051-.084-.12-.09-.196h-.436c.005.065.034.123.077.167.048.048.115.078.188.078Z" fill="#fff" fill-rule="evenodd"/>
        <path d="M13.447,13.175h.056c-.023-.014-.044-.03-.063-.048-.051-.051-.084-.12-.09-.196h-.169c.005.065.034.123.077.167.048.048.115.078.188.078Z" fill="#fff" fill-rule="evenodd"/>
        <path d="M13.017,13.175h.275c-.023-.014-.044-.03-.063-.048-.051-.051-.084-.12-.089-.196h-.123v.245Z" fill="#fff" fill-rule="evenodd"/>
        <rect x="12.513" y="12.93" width=".463" height=".245" fill="#fff"/>
        <path d="M12.195,13.175h.275v-.245h-.123c-.005.076-.039.145-.09.196-.019.019-.04.035-.063.048Z" fill="#fff" fill-rule="evenodd"/>
        <path d="M11.984,13.175h.056c.073,0,.139-.03.188-.078.044-.043.072-.102.077-.167h-.169c-.005.076-.038.145-.09.196-.019.019-.04.035-.062.048Z" fill="#fff" fill-rule="evenodd"/>
        <path d="M11.505,13.175h.324c.073,0,.14-.03.188-.078.043-.043.072-.102.077-.167h-.436c-.005.076-.039.145-.09.196-.019.019-.04.035-.062.048Z" fill="#fff" fill-rule="evenodd"/>
        <path d="M20.074,10.987v-.376c0-.017-.007-.032-.018-.043-.011-.011-.026-.018-.043-.018-.017,0-.032.007-.043.018-.011.011-.018.026-.018.043v.305c.043.019.084.043.122.07Z" fill="#fff" fill-rule="evenodd"/>
      </g>
    </g>
  </g>
</svg>