<?xml version="1.0" encoding="UTF-8"?>
<svg id="Layer_2" data-name="Layer 2" xmlns="http://www.w3.org/2000/svg" xmlns:xlink="http://www.w3.org/1999/xlink" viewBox="0 0 118.96 79.17">
  <defs>
    <clipPath id="clippath">
      <path d="M19.897,39.584c0,21.862,17.723,39.586,39.585,39.586s39.585-17.724,39.585-39.586S81.344,0,59.482,0,19.897,17.723,19.897,39.584Z" fill="none"/>
    </clipPath>
  </defs>
  <g id="Layer_1-2" data-name="Layer 1">
    <g clip-path="url(#clippath)">
      <g>
        <rect y="0" width="118.96" height="79.168" fill="#fff"/>
        <rect y="0" width="29.944" height="79.168" fill="#ee362d"/>
        <rect x="89.015" y="0" width="29.945" height="79.168" fill="#ee362d"/>
        <polygon points="58.703 66.59 60.276 66.59 59.899 54.034 60.276 53.23 72.439 54.8 71.652 50.873 83.832 40.444 80.689 38.07 82.67 30.442 75.747 32.013 73.815 28.084 67.495 34.763 68.723 20.635 64.991 22.567 59.491 14.316 53.974 22.567 50.077 20.62 51.403 34.746 45.117 28.081 42.971 31.995 36.293 30.438 38.257 38.102 35.131 40.452 47.31 50.852 46.507 54.78 58.689 53.226 59.096 54.013 58.703 66.59" fill="#ee362d"/>
      </g>
    </g>
  </g>
</svg>