<?xml version="1.0" encoding="UTF-8"?>
<svg id="Layer_2" data-name="Layer 2" xmlns="http://www.w3.org/2000/svg" viewBox="0 0 118.96 79.168">
  <g id="Layer_1-2" data-name="Layer 1">
    <g>
      <rect width="118.96" height="79.168" fill="#fff"/>
      <rect width="29.944" height="79.168" fill="#ee362d"/>
      <rect x="89.015" width="29.945" height="79.168" fill="#ee362d"/>
      <polygon points="58.703 66.589 60.276 66.589 59.899 54.033 60.276 53.229 72.439 54.799 71.652 50.872 83.831 40.443 80.689 38.069 82.67 30.441 75.747 32.012 73.815 28.083 67.495 34.762 68.723 20.634 64.991 22.566 59.491 14.315 53.974 22.566 50.077 20.619 51.403 34.745 45.117 28.08 42.971 31.994 36.292 30.438 38.258 38.101 35.131 40.451 47.31 50.851 46.508 54.779 58.689 53.225 59.096 54.012 58.703 66.589" fill="#ee362d"/>
    </g>
  </g>
</svg>