<?xml version="1.0" encoding="UTF-8"?>
<svg id="Layer_2" data-name="Layer 2" xmlns="http://www.w3.org/2000/svg" xmlns:xlink="http://www.w3.org/1999/xlink" viewBox="0 0 118.973 79.414">
  <defs>
    <clipPath id="clippath">
      <path d="M18.361,39.829c0,21.862,17.723,39.585,39.584,39.585s39.586-17.723,39.586-39.585S79.809.244,57.945.244,18.361,17.967,18.361,39.829Z" fill="none"/>
    </clipPath>
  </defs>
  <g id="Layer_1-2" data-name="Layer 1">
    <g clip-path="url(#clippath)">
      <g>
        <rect width="118.973" height="79.17" fill="#22408c"/>
        <rect y="39.585" width="118.973" height="19.858" fill="#fff"/>
        <rect y="46.14" width="118.973" height="6.721" fill="#ce2028"/>
        <polygon points="46.323 32.641 44.477 31.453 42.567 32.503 43.346 30.322 41.521 28.653 43.853 28.538 44.631 26.02 45.428 28.48 47.599 28.633 45.985 29.976 46.323 32.641" fill="#fbd116"/>
        <polygon points="56.672 36.38 54.824 35.192 52.916 36.243 53.693 34.061 51.869 32.393 54.201 32.278 54.978 29.76 55.775 32.22 57.946 32.373 56.333 33.716 56.672 36.38" fill="#fbd116"/>
        <polygon points="62.965 46.449 61.119 45.261 59.209 46.312 59.988 44.13 58.163 42.462 60.495 42.347 61.272 39.829 62.068 42.289 64.24 42.442 62.627 43.785 62.965 46.449" fill="#fbd116"/>
        <polygon points="62.965 58.416 61.119 57.229 59.209 58.279 59.988 56.098 58.163 54.429 60.495 54.314 61.272 51.796 62.068 54.257 64.24 54.41 62.627 55.753 62.965 58.416" fill="#fbd116"/>
        <polygon points="56.672 68.428 54.824 67.24 52.916 68.291 53.693 66.109 51.869 64.44 54.201 64.326 54.978 61.807 55.775 64.268 57.946 64.421 56.333 65.764 56.672 68.428" fill="#fbd116"/>
        <polygon points="46.267 72.167 44.42 70.98 42.511 72.031 43.289 69.849 41.465 68.18 43.797 68.065 44.574 65.547 45.37 68.008 47.541 68.161 45.928 69.504 46.267 72.167" fill="#fbd116"/>
        <polygon points="36.064 68.428 34.219 67.24 32.309 68.291 33.087 66.109 31.262 64.44 33.595 64.326 34.372 61.807 35.168 64.268 37.34 64.421 35.727 65.764 36.064 68.428" fill="#fbd116"/>
        <polygon points="29.669 58.416 27.822 57.229 25.914 58.279 26.691 56.098 24.866 54.429 27.199 54.314 27.977 51.796 28.773 54.257 30.943 54.41 29.332 55.753 29.669 58.416" fill="#fbd116"/>
        <polygon points="29.669 46.205 27.822 45.018 25.914 46.068 26.691 43.887 24.866 42.218 27.199 42.104 27.977 39.585 28.773 42.045 30.943 42.198 29.332 43.541 29.669 46.205" fill="#fbd116"/>
        <polygon points="36.064 36.38 34.219 35.192 32.309 36.243 33.087 34.061 31.262 32.393 33.595 32.278 34.372 29.76 35.168 32.22 37.34 32.373 35.727 33.716 36.064 36.38" fill="#fbd116"/>
      </g>
    </g>
  </g>
</svg>