<svg xmlns="http://www.w3.org/2000/svg" id="Layer_2" data-name="Layer 2" viewBox="0 0 33.946 22.631">
  <defs><clipPath id="circleClip"><circle cx="16.973" cy="11.3155" r="11.3155" /></clipPath></defs><g clip-path="url(#circleClip)"><g id="_&#209;&#235;&#238;&#233;_1" data-name="&#209;&#235;&#238;&#233; 1">
    <g>
      <g>
        <rect width="33.946" height="22.631" fill="#fff" />
        <path d="M14.996,0l-4.773,3.336V0h4.773ZM6.716,0v3.365L1.901,0h4.815ZM16.939,0v1.329l-3.552,2.483h3.552v3.664h-3.552l3.552,2.482v1.358h-1.901l-4.815-3.365v3.365h-3.508v-3.336l-4.773,3.336H0v11.315h33.946V0h-17.007ZM0,9.987v-2.483h3.552l-3.552,2.483h0ZM0,3.841h3.552L0,1.358v2.483Z" fill="#039" fill-rule="evenodd" />
        <g>
          <rect y="4.561" width="16.939" height="2.223" fill="red" />
          <rect x="7.405" y="0" width="2.129" height="11.315" fill="red" />
          <polygon points="1.263 11.315 6.716 7.504 5.452 7.504 0 11.315 1.263 11.315" fill="red" fill-rule="evenodd" />
          <polygon points="4.232 3.841 0 .883 0 0 5.495 3.841 4.232 3.841" fill="red" fill-rule="evenodd" />
          <polygon points="15.676 0 10.223 3.811 11.487 3.811 16.939 0 15.676 0" fill="red" fill-rule="evenodd" />
          <polygon points="12.707 7.475 16.939 10.433 16.939 11.315 11.444 7.475 12.707 7.475" fill="red" fill-rule="evenodd" />
        </g>
      </g>
      <g>
        <path d="M23.882,5.665c-.031-.031-.051-.072-.058-.116-.016-.112.061-.217.173-.233.008-.001.015-.002.023-.003-.01-.002-.019-.004-.029-.006-.087-.014-.155-.085-.167-.172-.016-.112.061-.217.173-.233.056-.008.112-.014.169-.017-.02-.037-.029-.079-.024-.122.013-.113.115-.194.228-.181.19.022.378.073.549.16.025.013.05.026.075.041.043-.059.114-.091.189-.082.021.003.041.006.061.011.016-.022.034-.043.054-.063.08-.078.207-.078.287,0,.02.019.038.041.054.063.02-.005.04-.009.061-.011.075-.009.146.023.189.082.025-.015.05-.028.075-.041.171-.087.359-.138.549-.16.113-.013.215.068.228.181.005.043-.004.085-.024.122.056.003.113.009.169.017.112.016.19.121.173.233-.013.087-.08.158-.168.172-.009.002-.019.004-.028.006.007,0,.015.002.022.003.112.016.19.121.173.233-.007.044-.027.084-.058.116.045.045.067.11.058.175-.007.044-.027.085-.058.116.045.045.067.11.058.175-.013.087-.081.16-.169.173-.094.019-.188.049-.274.093.077.051.149.108.218.17l.132.035c.047.014.09.041.121.079l.165.044c.104.028.182.111.204.216.022.104-.016.212-.098.28-.1.083-.214.148-.335.194.096.163.207.317.329.46.086.1.105.235.046.354-.044.09-.127.153-.224.173-.002.02-.006.04-.011.06h1.236c.113,0,.206.092.206.206v3.481c0,.433-.054.865-.163,1.284.176-.007.347.061.473.186l.794.796c.076.075.127.172.148.276.021.104.012.214-.027.312-.051.13-.108.257-.17.382.077.004.155,0,.232-.008l.268-.442c.077-.134.221-.216.375-.216.314,0,.525.324.396.61l-.563,1.253c-.139.349-.57.395-.895.395-.294,0-.586-.07-.854-.191-.168.158-.348.303-.538.435-.778.541-1.693.831-2.641.831s-1.863-.29-2.641-.831c-.189-.132-.369-.277-.538-.435-.267.12-.56.191-.854.191-.326,0-.757-.047-.895-.395l-.564-1.253c-.129-.286.083-.61.396-.61.154,0,.299.082.375.216l.268.442c.077.009.155.012.232.008-.062-.125-.118-.252-.169-.382-.039-.099-.048-.208-.027-.312.021-.105.073-.201.148-.276l.795-.796c.125-.126.297-.193.473-.186-.109-.419-.163-.851-.163-1.284v-3.481c0-.114.092-.206.206-.206h1.35c0-.053.01-.106.031-.155-.005-.003-.01-.005-.016-.008-.228-.117-.388-.307-.388-.572,0-.103.026-.205.075-.295-.05-.018-.1-.037-.148-.059-.104-.047-.204-.103-.298-.168-.024.007-.048.011-.073.011-.061,0-.116-.021-.162-.06-.119-.099-.187-.246-.187-.4,0-.162.068-.305.195-.405.124-.098.287-.142.442-.142.211,0,.413.083.544.233.007-.021.036-.038.068-.049l.012-.004.156-.041c.008-.005.016-.01.024-.015-.038-.012-.076-.021-.115-.029-.087-.013-.156-.086-.169-.173-.009-.065.013-.129.058-.175-.031-.031-.051-.072-.058-.116-.009-.065.013-.13.058-.175h0ZM23.297,15.856c.043.037.087.074.132.109.446.349.967.579,1.524.664-.565-.305-1.068-.716-1.482-1.207-.039.152-.098.298-.174.434h0ZM25.932,16.629c.557-.085,1.079-.315,1.524-.664.045-.035.089-.072.132-.109-.076-.137-.136-.283-.174-.435-.414.492-.917.903-1.482,1.208Z" fill="#fff" fill-rule="evenodd" />
        <g>
          <path d="M23.067,6.993c-.01.019-.03.03-.051.03-.016,0-.027-.006-.04-.016-.075-.063-.119-.156-.119-.254,0-.113.049-.197.122-.255.087-.069.208-.101.324-.101.161,0,.314.064.427.177.039.038.091.059.145.059h.048c.005-.028.027-.052.053-.061l.182-.049c.114-.072.239-.134.373-.183-.067-.053-.141-.098-.222-.135-.088-.04-.184-.071-.286-.091-.006,0-.011-.006-.012-.012-.001-.008.004-.016.012-.017.116-.017.228-.021.334-.014.087.006.171.021.25.043-.07-.067-.149-.124-.236-.17-.104-.056-.22-.096-.347-.121-.006,0-.011-.006-.012-.012-.001-.008.004-.015.012-.016.116-.017.228-.022.334-.014.087.006.171.021.25.043-.07-.067-.149-.124-.236-.17-.104-.055-.22-.096-.347-.121-.006,0-.011-.006-.012-.012-.001-.008.004-.015.012-.017.145-.021.283-.023.413-.005.114.015.221.044.32.088-.078-.116-.175-.213-.289-.29-.128-.086-.276-.146-.444-.179-.006,0-.011-.006-.012-.012-.001-.008.004-.016.012-.017.156-.023.305-.023.443-.001.122.019.235.055.338.106-.05-.075-.11-.144-.179-.206-.082-.074-.179-.138-.287-.191-.005-.002-.009-.008-.008-.015,0-.008.008-.014.016-.013.181.021.344.069.486.141.07.036.136.077.195.124.03-.008.062-.013.093-.013.028,0,.056.004.083.01-.015-.042-.035-.083-.058-.121-.006-.011.002-.024.014-.022.069.008.134.038.185.084.002-.034.009-.066.022-.095.015-.035.037-.067.064-.094.006-.006.015-.006.02,0,.027.026.049.058.064.094.012.029.02.062.022.095.051-.047.116-.076.185-.084.012-.001.021.012.014.022-.014.023-.027.047-.038.072-.007.016-.014.033-.021.049.027-.007.055-.01.083-.01.031,0,.063.005.093.013.059-.047.125-.088.195-.124.141-.071.304-.119.485-.141.008,0,.015.005.016.013,0,.006-.003.012-.008.015-.109.053-.205.117-.287.191-.069.061-.129.13-.179.206.103-.051.216-.087.338-.106.138-.022.286-.022.443.001.008.001.014.009.012.017-.001.007-.006.011-.012.012-.167.033-.316.093-.444.179-.115.077-.212.174-.289.29.099-.043.206-.073.32-.088.129-.017.268-.016.413.005.008.001.014.009.012.017-.001.007-.006.011-.012.012-.126.025-.243.065-.347.121-.087.047-.167.103-.236.17.079-.022.163-.037.25-.043.106-.008.218-.003.334.014.008.001.014.008.012.016-.001.007-.006.012-.012.012-.126.025-.243.065-.347.121-.087.046-.167.103-.236.17.079-.022.163-.036.25-.043.106-.008.218-.003.334.014.008.001.014.009.012.017-.001.006-.006.011-.012.012-.122.024-.235.063-.336.115-.096.05-.182.111-.257.185.179.086.339.196.474.324l.175.047c.025.007.042.031.042.057l.247.066c.034.009.059.036.067.071s-.005.07-.032.092c-.143.118-.315.193-.499.217.126.254.284.493.468.709.037.042.045.095.02.145-.024.048-.071.075-.125.072-.065-.005-.129-.014-.192-.026.003.002.005.005.007.007.041.041.067.098.067.161,0,.055-.019.107-.055.148l-.057.067c-.031.034-.069.061-.11.08h1.636c.008,0,.015.007.015.015v3.481c0,.568-.097,1.114-.275,1.622.006-.007.013-.014.02-.021.172-.172.45-.168.62.004l.795.796c.05.051.082.113.096.18.014.067.008.138-.017.204-.082.209-.179.41-.289.603.214.05.428.055.645.016l.316-.52c.043-.076.124-.122.211-.122.177,0,.292.183.222.342l-.565,1.257c-.102.258-.484.279-.719.279-.309,0-.617-.087-.89-.23-.189.187-.393.357-.61.508-.724.503-1.595.797-2.532.797s-1.808-.294-2.532-.797c-.218-.151-.422-.321-.61-.508-.273.143-.581.23-.89.23-.235,0-.617-.021-.719-.279l-.565-1.257c-.07-.159.045-.342.222-.342.087,0,.168.047.211.122l.316.52c.217.039.431.034.645-.016-.11-.193-.206-.394-.289-.603-.026-.066-.031-.137-.017-.204.014-.067.046-.13.096-.18l.794-.796c.17-.172.449-.176.62-.004.007.007.014.014.02.021-.178-.508-.275-1.054-.275-1.622v-3.481c0-.008.006-.015.014-.015h1.65c-.017-.01-.032-.022-.046-.035-.08-.08-.086-.21-.012-.296l.092-.107c-.082-.022-.162-.05-.233-.086-.165-.084-.284-.212-.284-.402,0-.118.049-.231.136-.311l.093-.093c-.146-.023-.285-.065-.416-.123-.138-.062-.265-.141-.38-.236l-.018.032h0ZM26.339,8.519c-.047.03-.101.048-.157.052-.107.008-.21-.035-.28-.116-.056.052-.127.083-.204.089-.094.007-.186-.026-.255-.09-.056.05-.127.082-.204.089-.099.01-.196-.022-.271-.088l-.007.008c-.058.063-.138.102-.224.108-.074.005-.147-.013-.208-.053l-.047.054c-.031.034-.068.061-.111.08h2.119c-.008-.004-.016-.008-.023-.012-.052-.028-.096-.07-.127-.121h0ZM26.425,8.008c-.131-.074-.252-.166-.359-.275-.187.065-.393.101-.609.101-.162,0-.318-.02-.465-.058.05.044.103.083.16.118.067.04.138.074.213.099.038-.019.08-.03.122-.033.096-.007.189.027.258.093.057-.053.129-.085.207-.092.103-.01.205.025.279.096.046-.028.098-.045.151-.048.014-.001.029-.001.042,0h0ZM26.709,8.135c-.019-.006-.037-.013-.056-.02.008.009.017.019.024.029.01-.004.021-.007.031-.009h0ZM27.568,14.903c-.523.767-1.257,1.378-2.12,1.748-.004.002-.008.001-.011,0-.863-.37-1.597-.981-2.119-1.748.009.037.014.076.014.116,0,.314-.104.613-.279.873.083.079.169.154.259.224.594.466,1.332.742,2.132.742s1.538-.276,2.132-.742c.09-.07.176-.145.259-.224-.175-.259-.279-.559-.279-.873,0-.039.004-.078.014-.116Z" fill-rule="evenodd" />
          <path d="M23.801,7.441c-.077.075-.12.177-.12.284,0,.177.112.297.268.376.237.121.575.151.777.151.219,0,.436-.035.645-.103.026-.009.043-.034.043-.062,0-.026-.015-.049-.039-.06-.037-.012-.074-.025-.109-.041-.138.028-.279.042-.421.042-.175,0-.526-.032-.774-.147-.164-.076-.284-.188-.284-.35,0-.032.005-.062.015-.091Z" fill="#007c29" fill-rule="evenodd" />
          <path d="M24.532,7.584c-.048-.029-.093-.06-.136-.093-.125-.096-.229-.21-.308-.335l-.197.197c-.048.048-.074.111-.074.179,0,.149.113.253.267.324.217.1.514.136.698.143-.151-.065-.292-.152-.418-.257-.02-.016-.031-.042-.031-.068,0-.049.04-.09.089-.09h.111Z" fill="#007c29" fill-rule="evenodd" />
          <path d="M24.93,7.76c-.124-.037-.241-.086-.349-.146h-.161c-.033,0-.06.027-.06.06,0,.017.007.033.02.045.143.119.306.215.481.281.12,0,.24-.012.359-.034-.029-.015-.057-.03-.084-.046-.075-.045-.144-.099-.206-.159Z" fill="#007c29" fill-rule="evenodd" />
          <path d="M26.83,7.147c-.023.038-.049.075-.078.111.172-.026.334-.098.468-.209.019-.015.028-.04.022-.064-.005-.024-.022-.042-.046-.049l-.037-.01c-.004.02-.016.038-.032.051-.089.073-.19.13-.298.169Z" fill="#007c29" fill-rule="evenodd" />
          <path d="M26.952,6.872c-.023.082-.056.161-.098.236.092-.037.179-.088.255-.151.011-.009.019-.022.022-.036l-.18-.048Z" fill="#007c29" fill-rule="evenodd" />
          <path d="M26.749,8.117c.039.008.076-.007.098-.04.022-.032.023-.073.001-.107-.078-.103-.151-.21-.217-.32-.011-.017-.017-.037-.017-.057,0-.058.047-.105.105-.105h.093c-.035-.06-.067-.121-.098-.184-.084.097-.184.183-.297.257-.098.064-.206.118-.322.161.185.184.409.318.654.395Z" fill="#007c29" fill-rule="evenodd" />
          <path d="M26.83,7.517h-.11c-.042,0-.076.034-.076.076,0,.016.004.029.012.042.066.11.137.215.215.317.031.04.028.1,0,.141-.013.02-.031.035-.052.044.093.025.189.041.286.049.042.003.078-.018.097-.055.019-.038.013-.079-.014-.111-.134-.157-.254-.325-.358-.502Z" fill="#007c29" fill-rule="evenodd" />
          <path d="M23.992,6.875l.177-.102c-.016-.069-.022-.141-.019-.216l-.164.044c-.019.007-.035.027-.033.047.004.078.017.154.039.227Z" fill="#007c29" fill-rule="evenodd" />
          <path d="M24.272,7.342l.139-.139c-.111-.114-.194-.25-.234-.4l-.175.101c.053.162.146.31.271.438Z" fill="#007c29" fill-rule="evenodd" />
          <path d="M24.979,7.743l.051-.19c-.189-.051-.358-.133-.496-.24-.036-.028-.07-.057-.102-.088l-.139.139c.038.037.078.072.121.105.159.123.351.218.565.275Z" fill="#007c29" fill-rule="evenodd" />
          <path d="M25.88,7.756l-.051-.19c-.118.027-.243.041-.372.041-.139,0-.273-.017-.398-.048l-.051.19c.142.036.293.055.449.055.147,0,.289-.017.423-.048Z" fill="#007c29" fill-rule="evenodd" />
          <path d="M26.606,7.376l-.139-.139c-.049.047-.104.09-.164.129-.129.085-.281.151-.446.193l.051.191c.182-.046.349-.119.494-.213.074-.048.142-.101.203-.16Z" fill="#007c29" fill-rule="evenodd" />
          <path d="M26.7,6.909l.171.099c.023-.051.042-.104.056-.158.004-.015-.005-.032-.02-.036l-.163-.044c-.011.048-.026.094-.044.139Z" fill="#007c29" fill-rule="evenodd" />
          <path d="M26.859,7.035l-.171-.099c-.047.102-.115.197-.2.281l.139.139c.097-.096.175-.204.232-.321Z" fill="#007c29" fill-rule="evenodd" />
          <path d="M25.163,6.238v.265l.28.162.28-.162v-.233c-.132-.024-.269-.037-.41-.037-.05,0-.1.002-.149.005Z" fill="#007c29" fill-rule="evenodd" />
          <path d="M24.658,6.329v.257l.236.159.239-.239v-.265c-.147.011-.289.037-.424.074-.017.005-.035.01-.052.015Z" fill="#007c29" fill-rule="evenodd" />
          <path d="M24.265,6.952l.364-.364v-.249c-.162.052-.313.122-.448.207-.01.146.022.283.084.406Z" fill="#007c29" fill-rule="evenodd" />
          <path d="M24.712,7.394l.167-.624-.234-.157-.366.366c.066.12.161.225.272.311.049.038.103.073.16.105Z" fill="#007c29" fill-rule="evenodd" />
          <path d="M25.428,7.578v-.888l-.277-.16-.241.242-.171.637c.197.104.434.165.69.169Z" fill="#007c29" fill-rule="evenodd" />
          <path d="M26.15,7.421l-.174-.65-.242-.242-.277.16v.888c.255,0,.493-.058.693-.157Z" fill="#007c29" fill-rule="evenodd" />
          <path d="M26.624,6.996l-.384-.384-.234.157.171.637c.038-.02.075-.042.111-.065.143-.094.258-.212.336-.346Z" fill="#007c29" fill-rule="evenodd" />
          <path d="M26.256,6.442v.145l.382.382c.036-.068.063-.139.079-.213-.131-.124-.287-.23-.461-.315Z" fill="#007c29" fill-rule="evenodd" />
          <path d="M25.752,6.276v.23l.24.239.236-.159v-.157c-.045-.021-.09-.04-.137-.057-.107-.04-.22-.073-.338-.096Z" fill="#007c29" fill-rule="evenodd" />
          <path d="M23.292,6.643c.02-.02.032-.048.032-.078,0-.007,0-.013-.002-.02h-.074c-.04,0-.076.016-.102.043-.023.023-.038.054-.042.087h.11c.03,0,.058-.012.078-.032Z" fill-rule="evenodd" />
          <path d="M23.089,6.705s-.005,0-.007-.002c-.031-.017-.059-.037-.084-.06-.021-.019-.04-.039-.057-.062-.033.046-.053.104-.053.173,0,.09.04.175.11.233.006.005.011.007.019.007.011,0,.02-.006.025-.015l.04-.069c.023-.038.067-.056.11-.044.042.011.082.024.126.026.021,0,.042-.001.063-.005.008-.001.016.004.017.012.001.008-.004.016-.012.017-.023.004-.046.006-.069.006-.047-.001-.088-.015-.133-.027-.03-.008-.061.005-.077.031l-.006.01c.031.025.063.05.095.073.044.029.095.044.147.044s.103-.015.147-.044c.007-.005.016-.002.02.004.004.007.003.016-.004.02-.048.032-.105.049-.164.049-.013,0-.027-.001-.039-.003.031.019.062.036.094.052.056.028.118.027.172-.007.027-.017.049-.042.063-.071.004-.007.012-.01.02-.007.007.004.01.012.007.02-.016.034-.043.063-.074.084-.025.016-.054.026-.086.03.012.005.024.01.036.015.055.021.116.015.164-.02.029-.021.051-.05.063-.084.003-.008.011-.012.019-.009.008.003.012.011.009.018-.014.04-.04.075-.073.099-.023.016-.049.027-.077.033.015.005.03.009.045.014.051.014.108.003.15-.028.029-.022.052-.054.062-.091.002-.008.01-.012.018-.01.008.002.012.01.01.018-.012.043-.038.08-.073.106-.018.014-.039.025-.062.032.038.008.077.015.117.021l.164-.164c-.084-.143-.136-.3-.147-.467h-.048c-.06,0-.122-.024-.165-.067-.108-.109-.254-.169-.407-.169-.11,0-.224.03-.305.094-.014.011-.027.023-.039.036.017.023.036.044.057.064.018.016.038.031.059.044.005-.038.023-.073.049-.099.031-.032.075-.051.123-.051h.086c.007,0,.013.005.014.011.003.012.005.025.005.038,0,.038-.015.073-.041.099-.025.025-.06.041-.099.041h-.125Z" fill="#007c29" fill-rule="evenodd" />
          <path d="M27.631,10.962c-.006-.022-.029-.036-.052-.029-.022.006-.035.029-.029.051h0c.007.026.022.043.04.052.029.014.061.009.088-.008-.024-.015-.039-.039-.046-.066Z" fill="#0072fe" fill-rule="evenodd" />
          <path d="M25.369,10.918c-.012-.02-.037-.027-.057-.016-.023.014-.036.032-.04.052-.006.031.008.062.031.083.008-.027.027-.048.051-.062.02-.012.027-.037.015-.057Z" fill="#0072fe" fill-rule="evenodd" />
          <path d="M23.418,10.495c.006.022.029.036.051.029.023-.006.036-.029.03-.051-.012-.046-.053-.069-.099-.057-.01.003-.019.007-.028.013.024.015.039.038.046.066Z" fill="#0072fe" fill-rule="evenodd" />
          <path d="M23.209,10.555c.012.02.037.027.057.015.021-.012.027-.038.015-.058-.014-.023-.032-.035-.051-.039-.031-.006-.062.007-.083.03.027.008.048.027.062.052Z" fill="#0072fe" fill-rule="evenodd" />
          <path d="M23.125,10.769c.017.016.043.017.059,0,.016-.016.016-.043,0-.059-.034-.034-.08-.033-.114,0-.008.008-.013.015-.018.025.028.001.053.014.073.034Z" fill="#0072fe" fill-rule="evenodd" />
          <path d="M25.456,10.463l.099.027c.024.007.046.02.061.04.027.034.073.049.115.037l.185-.049-.059-.102c-.031-.051-.04-.107-.029-.165-.08.037-.157.081-.228.131-.045.032-.093.059-.143.081Z" fill="red" fill-rule="evenodd" />
          <path d="M25.339,10.59c.022.006.045-.007.051-.03.006-.023-.007-.046-.029-.052-.046-.012-.087.011-.099.058-.003.011-.003.02-.003.031.025-.013.053-.015.08-.007Z" fill="#0072fe" fill-rule="evenodd" />
          <path d="M23.243,10.986c.023,0,.042-.019.042-.042s-.019-.042-.042-.042c-.048,0-.081.033-.081.081,0,.01.002.021.005.031.02-.019.047-.028.075-.028Z" fill="#0072fe" fill-rule="evenodd" />
          <path d="M25.539,11.074c.011-.021.004-.045-.017-.057-.02-.011-.045-.004-.056.016-.024.042-.011.087.03.11.01.006.018.008.029.011-.006-.029,0-.055.014-.08Z" fill="#0072fe" fill-rule="evenodd" />
          <path d="M24.696,9.449c-.021-.012-.047-.016-.071-.009l.024.09.09-.024c-.006-.024-.022-.044-.043-.057Z" fill="red" fill-rule="evenodd" />
          <path d="M24.955,9.386h-.099c.006.022.026.037.05.037.023,0,.043-.015.049-.037Z" fill="red" fill-rule="evenodd" />
          <path d="M24.67,9.279l-.05-.086c-.016.017-.019.042-.007.062.012.02.035.03.057.024Z" fill="red" fill-rule="evenodd" />
          <path d="M24.68,9.644c-.005.014-.011.026-.018.039h0c.01.009.019.018.029.027l.031-.053c-.014-.001-.029-.006-.042-.013Z" fill="red" fill-rule="evenodd" />
          <path d="M24.581,9.575c-.007.032-.019.063-.036.092-.023.041-.056.076-.094.104.076.003.147-.036.186-.102.008-.014.014-.028.018-.043-.006-.006-.012-.014-.017-.022-.006-.01-.01-.021-.012-.033-.014.005-.029.007-.044.005Z" fill="#0072fe" fill-rule="evenodd" />
          <path d="M24.503,9.53l-.031.054c.024.006.047.014.069.023.005-.013.008-.025.011-.039-.02-.008-.037-.021-.05-.038Z" fill="red" fill-rule="evenodd" />
          <path d="M24.521,9.653c.003-.006.007-.012.009-.018-.026-.012-.055-.021-.083-.026-.01-.002-.016-.014-.01-.022l.051-.088v-.003c-.006-.021-.006-.044.002-.066-.023-.01-.042-.027-.055-.049-.004-.008-.008-.015-.01-.024-.036.032-.08.055-.128.067-.065.013-.119.069-.136.133-.007.028-.008.056-.003.084.01-.008.022-.014.033-.02.037-.019.068-.047.089-.083.004-.007.013-.009.02-.005.007.004.009.013.005.02-.024.041-.059.073-.101.094-.055.028-.095.077-.111.137-.004.017-.006.032-.007.049.018-.011.039-.017.06-.018.019-.02.041-.037.065-.05.014-.006.026-.014.037-.024.006-.006.015-.005.021,0,.005.006.005.015,0,.021-.013.012-.028.022-.044.029-.056.031-.096.082-.113.144-.008.032-.01.065-.005.097.024-.029.054-.048.091-.056.013-.024.03-.044.051-.061.006-.005.016-.004.02.002.005.006.004.016-.002.02-.04.033-.062.081-.069.131-.006.046-.029.089-.064.119.03.008.062.006.091-.006.01-.019.018-.04.026-.06.026-.065.069-.122.124-.166.007-.005.016-.004.021.002.005.007.004.016-.003.021-.051.04-.091.092-.115.153-.035.092-.088.172-.153.238.075.007.149-.007.215-.04.073-.037.135-.096.174-.171,0-.031.004-.062.013-.092.002-.008.01-.012.018-.01.008.002.012.01.01.018-.01.037-.014.075-.01.113,0,.035-.003.07-.013.104-.003.011-.006.021-.01.032.038-.015.073-.037.102-.066.035-.035.062-.08.075-.131.01-.037.013-.076.008-.114-.001-.008.004-.015.013-.016.008-.001.015.005.016.012.006.042.003.084-.008.126-.007.027-.018.052-.031.075.043-.015.074-.042.092-.077.027-.05.026-.11.009-.163-.005-.015-.008-.03-.009-.046,0-.008.005-.015.014-.016.008,0,.015.005.016.014.001.014.004.026.008.039.016.05.019.105.002.155.033-.019.06-.047.076-.083.021-.046.021-.098,0-.143-.014-.028-.02-.059-.02-.09,0-.008.007-.015.014-.015.008,0,.015.007.015.015,0,.027.006.053.017.077.009.02.015.041.018.062.022-.024.037-.053.046-.084.015-.055.006-.114-.025-.162-.004-.007-.002-.016.004-.02.006-.005.016-.003.02.004.01.016.018.033.024.05.01-.007.019-.016.026-.027l.114-.198c.023-.04.066-.064.112-.062-.003-.004-.005-.008-.009-.011-.03-.035-.078-.05-.122-.038-.029.008-.056.027-.072.056-.004.007-.012.009-.019.006-.007-.004-.01-.012-.007-.02.018-.034.054-.06.091-.07.008-.002.017-.004.025-.005l.021-.036c.019-.034.024-.073.014-.109-.009-.034-.03-.064-.062-.084-.001.026-.009.052-.022.077-.002.005-.007.008-.013.008-.011,0-.018-.012-.012-.022.02-.034.024-.073.014-.109-.009-.035-.032-.067-.067-.087-.008-.005-.016-.008-.024-.011.004.009.007.018.01.027.011.043.006.09-.017.131-.004.007-.013.009-.02.005-.007-.004-.009-.013-.005-.02.02-.034.024-.074.014-.109-.004-.015-.01-.03-.019-.043-.016-.001-.031,0-.047.005-.035.01-.067.033-.087.067-.004.007-.012.009-.019.006-.007-.004-.009-.013-.006-.02.024-.041.062-.069.105-.081.009-.002.019-.004.029-.005-.007-.006-.014-.011-.022-.015-.034-.02-.073-.024-.109-.014-.035.009-.067.033-.087.067-.004.007-.013.009-.02.005-.007-.004-.009-.013-.005-.02.014-.025.034-.044.056-.059-.033-.017-.07-.02-.103-.011-.035.01-.067.032-.086.066l-.021.037c.004.008.006.016.009.024.011.04.005.077-.015.113-.005.006-.014.008-.02.004-.007-.005-.008-.014-.004-.021.016-.028.019-.06.011-.089-.012-.044-.049-.078-.094-.086-.005,0-.01-.001-.014-.002.024.039.025.088.002.128l-.115.199c-.021.037-.01.085.025.109.034-.014.065-.035.09-.061,0-.019.005-.039.015-.056.004-.007.013-.009.02-.005.007.004.01.012.006.019-.015.027-.014.06,0,.086.011.02.03.035.053.041.01.003.014.014.008.022-.01.018-.012.04-.007.059.009.035.04.058.076.058.01,0,.021-.002.03-.006l-.028-.106s0-.008.002-.012l.065-.113c-.03.001-.058-.015-.073-.041-.022-.039-.009-.088.03-.111.007-.004.016-.001.02.006l.054.093.044-.077c.004-.007.013-.009.02-.005.007.004.009.013.005.02l-.123.214c.025-.003.051.003.073.016.023.013.04.032.05.056l.123-.214c.004-.007.013-.009.02-.005s.009.013.005.02l-.044.077h.107c.008,0,.015.007.015.015,0,.045-.036.081-.081.081-.03,0-.058-.017-.071-.043l-.066.114s-.005.006-.009.007l-.105.028c.001.01.004.02.01.029.018.031.054.046.089.037.019-.005.037-.018.048-.037.005-.008.016-.01.023-.003.017.017.039.026.062.026.031,0,.059-.016.075-.042.004-.007.013-.009.02-.005.007.004.009.013.005.02-.021.035-.059.056-.1.056-.024,0-.049-.008-.07-.023-.015.019-.035.031-.059.037l-.051.088c-.005.009-.017.01-.024.002-.011-.013-.023-.025-.036-.037-.01.013-.021.025-.033.036.014.012.027.025.039.04.01.013.026.021.042.021.023-.001.04-.013.051-.032.004-.007.013-.009.02-.005.007.004.009.013.005.02-.016.027-.044.047-.076.047-.025,0-.049-.012-.065-.032-.012-.015-.026-.028-.041-.041-.052.035-.118.048-.183.033-.008-.002-.013-.01-.011-.017.001-.005.004-.008.008-.01.031-.017.059-.039.083-.065-.02-.008-.04-.014-.062-.018-.045-.008-.076-.046-.07-.093.002-.013.006-.024.013-.036.004-.007.013-.01.02-.006.007.004.009.013.005.02-.004.007-.006.014-.008.023-.006.032.014.057.045.063.027.005.051.012.076.022.006-.008.011-.016.016-.024Z" fill="#fed700" fill-rule="evenodd" />
          <path d="M23.584,9.041c-.016.017-.017.043,0,.059.016.016.043.016.059,0,.034-.034.033-.081,0-.114-.008-.008-.016-.013-.025-.018-.001.028-.014.053-.034.073Z" fill="#0072fe" fill-rule="evenodd" />
          <path d="M23.357,9.04c.02-.012.027-.037.015-.057-.024-.042-.069-.053-.111-.029-.009.006-.016.012-.024.02.027.008.048.027.062.051.012.02.037.027.057.015Z" fill="#0072fe" fill-rule="evenodd" />
          <path d="M25.243,10.797c.023,0,.042-.019.042-.042,0-.023-.019-.042-.042-.042-.048,0-.081.033-.081.081,0,.01.002.021.005.031.021-.019.047-.028.076-.028Z" fill="#0072fe" fill-rule="evenodd" />
          <path d="M23.11,9.181c.02.011.046.005.057-.016.012-.02.005-.046-.015-.057-.042-.024-.087-.011-.11.03-.006.01-.008.018-.011.029.027-.007.055,0,.079.014Z" fill="#0072fe" fill-rule="evenodd" />
          <path d="M23.77,10.211c.031.002.061.012.088.028.007.004.009.013.005.02-.004.007-.013.009-.02.005-.023-.014-.049-.021-.076-.024-.022-.002-.043-.007-.062-.016.01.031.027.059.05.082.04.041.095.062.153.059h.179c.046-.043.086-.092.118-.147-.037.007-.075.003-.109-.012-.011-.005-.012-.02-.002-.026.04-.026.068-.068.074-.115.002-.019.007-.037.013-.054-.03.012-.052.033-.069.064-.004.007-.013.01-.02.006-.004-.002-.006-.005-.007-.009-.014-.047-.015-.097-.002-.145.007-.028.019-.054.035-.077-.013.005-.026.012-.036.022-.008.008-.023.003-.025-.009-.002-.018-.001-.036,0-.054-.166-.021-.314-.118-.402-.26l-.088-.152s-.003-.008-.002-.012l.054-.203s.002-.005.004-.007c.011-.011.018-.023.022-.034,0-.003.002-.006.002-.008-.027.015-.061.011-.084-.012-.023-.023-.027-.057-.012-.084-.016.003-.031.012-.042.024l-.008.008.017.03c.004.007.002.016-.005.02-.007.004-.016.002-.02-.005l-.053-.091c-.009-.015-.021-.027-.035-.034.007.03-.004.061-.032.078-.029.016-.063.012-.086-.009-.001.016.004.033.012.047l.051.088c.004.007.002.016-.005.02-.007.004-.016.001-.02-.005l-.037-.065-.058-.033c-.015-.008-.031-.013-.047-.012.021.022.026.057.01.085-.016.028-.048.041-.078.034.007.015.02.026.034.035l.088.051c.007.004.009.013.005.02-.004.007-.013.009-.02.005h0s0,0,0,0c-.013-.007-.025-.011-.037-.011-.003,0-.006,0-.009,0,.021.022.026.056.01.084-.016.029-.048.042-.079.034.007.015.019.026.034.035l.027.016c.022.012.043.015.061.01.021-.006.039-.021.05-.04.004-.007.013-.009.02-.005.007.004.009.013.005.02-.007.013-.017.024-.029.033l.033.057c.024.042.079.057.122.033.007-.004.016-.002.02.005.004.007.002.016-.005.02-.026.015-.055.019-.082.013.006.034.023.066.047.09.027.029.065.048.107.052.032.003.06.011.088.028.007.004.009.013.005.02-.004.007-.013.009-.02.005-.023-.014-.049-.022-.075-.024-.023-.002-.046-.008-.066-.017.008.032.023.06.046.084.027.028.065.048.107.051.032.003.059.011.088.027.007.004.009.013.005.02-.004.007-.013.009-.02.005-.023-.014-.049-.021-.075-.023-.024-.002-.046-.008-.066-.017.008.031.023.061.046.084.03.031.065.047.108.052.031.002.061.012.087.027.007.004.009.013.005.02-.004.007-.013.009-.02.005-.023-.013-.049-.021-.075-.023-.023-.002-.046-.008-.066-.018.007.032.023.061.046.084.027.028.065.048.107.051Z" fill="#fed700" fill-rule="evenodd" />
          <path d="M26.251,10.701c.013-.005.027-.008.043-.008.031,0,.056.003.081-.021.024-.024.027-.059.01-.088l-.117-.202c-.024-.04-.037-.086-.037-.132,0-.041.01-.081.029-.118-.115.013-.226.04-.332.079-.022.008-.044.017-.066.026-.017.055-.01.115.02.164l.068.118c.006.008.001.02-.008.022l-.203.055c-.053.014-.11-.004-.145-.048-.011-.016-.027-.025-.046-.03l-.112-.03c-.017-.005-.033-.005-.048,0,.026.016.04.048.031.079-.008.031-.036.052-.067.053.002.003.004.005.006.007.009.008.021.014.035.018l.045.012c.008.002.012.01.01.018-.002.008-.01.012-.018.01l-.042-.011h-.078c-.015,0-.028.003-.039.009-.002.001-.005.003-.007.004.029.009.051.036.051.068s-.022.06-.051.068c.012.008.025.012.04.013.009-.011.02-.02.033-.027l.092-.053c.007-.004.016-.002.02.005.004.007.002.016-.005.02l-.091.053c-.015.009-.027.02-.034.035.03-.007.061.004.078.032.016.029.012.063-.01.086.014,0,.028-.003.041-.009.002-.013.007-.026.015-.039l.042-.073c.004-.007.013-.009.02-.005.007.004.009.013.005.02l-.042.073c-.009.015-.013.031-.012.047.022-.021.056-.026.084-.011.028.016.041.049.034.079.015-.007.027-.02.035-.034l.136-.236c.009-.016.021-.032.034-.044.006-.006.015-.006.021,0,.006.006.006.015,0,.02-.011.011-.021.024-.029.038l-.05.088c.034.002.069-.007.098-.023.034-.019.062-.05.076-.09.01-.029.027-.056.049-.078.006-.006.015-.006.021,0,.006.006.006.015,0,.02-.019.019-.033.042-.042.067-.008.022-.019.042-.033.059.032,0,.065-.007.092-.023.035-.019.063-.05.077-.09.01-.029.027-.056.049-.078.006-.006.015-.005.021,0,.006.006.006.015,0,.02-.019.019-.033.042-.042.067-.008.022-.019.042-.034.06.033,0,.065-.007.093-.022.035-.019.063-.05.078-.091.01-.029.027-.056.049-.078.006-.006.015-.005.021,0,.005.006.005.015,0,.021-.016.015-.029.034-.038.055Z" fill="#fed700" fill-rule="evenodd" />
          <path d="M27.067,10.809c.023,0,.042-.019.042-.042s-.019-.042-.042-.042c-.048,0-.08.033-.08.081,0,.011.002.02.005.03.021-.019.047-.028.075-.028Z" fill="#0072fe" fill-rule="evenodd" />
          <path d="M23.101,9.398c.022.012.046.005.058-.016.012-.021.003-.045-.017-.057-.041-.023-.086-.01-.109.031-.005.01-.008.018-.011.029.027-.006.054,0,.079.013Z" fill="#0072fe" fill-rule="evenodd" />
          <path d="M27.376,11.021c.012-.02.005-.046-.015-.057-.02-.012-.046-.005-.057.015-.024.042-.011.086.03.11.01.006.018.008.029.011-.006-.028,0-.055.014-.079Z" fill="#0072fe" fill-rule="evenodd" />
          <path d="M25.959,9.203h-.228c-.05,0-.091.041-.091.091,0,.05.041.091.091.091h.197c.107,0,.213-.012.317-.035-.048-.012-.092-.038-.125-.075-.041-.047-.099-.072-.161-.072Z" fill="red" fill-rule="evenodd" />
          <path d="M27.385,9.653c.05-.055.077-.126.077-.201,0-.072-.029-.137-.077-.185-.047-.047-.112-.077-.185-.077h-.306c-.112,0-.223.025-.324.074-.1.049-.206.086-.313.111-.108.025-.218.038-.33.038h-.197c-.067,0-.12-.054-.12-.12s.054-.12.12-.12h.228c.071,0,.136.029.183.082.04.046.097.071.158.071.046,0,.09-.015.124-.04.026-.019.048-.044.063-.072-.035.014-.074.022-.114.022-.039,0-.078-.008-.115-.022-.008-.003-.011-.011-.008-.019.003-.007.011-.011.019-.008.033.013.068.019.104.019.055,0,.107-.016.151-.043.035-.022.066-.053.088-.088-.016.003-.032.005-.048.005-.032,0-.059-.006-.089-.016-.03-.01-.061-.015-.092-.015-.049,0-.096.012-.139.036-.007.004-.016.001-.02-.006-.004-.007-.001-.016.005-.02.047-.026.099-.04.153-.04.021,0,.042.002.062.006-.039-.041-.094-.065-.153-.065-.054,0-.099.018-.14.053-.044.036-.098.056-.155.056h-.266c-.124,0-.225.101-.225.225s.101.224.225.224h.197c.122,0,.24-.014.354-.04.116-.027.226-.066.33-.117.089-.043.184-.066.283-.066h.306c.087,0,.157.07.157.157s-.07.157-.157.157h-.407c-.141,0-.281.029-.41.087-.169.076-.35.094-.53.048-.06-.015-.121-.022-.183-.022h-.607c-.01.014-.023.026-.038.035.007.035.006.071-.003.106-.012.046-.038.086-.074.117-.002.022-.008.044-.018.066-.023.052-.067.093-.121.111-.023.038-.06.068-.11.084-.009.003-.018.005-.028.007-.008.011-.018.022-.028.032-.04.04-.09.069-.145.084-.008.002-.016-.003-.018-.011,0-.004,0-.007.001-.011.009-.018.015-.037.021-.056.006-.023.01-.047.011-.07-.041.061-.097.109-.162.141-.077.038-.166.053-.255.039-.074.065-.161.115-.255.143l-.234.063s-.008,0-.012-.002c-.007-.004-.009-.013-.004-.02.022-.034.016-.071-.012-.099l-.022-.022c-.012-.012-.026-.021-.043-.024.006.01.011.02.014.032.01.038-.012.077-.05.087-.019.005-.038.002-.054-.007.004.01.011.019.019.027l.026.026c.006.006.006.015,0,.021-.006.006-.015.006-.021,0l-.098-.098c-.012-.012-.026-.021-.043-.024.021.034.01.079-.025.099-.022.013-.049.012-.07,0,.004.018.014.03.027.044l.095.025c.008.002.012.01.01.018-.002.008-.01.013-.018.011l-.099-.027c-.016-.004-.033-.005-.05,0,.01.005.019.012.028.021.028.028.028.073,0,.101-.014.014-.032.021-.05.021.008.006.018.011.03.014l.024.006c.006-.005.013-.01.02-.014l.088-.051c.007-.004.016-.001.02.005.004.007.002.016-.005.02l-.088.051c-.015.008-.027.02-.035.035.011-.003.022-.005.035-.005.039,0,.071.032.071.071,0,.02-.008.038-.021.051.01-.002.021-.006.031-.011l.141-.081s.005-.003.008-.003h.174c.071-.002.136-.045.161-.112.01-.03.027-.056.049-.078.006-.006.015-.006.021,0,.005.006.005.015,0,.021-.019.019-.034.042-.042.067-.008.022-.02.041-.034.058.075.003.145-.042.17-.113.01-.029.027-.056.049-.078.006-.006.015-.006.021,0,.006.006.005.015,0,.021-.019.018-.033.041-.042.067-.008.022-.02.042-.034.059.075.002.145-.042.17-.113.01-.029.027-.056.049-.078.006-.006.015-.006.021,0,.006.006.006.015,0,.021-.019.018-.033.042-.042.067-.008.022-.019.042-.034.059.075.002.145-.042.17-.113.011-.029.027-.056.049-.078.006-.006.015-.006.021,0,.006.006.006.015,0,.021-.019.019-.034.042-.042.067-.008.022-.02.042-.034.059.075.002.145-.042.17-.113.01-.029.027-.056.049-.078.006-.006.015-.006.021,0,.006.006.006.015,0,.021-.019.018-.033.041-.042.067-.008.022-.019.042-.034.059.075.002.145-.042.17-.113.01-.029.027-.056.049-.078.006-.006.015-.005.021,0,.005.006.005.015,0,.021-.019.018-.033.042-.042.067-.008.022-.02.042-.034.059.075.002.145-.042.17-.113.01-.029.027-.056.049-.078.006-.006.015-.006.021,0,.005.006.005.015,0,.021-.019.019-.033.042-.042.067-.007.021-.018.04-.032.056.033-.001.064-.011.092-.027.049-.029.084-.077.097-.132l.042-.156c.002-.008.01-.013.018-.011.008.002.012.01.01.018l-.042.156c-.003.014-.008.028-.013.041.053.012.107.018.162.018.154,0,.302-.047.428-.137.102-.072.216-.132.335-.176.105-.039.217-.066.332-.08-.032-.026-.063-.054-.092-.083-.069.035-.143.063-.22.082-.078.02-.16.031-.244.032-.008,0-.015-.006-.015-.014,0-.008.006-.015.015-.015.082-.001.161-.012.237-.031.078-.019.153-.048.223-.084.006-.003.013-.002.017.003.096.1.213.181.343.236.125.053.262.083.407.083.052,0,.104-.004.155-.012h0c.061-.008.122-.012.183-.011.008,0,.014.007.014.015,0,.008-.007.015-.015.014-.046,0-.092.001-.138.006l.158.274c.022.038-.005.088-.05.088h-.096c-.017,0-.033.004-.047.013.029.008.051.036.051.068s-.021.06-.051.068c.012.008.025.012.039.013.009-.013.021-.025.038-.034l.075-.043c.007-.004.016-.002.02.005.004.007.002.016-.005.02l-.074.043c-.015.009-.027.02-.034.035.03-.007.062.006.078.033.016.028.011.063-.01.085.016,0,.032-.004.047-.012l.007-.004c-.01-.03-.006-.061.011-.09l.064-.111c.004-.007.013-.009.02-.005.007.004.01.013.005.02l-.064.111c-.008.015-.013.031-.012.047.022-.021.057-.026.085-.01.028.016.041.048.033.078.015-.007.026-.019.035-.034l.023-.041v-.005s-.023-.082-.023-.082c-.002-.008.002-.016.01-.018.008-.002.016.003.018.01l.022.082c.004.016.012.031.025.042,0-.031.022-.059.052-.067.03-.009.063.005.08.031.005-.016.005-.032,0-.048l-.051-.19s0-.005,0-.007c.007-.041,0-.084-.021-.119-.019-.034-.05-.061-.09-.076-.029-.01-.056-.027-.078-.049-.006-.006-.006-.015,0-.021.006-.006.015-.006.021,0,.019.019.042.034.067.042.022.008.042.02.059.034.001-.033-.007-.065-.022-.093-.019-.035-.05-.063-.09-.078-.029-.01-.056-.027-.078-.049-.006-.006-.006-.015,0-.021.006-.006.015-.006.021,0,.019.019.042.033.067.042.022.008.042.02.059.034.001-.033-.007-.065-.022-.093-.019-.035-.05-.063-.09-.077-.029-.01-.056-.027-.078-.049-.006-.006-.006-.015,0-.021.006-.005.015-.005.021,0,.016.016.035.029.055.038-.003-.007-.005-.015-.006-.023-.003-.017-.013-.032-.026-.043-.021-.017-.05-.022-.075-.012-.043.016-.091.015-.133-.004-.021-.01-.044-.026-.059-.044-.06-.071-.135-.129-.22-.168-.082-.038-.173-.06-.27-.06-.008,0-.015-.007-.015-.015s.006-.014.015-.014h.549c.085,0,.165-.036.222-.099Z" fill="#fed700" fill-rule="evenodd" />
          <path d="M27.452,9.306c.003-.028.01-.055.021-.08.015-.036.038-.069.065-.096.006-.005.015-.005.021,0,.006.006.005.015,0,.021-.025.024-.045.054-.059.086-.013.031-.021.066-.021.102h0c.013-.016.028-.03.046-.042.03-.02.065-.031.103-.031.008,0,.015.006.015.015,0,.008-.006.014-.015.014-.032,0-.062.01-.087.026-.024.016-.044.039-.057.066.005.021.007.042.007.064,0,.047-.01.092-.028.132.058-.037.125-.057.194-.057.033,0,.066.005.097.013-.017-.066-.061-.121-.122-.153-.005-.002-.008-.007-.008-.013,0-.008.006-.015.014-.015.063-.003.119-.031.16-.074.04-.043.065-.1.065-.164v-.003c-.027.028-.058.051-.092.069-.043.023-.092.037-.143.04-.012,0-.02-.014-.012-.024.035-.043.054-.096.054-.151,0-.031-.006-.062-.018-.091-.035.06-.086.108-.148.139-.009.005-.02,0-.022-.01-.009-.052-.035-.099-.073-.134.004.053-.004.107-.023.156-.004.01-.017.012-.025.004-.022-.025-.05-.045-.08-.059-.025-.011-.053-.018-.082-.02.021.039.035.082.04.126.065.009.123.039.167.083.018.018.033.038.046.06Z" fill="#fed700" fill-rule="evenodd" />
          <path d="M27.183,10.98c.02-.012.027-.037.015-.058-.012-.02-.037-.027-.057-.015-.042.024-.053.069-.029.111.005.01.011.017.02.024.008-.027.027-.048.052-.062Z" fill="#0072fe" fill-rule="evenodd" />
          <path d="M24.456,10.884c-.206,0-.397.107-.505.283-.103.167-.284.269-.48.269s-.378-.101-.48-.269c-.105-.172-.29-.278-.491-.283v-2.204h5.887v2.204c-.201.005-.385.111-.491.283-.103.167-.284.269-.481.269s-.378-.101-.48-.269c-.108-.176-.299-.283-.505-.283s-.397.107-.506.283c-.103.167-.284.269-.48.269s-.378-.101-.48-.269c-.108-.176-.299-.283-.506-.283h0ZM27.411,9.668c.061-.071.153-.111.247-.111.038,0,.075.006.111.019.01.004.021-.004.02-.016-.01-.071-.049-.134-.107-.177.053-.011.101-.039.138-.078.045-.048.073-.113.073-.184,0-.014,0-.027-.003-.041,0-.003-.002-.007-.005-.009-.006-.005-.016-.004-.02.002-.029.036-.065.066-.106.088-.031.016-.064.028-.099.033.027-.043.041-.092.041-.142,0-.046-.012-.091-.034-.131-.001-.002-.004-.005-.006-.006-.007-.004-.016,0-.02.007-.029.06-.075.109-.132.143-.016-.064-.055-.119-.109-.156-.003-.002-.007-.003-.011-.002-.008.001-.013.009-.012.017.009.052.006.105-.009.155-.022-.02-.046-.036-.073-.048-.039-.018-.077-.024-.119-.023-.012,0-.019.013-.012.023.025.039.042.084.049.13h-.315c-.117,0-.232.026-.337.077-.025.012-.051.024-.076.035.02-.023.035-.05.046-.079.004-.002.008-.005.012-.007.049-.031.089-.076.115-.129.002-.004.002-.008,0-.012-.003-.008-.011-.012-.019-.009-.024.009-.048.013-.073.013-.024,0-.048-.004-.07-.012-.045-.068-.12-.109-.201-.109-.063,0-.113.022-.161.062-.038.031-.085.048-.134.048h-.266c-.14,0-.254.114-.254.254s.114.254.254.254h.197c.124,0,.245-.014.36-.041.118-.028.232-.068.338-.12.084-.041.175-.062.268-.062h.306c.071,0,.128.057.128.128s-.057.127-.128.127h-.407c-.144,0-.286.03-.417.088-.168.074-.336.094-.515.048-.062-.016-.126-.024-.19-.024h-.589l.102-.176c.022-.038.066-.056.108-.044.011.003.022-.008.018-.019-.006-.016-.015-.031-.026-.044-.024-.028-.057-.046-.093-.051l.013-.023c.024-.041.029-.089.017-.131-.014-.051-.045-.086-.091-.11-.001-.006-.002-.012-.004-.019-.011-.042-.039-.08-.079-.104-.02-.011-.039-.018-.062-.022-.013-.016-.029-.031-.048-.042-.041-.024-.088-.029-.131-.017-.006.002-.012.004-.018.006-.044-.028-.091-.038-.142-.024-.042.011-.08.039-.104.08l-.014.024c-.022-.029-.054-.048-.091-.055-.017-.003-.034-.003-.051,0-.012.002-.016.017-.008.025.031.03.037.078.015.115l-.115.199c-.025.044-.017.099.018.134l-.006.002c-.075.016-.138.08-.158.154-.01.037-.01.075,0,.112-.033.031-.056.07-.068.115v.004c-.16-.02-.3-.111-.384-.247l-.085-.147.052-.194c.012-.013.021-.028.026-.042.005-.015.006-.031.004-.045.031-.044.027-.1-.014-.14-.016-.016-.037-.028-.059-.032-.01-.002-.019.007-.017.017.004.021-.001.04-.012.056-.033-.003-.063.01-.087.033l-.003.003-.02-.035c-.018-.03-.045-.051-.079-.055-.034-.041-.089-.051-.138-.024-.02.012-.037.028-.048.05-.005.009.002.02.012.021.022.001.038.011.052.026-.008.022-.008.046-.001.068l-.018-.011c-.03-.017-.064-.022-.096-.008-.051-.019-.104,0-.132.05-.012.02-.017.043-.016.065,0,.011.012.017.021.012.019-.009.039-.009.057-.003.005.033.026.059.054.075l.022.013c-.005.001-.01.003-.015.005-.05-.019-.103,0-.132.049-.012.021-.018.043-.016.066.002.028.039,0,.079.01.006.033.026.058.054.074l.027.016c.029.017.058.02.083.013.004-.001.009-.003.013-.005l.033.056c.012.02.028.035.048.046.005.046.026.089.058.122.008.008.017.016.027.024.005.046.026.09.057.123.008.008.018.016.027.024.005.047.026.09.058.123.008.008.018.016.027.024.005.047.025.09.057.123.008.009.018.017.028.025.008.047.031.089.064.123.046.046.109.07.174.068h.144c-.065.052-.139.091-.219.115l-.204.055c.011-.037,0-.076-.03-.106l-.022-.022c-.024-.025-.056-.038-.091-.033-.025-.019-.059-.025-.095-.016-.022.006-.043.018-.058.035-.007.008-.003.02.006.024.025.008.041.028.048.053,0,.006-.001.012-.001.018l-.017-.018c-.024-.024-.054-.037-.088-.033-.014-.012-.03-.02-.046-.023-.05-.01-.104.018-.126.063-.005.01.002.02.012.021.026.002.046.016.059.037-.004.025.002.049.015.07-.021.001-.04.008-.056.021-.031-.004-.064.008-.09.033-.016.016-.028.037-.032.059-.002.01.007.019.017.017.026-.005.049.004.068.022.012.034.04.056.075.065l.01.003c-.008.012-.012.025-.014.041-.025.02-.04.051-.04.087,0,.023.007.046.019.065.006.009.019.008.024,0,.015-.022.038-.032.063-.033.033.015.068.011.099-.007l.138-.08h.171c.047-.001.092-.018.127-.046.06.009.119-.008.164-.044.059.01.119-.007.164-.044.059.009.119-.007.164-.044.06.01.119-.007.164-.044.059.009.119-.008.164-.044.06.009.12-.008.165-.045.047.004.094-.007.135-.03.035-.02.064-.049.084-.082.058.014.117.02.176.02.033,0,.065-.002.098-.006-.008.011-.015.025-.019.04-.006.022-.005.046.002.068.003.01.016.013.024.006.016-.014.035-.019.055-.017.005.011.012.021.02.03h-.024c-.02,0-.038.004-.052.012-.014.007-.026.017-.035.029-.053.009-.09.052-.09.109,0,.023.006.046.019.065.006.008.019.008.024,0,.012-.018.029-.028.049-.031.016.019.037.031.062.036-.003.008-.005.016-.007.025-.021.017-.033.038-.037.06-.01.05.018.104.063.126.009.005.02-.002.021-.012.001-.021.011-.039.026-.051.023.009.048.008.071,0,.001.008.003.017.007.025-.019.051,0,.104.049.132.02.012.043.017.066.016.01,0,.017-.012.012-.021-.009-.019-.009-.039-.003-.058.033-.005.059-.026.075-.054l.069-.12c.045.006.09-.004.128-.026.01-.006.019-.012.028-.019.046.007.094-.001.134-.023.01-.006.02-.013.03-.02.046.007.094-.001.134-.024.026-.015.049-.034.067-.059.017-.024.042-.037.072-.037.04,0,.07.002.101-.029.034-.034.039-.083.015-.123l-.117-.203c-.022-.035-.033-.076-.033-.117,0-.041.011-.08.031-.114.065.048.137.089.212.12.128.055.27.085.418.085.053,0,.107-.004.16-.012h.01s.165.284.165.284c.011.019-.002.044-.025.044h-.096c-.035,0-.066.013-.087.041-.054.009-.09.052-.09.109,0,.023.006.046.019.065.006.009.019.008.024,0,.012-.018.029-.028.048-.031.016.02.038.032.063.036-.002.006-.003.011-.004.017-.042.034-.051.09-.023.139.011.02.028.037.049.047.009.005.02-.002.021-.012.001-.021.011-.038.027-.051.026.01.054.008.08-.004-.004.041.016.08.056.103.02.011.043.017.066.016.01,0,.017-.012.012-.021-.009-.019-.009-.039-.003-.058.033-.005.058-.026.075-.055l.013-.023c.011.016.027.03.046.037.011.024.028.041.048.051.045.023.104.01.138-.028.007-.008.003-.02-.006-.023-.02-.007-.034-.021-.043-.039.02-.027.023-.06.015-.091l-.05-.187c.007-.047-.002-.095-.025-.136-.006-.01-.012-.019-.019-.028.007-.046-.001-.094-.024-.134-.006-.011-.012-.021-.02-.03.007-.047-.001-.094-.023-.134-.015-.026-.035-.049-.06-.067-.021-.015-.031-.033-.036-.057-.005-.024-.018-.045-.036-.06-.029-.024-.069-.031-.104-.017-.035.013-.075.012-.11-.003-.02-.009-.034-.02-.049-.036-.062-.074-.141-.135-.23-.176-.027-.013-.056-.024-.086-.033h.353c.096,0,.186-.041.249-.113Z" fill="red" fill-rule="evenodd" />
          <path d="M23.592,13.131l.097-.262-.598-.438s-.007-.007-.007-.012c0-.008.006-.014.014-.014h.764l.162-.435c-.018.021-.034.044-.049.068-.108.176-.299.283-.505.283s-.397-.107-.505-.283c-.1-.163-.275-.264-.466-.269v.38c0,.15.007.299.02.446.193.011.369.116.471.282.103.167.284.269.48.269.042,0,.082-.005.122-.013Z" fill="#0072fe" fill-rule="evenodd" />
          <path d="M24.477,13.446l-.296-.217-.82.601s-.009.004-.014.002c-.008-.003-.011-.011-.008-.019l.242-.65c-.036.006-.073.01-.11.01-.207,0-.397-.107-.505-.283-.096-.157-.261-.256-.443-.268.029.294.083.581.162.858.126.045.234.131.306.249.103.168.284.269.48.269s.378-.101.48-.269c.108-.176.299-.283.505-.283.007,0,.014,0,.021,0Z" fill="#fff" fill-rule="evenodd" />
          <path d="M24.979,13.778l-.338-.909c-.002-.006,0-.013.005-.017l.571-.419h-.728c-.007,0-.013-.005-.014-.011l-.294-.79-.294.791c-.002.006-.008.009-.014.009h-.728l.571.419c.006.004.008.012.005.018l-.338.908.79-.578c.005-.004.012-.004.017,0l.789.578Z" fill="#fed700" fill-rule="evenodd" />
          <path d="M26.244,12.869l-.338.909.789-.578c.005-.004.012-.004.018,0l.789.578-.338-.908c-.003-.006,0-.014.005-.018l.572-.419h-.729c-.006,0-.012-.004-.014-.009l-.294-.791-.294.79c-.002.006-.007.011-.014.011h-.729l.572.419s.007.01.005.017Z" fill="#fed700" fill-rule="evenodd" />
          <path d="M27.305,13.164l.242.65c.003.007-.001.016-.009.019-.005.002-.01,0-.014-.002l-.82-.601-.296.217c.007,0,.014,0,.021,0,.207,0,.397.107.505.283.103.168.284.269.48.269s.378-.101.481-.269c.072-.117.181-.204.306-.249.079-.277.133-.564.162-.858-.182.012-.347.111-.443.268-.108.176-.299.283-.506.283-.037,0-.074-.004-.11-.01Z" fill="#fff" fill-rule="evenodd" />
          <path d="M26.86,11.969l.162.435h.763c.008,0,.014.007.014.014,0,.005-.003.01-.007.012l-.598.438.098.262c.04.008.081.013.122.013.196,0,.378-.102.481-.269.102-.166.277-.271.471-.282.013-.147.02-.295.02-.446v-.38c-.191.005-.366.106-.466.269-.108.176-.299.283-.506.283s-.397-.107-.505-.283c-.015-.024-.031-.047-.049-.068Z" fill="#0072fe" fill-rule="evenodd" />
          <path d="M26.621,11.771l.069-.185c.003-.007.011-.011.019-.008.004.002.007.005.009.008l.116.313c.038.036.072.077.1.123.103.167.284.269.48.269s.378-.102.481-.269c.105-.172.29-.278.491-.283v-.825c-.191.005-.366.106-.466.269-.108.176-.299.283-.506.283s-.397-.107-.505-.283c-.103-.168-.284-.269-.48-.269s-.378.102-.481.269c-.108.176-.299.283-.505.283s-.397-.107-.505-.283c-.103-.168-.284-.269-.481-.269s-.378.102-.48.269c-.108.176-.299.283-.505.283s-.397-.107-.505-.283c-.1-.163-.275-.264-.466-.269v.825c.201.005.385.111.491.283.103.167.284.269.48.269s.378-.102.48-.269c.028-.046.062-.087.1-.123l.116-.313s.004-.007.008-.008c.008-.003.016.001.019.008l.069.185c.061-.021.126-.032.193-.032.207,0,.398.107.506.283.103.167.284.269.48.269s.378-.102.48-.269c.108-.176.299-.283.506-.283.067,0,.132.011.193.032Z" fill="#fff" fill-rule="evenodd" />
          <path d="M26.036,12.74l-.423-.31c-.006-.005-.008-.014-.003-.021.003-.004.007-.006.012-.006h.763l.225-.606c-.058-.02-.119-.031-.183-.031-.196,0-.378.102-.481.269-.108.176-.299.283-.505.283s-.397-.107-.505-.283c-.103-.168-.284-.269-.481-.269-.063,0-.124.011-.182.031l.226.606h.763s.009.002.012.006c.005.007.003.016-.003.021l-.423.31c.044.038.082.084.114.135.103.167.284.269.48.269s.378-.102.48-.269c.031-.051.07-.097.114-.135Z" fill="#0072fe" fill-rule="evenodd" />
          <path d="M24.982,14.765l-.338.909.789-.578c.005-.004.012-.004.017,0l.79.578-.338-.908c-.003-.006,0-.013.005-.017l.572-.419h-.729c-.006,0-.012-.004-.014-.01l-.294-.791-.294.79c-.002.006-.007.011-.014.011h-.729l.571.419c.005.004.007.011.005.017Z" fill="#fed700" fill-rule="evenodd" />
          <path d="M25.905,15.464l-.463-.339-.463.339c.105.151.277.242.463.242s.358-.091.463-.242Z" fill="#fff" fill-rule="evenodd" />
          <path d="M26.519,14.336l-.585.429.179.48c.093-.059.202-.092.316-.092.207,0,.397.107.505.283.023.037.049.071.079.101.201-.208.384-.433.546-.674-.047.012-.095.018-.145.018-.207,0-.397-.107-.505-.283-.087-.141-.23-.236-.39-.262Z" fill="#fff" fill-rule="evenodd" />
          <path d="M25.646,13.992l.114.308h.668c.207,0,.397.107.505.283.103.168.284.269.48.269.058,0,.115-.009.17-.026l.002-.003c.263-.399.468-.839.605-1.308-.111.044-.206.124-.271.229-.108.176-.299.283-.506.283s-.397-.107-.505-.283c-.103-.167-.284-.269-.48-.269-.022,0-.044.001-.066.004l-.478.35c-.065.073-.148.129-.239.162Z" fill="#0072fe" fill-rule="evenodd" />
          <path d="M25.249,13.964l.18-.482c.003-.008.011-.012.019-.009.004.002.007.005.008.009l.18.482c.086-.032.164-.084.226-.153l.35-.942-.152-.111c-.044.038-.082.082-.113.133-.108.176-.299.283-.505.283s-.397-.107-.505-.283c-.031-.051-.069-.095-.113-.133l-.152.111.35.942c.062.069.14.122.227.153Z" fill="#fff" fill-rule="evenodd" />
          <path d="M25.124,14.3l.115-.308c-.091-.033-.173-.089-.239-.162l-.478-.35c-.022-.003-.044-.004-.066-.004-.196,0-.378.102-.48.269-.108.176-.299.283-.505.283s-.397-.107-.505-.283c-.065-.105-.16-.185-.271-.229.137.469.343.909.606,1.308v.003c.056.017.112.026.171.026.196,0,.378-.101.48-.269.108-.176.299-.283.505-.283h.668Z" fill="#0072fe" fill-rule="evenodd" />
          <path d="M24.773,15.245l.179-.48-.585-.429c-.161.026-.304.12-.39.262-.108.176-.299.283-.505.283-.049,0-.098-.006-.144-.018.162.241.345.466.546.674.029-.03.056-.064.078-.101.108-.176.299-.283.505-.283.114,0,.223.033.316.091Z" fill="#fff" fill-rule="evenodd" />
          <path d="M24.6,15.708l.162-.436c-.09-.058-.195-.09-.306-.09-.196,0-.378.101-.48.269-.024.039-.052.075-.083.106.44.448.965.811,1.55,1.064.585-.252,1.11-.616,1.55-1.064-.031-.032-.059-.068-.083-.106-.103-.167-.284-.269-.48-.269-.111,0-.216.032-.306.09l.162.436c.003.008,0,.016-.008.019-.005.002-.01,0-.014-.002l-.334-.245c-.11.159-.291.254-.486.254s-.376-.095-.486-.254l-.334.245c-.006.005-.016.003-.02-.003-.003-.004-.003-.01-.001-.014Z" fill="#0072fe" fill-rule="evenodd" />
          <path d="M21.101,15.981l-.569-.937c-.038-.067-.109-.107-.186-.107-.156,0-.257.161-.195.3l.513,1.14c0-.006,0-.012,0-.018,0-.211.171-.382.382-.382.018,0,.037.001.055.004Z" fill="red" fill-rule="evenodd" />
          <path d="M22.278,16.533c-.287-.288-.538-.614-.744-.972-.213.051-.424.058-.64.023l.249.41s.003.007.002.011c-.002.008-.01.013-.018.011-.027-.006-.054-.009-.081-.009-.195,0-.353.158-.353.353,0,.368.442.396.716.396.302,0,.601-.084.868-.222Z" fill="#fed700" fill-rule="evenodd" />
          <path d="M22.129,13.769c-.113.113-.142.264-.1.414.085.305.206.594.359.86.134-.135.244-.291.32-.461.073-.164.115-.341.115-.526,0-.112-.046-.214-.119-.287-.158-.158-.417-.158-.575,0Z" fill="red" fill-rule="evenodd" />
          <path d="M29.784,15.981l.569-.937c.038-.067.109-.107.185-.107.156,0,.257.161.196.3l-.513,1.14c0-.006,0-.012,0-.018,0-.211-.171-.382-.382-.382-.018,0-.037.001-.055.004Z" fill="red" fill-rule="evenodd" />
          <path d="M28.607,16.533c.287-.288.538-.614.744-.972.213.051.424.058.64.023l-.249.41s-.003.007-.002.011c.002.008.01.013.018.011.027-.006.054-.009.081-.009.195,0,.353.158.353.353,0,.368-.442.396-.716.396-.301,0-.601-.084-.868-.222Z" fill="#fed700" fill-rule="evenodd" />
          <path d="M28.756,13.769c.113.113.142.264.1.414-.085.305-.206.594-.359.86-.133-.135-.244-.291-.32-.461-.074-.164-.115-.341-.115-.526,0-.112.045-.214.119-.287.158-.158.417-.158.575,0Z" fill="red" fill-rule="evenodd" />
          <path d="M25.442,16.887c-.806,0-1.551-.278-2.149-.748-.612-.48-1.073-1.161-1.292-1.948-.03-.105-.028-.208.017-.31l-.688.688c-.046.047-.076.104-.088.166-.012.061-.008.126.016.187.342.866.928,1.603,1.669,2.118.719.5,1.584.791,2.515.791s1.797-.292,2.516-.791c.741-.515,1.327-1.252,1.669-2.118.023-.061.028-.126.015-.187-.013-.061-.042-.119-.088-.166l-.687-.688c.045.102.047.204.017.31-.219.788-.68,1.468-1.292,1.948-.599.47-1.343.748-2.149.748Z" fill="#fed700" fill-rule="evenodd" />
          <path d="M27.655,14.769c-.047.075-.072.161-.072.249,0,.307.101.598.272.852.243-.234.454-.504.627-.801-.139-.139-.253-.3-.331-.476-.075-.168-.118-.349-.118-.537v-.008c-.106.252-.232.493-.377.721Z" fill="#fed700" fill-rule="evenodd" />
          <path d="M23.229,14.769c-.145-.228-.271-.469-.377-.721v.008c0,.188-.043.37-.118.537-.079.175-.192.336-.331.476.173.297.384.567.627.801.17-.254.271-.545.271-.852,0-.088-.025-.174-.072-.249Z" fill="#fed700" fill-rule="evenodd" />
          <path d="M24.694,8.282c-.135-.002-.319-.017-.494-.06l-.101.117c-.063.075-.059.187.011.257.034.034.082.056.134.056.083-.003.16-.038.217-.099l.234-.271Z" fill="#fff" fill-rule="evenodd" />
          <path d="M25.11,8.246c-.124.023-.251.035-.377.035l-.185.214c.056.035.121.052.187.047.078-.006.151-.041.204-.099l.171-.197Z" fill="#0072fe" fill-rule="evenodd" />
          <path d="M25.724,8.074c-.063-.06-.148-.09-.235-.084-.03.002-.059.008-.087.019.025.017.041.05.041.078,0,.04-.026.077-.064.09-.073.024-.147.044-.222.06l-.169.196c.068.061.158.09.249.081.083-.008.159-.047.214-.109l.263-.319s.007-.008.01-.012Z" fill="#fff" fill-rule="evenodd" />
          <path d="M26.206,8.073c-.068-.062-.16-.093-.252-.084-.085.008-.163.049-.218.115l-.263.319s-.006.007-.009.01c.063.058.146.087.232.081.078-.006.151-.041.204-.099.086-.086.17-.203.255-.295.015-.017.033-.033.051-.047Z" fill="#0072fe" fill-rule="evenodd" />
          <path d="M26.574,8.223c.025-.029.042-.048.077-.067-.029-.038-.067-.069-.111-.09-.047-.023-.1-.034-.156-.03-.08.006-.154.043-.208.103-.086.096-.171.197-.255.294.064.075.159.115.257.108.078-.006.151-.041.204-.099l.19-.22Z" fill="#fff" fill-rule="evenodd" />
          <path d="M26.6,8.238l-.194.225c-.013.014-.027.027-.043.039.029.047.069.086.117.112.043.024.092.037.144.037.088,0,.17-.034.23-.1l.056-.066c.031-.036.048-.082.048-.129,0-.055-.022-.104-.058-.14-.036-.036-.086-.058-.141-.058-.069,0-.116.029-.159.08Z" fill="#0072fe" fill-rule="evenodd" />
          <polygon points="25.344 5.94 25.261 5.988 25.261 6.085 25.344 6.133 25.428 6.085 25.428 5.988 25.344 5.94" fill="#fed700" fill-rule="evenodd" />
          <polygon points="25.133 5.914 25.133 5.818 25.064 5.778 25.064 5.954 25.133 5.914" fill="#fed700" fill-rule="evenodd" />
          <polygon points="25.148 6.133 25.231 6.085 25.231 5.988 25.148 5.94 25.064 5.988 25.064 6.085 25.148 6.133" fill="#fed700" fill-rule="evenodd" />
          <polygon points="25.541 5.94 25.624 5.988 25.624 6.085 25.541 6.133 25.457 6.085 25.457 5.988 25.541 5.94" fill="#fed700" fill-rule="evenodd" />
          <polygon points="25.752 5.914 25.752 5.818 25.82 5.778 25.82 5.954 25.752 5.914" fill="#fed700" fill-rule="evenodd" />
          <polygon points="25.737 6.133 25.653 6.085 25.653 5.988 25.737 5.94 25.82 5.988 25.82 6.085 25.737 6.133" fill="#fed700" fill-rule="evenodd" />
          <path d="M25.752,6.158l.069-.04v.014c0,.046-.027.087-.069.105v-.08Z" fill="#fed700" fill-rule="evenodd" />
          <path d="M25.701,5.806c-.025-.007-.049-.017-.071-.031l-.075.043v.096l.084.048.083-.048v-.096l-.021-.012Z" fill="#fed700" fill-rule="evenodd" />
          <path d="M25.743,5.644c.002.014.003.027.003.041,0,.035-.007.069-.02.101l.012.007.083-.048c-.003-.046-.034-.086-.077-.1Z" fill="#fed700" fill-rule="evenodd" />
          <path d="M25.159,5.786c-.013-.032-.02-.066-.02-.101,0-.014.001-.028.003-.041-.043.015-.074.054-.078.1l.083.048.012-.007Z" fill="#fed700" fill-rule="evenodd" />
          <path d="M25.255,5.775c-.022.014-.046.024-.071.031l-.022.012v.096l.084.048.083-.048v-.096l-.075-.043Z" fill="#fed700" fill-rule="evenodd" />
          <path d="M25.419,5.75c-.021-.024-.038-.05-.051-.08-.003-.007-.006-.015-.008-.022-.01.028-.026.053-.044.075-.01.012-.022.023-.034.033l.063.036.075-.043Z" fill="#fed700" fill-rule="evenodd" />
          <path d="M25.525,5.648c-.002.007-.005.015-.008.022-.012.03-.03.056-.051.08l.075.043.063-.036c-.012-.01-.024-.021-.034-.033-.019-.022-.034-.048-.045-.075Z" fill="#fed700" fill-rule="evenodd" />
          <path d="M25.614,5.359c-.008,0-.014-.007-.014-.015,0-.008.007-.014.015-.014.019,0,.038.003.056.007.065-.013.131-.021.197-.022-.021-.025-.047-.046-.077-.062-.053-.028-.115-.037-.174-.025-.008.002-.016-.003-.017-.011-.001-.008.004-.016.012-.017.027-.005.054-.007.082-.005.041-.049.085-.094.134-.135-.021-.005-.043-.007-.065-.007-.057,0-.112.015-.16.045-.007.004-.016.002-.02-.005-.004-.007-.002-.016.005-.02.018-.011.037-.02.058-.028.008-.025.017-.049.028-.072.007-.016.015-.032.024-.047-.062.014-.119.047-.162.095-.003.004-.007.006-.013.006-.008,0-.014-.008-.014-.016.002-.043-.002-.078-.019-.119-.011-.027-.027-.052-.047-.074-.02.021-.036.047-.047.074-.016.039-.022.077-.019.119,0,.008-.005.015-.014.016-.005,0-.009-.002-.013-.006-.043-.048-.099-.081-.162-.095.021.038.039.078.052.12.02.007.039.017.057.028.007.004.009.013.005.02-.004.007-.013.009-.02.005-.048-.029-.103-.045-.16-.045-.022,0-.044.002-.065.007.049.041.094.086.134.135.027-.002.055,0,.082.005.008.002.013.009.012.017-.002.008-.009.013-.017.011-.059-.012-.121-.003-.174.025-.029.016-.055.037-.076.062.066.002.132.009.196.022.018-.004.037-.006.056-.007.008,0,.015.006.015.014,0,.008-.006.015-.014.015-.063.003-.12.024-.168.058-.041.03-.075.07-.097.117.023-.005.046-.008.069-.012.043-.005.083-.006.127-.005.017-.02.038-.038.061-.052.007-.004.016-.002.02.005.004.007.002.016-.005.02-.068.042-.109.115-.109.195,0,.031.006.061.018.089.042-.013.079-.038.107-.07.029-.035.049-.078.053-.127,0-.013,0-.026,0-.04,0-.008.007-.014.016-.014.008,0,.014.007.014.016,0,.006,0,.012,0,.019,0,.035.007.069.02.1.012.027.028.052.047.074.02-.022.036-.047.047-.074.013-.031.02-.064.02-.1v-.019c-.001-.008.005-.015.013-.016.008,0,.015.005.016.014,0,.014,0,.026,0,.04.004.048.024.092.054.127.027.033.064.057.106.07.012-.028.018-.058.018-.089,0-.08-.041-.154-.109-.195-.007-.004-.009-.013-.005-.02.004-.007.013-.009.02-.005.023.014.044.032.061.052.043,0,.084,0,.127.005.024.003.046.007.069.012-.022-.047-.056-.086-.097-.117-.048-.035-.105-.056-.168-.058Z" fill="#fed700" fill-rule="evenodd" />
          <path d="M25.785,6.253c.109.023.215.054.315.091.047.018.093.037.138.058.079-.079.17-.145.272-.198.08-.042.168-.075.262-.099-.084-.008-.165-.009-.244-.003-.105.008-.205.027-.298.058-.005.002-.011.001-.016-.003-.006-.006-.006-.015,0-.021.082-.087.177-.16.285-.217.084-.044.175-.08.273-.105-.084-.008-.165-.009-.244-.003-.105.008-.205.028-.298.058-.005.002-.011.001-.016-.003-.006-.006-.006-.015,0-.021.082-.087.177-.16.285-.217.084-.044.175-.08.273-.105-.112-.011-.219-.009-.321.005-.129.017-.248.053-.357.106-.004.002-.01.002-.014,0-.007-.004-.009-.013-.005-.02.084-.138.193-.252.324-.341.11-.074.234-.129.372-.164-.123-.012-.24-.008-.351.009-.137.021-.264.065-.377.128-.005.002-.01.002-.014,0-.007-.004-.009-.013-.005-.02.057-.096.128-.182.214-.258.065-.058.138-.11.218-.156-.144.024-.275.067-.392.126-.132.067-.246.155-.337.261.027.006.053.015.077.028.042.022.078.055.104.094.006.01,0,.023-.012.023-.055,0-.11.004-.165.012.024.01.046.023.067.038.054.039.095.093.118.156.004.011-.006.022-.018.019-.03-.008-.061-.013-.093-.017-.034-.004-.068-.006-.102-.006.013.02.023.043.03.066.066.014.114.073.114.141v.379c0,.049-.025.094-.065.12Z" fill="#fed700" fill-rule="evenodd" />
          <path d="M25.555,6.217c.056.006.112.014.167.023v-.082l-.083-.048-.084.048v.059Z" fill="#fed700" fill-rule="evenodd" />
          <path d="M25.359,6.204c.056.001.112.004.167.009v-.056l-.084-.048-.083.048v.047Z" fill="#fed700" fill-rule="evenodd" />
          <path d="M25.163,6.209c.049-.003.099-.005.149-.005h.018v-.046l-.083-.048-.084.048v.051Z" fill="#fed700" fill-rule="evenodd" />
          <path d="M25.098,6.214c.012,0,.023-.002.035-.003v-.053l-.069-.04v.014c0,.031.012.06.034.081Z" fill="#fed700" fill-rule="evenodd" />
          <path d="M24.566,6.329c.045-.016.09-.03.136-.043.116-.032.237-.056.361-.069-.018-.025-.027-.054-.027-.085v-.379c0-.068.048-.127.114-.141.007-.023.017-.046.03-.066-.033,0-.068.002-.102.006-.032.004-.063.01-.093.017-.011.003-.022-.008-.017-.019.023-.063.065-.117.118-.156.021-.015.043-.028.067-.038-.055-.008-.11-.012-.165-.012-.011,0-.019-.013-.012-.023.027-.039.062-.072.104-.094.024-.013.05-.022.077-.028-.091-.106-.205-.194-.337-.261-.116-.059-.248-.101-.392-.126.081.045.154.098.219.156.085.076.157.163.213.258.004.007.002.016-.005.02-.004.003-.01.003-.015,0-.113-.064-.239-.107-.376-.128-.11-.017-.228-.021-.351-.009.138.035.263.091.372.164.131.088.241.202.325.341.004.007.002.016-.005.02-.005.003-.01.003-.014,0-.108-.053-.228-.089-.356-.106-.102-.014-.209-.015-.321-.005.098.025.189.06.273.105.108.057.203.13.285.217.006.006.005.015,0,.021-.004.004-.01.005-.015.003-.093-.031-.193-.051-.298-.058-.078-.006-.16-.005-.244.003.098.025.189.06.273.105.108.057.203.13.285.217.006.006.005.015,0,.021-.004.004-.01.005-.015.003-.093-.031-.193-.051-.298-.058-.078-.006-.16-.005-.244.003.074.019.145.044.211.074.088.041.17.091.242.15Z" fill="#fed700" fill-rule="evenodd" />
          <polygon points="25.442 5.77 25.359 5.818 25.359 5.914 25.442 5.963 25.526 5.914 25.526 5.818 25.442 5.77" fill="#fed700" fill-rule="evenodd" />
          <path d="M21.529,14.855l.337-.153.02.045-.139.063.079.174.139-.063.02.044-.337.153-.02-.044.158-.072-.079-.174-.158.072-.02-.045h0ZM21.686,15.203l.133.242.038-.021-.11-.199.11-.061.099.179.038-.021-.099-.179.099-.055.106.191.038-.021-.129-.234-.324.179h0ZM21.94,15.632l.307-.207.027.041-.126.086.107.158.126-.085.027.041-.307.207-.027-.041.145-.097-.107-.159-.144.097-.027-.041h0ZM22.135,15.911l.033.04.112-.041.1.12-.058.105.036.043.187-.353-.035-.041-.375.129h0ZM22.32,15.895l.081.097.054-.095c.016-.029.031-.052.042-.07-.022.012-.044.022-.068.03l-.109.038h0ZM22.433,16.249l.242-.22-.082-.09.032-.029.197.217-.032.029-.082-.09-.242.219-.033-.036h0ZM22.594,16.417l.037.032.113-.133.146.124-.113.133.037.032.24-.282-.037-.032-.099.116-.145-.124.099-.116-.037-.032-.24.282h0ZM23.001,16.752l.205-.308.208.139-.024.036-.167-.111-.064.096.145.096-.024.036-.145-.096-.093.14-.041-.027h0ZM23.347,16.769c-.016.028-.026.058-.028.09-.003.032.004.063.019.091.015.029.038.052.068.069.028.016.057.025.089.026.031,0,.061-.008.09-.026.028-.018.052-.043.071-.075.018-.032.029-.064.031-.097.002-.033-.004-.063-.02-.091-.015-.028-.038-.051-.067-.068-.045-.026-.091-.033-.137-.02-.046.013-.085.046-.116.099h0ZM23.391,16.795c-.023.038-.03.075-.022.109.008.034.027.061.058.079.032.019.065.023.098.012.034-.01.063-.036.086-.077.015-.026.024-.051.027-.076.003-.024-.002-.047-.012-.067-.011-.021-.027-.037-.048-.05-.03-.017-.062-.022-.095-.015-.034.008-.064.036-.092.084h0ZM24.005,16.897l.044.021-.09.194c-.016.034-.032.059-.049.075-.017.016-.038.026-.064.029-.026.003-.055-.003-.087-.018-.031-.014-.054-.032-.069-.052-.015-.02-.022-.042-.021-.067.001-.024.01-.055.026-.09l.09-.194.044.021-.09.194c-.014.029-.021.052-.022.068-.001.017.003.031.013.045.01.014.024.025.043.034.033.015.059.019.08.01.021-.008.041-.034.06-.076l.09-.194h0ZM23.979,17.283l.044.016.095-.275.089.338.048.016.121-.35-.044-.016-.095.275-.089-.338-.048-.016-.121.35h0ZM24.341,17.41l.076-.362.125.026c.028.006.049.012.063.019.02.009.035.021.048.037.016.02.026.044.03.071.004.027.003.057-.004.089-.006.027-.014.051-.025.071-.011.02-.023.036-.036.048-.013.012-.026.02-.04.026-.014.005-.029.008-.047.009-.018,0-.037-.001-.059-.006l-.131-.028h0ZM24.398,17.378l.077.016c.024.005.043.007.058.005.014-.002.026-.006.036-.012.014-.009.026-.023.036-.041.011-.018.018-.041.024-.068.008-.038.008-.068,0-.091-.008-.023-.02-.04-.037-.05-.012-.008-.032-.014-.06-.02l-.076-.016-.058.278h0ZM24.718,17.487l.054-.366.264.039-.006.043-.216-.032-.017.112.202.03-.006.043-.202-.03-.019.125.225.033-.007.043-.273-.04h0ZM25.067,17.534l.026-.369.127.009c.029.002.051.005.065.01.021.007.038.016.052.03.018.018.031.04.039.066.008.026.011.056.008.089-.002.028-.007.053-.015.074-.008.021-.018.039-.029.052-.011.014-.023.024-.036.031-.013.007-.028.012-.045.015-.018.003-.037.004-.06.002l-.133-.009h0ZM25.119,17.494l.079.006c.024.002.043,0,.058-.003.014-.004.026-.009.034-.017.012-.011.022-.026.03-.045.008-.019.013-.043.014-.071.003-.039-.001-.069-.012-.091-.011-.021-.026-.036-.043-.045-.013-.006-.033-.01-.063-.012l-.077-.005-.02.283h0ZM25.601,17.549l-.027-.369.049-.004.027.369-.049.003h0ZM25.839,17.532l-.025-.326-.122.009-.003-.043.293-.022.003.043-.122.009.025.326-.049.004h0ZM26.357,17.068l.048-.011.047.209c.008.036.01.066.007.089-.003.023-.014.044-.033.062-.018.018-.045.031-.08.039-.034.008-.063.008-.087.001s-.043-.02-.057-.04c-.014-.02-.026-.049-.034-.088l-.047-.209.048-.011.047.209c.007.032.015.054.024.068.009.014.022.023.038.027.016.005.034.005.055,0,.035-.008.058-.021.069-.041s.012-.052.002-.097l-.047-.209h0ZM26.573,17.392l-.106-.355.134-.04c.024-.007.042-.011.055-.013.018-.002.035-.001.049.003.014.005.027.013.039.026.012.012.02.028.025.045.009.03.007.058-.006.085-.013.027-.044.048-.095.063l-.091.027.043.145-.047.014h0ZM26.564,17.191l.092-.028c.031-.009.05-.021.059-.036.009-.015.011-.033.005-.053-.004-.015-.012-.026-.023-.035-.01-.008-.023-.012-.036-.012-.009,0-.023.004-.045.01l-.091.027.038.127h0ZM26.823,17.132c-.026-.056-.031-.106-.016-.152.015-.045.046-.079.094-.101.031-.014.062-.02.094-.017.032.003.06.015.086.035.025.02.046.047.061.081.016.034.023.068.022.101-.001.033-.011.063-.03.088-.019.025-.043.045-.072.059-.032.015-.063.02-.095.017-.032-.004-.06-.016-.086-.036-.025-.02-.044-.045-.058-.074h0ZM26.869,17.111c.019.04.044.067.077.08s.065.012.098-.003c.033-.016.055-.04.066-.073.011-.033.006-.072-.014-.115-.013-.027-.028-.049-.047-.065-.019-.016-.04-.026-.062-.028-.023-.003-.046,0-.068.011-.031.015-.053.038-.066.07-.013.032-.007.073.016.124h0ZM27.286,17.118l.041-.022-.137-.256.308.165.044-.024-.174-.327-.042.022.137.256-.308-.165-.044.024.175.327h0ZM27.811,16.803l-.191-.265-.099.071-.025-.035.238-.171.025.035-.099.072.191.265-.04.029h0ZM27.998,16.664l.037-.032-.112-.133.146-.123.112.134.038-.032-.238-.284-.038.032.098.117-.146.123-.098-.117-.038.031.238.284h0ZM28.287,16.415l-.26-.263.19-.188.031.031-.155.153.08.081.145-.144.031.031-.145.144.089.09.162-.16.03.031-.196.194h0ZM28.525,15.991c.019.015.041.024.064.027.023.002.046-.002.068-.013.022-.011.043-.03.065-.056.017-.02.028-.042.034-.064s.006-.043,0-.063c-.006-.02-.017-.036-.032-.048-.015-.012-.032-.02-.05-.021-.018-.002-.038.003-.059.013-.014.007-.038.023-.07.048-.032.025-.054.039-.067.041-.013.002-.024-.001-.034-.01-.012-.01-.018-.023-.017-.041,0-.017.01-.037.029-.06.018-.022.036-.035.055-.039s.037,0,.057.014l.027-.038c-.017-.013-.036-.021-.057-.023-.02-.002-.041.002-.061.013-.02.01-.039.026-.056.048-.016.019-.027.039-.033.06-.006.021-.006.041,0,.06.006.018.016.034.031.046.013.011.028.017.044.019.016.002.033,0,.052-.008.014-.006.035-.02.063-.041.028-.021.046-.034.056-.039.014-.008.027-.012.038-.012.011,0,.021.004.03.011.009.007.015.017.018.028.003.012.002.025-.003.039-.005.015-.013.029-.025.044-.014.016-.028.029-.045.037-.016.008-.032.012-.046.011-.014-.002-.029-.007-.045-.017l-.026.038h0ZM28.846,15.774l-.303-.213.154-.218.035.025-.126.178.093.066.118-.167.035.025-.118.167.103.073.131-.185.035.025-.159.226h0ZM29.026,15.518l.025-.046-.08-.088.074-.138.119.015.026-.049-.397-.042-.025.048.259.3h0ZM28.942,15.352l.06-.111-.109-.015c-.033-.005-.06-.009-.08-.013.019.016.036.033.053.052l.076.087h0ZM29.097,15.133l.016-.043c.018.006.033.008.048.006.014-.002.028-.009.042-.021.014-.012.025-.028.035-.046.008-.017.012-.033.014-.048.001-.015-.001-.028-.007-.039-.006-.011-.014-.018-.024-.023-.01-.005-.021-.006-.032-.004-.01.002-.022.009-.034.021-.008.007-.022.025-.044.052-.022.027-.039.045-.052.054-.016.012-.032.019-.048.021-.016.002-.032,0-.047-.008-.017-.008-.031-.02-.04-.037-.01-.017-.015-.036-.014-.058.001-.022.007-.044.018-.067.012-.025.026-.045.043-.06.017-.015.036-.024.056-.027s.041,0,.06.008l-.017.044c-.022-.008-.042-.008-.059,0s-.032.025-.044.05c-.013.027-.017.049-.013.065.004.017.013.029.027.035.012.006.024.006.036.001s.03-.023.056-.055c.025-.032.044-.053.057-.064.018-.015.036-.024.054-.027.018-.003.036,0,.054.009.018.009.032.022.043.039.011.018.016.038.016.061,0,.023-.006.047-.018.07-.014.03-.031.053-.049.07-.018.016-.039.026-.063.029-.023.003-.046,0-.069-.01Z" fill-rule="evenodd" />
          <path d="M26.704,13.079l-.567.415s-.009.004-.014.002c-.008-.003-.011-.011-.009-.019l.243-.652-.374-.274s-.007-.007-.007-.012c0-.008.007-.015.015-.015h.478l.22-.593s.004-.007.008-.008c.008-.003.016,0,.019.008l.22.593h.478s.009.002.012.006c.005.006.003.016-.003.02l-.375.275.243.651s.001.01-.002.014c-.005.007-.014.008-.02.003l-.567-.415Z" fill-rule="evenodd" />
          <path d="M25.442,14.975l-.567.415s-.009.004-.014.002c-.008-.003-.012-.011-.009-.019l.243-.652-.374-.274s-.007-.007-.007-.012c0-.008.006-.015.015-.015h.478l.221-.593s.004-.007.008-.008c.008-.003.016.001.019.008l.221.593h.478s.009.002.012.006c.005.007.003.016-.003.02l-.375.275.242.652s.002.01-.001.014c-.005.007-.014.008-.021.003l-.567-.415Z" fill-rule="evenodd" />
          <path d="M24.181,13.079l-.567.415s-.009.004-.014.002c-.007-.003-.011-.011-.008-.019l.243-.652-.374-.274s-.007-.007-.007-.012c0-.008.007-.015.015-.015h.478l.221-.593s.004-.007.008-.008c.008-.003.016,0,.019.008l.221.593h.478s.009.002.012.006c.005.006.003.016-.003.02l-.375.275.242.651s.001.01-.002.014c-.005.007-.014.008-.02.003l-.567-.415Z" fill-rule="evenodd" />
          <path d="M26.159,13.442l.536-.393c.005-.004.012-.004.017,0l.536.393-.23-.617c-.002-.006,0-.013.005-.017l.347-.255h-.444c-.007,0-.012-.005-.014-.011l-.21-.564-.21.565c-.002.006-.008.01-.014.01h-.444l.348.255c.006.004.007.011.005.018l-.229.616Z" fill="#007c29" fill-rule="evenodd" />
          <path d="M23.636,13.442l.536-.393c.005-.004.012-.004.017,0l.536.393-.229-.617c-.002-.006,0-.013.005-.017l.347-.255h-.444c-.007,0-.012-.005-.014-.011l-.21-.564-.211.565c-.002.006-.008.01-.014.01h-.444l.348.255c.005.004.007.011.005.018l-.229.616Z" fill="#007c29" fill-rule="evenodd" />
          <path d="M24.898,15.338l.536-.393c.005-.004.013-.004.018,0l.536.392-.23-.617c-.002-.006,0-.013.005-.017l.348-.255h-.444c-.007,0-.012-.005-.014-.011l-.21-.564-.21.565c-.002.006-.008.01-.014.01h-.444l.348.255c.005.004.007.011.004.018l-.229.616Z" fill="#007c29" fill-rule="evenodd" />
          <path d="M23.214,6.581c.016,0,.03.013.03.03,0,.017-.013.03-.03.03-.016,0-.03-.013-.03-.03,0-.016.014-.03.03-.03Z" fill="#fff" fill-rule="evenodd" />
        </g>
      </g>
    </g>
  </g>
</g></svg>