<?xml version="1.0" encoding="UTF-8"?>
<svg id="Layer_2" data-name="Layer 2" xmlns="http://www.w3.org/2000/svg" viewBox="0 0 118.96 79.168">
  <g id="Layer_1-2" data-name="Layer 1">
    <g>
      <rect width="118.96" height="79.168" fill="#e73825"/>
      <polygon points="19.817 8.48 22.53 16.051 30.719 16.057 24.454 21.191 26.622 29.073 19.817 24.488 13.209 29.073 15.495 21.185 9.212 16.342 17.126 16.057 19.817 8.48" fill="#ffde00"/>
      <polygon points="36.92 5.724 39.299 6.668 41.026 4.713 40.935 7.291 43.273 8.431 40.747 9.094 40.452 11.639 39.045 9.431 36.566 9.916 38.164 7.96 36.92 5.724" fill="#ffde00"/>
      <polygon points="46.058 12.685 47.911 14.452 50.244 13.284 49.195 15.642 50.938 17.572 48.348 17.242 47.122 19.492 46.644 16.919 44.162 16.441 46.376 15.226 46.058 12.685" fill="#ffde00"/>
      <polygon points="47.631 24.204 48.463 26.625 51.071 26.663 49.055 28.273 49.713 30.789 47.565 29.304 45.44 30.736 46.202 28.231 44.219 26.664 46.744 26.605 47.631 24.204" fill="#ffde00"/>
      <polygon points="40.916 32.598 40.824 35.156 43.246 36.128 40.787 36.908 40.499 39.492 39.027 37.334 36.529 37.911 38.139 35.845 36.85 33.671 39.227 34.521 40.916 32.598" fill="#ffde00"/>
    </g>
  </g>
</svg>