<?xml version="1.0" encoding="UTF-8"?>
<svg id="Layer_2" data-name="Layer 2" xmlns="http://www.w3.org/2000/svg" xmlns:xlink="http://www.w3.org/1999/xlink" viewBox="0 0 118.96 79.261">
  <defs>
    <clipPath id="clippath">
      <path d="M.335,39.584c0,21.862,17.723,39.586,39.585,39.586s39.585-17.724,39.585-39.586S61.782,0,39.92,0,.335,17.723.335,39.584Z" fill="none"/>
    </clipPath>
  </defs>
  <g id="Layer_1-2" data-name="Layer 1">
    <g clip-path="url(#clippath)">
      <g>
        <rect y=".093" width="118.96" height="79.168" fill="#e73825"/>
        <polygon points="19.817 8.573 22.53 16.144 30.719 16.149 24.454 21.284 26.622 29.166 19.817 24.581 13.209 29.166 15.495 21.278 9.212 16.434 17.126 16.149 19.817 8.573" fill="#ffde00"/>
        <polygon points="36.92 5.816 39.299 6.761 41.026 4.806 40.934 7.384 43.273 8.523 40.747 9.186 40.452 11.731 39.045 9.523 36.566 10.009 38.164 8.053 36.92 5.816" fill="#ffde00"/>
        <polygon points="46.058 12.778 47.911 14.545 50.244 13.377 49.195 15.734 50.938 17.665 48.348 17.335 47.122 19.585 46.643 17.012 44.162 16.534 46.376 15.318 46.058 12.778" fill="#ffde00"/>
        <polygon points="47.631 24.297 48.463 26.718 51.071 26.756 49.055 28.366 49.713 30.882 47.565 29.396 45.44 30.829 46.202 28.324 44.219 26.757 46.744 26.698 47.631 24.297" fill="#ffde00"/>
        <polygon points="40.916 32.69 40.824 35.249 43.246 36.221 40.787 37.001 40.499 39.585 39.027 37.427 36.529 38.004 38.139 35.938 36.85 33.764 39.227 34.614 40.916 32.69" fill="#ffde00"/>
      </g>
    </g>
  </g>
</svg>