<?xml version="1.0" encoding="UTF-8"?>
<svg id="Layer_2" data-name="Layer 2" xmlns="http://www.w3.org/2000/svg" xmlns:xlink="http://www.w3.org/1999/xlink" viewBox="0 0 119.37 79.17">
  <defs>
    <clipPath id="clippath">
      <path d="M0,39.584c0,21.862,17.723,39.586,39.585,39.586s39.585-17.724,39.585-39.586S61.447,0,39.585,0,0,17.723,0,39.584Z" fill="none"/>
    </clipPath>
  </defs>
  <g id="Layer_1-2" data-name="Layer 1">
    <g clip-path="url(#clippath)">
      <g>
        <rect x=".41" y="0" width="118.96" height="79.168" fill="#4377bc"/>
        <polygon points=".41 59.542 .41 79.169 8.018 79.169 119.37 19.697 119.37 0 111.63 0 .41 59.542" fill="#f6d617"/>
        <polygon points=".41 63.568 .41 79.169 119.37 15.813 119.37 0 .41 63.568" fill="#ce2027"/>
        <polygon points="31.678 33.056 22.52 26.917 13.607 33.056 16.515 22.471 8 15.977 18.904 15.71 22.52 5.57 26.071 15.62 36.871 16.065 28.12 22.419 31.678 33.056" fill="#f6d617"/>
      </g>
    </g>
  </g>
</svg>