<?xml version="1.0" encoding="UTF-8"?>
<svg id="Layer_2" data-name="Layer 2" xmlns="http://www.w3.org/2000/svg" viewBox="0 0 33.946 22.631">
  <g id="_Ñëîé_1" data-name="Ñëîé 1">
    <g>
      <g>
        <rect width="33.946" height="22.631" fill="#fff"/>
        <path d="M14.996,0l-4.773,3.336V0h4.773ZM6.716,0v3.365L1.901,0h4.815ZM16.939,0v1.329l-3.552,2.483h3.552v3.664h-3.552l3.552,2.483v1.358h-1.901l-4.815-3.365v3.365h-3.508v-3.336l-4.773,3.336H0v11.315h33.946V0h-17.007ZM0,9.987v-2.483h3.552l-3.552,2.483h0ZM0,3.84h3.552L0,1.358v2.482Z" fill="#039" fill-rule="evenodd"/>
      </g>
      <g>
        <rect y="4.561" width="16.939" height="2.223" fill="red"/>
        <rect x="7.405" width="2.128" height="11.315" fill="red"/>
        <polygon points="1.263 11.315 6.716 7.504 5.453 7.504 0 11.315 1.263 11.315" fill="red" fill-rule="evenodd"/>
        <polygon points="4.232 3.84 0 .883 0 0 5.495 3.84 4.232 3.84" fill="red" fill-rule="evenodd"/>
        <polygon points="15.676 0 10.224 3.811 11.487 3.811 16.939 0 15.676 0" fill="red" fill-rule="evenodd"/>
        <polygon points="12.707 7.475 16.939 10.432 16.939 11.315 11.444 7.475 12.707 7.475" fill="red" fill-rule="evenodd"/>
      </g>
      <g>
        <polygon points="24.192 7.74 25.147 7.74 25.442 6.832 25.738 7.74 26.693 7.74 25.92 8.301 26.215 9.21 25.442 8.647 24.67 9.21 24.965 8.301 24.192 7.74" fill="#fff" fill-rule="evenodd"/>
        <polygon points="21.748 8.788 22.622 8.403 22.526 7.453 23.162 8.165 24.036 7.781 23.555 8.605 24.192 9.318 23.257 9.113 22.777 9.941 22.681 8.989 21.748 8.788" fill="#fff" fill-rule="evenodd"/>
        <polygon points="20.746 18.358 21.701 18.358 21.996 17.449 22.291 18.358 23.246 18.358 22.473 18.918 22.769 19.827 21.996 19.264 21.223 19.827 21.519 18.918 20.746 18.358" fill="#fff" fill-rule="evenodd"/>
        <polygon points="19.954 10.763 20.591 10.051 20.11 9.226 20.984 9.611 21.621 8.899 21.523 9.849 22.398 10.235 21.463 10.435 21.368 11.387 20.887 10.561 19.954 10.763" fill="#fff" fill-rule="evenodd"/>
        <polygon points="18.609 11.801 19.565 11.801 19.86 10.892 20.155 11.801 21.11 11.801 20.337 12.361 20.632 13.27 19.86 12.707 19.087 13.27 19.382 12.361 18.609 11.801" fill="#fff" fill-rule="evenodd"/>
        <polygon points="19.216 17.608 19.853 16.896 19.372 16.07 20.246 16.456 20.882 15.744 20.785 16.693 21.66 17.079 20.725 17.28 20.63 18.231 20.149 17.405 19.216 17.608" fill="#fff" fill-rule="evenodd"/>
        <polygon points="20.75 15.298 20.113 14.586 20.594 13.76 19.72 14.146 19.083 13.433 19.181 14.383 18.306 14.769 19.241 14.97 19.335 15.921 19.817 15.095 20.75 15.298" fill="#fff" fill-rule="evenodd"/>
        <polygon points="25.363 20.411 24.727 19.699 25.207 18.873 24.334 19.258 23.697 18.546 23.794 19.496 22.919 19.882 23.854 20.082 23.949 21.034 24.43 20.208 25.363 20.411" fill="#fff" fill-rule="evenodd"/>
        <polygon points="29.137 8.788 28.263 8.403 28.359 7.453 27.723 8.165 26.849 7.781 27.33 8.605 26.694 9.318 27.628 9.113 28.108 9.941 28.204 8.989 29.137 8.788" fill="#fff" fill-rule="evenodd"/>
        <polygon points="30.139 18.358 29.184 18.358 28.889 17.449 28.594 18.358 27.639 18.358 28.412 18.918 28.116 19.827 28.889 19.264 29.662 19.827 29.366 18.918 30.139 18.358" fill="#fff" fill-rule="evenodd"/>
        <polygon points="30.931 10.763 30.294 10.051 30.775 9.226 29.901 9.611 29.264 8.899 29.362 9.849 28.487 10.235 29.422 10.435 29.517 11.387 29.998 10.561 30.931 10.763" fill="#fff" fill-rule="evenodd"/>
        <polygon points="32.276 11.801 31.321 11.801 31.026 10.892 30.73 11.801 29.775 11.801 30.548 12.361 30.253 13.27 31.026 12.707 31.798 13.27 31.503 12.361 32.276 11.801" fill="#fff" fill-rule="evenodd"/>
        <polygon points="31.669 17.608 31.033 16.896 31.513 16.07 30.639 16.456 30.003 15.744 30.1 16.693 29.225 17.079 30.16 17.28 30.255 18.231 30.736 17.405 31.669 17.608" fill="#fff" fill-rule="evenodd"/>
        <polygon points="30.135 15.298 30.772 14.586 30.291 13.76 31.165 14.146 31.802 13.433 31.704 14.383 32.579 14.769 31.644 14.97 31.549 15.921 31.068 15.095 30.135 15.298" fill="#fff" fill-rule="evenodd"/>
        <polygon points="25.522 20.411 26.158 19.699 25.677 18.873 26.552 19.258 27.188 18.546 27.091 19.496 27.966 19.882 27.03 20.082 26.936 21.034 26.455 20.208 25.522 20.411" fill="#fff" fill-rule="evenodd"/>
      </g>
    </g>
  </g>
</svg>