<svg xmlns="http://www.w3.org/2000/svg" id="Layer_2" data-name="Layer 2" viewBox="0 0 33.946 22.63">
  <defs><clipPath id="circleClip"><circle cx="16.973" cy="11.315" r="11.315" /></clipPath></defs><g clip-path="url(#circleClip)"><g id="_&#209;&#235;&#238;&#233;_1" data-name="&#209;&#235;&#238;&#233; 1">
    <g>
      <g>
        <rect width="33.946" height="22.63" fill="#fff" />
        <rect width="33.946" height="7.544" fill="red" />
        <rect y="15.087" width="33.946" height="7.544" fill="#039" />
      </g>
      <g>
        <path d="M12.598,7.426l-1.182-2.547.758-1.304,1.388.548.931-1.151,1.308.768,1.171-.98,1.171.98,1.308-.768.931,1.151,1.388-.548.758,1.304-1.182,2.547c-1.336-.597-2.816-.93-4.374-.93s-3.038.333-4.375.93Z" fill="#fff" fill-rule="evenodd" />
        <path d="M20.346,4.264l-.922-1.14-1.293.759-.226,2.536c.61.052,1.206.154,1.783.302l.659-2.457Z" fill="#039" fill-rule="evenodd" />
        <path d="M18.514,5.745s-.004.006-.008.006h-.144s-.004,0-.006-.002c-.003-.003-.003-.008,0-.011l.069-.069.069-.257-.059-.22c-.012-.043-.01-.087.001-.127.012-.04.033-.077.063-.106l-.035-.129c-.005-.019-.005-.039,0-.057.002-.006.004-.013.007-.018-.01.004-.022.006-.033.006-.023,0-.047-.009-.065-.027l-.058-.058s-.003-.007,0-.011l.128-.128s-.005-.003-.008-.004c-.023-.013-.04-.032-.051-.054-.012-.022-.016-.048-.014-.074,0-.004.004-.008.009-.007l.15.041c.043-.046.095-.083.153-.109.057-.025.121-.039.187-.039.051,0,.1.008.146.023.048.016.092.039.132.068.076.054.166.082.259.082.045,0,.09-.006.133-.02.004-.001.008,0,.009.005,0,.003,0,.006-.003.008-.031.023-.067.042-.105.055-.074.025-.156.025-.231.001-.015-.005-.029-.011-.043-.017.01.011.019.022.028.033.042.051.095.093.156.122.058.027.124.043.193.043.046,0,.091-.007.135-.021.004-.001.008.001.009.005.001.003,0,.007-.003.008-.069.052-.152.08-.238.08-.063,0-.123-.015-.176-.041-.055-.027-.103-.067-.139-.116-.059-.079-.151-.125-.25-.125-.037,0-.073.006-.108.019l.145.039s.006.005.005.009h0c-.01.025-.027.044-.048.058-.021.014-.045.021-.072.021-.014,0-.028-.002-.041-.006-.009-.003-.017-.007-.025-.011v.132l.189.189h.115c.023,0,.045.007.063.019.017.012.031.028.04.047h.23c.02,0,.039.005.055.014.016.009.029.021.039.036h.306c.005,0,.009.005.007.01-.015.043-.041.081-.074.111-.032.029-.07.051-.113.063v.215c0,.058-.018.113-.05.158-.032.045-.077.081-.13.1l-.171.296s-.004.004-.006.004h-.14s-.004,0-.006-.002c-.003-.003-.003-.008,0-.01l.086-.086.144-.249-.099-.099c-.015.02-.033.038-.053.053-.021.016-.045.03-.071.039l-.148.256s-.004.004-.006.004h-.14s-.004,0-.006-.002c-.003-.003-.003-.008,0-.011l.086-.086.112-.194c-.002-.029-.002-.058.002-.087h-.248l-.096.357s-.004.006-.008.006h-.145c-.006,0-.01-.007-.005-.012l.069-.069.077-.289-.024-.091c-.009.009-.019.017-.03.024l-.076.286Z" fill-rule="evenodd" />
        <path d="M11.549,4.886l1.108,2.387c.515-.223,1.05-.409,1.602-.551l-.659-2.457-1.374-.542-.676,1.164Z" fill="#00adfe" fill-rule="evenodd" />
        <path d="M16.041,6.419l-.227-2.536,1.159-.97,1.159.97-.227,2.536c-.307-.026-.618-.04-.932-.04s-.625.014-.932.04Z" fill="#00adfe" fill-rule="evenodd" />
        <path d="M21.557,6.695l-.268.578c-.514-.223-1.049-.409-1.602-.551l.165-.615c.588.152,1.157.349,1.705.588Z" fill="#00adfe" fill-rule="evenodd" />
        <path d="M21.909,5.936l-.276.595c-.557-.243-1.136-.444-1.734-.599l.17-.633c.635.164,1.25.379,1.84.637Z" fill="red" fill-rule="evenodd" />
        <path d="M22.397,4.886l-.412.887c-.6-.263-1.225-.481-1.87-.648l.231-.861,1.374-.542.676,1.164Z" fill="#00adfe" fill-rule="evenodd" />
        <path d="M13.599,4.264l.922-1.14,1.293.759.226,2.536c-.61.052-1.206.154-1.783.302l-.659-2.457Z" fill="#039" fill-rule="evenodd" />
        <path d="M15.928,5.151l.057.634c-.647.055-1.279.163-1.891.321l-.165-.615c.647-.167,1.315-.282,1.999-.34Z" fill="red" fill-rule="evenodd" />
        <path d="M13.599,4.264l.002-.003c.716-.185,1.455-.312,2.213-.378l.056.634c-.721.061-1.426.183-2.108.359l-.164-.613Z" fill="red" fill-rule="evenodd" />
        <path d="M12.598,7.426h8.75v5.429c0,2.416-1.958,4.375-4.375,4.375s-4.375-1.958-4.375-4.375v-5.429Z" fill="red" fill-rule="evenodd" />
        <path d="M12.716,7.543v5.311c0,2.351,1.906,4.257,4.257,4.257s4.257-1.906,4.257-4.257v-5.311h-8.515Z" fill="#fff" fill-rule="evenodd" />
        <path d="M13.884,15.431c.199.239.426.454.675.642v-.642h-.675ZM16.168,16.797c.26.053.529.081.804.081s.544-.028.804-.081v-1.365h-1.609v1.365h0ZM19.386,16.073c.249-.187.476-.403.675-.642h-.675v.642Z" fill="red" fill-rule="evenodd" />
        <path d="M12.95,11.604v1.25c0,.226.019.448.055.663h1.554v-1.913h-1.609ZM20.941,13.518c.036-.216.055-.437.055-.663v-1.25h-1.609v1.913h1.554ZM16.168,13.518h1.609v-1.913h-1.609v1.913Z" fill="red" fill-rule="evenodd" />
        <path d="M12.95,7.778v1.913h1.609v-1.913h-1.609ZM20.996,9.691v-1.913h-1.609v1.913h1.609ZM17.777,7.778h-1.609v1.913h1.609v-1.913Z" fill="red" fill-rule="evenodd" />
        <path d="M14.559,9.691h1.609v1.913h-1.609v-1.913h0ZM17.777,9.691h1.609v1.913h-1.609v-1.913Z" fill="red" fill-rule="evenodd" />
        <path d="M14.559,13.518h1.609v1.913h-1.609v-1.913h0ZM17.777,13.518h1.609v1.913h-1.609v-1.913Z" fill="red" fill-rule="evenodd" />
        <path d="M20.487,5.651c.052.007.101.021.147.04.048.02.094.045.135.076l.223.06c.016-.004.033-.007.05-.009.018-.002.035-.003.053-.003.038,0,.074.005.109.014.036.01.07.024.101.043.043.026.089.046.137.062.047.015.097.025.148.029h0c.013.001.027.003.042.007h0c.014.003.029.008.044.014.04.015.074.035.097.055.024.022.036.045.029.064-.007.019-.031.029-.063.029-.03,0-.069-.006-.109-.021-.014-.005-.027-.011-.04-.018-.013-.006-.025-.014-.035-.021-.028-.019-.058-.036-.089-.05-.025-.012-.052-.022-.079-.031.004.008.007.017.009.026.004.014.006.029.006.045,0,.008,0,.015-.001.023,0,.006-.002.012-.003.017l.087.05s.002.002.003.003l.08.139s0,.008-.003.01l-.089.052s-.002,0-.004,0h-.079s-.007-.003-.007-.007c0-.001,0-.002,0-.003.006-.014.014-.026.026-.035.01-.008.022-.014.034-.018v-.044l-.205-.118-.12-.032-.205.055s-.004,0-.006,0l-.104-.06s-.005-.007-.003-.01c0,0,.001-.002.002-.002.008-.007.017-.012.027-.016.01-.004.02-.006.031-.006.011,0,.022.002.032.006.008.003.016.008.024.014l.07-.04h-.052s-.003,0-.004-.001l-.109-.063-.071.041s-.003.001-.004.001h-.246s-.003,0-.004-.001l-.112-.065s-.005-.007-.003-.01c0,0,.001-.001.002-.002.008-.006.017-.012.027-.015.009-.003.019-.005.03-.005.014,0,.027.003.038.008.011.005.02.012.028.021l.088-.024-.128-.074h-.241s-.004,0-.005-.002l-.06-.06s-.003-.008,0-.011c0,0,.002-.001.003-.002.005-.002.011-.004.017-.005.006-.001.012-.002.018-.002.012,0,.024.002.034.007.01.004.019.009.026.016l.119-.032-.062-.108h-.072c-.011,0-.024-.004-.035-.011-.011-.007-.02-.016-.027-.027l-.036-.063s0-.008.003-.01c.001,0,.002-.001.004-.001h.121s.007-.009.011-.012c.003-.003.006-.005.01-.007-.002-.003-.004-.007-.005-.011-.002-.006-.003-.013-.003-.02,0-.003,0-.005,0-.008,0-.003,0-.005.001-.007,0-.004.005-.006.009-.005,0,0,.001,0,.002,0l.18.104s.005.007.003.01c-.004.006-.009.012-.014.017-.003.003-.007.005-.011.007l.025.044Z" fill-rule="evenodd" />
        <path d="M20.86,5.954l-.018.01.101.058h.164c-.002-.018-.01-.034-.021-.046h0c-.014-.014-.033-.023-.054-.023h-.171Z" fill="#fff" fill-rule="evenodd" />
        <path d="M13.58,5.417c.019.033.035.067.048.102.066.176.055.362-.017.521-.072.159-.204.29-.38.356-.176.066-.362.055-.521-.017-.159-.072-.29-.204-.356-.38-.014-.035-.024-.072-.031-.109,0-.004.002-.008.006-.008.003,0,.006,0,.008.004.081.139.207.241.352.292.143.051.304.054.458-.004.153-.058.273-.166.347-.298.075-.135.103-.294.073-.452,0-.004.002-.008.006-.009.003,0,.006.001.008.004Z" fill-rule="evenodd" />
        <polygon points="18.501 5.736 18.51 5.701 18.434 5.681 18.379 5.736 18.501 5.736" fill="red" fill-rule="evenodd" />
        <polygon points="18.522 5.882 18.643 5.882 18.652 5.848 18.576 5.827 18.522 5.882" fill="red" fill-rule="evenodd" />
        <polygon points="18.961 5.867 18.894 5.829 18.824 5.899 18.942 5.899 18.961 5.867" fill="red" fill-rule="evenodd" />
        <polygon points="19.236 5.994 19.254 5.962 19.187 5.923 19.117 5.994 19.236 5.994" fill="red" fill-rule="evenodd" />
        <path d="M18.445,4.52v-.003c0-.022.009-.041.023-.056.008-.007.017-.014.027-.017l-.109-.029c0,.02.004.039.012.057.01.02.027.038.046.049Z" fill="#fed700" fill-rule="evenodd" />
        <path d="M18.754,4.498c.041-.018.086-.028.131-.028.103,0,.2.049.262.131.035.047.081.085.134.112.051.025.108.04.169.04.069,0,.135-.018.194-.053-.032.007-.065.01-.097.01-.071,0-.139-.016-.199-.044-.063-.03-.118-.073-.161-.126-.038-.051-.088-.093-.146-.122-.055-.028-.118-.043-.184-.043-.049,0-.095.009-.139.024-.041.014-.078.035-.111.061l.146.039Z" fill="red" fill-rule="evenodd" />
        <path d="M18.509,5.414l-.068.254.073.02.063-.235s.002-.003.003-.004c.013-.009.025-.019.036-.03l-.03-.112s.001-.008.005-.009c.004,0,.008.001.009.005l.059.222h0v.002h0v.002h0s-.077.286-.077.286l.073.02.083-.309s.004-.005.007-.005h.327s.007.003.007.007c0,.004-.003.007-.007.007h-.058c-.004.029-.004.058-.002.088,0,.002,0,.003-.001.005l-.109.19.065.038.121-.21s.002-.003.004-.004c.025-.009.049-.022.069-.038.02-.015.037-.032.052-.052l-.072-.072s-.003-.008,0-.01c.003-.003.008-.003.011,0l.186.185s.003.007,0,.01l-.143.248.065.038.144-.25s.002-.003.004-.004c.051-.018.095-.052.126-.095.03-.042.047-.094.047-.149v-.22s.002-.006.006-.007c.042-.011.08-.032.111-.061.029-.026.052-.059.067-.096h-.299s-.005-.001-.006-.004c-.009-.014-.021-.026-.036-.034-.014-.008-.03-.012-.048-.012h-.235s-.006-.002-.007-.005c-.007-.018-.02-.034-.036-.045-.016-.011-.034-.017-.055-.017h-.118s-.004,0-.005-.002l-.193-.193s-.002-.003-.002-.005v-.149s0-.003.001-.004c.002-.003.007-.004.01-.002.01.007.021.013.033.017.012.004.024.006.037.006.023,0,.045-.007.063-.019.016-.011.03-.026.039-.043l-.145-.039-.232-.062s-.006,0-.009,0c-.017,0-.034.007-.045.019-.012.012-.019.028-.019.045,0,.006,0,.012.002.017,0,.003,0,.005-.002.007l-.128.128.053.052c.015.015.035.023.055.023.022,0,.039-.008.055-.023l.023-.023s.008-.003.01,0c.003.003.003.008,0,.01l-.023.023c-.013.013-.02.025-.025.043-.004.016-.005.033,0,.049l.036.133s0,.005-.002.007c-.03.028-.051.063-.063.102-.011.038-.012.079-.001.119l.06.222s0,.003,0,.004h0ZM18.528,4.541h.089c.006,0,.009.005.007.011-.002.006-.004.012-.008.017-.01.017-.024.029-.04.036-.017.007-.036.01-.054.005-.004,0-.008-.002-.011-.004-.008-.005-.014-.013-.016-.021-.004-.015.002-.032.016-.039.005-.003.011-.005.018-.005Z" fill="#fed700" fill-rule="evenodd" />
        <path d="M18.531,4.597c-.005-.006-.008-.014-.008-.022,0-.007.002-.014.006-.02h-.002s-.007,0-.01.003c-.008.004-.012.014-.009.023.001.005.005.01.01.012.002.001.004.002.007.002.002,0,.004,0,.006.001Z" fill="#fed700" fill-rule="evenodd" />
        <path d="M18.586,4.556c.004.005.006.012.006.02h0s.008-.008.011-.014c.001-.002.002-.004.003-.006h-.02Z" fill="#fed700" fill-rule="evenodd" />
        <path d="M18.558,4.556c.011,0,.02.009.02.02s-.009.02-.02.02c-.011,0-.02-.009-.02-.02s.009-.02.02-.02Z" fill="#fed700" fill-rule="evenodd" />
        <path d="M19.141,4.395c-.038-.028-.081-.051-.127-.066-.045-.015-.092-.023-.142-.023-.065,0-.126.014-.182.038-.054.024-.102.058-.143.099l.042.011c.037-.029.078-.053.124-.07.045-.016.093-.025.144-.025.069,0,.133.016.19.045.025.013.049.028.071.045.03.021.063.039.099.05.071.023.15.023.221,0,.022-.008.044-.017.064-.029-.031.006-.062.01-.094.01-.096,0-.189-.029-.268-.085Z" fill="red" fill-rule="evenodd" />
        <path d="M13.588,5.462c.019.147-.011.294-.081.419-.076.136-.198.246-.355.305-.156.059-.321.057-.467.005-.135-.048-.254-.139-.337-.262.006.022.012.043.02.064.065.172.193.302.348.372.155.071.337.082.509.017.172-.065.302-.193.372-.348.07-.155.081-.337.017-.509-.008-.021-.017-.041-.027-.062Z" fill="#fff" fill-rule="evenodd" />
        <g>
          <path d="M17.713,4.197l.128-.034s.009.002.009.006c.002.032-.002.064-.013.094-.01.026-.024.05-.044.072h.078s.008.004.007.009c-.004.021-.012.041-.025.059-.012.017-.028.032-.047.043l-.038.022.095.096s.003.008-.001.012c-.035.024-.079.032-.121.021l.048.084s0,.009-.004.011c-.018.006-.038.009-.057.008-.014,0-.029-.003-.042-.008l.024.088s-.001.009-.007.009c-.019.001-.04-.001-.059-.007-.013-.005-.026-.011-.038-.02v.094s-.004.008-.009.008c-.018-.003-.035-.01-.05-.019-.012-.007-.024-.016-.033-.027l-.038.066c-.003.005-.01.005-.013,0l-.038-.066c-.01.011-.021.02-.033.027-.015.009-.033.016-.05.019-.004,0-.009-.002-.009-.007v-.094c-.012.008-.025.015-.038.02-.019.006-.039.008-.058.007-.004,0-.008-.004-.006-.009l.023-.088c-.014.005-.028.007-.042.008-.019.001-.039-.002-.057-.008-.005-.001-.007-.007-.004-.011l.048-.084c-.021.005-.042.006-.062.003-.021-.004-.041-.012-.059-.023-.004-.003-.005-.008-.001-.012l.096-.096-.038-.022c-.019-.011-.035-.026-.047-.043-.012-.018-.021-.038-.025-.059-.001-.005.002-.009.007-.009h.078c-.02-.021-.034-.046-.044-.072-.011-.03-.015-.062-.013-.093,0-.005.004-.008.009-.007l.128.034-.171-.296s-.001-.005,0-.008c.002-.003.007-.005.01-.003l.275.158.122-.212c.002-.005.01-.006.013,0l.123.212.274-.158s.005-.001.007,0c.003.002.004.007.002.01l-.171.297Z" fill-rule="evenodd" />
          <path d="M17.243,4.216s-.001,0-.002,0l-.137-.037c0,.026.004.053.013.078.012.032.029.055.052.079.005.005.001.012-.005.012h-.087c.004.016.011.031.021.044.011.016.025.029.042.039l.046.027s.005.008.001.012l-.096.096c.014.008.03.014.046.017.028.005.047,0,.073-.007.006-.002.012.005.008.011l-.053.091c.014.004.029.006.043.005.017,0,.035-.005.051-.013.006-.003.012.003.01.008l-.025.093c.015,0,.03-.002.044-.007.016-.006.032-.014.046-.026.005-.004.012,0,.012.006v.1c.013-.003.025-.008.036-.016.014-.008.026-.019.036-.032.003-.004.01-.004.012.001l.037.064.037-.064s.009-.005.012,0c.01.013.022.024.036.032.011.007.024.012.037.016v-.1c0-.006.008-.01.012-.006.014.012.029.02.046.026.014.005.029.007.044.007l-.025-.093c-.002-.006.005-.011.01-.008.016.008.033.012.05.013.014,0,.029,0,.043-.005l-.052-.092c-.003-.006.002-.012.008-.011l.015.004c.035.009.072.004.103-.014l-.096-.096s-.003-.01.002-.012l.046-.026c.017-.01.031-.023.042-.039.01-.013.017-.028.021-.044h-.086c-.007,0-.01-.008-.005-.013.024-.024.041-.047.052-.079.009-.025.014-.052.013-.078l-.136.037s-.001,0-.002,0h-.454ZM17.455,4.71s-.007-.003-.007-.007c0-.004.003-.008.007-.008h.031s.007.003.007.008c0,.004-.003.007-.007.007h-.031ZM17.525,4.332s-.008,0-.01-.003c-.002-.003,0-.008.003-.01l.072-.042s.008,0,.01.003c.002.003,0,.008-.003.01l-.072.041h0ZM17.436,4.264s-.005-.006-.003-.01c.002-.003.007-.004.01-.003.012.007.021.017.027.028.006-.012.015-.021.027-.028.003-.002.008,0,.01.003.002.004,0,.008-.003.01-.013.007-.022.019-.025.033-.003.013-.002.028.005.041.008.013.019.021.033.025.013.003.028.002.041-.005l.094-.054s.008,0,.01.003c.002.004,0,.008-.003.01l-.025.015s.001.009.001.013c0,.019-.006.037-.017.051-.011.015-.026.026-.044.032-.023.008-.047-.009-.047-.033,0-.005.001-.01.003-.015-.006,0-.012,0-.017-.002-.017-.004-.032-.015-.042-.032,0-.001-.001-.002-.002-.003,0,.001,0,.002-.002.003-.009.016-.025.028-.041.032-.006.002-.012.002-.018.002.002.004.003.009.003.015,0,.024-.025.041-.047.033-.018-.006-.033-.017-.044-.032-.01-.014-.017-.032-.017-.051,0-.004,0-.009,0-.013l-.025-.015s-.004-.006-.002-.01c.002-.003.006-.005.01-.003l.094.054c.013.008.028.009.041.005.013-.004.025-.012.033-.025.007-.013.009-.028.005-.041-.004-.013-.012-.025-.025-.033h0ZM17.555,4.376s0,.003,0,.004c0,.014.009.027.022.032-.002,0-.004.001-.005.002-.014.005-.028-.003-.028-.019,0-.008.004-.015.012-.018h0ZM17.618,4.363c-.003-.006-.009-.011-.015-.015l.018-.01s0,.003,0,.005c0,.007-.001.013-.003.02h0ZM17.588,4.36c.01,0,.019.008.019.019,0,.01-.008.019-.019.019s-.019-.008-.019-.019c0-.011.008-.019.019-.019h0ZM17.386,4.376c.007.003.012.01.012.018,0,.015-.014.023-.028.019-.002,0-.003-.001-.005-.002.013-.005.022-.017.022-.032,0-.001,0-.003,0-.004h0ZM17.323,4.363c-.002-.006-.003-.013-.003-.02,0-.002,0-.004,0-.005l.018.01c-.006.003-.012.008-.015.015h0ZM17.352,4.36c.011,0,.019.008.019.019,0,.01-.008.019-.019.019-.01,0-.019-.008-.019-.019,0-.011.009-.019.019-.019h0ZM17.423,4.319s.005.007.003.01c-.002.003-.006.005-.01.003l-.072-.041s-.005-.007-.003-.01c.002-.004.007-.005.01-.003l.072.042h0ZM17.436,4.413s.007-.003.01,0c.003.003.003.007,0,.011l-.04.04s-.008.003-.01,0c-.003-.003-.003-.007,0-.01l.04-.04h0ZM17.495,4.424s-.003-.008,0-.011c.003-.003.008-.003.01,0l.04.04s.003.007,0,.01c-.003.003-.008.003-.01,0l-.04-.04h0ZM17.402,4.529s.003-.007.007-.007c.004,0,.007.003.007.007v.03c0,.017.014.031.032.031h.045c.017,0,.032-.014.032-.031v-.03s.003-.007.007-.007c.004,0,.008.003.008.007v.03c0,.025-.021.047-.046.047h-.015v.043c0,.013.011.024.024.024h.04s.007.003.007.008c0,.004-.003.007-.007.007h-.04c-.013,0-.024-.006-.032-.016-.007.01-.019.016-.031.016h-.04s-.007-.003-.007-.007c0-.004.003-.008.007-.008h.04c.013,0,.024-.011.024-.024v-.043h-.015c-.026,0-.047-.021-.047-.047v-.03h0ZM17.369,4.599s-.005-.006-.003-.01c.002-.003.007-.005.01-.003l.066.038s.005.006.003.01c-.002.003-.006.005-.01.003l-.066-.038h0ZM17.369,4.628s-.005-.007-.003-.01c.002-.004.007-.005.01-.003l.054.031s.004.007.003.01c-.002.003-.007.005-.01.003l-.053-.031h0ZM17.564,4.586s.008,0,.01.003c.002.004,0,.008-.002.01l-.066.038s-.008,0-.01-.003c-.002-.004,0-.008.003-.01l.066-.038h0ZM17.564,4.615s.008,0,.01.003c.002.003,0,.008-.002.01l-.054.031s-.008,0-.01-.003c-.002-.004,0-.008.002-.01l.054-.031Z" fill="#fed700" fill-rule="evenodd" />
          <polygon points="17.47 3.997 17.434 4.034 17.47 4.071 17.507 4.034 17.47 3.997" fill="#fed700" fill-rule="evenodd" />
          <polygon points="17.337 4.126 17.337 4.063 17.083 3.917 17.204 4.126 17.337 4.126" fill="#fed700" fill-rule="evenodd" />
          <polygon points="17.604 4.063 17.604 4.126 17.737 4.126 17.858 3.917 17.604 4.063" fill="#fed700" fill-rule="evenodd" />
          <path d="M17.589,4.126v-.066l-.119-.206-.119.206v.066h.238ZM17.418,4.029l.047-.047s.007-.003.01,0l.047.047s.003.008,0,.011l-.047.047s-.008.003-.01,0l-.047-.047s-.003-.008,0-.011Z" fill="#fed700" fill-rule="evenodd" />
          <polygon points="17.248 4.201 17.693 4.201 17.728 4.141 17.213 4.141 17.248 4.201" fill="#fed700" fill-rule="evenodd" />
        </g>
        <g>
          <path d="M16.705,4.197l.128-.034s.009.002.009.006c.002.032-.002.064-.013.094-.01.026-.024.05-.044.072h.078s.008.004.007.009c-.004.021-.013.041-.025.059-.012.017-.028.032-.047.043l-.038.022.095.096s.003.008-.001.012c-.035.024-.079.032-.121.021l.049.084s0,.009-.004.011c-.018.006-.038.009-.058.008-.014,0-.028-.003-.042-.008l.023.088s-.001.009-.007.009c-.02.001-.04-.001-.058-.007-.014-.005-.027-.011-.038-.02v.094s-.004.008-.009.008c-.018-.003-.035-.01-.05-.019-.012-.007-.023-.016-.033-.027l-.038.066c-.003.005-.01.005-.013,0l-.038-.066c-.01.011-.021.02-.033.027-.015.009-.032.016-.05.019-.005,0-.009-.002-.009-.007v-.094c-.012.008-.025.015-.039.02-.019.006-.038.008-.058.007-.004,0-.008-.004-.007-.009l.024-.088c-.014.005-.028.007-.042.008-.019.001-.038-.002-.057-.008-.005-.001-.007-.007-.004-.011l.048-.084c-.021.005-.042.006-.062.003-.021-.004-.041-.012-.059-.023-.004-.003-.005-.008-.002-.012l.095-.096-.038-.022c-.019-.011-.035-.026-.047-.043-.012-.018-.021-.038-.025-.059-.001-.005.002-.009.007-.009h.078c-.02-.021-.034-.046-.044-.072-.011-.03-.015-.062-.013-.093,0-.005.004-.008.009-.007l.128.034-.171-.296s-.001-.005,0-.008c.002-.003.006-.005.01-.003l.274.158.122-.212c.003-.005.01-.006.013,0l.123.212.274-.158s.005-.001.007,0c.003.002.005.007.003.01l-.171.297Z" fill-rule="evenodd" />
          <path d="M16.236,4.216s-.001,0-.002,0l-.137-.037c0,.026.004.053.013.078.012.032.029.055.052.079.005.005.001.012-.005.012h-.086c.004.016.011.031.02.044.011.016.025.029.042.039l.046.027s.005.008.001.012l-.096.096c.014.008.03.014.046.017.028.005.047,0,.073-.007.006-.002.012.005.008.011l-.053.091c.014.004.029.006.044.005.017,0,.034-.005.05-.013.006-.003.012.003.01.008l-.025.093c.015,0,.029-.002.044-.007.016-.006.032-.014.046-.026.005-.004.012,0,.012.006v.1c.013-.003.025-.008.037-.016.013-.008.026-.019.036-.032.003-.004.01-.004.012.001l.037.064.037-.064s.009-.005.012,0c.01.013.022.024.036.032.011.007.023.012.036.016v-.1c0-.006.008-.01.013-.006.014.012.029.02.046.026.014.005.029.007.044.007l-.025-.093c-.001-.006.005-.011.011-.008.016.008.033.012.05.013.014,0,.029,0,.043-.005l-.053-.092c-.003-.006.002-.012.008-.011l.015.004c.035.009.072.004.104-.014l-.096-.096s-.002-.01.002-.012l.046-.026c.017-.01.031-.023.043-.039.01-.013.016-.028.02-.044h-.086c-.007,0-.01-.008-.005-.013.024-.024.04-.047.052-.079.009-.025.014-.052.013-.078l-.137.037s-.001,0-.002,0h-.454ZM16.448,4.71s-.007-.003-.007-.007c0-.004.003-.008.007-.008h.031s.007.003.007.008c0,.004-.003.007-.007.007h-.031ZM16.518,4.332s-.008,0-.01-.003c-.002-.003,0-.008.003-.01l.072-.042s.008,0,.01.003c.002.003,0,.008-.003.01l-.072.041h0ZM16.429,4.264s-.005-.006-.002-.01c.002-.003.006-.004.01-.003.012.007.021.017.027.028.006-.012.015-.021.027-.028.003-.002.008,0,.01.003.002.004,0,.008-.003.01-.013.007-.021.019-.025.033-.004.013-.002.028.005.041.007.013.019.021.033.025.013.003.028.002.04-.005l.094-.054s.008,0,.01.003c.002.004,0,.008-.003.01l-.025.015s.001.009.001.013c0,.019-.006.037-.017.051-.011.015-.026.026-.044.032-.022.008-.047-.009-.047-.033,0-.005.001-.01.003-.015-.006,0-.012,0-.017-.002-.017-.004-.032-.015-.042-.032,0-.001-.001-.002-.002-.003,0,.001-.001.002-.002.003-.01.016-.025.028-.042.032-.006.002-.012.002-.017.002.002.004.003.009.003.015,0,.024-.025.041-.047.033-.018-.006-.033-.017-.044-.032-.01-.014-.017-.032-.017-.051,0-.004,0-.009,0-.013l-.025-.015s-.005-.006-.003-.01c.002-.003.007-.005.01-.003l.094.054c.013.008.027.009.041.005.013-.004.025-.012.033-.025.007-.013.009-.028.005-.041-.003-.013-.012-.025-.025-.033h0ZM16.547,4.376v.004c0,.014.009.027.022.032-.002,0-.003.001-.005.002-.014.005-.028-.003-.028-.019,0-.008.005-.015.012-.018h0ZM16.611,4.363c-.003-.006-.008-.011-.015-.015l.018-.01v.005c0,.007-.001.013-.003.02h0ZM16.581,4.36c.011,0,.019.008.019.019,0,.01-.008.019-.019.019-.01,0-.019-.008-.019-.019,0-.011.009-.019.019-.019h0ZM16.379,4.376c.007.003.012.01.012.018,0,.015-.014.023-.028.019-.002,0-.004-.001-.005-.002.013-.005.021-.017.021-.032v-.004h0ZM16.315,4.363c-.002-.006-.003-.013-.003-.02,0-.002,0-.004,0-.005l.018.01c-.007.003-.012.008-.015.015h0ZM16.345,4.36c.01,0,.019.008.019.019,0,.01-.009.019-.019.019s-.019-.008-.019-.019c0-.011.008-.019.019-.019h0ZM16.415,4.319s.005.007.003.01c-.002.003-.007.005-.01.003l-.072-.041s-.005-.007-.003-.01c.002-.004.006-.005.01-.003l.072.042h0ZM16.428,4.413s.007-.003.01,0c.003.003.003.007,0,.011l-.04.04s-.008.003-.01,0c-.003-.003-.003-.007,0-.01l.04-.04h0ZM16.487,4.424s-.003-.008,0-.011c.003-.003.007-.003.01,0l.04.04s.003.007,0,.01c-.003.003-.007.003-.01,0l-.04-.04h0ZM16.394,4.529s.003-.007.007-.007c.004,0,.007.003.007.007v.03c0,.017.014.031.032.031h.045c.018,0,.032-.014.032-.031v-.03s.003-.007.007-.007c.004,0,.007.003.007.007v.03c0,.025-.021.047-.046.047h-.015v.043c0,.013.011.024.024.024h.04s.007.003.007.008c0,.004-.003.007-.007.007h-.04c-.012,0-.024-.006-.031-.016-.007.01-.019.016-.031.016h-.04s-.007-.003-.007-.007c0-.004.003-.008.007-.008h.04c.013,0,.024-.011.024-.024v-.043h-.015c-.025,0-.046-.021-.046-.047v-.03h0ZM16.362,4.599s-.005-.006-.003-.01c.002-.003.006-.005.01-.003l.066.038s.005.006.003.01c-.002.003-.007.005-.01.003l-.066-.038h0ZM16.362,4.628s-.005-.007-.003-.01c.002-.004.006-.005.01-.003l.054.031s.005.007.003.01c-.002.003-.007.005-.01.003l-.053-.031h0ZM16.557,4.586s.008,0,.01.003c.002.004,0,.008-.003.01l-.066.038s-.008,0-.01-.003c-.002-.004,0-.008.003-.01l.066-.038h0ZM16.557,4.615s.008,0,.01.003c.002.003,0,.008-.003.01l-.053.031s-.008,0-.01-.003c-.002-.004,0-.008.003-.01l.054-.031Z" fill="#fed700" fill-rule="evenodd" />
          <polygon points="16.463 3.997 16.426 4.034 16.463 4.071 16.5 4.034 16.463 3.997" fill="#fed700" fill-rule="evenodd" />
          <polygon points="16.329 4.126 16.329 4.063 16.076 3.917 16.197 4.126 16.329 4.126" fill="#fed700" fill-rule="evenodd" />
          <polygon points="16.597 4.063 16.597 4.126 16.729 4.126 16.85 3.917 16.597 4.063" fill="#fed700" fill-rule="evenodd" />
          <path d="M16.582,4.126v-.066l-.119-.206-.119.206v.066h.238ZM16.411,4.029l.047-.047s.007-.003.01,0l.047.047s.003.008,0,.011l-.047.047s-.007.003-.01,0l-.047-.047s-.003-.008,0-.011Z" fill="#fed700" fill-rule="evenodd" />
          <polygon points="16.24 4.201 16.686 4.201 16.72 4.141 16.206 4.141 16.24 4.201" fill="#fed700" fill-rule="evenodd" />
        </g>
        <g>
          <path d="M17.209,5.344l.128-.034s.009.002.009.007c.002.032-.002.064-.013.094-.01.026-.024.05-.044.071h.078s.008.004.007.009c-.004.021-.012.041-.025.059-.012.017-.028.032-.047.043l-.038.022.096.096s.003.008-.001.011c-.036.024-.08.032-.121.021l.048.084s0,.009-.004.011c-.018.006-.038.009-.057.008-.014,0-.028-.003-.042-.008l.023.087s-.002.009-.007.009c-.019.001-.039,0-.058-.007-.013-.005-.026-.011-.038-.02v.094s-.004.009-.009.008c-.018-.003-.035-.01-.05-.019-.012-.007-.023-.016-.033-.027l-.038.066s-.01.005-.013,0l-.038-.066c-.01.011-.021.02-.033.027-.015.009-.033.016-.05.019-.004,0-.009-.002-.009-.007v-.095c-.012.008-.025.015-.039.02-.019.006-.039.008-.058.007-.005,0-.008-.004-.006-.009l.023-.087c-.014.004-.028.007-.042.008-.019.001-.039-.002-.057-.008-.005-.002-.007-.007-.004-.011l.048-.084c-.021.005-.042.006-.062.003-.021-.003-.041-.012-.059-.024-.004-.002-.005-.008-.002-.012l.096-.096-.038-.022c-.019-.011-.035-.026-.047-.043-.012-.018-.021-.038-.025-.058-.001-.005.002-.01.007-.01h.078c-.02-.021-.034-.046-.044-.071-.011-.03-.015-.062-.013-.093,0-.005.004-.008.009-.007l.128.034-.171-.296s-.002-.005,0-.008c.002-.003.006-.005.01-.003l.274.159.122-.212c.003-.005.01-.006.013,0l.123.213.274-.159s.005-.001.007,0c.003.002.004.007.002.01l-.171.297Z" fill-rule="evenodd" />
          <path d="M16.74,5.364s-.001,0-.002,0l-.137-.037c0,.027.004.053.013.078.012.032.029.055.053.079.005.005.001.013-.005.013h-.087c.004.016.011.031.021.044.011.015.025.029.042.039l.046.027s.005.008.001.012l-.096.096c.014.008.03.014.046.017.028.005.047,0,.073-.007.006-.002.012.005.008.011l-.053.091c.014.004.029.005.043.005.017,0,.034-.005.051-.013.005-.003.012.003.01.008l-.025.094c.015,0,.03-.002.044-.007.016-.005.032-.014.046-.026.005-.004.012,0,.012.006v.1c.013-.003.025-.009.036-.015.014-.008.026-.019.036-.032.003-.004.01-.004.012,0l.037.064.037-.064s.009-.005.013,0c.01.013.022.024.036.032.011.007.024.012.037.015v-.1c0-.006.008-.01.012-.006.014.012.029.021.046.026.014.005.029.007.044.007l-.025-.094c-.002-.006.005-.011.01-.008.016.007.033.012.05.012.014,0,.029,0,.043-.005l-.053-.091c-.003-.006.002-.013.008-.011l.015.004c.035.01.072.004.103-.014l-.096-.096s-.002-.01.002-.012l.046-.026c.017-.01.031-.023.042-.039.01-.013.017-.029.021-.044h-.086c-.007,0-.01-.009-.005-.013.024-.024.041-.047.052-.078.009-.025.014-.052.013-.078l-.136.037s-.001,0-.002,0h-.454ZM16.951,5.858s-.008-.003-.008-.007c0-.004.003-.007.008-.007h.03s.008.003.008.007c0,.004-.003.007-.008.007h-.03ZM17.022,5.479s-.008,0-.01-.003c-.002-.004,0-.008.003-.01l.072-.042s.008,0,.01.003c.002.003,0,.008-.003.01l-.072.042h0ZM16.932,5.412s-.005-.007-.003-.01c.002-.003.007-.005.01-.003.012.007.021.017.027.029.006-.012.015-.022.027-.029.004-.002.008,0,.01.003s0,.008-.003.01c-.013.007-.021.019-.025.032-.003.013-.002.028.005.041.007.013.019.021.033.025.013.004.028.002.041-.005l.094-.055s.008,0,.01.003c.002.004,0,.008-.003.011l-.025.014s0,.009,0,.013c0,.019-.006.037-.017.052-.011.015-.026.026-.044.032-.022.008-.047-.009-.047-.033,0-.005.001-.01.003-.014-.006,0-.012-.001-.017-.003-.017-.005-.032-.016-.042-.032,0-.001-.001-.003-.002-.004,0,.001,0,.003-.002.004-.009.016-.025.027-.041.032-.006.001-.012.003-.018.003.002.004.003.009.003.014,0,.024-.025.042-.047.033-.018-.006-.033-.017-.044-.032-.01-.015-.017-.032-.017-.052,0-.004,0-.009.001-.013l-.025-.014s-.005-.007-.003-.011c.002-.003.007-.004.01-.003l.094.055c.012.007.027.009.04.005.013-.003.025-.012.033-.025.007-.013.009-.028.005-.041-.004-.013-.012-.025-.025-.032h0ZM17.051,5.523s0,.003,0,.004c0,.014.009.027.021.031-.002,0-.003.001-.005.002-.014.004-.028-.003-.028-.019,0-.008.005-.015.012-.018h0ZM17.114,5.511c-.003-.006-.009-.012-.015-.015l.018-.01s0,.003,0,.005c0,.007-.001.013-.003.02h0ZM17.085,5.508c.01,0,.019.008.019.019s-.008.019-.019.019-.019-.008-.019-.019.009-.019.019-.019h0ZM16.882,5.523c.007.003.012.011.012.018,0,.016-.014.023-.028.019-.002,0-.003-.001-.005-.002.012-.005.022-.017.022-.031,0-.001,0-.003,0-.004h0ZM16.819,5.511c-.002-.006-.003-.013-.003-.02v-.005l.018.01c-.007.003-.012.008-.015.015h0ZM16.848,5.508c.011,0,.019.008.019.019s-.008.019-.019.019c-.01,0-.019-.008-.019-.019s.009-.019.019-.019h0ZM16.919,5.467s.005.006.003.01c-.002.003-.006.005-.01.003l-.072-.042s-.005-.007-.003-.01c.002-.004.007-.005.01-.003l.072.042h0ZM16.932,5.561s.008-.003.01,0c.003.003.003.007,0,.01l-.04.04s-.008.003-.011,0c-.003-.003-.003-.008,0-.011l.04-.04h0ZM16.991,5.572s-.003-.007,0-.01c.003-.003.008-.003.01,0l.04.04s.002.008,0,.011c-.003.003-.008.003-.01,0l-.04-.04h0ZM16.898,5.677s.003-.007.007-.007c.004,0,.007.003.007.007v.029c0,.018.014.032.032.032h.045c.017,0,.031-.014.031-.032v-.029s.003-.007.007-.007c.004,0,.007.003.007.007v.029c0,.025-.021.047-.046.047h-.015v.043c0,.013.011.024.024.024h.04s.007.003.007.007c0,.004-.003.007-.007.007h-.04c-.013,0-.024-.006-.032-.016-.007.01-.019.016-.031.016h-.04s-.007-.003-.007-.007c0-.004.003-.007.007-.007h.04c.013,0,.024-.011.024-.024v-.043h-.015c-.026,0-.046-.021-.046-.047v-.029h0ZM16.865,5.746s-.004-.006-.003-.01c.002-.004.006-.005.01-.003l.066.038s.005.006.003.01c-.002.004-.006.005-.01.003l-.066-.038h0ZM16.865,5.776s-.004-.006-.003-.01c.002-.004.006-.005.01-.003l.053.031s.005.006.003.01c-.002.004-.006.005-.01.003l-.053-.031h0ZM17.06,5.734s.008,0,.01.003,0,.008-.003.01l-.066.038s-.008,0-.01-.003c-.002-.003,0-.008.003-.01l.066-.038h0ZM17.06,5.763s.008-.001.01.003c.002.004,0,.008-.003.01l-.053.031s-.008,0-.01-.003c-.002-.004,0-.008.003-.01l.053-.031Z" fill="#fed700" fill-rule="evenodd" />
          <polygon points="16.966 5.145 16.93 5.182 16.966 5.219 17.004 5.182 16.966 5.145" fill="#fed700" fill-rule="evenodd" />
          <polygon points="16.833 5.274 16.833 5.21 16.579 5.064 16.701 5.274 16.833 5.274" fill="#fed700" fill-rule="evenodd" />
          <polygon points="17.1 5.21 17.1 5.274 17.233 5.274 17.354 5.064 17.1 5.21" fill="#fed700" fill-rule="evenodd" />
          <path d="M17.085,5.274v-.066l-.119-.206-.119.206v.066h.238ZM16.914,5.177l.047-.047s.008-.003.01,0l.047.047s.003.007,0,.011l-.047.047s-.008.003-.01,0l-.047-.047s-.003-.008,0-.011Z" fill="#fed700" fill-rule="evenodd" />
          <polygon points="16.744 5.349 17.189 5.349 17.224 5.289 16.709 5.289 16.744 5.349" fill="#fed700" fill-rule="evenodd" />
        </g>
        <g>
          <path d="M21.358,4.331l.191-.174s.003-.002.004-.002c.004,0,.008.003.008.007l.03.257.246.079s.003.001.004.003c.003.003.002.008-.001.01l-.208.154.055.253s0,.003,0,.005c-.002.004-.006.005-.01.004l-.238-.103-.192.174s-.003.002-.004.002c-.004,0-.008-.003-.008-.007l-.029-.257-.246-.079s-.003-.001-.004-.003c-.002-.003-.002-.008.002-.011l.208-.154-.055-.253s0-.003,0-.005c.002-.004.006-.005.01-.004l.238.103Z" fill-rule="evenodd" />
          <g>
            <polygon points="21.396 4.605 21.261 4.966 21.43 4.812 21.396 4.605" fill="#fed700" fill-rule="evenodd" />
            <polygon points="21.247 4.961 21.383 4.6 21.221 4.733 21.247 4.961" fill="#fed700" fill-rule="evenodd" />
            <polygon points="21.416 4.554 21.578 4.421 21.551 4.193 21.416 4.554" fill="#fed700" fill-rule="evenodd" />
            <polygon points="21.373 4.589 20.993 4.652 21.211 4.722 21.373 4.589" fill="#fed700" fill-rule="evenodd" />
            <polygon points="21.807 4.517 21.427 4.58 21.623 4.654 21.807 4.517" fill="#fed700" fill-rule="evenodd" />
            <polygon points="21.425 4.565 21.805 4.502 21.587 4.432 21.425 4.565" fill="#fed700" fill-rule="evenodd" />
            <polygon points="20.99 4.637 21.371 4.574 21.175 4.501 20.99 4.637" fill="#fed700" fill-rule="evenodd" />
            <polygon points="21.376 4.56 21.131 4.262 21.18 4.487 21.376 4.56" fill="#fed700" fill-rule="evenodd" />
            <polygon points="21.655 4.901 21.411 4.603 21.445 4.809 21.655 4.901" fill="#fed700" fill-rule="evenodd" />
            <polygon points="21.422 4.593 21.667 4.891 21.618 4.667 21.422 4.593" fill="#fed700" fill-rule="evenodd" />
            <polygon points="21.143 4.253 21.387 4.551 21.353 4.344 21.143 4.253" fill="#fed700" fill-rule="evenodd" />
            <polygon points="21.538 4.188 21.368 4.342 21.402 4.549 21.538 4.188" fill="#fed700" fill-rule="evenodd" />
          </g>
        </g>
        <g>
          <path d="M12.503,4.442l.191.173.238-.103s.008,0,.01.004c0,.002,0,.003,0,.005l-.055.253.208.154s.004.007.002.011c-.001.001-.002.002-.004.003l-.246.079-.029.257s-.004.007-.008.006c-.002,0-.003,0-.005-.002l-.192-.174-.237.103s-.008,0-.01-.004c0-.002,0-.003,0-.005l.055-.253-.208-.154s-.004-.007-.001-.011c0-.001.002-.002.004-.002l.247-.079.029-.257s.004-.007.008-.006c.002,0,.003,0,.004.002Z" fill-rule="evenodd" />
          <g>
            <polygon points="12.671 4.885 12.806 5.246 12.833 5.018 12.671 4.885" fill="#fed700" fill-rule="evenodd" />
            <polygon points="12.515 4.473 12.651 4.834 12.685 4.627 12.515 4.473" fill="#fed700" fill-rule="evenodd" />
            <polygon points="12.637 4.839 12.502 4.478 12.475 4.706 12.637 4.839" fill="#fed700" fill-rule="evenodd" />
            <polygon points="12.792 5.251 12.657 4.891 12.623 5.097 12.792 5.251" fill="#fed700" fill-rule="evenodd" />
            <polygon points="12.682 4.859 13.063 4.922 12.878 4.786 12.682 4.859" fill="#fed700" fill-rule="evenodd" />
            <polygon points="12.248 4.787 12.628 4.85 12.466 4.717 12.248 4.787" fill="#fed700" fill-rule="evenodd" />
            <polygon points="12.626 4.865 12.246 4.802 12.43 4.939 12.626 4.865" fill="#fed700" fill-rule="evenodd" />
            <polygon points="13.06 4.937 12.68 4.874 12.842 5.007 13.06 4.937" fill="#fed700" fill-rule="evenodd" />
            <polygon points="12.666 4.836 12.91 4.538 12.7 4.629 12.666 4.836" fill="#fed700" fill-rule="evenodd" />
            <polygon points="12.386 5.176 12.631 4.879 12.435 4.952 12.386 5.176" fill="#fed700" fill-rule="evenodd" />
            <polygon points="12.642 4.888 12.398 5.186 12.608 5.095 12.642 4.888" fill="#fed700" fill-rule="evenodd" />
            <polygon points="12.922 4.548 12.677 4.845 12.873 4.772 12.922 4.548" fill="#fed700" fill-rule="evenodd" />
          </g>
        </g>
      </g>
    </g>
  </g>
</g></svg>