<svg xmlns="http://www.w3.org/2000/svg" id="Layer_2" data-name="Layer 2" viewBox="0 0 33.946 22.63">
  <defs><clipPath id="circleClip"><circle cx="16.973" cy="11.315" r="11.315" /></clipPath></defs><g clip-path="url(#circleClip)"><g id="_&#209;&#235;&#238;&#233;_1" data-name="&#209;&#235;&#238;&#233; 1">
    <g>
      <g>
        <rect width="33.946" height="22.63" fill="#fff" />
        <rect y="14.15" width="14.138" height="8.48" fill="#007c29" />
        <rect x="19.808" y="14.15" width="14.138" height="8.48" fill="#007c29" />
        <rect x="19.808" width="14.138" height="8.48" fill="#007c29" />
        <rect width="14.138" height="8.48" fill="#007c29" />
        <rect y="8.48" width="33.946" height="1.89" fill="#fed700" />
        <rect x="14.138" width="1.89" height="22.63" fill="#fed700" />
        <rect x="16.028" width="1.89" height="22.63" />
        <rect y="10.37" width="33.946" height="1.89" />
      </g>
      <g>
        <path d="M16.973,5.676c3.114,0,5.639,2.525,5.639,5.64s-2.525,5.64-5.639,5.64-5.64-2.525-5.64-5.64,2.525-5.64,5.64-5.64Z" fill="red" fill-rule="evenodd" />
        <g>
          <g>
            <g>
              <path d="M19.482,13.933l.181.56h.588c.011-.001.02.008.02.019,0,.007-.003.013-.008.017l-.477.345.183.56c.003.011-.003.022-.013.026-.007.002-.014,0-.02-.004l-.474-.346-.476.347c-.009.007-.022.005-.029-.004-.004-.006-.005-.012-.003-.018l.183-.56-.477-.345c-.009-.007-.011-.02-.004-.029.004-.006.011-.009.018-.008h.587s.18-.559.18-.559c.003-.011.015-.017.026-.013.006.002.011.007.013.013Z" fill-rule="evenodd" />
              <path d="M19.629,14.52l-.166-.514-.166.514c-.003.009-.01.015-.019.015h-.54s.438.316.438.316c.007.005.01.014.007.023l-.168.513.436-.318c.007-.005.017-.006.024,0l.436.318-.168-.512c-.003-.008,0-.019.007-.024l.438-.317h-.539c-.009.002-.018-.004-.02-.013Z" fill="#007c29" fill-rule="evenodd" />
            </g>
            <g>
              <path d="M16.494,14.872l.476.345.474-.349c.009-.007.022-.005.029.005.004.006.005.013.003.019l-.181.559.478.343c.009.007.011.019.004.028-.004.006-.01.009-.017.009h-.588s-.179.561-.179.561c-.003.011-.015.017-.025.013-.006-.002-.011-.007-.013-.013l-.183-.56-.588.003c-.011,0-.02-.009-.021-.02,0-.007.004-.013.009-.017l.475-.346-.185-.559c-.003-.011.002-.022.013-.026.006-.002.014,0,.019.003Z" fill-rule="evenodd" />
              <path d="M16.959,15.259l-.437-.317.17.513c.003.008,0,.017-.007.023l-.436.318.539-.003c.009,0,.018.005.021.014l.168.513.164-.514c.002-.008.01-.015.019-.015h.54s-.438-.316-.438-.316c-.007-.005-.011-.014-.008-.023l.166-.514-.434.319c-.007.005-.017.006-.025,0Z" fill="#007c29" fill-rule="evenodd" />
            </g>
            <g>
              <path d="M16.992,6.237l.181.56h.588c.011-.001.02.008.02.019,0,.007-.003.013-.008.017l-.477.345.183.56c.003.011-.002.022-.013.026-.007.002-.014,0-.019-.004l-.474-.346-.476.347c-.009.006-.022.005-.029-.005-.004-.005-.005-.012-.003-.019l.183-.56-.477-.345c-.009-.007-.011-.02-.005-.029.004-.006.011-.009.018-.008h.587s.181-.559.181-.559c.003-.011.015-.017.026-.013.006.002.011.007.013.013Z" fill-rule="evenodd" />
              <path d="M17.139,6.824l-.166-.514-.166.514c-.002.009-.01.014-.019.014h-.54s.438.316.438.316c.007.005.01.014.007.023l-.168.513.436-.318c.007-.005.017-.006.024,0l.437.318-.168-.512c-.003-.008,0-.018.007-.024l.437-.317h-.539c-.009.001-.018-.004-.02-.013Z" fill="#007c29" fill-rule="evenodd" />
            </g>
            <g>
              <path d="M21.025,9.179l.181.56h.588c.011-.001.02.008.02.019,0,.007-.003.013-.008.016l-.477.345.183.559c.003.011-.003.022-.013.026-.007.002-.014,0-.02-.004l-.474-.346-.476.347c-.009.007-.022.005-.029-.005-.004-.005-.005-.012-.003-.018l.183-.559-.477-.345c-.009-.006-.011-.019-.004-.029.004-.006.011-.009.018-.008h.587s.181-.559.181-.559c.003-.011.015-.017.026-.013.006.002.011.007.013.013Z" fill-rule="evenodd" />
              <path d="M21.172,9.766l-.166-.514-.166.514c-.003.008-.01.014-.019.014h-.54s.438.315.438.315c.007.005.01.015.007.023l-.168.514.436-.318c.007-.005.017-.005.024,0l.436.318-.168-.513c-.003-.008,0-.018.007-.024l.438-.317h-.539c-.009.001-.017-.004-.02-.013Z" fill="#007c29" fill-rule="evenodd" />
            </g>
            <g>
              <path d="M12.959,9.179l.181.56h.589c.011-.001.02.008.02.019,0,.007-.003.013-.008.016l-.477.345.183.559c.004.011-.002.022-.013.026-.007.002-.014,0-.02-.004l-.474-.346-.476.347c-.009.007-.022.005-.029-.005-.004-.005-.005-.012-.003-.018l.183-.559-.477-.345c-.009-.006-.011-.019-.004-.029.004-.006.011-.009.018-.008h.587s.181-.559.181-.559c.003-.011.015-.017.026-.013.006.002.011.007.013.013Z" fill-rule="evenodd" />
              <path d="M13.106,9.766l-.166-.514-.166.514c-.003.008-.01.014-.02.014h-.54s.437.315.437.315c.007.005.01.015.008.023l-.168.514.436-.318c.007-.005.017-.005.024,0l.436.318-.167-.513c-.003-.008,0-.018.007-.024l.438-.317h-.539c-.009.001-.017-.004-.02-.013Z" fill="#007c29" fill-rule="evenodd" />
            </g>
            <g>
              <path d="M14.502,13.933l.181.56h.589c.011-.001.02.008.02.019,0,.007-.003.013-.008.017l-.477.345.183.56c.004.011-.002.022-.013.026-.007.002-.014,0-.02-.004l-.474-.346-.475.347c-.009.007-.022.005-.029-.004-.004-.006-.005-.012-.003-.018l.183-.56-.477-.345c-.009-.007-.011-.02-.005-.029.004-.006.011-.009.018-.008h.587s.181-.559.181-.559c.003-.011.015-.017.026-.013.006.002.011.007.013.013Z" fill-rule="evenodd" />
              <path d="M14.649,14.52l-.166-.514-.166.514c-.003.009-.011.015-.02.015h-.54s.438.316.438.316c.007.005.01.014.007.023l-.168.513.436-.318c.007-.005.017-.006.024,0l.436.318-.167-.512c-.003-.008,0-.019.007-.024l.438-.317h-.539c-.009.002-.018-.004-.02-.013Z" fill="#007c29" fill-rule="evenodd" />
            </g>
            <g>
              <path d="M13.999,7.209l.476.345.474-.349c.009-.007.022-.005.029.005.004.006.005.013.003.019l-.181.559.478.343c.009.007.011.019.005.029-.004.006-.01.008-.017.008h-.588s-.179.562-.179.562c-.003.011-.015.017-.026.013-.007-.002-.011-.007-.013-.013l-.183-.56-.589.003c-.011,0-.02-.009-.02-.02,0-.007.003-.013.009-.017l.475-.346-.185-.559c-.004-.011.002-.022.013-.026.006-.002.014,0,.019.003Z" fill-rule="evenodd" />
              <path d="M14.463,7.596l-.437-.317.17.513c.002.008,0,.018-.007.023l-.437.318.539-.003c.009,0,.018.005.021.014l.167.514.164-.514c.002-.009.01-.015.02-.015h.54s-.438-.315-.438-.315c-.007-.005-.011-.014-.008-.023l.166-.514-.434.319c-.007.006-.017.006-.025,0Z" fill="#007c29" fill-rule="evenodd" />
            </g>
            <g>
              <path d="M18.99,7.209l.476.345.474-.349c.009-.007.022-.005.029.005.004.006.005.013.003.019l-.181.559.478.343c.009.007.011.019.005.029-.004.006-.01.008-.017.008h-.588s-.179.562-.179.562c-.003.011-.015.017-.026.013-.006-.002-.011-.007-.013-.013l-.183-.56-.589.003c-.011,0-.02-.009-.02-.02,0-.007.003-.013.009-.017l.475-.346-.185-.559c-.003-.011.002-.022.013-.026.007-.002.014,0,.019.003Z" fill-rule="evenodd" />
              <path d="M19.455,7.596l-.438-.317.17.513c.002.008,0,.018-.007.023l-.436.318.539-.003c.009,0,.018.005.021.014l.168.514.164-.514c.002-.009.01-.015.02-.015h.54s-.438-.315-.438-.315c-.007-.005-.011-.014-.008-.023l.166-.514-.435.319c-.007.006-.017.006-.025,0Z" fill="#007c29" fill-rule="evenodd" />
            </g>
            <g>
              <path d="M12.448,11.95l.476.345.474-.348c.009-.007.022-.005.029.004.004.006.005.013.003.019l-.181.559.478.343c.009.007.011.02.005.029-.004.006-.01.009-.017.008h-.588s-.179.562-.179.562c-.003.011-.015.017-.026.013-.006-.002-.011-.007-.013-.013l-.183-.559-.589.003c-.011,0-.02-.009-.02-.02,0-.007.003-.013.009-.017l.475-.346-.185-.559c-.004-.011.002-.022.013-.026.006-.002.014,0,.019.003Z" fill-rule="evenodd" />
              <path d="M12.912,12.337l-.437-.317.17.513c.003.008,0,.018-.007.023l-.436.318.539-.003c.009,0,.018.005.021.014l.168.513.164-.514c.002-.008.01-.015.02-.015h.54s-.438-.315-.438-.315c-.007-.005-.011-.015-.008-.023l.166-.514-.435.319c-.007.006-.017.006-.025,0Z" fill="#007c29" fill-rule="evenodd" />
            </g>
            <g>
              <path d="M20.541,11.95l.476.345.474-.348c.009-.007.022-.005.029.004.004.006.005.013.003.019l-.181.559.478.343c.009.007.011.02.004.029-.004.006-.01.009-.017.008h-.588s-.179.562-.179.562c-.003.011-.015.017-.025.013-.006-.002-.011-.007-.013-.013l-.183-.559-.588.003c-.011,0-.021-.009-.021-.02,0-.007.003-.013.009-.017l.475-.346-.185-.559c-.003-.011.002-.022.013-.026.007-.002.014,0,.019.003Z" fill-rule="evenodd" />
              <path d="M21.005,12.337l-.437-.317.169.513c.003.008,0,.018-.007.023l-.437.318.539-.003c.009,0,.018.005.021.014l.168.513.164-.514c.002-.008.01-.015.02-.015h.54s-.438-.315-.438-.315c-.007-.005-.011-.015-.008-.023l.166-.514-.434.319c-.007.006-.017.006-.025,0Z" fill="#007c29" fill-rule="evenodd" />
            </g>
          </g>
          <g>
            <path d="M16.627,14.07h-1.13c-.007,0-.014-.004-.018-.01l-.211-.365c-.009-.013,0-.033.017-.033h.098c.044,0,.083-.029.095-.071.017-.069.06-.128.116-.17.057-.043.129-.069.201-.069s.143.026.2.069c.056.042.098.101.116.17.012.042.051.071.095.071h.421c.006-.012.013-.023.02-.034.043-.065.103-.117.173-.151-.025-.065-.04-.148-.042-.239-.004,0-.009.001-.013.001-.054,0-.102-.047-.135-.123-.031-.071-.05-.168-.05-.274,0-.027.001-.053.004-.08l-.004-.007c-.029-.047-.05-.113-.062-.19-.111-.126-.21-.268-.294-.423-.204-.375-.323-.824-.323-1.306,0-.217.024-.427.069-.627.046-.204.114-.398.201-.576,0-.006,0-.012,0-.018,0-.061.026-.119.071-.161v-.002c0-.055.021-.108.058-.149,0-.023.002-.044.009-.067-.057.029-.126.047-.183.047-.046,0-.092-.008-.135-.025-.028.048-.048.101-.058.157-.002.011-.013.018-.024.016-.006-.001-.011-.005-.014-.01-.033-.057-.058-.118-.074-.182-.039-.155-.029-.322.088-.443.054-.056.127-.094.212-.106.023-.134.097-.234.197-.302.121-.084.28-.122.433-.122.134,0,.261.031.375.085.124.06.217.138.304.244.081.097.173.185.274.261.101.077.212.143.33.195.018.008.015.036-.005.039-.083.014-.169.015-.253.002.033.026.069.049.108.068.059.028.123.047.191.053.017.001.025.023.013.035-.048.049-.105.089-.167.12.043.038.092.07.145.094.06.027.126.044.195.049.017.001.025.021.015.033-.05.064-.114.116-.188.152.03.021.063.038.097.053.044.019.091.032.14.039.017.002.023.023.012.034-.05.059-.113.106-.185.139l-.01.005c.078.052.167.084.261.093.016.002.024.021.014.034-.103.127-.257.201-.421.201-.047,0-.095-.007-.141-.02.026.035.052.07.077.106.038.054.075.109.111.166.221.348.378.711.472,1.065.097.367.127.724.09,1.045.031.083.047.173.047.267,0,.062-.008.124-.022.184.026.101.04.208.04.317,0,.1-.012.2-.035.297-.001.008-.006.014-.014.016-.011.003-.022-.003-.025-.014-.036-.117-.08-.229-.131-.338v.128c0,.06-.001.12-.005.179.056.036.093.1.093.172,0,.089-.057.165-.137.193-.024.122-.056.225-.094.297-.036.07-.078.114-.124.126-.006.026-.013.05-.02.073-.038.13-.09.207-.148.207s-.11-.077-.148-.207c-.007-.023-.013-.047-.02-.073-.008.002-.017.003-.025.003-.037,0-.072-.02-.103-.058-.027-.033-.052-.079-.074-.135-.012.004-.025.005-.038.005-.046,0-.091-.007-.133-.021-.021.014-.046.021-.072.021-.046,0-.091-.007-.133-.021-.021.014-.046.021-.072.021-.046,0-.091-.007-.133-.021-.022.014-.046.021-.072.021-.119,0-.226-.048-.305-.126-.029-.029-.055-.063-.075-.101Z" fill-rule="evenodd" />
            <path d="M18.089,12.857c-.231-.158-.45-.393-.64-.684-.196-.301-.36-.662-.471-1.064.099.466.259.875.451,1.181.199.318.431.524.66.566Z" fill="red" fill-rule="evenodd" />
            <path d="M18.185,13.867c0,.09.073.163.163.163s.163-.073.163-.163-.073-.163-.163-.163-.163.073-.163.163Z" fill="#963" fill-rule="evenodd" />
            <path d="M17.62,14.029h.605c-.049-.037-.081-.096-.081-.163s.032-.126.081-.163h-.605c-.09,0-.163.073-.163.163s.073.163.163.163Z" fill="#630" fill-rule="evenodd" />
            <g>
              <path d="M16.886,13.584c-.018-.018-.034-.041-.048-.069-.063.031-.117.078-.156.136-.041.062-.065.136-.065.215,0,.107.044.205.114.275.07.071.168.114.276.114.006,0,.012,0,.017-.002-.044-.021-.084-.05-.118-.084-.078-.078-.126-.186-.126-.304,0-.057.011-.111.031-.161.018-.045.043-.086.074-.122Z" fill="#fed700" fill-rule="evenodd" />
              <path d="M17.129,13.544c-.01-.015-.019-.033-.027-.052l-.003.006c-.033.076-.081.123-.135.123-.016,0-.031-.004-.046-.012-.029.033-.053.071-.069.112-.018.045-.028.094-.028.145,0,.107.044.205.114.275.07.07.168.114.275.114.006,0,.012,0,.018-.002-.044-.021-.084-.05-.118-.084-.078-.078-.126-.186-.126-.304,0-.066.015-.129.042-.185.025-.052.06-.099.103-.137Z" fill="#fed700" fill-rule="evenodd" />
              <path d="M17.269,13.616c-.01.003-.019.005-.029.005-.031,0-.061-.016-.086-.043-.037.034-.068.075-.09.121-.024.051-.038.108-.038.168,0,.107.044.205.114.275.071.071.168.114.275.114.006,0,.012,0,.018-.002-.044-.021-.084-.05-.118-.084-.078-.078-.126-.186-.126-.304,0-.064.014-.124.039-.178.012-.026.025-.05.042-.072Z" fill="#fed700" fill-rule="evenodd" />
              <path d="M17.505,13.499c-.031.055-.072.088-.118.088-.011,0-.022-.002-.033-.006-.037.035-.068.077-.089.124-.022.049-.035.104-.035.162,0,.107.044.205.114.275.07.071.168.114.275.114.051,0,.093-.042.093-.093s-.041-.093-.093-.093c-.112,0-.204-.091-.204-.204s.091-.204.204-.204c.022,0,.043-.008.059-.021-.009.003-.019.004-.028.004-.04,0-.075-.026-.098-.058-.018-.023-.034-.054-.047-.089Z" fill="#fed700" fill-rule="evenodd" />
            </g>
            <g>
              <path d="M15.905,9.356c.02-.07.055-.134.1-.19.056-.069.13-.124.215-.159.056-.024.093-.071.093-.134,0-.079-.064-.143-.143-.143-.095,0-.176.037-.233.096-.106.11-.113.266-.077.406.01.042.026.084.045.124h0ZM16.151,8.901c.023,0,.041.018.041.041s-.018.041-.041.041-.041-.018-.041-.041.018-.041.041-.041Z" fill="#fed700" fill-rule="evenodd" />
              <path d="M16.316,8.984c-.02.026-.05.049-.081.061-.078.032-.147.083-.199.147-.008.011-.017.021-.024.032.036.013.074.019.113.019.068,0,.16-.032.214-.074.029-.023.054-.054.054-.093,0-.046-.033-.084-.077-.092Z" fill="#fed700" fill-rule="evenodd" />
            </g>
            <path d="M16.799,8.662c-.029-.016-.062-.025-.097-.025-.035,0-.068.009-.097.025-.026.014-.048.035-.066.058.017.024.04.044.066.058.029.016.061.025.097.025.035,0,.068-.009.097-.025.026-.014.048-.034.066-.058-.017-.024-.04-.044-.066-.058h0ZM16.702,8.68c.023,0,.041.018.041.041s-.018.041-.041.041c-.023,0-.041-.018-.041-.041s.018-.041.041-.041Z" fill="red" fill-rule="evenodd" />
            <g>
              <path d="M16.394,9.175c.049.024.103.041.159.054.074.016.152.023.229.023.139,0,.273-.024.397-.068.129-.045.247-.112.352-.196.006-.005.015-.006.022-.003.052.025.108.045.165.058.076.018.155.023.233.018-.096-.048-.188-.105-.273-.169-.103-.078-.198-.168-.281-.268-.086-.103-.168-.175-.291-.234-.108-.052-.229-.081-.357-.081-.145,0-.295.036-.409.115-.089.062-.155.149-.178.266h.008c.101,0,.184.083.184.184,0,.027-.006.052-.016.075.056.017.096.068.096.129,0,.038-.016.071-.04.098h0ZM16.702,8.597c.042,0,.082.011.117.03.036.02.066.048.088.083.004.007.004.016,0,.022-.021.035-.052.063-.087.083-.035.019-.074.03-.117.03-.042,0-.082-.011-.117-.03-.036-.02-.066-.049-.088-.083-.004-.007-.004-.015,0-.022.022-.034.052-.063.088-.083.035-.019.075-.03.117-.03Z" fill="#6574ff" fill-rule="evenodd" />
              <path d="M17.229,9.209c.05.054.11.098.178.129.074.034.156.054.242.054.078,0,.153-.016.221-.044.057-.024.11-.057.156-.097-.057-.01-.111-.027-.161-.051-.063-.03-.12-.071-.169-.12-.051-.013-.102-.03-.149-.052-.096.075-.203.137-.318.182Z" fill="#6574ff" fill-rule="evenodd" />
              <path d="M17.146,9.238c.094.128.214.256.345.346.113.079.236.129.357.129.078,0,.153-.018.219-.05.057-.028.109-.066.151-.113-.06-.008-.117-.025-.17-.049-.063-.028-.12-.066-.169-.113-.071.029-.149.044-.23.044-.093,0-.181-.02-.259-.057-.078-.036-.147-.088-.202-.151-.014.005-.027.009-.041.013Z" fill="#6574ff" fill-rule="evenodd" />
              <path d="M17.195,9.365c-.004.013-.006.026-.006.04,0,.027.009.059.026.08.09.124.216.265.361.364.108.074.227.124.349.124.075,0,.146-.016.209-.046.055-.025.105-.06.146-.102-.039-.008-.076-.02-.112-.035-.045-.019-.087-.043-.125-.072-.061.024-.127.037-.196.037-.13,0-.26-.054-.38-.137-.1-.069-.193-.158-.273-.253Z" fill="#6574ff" fill-rule="evenodd" />
              <path d="M18.095,9.986c-.054.018-.111.027-.17.027-.131,0-.258-.053-.373-.131-.103-.07-.196-.161-.275-.253-.005.018-.008.037-.008.056,0,.044.015.086.043.12.095.126.215.248.346.334.107.071.222.116.336.116.139,0,.27-.057.365-.158-.096-.016-.186-.054-.264-.112Z" fill="#6574ff" fill-rule="evenodd" />
              <path d="M16.7,9.797c-.01.001-.021.002-.031.002-.042,0-.084-.013-.119-.035-.042.045-.1.071-.161.071-.06,0-.115-.024-.154-.064-.021-.02-.037-.045-.048-.073-.075.163-.135.337-.176.521-.044.197-.068.404-.068.618,0,.475.117.918.318,1.286.199.365.48.659.812.841-.011-.051-.017-.108-.017-.169,0-.047.004-.093.011-.136.007-.042.017-.081.029-.114-.009-.048-.014-.101-.014-.157,0-.102.018-.195.046-.265.025-.062.06-.106.1-.123-.148-.317-.265-.7-.332-1.119-.016-.101-.029-.201-.038-.3-.016-.169-.038-.402.009-.567-.044-.011-.082-.035-.111-.068-.037-.042-.054-.093-.053-.149Z" fill="#6574ff" fill-rule="evenodd" />
            </g>
            <path d="M16.608,13.703h-.401c-.062,0-.119-.042-.135-.102-.015-.06-.052-.111-.101-.148-.051-.038-.113-.06-.176-.06-.063,0-.125.022-.176.06-.048.037-.086.088-.101.148h0c-.017.061-.072.102-.135.102h-.062l.188.326h1.098c-.021-.05-.032-.105-.032-.163s.011-.113.032-.163Z" fill="#630" fill-rule="evenodd" />
            <g>
              <path d="M18.212,14.07h-.367c.013.191.04.356.074.474.033.111.071.177.109.177.038,0,.076-.066.109-.177.035-.118.061-.283.075-.474Z" fill="#007c29" fill-rule="evenodd" />
              <path d="M18.371,14.069c-.008,0-.015.001-.023.001h-.095c-.009.137-.025.26-.046.364.027-.016.053-.049.077-.096.034-.066.064-.158.087-.269Z" fill="#007c29" fill-rule="evenodd" />
              <path d="M18.262,13.041v.621h.086c.025,0,.048.005.07.012.003-.053.004-.106.004-.159v-.21c-.028-.054-.058-.107-.09-.158-.022-.036-.045-.071-.069-.106Z" fill="#007c29" fill-rule="evenodd" />
              <path d="M17.695,14.274c.021.054.044.097.069.127.023.028.048.044.072.044.006,0,.011,0,.016-.002-.022-.105-.039-.232-.048-.372h-.087c.023.024.037.057.037.093,0,.044-.022.086-.059.111Z" fill="#007c29" fill-rule="evenodd" />
              <path d="M17.795,13.501c-.003.007-.006.015-.009.022-.01.022-.02.042-.032.058-.003.032-.016.06-.037.081h.078v-.161Z" fill="#007c29" fill-rule="evenodd" />
              <path d="M17.569,13.276c-.006.063-.02.121-.038.168.014.049.032.09.054.119.017.02.037.041.065.041.037,0,.071-.037.098-.098.028-.063.045-.15.046-.247v-.021c-.015-.027-.027-.058-.037-.094-.012.005-.025.008-.038.008-.018,0-.035-.005-.052-.015-.014.041-.033.075-.054.1-.014.016-.029.029-.045.038Z" fill="#007c29" fill-rule="evenodd" />
              <path d="M17.389,13.034c.012.065.032.12.057.159.022.034.048.055.075.055.021,0,.042-.013.061-.036.02-.024.038-.059.052-.102-.01-.012-.021-.025-.03-.041-.025-.042-.044-.097-.056-.162-.018.013-.038.02-.06.02-.024,0-.047-.009-.068-.026-.006.049-.016.094-.03.133Z" fill="#007c29" fill-rule="evenodd" />
              <path d="M17.176,13.169c-.008.013-.017.026-.026.036v.019c0,.076-.009.147-.026.207.014.047.033.085.054.112.019.024.04.037.062.037.025,0,.046-.018.061-.036-.018-.02-.035-.047-.049-.079-.031-.07-.05-.168-.05-.274v-.006c-.009-.004-.018-.009-.026-.016Z" fill="#007c29" fill-rule="evenodd" />
              <path d="M16.82,13.223c0,.101.018.193.047.258.026.06.061.098.098.098s.071-.037.098-.098c.027-.062.044-.148.046-.243-.015.009-.031.013-.048.013-.052,0-.098-.043-.131-.114-.006-.014-.013-.029-.018-.045-.012.033-.027.062-.044.084-.014.02-.03.035-.047.046Z" fill="#007c29" fill-rule="evenodd" />
              <path d="M16.735,12.78c-.057-.048-.112-.101-.164-.156.011.043.026.081.044.11.023.039.051.062.079.062.015,0,.029-.007.041-.016Z" fill="#007c29" fill-rule="evenodd" />
              <path d="M16.876,12.89c-.037-.026-.073-.054-.109-.083-.02.018-.045.03-.073.03-.026,0-.05-.01-.072-.029,0,.011,0,.022,0,.034,0,.101.018.193.047.258.027.061.061.098.098.098.024,0,.048-.017.068-.046.023-.032.043-.079.057-.136-.008-.039-.013-.082-.015-.128Z" fill="#007c29" fill-rule="evenodd" />
              <path d="M17.086,13.018c-.057-.03-.113-.063-.167-.099.006.079.023.149.048.202.026.056.059.09.094.09.038,0,.068-.041.085-.072-.015-.019-.029-.042-.041-.069-.007-.016-.013-.033-.019-.051Z" fill="#007c29" fill-rule="evenodd" />
              <path d="M17.727,11.747c.033.037.064.064.093.079.025.013.047.016.064.009.037-.017.052-.083.046-.177-.007-.1-.039-.229-.095-.361-.007-.016-.014-.032-.021-.049-.006-.012-.011-.024-.017-.035-.022-.002-.047-.015-.074-.038-.019-.017-.04-.039-.061-.067.004.031.006.059.006.084,0,.078-.017.13-.054.145h-.002c-.014.005-.028.005-.044,0l.004.007c.027.048.053.1.077.157.036.086.063.171.079.247Z" fill="#007c29" fill-rule="evenodd" />
              <path d="M17.801,11.861c-.019-.01-.04-.025-.061-.044.003.02.005.038.006.056.008.111-.015.192-.069.217l-.004.002c-.013.005-.026.007-.04.006.027.096.066.187.116.271.057.095.127.181.209.254.157.149.295.318.409.502.099.16.181.333.243.514.012-.071.019-.142.019-.214,0-.172-.035-.336-.1-.484-.067-.154-.164-.292-.285-.405-.099-.095-.187-.201-.262-.316-.073-.112-.134-.232-.181-.359Z" fill="#007c29" fill-rule="evenodd" />
              <path d="M17.963,11.779c-.01.046-.031.078-.062.092-.016.007-.032.009-.05.007.044.112.099.219.165.319.073.112.16.216.256.309.125.117.225.26.294.419.014.032.026.065.037.098.004-.033.007-.066.007-.099,0-.089-.016-.175-.045-.255-.03-.082-.075-.158-.131-.223-.097-.11-.189-.226-.272-.347-.071-.103-.138-.211-.198-.321Z" fill="#007c29" fill-rule="evenodd" />
              <path d="M18.162,11.648s-.007.004-.011.006c-.033.015-.072.009-.114-.015-.024-.014-.049-.033-.075-.058.004.026.007.05.009.073.001.019.002.037.001.054.067.128.142.251.223.369.083.12.173.234.269.343.034.04.064.083.09.13-.017-.153-.054-.299-.109-.436-.069-.171-.165-.328-.283-.466Z" fill="#007c29" fill-rule="evenodd" />
              <path d="M18.226,11.433c.004.081-.008.146-.035.186.065.076.124.157.176.244.002-.065-.008-.132-.025-.194-.017-.063-.041-.12-.067-.167-.016-.027-.032-.051-.049-.07Z" fill="#007c29" fill-rule="evenodd" />
              <path d="M17.606,10.684c-.043-.049-.089-.109-.137-.178-.029.01-.069-.006-.113-.041.005.023.008.044.008.062,0,.03-.005.054-.017.069.01.03.019.059.026.087.041.076.084.137.124.175.034.034.065.049.084.041.016-.006.027-.028.031-.062.006-.039.003-.093-.007-.154Z" fill="#007c29" fill-rule="evenodd" />
              <path d="M17.804,10.83c-.033.002-.079-.025-.132-.076-.006-.005-.011-.011-.017-.017.004.041.004.077,0,.107-.004.032-.014.056-.028.073.009.034.016.067.022.098.037.056.072.1.103.127.025.022.045.032.059.028h0c.019-.008.028-.044.028-.1,0-.061-.011-.144-.034-.24Z" fill="#007c29" fill-rule="evenodd" />
              <path d="M17.836,10.646c.019.076.021.132.004.162.025.104.039.195.038.262,0,.065-.014.111-.041.131.005.009.009.019.014.029.007.016.014.032.022.05.033.077.057.154.074.224.038.046.076.081.11.1.03.017.057.022.077.013.041-.019.057-.092.051-.194-.008-.109-.042-.249-.103-.393-.043-.101-.092-.192-.143-.264-.034-.049-.069-.09-.102-.12Z" fill="#007c29" fill-rule="evenodd" />
              <path d="M17.247,10.602c.008.03.012.057.013.081.001.042-.009.072-.033.086-.035.02-.088-.003-.146-.057.04.087.084.161.127.215.05.062.095.095.123.084.026-.01.037-.056.034-.125-.003-.072-.021-.165-.055-.266-.018.003-.039-.003-.063-.016Z" fill="#007c29" fill-rule="evenodd" />
              <path d="M17.475,11.268c.005.093-.012.155-.054.171h-.002c-.05.017-.119-.039-.192-.145l-.008-.012c.002.039.008.083.019.13.016.075.042.157.077.24.006.015.012.029.019.043.055.12.12.22.181.285.056.06.108.089.143.075h.002c.037-.018.052-.085.046-.178-.007-.1-.039-.229-.095-.361-.023-.055-.048-.106-.075-.152-.02-.035-.04-.067-.06-.095Z" fill="#007c29" fill-rule="evenodd" />
              <path d="M17.406,10.918c.03.1.051.193.062.27.03.041.058.073.083.091.02.015.036.021.047.018h.001c.02-.008.029-.046.028-.106,0-.064-.014-.151-.038-.25-.035.009-.077-.011-.12-.053-.023-.022-.047-.051-.071-.085.004.028.007.054.008.079,0,.012,0,.024,0,.036Z" fill="#007c29" fill-rule="evenodd" />
              <path d="M16.893,10.456c.009.08.02.161.034.243.021.12.047.242.08.364.111.412.277.783.476,1.088.172.263.368.479.574.633-.041-.045-.084-.088-.128-.13-.084-.077-.157-.165-.216-.263-.056-.094-.099-.196-.127-.304-.032-.015-.067-.042-.102-.078-.065-.068-.132-.172-.189-.296-.006-.014-.013-.029-.019-.044-.036-.086-.063-.171-.079-.247-.017-.077-.023-.147-.019-.203-.056-.094-.113-.212-.165-.343-.004-.011.001-.022.012-.027.011-.004.023,0,.027.012.067.168.142.313.209.411.062.09.115.14.145.13h.001c.023-.009.032-.059.027-.136-.004-.07-.02-.159-.047-.26-.01.021-.024.035-.042.043-.047.018-.108-.02-.169-.096-.057-.071-.116-.176-.164-.298-.004-.011-.008-.023-.013-.034-.04-.052-.075-.107-.106-.164Z" fill="#007c29" fill-rule="evenodd" />
              <path d="M17.862,12.811c-.067-.04-.133-.093-.198-.156-.01.071-.03.132-.055.179-.008.015-.016.028-.026.039.01.071.03.133.056.176.024.04.052.063.08.063.034,0,.066-.032.091-.084.027-.055.046-.131.051-.218Z" fill="#007c29" fill-rule="evenodd" />
              <path d="M18.058,12.892c-.052-.012-.105-.032-.157-.06-.007.084-.027.159-.054.214-.016.031-.034.057-.053.075.013.052.032.095.054.125.021.028.044.044.068.044.037,0,.071-.037.098-.098.029-.065.046-.157.046-.258v-.043Z" fill="#007c29" fill-rule="evenodd" />
              <path d="M18.161,12.906c-.02,0-.041-.003-.061-.006v.035c.001.107-.018.204-.049.274-.033.076-.081.123-.135.123-.029,0-.056-.013-.08-.037v.367h.385v-.678c-.02-.027-.04-.053-.06-.078Z" fill="#007c29" fill-rule="evenodd" />
              <path d="M17.244,12.038c-.03.013-.058.049-.08.102-.027.065-.043.152-.043.249,0,.101.017.193.046.258.027.061.061.098.098.098s.071-.037.098-.098c.029-.065.046-.157.046-.258v-.03s-.002-.025-.002-.025l-.014-.021c-.053-.084-.103-.176-.15-.275Z" fill="#007c29" fill-rule="evenodd" />
              <path d="M17.335,12.759c-.021.018-.045.027-.069.027-.054,0-.102-.047-.135-.123-.006-.013-.011-.027-.015-.041-.003.014-.006.029-.009.044-.007.04-.01.084-.01.129,0,.101.018.192.046.258.027.06.061.098.098.098.033,0,.063-.03.089-.079.027-.053.047-.127.053-.213-.018-.027-.034-.061-.047-.101Z" fill="#007c29" fill-rule="evenodd" />
              <path d="M17.451,12.398c0,.103-.02.197-.05.265-.01.023-.021.043-.034.06.014.05.032.092.054.121.02.027.043.042.066.042.031,0,.061-.027.085-.072.027-.049.046-.117.054-.196-.061-.064-.12-.137-.176-.219Z" fill="#007c29" fill-rule="evenodd" />
              <path d="M17.557,10.117c-.103-.081-.198-.182-.276-.286-.008-.01-.015-.021-.021-.032-.05-.021-.103-.028-.156-.014-.079.021-.14.087-.179.181-.05.121-.052.246-.042.375.008.019.017.038.027.058.05.098.118.204.195.278.046.044.083.066.101.055.01-.005.014-.023.013-.049-.001-.032-.01-.074-.027-.122-.004-.003-.008-.007-.012-.011-.078-.075-.145-.176-.195-.273-.008-.017-.016-.032-.023-.047-.005-.01,0-.022.01-.028.01-.005.023,0,.027.01.007.016.015.031.023.046.049.093.113.191.187.262.017.016.074.071.102.055.009-.006.013-.023.012-.047,0-.031-.01-.072-.026-.119-.065-.072-.122-.159-.167-.246-.009-.018-.018-.036-.026-.053-.004-.01,0-.022.01-.027.01-.005.022,0,.027.01.008.017.016.035.025.052.049.094.114.195.19.267.018.017.074.071.102.054.017-.011.016-.054.001-.114-.025-.105-.082-.215-.143-.307-.012-.019-.025-.037-.038-.055-.006-.009-.005-.022.004-.029.009-.007.022-.005.029.005.013.018.026.037.039.057.062.096.121.211.148.32.015.059.015.108,0,.137.074.105.143.19.2.245.05.048.087.073.103.065h0c.023-.014.01-.092-.029-.208-.043-.125-.119-.289-.217-.464Z" fill="#007c29" fill-rule="evenodd" />
              <path d="M17.783,10.253c-.05-.02-.099-.047-.147-.078h-.002c.08.147.141.284.178.393l.003.011c.049.033.103.09.156.164.052.075.103.167.147.271.054.128.088.253.102.358.031.024.062.062.09.111.028.049.053.11.071.176.022.083.035.181.021.267.03.056.057.113.081.172.042.105.074.215.094.329.005-.254-.03-.526-.104-.804-.093-.35-.249-.709-.467-1.053-.036-.056-.072-.111-.11-.164-.037-.053-.075-.104-.114-.154Z" fill="#007c29" fill-rule="evenodd" />
              <path d="M16.366,9.207c-.007.011-.012.023-.017.036-.021.063-.004.134.043.182.032.032.076.052.125.052.049,0,.093-.02.125-.052.032-.032.052-.076.052-.125v-.009c-.051-.004-.101-.01-.15-.021-.063-.014-.124-.034-.178-.062Z" fill="#007c29" fill-rule="evenodd" />
              <path d="M16.308,9.361c-.017.028-.026.06-.026.092,0,.098.079.177.177.177.086,0,.16-.062.175-.146-.034.021-.074.034-.116.034-.06,0-.114-.025-.154-.064-.025-.026-.045-.057-.055-.092Z" fill="#007c29" fill-rule="evenodd" />
              <path d="M16.248,9.508c-.024.031-.037.069-.037.108,0,.049.02.093.052.125s.076.052.125.052c.087,0,.161-.063.175-.149-.031.017-.066.026-.104.026-.099,0-.186-.067-.211-.163Z" fill="#007c29" fill-rule="evenodd" />
              <path d="M16.686,9.436c.029.019.062.029.097.029.098,0,.177-.079.177-.177v-.008c-.058.008-.118.013-.178.013-.016,0-.031,0-.047,0v.007c0,.052-.018.1-.049.137Z" fill="#007c29" fill-rule="evenodd" />
              <path d="M16.574,9.73c.028.018.061.027.094.027.049,0,.093-.02.125-.052.032-.032.052-.076.052-.125,0-.028-.006-.054-.018-.079-.014.003-.029.005-.044.005-.038,0-.074-.01-.107-.028-.006.055-.03.099-.07.136.001.04-.011.083-.032.117Z" fill="#007c29" fill-rule="evenodd" />
              <path d="M16.802,9.753c-.018.014-.039.025-.061.033-.002.051.008.094.042.133.024.028.056.048.092.056.003-.008.006-.017.01-.025.02-.05.047-.092.078-.126h0c-.062,0-.12-.026-.162-.072Z" fill="#007c29" fill-rule="evenodd" />
              <path d="M16.954,9.423c.026.015.056.023.087.023.039,0,.076-.013.107-.036v-.006c0-.026.006-.052.017-.076-.021-.026-.041-.053-.06-.079-.034.009-.069.017-.104.023,0,.005,0,.01,0,.015,0,.051-.018.099-.047.136Z" fill="#007c29" fill-rule="evenodd" />
              <path d="M17.089,9.482c-.016.003-.032.005-.049.005-.041,0-.082-.012-.116-.033-.017.015-.037.027-.058.035.013.029.02.06.02.091,0,.055-.021.106-.055.144.034.038.081.059.132.059.049,0,.093-.02.125-.052.032-.032.052-.076.052-.125,0-.047-.018-.092-.051-.125Z" fill="#007c29" fill-rule="evenodd" />
              <path d="M17.155,9.455c-.008.005-.016.009-.023.013.032.039.05.088.05.139,0,.049-.016.095-.044.132.034-.003.067.001.099.011-.005-.02-.008-.041-.008-.063,0-.032.006-.063.019-.092-.023-.029-.046-.057-.066-.085-.012-.018-.02-.033-.026-.054Z" fill="#007c29" fill-rule="evenodd" />
              <path d="M17.473,13.473c.025-.046.044-.111.052-.184h-.005c-.041,0-.079-.027-.109-.073-.02-.031-.037-.071-.05-.117-.031.058-.072.093-.119.094,0,.1.018.19.046.256.026.06.061.098.098.098.031,0,.061-.028.086-.073Z" fill="#007c29" fill-rule="evenodd" />
            </g>
          </g>
        </g>
      </g>
    </g>
  </g>
</g></svg>