<?xml version="1.0" encoding="UTF-8"?>
<svg id="Layer_2" data-name="Layer 2" xmlns="http://www.w3.org/2000/svg" viewBox="0 0 33.945 22.631">
  <g id="_Ñëîé_1" data-name="Ñëîé 1">
    <g>
      <g>
        <rect y="15.087" width="33.945" height="7.543"/>
        <rect y="7.543" width="33.945" height="7.544" fill="#fff"/>
        <rect width="33.945" height="7.543" fill="red"/>
      </g>
      <g>
        <polygon points="16.338 13.994 16.309 14.378 16.396 14.382 16.412 14.07 16.338 13.994" fill="#c09300" fill-rule="evenodd"/>
        <path d="M16.187,14.039l.02.028-.009.216-.106.006-.01-.023.026-.027.027.013.017-.025-.077-.145-.133.082-.018.05.08.024.02-.025-.024-.035.05-.03.035.052-.074.073-.204-.027-.042-.127-.047.076.039.062s.012.072-.034.093c-.046.022-.091.01-.091.01l-.012.021.042.027s.094.008.124-.025c.029-.033.031-.084.031-.084l.186.026.036-.013.029.029.181.023.026-.392-.09.066Z" fill="#c09300" fill-rule="evenodd"/>
        <path d="M15.417,14.273l-.035.035s-.005.031.01.043c.015.011.049-.026.049-.026l-.024-.052Z" fill="#c09300" fill-rule="evenodd"/>
        <path d="M15.325,14.259h.026s.011.041-.008.057c-.019.017-.044-.005-.044-.005l.011-.049.015-.003Z" fill="#c09300" fill-rule="evenodd"/>
        <path d="M15.658,14.273l-.402-.078-.038-.03s-.002-.092.02-.116c.022-.024.057-.029.068-.029.012,0,.037.007.037.007v-.059s.085-.038.085-.038l-.042.238.074.004.007-.03-.024-.026.079-.058.01.005-.016.132.07-.006.014-.055-.016-.027.07-.05.03.008-.025.208h0ZM15.268,14.088s-.012.035.008.052c.019.016.053.003.053.003v-.07s-.048-.021-.061.016Z" fill="#c09300" fill-rule="evenodd"/>
        <path d="M15.285,13.878s-.021.034-.012.046c.009.012.047.019.058-.002.011-.02.023-.049.01-.058-.013-.008-.055.013-.055.013Z" fill="#c09300" fill-rule="evenodd"/>
        <path d="M15.204,13.866s-.005.036.006.043c.011.007.035-.011.035-.032,0-.022-.005-.035-.019-.035-.014,0-.023.025-.023.025Z" fill="#c09300" fill-rule="evenodd"/>
        <path d="M16.454,14.461l.017-.02s.059-.005.084-.031c.024-.025.032-.085.015-.112-.018-.027-.031-.039-.031-.039l.024-.1.07.089v.047h.108v-.064s.054-.072.054-.072l.02.016.194.009.023.103h.03v-.072l.111-.048.029.026.004.162-.198-.003.004.038s-.035.035-.051.046c-.016.012-.061-.019-.061-.019l-.025-.054-.239-.012s-.007.068-.039.093c-.032.025-.087.037-.146.016h0ZM17.103,14.252v.039s.042.008.042.008v-.069s-.042.022-.042.022h0ZM16.792,14.299l.124-.003-.007.038.032.042.027-.028-.005-.09-.129-.02-.052.036.009.024Z" fill="#c09300" fill-rule="evenodd"/>
        <path d="M17.314,14.38l-.012-.047s-.003-.103.035-.123c.038-.021.079-.012.079-.012l-.015-.06s.044-.035.051-.048c.007-.013.026-.003.026-.003v.224s.065-.007.065-.007l.004-.04-.02-.031.048-.087.025.012-.003.192-.032.024-.252.006h0ZM17.349,14.275s.001.059.031.056c.029-.003.048-.062.029-.075-.019-.013-.063-.009-.06.019Z" fill="#c09300" fill-rule="evenodd"/>
        <path d="M17.337,14.059s.027.017.011.041c-.017.024-.035.024-.05.007-.016-.018-.017-.039-.004-.046.012-.008.032-.024.043-.001Z" fill="#c09300" fill-rule="evenodd"/>
        <path d="M17.47,14.449s.006-.03.022-.029c.016.001.034.019.027.04-.008.021-.052.013-.049-.011Z" fill="#c09300" fill-rule="evenodd"/>
        <path d="M17.559,14.422s-.01.039-.004.045c.005.007.052.008.061.008s.096-.042.096-.042c0,0,.082.025.129,0,.047-.026.062-.097.062-.097l.026-.007s.04.064.095.075c.055.012.088.004.088.004l-.008-.115.187-.019s.046.055.089.05c.043-.004.072-.057.072-.057v-.023l.169-.038.065.055.017-.024-.014-.041s.061-.01.052-.042c-.008-.032-.044-.043-.044-.043l-.035.007-.053-.092-.141.007-.014.06h.128l.035.048s-.078.035-.095.036-.084.016-.084.016c0,0-.009-.057-.068-.055-.059.003-.071.066-.071.066l-.089-.004s-.02-.042-.062-.079c-.042-.037-.062-.032-.062-.032l-.003-.062-.062.026.01.048s-.062.027-.086.062c-.025.035-.019.094-.019.094h-.03s-.013-.131-.013-.131l-.092.032v.036s.036.006.036.006c0,0-.066.004-.073.055-.008.051-.003.087-.003.087l.098-.007s-.004.058-.047.064c-.043.006-.084-.008-.084-.008,0,0-.004-.077-.013-.119-.009-.042-.048-.098-.048-.098l-.029.084s.047.071.045.091c-.003.019-.018.064-.039.074-.022.01-.072,0-.072,0h0ZM18.345,14.201c.024-.033.048.005.051.029.003.024-.027.041-.049.021-.022-.02-.002-.05-.002-.05h0ZM17.99,14.305l.057-.01.003.052s-.046.01-.06-.042h0ZM17.795,14.281c-.004-.048.036-.05.045-.041.009.009-.003.034-.003.034,0,0-.034.007-.041.007h0ZM18.008,14.164l.031.079-.063.013s-.005-.007-.004-.03c.001-.023.036-.062.036-.062h0ZM18.073,14.16c.011-.015.05,0,.061.018.011.018.01.048.01.048l-.064.007-.006-.072Z" fill="#c09300" fill-rule="evenodd"/>
        <path d="M18.54,14.288s-.028.045-.01.062c.018.016.061.012.063-.018.002-.03-.031-.078-.053-.044Z" fill="#c09300" fill-rule="evenodd"/>
        <path d="M17.385,14.059s-.019.02-.005.036c.015.017.038.015.043-.01.005-.025-.003-.041-.038-.026Z" fill="#c09300" fill-rule="evenodd"/>
      </g>
      <g>
        <path d="M16.891,8.408c.018.011.024.034.014.052-.01.018-.034.025-.052.014l-.093-.054c.003.243-.048.501-.136.727-.091.233-.225.444-.392.625-.014.015-.038.016-.054.002-.016-.014-.016-.038-.002-.054.045-.049.088-.1.128-.154-.139-.032-.274-.075-.404-.127-.149-.059-.292-.131-.427-.215-.074-.045-.153-.066-.23-.066-.071,0-.141.018-.202.051-.061.033-.113.081-.15.141-.03.048-.05.105-.057.168.008-.007.017-.014.026-.02.044-.03.097-.047.154-.047.045,0,.09.012.13.033.04.021.074.051.099.088.111.156.259.284.431.372.165.085.353.133.552.133.134,0,.262-.021.381-.061.123-.041.238-.101.341-.178.014-.011.034-.011.048,0,.103.077.217.137.341.178.12.04.248.061.381.061.199,0,.387-.048.552-.133.171-.088.319-.216.431-.372.025-.038.059-.068.099-.088.04-.021.085-.033.13-.033.057,0,.11.017.154.047.009.006.018.013.027.02-.007-.065-.028-.123-.059-.172-.037-.059-.089-.106-.149-.139s-.129-.05-.2-.05c-.085,0-.163.027-.235.071-.134.081-.275.151-.423.21-.132.052-.268.095-.408.128.03.054.063.106.098.157.012.017.008.041-.009.053-.018.012-.041.008-.053-.009-.135-.195-.233-.41-.291-.636-.057-.223-.076-.456-.053-.69.002-.018.003-.035.003-.052,0-.094-.033-.18-.089-.245-.056-.065-.136-.109-.229-.119-.012-.001-.026-.002-.04-.002-.035,0-.068.005-.099.014-.01.003-.021.007-.031.011l.151.087c.018.011.024.034.014.052-.01.018-.034.024-.052.014l-.226-.13c-.056-.032-.12-.039-.177-.023-.057.015-.109.052-.141.107-.021.039-.033.074-.032.119.036-.018.076-.029.116-.032.059-.004.12.008.176.04l.221.127h0ZM15.973,10.129c.082.016.167.025.253.025.136,0,.276-.022.405-.065.123-.041.238-.1.341-.173.103.074.217.133.341.173.13.043.269.065.405.065.087,0,.171-.008.253-.025-.032.391-.134.762-.303,1.118-.169.352-.412.683-.696.95-.285-.268-.527-.598-.696-.95-.169-.355-.271-.726-.303-1.118h0ZM18.353,9.987c.13-.074.246-.17.342-.283v3.384l-.342-.342v-2.759h0ZM18.276,12.67l-.188-.188-.154-.577v-1.144c.059-.209.099-.427.116-.651.079-.021.154-.049.227-.084v2.643h0ZM18.771,9.606c.017-.023.039-.041.065-.054.029-.015.062-.024.094-.024.042,0,.08.012.112.033.031.021.056.05.071.084v3.861l-.342-.342v-3.559h0ZM15.25,9.704c.096.113.212.209.342.283v2.759l-.342.342v-3.384h0ZM15.174,13.165l-.342.342v-3.861c.016-.034.041-.063.071-.084.032-.021.07-.033.112-.033.033,0,.066.008.095.024.025.013.047.032.065.054v3.559h0ZM15.669,10.027c.072.035.148.063.227.084.017.224.056.442.116.651v1.144l-.154.577-.188.188v-2.643h0ZM17.949,13.939l.093-.139-.159-.275-.079.295.145.119h0ZM17.858,11.621v-.624c-.031.083-.065.165-.102.245l.102.38h0ZM18.128,12.63l.226.844c.069-.011.138-.022.207-.034.006-.001.012,0,.017,0l.298.08c.017.005.028.02.028.037v.301l.155.155c.012.012.015.031.006.046l-.257.445c-.005.011-.015.019-.028.021-.296.052-.595.092-.899.119-.3.026-.603.04-.909.04s-.61-.013-.909-.04c-.304-.027-.603-.066-.899-.119-.01-.002-.02-.008-.026-.019l-.256-.444c-.011-.015-.009-.036.004-.049l.155-.155v-.301c0-.017.011-.032.028-.037l.298-.08c.005-.001.011-.002.017,0,.069.012.137.024.206.034l.226-.844-.997.997c-.015.015-.039.015-.054,0-.008-.007-.011-.017-.011-.027v-4.032c0-.097.026-.184.071-.257.044-.071.106-.128.178-.167.072-.039.154-.061.238-.061.09,0,.183.024.269.078.131.081.271.151.415.209.136.054.278.098.424.13.08-.118.148-.245.201-.38.084-.216.131-.45.131-.696v-.048s-.05-.028-.05-.028c-.042-.024-.088-.033-.132-.029-.046.003-.092.021-.129.05-.022.018-.055.005-.061-.022-.018-.075-.007-.164.034-.23.043-.073.111-.122.187-.142.075-.02.157-.012.23.028.029-.016.059-.028.091-.037.038-.011.078-.017.12-.017.016,0,.032,0,.048.003.114.012.211.066.279.145.068.079.108.183.108.295,0,.02-.002.038-.004.057-.022.226-.004.451.051.666.034.132.082.261.144.384.144-.033.283-.076.417-.13.145-.058.284-.127.417-.208.086-.054.179-.079.269-.079.083,0,.164.021.236.06.072.039.133.095.178.166.046.073.074.162.074.261v4.032c0,.021-.017.038-.038.038-.011,0-.02-.005-.027-.012l-.996-.996h0ZM16.088,10.996v.624l.101-.379c-.037-.08-.071-.162-.101-.245h0ZM16.836,12.171c-.239-.241-.44-.519-.595-.825l-.639,2.383c.079.012.158.022.237.032l.204-.353c.01-.018.033-.024.052-.014.009.005.015.014.017.023l.103.382c.061.005.122.009.181.013l.44-1.64h0ZM17.705,11.346c-.155.305-.357.583-.595.825l.44,1.64c.06-.004.12-.008.181-.013l.102-.382c.003-.009.009-.018.018-.023.018-.01.042-.004.052.014l.204.353c.079-.009.158-.02.237-.032l-.639-2.383h0ZM17.049,12.242l.09,1.004c.059-.001.119-.003.178-.005l-.268-.999h0ZM17.063,13.247l-.09-1.013-.091,1.013c.029,0,.059,0,.091,0,.03,0,.06,0,.09,0h0ZM16.806,13.246l.09-1.005-.268.999c.05.002.099.003.149.004h.029ZM17.337,13.317c-.123.005-.245.007-.365.007-.062,0-.127,0-.198-.002-.056-.001-.112-.003-.167-.005l-.067.251c.041.002.081.004.12.005.056.002.112.003.167.004.016,0,.027.009.034.022l.111.192.111-.193c.008-.012.019-.021.034-.021.096-.002.192-.005.287-.009l-.067-.251h0ZM18.374,13.548l.045.169c.075-.012.148-.024.221-.037l-.093-.161c-.058.01-.116.019-.173.028h0ZM16.52,13.643l-.046.172c.063.003.127.006.189.008l.099-.172c-.035,0-.069-.002-.104-.003-.047-.002-.093-.003-.138-.006h0ZM17.471,13.815l-.046-.172c-.08.004-.161.007-.242.009l.099.172c.063-.002.125-.005.189-.008h0ZM18.646,13.539l.084.146.097.098v-.195l-.182-.049h0ZM17.748,13.873l.185.152c.018.015.042.01.056-.008l.119-.18c.098-.012.195-.025.292-.039.095-.014.191-.03.288-.048l.297.297-.234.406c-.287.051-.579.089-.875.115-.297.026-.598.039-.903.039s-.605-.013-.903-.039c-.296-.026-.588-.064-.875-.115l-.234-.406.297-.297c.097.018.193.034.288.048.096.015.193.028.291.039l.119.18c.014.018.037.023.056.008l.185-.152c.076.006.155.012.235.016.077.004.154.008.233.01l.134.167c.018.02.046.018.06-.001l.112-.138.112.138c.015.021.044.02.06.001l.134-.167c.079-.002.157-.006.234-.01.08-.005.159-.01.235-.016h0ZM15.526,13.717l.046-.169c-.058-.009-.116-.018-.174-.028l-.093.161c.073.013.146.025.221.037h0ZM15.117,13.782l.097-.098.084-.146-.182.049v.195h0ZM15.904,13.8l.092.139.145-.119-.079-.295-.159.275h0ZM16.827,13.691l-.097.167.099.123.097-.119-.099-.172h0ZM17.115,13.982l.099-.123-.097-.167-.099.172.097.119h0ZM16.558,9.705c-.012.017-.036.021-.053.009-.017-.012-.021-.036-.009-.053.037-.052.071-.107.102-.167.031-.059.058-.121.081-.184.007-.02.029-.03.049-.023.02.007.03.029.023.049-.025.068-.053.133-.085.194-.032.062-.068.12-.107.175h0ZM16.845,9.692c-.005.02-.026.033-.046.028-.02-.005-.033-.026-.028-.046.012-.052.024-.108.035-.169.01-.059.02-.122.028-.187.002-.021.021-.036.042-.033.021.003.036.022.033.043-.008.066-.018.13-.029.191-.011.06-.023.118-.036.173h0ZM17.013,9.326c-.002-.021.014-.04.035-.041.021-.002.039.014.041.035.006.065.012.127.02.185.008.059.017.117.027.172.004.021-.01.041-.031.044s-.04-.01-.044-.031c-.01-.056-.019-.115-.027-.175-.008-.063-.015-.126-.021-.188h0ZM17.204,9.332c-.005-.02.007-.041.027-.046.02-.005.041.007.046.027.016.062.036.123.058.182.023.059.049.115.078.17.01.019.003.042-.016.051-.018.01-.041.003-.051-.015-.031-.058-.058-.117-.081-.178-.024-.062-.044-.125-.061-.19Z" fill="#c09300" fill-rule="evenodd"/>
        <path d="M16.059,10.22c.039.346.135.678.286.994.154.323.372.625.628.877.255-.252.473-.555.627-.877.151-.316.247-.648.286-.994-.056.007-.112.01-.168.01-.145,0-.292-.024-.429-.069-.112-.037-.218-.089-.317-.153-.099.065-.205.116-.317.153-.137.046-.284.069-.429.069-.056,0-.112-.003-.168-.01h0ZM16.973,11.983c-.146-.151-.279-.32-.391-.499v-1.222c.033-.008.066-.018.099-.029.102-.034.201-.079.293-.136.092.056.19.101.293.136.03.01.06.019.09.027v1.237c-.111.174-.241.338-.383.486Z" fill="#c09300" fill-rule="evenodd"/>
      </g>
    </g>
  </g>
</svg>