<?xml version="1.0" encoding="UTF-8"?>
<svg id="Layer_2" data-name="Layer 2" xmlns="http://www.w3.org/2000/svg" viewBox="0 0 33.946 22.631">
  <g id="_Ñëîé_1" data-name="Ñëîé 1">
    <g>
      <g>
        <rect width="33.946" height="22.631" fill="#fff"/>
        <rect width="33.946" height="7.543" fill="#007c29"/>
        <rect y="15.086" width="33.946" height="7.544" fill="red"/>
        <polygon points="0 0 0 22.631 8.869 11.315 0 0" fill="#0072fe" fill-rule="evenodd"/>
      </g>
      <g>
        <path d="M15.15,8.983h3.645c.007,0,.012.006.012.012v3.882c0,.174-.071.333-.186.448-.115.115-.273.186-.448.186h-.797c-.083,0-.162.023-.229.063-.069.042-.126.102-.164.173-.003.006-.011.008-.017.005-.002-.001-.004-.003-.005-.005-.038-.071-.095-.131-.164-.173-.067-.04-.145-.063-.228-.063h-.797c-.174,0-.333-.071-.448-.186s-.186-.274-.186-.448v-3.882c0-.006.006-.012.012-.012Z" fill-rule="evenodd"/>
        <path d="M18.783,9.008h-3.62v3.869c0,.167.069.32.179.43.11.111.263.179.43.179h.797c.088,0,.17.024.241.067.067.04.123.097.163.164.04-.067.096-.123.163-.164.071-.043.153-.067.241-.067h.797c.167,0,.32-.069.43-.179s.179-.263.179-.43v-3.869Z" fill="#fff" fill-rule="evenodd"/>
        <path d="M16.792,8.49l-.183.006-.083.157c-.005.009-.017.008-.022,0l-.092-.151-.183.005c-.009,0-.016-.01-.011-.018l.086-.164-.096-.159c-.005-.008.001-.018.011-.019l.182-.005.083-.157c.005-.009.017-.008.021,0l.092.151.183-.005c.009,0,.016.01.011.018l-.086.164.096.159c.005.008-.001.018-.01.018Z" fill-rule="evenodd"/>
        <path d="M15.9,8.564l-.177.043-.049.171c-.002.01-.015.012-.021.005l-.121-.13-.177.043c-.009.002-.017-.007-.015-.015l.051-.179-.126-.136c-.007-.007-.003-.019.007-.021l.177-.042.049-.171c.003-.01.015-.012.021-.005l.121.13.177-.043c.009-.002.017.007.015.015l-.051.179.127.136c.007.007.003.019-.007.02Z" fill-rule="evenodd"/>
        <path d="M15.051,8.746l-.163.081-.009.177c0,.01-.012.015-.019.01l-.147-.099-.163.081c-.009.004-.019-.003-.018-.012l.01-.185-.154-.104c-.008-.005-.007-.018.002-.022l.163-.081.01-.177c0-.01.012-.015.019-.01l.147.1.163-.081c.009-.004.019.003.018.012l-.01.185.154.104c.008.006.007.018-.002.022Z" fill-rule="evenodd"/>
        <path d="M18.536,10.459c-.027.031-.064.054-.105.062-.003.048-.024.091-.056.123-.034.034-.082.055-.134.055-.054,0-.106-.023-.142-.064-.021.034-.051.063-.086.084-.039.023-.084.036-.132.036-.061,0-.117-.021-.162-.057-.041-.032-.071-.077-.086-.128-.042.028-.091.042-.141.042-.024,0-.048-.003-.07-.01-.088.049-.161.12-.212.207-.05.085-.079.184-.079.29v.425c0,.263.024.524.069.781.045.255.112.505.201.748.015.04,0,.09-.031.119-.021.02-.05.033-.081.033-.022,0-.044-.006-.062-.018-.013.012-.03.018-.05.018-.008,0-.016-.001-.024-.004-.033.038-.081.06-.131.06-.046,0-.09-.018-.123-.051-.005.006-.01.011-.016.016-.026.022-.059.035-.095.035-.041,0-.077-.016-.104-.043-.006-.006-.012-.014-.017-.021-.018.011-.039.017-.06.017-.031,0-.059-.013-.079-.033-.029-.029-.042-.079-.027-.118.13-.32.224-.652.279-.99.056-.34.073-.686.051-1.032-.005-.08-.022-.155-.05-.223-.026-.063-.061-.12-.105-.168-.003.004-.007.008-.01.011-.032.031-.075.051-.123.051h-.01c.002.011.003.021.003.032,0,.053-.022.101-.056.136-.035.035-.083.056-.136.056-.043,0-.082-.014-.114-.037-.029-.021-.052-.05-.065-.084-.021.011-.045.017-.069.017-.047,0-.091-.021-.12-.058-.027.071-.095.118-.171.118-.064,0-.122-.033-.156-.087-.019.012-.041.018-.063.018-.066,0-.12-.054-.12-.12s.054-.12.12-.12c.016,0,.031.003.045.009.007-.033.024-.063.048-.084.028-.026.065-.041.106-.041.024,0,.048.006.07.016.006-.017.016-.033.03-.044.018-.015.041-.024.066-.024.01,0,.019.001.029.004.003-.021.009-.041.019-.058.01-.019.025-.036.041-.05-.025-.029-.038-.065-.038-.103,0-.041.016-.078.041-.107.022-.023.052-.041.084-.048-.007-.015-.01-.032-.01-.049,0-.034.014-.064.036-.086.022-.022.053-.036.086-.036.009,0,.017,0,.026.003-.003-.012-.004-.023-.004-.035,0-.047.019-.089.05-.12.031-.031.073-.05.12-.05.01,0,.02,0,.029.003,0-.029.009-.055.029-.076.018-.018.044-.03.071-.03h.002c-.004-.013-.006-.028-.006-.042,0-.039.016-.075.042-.101.026-.026.062-.042.101-.042.019,0,.037.004.055.011.055-.078.144-.125.24-.125.081,0,.154.033.207.086.053.053.086.127.086.207,0,.013-.001.025-.002.037.047,0,.091.014.129.041.032.023.057.054.073.09.028-.024.062-.037.099-.037.016,0,.032.003.046.007.008-.03.025-.055.048-.075.026-.022.06-.036.097-.036.041,0,.079.017.106.044.024.025.041.059.044.095.017-.006.036-.01.054-.01.041,0,.079.017.106.044.027.027.044.065.044.106,0,.01,0,.02-.003.03.023-.01.048-.015.073-.015.052,0,.1.021.134.056.034.034.056.082.056.134,0,.021-.004.042-.011.062.004,0,.008,0,.012,0,.052,0,.1.021.134.056s.056.082.056.134c0,.047-.017.09-.046.124h0ZM16.938,10.474c-.027-.009-.053-.022-.077-.039-.008.021-.022.039-.04.052-.018.014-.038.023-.061.025.031.019.059.041.086.065.034.03.064.063.092.1v-.203h0ZM17.274,10.491c-.014-.022-.025-.047-.032-.074-.043.036-.094.06-.148.07v.183c.022-.031.046-.06.072-.087.033-.034.069-.065.108-.092Z" fill-rule="evenodd"/>
        <path d="M17.153,8.49l.182.006.083.157c.005.009.017.008.022,0l.092-.151.182.005c.01,0,.016-.01.011-.018l-.087-.164.096-.159c.005-.008,0-.018-.01-.019l-.182-.005-.083-.157c-.005-.009-.017-.008-.022,0l-.092.151-.182-.005c-.01,0-.016.01-.011.018l.086.164-.096.159c-.005.008,0,.018.01.018Z" fill-rule="evenodd"/>
        <path d="M18.046,8.564l.177.043.049.171c.003.01.015.012.021.005l.121-.13.177.043c.009.002.017-.007.015-.015l-.051-.179.126-.136c.007-.007.003-.019-.007-.021l-.177-.042-.049-.171c-.003-.01-.015-.012-.021-.005l-.121.13-.177-.043c-.009-.002-.017.007-.015.015l.051.179-.127.136c-.006.007-.002.019.007.02Z" fill-rule="evenodd"/>
        <path d="M18.895,8.746l.163.081.01.177c0,.01.011.015.019.01l.147-.099.164.081c.009.004.018-.003.018-.012l-.01-.185.154-.104c.008-.005.007-.018-.002-.022l-.163-.081-.009-.177c0-.01-.012-.015-.019-.01l-.147.1-.164-.081c-.008-.004-.018.003-.017.012l.01.185-.154.104c-.008.006-.007.018.002.022Z" fill-rule="evenodd"/>
        <path d="M17.592,14.068c-.168.031-.384.05-.62.05s-.452-.019-.62-.05v-.472c0-.008-.006-.014-.014-.013-.104.012-.208.022-.312.028-.103.006-.207.01-.312.01-.274,0-.53-.081-.744-.219-.138-.089-.259-.202-.357-.334l.226-.392c.01-.016.016-.036.016-.056,0-.033-.016-.065-.042-.085-.11-.086-.206-.189-.286-.303-.079-.113-.141-.238-.183-.373-.002-.007-.009-.01-.016-.008-.005.001-.008.006-.009.011-.004.124-.018.246-.042.364-.024.12-.059.237-.103.35-.016.04-.024.082-.024.125,0,.075.024.145.066.201.04.054.097.096.162.118-.005.021-.011.042-.016.063-.031.111-.07.218-.118.321-.002.003-.001.007,0,.011.077.162.187.305.322.42.133.115.291.202.463.255.155.046.315.083.477.11.156.026.314.044.476.052v.166c0,.068.113.127.296.168.178.04.423.065.694.065s.516-.025.694-.065c.183-.041.296-.101.296-.168v-.166c.161-.008.32-.026.476-.052.162-.028.322-.065.477-.11.173-.052.33-.14.463-.255.134-.115.245-.258.322-.42.001-.003.002-.007,0-.011-.048-.103-.087-.21-.118-.321-.006-.021-.011-.042-.016-.063.066-.022.122-.064.162-.118.041-.056.066-.126.066-.201,0-.043-.008-.085-.024-.125-.044-.112-.078-.229-.103-.35-.024-.118-.039-.24-.042-.364,0-.005-.003-.01-.009-.011-.006-.002-.013.001-.015.008-.043.134-.105.259-.184.373-.08.115-.176.217-.286.303-.026.02-.042.052-.042.085,0,.02.006.04.016.056l.226.392c-.098.131-.219.245-.358.334-.214.138-.47.219-.744.219-.105,0-.209-.003-.312-.01-.105-.006-.209-.016-.312-.028-.008-.001-.014.005-.014.013v.472Z" fill-rule="evenodd"/>
        <path d="M14.597,13.046l.188-.325c-.012.004-.024.007-.038.007-.032,0-.063-.014-.083-.039-.023-.03-.058-.047-.095-.047-.033,0-.062.013-.084.034-.022.021-.036.052-.036.085,0,.017.004.036.012.052.037.083.083.161.135.234Z" fill="#fff" fill-rule="evenodd"/>
        <path d="M14.426,12.747c.003-.035.019-.066.042-.089.026-.026.062-.042.101-.042.045,0,.087.021.114.056.016.019.039.03.064.03.023,0,.044-.009.059-.024.015-.015.024-.036.024-.059,0-.026-.012-.05-.032-.066-.112-.088-.21-.192-.291-.309-.068-.098-.124-.204-.166-.318-.006.103-.02.204-.04.303-.025.122-.06.24-.104.354h0c-.015.037-.022.076-.022.116,0,.07.023.134.061.186.037.05.088.088.148.109.018-.081.032-.164.041-.249Z" fill="#fff" fill-rule="evenodd"/>
        <path d="M16.328,13.608c-.099.012-.199.021-.3.027-.104.006-.209.01-.314.01-.279,0-.539-.082-.757-.222-.224-.145-.404-.351-.516-.596-.013.09-.031.178-.055.264-.03.111-.069.217-.117.319.075.157.182.295.313.407.131.113.285.198.454.25.154.046.313.083.474.11.155.026.312.044.472.052v-.319c0-.034.026-.065.074-.092.047-.027.115-.051.199-.071.041-.01.071-.046.072-.089v-.049Z" fill="#fff" fill-rule="evenodd"/>
        <path d="M19.348,13.046l-.188-.325c.012.004.025.007.038.007.032,0,.062-.014.083-.039.023-.03.058-.047.095-.047.033,0,.062.013.084.034.021.021.035.052.035.085,0,.017-.004.036-.012.052-.037.083-.083.161-.135.234Z" fill="#fff" fill-rule="evenodd"/>
        <path d="M19.519,12.747c-.003-.035-.019-.066-.042-.089-.026-.026-.062-.042-.101-.042-.045,0-.087.021-.114.056-.016.019-.039.03-.064.03-.023,0-.044-.009-.059-.024-.015-.015-.024-.036-.024-.059,0-.026.012-.05.032-.066.112-.088.21-.192.291-.309.068-.098.124-.204.166-.318.006.103.02.204.04.303.025.122.06.24.104.354h0c.014.037.022.076.022.116,0,.07-.023.134-.061.186-.037.05-.088.088-.148.109-.019-.081-.033-.164-.041-.249Z" fill="#fff" fill-rule="evenodd"/>
        <path d="M17.617,13.608c.099.012.199.021.3.027.104.006.209.01.314.01.279,0,.539-.082.758-.222.224-.145.404-.351.516-.596.012.09.031.178.054.264.031.111.07.217.117.319-.075.157-.183.295-.313.407-.131.113-.285.198-.454.25-.154.046-.313.083-.474.11-.154.026-.312.044-.471.052v-.319c0-.034-.026-.065-.074-.092-.047-.027-.115-.051-.199-.071-.042-.01-.071-.046-.072-.089v-.049Z" fill="#fff" fill-rule="evenodd"/>
        <path d="M16.973,14.142c.271,0,.516-.025.694-.065.133-.03.229-.07.271-.115v.456c0,.054-.106.106-.277.144-.176.04-.42.064-.689.064s-.513-.025-.689-.064c-.171-.038-.277-.09-.277-.144v-.456c.043.045.139.084.271.115.178.04.423.065.694.065Z" fill="#fff" fill-rule="evenodd"/>
        <path d="M17.876,13.838c.04.023.062.047.062.071,0,.054-.106.105-.277.144-.014.003-.029.006-.044.009v-.335c.017.021.04.037.067.043.082.02.147.043.192.068Z" fill="#fff" fill-rule="evenodd"/>
        <path d="M16.07,13.838c-.04.023-.062.047-.062.071,0,.054.106.105.277.144.014.003.029.006.044.009v-.335c-.017.021-.04.037-.066.043-.082.02-.147.043-.192.068Z" fill="#fff" fill-rule="evenodd"/>
        <path d="M16.638,14.516v-.262h.085c.032,0,.053.001.063.004.015.004.028.012.038.026.01.013.015.03.015.051,0,.016-.003.03-.009.041-.006.011-.013.02-.022.026-.009.006-.018.011-.027.013-.013.002-.031.004-.055.004h-.034v.099h-.053ZM16.691,14.298v.075h.029c.021,0,.035-.002.042-.004.007-.003.012-.007.016-.013.004-.006.006-.012.006-.02,0-.009-.003-.017-.008-.024-.006-.006-.013-.01-.021-.012-.006-.001-.019-.002-.038-.002h-.025ZM17.09,14.516l-.105-.262h-.056l-.101.262h.056l.022-.06h.105l.023.06h.057ZM16.993,14.412h-.072l.035-.097.037.097h0ZM17.095,14.516v-.047l.138-.17h-.122v-.044h.192v.041l-.143.176h.149v.044h-.213Z" fill-rule="evenodd"/>
        <path d="M14.643,13.345l.033.04-.106.088c-.017.014-.027.024-.031.029-.007.008-.01.018-.009.028,0,.011.005.021.014.032.009.011.018.018.028.019.009.002.018,0,.025-.004.008-.005.019-.013.035-.026l.108-.09.033.04-.103.085c-.024.019-.041.032-.052.038-.012.006-.023.009-.034.009-.012,0-.023-.004-.035-.01s-.024-.017-.037-.033c-.016-.018-.025-.034-.029-.048-.003-.013-.004-.025-.002-.037.002-.011.006-.021.013-.029.009-.012.024-.027.047-.045l.104-.087h0ZM14.634,13.719l.038.029.101-.133-.019.195.041.031.153-.203-.038-.029-.103.136.019-.199-.04-.03-.153.203h0ZM14.866,13.876l.114-.227.046.023-.114.227-.046-.023h0ZM15.051,13.689l-.072.244.093.028c.018.005.033.008.045.008.016,0,.03-.003.04-.009.014-.008.028-.02.039-.035.009-.013.017-.03.023-.05.007-.023.01-.043.009-.06,0-.017-.005-.033-.012-.047-.007-.014-.017-.025-.03-.033-.01-.006-.024-.012-.045-.018l-.09-.027h0ZM15.088,13.745l.022.007c.02.006.033.011.04.014.008.005.015.011.019.018.004.008.006.017.007.028,0,.011-.002.026-.008.045-.006.019-.012.033-.018.043-.007.01-.013.016-.02.019s-.014.005-.023.004c-.006,0-.016-.002-.03-.007l-.037-.011.048-.161h0ZM15.474,14.059l-.054-.012-.009-.061-.1-.022-.033.052-.053-.012.151-.227.053.012.045.27h0ZM15.403,13.94l-.014-.099-.054.084.068.015h0ZM15.562,13.816l.093.013c.021.003.037.007.047.012.014.007.026.016.035.029.009.013.015.027.018.044.003.017.003.037,0,.061-.003.021-.008.038-.015.052-.009.017-.02.031-.033.041-.01.007-.023.012-.039.015-.012.002-.027.002-.045-.001l-.096-.013.036-.252h0ZM15.606,13.866l-.024.167.038.005c.014.002.025.003.031.002.009,0,.016-.003.022-.008.006-.004.012-.012.017-.022.005-.011.009-.026.012-.045.003-.02.003-.035.001-.046-.002-.011-.006-.02-.011-.026-.006-.006-.013-.012-.022-.015-.007-.003-.021-.005-.041-.008l-.023-.003Z" fill-rule="evenodd"/>
        <path d="M18.14,13.848l.051-.005.015.16c.002.021.002.037,0,.049-.004.015-.011.028-.023.038s-.029.016-.05.018c-.025.003-.045-.003-.059-.015-.015-.013-.024-.032-.026-.06l.048-.01c.002.015.005.024.009.03.006.008.015.012.026.011.011-.001.019-.005.023-.012.004-.007.005-.021.003-.041l-.016-.163h0ZM18.254,13.836l.051-.008.022.136c.003.022.006.035.009.042.004.01.01.017.019.022.009.005.021.006.035.004.014-.002.024-.007.031-.014.007-.007.01-.015.01-.024s-.001-.023-.005-.043l-.023-.139.051-.008.022.132c.005.03.007.051.007.064,0,.013-.004.024-.01.034-.006.01-.015.018-.026.025-.012.007-.027.012-.047.016-.024.004-.043.004-.056,0-.013-.004-.024-.009-.033-.017-.009-.008-.015-.016-.019-.026-.006-.014-.011-.035-.016-.063l-.022-.134h0ZM18.541,13.961l.048-.016c.007.016.015.026.026.032.011.005.024.006.039.003.016-.004.027-.01.034-.019.007-.009.009-.018.007-.027-.001-.006-.005-.01-.009-.014-.004-.003-.011-.005-.02-.007-.006,0-.02-.001-.042-.001-.028,0-.049-.004-.062-.011-.018-.01-.03-.025-.035-.044-.003-.013-.002-.025.002-.038.005-.012.013-.024.025-.032.012-.009.027-.016.046-.02.031-.007.056-.006.075.004.019.01.031.026.038.049l-.05.014c-.005-.012-.012-.02-.02-.024-.008-.004-.019-.004-.033,0s-.025.009-.032.017c-.005.005-.006.011-.004.017.001.006.005.01.011.013.007.004.024.006.05.006s.045.002.058.005c.013.003.024.01.033.019.009.009.015.022.019.037.003.014.003.028-.002.042-.005.014-.014.026-.027.035-.013.009-.03.017-.052.022-.031.007-.057.006-.077-.005-.02-.011-.035-.029-.045-.056h0ZM18.882,13.958l.048-.017-.069-.2.071-.024-.014-.041-.191.066.014.041.071-.024.069.199h0ZM19.053,13.891l-.12-.224.045-.024.12.224-.045.024h0ZM19.234,13.658c.008.017.011.032.009.045-.002.013-.009.024-.02.032-.014.012-.03.016-.048.012-.017-.003-.036-.018-.056-.043-.019-.024-.028-.044-.027-.062,0-.018.009-.033.023-.044.011-.009.022-.013.034-.013.013,0,.024.004.034.013l.032-.041c-.017-.012-.034-.019-.05-.02-.027-.003-.052.006-.077.025-.028.022-.043.049-.046.081-.002.032.009.065.036.097.025.032.053.049.084.054.031.004.06-.004.087-.025.021-.017.035-.036.04-.058.005-.022.002-.046-.009-.073l-.048.019h0ZM19.377,13.649l-.187-.172.035-.038.187.172-.035.038h0ZM19.583,13.362l-.029.047-.061-.012-.054.086.038.049-.029.046-.163-.219.029-.046.269.049h0ZM19.448,13.387l-.098-.02.061.079.037-.059Z" fill-rule="evenodd"/>
        <path d="M16.388,10.72c0,.007-.005.012-.012.012s-.013-.005-.013-.012c0-.033-.026-.06-.059-.06-.027,0-.051.019-.058.045-.006.039-.028.074-.06.097.012.031.032.058.058.077.028.02.062.033.1.033.046,0,.088-.019.119-.049s.049-.072.049-.119c0-.015-.002-.029-.006-.043-.002-.008.005-.017.014-.015.008.001.016.002.024.002.041,0,.079-.017.105-.044s.044-.064.044-.106c0-.015-.002-.029-.006-.043,0-.003,0-.006,0-.008.003-.006.01-.009.016-.006.013.005.026.008.04.008.024,0,.045-.008.063-.022.017-.014.031-.033.036-.055.002-.008.013-.012.019-.007.051.04.113.062.178.062.073,0,.143-.028.197-.078-.002-.011-.002-.023-.002-.034,0-.032.006-.065.018-.095.003-.006.01-.009.016-.007.006.002.009.01.007.016-.011.028-.016.056-.016.086,0,.069.03.133.082.177.041.035.094.056.151.056.075,0,.145-.036.189-.097.013-.018.024-.039.032-.061.002-.006.009-.01.016-.008.006.002.01.009.008.016-.008.024-.02.047-.035.067-.013.019-.029.035-.047.049.013.05.041.093.08.125.04.032.091.051.146.051.044,0,.085-.012.12-.033.034-.02.063-.049.083-.084-.009-.014-.017-.03-.022-.046-.009-.028-.011-.057-.007-.085,0-.007.007-.011.014-.011.007,0,.011.007.011.014-.003.025-.002.05.006.074.022.068.085.114.157.114.045,0,.087-.018.117-.048.029-.029.048-.07.048-.115,0-.016-.007-.033-.018-.044-.011-.011-.026-.018-.043-.018-.017,0-.032.007-.043.018-.011.011-.018.026-.018.043,0,.007-.005.012-.012.012-.007,0-.013-.006-.013-.012,0-.03-.012-.056-.031-.075-.02-.019-.046-.031-.076-.031-.006,0-.012-.006-.012-.012s.006-.012.012-.012c.037,0,.069.015.093.038.012.013.023.028.029.044.003-.004.006-.008.01-.011.015-.015.037-.025.06-.025.023,0,.044.01.06.025.012.012.02.028.024.045.034-.008.065-.027.087-.052.025-.029.041-.067.041-.108,0-.046-.019-.087-.049-.117-.03-.03-.071-.048-.116-.048-.01,0-.02,0-.029.003-.01.002-.017-.008-.013-.018.011-.022.016-.047.016-.071,0-.045-.018-.086-.048-.116-.03-.03-.072-.049-.117-.049-.031,0-.06.008-.086.024-.005.003-.009.002-.013,0-.026-.016-.056-.024-.086-.024-.034,0-.065.01-.091.028-.027.018-.049.044-.061.074-.002.006-.01.009-.016.007-.006-.003-.009-.01-.007-.016.014-.035.039-.065.07-.085.03-.02.067-.032.105-.032.03,0,.06.007.087.021.004-.012.005-.024.005-.037,0-.034-.014-.066-.037-.089s-.054-.037-.089-.037c-.021,0-.042.005-.06.015-.008.005-.019-.001-.018-.011.002-.037-.01-.07-.036-.096-.022-.023-.055-.037-.089-.037-.031,0-.059.011-.081.029-.022.018-.038.044-.043.074-.001.008-.009.014-.017.011-.016-.007-.033-.011-.051-.011-.034,0-.066.013-.09.037.006.021.009.042.009.064,0,.057-.022.112-.061.153-.005.005-.012.005-.017,0-.005-.005-.005-.012,0-.017.035-.037.054-.085.054-.136,0-.063-.03-.122-.082-.159-.038-.027-.081-.039-.128-.036-.051.004-.096.027-.129.062-.032.035-.052.082-.052.133,0,.007-.006.012-.012.012s-.012-.005-.012-.012c0-.019-.008-.036-.02-.049-.012-.012-.031-.021-.05-.021-.019,0-.037.008-.05.021-.013.012-.02.03-.02.049,0,.007-.006.012-.012.012s-.012-.005-.012-.012c0-.026.011-.05.028-.067.017-.017.041-.028.067-.028.026,0,.051.011.068.029.003.003.006.007.009.011.009-.036.028-.069.052-.095.035-.037.082-.063.136-.069.002-.013.003-.026.003-.039,0-.074-.03-.141-.078-.189-.048-.048-.116-.079-.19-.079-.091,0-.175.046-.225.122-.003.006-.01.008-.016.005-.016-.008-.035-.013-.053-.013-.033,0-.062.013-.084.035-.021.021-.035.051-.035.084,0,.018.004.035.011.051.005.009-.004.02-.014.017-.006-.001-.012-.002-.018-.002-.021,0-.04.008-.054.022-.017.017-.025.041-.022.065.027.009.052.026.071.046.011.012.02.026.027.04.016-.031.049-.051.084-.051.053,0,.095.043.095.095,0,.024-.009.046-.025.064-.005.005-.012.005-.017,0-.005-.005-.005-.012,0-.017.012-.013.018-.029.018-.047,0-.039-.031-.07-.07-.07-.038,0-.07.032-.07.07,0,.006-.004.011-.01.012-.007.001-.013-.003-.015-.01-.005-.027-.017-.051-.035-.07-.028-.03-.066-.047-.107-.047-.04,0-.076.016-.102.042-.026.026-.042.062-.042.103,0,.017.003.034.009.05.004.01-.007.02-.016.016-.012-.006-.026-.008-.039-.008-.027,0-.051.011-.069.029-.018.018-.029.042-.029.069,0,.018.005.036.015.052.006.008.001.019-.009.02-.034.003-.064.018-.086.042-.022.024-.035.056-.035.09,0,.033.012.065.034.089.025-.014.053-.022.081-.022.06,0,.116.033.144.087.003.006,0,.014-.005.017-.006.003-.014,0-.017-.005-.024-.045-.071-.073-.122-.073-.051,0-.097.028-.122.073-.01.019-.016.041-.017.064,0,.009-.01.016-.018.012-.011-.005-.023-.008-.035-.008-.019,0-.037.007-.05.018-.014.012-.023.028-.026.046,0,.009-.011.014-.019.009-.022-.014-.046-.021-.071-.021-.035,0-.066.013-.089.035-.024.022-.039.052-.042.086,0,.009-.011.015-.018.01-.015-.009-.032-.013-.049-.013-.053,0-.095.042-.095.095s.042.095.095.095c.021,0,.042-.007.059-.02.006-.005.016-.004.02.003.027.053.081.086.141.086.075,0,.139-.052.155-.125.003-.011.018-.013.023-.003.022.042.066.068.113.068.071,0,.128-.057.128-.128,0-.051-.041-.092-.091-.092-.035,0-.066.019-.082.049-.003.006-.01.008-.017.005-.006-.003-.008-.011-.005-.017.02-.039.06-.063.104-.063.057,0,.104.041.114.095.016-.015.035-.023.058-.023.046,0,.084.038.084.084h0ZM17.621,10.215c-.007,0-.013-.005-.013-.012s.005-.013.013-.013c.05,0,.097.015.137.039.035.022.064.051.084.086.014-.021.032-.039.053-.052.027-.017.058-.027.092-.027.007,0,.012.006.012.012s-.005.012-.012.012c-.029,0-.056.008-.079.023-.024.015-.043.036-.055.062-.001.003-.003.005-.006.006-.006.003-.013,0-.016-.006-.019-.04-.049-.073-.086-.096-.036-.022-.078-.035-.124-.035h0ZM16.599,10.033c.007,0,.012.005.012.012s-.005.013-.012.013c-.042,0-.079.017-.107.044-.027.027-.044.065-.044.107,0,.007-.006.012-.012.012-.007,0-.012-.005-.012-.012,0-.027-.011-.051-.028-.069-.018-.018-.042-.028-.068-.028-.007,0-.012-.005-.012-.012,0-.007.005-.012.012-.012.033,0,.064.014.086.035.008.008.015.018.021.028.009-.025.023-.048.041-.066.032-.032.076-.051.124-.051h0ZM16.456,10.417c-.006.004-.013.003-.017-.003-.004-.005-.003-.013.003-.017.03-.021.065-.033.102-.033.025,0,.05.006.073.016.001-.033.015-.062.037-.084.023-.023.055-.038.09-.038.007,0,.012.006.012.012s-.005.013-.012.013c-.028,0-.054.011-.073.03-.025.025-.031.052-.029.086.002.01-.009.018-.019.012-.024-.015-.051-.023-.079-.023-.032,0-.062.01-.087.028h0ZM16.83,10.046c-.007,0-.013-.005-.013-.012,0-.007.006-.012.013-.012.065,0,.126.021.175.057.039.028.071.066.093.11.006-.016.015-.029.027-.041.022-.021.051-.035.084-.035.006,0,.012.006.012.012s-.006.012-.012.012c-.026,0-.05.011-.067.028-.017.017-.028.041-.028.067,0,.005-.003.01-.009.012-.006.002-.013-.002-.015-.008-.018-.056-.054-.103-.1-.137-.045-.033-.101-.052-.161-.052Z" fill="#007c29" fill-rule="evenodd"/>
        <path d="M16.938,10.719c-.031-.046-.067-.088-.108-.124-.035-.031-.073-.058-.114-.081.001.008.002.016.002.023,0,.034-.01.065-.026.092.047.051.085.111.113.179.029.071.047.149.052.231.022.348.004.696-.052,1.038-.056.34-.149.673-.281.995-.011.031-.002.068.021.091.016.016.038.026.062.026.017,0,.033-.005.047-.014-.008-.019-.013-.039-.013-.061,0-.071.059-.211.091-.276.045-.09.081-.187.104-.288.023-.098.035-.2.035-.305,0-.007.006-.012.012-.012s.013.005.013.012c0,.107-.013.211-.036.31-.024.103-.06.201-.106.293-.03.06-.088.199-.088.265,0,.034.014.064.036.086s.052.036.086.036c.03,0,.058-.011.079-.029.022-.018.037-.044.041-.073.02-.146.03-.294.03-.441v-1.974Z" fill="#963" fill-rule="evenodd"/>
        <path d="M17.392,10.592c-.024-.011-.047-.024-.067-.041-.014-.012-.026-.025-.037-.039-.038.026-.072.056-.104.089-.034.035-.064.073-.09.114-.011.143-.02.286-.028.429-.007.145-.012.29-.014.435-.003.264.002.526.015.786.012.259.032.517.058.772.003.026.025.046.051.046.031,0,.052-.024.053-.055.003-.097-.005-.194-.024-.289-.018-.095-.047-.188-.086-.278-.003-.006,0-.014.006-.016.006-.003.014,0,.017.006.04.091.069.186.087.283.019.096.027.194.024.294,0,.015-.005.03-.011.041.014.008.03.013.047.013.024,0,.047-.01.064-.026.024-.023.036-.061.024-.093-.089-.244-.157-.496-.202-.752-.046-.258-.069-.52-.069-.785v-.425c0-.111.03-.214.083-.302.05-.084.12-.154.203-.205Z" fill="#630" fill-rule="evenodd"/>
        <path d="M17.13,13.19c-.016-.012-.027-.03-.029-.051-.026-.256-.046-.514-.058-.774-.012-.26-.017-.523-.015-.787.002-.146.007-.291.014-.436.005-.105.012-.208.019-.311.006-.08.008-.152.008-.232v-.109c-.01,0-.019.001-.029.001-.026,0-.052-.003-.078-.01v2.212c0,.149-.01.297-.03.445h0c-.003.019-.009.037-.019.053.028.03.067.047.108.047.041,0,.08-.017.109-.047Z" fill="#630" fill-rule="evenodd"/>
        <path d="M19.075,8.808l-.151-.075.142-.096s.006-.006.005-.011l-.009-.171.15.075s.009.002.013,0l.135-.091.009.163s.003.009.007.011l.151.075-.142.096s-.006.006-.005.011l.009.171-.15-.075s-.009-.002-.013,0l-.135.091-.009-.162s-.003-.009-.007-.011Z" fill="#fed700" fill-rule="evenodd"/>
        <path d="M18.235,8.584l-.164-.039.117-.125s.005-.008.003-.013l-.047-.165.163.039s.009,0,.012-.003l.111-.119.045.157s.005.007.009.008l.164.039-.117.125s-.005.008-.003.012l.047.165-.163-.039s-.009,0-.012.003l-.111.119-.045-.157s-.005-.007-.009-.008Z" fill="#fed700" fill-rule="evenodd"/>
        <path d="M17.343,8.471l-.168-.005.088-.146s.003-.008,0-.013l-.08-.152.168.005s.008-.002.011-.006l.084-.14.076.145s.006.006.011.006l.168.005-.088.146s-.003.008,0,.013l.08.152-.168-.005s-.009.002-.011.006l-.084.14-.076-.144s-.006-.006-.011-.007Z" fill="#fed700" fill-rule="evenodd"/>
        <path d="M16.602,8.471l.169-.005-.088-.146s-.003-.008,0-.013l.08-.152-.169.005s-.008-.002-.011-.006l-.084-.14-.076.145s-.006.006-.011.006l-.168.005.088.146s.003.008,0,.013l-.08.152.169-.005s.008.002.011.006l.084.14.076-.144s.006-.006.01-.007Z" fill="#fed700" fill-rule="evenodd"/>
        <path d="M15.71,8.584l.164-.039-.117-.125s-.005-.008-.003-.013l.047-.165-.163.039s-.009,0-.012-.003l-.111-.119-.045.157s-.005.007-.009.008l-.164.039.117.125s.005.008.003.012l-.047.165.163-.039s.009,0,.013.003l.111.119.045-.157s.005-.007.009-.008Z" fill="#fed700" fill-rule="evenodd"/>
        <path d="M14.871,8.808l.151-.075-.142-.096s-.005-.006-.005-.011l.009-.171-.15.075s-.009.002-.013,0l-.135-.091-.009.163s-.002.009-.007.011l-.151.075.142.096s.006.006.005.011l-.009.171.15-.075s.009-.002.013,0l.135.091.009-.162s.003-.009.007-.011Z" fill="#fed700" fill-rule="evenodd"/>
      </g>
    </g>
  </g>
</svg>