<?xml version="1.0" encoding="UTF-8"?>
<svg id="Layer_2" data-name="Layer 2" xmlns="http://www.w3.org/2000/svg" viewBox="0 0 33.945 22.631">
  <g id="_Ñëîé_1" data-name="Ñëîé 1">
    <g>
      <g>
        <rect width="33.945" height="22.631" fill="red"/>
        <g>
          <polygon points="0 0 33.945 0 33.945 11.315 0 0" fill="#007c29" fill-rule="evenodd"/>
          <polygon points="0 22.631 33.945 22.631 33.945 11.315 0 22.631" fill="#00adfe" fill-rule="evenodd"/>
        </g>
      </g>
      <g>
        <path d="M7.976,12.9c-.153-.367-.231-.757-.231-1.158,0-.592.173-1.169.497-1.661l-.576-.576c-.426.095-.89-.023-1.222-.355-.052-.052-.099-.107-.14-.165.216.071.448.085.67.041-.034-.028-.067-.057-.098-.088-.21-.21-.334-.473-.373-.746.273.039.536.163.746.373.031.031.061.064.088.098.044-.222.03-.454-.041-.67.058.041.113.088.165.14.332.332.45.796.354,1.222l.546.546c.53-.814.677-1.38.393-2.327-.377-.028-.733-.236-.936-.587-.033-.057-.06-.115-.083-.175.171.112.367.177.569.191-.023-.031-.044-.064-.064-.099-.133-.23-.179-.486-.15-.731.227.097.425.265.558.495.02.034.038.069.054.105.089-.182.131-.385.12-.588.041.049.077.102.11.159.195.337.204.731.06,1.062.203.574.233,1.159.075,1.748l.345-.345c-.08-.378.027-.787.32-1.08.046-.047.096-.088.148-.125-.064.194-.076.4-.037.599.025-.03.051-.059.079-.087.188-.188.423-.299.667-.334-.035.244-.146.479-.334.667-.028.028-.057.054-.087.079.199.039.406.027.599-.037-.037.052-.079.101-.125.148-.293.293-.702.4-1.08.32l-.654.654c-.102.24-.231.477-.38.713-.186.293-.31.617-.37.956l.769-.444c.017-.472.269-.926.709-1.18.068-.039.139-.073.21-.1-.134.205-.213.442-.229.685.038-.027.078-.053.119-.077.277-.16.584-.216.878-.18-.116.272-.319.511-.595.671-.041.024-.083.045-.126.065.219.107.463.158.707.144-.059.048-.123.093-.192.132-.439.254-.958.245-1.376.024l-.907.524c-.004.066-.007.132-.007.198,0,.416.097.826.285,1.198.125.239.21.494.255.758l.535-.536c-.12-.505.016-1.057.41-1.451.061-.061.126-.115.193-.164-.084.254-.099.524-.048.785.032-.039.067-.078.103-.114.246-.246.554-.391.873-.437-.046.319-.191.627-.437.873-.037.037-.075.071-.114.104.26.051.531.035.784-.048-.049.068-.103.132-.164.193-.394.394-.946.53-1.451.41l-.655.655c.003.051.005.101.005.152v2.748h-.374v-2.748c0-.234-.037-.465-.11-.685l-1.028-1.028c-.504.12-1.058-.017-1.451-.41-.061-.061-.116-.126-.164-.193.253.083.524.1.784.048-.04-.032-.078-.067-.114-.103-.246-.246-.392-.554-.437-.873.319.045.627.191.873.437.037.037.071.075.104.114.051-.26.035-.531-.048-.784.068.048.133.103.193.164.394.393.53.947.411,1.451l.645.645Z" fill="#fed700" fill-rule="evenodd"/>
        <path d="M9.39,16.888c-.292-.314-.627-.586-.994-.804-.335-.199-.697-.354-1.078-.456-.305.099-.623.148-.944.148-.677,0-1.303-.22-1.81-.592-.4-.294-.725-.682-.944-1.131.429.325.952.5,1.491.5.05-.007.117-.011.186-.015-.107-.097-.211-.2-.309-.306-.545-.031-1.037-.265-1.399-.627-.39-.39-.631-.928-.631-1.523,0-.133.012-.264.035-.39.022.038.045.074.069.11.229.342.545.622.917.806-.038-.099-.073-.199-.105-.301-.253-.161-.47-.373-.637-.622-.228-.342-.362-.753-.362-1.196,0-.31.065-.604.182-.868.033.134.08.263.139.385.109.226.259.429.44.598.002-.097.007-.193.015-.288-.105-.121-.195-.256-.265-.402-.114-.236-.177-.501-.177-.782,0-.387.122-.745.328-1.038.064-.091.137-.177.217-.254-.007.06-.01.122-.01.184,0,.3.08.596.231.855.033-.087.068-.172.106-.257-.083-.189-.125-.392-.125-.599,0-.411.167-.784.436-1.053.129-.129.282-.235.452-.31-.05.147-.077.305-.077.469,0,.109.012.218.037.325.058-.07.118-.14.181-.207-.004-.039-.005-.078-.005-.118,0-.343.139-.654.364-.879s.535-.364.878-.364c.048,0,.096.003.143.008-.168.165-.29.375-.347.611.092-.058.186-.113.282-.164.069-.143.17-.268.292-.366.182-.146.414-.234.666-.234.016,0,.032,0,.048.001-.188.078-.358.204-.488.361.108-.042.218-.079.329-.113.17-.13.383-.208.613-.208.107,0,.21.017.307.048-.185.223-.464.365-.776.365-.048,0-.096-.003-.142-.01-.09.028-.179.06-.267.093.12.036.247.056.372.056.112,0,.222-.015.326-.042-.041.047-.086.091-.135.129-.182.147-.414.234-.666.234-.162,0-.322-.036-.468-.107-.071.04-.14.081-.209.125.092.058.192.104.297.137.092.029.189.047.288.054-.063.142-.151.271-.26.379-.225.225-.535.364-.878.364-.116,0-.233-.016-.345-.048-.051.057-.1.115-.148.174.158.057.325.086.493.086.023,0,.046,0,.069-.002-.089.267-.252.499-.466.672-.207.168-.463.28-.742.313-.041.095-.08.191-.115.289.214-.007.418-.053.606-.13-.024.318-.135.611-.308.857-.147.209-.341.385-.565.511-.012.141-.018.283-.017.424.24-.103.457-.25.641-.431.013.045.024.09.034.136.03.141.046.288.046.439,0,.301-.063.586-.178.843-.08.179-.185.345-.31.493.043.133.092.264.146.392.233-.234.398-.488.528-.789.099.171.182.352.246.542.101.298.155.619.155.954,0,.214-.022.427-.067.636.124.135.255.262.393.38.047-.152.083-.307.108-.465.035-.221.047-.429.043-.653.457.199.858.503,1.172.883.287.347.5.756.617,1.204.353.109.688.26,1.001.446.398.236.761.53,1.077.87l-.273.254Z" fill="#fed700" fill-rule="evenodd"/>
        <path d="M7.621,16.888c.292-.314.627-.586.994-.804.335-.199.697-.354,1.078-.456.305.099.623.148.944.148.677,0,1.303-.22,1.81-.592.4-.294.726-.682.944-1.131-.429.325-.951.5-1.491.5-.05-.007-.117-.011-.186-.015.107-.097.211-.2.309-.306.545-.031,1.037-.265,1.399-.627.39-.39.631-.928.631-1.523,0-.133-.012-.264-.035-.39-.022.038-.045.074-.069.11-.229.342-.545.622-.917.806.038-.099.073-.199.105-.301.253-.161.47-.373.637-.622.229-.342.362-.753.362-1.196,0-.31-.065-.604-.182-.868-.034.134-.08.263-.139.385-.109.226-.259.429-.44.598-.002-.097-.007-.193-.015-.288.105-.121.195-.256.265-.402.114-.236.177-.501.177-.782,0-.387-.122-.745-.328-1.038-.064-.091-.137-.177-.217-.254.006.06.01.122.01.184,0,.3-.08.596-.231.855-.033-.087-.068-.172-.106-.257.083-.189.125-.392.125-.599,0-.411-.166-.784-.436-1.053-.129-.129-.282-.235-.452-.31.05.147.077.305.077.469,0,.109-.012.218-.037.325-.058-.07-.118-.14-.181-.207.004-.039.005-.078.005-.118,0-.343-.139-.654-.364-.879-.225-.225-.536-.364-.879-.364-.048,0-.096.003-.143.008.168.165.291.375.347.611-.092-.058-.186-.113-.282-.164-.069-.143-.169-.268-.292-.366-.182-.146-.414-.234-.666-.234-.016,0-.032,0-.048.001.188.078.358.204.488.361-.108-.042-.218-.079-.329-.113-.17-.13-.383-.208-.613-.208-.107,0-.21.017-.307.048.185.223.464.365.776.365.048,0,.096-.003.143-.01.09.028.179.06.267.093-.12.036-.247.056-.372.056-.112,0-.222-.015-.326-.042.041.047.086.091.135.129.182.147.414.234.666.234.163,0,.322-.036.468-.107.071.04.14.081.209.125-.092.058-.192.104-.297.137-.092.029-.188.047-.288.054.063.142.151.271.26.379.225.225.535.364.878.364.116,0,.234-.016.345-.048.051.057.1.115.148.174-.158.057-.325.086-.493.086-.023,0-.046,0-.069-.002.089.267.252.499.466.672.207.168.463.28.742.313.041.095.08.191.115.289-.214-.007-.418-.053-.606-.13.024.318.135.611.308.857.147.209.341.385.565.511.012.141.018.283.017.424-.24-.103-.457-.25-.641-.431-.013.045-.024.09-.034.136-.03.141-.046.288-.046.439,0,.301.063.586.178.843.08.179.185.345.31.493-.043.133-.092.264-.146.392-.233-.234-.398-.488-.528-.789-.099.171-.183.352-.246.542-.101.298-.155.619-.155.954,0,.214.022.427.068.636-.124.135-.255.262-.394.38-.047-.152-.083-.307-.108-.465-.036-.221-.047-.429-.043-.653-.457.199-.858.503-1.172.883-.287.347-.5.756-.617,1.204-.352.109-.688.26-1.001.446-.398.236-.76.53-1.077.87l.273.254Z" fill="#fed700" fill-rule="evenodd"/>
      </g>
    </g>
  </g>
</svg>