<svg xmlns="http://www.w3.org/2000/svg" id="Layer_2" data-name="Layer 2" viewBox="0 0 33.945 22.63">
  <defs><clipPath id="circleClip"><circle cx="16.9725" cy="11.315" r="11.315" /></clipPath></defs><g clip-path="url(#circleClip)"><g id="_&#209;&#235;&#238;&#233;_1" data-name="&#209;&#235;&#238;&#233; 1">
    <g>
      <g>
        <rect width="33.945" height="22.63" fill="#fed700" />
        <rect y="5.657" width="33.945" height="11.316" fill="red" />
        <rect width="33.945" height="4.243" fill="#0072fe" />
        <rect y="18.387" width="33.945" height="4.243" fill="#0072fe" />
      </g>
      <g>
        <path d="M29.725,13.69c-.039.054-.061.119-.064.185-.001.034-.042.048-.065.025-.028-.029-.047-.058-.067-.092-.136.147-.245.318-.319.505-.009.024-.034.029-.055.018-.142-.092-.276-.194-.401-.306-.125-.112-.242-.233-.349-.363-.047-.054-.084-.114-.112-.179-.081.109-.192.191-.32.236-.025.009-.044-.007-.05-.031-.013-.109-.035-.215-.067-.317-.032-.104-.073-.204-.122-.299-.051-.097-.078-.205-.078-.315,0-.058.008-.109.02-.164-.077.052-.151.107-.223.167-.016.013-.04.011-.053-.005-.008-.01-.011-.024-.007-.036.106-.353.283-.676.513-.952.051-.061.104-.119.159-.176h-3.371l-2.148,2.175c-.735.761-1.625,1.377-2.621,1.798-.958.405-2.014.629-3.122.629s-2.163-.224-3.122-.629c-.995-.42-1.885-1.036-2.621-1.798l-2.148-2.175h-2.684c.023.058.036.122.036.188v.491c0,.021-.017.038-.037.038-.012,0-.022-.005-.029-.014-.014-.016-.029-.033-.042-.049.01.105.016.21.016.315,0,.2-.02.401-.057.597-.004.02-.024.034-.044.03-.008-.001-.015-.006-.021-.012-.012-.012-.024-.025-.035-.039-.022.098-.061.192-.115.277-.058.089-.077.198-.051.302.005.02-.008.041-.027.046-.012.003-.024,0-.033-.007-.032-.024-.057-.049-.083-.078-.046.049-.097.094-.152.134-.066.047-.139.086-.216.117-.08.034-.125.122-.105.208.007.03-.024.055-.051.043-.126-.054-.246-.124-.355-.208-.041.05-.078.102-.112.157-.014.022-.039.022-.059.007-.187-.177-.331-.395-.418-.637-.021-.063-.059-.128-.1-.181-.028.073-.05.149-.067.226-.004.02-.024.033-.045.029-.013-.003-.023-.012-.027-.023-.039-.097-.07-.199-.091-.305-.016-.081-.025-.164-.029-.249-.043.057-.082.113-.118.175-.016.028-.057.023-.068-.006-.033-.09-.058-.183-.075-.28-.014-.077-.022-.157-.025-.237-.033.028-.065.057-.096.088-.024.024-.066.005-.064-.029.014-.231.076-.449.176-.644.09-.176.21-.334.355-.467h-.488c-.152,0-.276-.123-.276-.276s.124-.275.276-.275h5.438l.649-.657h-3.925c-.107,0-.194-.087-.194-.194s.087-.194.194-.194h4.309l.582-.59h-3.582c-.107,0-.194-.087-.194-.194s.087-.194.194-.194h3.965l.15-.151c.735-.761,1.625-1.377,2.621-1.797.958-.405,2.013-.629,3.122-.629s2.164.224,3.122.629c.995.42,1.885,1.036,2.621,1.797l.15.151h4.121l.906-.329c.008-.003.018-.003.025,0l1.343.488c.02.007.029.029.022.048-.004.011-.012.019-.022.023l-1.343.488c-.008.003-.017.003-.025,0l-.906-.329h-3.738l.583.59h1.846l.906-.329c.008-.003.018-.003.025,0l1.343.488c.019.007.029.029.022.048-.004.011-.012.019-.022.023l-1.343.488c-.008.003-.018.003-.025,0l-.906-.329h-1.462l.649.657h5.773c.076,0,.145.031.195.081.05.05.081.119.081.195s-.031.145-.081.195-.119.081-.195.081h-.543c.264.208.459.501.544.837.005.02-.007.041-.027.046-.011.003-.022,0-.03-.005-.036-.024-.071-.052-.104-.082.01.04.018.081.025.122.019.114.025.225.022.34,0,.032-.039.048-.062.027-.039-.034-.076-.069-.112-.105-.009.051-.014.104-.014.156,0,.114.021.226.065.332.014.034-.024.065-.055.046-.048-.025-.088-.054-.131-.085-.003.14-.024.279-.061.414-.008.03-.046.037-.065.014-.037-.044-.075-.085-.116-.126-.013.062-.039.12-.078.17Z" fill-rule="evenodd" />
        <path d="M26.645,9.21c0-.066-.053-.119-.118-.119h-.016c.025.033.04.074.04.119,0,.044-.015.086-.04.118h.016c.065,0,.118-.053.118-.118Z" fill="#fed700" fill-rule="evenodd" />
        <path d="M26.68,9.092c.025.033.04.074.04.119,0,.044-.015.086-.04.118h.181c.065,0,.118-.053.118-.118,0-.066-.053-.119-.118-.119h-.181Z" fill="#fed700" fill-rule="evenodd" />
        <path d="M26.341,9.092c.025.033.041.074.041.119,0,.044-.015.086-.041.118h.016c.066,0,.119-.053.119-.118,0-.066-.053-.119-.119-.119h-.016Z" fill="#fed700" fill-rule="evenodd" />
        <path d="M26.961,9.044c.056.034.093.096.093.166s-.037.132-.093.166l.776.282,1.233-.448-1.233-.448-.776.282Z" fill="#fff" fill-rule="evenodd" />
        <path d="M25.335,10.188c0-.065-.053-.118-.118-.118h-.016c.026.033.041.074.041.118,0,.045-.015.086-.041.119h.016c.065,0,.118-.053.118-.119Z" fill="#fed700" fill-rule="evenodd" />
        <path d="M25.37,10.07c.025.033.04.074.04.118,0,.045-.015.086-.04.119h.181c.065,0,.118-.053.118-.119,0-.065-.053-.118-.118-.118h-.181Z" fill="#fed700" fill-rule="evenodd" />
        <path d="M25.031,10.07c.025.033.041.074.041.118,0,.045-.015.086-.04.119h.016c.065,0,.118-.053.118-.119,0-.065-.053-.118-.118-.118h-.016Z" fill="#fed700" fill-rule="evenodd" />
        <path d="M25.651,10.022c.056.034.094.096.094.166s-.037.132-.093.166l.776.282,1.233-.448-1.233-.448-.776.282Z" fill="#fff" fill-rule="evenodd" />
        <path d="M23.738,10.07l.234.237h.906c.065,0,.118-.053.118-.119,0-.065-.053-.118-.118-.118h-1.141Z" fill="#fed700" fill-rule="evenodd" />
        <path d="M22.772,9.092l.234.237h3.181c.065,0,.118-.053.118-.118s-.053-.119-.118-.119h-3.416Z" fill="#fed700" fill-rule="evenodd" />
        <path d="M10.605,9.329l.234-.237h-3.891c-.066,0-.118.053-.118.119,0,.065.053.118.118.118h3.656Z" fill="#fed700" fill-rule="evenodd" />
        <path d="M9.639,10.307l.234-.237h-4.234c-.066,0-.118.053-.118.118,0,.066.053.119.118.119h4Z" fill="#fed700" fill-rule="evenodd" />
        <path d="M12.534,13.04h.393v-1.299h-.393v1.299h0ZM11.748,13.04h.393v-1.299h-.393v1.299h0ZM15.678,13.04h.393v-1.299h-.393v1.299h0ZM14.891,13.04h.393v-1.299h-.393v1.299h0ZM14.106,13.04h.393v-1.299h-.393v1.299h0ZM13.32,13.04h.393v-1.299h-.393v1.299Z" fill="#fff" fill-rule="evenodd" />
        <path d="M16.805,6.514c-.266.297-.543.648-.676,1.034-.023.062-.036.13-.036.2,0,.151.059.289.154.391.151.156.245.372.27.589.01.069.071.123.143.123h.1c.151,0,.279.106.313.247l.021.079c.028.105.137.191.241.191s.193.086.193.19v1.004c0,.251.162.465.387.544h0c.148.056.238.129.238.21,0,.072-.071.138-.189.191-.328.161-.558.492-.577.878,0,.287-.169.535-.413.649-.157.081-.248.179-.248.284,0,.18.27.339.678.431.3.071.489.173.489.287,0,.139-.284.261-.71.33-.406.065-.674.176-.674.302,0,.108.196.205.507.271.425.096.814.288,1.142.552.15.118.261.274.322.45.491-.105.964-.255,1.416-.446.986-.416,1.867-1.026,2.596-1.78l2.369-2.399-2.369-2.398c-.728-.754-1.61-1.364-2.596-1.78-.948-.401-1.994-.623-3.093-.623Z" fill="#fff" fill-rule="evenodd" />
        <path d="M5.556,11.316c.064-.029.134-.043.205-.043.14,0,.266.057.358.149.028.028.053.06.074.094h2.648l-.172-.174c-.014-.014-.014-.038,0-.052l.172-.174H3.477c-.111,0-.2.089-.2.2s.09.2.2.2h.575c.057-.043.126-.067.198-.067.048,0,.095.01.138.031-.004-.057-.028-.11-.067-.152-.014-.015-.014-.039.001-.053.01-.009.022-.012.034-.009.056.013.108.041.15.081.024.022.052.035.077.038.02.003.038-.001.05-.013.011-.011.015-.028.013-.048-.003-.024-.014-.05-.034-.074-.021-.026-.001-.064.031-.061.164.011.325.052.474.119.072.031.149.048.228.048.072,0,.143-.014.21-.04Z" fill="#fed700" fill-rule="evenodd" />
        <path d="M5.586,11.384c-.077.031-.158.047-.241.047-.089,0-.177-.019-.259-.054-.12-.055-.247-.09-.377-.106.006.015.009.031.011.045.004.042-.007.081-.035.109-.029.029-.07.04-.114.034-.039-.005-.081-.025-.117-.057l-.01-.009c.02.058.019.097.014.155-.003.028-.036.043-.06.026-.044-.033-.095-.05-.15-.05-.077,0-.12.027-.178.073-.162.136-.297.305-.395.495-.081.159-.135.333-.159.517.029-.025.059-.051.09-.074.025-.018.061-.001.06.03,0,.103.006.2.024.302.012.065.027.129.047.192.044-.069.094-.134.149-.196.007-.008.017-.013.029-.013.021,0,.037.017.037.038,0,.115.007.223.029.336.012.061.027.12.046.178.019-.061.039-.119.064-.177.01-.025.043-.031.062-.011.069.075.12.159.155.255.078.215.205.414.367.576.035-.053.075-.106.116-.154.013-.016.036-.018.052-.005.095.077.198.141.308.194.004-.098.065-.186.155-.224.071-.028.14-.065.202-.109.061-.043.117-.094.166-.151.018-.019.045-.025.062-.001.008.011.016.021.025.032,0-.09.024-.176.073-.252.066-.101.107-.215.12-.335.001-.011.007-.021.017-.028.017-.011.04-.006.052.011.009.015.02.029.031.044.028-.168.042-.336.042-.506,0-.149-.011-.296-.032-.443-.002-.013.004-.028.016-.036.017-.012.04-.008.052.009.018.026.037.052.058.077v-.389c0-.119-.048-.227-.126-.305-.078-.078-.186-.126-.305-.126-.06,0-.119.012-.174.036Z" fill="#0072fe" fill-rule="evenodd" />
        <path d="M15.722,9.59c.014.022.026.045.035.07.027.071.031.151.011.225-.008.033-.053.038-.069.008-.007-.013-.014-.025-.022-.037v1.034h.393v-1.299h-.348ZM11.748,9.59h.393v1.299h-.393v-1.299h0ZM12.534,9.59h.393v1.299h-.393v-1.299h0ZM13.713,9.802c-.074-.061-.139-.133-.193-.212h-.2v1.299h.393v-1.087h0ZM14.499,10.03c-.023.047-.043.093-.059.143-.008.024-.031.031-.053.022-.106-.057-.201-.133-.28-.222v.918h.393v-.86h0ZM15.284,10.508c-.142-.018-.275-.066-.393-.136v.518h.393v-.382Z" fill="#fff" fill-rule="evenodd" />
        <path d="M15.255,10.427c-.022-.153,0-.294.082-.428.065-.114.076-.252.03-.375-.01-.028.016-.057.046-.049.075.021.144.057.204.105.032.026.062.055.088.087-.002-.029-.008-.056-.018-.082-.012-.033-.031-.063-.054-.089-.033-.034-.06-.074-.078-.119-.026-.063-.033-.13-.023-.196.004-.031.042-.045.064-.022.035.037.075.069.118.096.025.016.051.029.078.041-.025-.137-.067-.268-.124-.391-.067-.146-.154-.28-.257-.4-.01-.012-.012-.029-.004-.044.01-.018.033-.024.051-.013.08.047.165.088.254.121.07.026.143.048.217.065-.064-.327-.237-.614-.48-.823-.297-.254-.678-.375-1.066-.341-.073.007-.138.004-.187-.01-.057-.015-.095-.044-.107-.086v-.003c-.24.158-.45.358-.621.587v.002c-.164.217-.291.463-.375.727.066-.052.135-.099.209-.14.011-.006.025-.006.037,0,.018.01.024.033.014.051-.04.07-.071.145-.092.225-.034.13-.039.253-.021.385.038-.056.081-.108.129-.155.005-.006.013-.01.021-.012.02-.003.04.01.043.031.022.13.071.251.14.357.061.094.139.176.229.243.023-.075.055-.146.095-.213.005-.008.012-.014.021-.017.02-.006.041.005.047.025.068.224.218.415.419.535.028-.075.065-.148.11-.215.016-.024.052-.021.065.005.132.279.392.479.696.531Z" fill="#0072fe" fill-rule="evenodd" />
        <path d="M28.144,11.516c.168-.156.355-.291.558-.401h-3.932l.172.174c.014.015.014.038,0,.052l-.172.174h3.374Z" fill="#fed700" fill-rule="evenodd" />
        <path d="M28.814,11.115c-.016.045-.035.111-.042.158.065-.008.131-.012.197-.012.315,0,.608.094.852.255h.648c.055,0,.106-.022.142-.058.036-.036.059-.087.059-.142s-.022-.105-.059-.142c-.036-.036-.086-.058-.142-.058h-1.654Z" fill="#fed700" fill-rule="evenodd" />
        <path d="M29.664,13.646c.045-.06.071-.13.072-.205,0-.032.038-.049.062-.028.046.042.088.084.13.13.031-.135.042-.265.041-.403-.003-.033.038-.054.063-.03.03.028.061.052.095.076-.024-.085-.036-.172-.036-.26,0-.082.01-.164.031-.243.008-.029.044-.038.064-.016.03.033.061.065.094.096-.001-.083-.009-.165-.022-.244-.015-.09-.037-.177-.066-.261-.005-.015,0-.032.012-.042.016-.013.04-.01.053.006.033.042.068.077.107.113-.093-.276-.266-.516-.492-.691-.249-.194-.563-.309-.903-.309-.077,0-.154.006-.23.018-.026.004-.05-.011-.048-.04.003-.04.01-.078.019-.118-.285.159-.538.369-.745.618-.198.238-.355.511-.46.808.073-.054.145-.105.222-.153.031-.019.069.013.054.047-.033.076-.049.156-.049.239,0,.098.023.193.069.28.051.1.094.204.128.312.028.091.049.186.063.282.116-.051.215-.14.279-.25.016-.028.059-.024.069.008.024.083.066.159.122.224h0c.104.128.219.246.342.356.112.099.23.191.354.274.084-.196.204-.374.354-.526.018-.022.054-.016.064.012.007.018.015.036.024.052.016-.051.033-.091.064-.135Z" fill="#0072fe" fill-rule="evenodd" />
        <path d="M13.652,9.423c.29-.282.416-.68.362-1.062-.001-.02-.009-.04-.022-.056-.035-.044-.099-.052-.144-.016-.028.022-.042.057-.038.092.028.354-.026.712-.159,1.042h0ZM14.292,9.939c.185-.296.208-.655.084-.963-.005-.016-.016-.031-.03-.043-.039-.03-.094-.023-.124.016-.019.024-.023.057-.013.085.097.291.125.601.082.905h0ZM15.198,10.361c-.315-.15-.528-.439-.59-.766-.005-.017-.004-.035.002-.052.016-.046.067-.07.113-.053.029.011.05.035.057.065.075.297.218.573.419.806h0ZM15.606,9.164c-.349.006-.668-.16-.869-.425-.011-.013-.019-.029-.021-.048-.006-.048.029-.092.077-.098.031-.003.06.009.08.033.199.232.45.417.733.537h0ZM15.57,8.442c-.396.086-.796-.029-1.085-.285-.016-.012-.028-.029-.035-.049-.017-.054.012-.111.066-.129.034-.011.071-.003.098.019.279.219.607.372.956.444Z" fill="red" fill-rule="evenodd" />
        <path d="M17.689,13.04h.393v-1.299h-.393v1.299h0ZM21.618,13.04h.393v-1.299h-.393v1.299h0ZM20.832,13.04h.393v-1.299h-.393v1.299h0ZM20.047,13.04h.393v-1.299h-.393v1.299h0ZM19.261,13.04h.393v-1.299h-.393v1.299h0ZM18.475,13.04h.393v-1.299h-.393v1.299Z" fill-rule="evenodd" />
        <path d="M17.689,9.59h.393v1.299h-.393v-1.299h0ZM21.618,9.59h.393v1.299h-.393v-1.299h0ZM20.832,9.59h.393v1.299h-.393v-1.299h0ZM20.047,9.59h.393v1.299h-.393v-1.299h0ZM19.261,9.59h.393v1.299h-.393v-1.299h0ZM18.475,9.59h.393v1.299h-.393v-1.299Z" fill-rule="evenodd" />
        <path d="M4.764,13.82c.209-.235.285-.551.222-.843-.002-.015-.009-.03-.02-.042-.03-.032-.08-.035-.112-.005-.02.019-.029.047-.024.074.041.273.019.553-.065.817h0ZM3.907,12.758c.331-.178.544-.501.593-.855.004-.018.002-.038-.005-.056-.02-.048-.076-.071-.124-.051-.031.013-.052.041-.057.073-.065.323-.204.628-.406.89h0ZM4.363,13.342c.117-.251.173-.526.166-.802-.001-.027.011-.054.033-.07.036-.026.085-.017.111.019.01.013.014.029.015.044.026.298-.088.602-.325.809h0ZM5.832,12.476c-.387-.039-.719-.262-.907-.581-.011-.016-.017-.035-.017-.056,0-.054.044-.098.098-.098.034,0,.066.018.084.046.19.283.445.519.742.688h0ZM5.672,13.181c-.299-.097-.524-.331-.618-.615-.006-.014-.008-.031-.004-.047.009-.043.052-.07.094-.061.027.006.049.025.058.051.103.256.263.487.47.672Z" fill="red" fill-rule="evenodd" />
        <path d="M28.499,12.502c-.095.254-.279.475-.531.611.156-.202.274-.429.35-.67.011-.042.048-.073.093-.073.053,0,.096.043.096.096,0,.013-.003.025-.007.037h0ZM28.704,12.991c.04.202.01.418-.099.606.02-.192.006-.386-.042-.572-.01-.031.002-.066.031-.084.034-.021.079-.011.1.024.005.008.008.017.01.026h0ZM29.14,13.198c.072.262.053.548-.071.807.008-.255-.03-.508-.11-.748-.016-.04-.004-.087.032-.114.043-.031.103-.022.134.021.007.011.013.022.016.034h0ZM29.127,12.802c.086.187.237.344.436.433-.129-.144-.231-.309-.302-.488-.01-.031-.04-.052-.074-.05-.04.003-.07.038-.067.078,0,.01.003.019.008.027h0ZM29.072,12.275c.148.143.346.234.563.244-.173-.087-.328-.204-.459-.344-.021-.025-.057-.034-.088-.019-.036.017-.051.061-.034.097.004.009.01.016.017.023Z" fill="red" fill-rule="evenodd" />
      </g>
    </g>
  </g>
</g></svg>