<?xml version="1.0" encoding="UTF-8"?>
<svg id="Layer_2" data-name="Layer 2" xmlns="http://www.w3.org/2000/svg" viewBox="0 0 33.945 22.631">
  <g id="_Ñëîé_1" data-name="Ñëîé 1">
    <g>
      <g>
        <rect width="33.945" height="7.543" fill="#007c29"/>
        <rect y="15.087" width="33.945" height="7.544" fill="red"/>
        <rect y="7.543" width="33.945" height="7.543" fill="#fed700"/>
      </g>
      <g>
        <path d="M16.973,3.883c4.105,0,7.432,3.328,7.432,7.433s-3.328,7.433-7.432,7.433-7.433-3.328-7.433-7.433,3.328-7.433,7.433-7.433Z" fill="#039" fill-rule="evenodd"/>
        <g>
          <path d="M11.192,9.416h4.416l.994-3.058.278.856-1.434,4.413-.45-.327.44-1.355h-3.514l-.73-.529h0ZM16.973,5.216l-.278.856,1.086,3.344h-1.431l-.172.529h4.642l.73-.529h-3.213l-1.365-4.201h0ZM18.011,10.123h.556l.44,1.355,2.844-2.062h.902l-3.575,2.591.994,3.06-.729-.532-1.434-4.413h0ZM20.267,15.354l-2.843-2.074,1.155-.837-.172-.529-3.755,2.731-.279.859,2.6-1.896,3.573,2.606-.279-.859h0ZM14.129,15.68l1.088-3.347,1.155.837.45-.328-3.754-2.72h-.902l2.6,1.884-1.366,4.206.729-.532Z" fill="#fed700" fill-rule="evenodd"/>
          <rect x="16.882" y="14.082" width=".177" height="3.266" fill="#fed700"/>
          <rect x="17.95" y="7.626" width="3.266" height=".177" transform="translate(1.81 18.989) rotate(-53.891)" fill="#fed700"/>
          <rect x="11.128" y="12.571" width="3.266" height=".177" transform="translate(-3.303 4.594) rotate(-18.109)" fill="#fed700"/>
          <rect x="21.096" y="11.026" width=".177" height="3.266" transform="translate(2.568 28.859) rotate(-71.89)" fill="#fed700"/>
          <rect x="14.275" y="6.082" width=".177" height="3.266" transform="translate(-1.787 9.948) rotate(-36.114)" fill="#fed700"/>
        </g>
      </g>
    </g>
  </g>
</svg>