<?xml version="1.0" encoding="UTF-8"?>
<svg id="Layer_2" data-name="Layer 2" xmlns="http://www.w3.org/2000/svg" viewBox="0 0 33.878 22.631">
  <g id="_Ñëîé_1" data-name="Ñëîé 1">
    <g>
      <rect width="33.878" height="22.631" fill="#039"/>
      <g>
        <polygon points="16.939 2.53 17.218 3.394 18.125 3.392 17.39 3.924 17.672 4.787 16.939 4.252 16.205 4.787 16.488 3.924 15.752 3.392 16.66 3.394 16.939 2.53" fill="#fed700" fill-rule="evenodd"/>
        <polygon points="16.939 17.608 17.218 18.472 18.125 18.471 17.39 19.003 17.672 19.866 16.939 19.331 16.205 19.866 16.488 19.003 15.752 18.471 16.66 18.472 16.939 17.608" fill="#fed700" fill-rule="evenodd"/>
        <g>
          <polygon points="20.712 16.601 20.99 17.465 21.898 17.463 21.163 17.995 21.445 18.858 20.712 18.323 19.978 18.858 20.261 17.995 19.525 17.463 20.433 17.465 20.712 16.601" fill="#fed700" fill-rule="evenodd"/>
          <polygon points="13.166 16.601 13.445 17.465 14.353 17.463 13.617 17.995 13.899 18.858 13.166 18.323 12.432 18.858 12.715 17.995 11.979 17.463 12.887 17.465 13.166 16.601" fill="#fed700" fill-rule="evenodd"/>
        </g>
        <g>
          <polygon points="20.712 3.537 20.99 4.401 21.898 4.399 21.163 4.931 21.445 5.794 20.712 5.259 19.978 5.794 20.261 4.931 19.525 4.399 20.433 4.401 20.712 3.537" fill="#fed700" fill-rule="evenodd"/>
          <polygon points="13.166 3.537 13.445 4.401 14.353 4.399 13.617 4.931 13.899 5.794 13.166 5.259 12.432 5.794 12.715 4.931 11.979 4.399 12.887 4.401 13.166 3.537" fill="#fed700" fill-rule="evenodd"/>
        </g>
        <g>
          <polygon points="23.467 6.297 23.745 7.161 24.653 7.159 23.918 7.691 24.2 8.554 23.467 8.019 22.733 8.554 23.016 7.691 22.28 7.159 23.188 7.161 23.467 6.297" fill="#fed700" fill-rule="evenodd"/>
          <polygon points="10.411 6.297 10.69 7.161 11.598 7.159 10.862 7.691 11.144 8.554 10.411 8.019 9.678 8.554 9.96 7.691 9.224 7.159 10.132 7.161 10.411 6.297" fill="#fed700" fill-rule="evenodd"/>
        </g>
        <g>
          <polygon points="23.467 13.841 23.745 14.705 24.653 14.703 23.918 15.235 24.2 16.098 23.467 15.563 22.733 16.098 23.016 15.235 22.28 14.703 23.188 14.705 23.467 13.841" fill="#fed700" fill-rule="evenodd"/>
          <polygon points="10.411 13.841 10.69 14.705 11.598 14.703 10.862 15.235 11.144 16.098 10.411 15.563 9.678 16.098 9.96 15.235 9.224 14.703 10.132 14.705 10.411 13.841" fill="#fed700" fill-rule="evenodd"/>
        </g>
        <g>
          <polygon points="24.478 10.061 24.756 10.925 25.664 10.923 24.929 11.455 25.211 12.318 24.478 11.783 23.744 12.318 24.027 11.455 23.291 10.923 24.199 10.925 24.478 10.061" fill="#fed700" fill-rule="evenodd"/>
          <polygon points="9.4 10.061 9.678 10.925 10.586 10.923 9.851 11.455 10.133 12.318 9.4 11.783 8.666 12.318 8.949 11.455 8.213 10.923 9.121 10.925 9.4 10.061" fill="#fed700" fill-rule="evenodd"/>
        </g>
      </g>
    </g>
  </g>
</svg>