<svg xmlns="http://www.w3.org/2000/svg" id="Layer_2" data-name="Layer 2" viewBox="0 0 33.945 22.631">
  <defs><clipPath id="circleClip"><circle cx="16.9725" cy="11.3155" r="11.3155" /></clipPath></defs><g clip-path="url(#circleClip)"><g id="_&#209;&#235;&#238;&#233;_1" data-name="&#209;&#235;&#238;&#233; 1">
    <g>
      <g>
        <rect width="33.945" height="22.631" fill="#fff" />
        <polygon points="16.939 0 33.945 0 33.945 22.631 0 22.631 0 11.315 16.939 11.315 16.939 0" fill="#00adfe" fill-rule="evenodd" />
        <g>
          <polygon points="0 3.84 0 1.358 3.552 3.84 0 3.84" fill="#039" fill-rule="evenodd" />
          <polygon points="0 9.987 0 7.504 3.552 7.504 0 9.987" fill="#039" fill-rule="evenodd" />
          <polygon points="6.715 11.315 1.943 11.315 6.715 7.979 6.715 11.315" fill="#039" fill-rule="evenodd" />
          <polygon points="15.038 11.315 10.223 11.315 10.223 7.95 15.038 11.315" fill="#039" fill-rule="evenodd" />
          <polygon points="16.939 7.475 16.939 9.957 13.387 7.475 16.939 7.475" fill="#039" fill-rule="evenodd" />
          <polygon points="16.939 1.329 16.939 3.811 13.387 3.811 16.939 1.329" fill="#039" fill-rule="evenodd" />
          <polygon points="14.996 0 10.223 3.336 10.223 0 14.996 0" fill="#039" fill-rule="evenodd" />
          <polygon points="6.715 0 6.715 3.365 1.9 0 6.715 0" fill="#039" fill-rule="evenodd" />
          <rect y="4.561" width="16.939" height="2.223" fill="red" />
          <rect x="7.405" width="2.129" height="11.315" fill="red" />
          <polygon points="1.263 11.315 6.715 7.504 5.452 7.504 0 11.315 1.263 11.315" fill="red" fill-rule="evenodd" />
          <polygon points="4.232 3.84 0 .883 0 0 5.495 3.84 4.232 3.84" fill="red" fill-rule="evenodd" />
          <polygon points="15.676 0 10.223 3.811 11.486 3.811 16.939 0 15.676 0" fill="red" fill-rule="evenodd" />
          <polygon points="12.707 7.475 16.939 10.432 16.939 11.315 11.444 7.475 12.707 7.475" fill="red" fill-rule="evenodd" />
        </g>
      </g>
      <g>
        <path d="M21.12,5.672v7.472c0,.807.424,1.551,1.117,1.964l3.205,1.85,3.205-1.85c.693-.413,1.117-1.157,1.117-1.964v-7.472h-8.644Z" fill-rule="evenodd" />
        <path d="M21.224,5.78v7.364c0,.796.427,1.492,1.065,1.872l3.15,1.818,3.149-1.818c.638-.38,1.065-1.076,1.065-1.872v-7.364h-8.429Z" fill="#fff" fill-rule="evenodd" />
        <polygon points="21.225 5.78 21.225 8.583 24.852 8.583 24.852 11.478 21.225 11.478 21.225 12.651 24.852 12.651 24.852 16.495 25.439 16.834 26.025 16.495 26.025 12.651 29.653 12.651 29.653 11.478 26.025 11.478 26.025 8.583 29.653 8.583 29.653 5.78 21.225 5.78" fill="red" fill-rule="evenodd" />
        <path d="M29.022,13.11c-.003.031-.017.065-.041.097-.024.032-.053.056-.081.068-.024.01-.048.012-.068.005l-.246-.097c-.05-.02-.127.004-.158.047l-.048.065h.003c.042.025.067.074.072.137.008.001.016.004.024.007.048.02.075.074.08.146.044.02.071.072.079.14.008.069-.003.155-.035.243-.018.05-.042.096-.068.134-.024.036-.051.066-.078.089.021.026.026.072.018.128-.01.066-.04.149-.088.231-.041.072-.089.133-.135.175-.043.04-.085.064-.12.067,0,.029-.01.064-.031.101-.033.059-.089.126-.162.186-.071.059-.144.103-.206.125-.058.021-.107.023-.138.005-.001.002-.003.004-.004.006-.028.038-.073.075-.129.104-.056.028-.114.042-.16.042-.039,0-.088-.012-.106-.051h-.002c-.06.014-.113.006-.141-.028-.006-.008-.012-.016-.015-.026-.044.006-.081-.002-.107-.027-.012-.012-.02-.026-.025-.041-.01.002-.02.003-.029.003l-.052.07c.029.039.044.085.045.132.001.079-.038.153-.104.196-.071.051-.145.099-.22.144-.075.045-.153.087-.232.124-.005.003-.012,0-.015-.005,0-.002-.001-.004,0-.006.013-.086.03-.173.051-.258.021-.085.045-.169.074-.252.021-.076.081-.136.157-.157.045-.013.094-.012.139.004l.052-.07c-.003-.009-.004-.019-.005-.03-.017,0-.033-.004-.048-.012-.031-.017-.05-.051-.056-.094-.01,0-.02-.003-.029-.007-.04-.018-.065-.065-.069-.126v-.003c-.044-.007-.068-.047-.08-.086-.014-.044-.017-.103-.006-.165.011-.062.034-.117.062-.155.001-.002.003-.004.004-.005-.027-.024-.038-.072-.035-.133.003-.066.023-.149.059-.234.037-.088.085-.161.131-.209.03-.031.06-.052.088-.06-.007-.034.004-.081.029-.133.027-.056.071-.12.128-.181.065-.069.135-.122.196-.151.051-.025.096-.033.127-.02.014-.033.035-.067.062-.101.029-.036.066-.072.109-.104.075-.056.154-.092.223-.104.067-.012.125-.001.157.035.07-.015.13-.005.163.034.006.006.01.013.014.021.062-.013.116-.005.151.029l.002.003.048-.065c.054-.073.136-.126.225-.153.089-.027.185-.027.266.005l.298.118c.033.013.042.051.039.083Z" fill-rule="evenodd" />
        <path d="M23.864,9.946c.006-.149.061-.374.167-.538.08-.122.188-.211.326-.211.182,0,.33.148.33.33,0,.038-.007.075-.019.109-.012.035-.031.068-.054.097-.004.005-.011.006-.016.002-.004-.003-.005-.008-.003-.013.013-.028.019-.059.019-.09,0-.059-.024-.113-.063-.152-.039-.039-.093-.063-.152-.063-.047,0-.091.015-.127.041-.04.029-.068.069-.081.116-.032.11-.046.224-.046.296.077.004.15.028.213.065.119.071.215.204.215.347,0,.068-.02.135-.059.191-.002.003-.005.005-.008.006-.006,0-.012-.003-.012-.009-.017-.107-.071-.202-.15-.269-.078-.067-.178-.107-.289-.107-.027,0-.055.003-.082.008-.029.041-.048.09-.054.142.041.005.08.019.112.042.081.008.153.047.205.104.052.057.084.133.084.217,0,.073-.025.144-.071.202-.004.005-.011.005-.016.002-.004-.003-.005-.008-.003-.012.016-.059.007-.123-.026-.175-.02-.031-.047-.057-.079-.075-.013.045-.039.087-.076.118-.005.004-.012.003-.016-.001-.003-.003-.003-.008-.002-.012.008-.019.013-.039.013-.06,0-.078-.064-.142-.143-.142-.056,0-.099.033-.13.078-.042.061-.062.146-.062.21,0,.009,0,.018,0,.027,0,.026-.002.053-.006.08-.004.027-.009.054-.016.081l-.007.026c.005.025.01.051.013.077.003.027.004.054.004.081,0,.028-.001.055-.005.082-.003.029-.026.042-.052.051-.028.01-.066.017-.108.017s-.08-.007-.109-.017c-.026-.01-.049-.022-.052-.052-.003-.027-.004-.054-.004-.081,0-.032.002-.063.006-.094.004-.031.01-.062.018-.091.004-.025.009-.049.015-.073.007-.027.016-.053.026-.079.01-.025.022-.05.036-.073.028-.091.096-.224.184-.323-.012-.138.037-.273.135-.37.022-.022.046-.042.072-.059Z" fill-rule="evenodd" />
        <path d="M27.501,11.379c-.008,0-.014-.009-.01-.016.025-.053.064-.098.113-.13.082-.055.132-.148.132-.247v-.686c-.012.005-.025.007-.038.007-.053,0-.096-.038-.106-.088-.012.026-.022.054-.031.081-.003.009-.016.01-.02.002-.007-.015-.013-.03-.018-.046-.005-.02-.008-.039-.008-.058-.008.02-.015.041-.021.062-.014.05-.024.103-.029.156,0,.006-.006.011-.012.01-.003,0-.007-.002-.008-.005-.01-.013-.02-.028-.027-.043-.008-.015-.014-.031-.018-.048-.002-.009-.004-.018-.006-.026-.003.014-.005.028-.007.043-.008.053-.01.108-.007.163,0,.006-.004.011-.01.012-.004,0-.007-.002-.01-.005-.012-.016-.022-.033-.031-.051-.007-.015-.013-.03-.018-.047v.009c0,.051.006.103.018.155.001.006-.003.012-.008.013-.004,0-.007,0-.01-.003-.021-.018-.039-.039-.053-.064-.012-.02-.022-.041-.03-.065-.001.023,0,.047,0,.07.002.052.01.105.023.159.001.006-.002.012-.008.013-.004.001-.008,0-.011-.004-.021-.023-.039-.049-.054-.077-.009-.016-.017-.034-.023-.052,0,.021,0,.042.002.063.003.044.01.088.022.131.001.006-.002.012-.008.013-.004,0-.008,0-.011-.003-.027-.027-.05-.057-.069-.09-.009.039-.016.078-.02.118-.005.048-.006.097-.003.146,0,.006-.004.011-.01.012-.005,0-.009-.003-.011-.007-.018-.039-.032-.08-.043-.121-.057-.212-.022-.427.079-.603.102-.176.271-.314.482-.37.029-.008.058-.014.088-.018-.025-.003-.05-.005-.075-.005-.053,0-.105.007-.156.021-.007.002-.014-.004-.014-.011,0-.023.006-.043.015-.064-.047.032-.09.068-.13.109-.004.004-.011.004-.016,0-.002-.002-.003-.005-.003-.008,0-.032.005-.059.017-.089-.017.016-.033.032-.049.049-.03.033-.058.069-.082.107-.003.005-.01.007-.015.003-.002-.002-.004-.004-.005-.007-.007-.035-.006-.072.002-.107-.013.018-.025.036-.036.055-.028.045-.051.093-.068.143-.002.006-.008.009-.014.006-.003,0-.005-.003-.006-.006-.014-.032-.021-.066-.021-.1,0-.009,0-.018.001-.027-.006.013-.012.026-.018.039-.021.05-.038.102-.049.156-.001.006-.007.01-.013.009-.004,0-.007-.003-.008-.007-.014-.034-.021-.07-.022-.107l-.002.009c-.012.05-.02.101-.023.154,0,.006-.005.011-.012.011-.004,0-.007-.002-.008-.005-.029-.043-.045-.093-.047-.145-.007.022-.013.045-.018.068-.011.051-.018.105-.018.159,0,.006-.005.011-.011.011-.004,0-.008-.003-.01-.006-.014-.028-.025-.058-.032-.089-.005-.018-.007-.037-.009-.056-.006.02-.01.041-.014.061-.008.043-.012.087-.013.132,0,.006-.005.011-.011.011-.004,0-.008-.002-.01-.006-.019-.033-.033-.068-.043-.105-.019.035-.036.071-.05.108-.017.045-.031.092-.041.141,0,.006-.007.01-.013.009-.005,0-.008-.005-.009-.01-.006-.042-.01-.085-.01-.128,0-.219.089-.418.233-.562s.343-.233.562-.233c.097,0,.19.017.276.049.066.024.128.057.185.098-.015-.02-.032-.039-.05-.057-.053-.053-.118-.095-.187-.123-.025-.01-.049-.018-.075-.025-.007-.002-.01-.011-.006-.017.012-.02.027-.034.045-.048-.02.001-.04.003-.06.006-.036.005-.072.013-.107.023-.006.002-.012-.002-.014-.008,0-.003,0-.006.001-.008.016-.028.034-.049.059-.069-.022.005-.045.011-.067.018-.043.014-.085.031-.125.052-.005.003-.012,0-.015-.005-.001-.003-.002-.006,0-.008.011-.034.03-.066.055-.092-.02.009-.039.019-.058.029-.046.025-.09.056-.131.09-.005.004-.012.003-.016-.001-.002-.003-.003-.005-.003-.008.004-.035.015-.067.032-.098.004-.008.009-.015.014-.022-.012.008-.024.016-.035.025-.043.032-.084.069-.121.111-.004.005-.011.005-.016,0-.003-.003-.004-.006-.003-.01.005-.036.017-.072.034-.104l-.007.007c-.036.037-.068.077-.097.122-.003.005-.01.007-.015.003-.003-.002-.005-.005-.005-.008-.002-.027,0-.055.007-.083.005-.023.014-.045.025-.067-.017.015-.034.032-.05.05-.035.039-.068.082-.096.128-.003.005-.01.007-.015.004-.004-.002-.005-.006-.005-.01.002-.031.007-.063.017-.093.005-.018.012-.036.02-.053-.015.015-.029.03-.043.047-.028.033-.054.069-.078.108-.003.005-.01.007-.015.004-.004-.002-.005-.006-.005-.01,0-.038.005-.076.015-.112-.034.02-.066.043-.097.069-.037.031-.073.065-.105.102-.004.005-.011.005-.016.001-.004-.003-.005-.008-.003-.012.015-.04.034-.079.055-.116.11-.19.286-.318.483-.37.196-.053.413-.03.603.079.069.04.131.089.182.145.039.041.072.085.101.133-.008-.038-.019-.075-.033-.11-.021-.057-.049-.11-.083-.16-.003-.005-.002-.012.003-.015.004-.003.009-.003.013,0,.033.022.064.048.091.076.019.02.036.043.051.066.001-.028.002-.056.002-.084,0-.082-.005-.162-.016-.24-.011-.08-.027-.159-.048-.235-.001-.006.002-.012.008-.014.005-.001.01,0,.012.005.03.051.056.105.078.161.017.043.032.087.044.133.011-.032.023-.063.036-.093.019-.042.04-.084.063-.124.003-.005.01-.007.015-.004.005.003.007.008.005.013-.025.081-.045.165-.058.251-.011.071-.018.144-.02.218.014-.021.03-.04.047-.058.026-.028.056-.053.088-.074.005-.003.012-.002.015.003.002.004.002.008,0,.012-.033.049-.062.103-.083.16-.014.035-.024.072-.033.11.029-.047.062-.092.101-.133.052-.055.113-.105.183-.145.19-.109.406-.132.603-.079.196.052.373.18.483.37.021.037.04.076.055.116.002.004,0,.009-.003.012-.004.004-.012.003-.015-.001-.033-.037-.068-.071-.105-.102-.031-.025-.064-.048-.097-.069.01.037.014.075.015.112,0,.004-.002.008-.005.01-.005.003-.012.001-.015-.004-.023-.039-.049-.075-.078-.108-.014-.016-.028-.032-.043-.047.008.018.015.035.02.053.009.031.015.062.017.093,0,.004-.002.008-.005.01-.005.003-.012.002-.015-.004-.028-.047-.06-.09-.096-.128-.016-.018-.032-.034-.05-.05.011.021.02.044.025.067.006.028.008.055.007.083,0,.003-.002.007-.005.008-.005.003-.012.002-.015-.003-.029-.044-.061-.085-.097-.122l-.007-.007c.017.032.029.068.035.104,0,.004,0,.007-.004.01-.004.004-.012.004-.016,0-.036-.041-.077-.078-.12-.111-.012-.008-.024-.017-.035-.025.005.007.01.014.014.022.017.03.028.063.032.098,0,.003,0,.006-.002.008-.004.005-.011.005-.015.001-.041-.035-.085-.065-.131-.09-.019-.01-.038-.02-.058-.029.025.026.044.058.056.092,0,.003,0,.006,0,.008-.002.005-.009.007-.015.005-.04-.021-.082-.038-.125-.052-.022-.007-.044-.013-.067-.018.025.02.043.04.059.069.002.002.002.006.001.008-.001.006-.008.009-.014.008-.035-.01-.071-.018-.107-.023-.02-.003-.04-.005-.06-.006.019.014.033.028.045.048.004.006,0,.015-.007.017-.025.006-.05.014-.074.025-.069.028-.134.071-.187.123-.018.018-.035.037-.05.057.057-.04.119-.073.185-.098.086-.032.179-.049.275-.049.22,0,.418.089.562.233s.233.342.233.562c0,.043-.003.085-.01.128,0,.005-.004.009-.009.01-.006.001-.012-.003-.013-.009-.01-.048-.023-.095-.04-.141-.014-.037-.031-.073-.05-.108-.01.037-.024.072-.043.105-.002.004-.005.006-.01.006-.006,0-.011-.005-.011-.011,0-.045-.005-.089-.013-.132-.004-.021-.008-.041-.014-.061-.002.019-.004.038-.009.056-.007.031-.018.061-.032.089-.002.004-.005.006-.01.006-.006,0-.011-.005-.011-.011,0-.054-.007-.108-.018-.159-.005-.023-.011-.046-.018-.068-.002.052-.018.102-.047.145-.002.003-.005.005-.008.005-.006,0-.011-.004-.012-.011-.003-.053-.011-.104-.023-.154l-.003-.009c-.001.037-.008.073-.022.107-.001.003-.004.006-.008.007-.006.001-.012-.003-.013-.009-.011-.054-.027-.106-.049-.156-.006-.013-.012-.026-.018-.039,0,.009.001.018.001.027,0,.035-.007.069-.021.1-.001.003-.003.005-.006.006-.006.002-.012,0-.014-.006-.018-.05-.041-.098-.068-.143-.011-.019-.023-.037-.036-.055.009.035.01.072.002.107,0,.003-.002.005-.005.007-.005.003-.012.002-.015-.003-.024-.038-.052-.074-.082-.107-.016-.017-.032-.033-.049-.049.011.03.017.057.017.089,0,.003,0,.006-.003.008-.004.004-.011.004-.016,0-.04-.041-.083-.077-.13-.109.009.022.014.041.015.064,0,.007-.007.013-.014.011-.051-.014-.103-.021-.156-.021-.025,0-.05.002-.074.005.03.005.059.011.088.018.212.057.381.194.482.37.102.176.136.391.079.603-.011.041-.025.082-.043.121-.002.004-.006.007-.011.007-.006,0-.011-.006-.01-.012.003-.049.002-.098-.002-.146-.004-.04-.011-.079-.02-.118-.019.033-.042.063-.069.09-.003.003-.007.004-.011.003-.006-.001-.01-.008-.008-.013.011-.044.018-.088.021-.131.002-.021.002-.042.002-.063-.006.018-.014.035-.023.052-.015.028-.033.054-.054.077-.002.003-.007.005-.011.004-.006-.001-.01-.007-.008-.013.014-.053.021-.106.024-.159.001-.024.001-.047,0-.07-.007.023-.017.045-.029.065-.015.024-.033.045-.054.064-.003.002-.006.003-.01.003-.006-.001-.01-.007-.008-.013.011-.052.017-.104.017-.155v-.009c-.005.016-.011.032-.018.047-.009.018-.019.035-.031.051-.002.003-.006.005-.01.005-.006,0-.011-.006-.01-.012.003-.055.001-.11-.007-.163-.002-.014-.004-.029-.007-.043-.001.008-.003.017-.006.026-.004.017-.011.033-.018.048-.008.015-.017.03-.028.043-.002.003-.005.005-.008.005-.006,0-.011-.004-.012-.01-.004-.053-.014-.105-.029-.156-.006-.021-.013-.042-.021-.062,0,.019-.003.039-.008.058-.004.016-.01.031-.018.046-.004.008-.017.008-.02-.002-.009-.028-.019-.055-.031-.081-.009.05-.053.088-.106.088-.013,0-.026-.003-.038-.007v.686c0,.1.049.192.132.247.049.032.088.077.113.13.004.007-.001.016-.01.016h-.683Z" fill-rule="evenodd" />
        <g>
          <path d="M21.555,7.273c-.001-.008-.002-.015-.002-.023,0-.035.014-.068.039-.097.024-.028.058-.053.1-.073-.006-.022-.006-.044-.002-.066-.014-.027-.017-.057-.01-.084.007-.028.025-.054.053-.07.2-.108.401-.232.598-.346.022-.013.046-.019.072-.019.025,0,.05.006.071.019l.421.243c.048.028.103.043.159.044-.016-.017-.032-.035-.046-.053-.002-.003-.003-.006-.003-.009.001-.006.007-.01.013-.009.073.014.148.004.214-.026.064-.029.12-.078.158-.143.01-.058.03-.113.06-.164l.043-.075.04-.068.1-.375c.001-.006.007-.009.013-.008.003,0,.006.003.007.006l.139.24c.004.006,0,.014-.007.016-.024.006-.044.021-.056.042-.025.042-.01.097.033.122.043.024.097.01.122-.033.025-.043.01-.098-.033-.122-.005-.003-.007-.01-.004-.015.002-.003.004-.004.007-.005l.239-.064c.006-.002.012.002.014.008l.064.239c.002.01-.008.018-.017.012-.043-.024-.097-.009-.122.033-.025.042-.01.097.032.122.043.024.098.012.123-.032.012-.022.016-.046.009-.07-.002-.008.004-.015.011-.014h.278c.006,0,.011.005.011.011,0,.003-.001.006-.003.008l-.274.274-.035.061c.044.047.069.108.069.173v.087c0,.036.015.069.038.092.024.024.056.039.092.039h.249c.056,0,.108.031.135.081l.003.005h.195c.128,0,.25-.018.373-.051l1.518-.406c.135-.036.275-.054.415-.054.095,0,.188.008.278.024.092.016.181.04.267.071.099.028.222.013.303-.054.046-.039.076-.094.076-.164,0-.097-.065-.183-.158-.209-.107-.031-.217-.047-.328-.047-.251,0-.494.079-.696.228-.171.126-.377.192-.589.192-.205,0-.403-.062-.571-.18-.047-.033-.098-.061-.153-.08-.004.021-.005.041-.005.062,0,.039.006.078.019.115.002.007-.002.013-.009.014-.022.004-.044.006-.067.006-.063,0-.123-.015-.175-.042-.051-.027-.095-.065-.13-.111-.049.032-.09.075-.118.126-.033.058-.048.122-.045.189,0,.006-.005.011-.011.011-.003,0-.005,0-.007-.002-.047-.034-.086-.078-.114-.129-.024-.045-.04-.096-.044-.15-.033.012-.067.018-.102.018-.046,0-.091-.011-.13-.03-.041-.02-.076-.049-.104-.084-.004-.005-.003-.012.002-.016.003-.002.005-.003.008-.002.035.004.07,0,.104-.008.019-.005.038-.013.055-.022-.028-.026-.051-.057-.067-.092-.017-.038-.028-.081-.028-.125,0-.052.014-.103.04-.149.002-.004.005-.006.009-.007.006,0,.012.003.012.009.011.075.049.142.104.19.054.047.125.076.202.076.042,0,.082-.008.12-.024.098-.044.203-.066.31-.066.161,0,.317.051.448.146h0c.131.092.286.141.446.141.166,0,.327-.052.461-.15.118-.086.249-.155.391-.201.137-.045.282-.069.434-.069.19,0,.378.039.553.114.055-.052.094-.118.114-.191.001-.006.008-.009.013-.008.002,0,.004.002.006.003.039.04.071.087.093.14.021.051.033.107.033.165,0,.028-.003.057-.008.085.035-.011.065-.032.087-.06.03-.037.043-.081.04-.127,0-.006.004-.011.01-.012.003,0,.006,0,.008.003.024.019.043.043.056.071.02.043.025.092.014.137.039.011.075.031.104.06.045.046.069.106.069.166,0,.06-.023.12-.069.166-.046.045-.106.07-.17.069-.006,0-.011-.005-.011-.011,0-.003.001-.006.003-.008l.043-.043c.043-.043.043-.113,0-.155-.043-.043-.113-.043-.155,0l-.232.232c-.088.09-.207.14-.332.14h-.017c.018.009.036.02.053.032.045.032.084.073.115.119.018.024.046.039.076.039s.057-.014.075-.038c.004-.005.01-.006.016-.002.015.011.024.06.024.078,0,.025-.007.05-.019.071.05.026.106.04.162.04.08,0,.157-.027.219-.077.057-.047.128-.073.203-.073.097,0,.175.037.229.096.058.063.09.152.09.249,0,.124.077.236.194.279.005.002.007.006.007.011,0,.039-.018.077-.048.102.021,0,.042-.004.061-.01.021-.007.042-.018.059-.031.005-.004.012-.003.016.002.002.003.002.005.002.008-.006.065-.034.123-.075.168-.04.044-.094.075-.155.088-.01.046-.036.086-.071.115-.036.03-.083.048-.133.048h-.3c-.021,0-.041.006-.058.015-.018.01-.033.025-.043.042-.004.007-.015.007-.019,0-.013-.021-.02-.047-.02-.072,0-.01.001-.021.004-.031-.036.005-.068.025-.087.057-.004.007-.015.007-.019,0-.013-.022-.02-.046-.02-.072,0-.011.001-.021.003-.031-.016.002-.03.007-.043.014-.018.01-.033.025-.043.042-.003.005-.01.007-.015.004-.002-.001-.003-.003-.004-.005-.013-.022-.019-.046-.019-.071,0-.036.014-.069.036-.094,0-.031.013-.058.033-.078.021-.021.049-.034.081-.034h.384c.047,0,.084-.038.084-.084,0-.022-.009-.044-.025-.06l-.093-.093c-.031-.032-.051-.052-.051-.126,0-.013.002-.028.007-.042l-.123.123c-.065.066-.154.102-.246.102-.084,0-.162-.03-.222-.08-.048-.04-.085-.092-.106-.152-.001.013-.002.026-.002.039,0,.064.014.128.041.186.002.005,0,.012-.006.015-.003.001-.006.001-.009,0-.117-.045-.22-.119-.3-.213-.071-.083-.125-.181-.155-.29-.005.024-.008.048-.008.072,0,.041.008.079.022.115.014.037.036.07.062.099.004.004.004.011,0,.016-.002.002-.005.003-.008.003-.068-.002-.131-.024-.183-.061-.043-.03-.078-.069-.103-.116-.008.047-.024.091-.048.131-.03.052-.072.097-.122.13-.005.003-.012.002-.015-.003-.002-.003-.002-.006-.001-.008.005-.024-.002-.047-.019-.064-.013-.013-.03-.02-.05-.02-.039,0-.07.031-.07.07,0,.026.014.049.036.062l.145.083c.04.023.065.066.065.113,0,.041-.019.079-.051.104h0c-.037.028-.076.054-.116.077-.032.019-.065.037-.099.053.041.012.083.019.125.022.006,0,.011.006.01.012,0,.004-.002.007-.005.009-.107.061-.222.109-.344.141-.118.031-.242.048-.369.048h-.447c-.022,0-.041.006-.059.015-.018.01-.033.025-.043.042-.003.005-.01.007-.015.004-.002-.001-.003-.003-.004-.005-.012-.022-.019-.046-.019-.071,0-.011.001-.021.003-.031-.016.002-.03.007-.043.015-.018.01-.033.025-.043.042-.003.005-.01.007-.015.004-.001-.001-.003-.002-.004-.004-.013-.022-.02-.046-.02-.071,0-.011.001-.021.004-.031-.016.002-.03.007-.043.015-.018.01-.033.025-.043.042-.003.005-.01.007-.015.004-.002-.001-.003-.002-.004-.004-.013-.022-.02-.046-.02-.071,0-.036.014-.069.036-.094,0-.04.022-.076.057-.097l.184-.106c.022-.013.046-.02.072-.02.025,0,.05.007.071.02l.247.143c.018.011.039.016.06.016h.215c.066,0,.125-.027.168-.07.043-.043.07-.103.07-.168,0-.064-.025-.121-.065-.164-.038-.041-.091-.068-.15-.073-.001.012-.002.022-.002.034,0,.034.007.067.021.098.002.006,0,.012-.006.015-.003.002-.007.001-.01,0-.054-.024-.099-.064-.131-.113-.031-.048-.049-.105-.049-.166,0-.142.09-.237.209-.297.117-.059.261-.083.373-.083.074,0,.149.01.221.029-.038-.021-.079-.039-.12-.053-.067-.022-.138-.034-.212-.034-.101,0-.198.022-.284.062-.09.041-.169.101-.233.174-.057.069-.126.127-.205.171-.061.034-.129.059-.2.073.022.005.044.009.067.012.039.005.08.008.121.008h.037c.006-.001.011.004.012.01,0,.004-.002.008-.006.01-.069.043-.144.077-.224.1-.078.022-.16.034-.245.034-.042,0-.084-.003-.126-.009.029.017.059.033.09.047.047.021.096.038.147.05.006.001.009.007.008.013,0,.004-.004.006-.007.008-.099.037-.204.056-.31.056-.056,0-.111-.005-.164-.015-.039-.007-.077-.017-.115-.029.052.053.11.099.174.137.005.003.007.01.004.015-.001.002-.004.004-.006.005-.126.039-.256.058-.388.058-.082,0-.163-.008-.241-.022-.071-.013-.141-.032-.207-.056.023.047.051.091.085.131.004.005.003.012-.001.015-.002.002-.005.003-.008.003-.094-.002-.184-.024-.263-.064-.07-.035-.133-.082-.185-.14.005.027.013.052.021.077.013.038.031.075.051.109.005.008-.001.017-.01.017-.099-.008-.19-.04-.27-.089-.078-.048-.145-.112-.195-.188-.022.028-.042.059-.059.091-.019.036-.034.074-.046.114-.002.007-.011.011-.017.006-.064-.045-.12-.103-.163-.169-.002-.003-.005-.007-.007-.011-.026.052-.063.1-.107.139-.048.042-.107.074-.172.091l-.406.109c-.024.006-.042.022-.054.041-.011.02-.015.044-.009.067.002.008.005.016.01.023.005.007,0,.016-.008.017-.094.011-.189-.008-.271-.056l-.275-.159c-.056-.031-.118-.048-.182-.048h-.136c-.025,0-.05-.007-.071-.02-.066-.038-.133-.079-.2-.115-.027-.016-.045-.042-.053-.07-.007-.028-.004-.058.01-.084-.004-.022-.004-.044.002-.066-.042-.021-.076-.046-.1-.073-.025-.029-.039-.062-.039-.097,0-.008,0-.016.002-.023-.052-.047-.09-.108-.09-.18s.038-.133.09-.18h0ZM22.825,7.13c-.054-.029-.106-.062-.156-.097-.053-.038-.104-.079-.152-.124l-.201.117c-.026.015-.052.02-.082.019-.004.003-.007.006-.012.008.058.02.107.046.142.077.039.035.062.076.062.12,0,.008,0,.015-.002.023.052.047.091.108.091.18s-.038.133-.091.18c.002.007.002.015.002.023,0,.044-.023.085-.062.12-.035.031-.084.057-.142.077.004.002.008.005.011.009.03-.001.056.004.082.019l.391.226c.073-.065.153-.122.237-.171.072-.042.149-.079.228-.109-.045-.007-.089-.02-.131-.037-.006-.003-.008-.009-.006-.014,0-.002.002-.003.003-.005.038-.031.072-.067.1-.108.025-.035.045-.072.061-.112-.028.004-.056.006-.084.006-.042,0-.084-.005-.124-.013-.041-.009-.081-.022-.118-.04-.006-.003-.008-.009-.005-.015,0-.002.002-.003.004-.004.037-.028.069-.063.095-.102.021-.032.038-.067.05-.105-.044.018-.091.026-.139.026-.052,0-.102-.011-.147-.03-.047-.02-.089-.048-.124-.084-.004-.005-.004-.012,0-.016.002-.002.006-.003.009-.003.012.001.024.002.036.002.063,0,.121-.016.173-.044Z" fill-rule="evenodd" />
          <path d="M22.11,7.101c.008.013.018.025.03.035.003-.018.009-.035.018-.05.012-.02.029-.038.05-.05.027-.015.036-.049.021-.075-.015-.027-.049-.036-.075-.02-.028.016-.047.042-.055.072-.008.029-.004.061.011.089Z" fill="#fff" fill-rule="evenodd" />
          <path d="M22.073,7.04c0-.012.002-.023.005-.034.005-.017.012-.033.022-.047-.007-.013-.019-.021-.033-.024-.014-.004-.029-.002-.042.005-.028.016-.047.042-.055.072-.008.029-.005.061.012.089.007.013.018.025.03.035.003-.017.008-.034.017-.049.01-.018.025-.035.044-.047Z" fill="#fff" fill-rule="evenodd" />
          <path d="M21.854,7.101c.007.013.018.025.03.035.003-.017.008-.034.017-.049.01-.018.025-.035.044-.047,0-.012.002-.023.005-.034.004-.017.012-.033.022-.047-.008-.013-.019-.021-.033-.024-.014-.004-.028-.002-.041.005-.028.016-.048.043-.056.072-.008.029-.005.061.012.089Z" fill="#fff" fill-rule="evenodd" />
          <path d="M21.725,7.101c.008.013.018.025.03.035.002-.017.008-.034.017-.049.01-.018.025-.035.044-.047,0-.012.002-.023.005-.034.004-.016.012-.032.023-.047-.008-.013-.02-.021-.033-.025-.014-.003-.029-.002-.042.006-.028.016-.047.042-.055.072-.008.029-.005.061.011.089Z" fill="#fff" fill-rule="evenodd" />
          <path d="M22.073,7.866c-.019-.012-.033-.029-.044-.047-.008-.015-.014-.032-.017-.049-.012.009-.022.021-.029.034-.016.028-.02.061-.012.09.008.029.027.055.055.072.013.007.028.009.042.005.013-.003.025-.012.033-.025-.01-.014-.018-.03-.022-.047-.003-.011-.004-.023-.005-.034Z" fill="#fff" fill-rule="evenodd" />
          <path d="M21.854,7.805c-.016.028-.02.061-.012.09.008.029.027.055.055.072.013.007.028.009.042.005.013-.003.025-.012.033-.025-.01-.014-.018-.03-.022-.047-.003-.011-.004-.023-.005-.034-.019-.012-.033-.029-.044-.047-.009-.015-.014-.032-.017-.049-.012.009-.022.021-.03.034Z" fill="#fff" fill-rule="evenodd" />
          <path d="M21.726,7.805c-.016.028-.02.061-.012.09.008.029.027.055.055.072.013.007.028.009.042.005.013-.003.025-.012.033-.025-.01-.014-.018-.03-.022-.047-.003-.011-.004-.023-.005-.034-.019-.012-.033-.029-.044-.047-.008-.015-.014-.032-.017-.049-.012.009-.022.021-.03.034Z" fill="#fff" fill-rule="evenodd" />
          <path d="M24.208,6.45c-.031.054-.098.073-.152.042-.054-.031-.072-.099-.041-.153.026-.045.081-.067.13-.051l-.055-.206-.206.055c.039.035.047.093.021.138-.031.054-.099.072-.152.041-.053-.031-.071-.099-.041-.153.013-.022.032-.039.056-.048l-.119-.206-.092.342.653.377.25-.25h-.238c.004.025,0,.05-.014.072Z" fill="#fed700" fill-rule="evenodd" />
          <rect x="23.828" y="6.11" width=".058" height=".749" transform="translate(6.309 23.899) rotate(-59.986)" fill="#fed700" />
          <polygon points="23.553 6.848 23.582 6.961 23.694 6.93 23.553 6.848" fill="#fed700" fill-rule="evenodd" />
          <path d="M23.582,6.984c-.008.016-.01.035-.005.051.005.018.016.035.034.044l.086.05c.048.028.11.011.137-.037.027-.048.011-.109-.036-.137-.02-.012-.049-.018-.072-.011l-.144.04h0ZM23.798,7.07s-.006.007-.01.007c-.006,0-.011-.005-.011-.011,0-.002,0-.005.002-.006.005-.008.005-.018.003-.027-.002-.009-.008-.017-.016-.022-.008-.005-.017-.006-.027-.004-.006.001-.012-.002-.013-.008-.001-.006.003-.012.008-.013.015-.003.028,0,.042.006.014.008.023.021.027.036.004.014.003.03-.005.043Z" fill="#fed700" fill-rule="evenodd" />
          <path d="M23.492,7.117c.018.01.039.015.059.011.017-.003.033-.013.046-.03-.021-.013-.035-.033-.041-.056-.002-.009-.003-.019-.003-.028-.008.005-.017.009-.026.011-.023.006-.048.004-.069-.008-.009.02-.009.039-.003.055.006.019.021.035.038.045Z" fill="#fed700" fill-rule="evenodd" />
          <path d="M23.482,7.137c-.022-.013-.041-.034-.049-.058-.007-.022-.007-.047.005-.073l-.048-.028c-.018.037-.021.075-.012.11.01.039.036.073.075.096.039.023.082.028.121.017.035-.009.067-.031.089-.065l-.048-.028c-.016.023-.038.036-.061.041-.025.005-.051,0-.073-.013Z" fill="#fed700" fill-rule="evenodd" />
          <path d="M24.077,6.671l-.492-.284-.038.066c-.025.044-.042.093-.049.144,0,.002,0,.003-.001.005l-.079.136c.024-.002.05.003.072.016.021.012.038.03.048.052l.159-.189c.01-.012.011-.026.007-.041-.004-.016-.016-.031-.031-.04l-.057-.033c-.005-.003-.007-.01-.004-.015.003-.005.01-.007.015-.004l.057.033c.019.012.035.032.041.053.006.022.002.044-.012.061l-.162.193.164.095.086-.237c.008-.021.026-.035.047-.041.022-.006.047-.003.067.009l.057.033c.005.003.007.01.004.015-.003.005-.01.007-.015.004l-.057-.033c-.015-.008-.034-.011-.05-.006-.015.004-.026.013-.032.027l-.084.231c.024-.002.048.004.07.016.022.013.039.032.049.054l.078-.136s.002-.003.003-.003c.04-.031.074-.07.1-.115l.038-.065h0ZM23.935,6.769c-.007.012-.018.02-.031.024-.013.003-.027.002-.039-.005-.012-.007-.02-.019-.024-.031-.003-.013-.002-.027.005-.039.003-.005.01-.007.015-.004l.069.04c.005.003.007.01.004.015h0ZM23.66,6.61c-.007.012-.018.021-.031.024-.012.003-.026.002-.039-.005s-.02-.019-.024-.031-.002-.026.005-.039c.003-.005.01-.007.015-.004l.069.04c.005.003.007.01.004.015Z" fill="#fed700" fill-rule="evenodd" />
          <path d="M23.41,6.571c-.04.07-.1.122-.168.153-.062.028-.131.039-.199.031.018.022.038.042.06.061.035.031.07.054.111.076.006.003.007.011.004.017-.025.036-.055.069-.089.097-.028.024-.06.045-.093.062.032.019.066.035.102.047.041.014.085.022.13.023.007,0,.011.006.011.013-.005.026-.007.053-.007.079,0,.036.004.071.011.105.007.032.017.063.03.092.056-.006.11-.022.159-.045.053-.026.101-.061.141-.103.004-.004.011-.005.016,0,.001.001.002.003.003.004.005.013.01.025.016.037.026.055.063.106.107.147.03.028.063.052.099.072-.002-.045.002-.091.012-.135.011-.051.031-.1.057-.145.003-.005.01-.007.015-.004.021.015.039.029.061.042.05.029.103.048.157.057.063.012.134.011.198-.004-.075-.044-.122-.124-.122-.212v-.257c0-.061-.024-.119-.067-.162l-.067-.039-.038.066c-.027.046-.062.087-.104.12l-.087.151c.006.028.001.058-.014.085-.034.059-.109.079-.168.045l-.003-.002c-.026.039-.062.065-.103.076-.044.012-.093.006-.137-.02-.044-.025-.074-.065-.086-.109-.011-.041-.007-.085.014-.127h-.002c-.029-.018-.049-.046-.057-.076-.008-.03-.004-.064.012-.093.016-.027.04-.045.067-.055l.088-.151c.007-.053.025-.104.052-.15l.038-.066-.059-.034-.038.065c-.029.049-.048.103-.058.159,0,.002,0,.003-.002.004Z" fill="#fed700" fill-rule="evenodd" />
          <path d="M23.081,6.826c-.035.031-.075.056-.118.074-.038.015-.079.025-.121.028.016.012.033.023.051.032.026.013.054.022.084.027.007.002.012.01.008.016-.033.059-.081.107-.139.141-.056.033-.122.052-.191.052h-.008c.028.024.06.044.095.059.042.018.089.028.138.028.052,0,.104-.011.151-.033.002-.001.005-.001.007,0,.006.001.009.008.008.014-.012.048-.033.093-.059.134-.024.036-.053.068-.086.095.031.013.063.024.097.031.038.008.078.013.12.013.033,0,.066-.003.098-.008.002,0,.005,0,.007,0,.006.002.008.008.007.014-.018.048-.042.094-.071.135-.026.036-.056.07-.09.1.063.024.131.036.198.036.096,0,.189-.024.273-.071.006-.005.016,0,.017.007.015.076.044.147.085.209.038.06.088.112.144.154.011-.036.026-.071.043-.103.02-.038.044-.074.071-.107.005-.006.014-.005.018.001.049.079.116.145.196.194.071.043.153.073.239.083-.016-.03-.031-.061-.042-.094-.014-.038-.023-.079-.029-.121,0-.004,0-.008.004-.011.005-.004.012-.003.016.002.055.069.124.125.204.165.07.035.148.056.23.061-.04-.051-.072-.108-.095-.169-.025-.067-.038-.139-.038-.215,0-.007.004-.013.012-.012.054.003.107.013.157.029.044.014.086.033.124.056-.008-.055-.025-.108-.05-.155-.029-.056-.068-.105-.115-.146-.003-.002-.004-.006-.004-.01,0-.006.006-.011.012-.01.017.001.033.002.05.002.062,0,.124-.009.183-.028-.044-.015-.086-.034-.125-.058-.05-.03-.095-.066-.134-.108-.003-.003-.004-.006-.003-.01.001-.006.007-.01.013-.008.056.011.114.005.166-.018-.025-.011-.049-.025-.07-.043-.028-.023-.052-.051-.069-.083-.023-.043-.067-.069-.115-.069h-.249c-.042,0-.08-.017-.108-.045-.009-.008-.016-.018-.023-.029v.091c0,.089.053.169.135.205.003.001.005.003.006.007.002.006-.001.012-.007.014-.072.023-.162.026-.236.012-.056-.011-.111-.03-.163-.06-.018-.011-.036-.022-.053-.035-.022.04-.038.083-.048.128-.011.048-.014.098-.01.149,0,.002,0,.004-.001.006-.003.006-.009.008-.015.005-.044-.022-.085-.05-.121-.084-.046-.044-.084-.096-.112-.154-.004-.008-.007-.016-.011-.024-.039.039-.085.071-.135.095-.053.026-.112.042-.174.048-.004,0-.01-.002-.012-.006-.015-.033-.027-.068-.035-.104-.008-.035-.012-.072-.012-.109,0-.024.002-.047.005-.071-.043-.003-.084-.011-.123-.023-.044-.014-.086-.035-.124-.06-.007-.005-.006-.016.001-.019.039-.018.074-.041.106-.068.029-.025.056-.052.078-.083-.038-.021-.072-.045-.104-.074-.002-.002-.005-.004-.007-.007Z" fill="#fed700" fill-rule="evenodd" />
          <path d="M28.762,8.198c-.033,0-.062.013-.083.034-.022.021-.035.051-.035.084,0,.016.003.03.008.044.011-.014.025-.025.04-.034.021-.012.044-.018.069-.018.03,0,.055-.025.055-.055,0-.03-.025-.055-.055-.055Z" fill="#fff" fill-rule="evenodd" />
          <path d="M28.693,8.194c-.006-.025-.028-.042-.053-.042-.033,0-.062.013-.084.035-.021.021-.035.051-.035.084,0,.015.003.03.008.044.025-.031.062-.05.102-.052.007-.017.018-.032.031-.045.009-.009.019-.017.031-.023Z" fill="#fff" fill-rule="evenodd" />
          <path d="M28.435,8.141c-.021.021-.035.052-.035.084,0,.015.003.03.009.044.011-.014.025-.026.04-.035.018-.01.039-.017.062-.018.007-.017.017-.032.03-.045.009-.009.02-.017.031-.023-.006-.024-.028-.041-.053-.041-.032,0-.062.013-.083.034Z" fill="#fff" fill-rule="evenodd" />
          <path d="M26.028,8.332c-.021.021-.035.052-.035.084,0,.015.003.03.009.044.011-.014.025-.025.04-.035.02-.012.044-.018.069-.018.03,0,.055-.025.055-.055s-.024-.055-.055-.055c-.033,0-.062.013-.083.034Z" fill="#fff" fill-rule="evenodd" />
          <path d="M25.906,8.286c-.021.022-.035.052-.035.084,0,.015.003.03.009.044.011-.014.025-.026.04-.034.018-.01.039-.017.061-.018.007-.017.018-.033.03-.045.009-.009.019-.017.031-.023-.006-.025-.028-.042-.053-.042-.033,0-.062.013-.083.034Z" fill="#fff" fill-rule="evenodd" />
          <path d="M25.921,8.248c-.006-.024-.028-.042-.053-.042-.033,0-.062.013-.084.035-.022.021-.035.051-.035.084,0,.015.003.03.008.044.011-.014.025-.026.04-.035.018-.011.039-.017.062-.018.007-.017.018-.033.031-.046.009-.009.019-.016.03-.023Z" fill="#fff" fill-rule="evenodd" />
          <path d="M26.451,7.364c.066-.076.148-.138.241-.181.09-.041.189-.064.293-.064.076,0,.15.012.219.035.072.023.138.057.198.101.005.003.006.011.002.015-.003.004-.008.006-.013.004-.094-.036-.193-.053-.293-.053-.109,0-.249.023-.363.081-.112.056-.197.145-.197.277,0,.057.017.11.045.154.025.038.058.07.097.092-.008-.026-.012-.052-.012-.08,0-.016.001-.032.004-.047,0-.006.006-.01.012-.01.069.004.13.034.174.081.044.046.071.109.071.178,0,.072-.029.137-.076.184-.047.047-.112.076-.184.076h-.215c-.025,0-.05-.007-.071-.02l-.248-.143c-.018-.011-.039-.016-.06-.016-.021,0-.042.005-.06.016l-.185.106c-.021.013-.036.032-.043.056.023-.015.05-.024.079-.024.034,0,.063.022.074.054.015-.005.031-.008.048-.008.034,0,.064.022.074.055.015-.005.031-.008.048-.008.042,0,.077.034.077.077,0,.022-.009.041-.023.055h.393c.126,0,.248-.016.364-.047.108-.029.211-.07.308-.122-.041-.005-.082-.015-.121-.028-.003,0-.005-.003-.007-.006-.003-.006,0-.012.005-.015.042-.019.083-.041.122-.064.039-.023.078-.049.114-.076.027-.02.043-.052.043-.086,0-.039-.021-.074-.054-.093l-.145-.083c-.029-.016-.048-.047-.048-.081,0-.051.041-.092.092-.092.025,0,.048.01.065.027.015.015.025.036.027.059.039-.029.072-.067.096-.109.028-.048.045-.102.049-.16,0-.004.003-.008.007-.009.006-.002.012,0,.014.006.023.057.062.106.112.141.042.029.091.049.145.055-.02-.026-.037-.055-.049-.086-.015-.038-.023-.079-.023-.123,0-.04.007-.079.021-.117.001-.004.004-.007.008-.008.006-.001.012.002.013.008.026.12.082.229.16.319.072.084.163.152.267.197-.021-.054-.032-.112-.032-.17,0-.032.003-.064.01-.096,0-.004.004-.008.009-.008.006-.001.012.003.013.009.014.076.055.143.112.191.056.047.129.075.208.075.087,0,.169-.034.23-.095l.187-.187s.007-.007.011-.011c.005-.004.011-.004.016,0,.004.005.004.011,0,.015l-.012.012c-.013.014-.023.03-.031.045-.01.02-.016.04-.016.059,0,.066.017.083.045.111l.093.093c.02.02.031.047.031.076,0,.059-.048.106-.106.106h-.384c-.025,0-.049.011-.065.028-.011.011-.019.025-.023.041.022-.015.05-.024.079-.024.034,0,.064.022.074.054.015-.005.031-.008.048-.008.034,0,.064.022.074.055.015-.006.031-.009.048-.009.042,0,.077.035.077.077,0,.021-.009.041-.023.055h.246c.045,0,.087-.016.119-.043.033-.027.056-.066.065-.109,0-.005.004-.009.009-.01.059-.01.111-.04.15-.082.033-.037.057-.082.066-.132-.014.008-.029.015-.045.02-.034.011-.069.014-.104.009-.004,0-.007-.003-.009-.006-.003-.005,0-.012.005-.015.037-.017.062-.054.065-.094-.121-.049-.201-.166-.201-.297,0-.092-.029-.175-.084-.234-.05-.055-.123-.089-.213-.089-.069,0-.135.024-.189.068-.066.054-.148.082-.233.082-.065,0-.128-.016-.183-.048-.006-.004-.008-.01-.004-.016.015-.02.022-.044.022-.069,0-.017-.004-.034-.011-.05-.022.022-.051.034-.082.034-.037,0-.072-.017-.094-.048h0c-.029-.045-.067-.083-.11-.114-.041-.028-.086-.05-.135-.064l-.007-.002c-.006-.002-.009-.008-.008-.014.001-.006.008-.009.013-.008l.007.002c.035.009.071.013.107.013.12,0,.233-.048.316-.134l.232-.232c.051-.051.136-.051.187,0,.051.051.051.136,0,.187l-.023.023c.048-.005.092-.027.126-.06.041-.041.063-.096.063-.151,0-.054-.021-.108-.061-.15-.029-.029-.065-.049-.104-.058-.007-.001-.011-.007-.009-.014.013-.043.01-.092-.01-.133-.008-.017-.019-.033-.032-.047-.003.044-.019.084-.045.117-.029.036-.07.062-.117.072-.008.002-.015-.005-.013-.013.008-.032.012-.064.012-.097,0-.056-.011-.109-.031-.157-.018-.044-.044-.084-.076-.119-.023.072-.064.136-.119.187-.003.003-.008.005-.013.003-.174-.076-.361-.115-.551-.115-.149,0-.293.024-.427.068-.139.046-.269.113-.384.198-.138.101-.303.155-.474.155-.165,0-.324-.05-.459-.144-.127-.093-.278-.142-.435-.142-.104,0-.206.022-.301.064-.041.017-.085.026-.13.026-.083,0-.159-.03-.217-.081-.051-.044-.089-.104-.105-.172-.015.035-.023.073-.023.111,0,.041.009.08.025.115.017.037.042.07.073.095.006.005.005.014-.001.018-.023.014-.048.025-.074.032-.028.008-.056.011-.086.011.023.024.05.044.08.059.036.018.077.028.12.028.037,0,.073-.007.108-.022.007-.003.015.002.015.01.002.056.017.109.042.155.023.042.053.078.09.108.001-.064.019-.125.049-.177.032-.057.078-.105.134-.139.005-.003.011-.002.015.003.033.047.077.086.128.112.049.025.106.04.165.04.017,0,.035-.002.051-.004-.011-.035-.016-.073-.016-.11,0-.025.003-.056.009-.08.002-.006.008-.009.014-.007.062.019.118.05.171.086.164.115.359.176.559.176.208,0,.409-.065.576-.188.206-.152.453-.232.709-.232.113,0,.226.016.334.047.103.029.174.123.174.23,0,.078-.034.139-.084.181-.086.072-.217.089-.323.058h0c-.085-.031-.173-.055-.264-.071-.089-.015-.181-.023-.274-.023-.138,0-.275.018-.409.054l-1.518.407c-.124.033-.249.051-.379.051h-.181c.013.018.029.035.046.049.026.021.055.037.088.047.006.002.009.008.007.014,0,.003-.003.005-.005.006-.052.029-.112.041-.171.036.032.031.068.058.107.082.047.028.098.05.152.065.006.001.009.007.008.014,0,.004-.004.007-.007.008-.071.027-.146.041-.222.041-.007,0-.014,0-.021,0,.039.038.072.082.098.131.029.057.049.119.055.186,0,.009-.009.015-.017.011-.043-.028-.09-.049-.139-.065-.044-.014-.091-.023-.139-.027.001.069.014.135.037.197.002.008.006.015.009.023.072.027.146.049.224.063.077.014.156.022.237.022.121,0,.242-.017.358-.05-.07-.044-.133-.099-.188-.161-.003-.003-.004-.008-.002-.012.002-.006.008-.008.014-.007.049.019.101.034.154.044.052.01.105.015.16.015.091,0,.182-.014.269-.043-.04-.012-.078-.026-.116-.042-.049-.022-.095-.048-.139-.078-.003-.002-.005-.007-.005-.011.001-.006.007-.01.013-.008.058.012.116.018.176.018.083,0,.163-.012.238-.033.065-.018.126-.044.184-.077-.041,0-.08-.003-.12-.008-.041-.006-.082-.014-.121-.026-.004-.001-.008-.005-.008-.009,0-.006.004-.012.01-.012.088-.011.171-.038.245-.079.077-.042.144-.098.199-.165Z" fill="#fed700" fill-rule="evenodd" />
          <path d="M21.702,7.925c-.004.016-.004.032,0,.047.006.023.021.044.043.057.064.04.134.077.2.115.018.011.039.016.06.016h.136c.068,0,.134.017.194.051l.275.159c.073.042.157.061.241.054-.002-.004-.004-.009-.005-.014-.008-.03-.003-.059.011-.084.014-.025.038-.044.067-.052l.406-.109c.062-.016.118-.047.164-.086.047-.04.083-.09.108-.145-.029-.052-.051-.109-.065-.168-.084.044-.177.067-.272.067-.014,0-.029,0-.043-.002-.093.032-.182.073-.266.122-.086.05-.166.109-.24.174-.004.003-.009.004-.013.001l-.398-.23c-.017-.01-.035-.015-.054-.016.011.022.012.05-.002.073-.022.037-.069.05-.106.028-.01-.006-.019-.013-.028-.021-.01.015-.026.024-.042.029-.019.005-.04.003-.058-.007-.01-.006-.02-.014-.029-.022-.01.015-.025.024-.042.029-.019.005-.04.003-.059-.008-.01-.006-.019-.013-.028-.021-.01.015-.025.024-.042.029-.019.005-.04.003-.059-.008-.025-.014-.044-.036-.056-.06Z" fill="#fed700" fill-rule="evenodd" />
          <path d="M23.562,6.973l-.037-.145c-.006-.023-.025-.045-.045-.057-.048-.027-.109-.011-.137.036-.013.023-.017.052-.01.077.007.024.022.047.046.06.029.016.06.033.088.051.017.01.037.012.055.007.017-.004.032-.015.042-.03h0ZM23.398,6.841c-.003.005-.01.007-.015.004s-.007-.01-.004-.015c.008-.014.021-.023.035-.027.014-.004.03-.002.044.006.013.007.022.019.026.033.002.006-.001.012-.007.014-.006.002-.012-.001-.014-.007-.003-.009-.009-.016-.016-.021-.008-.005-.018-.006-.027-.003-.009.002-.017.008-.022.017Z" fill="#fed700" fill-rule="evenodd" />
          <path d="M22.286,7.307c-.075-.039-.18-.064-.296-.064s-.22.024-.296.064c-.073.038-.119.09-.119.146s.045.109.119.147c.075.039.18.064.296.064s.22-.024.296-.064c.073-.038.119-.09.119-.147s-.046-.108-.119-.146Z" fill="#fff" fill-rule="evenodd" />
          <path d="M22.368,7.57c-.019.018-.044.035-.072.049-.078.041-.187.066-.306.066s-.228-.025-.306-.066c-.028-.014-.052-.031-.072-.049-.021.024-.037.053-.037.086,0,.029.012.057.034.083.022.025.052.048.091.067.002-.004.004-.008.006-.012.013-.022.031-.04.053-.053.001-.001.003-.001.005-.001.006,0,.011.005.011.011,0,.02.006.04.015.058.007.012.016.023.027.032.003-.016.008-.031.016-.046.013-.022.031-.04.053-.053.001-.001.003-.001.005-.001.006,0,.011.005.011.011,0,.02.005.04.016.058.007.012.015.023.027.032.002-.016.008-.031.016-.046.013-.022.031-.04.053-.053.001-.001.003-.001.005-.001.006,0,.011.005.011.011,0,.02.006.04.016.058.007.012.016.023.027.032.003-.016.008-.031.016-.046.013-.022.031-.04.053-.053.001-.001.003-.001.005-.001.006,0,.011.005.011.011,0,.033.015.065.039.086.062-.019.114-.046.15-.077.035-.031.054-.066.054-.103,0-.033-.015-.062-.037-.086Z" fill="#fff" fill-rule="evenodd" />
          <path d="M22.383,7.352c.028.031.043.065.043.101s-.016.071-.043.102c.015.016.027.035.035.055.043-.042.075-.095.075-.156,0-.061-.031-.114-.075-.156-.007.02-.019.038-.034.055Z" fill="#fff" fill-rule="evenodd" />
          <path d="M21.7,7.101c-.038.019-.069.042-.091.067-.022.025-.034.054-.034.083,0,.033.015.062.037.086.02-.018.044-.035.072-.049.078-.041.186-.066.306-.066s.227.025.306.066c.028.015.052.031.072.049.022-.024.037-.053.037-.086,0-.037-.02-.073-.054-.103-.036-.032-.088-.059-.15-.077-.009.008-.017.018-.023.028-.01.018-.016.038-.016.059,0,.006-.005.011-.011.011-.002,0-.004,0-.005-.002-.022-.012-.04-.03-.053-.052-.008-.015-.014-.031-.017-.047-.011.009-.02.02-.027.032-.01.018-.015.038-.016.058,0,.006-.005.011-.011.011-.002,0-.004,0-.005-.002-.023-.013-.04-.031-.053-.053-.008-.015-.014-.03-.016-.046-.011.009-.02.02-.027.032-.01.018-.016.038-.016.058,0,.006-.005.011-.011.011-.002,0-.004,0-.005-.002-.022-.012-.04-.03-.053-.052-.008-.015-.014-.031-.017-.047-.011.009-.02.02-.027.032-.01.018-.015.038-.015.058,0,.006-.005.011-.011.011-.002,0-.004,0-.005-.002-.022-.012-.04-.03-.053-.052-.002-.004-.004-.008-.006-.013Z" fill="#fff" fill-rule="evenodd" />
          <path d="M21.597,7.352c-.014-.016-.027-.034-.034-.055-.043.041-.075.095-.075.156,0,.062.031.115.075.156.008-.02.02-.038.034-.055-.028-.03-.043-.065-.043-.102s.015-.071.043-.101Z" fill="#fff" fill-rule="evenodd" />
          <path d="M22.251,7.023c.019-.001.038-.006.054-.016l.209-.121s.01-.002.013.002c.049.046.101.088.156.127.053.037.108.072.165.102.044-.029.081-.067.109-.111-.026-.006-.051-.015-.074-.026-.029-.015-.055-.033-.078-.054-.004-.004-.004-.011,0-.016.002-.002.005-.003.008-.003.049,0,.097-.008.142-.027.035-.014.068-.034.097-.057-.059-.001-.116-.018-.167-.047l-.421-.243c-.018-.011-.039-.016-.06-.016-.021,0-.042.006-.06.016-.197.114-.406.226-.598.345-.022.013-.037.034-.043.057-.004.015-.004.031,0,.047.012-.024.03-.045.055-.06.018-.011.04-.014.059-.008.016.005.031.014.042.029.008-.008.018-.016.029-.022.018-.01.039-.012.057-.007.016.005.031.014.042.029.008-.008.018-.015.028-.021.018-.011.039-.013.059-.008.016.004.031.014.042.029.008-.008.017-.015.027-.02.037-.021.084-.011.106.027.014.024.014.052.003.074Z" fill="#fed700" fill-rule="evenodd" />
          <path d="M23.623,6.613s.007-.003.01-.005l-.046-.027s0,.008,0,.011c.002.007.006.014.013.018.007.004.015.005.022.003Z" fill="#fed700" fill-rule="evenodd" />
          <path d="M23.898,6.772s.007-.003.01-.005l-.046-.027s0,.008,0,.011c.002.007.007.014.014.018.007.004.015.005.022.003Z" fill="#fed700" fill-rule="evenodd" />
          <path d="M22.111,7.805c-.016.028-.02.061-.012.09.008.029.027.055.055.072.026.015.06.006.075-.02.015-.026.006-.06-.02-.075-.037-.021-.062-.058-.069-.101-.012.009-.022.021-.029.034Z" fill="#fff" fill-rule="evenodd" />
        </g>
        <g>
          <path d="M24.205,15.435l.049.069c.005.007,0,.017-.008.018-.056.004-.113-.008-.162-.035-.015-.008-.03-.018-.044-.029l.05.091c.004.007-.002.016-.01.016-.056-.002-.111-.02-.157-.052-.045-.031-.081-.074-.104-.128l-.178-.422-.55-.147c-.036-.009-.071-.021-.105-.035-.016.024-.042.038-.071.038-.047,0-.085-.038-.085-.085,0-.003,0-.005,0-.008-.011.005-.024.008-.037.008-.047,0-.085-.038-.085-.086,0-.018.006-.036.017-.051-.016-.017-.031-.035-.045-.053-.1-.129-.159-.29-.159-.466,0-.064.008-.128.024-.19l.069-.257c.023-.096-.035-.193-.131-.218l-.154-.041v.065c.049-.014.1-.008.145.018.059.035.094.099.091.167,0,.008-.009.013-.016.009-.026-.015-.056-.02-.086-.014-.032.006-.063.002-.091-.014-.017-.01-.031-.023-.042-.039v.05c.056.014.096.065.096.124,0,.032-.012.062-.033.086-.02.022-.031.051-.031.081,0,.008-.009.014-.016.01-.061-.032-.099-.094-.099-.162,0-.053.021-.102.061-.138v-.051c-.01.015-.025.029-.042.039-.028.016-.059.021-.091.014-.029-.006-.059,0-.086.014-.007.004-.016,0-.016-.009-.003-.068.031-.132.091-.167.044-.026.096-.032.144-.018v-.071l-.035-.01s-.005-.003-.007-.005c-.003-.005-.001-.012.004-.015l.034-.02c-.003-.01-.008-.02-.014-.028-.008-.01-.018-.019-.03-.025l-.035-.02c.008.051-.016.103-.063.13-.028.016-.059.021-.091.014-.029-.006-.06,0-.086.014-.007.004-.016,0-.016-.009-.003-.068.031-.132.09-.167.028-.016.059-.025.091-.025l-.056-.032c-.045.039-.111.042-.159.007-.026-.019-.043-.046-.05-.078-.007-.029-.024-.055-.048-.073-.006-.005-.006-.015.002-.019.061-.031.134-.025.189.015.042.03.069.075.075.126l.058.033c-.015-.027-.024-.059-.024-.091,0-.068.039-.131.099-.162.007-.004.016.001.016.01,0,.03.011.059.031.081.022.024.033.054.033.086,0,.053-.033.1-.081.119l.035.02c.015.008.027.019.037.031.007.009.013.02.016.03l.115-.066.087-.087c.049-.051.116-.078.187-.078.12,0,.224.082.254.198.038.145.063.271.148.399.025.037.052.071.083.103v-.381c0-.048.017-.092.044-.128.028-.036.068-.062.114-.073l.417-.112c.059-.016.114-.039.164-.069.052-.031.098-.069.138-.112.006-.007.017-.003.019.006.016.083-.002.166-.044.233-.029.045-.068.084-.116.11-.008.063-.034.123-.076.171l.322-.087c.059-.016.114-.039.164-.069.052-.031.098-.069.138-.111.006-.007.017-.003.019.005.016.083-.002.166-.044.234-.029.045-.068.083-.116.11-.008.064-.035.123-.076.172-.024.028-.054.053-.087.072-.008.064-.035.123-.076.171-.024.029-.053.053-.087.072-.008.064-.035.123-.076.172-.041.048-.097.085-.162.103l-.089.024c.038.062.072.127.101.195.03.07.055.143.075.218l.614.565c.006.006.004.016-.004.019-.054.016-.112.016-.165,0-.017-.005-.033-.011-.049-.019l.166.19c.005.006.002.016-.007.018-.055.01-.113.004-.165-.017-.016-.007-.031-.014-.046-.024Z" fill-rule="evenodd" />
          <path d="M22.267,13.752c0,.054.027.105.072.135.004-.029.016-.056.035-.077.018-.02.028-.044.028-.072,0-.05-.035-.093-.084-.103-.033.031-.051.073-.051.118Z" fill="#007c29" fill-rule="evenodd" />
          <path d="M22.173,13.475c-.047.028-.077.076-.08.13.026-.011.056-.014.084-.008.026.005.052.002.076-.012.043-.025.063-.077.048-.124-.043-.013-.089-.008-.127.015Z" fill="#007c29" fill-rule="evenodd" />
          <path d="M22.461,13.475c.047.028.077.076.08.13-.027-.011-.056-.014-.084-.008-.026.005-.052.002-.076-.012-.043-.025-.063-.077-.048-.124.043-.013.089-.008.128.015Z" fill="#007c29" fill-rule="evenodd" />
          <path d="M22.157,13.092c0-.054.027-.104.073-.134.004.029.016.055.035.077.018.02.028.044.027.072,0,.05-.035.093-.084.103-.033-.031-.051-.073-.051-.118Z" fill="#007c29" fill-rule="evenodd" />
          <path d="M22.069,13.245c-.047.027-.077.076-.08.13.027-.011.056-.014.084-.008.027.005.052.002.076-.012.043-.025.063-.077.048-.124-.043-.013-.089-.008-.127.015Z" fill="#007c29" fill-rule="evenodd" />
          <path d="M22.474,13.39v-.099c0-.016-.012-.029-.028-.03l-.144.083.172.046Z" fill="#fed700" fill-rule="evenodd" />
          <path d="M22.74,14.615c-.006.01-.01.022-.01.034,0,.035.028.064.063.064.016,0,.031-.006.042-.016-.034-.025-.066-.052-.095-.082Z" fill="#963" fill-rule="evenodd" />
          <path d="M22.857,14.711c-.003.008-.004.015-.004.023,0,.035.028.063.063.063.02,0,.039-.009.051-.025-.038-.018-.075-.038-.109-.061Z" fill="#963" fill-rule="evenodd" />
          <path d="M23.815,13.433c.048-.045.081-.105.092-.169-.016.007-.033.014-.051.018l-.197.053c-.006.001-.012-.002-.014-.008-.001-.006.002-.012.008-.014l.197-.053c.076-.02.139-.069.178-.131.036-.057.053-.126.045-.196-.038.038-.081.071-.128.099-.052.031-.108.055-.169.072l-.417.112c-.041.01-.077.033-.102.065-.025.031-.04.071-.04.114v.403c.019.018.04.036.061.052l.03.022.163-.283c.028-.049.075-.085.129-.099l.214-.057Z" fill="#fff" fill-rule="evenodd" />
          <path d="M24.141,15.344c.031.044.072.076.119.095.042.017.087.024.133.019l-.434-.494s-.003-.012.001-.016c.005-.004.012-.004.016,0l.207.237c.035.04.08.068.128.081.043.012.089.014.134.004l-.602-.554s-.003-.004-.003-.006c-.019-.074-.044-.147-.074-.217-.029-.069-.064-.135-.103-.198l-.257.069c-.023.006-.044.02-.059.039-.015.019-.023.042-.023.067,0,.006-.005.011-.011.011-.006,0-.011-.005-.011-.011,0-.03.01-.058.028-.081.018-.023.043-.039.071-.046l.368-.099c.061-.017.113-.051.151-.096.035-.041.059-.091.069-.145-.016.008-.033.014-.051.019l-.394.106c-.006.002-.012-.002-.014-.008-.002-.006.002-.012.008-.013l.394-.106c.061-.016.113-.05.151-.095.035-.041.059-.091.069-.145-.016.007-.033.013-.051.018l-.421.113c-.006.002-.012-.002-.014-.008-.001-.006.002-.012.008-.014l.421-.113c.061-.016.113-.051.151-.095.035-.041.059-.091.069-.145-.016.008-.033.014-.051.019l-.448.12c-.006.001-.012-.002-.014-.008-.001-.006.002-.012.008-.013l.448-.12c.076-.02.139-.069.178-.131.036-.057.053-.126.045-.196-.038.038-.081.071-.128.099-.051.031-.108.055-.169.072l-.577.155c-.049.013-.091.045-.116.089l-.169.294c-.018.031-.047.052-.079.061-.033.009-.068.005-.099-.013-.005-.003-.007-.01-.004-.015.003-.005.01-.007.015-.004.026.015.056.018.082.011.024-.006.046-.021.061-.042l-.032-.024c-.066-.051-.124-.113-.171-.183-.086-.128-.115-.26-.152-.406-.027-.107-.122-.181-.232-.181-.065,0-.126.026-.171.072l-.074.074c.019.008.031.027.031.048v.105c.103.031.164.138.139.242l-.069.258c-.016.061-.024.122-.024.185,0,.17.058.327.154.452.099.127.239.222.4.263l.555.149s.006.003.007.007l.18.427c.021.049.055.089.096.118.037.025.08.042.125.047l-.322-.581c-.003-.005-.001-.012.004-.015.005-.003.012-.001.015.004l.227.41c.026.047.064.083.108.107.04.022.084.033.13.033l-.379-.539s-.002-.012.003-.015c.005-.003.012-.002.016.003l.277.395h0ZM22.599,13.279c-.009-.009-.015-.022-.015-.036,0-.006.005-.011.011-.011h.08c.006,0,.011.005.011.011,0,.014-.006.027-.015.036-.009.009-.022.015-.036.015-.014,0-.027-.006-.036-.015Z" fill="#fff" fill-rule="evenodd" />
          <path d="M22.608,13.254s.004.007.006.009c.005.005.012.008.02.008.008,0,.015-.003.021-.008.003-.003.005-.006.006-.009h-.054Z" fill="#fff" fill-rule="evenodd" />
          <path d="M22.014,13.041c-.044-.032-.1-.039-.151-.021.021.02.035.046.042.074.006.026.019.049.041.064.04.029.096.027.133-.007-.006-.044-.029-.084-.065-.111Z" fill="#007c29" fill-rule="evenodd" />
        </g>
        <path d="M26.751,15.57c.06-.039.096-.105.095-.177,0-.04-.013-.08-.037-.113-.006.008-.013.011-.023.01-.034-.002-.069.005-.1.019-.062.029-.105.087-.116.154-.016.091-.052.177-.107.251-.02.027-.042.052-.066.075.046-.024.091-.049.136-.076.074-.044.147-.092.218-.143Z" fill="#963" fill-rule="evenodd" />
        <path d="M26.443,15.341c-.028.083-.053.167-.074.251-.019.076-.035.154-.047.231.047-.034.089-.075.123-.122.053-.072.088-.154.103-.242.012-.075.06-.139.128-.17.019-.009.04-.015.061-.019l-.002-.002c-.013-.01-.024-.021-.03-.032-.007-.011-.01-.024-.002-.036-.039-.013-.08-.013-.119-.002-.069.019-.122.073-.142.142Z" fill="#630" fill-rule="evenodd" />
        <path d="M26.883,14.813c-.051.069-.084.144-.095.206-.01.06,0,.109.033.133.033.024.083.02.137-.007.057-.028.117-.08.169-.15.052-.069.084-.143.094-.206.01-.06,0-.109-.033-.133-.033-.024-.083-.02-.137.007-.056.028-.117.08-.168.149Z" fill="#007c29" fill-rule="evenodd" />
        <path d="M27.361,14.788c-.03-.029-.078-.026-.115-.016,0,.007-.002.014-.003.021-.011.066-.044.143-.098.215-.054.072-.118.127-.177.156-.014.007-.028.013-.042.017.004.012.01.022.019.031.028.027.076.03.131.011.058-.02.123-.061.181-.121.058-.059.099-.125.117-.183.017-.056.014-.104-.014-.131Z" fill="#007c29" fill-rule="evenodd" />
        <path d="M27.405,14.889c-.002.012-.005.024-.009.037-.019.061-.061.13-.121.192-.061.062-.129.106-.19.127-.008.003-.017.005-.025.007.002.006.006.011.01.016.023.027.067.033.118.021.054-.013.118-.045.176-.094.058-.049.101-.106.123-.158.021-.049.022-.093,0-.12-.019-.023-.052-.028-.08-.027Z" fill="#007c29" fill-rule="evenodd" />
        <path d="M27.378,15.211c-.052.044-.11.077-.161.093.012.023.044.035.084.035.044,0,.097-.013.15-.04.053-.027.096-.062.122-.097.024-.033.033-.065.021-.089-.017-.034-.069-.038-.103-.036-.025.045-.063.092-.113.134Z" fill="#007c29" fill-rule="evenodd" />
        <path d="M27.013,14.53c-.034-.019-.081-.008-.129.024-.051.034-.102.092-.142.166-.04.073-.061.148-.063.208-.001.058.014.103.048.122.011.006.023.009.036.009,0-.014.001-.029.004-.045.011-.066.044-.143.098-.215.054-.072.117-.127.177-.156.006-.003.013-.006.019-.009-.001-.039-.012-.085-.048-.106Z" fill="#007c29" fill-rule="evenodd" />
        <path d="M26.871,14.537c.011-.007.022-.014.033-.019-.007-.028-.021-.057-.048-.069-.033-.014-.075,0-.116.034-.043.036-.085.093-.115.163-.03.07-.043.14-.039.196.004.053.022.093.055.108.006.002.012.004.018.005,0-.008,0-.017,0-.026.002-.064.024-.142.065-.218.042-.076.096-.137.149-.173Z" fill="#007c29" fill-rule="evenodd" />
        <path d="M26.498,14.593c-.01.058-.007.113.005.155.012.039.033.065.058.07,0-.054.015-.117.042-.181.025-.06.059-.11.096-.147-.007-.033-.026-.081-.064-.088-.027-.004-.055.014-.08.046-.026.035-.047.086-.057.144Z" fill="#007c29" fill-rule="evenodd" />
        <path d="M27.924,15.063c.071-.059.126-.124.157-.18.03-.053.038-.098.018-.122-.017-.02-.05-.02-.074-.016-.027.065-.077.141-.144.213-.045.049-.093.09-.138.121-.044.03-.086.051-.122.061,0,.016-.006.034-.015.052.024.015.067.012.119-.007.06-.022.13-.063.199-.121Z" fill="#007c29" fill-rule="evenodd" />
        <path d="M27.865,14.943c.066-.071.115-.146.141-.209.024-.06.027-.108.003-.131-.03-.028-.091-.006-.123.009-.023.071-.067.155-.129.237-.043.057-.09.107-.135.145-.03.026-.06.047-.088.062.032.004.064.017.079.047.002.005.004.009.005.014.033-.01.072-.029.112-.057.044-.03.09-.07.135-.117Z" fill="#007c29" fill-rule="evenodd" />
        <path d="M27.75,14.458c-.003.014-.006.03-.011.046-.024.08-.075.177-.147.271-.031.041-.065.08-.102.116.004.003.008.007.011.011.029.034.028.086.004.143.031-.015.066-.038.101-.068.044-.038.09-.086.132-.142.064-.085.109-.171.13-.243.02-.068.017-.121-.012-.143-.029-.022-.077-.005-.107.009Z" fill="#007c29" fill-rule="evenodd" />
        <path d="M27.402,14.624c.069-.093.118-.189.139-.267.021-.075.018-.133-.015-.157-.032-.024-.089-.01-.154.031-.069.044-.145.117-.215.211-.031.042-.06.087-.084.134.005.017.008.034.01.052.046-.014.088-.011.118.011.031.023.046.062.045.11.017-.004.035-.006.053-.006.037-.037.071-.077.103-.119Z" fill="#007c29" fill-rule="evenodd" />
        <path d="M27.421,14.636c-.029.039-.06.076-.093.11.018.004.035.012.048.025.023.023.033.057.031.095.022,0,.044.002.064.012.038-.036.072-.076.104-.117.071-.092.12-.186.143-.264.022-.075.02-.133-.012-.157-.039-.03-.107.001-.143.022-.026.095-.084.195-.142.274Z" fill="#007c29" fill-rule="evenodd" />
        <path d="M27.362,14.213c.009-.04.019-.115-.02-.143-.033-.023-.089-.008-.154.034-.068.044-.143.119-.211.214-.017.024-.032.047-.046.07-.013.022-.025.043-.036.064.014.016.024.036.03.058.036-.013.07-.014.098.001.018.01.031.024.04.04.023-.042.049-.082.078-.121.059-.08.137-.163.221-.217Z" fill="#007c29" fill-rule="evenodd" />
        <path d="M26.858,14.182c-.041.057-.075.115-.097.168-.018.043-.031.083-.036.117.047-.039.097-.055.138-.038.005.002.01.005.014.008.01-.02.021-.04.034-.06.014-.024.03-.048.047-.072.069-.096.147-.173.217-.219.014-.009.027-.017.04-.024.005-.032.007-.083-.022-.105-.029-.021-.081-.008-.141.03-.062.041-.132.109-.194.194Z" fill="#007c29" fill-rule="evenodd" />
        <path d="M26.84,14.169c.06-.083.128-.15.189-.192.005-.035.008-.1-.027-.12-.028-.017-.074,0-.124.041-.053.043-.11.111-.159.196-.032.056-.057.112-.073.163-.015.047-.022.09-.021.124.005,0,.01,0,.015.001.033.006.055.033.068.062.006-.031.018-.065.034-.102.023-.055.057-.114.099-.172Z" fill="#007c29" fill-rule="evenodd" />
        <path d="M26.861,13.882c-.003-.024-.013-.056-.037-.066-.028-.012-.069.009-.111.053-.045.046-.091.117-.127.202-.035.083-.054.162-.057.226-.003.055.006.097.028.116.014-.014.029-.024.045-.03-.001-.037.006-.084.023-.135.016-.052.042-.11.075-.167.05-.085.108-.155.162-.2Z" fill="#007c29" fill-rule="evenodd" />
        <path d="M28.367,14.54c.046-.08.075-.16.085-.224.009-.06.002-.105-.025-.121-.016-.009-.035-.006-.051,0,0,.006-.001.012-.003.018-.012.077-.047.172-.103.267-.037.065-.079.121-.121.166-.029.031-.058.056-.086.075.02.002.039.009.053.025.006.007.01.015.013.024.03-.002.068-.024.108-.061.044-.041.09-.099.131-.169Z" fill="#007c29" fill-rule="evenodd" />
        <path d="M28.259,14.068c-.001.01-.003.02-.005.03-.017.078-.059.173-.122.268-.039.059-.081.11-.123.152-.019.019-.038.036-.057.05.026-.003.053,0,.072.018.027.025.03.07.013.126.03-.018.063-.046.096-.081.041-.044.082-.099.119-.162.054-.093.088-.185.1-.259.011-.071.002-.124-.029-.142-.019-.011-.043-.007-.063,0Z" fill="#007c29" fill-rule="evenodd" />
        <path d="M28.115,13.953c-.002.012-.005.025-.008.038-.021.081-.069.18-.138.276h0c-.023.033-.048.064-.073.092-.019.021-.038.041-.057.059.011.002.022.007.032.014.034.026.041.081.024.149.031-.019.065-.046.099-.079.041-.041.082-.091.12-.148.061-.092.102-.185.118-.261.016-.072.01-.127-.022-.148-.028-.019-.069-.005-.096.008Z" fill="#007c29" fill-rule="evenodd" />
        <path d="M27.524,13.948c-.035.047-.065.095-.088.141-.019.037-.034.073-.045.106.061-.032.115-.039.15-.013.035.026.044.079.031.147.029-.02.059-.045.089-.074.037-.036.074-.078.109-.125h0c.069-.093.117-.189.139-.267.021-.074.017-.132-.014-.156-.032-.023-.09-.01-.155.031-.068.043-.145.117-.214.21Z" fill="#007c29" fill-rule="evenodd" />
        <path d="M27.933,13.852c-.001.006-.003.012-.005.018-.022.081-.072.178-.142.274h0c-.036.048-.073.091-.111.128-.014.014-.029.027-.043.039.031-.007.063-.007.087.012.028.021.038.06.034.11.016-.007.034-.012.052-.015.024-.021.049-.046.073-.073.024-.027.048-.057.072-.089.068-.094.114-.19.135-.269.02-.075.015-.134-.017-.157-.038-.027-.1.002-.135.022Z" fill="#007c29" fill-rule="evenodd" />
        <path d="M27.506,13.936c.071-.095.15-.171.221-.216.005-.003.011-.007.016-.01.009-.039.019-.107-.018-.135-.032-.024-.089-.011-.155.029-.069.042-.147.115-.218.207-.024.032-.046.063-.065.095-.019.031-.035.062-.048.091.003.018.003.037,0,.055.046-.019.086-.02.115,0,.025.018.035.048.037.08.007-.017.016-.035.025-.052.024-.046.054-.095.09-.143Z" fill="#007c29" fill-rule="evenodd" />
        <path d="M27.593,13.566c.005-.03.006-.073-.02-.094-.029-.024-.084-.014-.148.022-.067.038-.144.104-.214.189h0c-.044.054-.08.108-.107.159-.022.042-.038.082-.047.118.061-.036.115-.046.15-.02.01.007.017.016.022.027.012-.023.025-.048.04-.072.019-.032.041-.064.066-.096.072-.094.153-.168.224-.212.012-.007.023-.014.034-.019Z" fill="#007c29" fill-rule="evenodd" />
        <path d="M27.441,13.461c0-.021-.002-.045-.018-.06-.027-.025-.08-.018-.144.013-.067.033-.146.092-.219.171-.05.053-.091.109-.12.16-.024.042-.041.081-.05.115.048-.032.092-.043.124-.024.023.013.034.038.038.064.009-.022.019-.045.032-.069.028-.052.065-.108.11-.162h0c.072-.088.151-.155.221-.194.009-.005.018-.01.027-.014Z" fill="#007c29" fill-rule="evenodd" />
        <path d="M26.834,13.669c-.024.049-.034.092-.027.121.009,0,.018.001.026.005.019.008.032.025.039.043.01-.032.026-.068.047-.104.031-.053.073-.11.124-.165.075-.081.156-.142.226-.176.006-.003.011-.005.017-.008,0-.017-.002-.036-.015-.049-.022-.021-.068-.015-.123.011-.058.028-.126.079-.189.146-.055.059-.098.12-.124.174Z" fill="#007c29" fill-rule="evenodd" />
        <path d="M27.427,13.376c.011-.034.03-.07.056-.106.028-.04.064-.08.107-.116.066-.056.137-.094.201-.113-.028-.023-.074-.029-.128-.02-.065.012-.141.046-.213.1-.041.031-.077.066-.105.1-.027.033-.047.067-.059.099h.001c.015.016.021.037.022.057.049-.017.091-.019.119-.001Z" fill="#fed700" fill-rule="evenodd" />
        <path d="M27.586,13.454c.013-.031.03-.062.051-.094.024-.035.052-.071.086-.105.075-.076.158-.13.234-.155.005-.002.01-.003.015-.005-.002-.004-.005-.008-.008-.012-.028-.033-.082-.041-.145-.026-.066.015-.142.055-.213.114-.042.035-.077.074-.104.112-.027.037-.045.075-.055.109.013.017.018.038.018.059.051-.02.094-.02.122.003Z" fill="#fed700" fill-rule="evenodd" />
        <path d="M27.939,13.823c.029-.02.061-.045.092-.075.038-.036.076-.08.112-.128.069-.093.117-.188.139-.266.021-.075.018-.133-.014-.157-.032-.024-.089-.01-.154.032-.069.043-.146.117-.215.21-.029.039-.053.077-.074.115-.021.038-.038.075-.051.109,0,.012-.002.023-.004.034.056-.027.106-.03.139-.007.032.024.042.072.032.133Z" fill="#fed700" fill-rule="evenodd" />
        <path d="M27.77,13.611c.01-.022.021-.045.034-.068.021-.039.047-.078.076-.117.071-.096.15-.171.22-.216.018-.012.036-.021.053-.029-.004-.017-.013-.033-.026-.046-.035-.035-.096-.037-.165-.014-.072.024-.152.076-.225.15-.032.033-.06.067-.083.102-.023.034-.04.068-.053.1.015.024.017.055.014.083.05-.02.093-.02.122.002.017.014.027.033.032.054Z" fill="#fed700" fill-rule="evenodd" />
        <path d="M28.355,13.728c.05-.09.076-.183.078-.259.002-.073-.018-.129-.061-.153-.018-.01-.037-.013-.058-.012-.002.017-.006.036-.011.055-.022.081-.072.178-.143.274-.036.05-.076.094-.114.131-.013.012-.025.023-.038.034.026-.004.051-.002.073.013.03.021.042.063.037.116.026-.011.057-.018.084-.011.027-.022.054-.048.08-.08.026-.032.051-.068.073-.109Z" fill="#fed700" fill-rule="evenodd" />
        <path d="M28.375,13.739c-.023.042-.048.079-.075.113-.024.029-.05.055-.075.076.03.021.042.062.038.116.02-.006.042-.007.062,0,.03-.02.06-.049.088-.085.029-.037.055-.082.077-.132.037-.085.052-.169.048-.237-.005-.065-.027-.114-.067-.131-.005-.002-.009-.004-.014-.005,0,.005,0,.01,0,.015-.002.079-.029.175-.08.268Z" fill="#fed700" fill-rule="evenodd" />
        <path d="M28.44,14.177c.027-.021.053-.05.077-.086.025-.037.048-.081.065-.13.031-.085.042-.168.034-.233-.007-.054-.026-.097-.056-.117,0,.067-.016.146-.05.225-.022.052-.05.098-.079.137-.027.035-.056.063-.085.084.025.022.036.063.033.114.02-.005.042-.006.06.005h.001Z" fill="#fed700" fill-rule="evenodd" />
        <path d="M28.852,13.111c-.021.029-.034.06-.037.087-.003.025.003.045.017.056.015.011.036.01.059,0,.025-.011.051-.031.072-.06.022-.029.034-.06.037-.087.003-.024-.004-.046-.018-.056-.014-.011-.036-.01-.058,0-.025.011-.051.031-.072.06Z" fill="#963" fill-rule="evenodd" />
        <path d="M28.358,13.286l.052-.07c.038-.051.126-.078.184-.055l.203.08c-.005-.013-.006-.029-.005-.046.003-.03.017-.065.041-.098.024-.032.053-.056.081-.067.003-.001.006-.003.009-.004l-.247-.098c-.077-.03-.167-.03-.252-.004-.084.025-.162.076-.213.144l-.052.07c.006.01.011.022.015.033.042-.014.079-.013.105.006.027.02.039.056.036.104.014,0,.028,0,.042.004Z" fill="#630" fill-rule="evenodd" />
        <path d="M26.801,15.254l.049-.066c-.015-.003-.029-.009-.042-.018-.012-.009-.022-.021-.029-.034l-.059.079s0,.005.004.011c.005.008.013.017.024.025.011.008.022.014.031.016.006.001.01.002.011,0l.01-.013Z" fill="#630" fill-rule="evenodd" />
        <path d="M27.831,10.134c-.05-.005-.09-.045-.096-.095-.042.005-.075.041-.075.085,0,.047.039.086.086.086.044,0,.08-.033.085-.076Z" fill="#630" fill-rule="evenodd" />
        <path d="M27.624,10.155c-.007.012-.011.027-.011.043,0,.047.039.086.086.086.013,0,.026-.003.037-.008,0-.005,0-.009,0-.014,0-.011.002-.021.004-.031-.054-.003-.097-.047-.101-.1-.005.008-.01.016-.014.025Z" fill="#630" fill-rule="evenodd" />
        <path d="M27.854,10.134c.05-.005.09-.045.096-.095.042.005.075.041.075.085,0,.047-.038.086-.086.086-.044,0-.08-.033-.085-.076Z" fill="#630" fill-rule="evenodd" />
        <path d="M28.061,10.155c.007.012.011.027.011.043,0,.047-.038.086-.086.086-.013,0-.026-.003-.037-.008,0-.005,0-.009,0-.014,0-.011-.001-.021-.004-.031.054-.003.097-.047.101-.1.005.008.01.016.014.025Z" fill="#630" fill-rule="evenodd" />
        <path d="M27.842,10.37c-.034,0-.064-.016-.084-.04v.655c0,.107-.053.206-.141.266-.041.027-.074.063-.098.106h.647c-.023-.043-.057-.079-.098-.106-.088-.059-.141-.159-.141-.266v-.655c-.02.024-.05.04-.084.04h0ZM27.959,11.255c-.008-.002-.015-.003-.023-.003-.018,0-.035.005-.05.015-.015.01-.027.023-.034.04-.002.004-.006.006-.01.006-.004,0-.008-.002-.01-.006-.007-.016-.019-.03-.034-.04-.014-.009-.031-.015-.05-.015-.008,0-.016,0-.023.003-.006.002-.012-.002-.014-.008-.001-.006.002-.012.008-.014.009-.003.02-.004.029-.004.023,0,.044.007.062.018.013.008.024.019.032.031.008-.012.019-.023.032-.031.018-.012.039-.018.062-.018.01,0,.02.001.029.004.006.001.009.008.008.014-.002.006-.008.009-.014.008Z" fill="#963" fill-rule="evenodd" />
        <path d="M27.842,10.171c-.015.031-.044.053-.08.059-.004.01-.006.021-.006.032,0,.047.038.086.086.086s.086-.039.086-.086c0-.011-.002-.022-.006-.032-.035-.006-.064-.028-.08-.059Z" fill="#630" fill-rule="evenodd" />
        <path d="M27.842,9.941c-.047,0-.086.038-.086.086s.038.086.086.086.086-.038.086-.086-.039-.086-.086-.086Z" fill="#630" fill-rule="evenodd" />
        <path d="M27.776,9.458c.001.005-.001.01-.006.012-.005.003-.012,0-.015-.005-.033-.068-.076-.13-.129-.186-.051-.054-.11-.101-.177-.14-.185-.107-.396-.129-.587-.077-.191.051-.362.175-.469.36-.01.018-.021.037-.029.056.021-.021.043-.041.065-.059.039-.032.081-.06.124-.084.003-.002.006-.002.009-.001.006.002.009.008.007.014-.01.03-.016.06-.02.091.018-.026.037-.051.057-.075.03-.035.062-.067.097-.096.004-.003.009-.004.014,0,.005.003.006.01.002.015l-.016.026c-.015.026-.027.054-.036.082-.004.014-.007.027-.01.041.022-.033.046-.063.072-.091.037-.041.078-.077.122-.109.004-.004.011-.003.015,0,.004.004.004.011,0,.016-.018.017-.033.037-.046.059-.013.023-.023.047-.028.071-.003.014-.005.027-.006.041.024-.034.051-.066.079-.095.038-.039.079-.073.122-.103.005-.003.012-.002.015.003.003.005.002.012-.003.015-.018.013-.034.027-.049.043-.015.016-.028.034-.039.053-.012.021-.021.043-.028.067.03-.031.062-.059.096-.085.046-.034.094-.063.145-.086.005-.003.012,0,.015.005.003.005,0,.012-.005.014-.043.021-.077.051-.101.093-.011.019-.019.039-.024.06.035-.028.072-.052.111-.073.048-.026.098-.048.15-.064.005-.002.011.001.013.006.003.006,0,.012-.006.014-.022.009-.042.021-.06.037-.022.019-.04.043-.053.069.033-.016.067-.029.102-.04.044-.014.09-.024.135-.031.005,0,.01.002.012.007.002.006,0,.012-.006.014-.037.014-.069.037-.092.069.027-.007.054-.012.082-.016.037-.005.074-.008.112-.008.005,0,.009.003.011.007.002.006-.001.012-.007.014-.028.01-.052.027-.07.05.021.006.042.013.062.022.073.029.139.073.195.128.037.036.068.076.094.119.002.004.002.009,0,.013-.004.005-.011.005-.016.001-.069-.059-.148-.106-.235-.138-.084-.031-.174-.048-.268-.048-.213,0-.406.086-.546.226-.14.14-.226.333-.226.546,0,.021.001.042.003.063.008-.028.017-.056.027-.083.018-.047.04-.093.065-.136.001-.003.004-.005.007-.005.006-.001.012.003.013.008.006.031.016.061.029.089.002-.032.006-.063.012-.094.008-.045.02-.089.036-.131.001-.005.006-.008.011-.008.006,0,.01.006.01.012-.003.04,0,.081.009.12.003.014.007.027.012.04.003-.039.009-.077.017-.115.012-.054.029-.106.051-.156.002-.006.008-.009.014-.007s.009.008.007.014c-.007.024-.01.049-.01.074,0,.04.009.079.026.115.004-.042.011-.083.021-.122.013-.052.031-.103.054-.15.003-.006.009-.008.015-.005.005.003.008.009.005.015-.019.04-.028.083-.028.127,0,.024.003.048.009.072.01-.042.024-.083.041-.121.022-.052.05-.101.082-.147.003-.005.01-.006.015-.003.005.003.006.011.003.015-.013.019-.023.04-.031.062-.007.021-.01.044-.01.069,0,.022.003.043.009.064.017-.042.037-.081.06-.119.028-.047.061-.09.098-.13.004-.005.01-.005.015-.002.005.004.006.011.002.015-.014.019-.026.04-.034.062-.009.028-.013.057-.011.086.021-.03.044-.059.068-.086.031-.034.065-.065.101-.094.004-.004.01-.004.014,0,.005.004.006.011.002.015-.025.03-.041.067-.045.106.047-.045.099-.085.155-.118.004-.003.01-.003.014,0,.005.004.005.011.001.016-.02.022-.032.049-.036.078.048-.012.097-.018.146-.018.051,0,.102.006.152.019.004,0,.008.005.008.01,0,.006-.004.011-.01.012-.053.003-.106.011-.158.025-.206.055-.37.189-.469.36-.099.171-.132.38-.077.586.005.02.012.041.019.06,0-.029.001-.058.005-.087.005-.05.014-.1.028-.148,0-.003.003-.006.006-.007.005-.003.012,0,.015.005.014.028.031.054.051.079-.006-.031-.01-.062-.013-.093-.004-.046-.003-.092,0-.136,0-.005.004-.009.009-.01.006-.001.012.003.013.009l.007.03c.008.03.019.057.033.084.006.012.014.024.022.036-.007-.039-.012-.077-.014-.116-.002-.055,0-.11.009-.164,0-.005.005-.01.011-.01.006,0,.011.005.011.011,0,.025.002.05.009.074.007.025.017.049.03.071.007.012.016.023.025.033-.007-.041-.01-.083-.011-.123,0-.054.004-.108.013-.159.001-.006.007-.01.013-.009.006.001.01.006.009.013-.004.022-.005.043-.004.065,0,.021.004.043.01.065.005.019.011.036.02.052.002.005.005.01.007.014,0-.043.002-.086.009-.127.008-.056.022-.111.041-.164.002-.006.008-.008.014-.006.005.002.008.008.006.014-.008.022-.012.044-.014.068,0,.023.001.046.008.069.004.016.01.03.017.044.003.005.006.011.009.016.005-.044.014-.088.027-.131.015-.053.035-.103.061-.152.002-.005.009-.007.014-.005.005.002.008.009.006.014-.009.022-.015.045-.016.069-.002.023,0,.047.007.071.001.005.003.01.005.016.012-.033.025-.064.041-.095.019-.037.041-.073.065-.107.017-.026.046-.044.079-.047.005-.055.051-.097.107-.097s.102.043.107.097c.033.003.061.021.079.047.024.034.046.07.065.107.015.031.029.062.041.095.002-.005.003-.011.005-.016.006-.024.008-.047.007-.071-.002-.024-.007-.047-.016-.069-.002-.006,0-.012.006-.014.005-.002.012,0,.014.005.025.048.046.099.061.152.012.042.022.086.027.131.003-.005.006-.011.009-.016.007-.014.012-.028.017-.044.006-.023.008-.046.008-.069-.001-.023-.006-.046-.013-.068-.002-.006,0-.012.007-.014.006-.002.012,0,.014.006.019.053.033.107.041.164.006.042.009.084.008.127.003-.005.005-.01.008-.014.008-.016.014-.034.019-.052.006-.022.009-.043.01-.065.001-.022,0-.044-.005-.065,0-.006.003-.012.009-.013.006-.001.012.003.013.009.01.052.014.105.013.159,0,.041-.004.082-.011.123.009-.01.017-.022.025-.033.013-.022.023-.045.031-.071.006-.024.009-.049.009-.074,0-.006.005-.011.011-.011.006,0,.01.004.011.01.008.054.012.109.009.164-.002.038-.006.077-.014.116.008-.012.015-.024.022-.036.014-.026.025-.054.033-.084l.007-.03c.001-.006.007-.01.013-.009.005,0,.008.005.009.01.004.045.004.09,0,.136-.002.031-.007.062-.013.093.02-.024.037-.05.051-.079.003-.005.009-.007.015-.005.003.001.005.004.006.007.014.048.023.097.028.148.003.029.004.058.005.087.007-.02.013-.04.019-.06.055-.206.022-.415-.077-.586s-.263-.305-.469-.36c-.052-.014-.104-.022-.158-.025-.006,0-.011-.006-.01-.012,0-.005.004-.009.009-.01.049-.013.101-.019.152-.019.049,0,.099.006.146.018-.004-.029-.016-.056-.036-.078-.004-.005-.004-.012,0-.016.004-.003.01-.004.014,0,.056.033.108.072.155.118-.005-.039-.02-.075-.046-.106-.004-.005-.003-.012.002-.015.004-.004.01-.003.014,0,.036.029.07.06.101.094.025.027.048.056.068.086.002-.029-.001-.058-.011-.086-.008-.023-.019-.044-.033-.062-.004-.005-.003-.012.002-.015.004-.004.011-.003.015.002.037.04.07.084.098.13.023.038.043.078.059.119.006-.021.009-.043.009-.064,0-.024-.004-.047-.01-.069-.007-.022-.018-.043-.031-.062-.003-.005-.002-.012.003-.015.005-.003.012-.002.015.003.032.046.06.095.082.147.017.039.031.079.041.121.006-.024.009-.048.009-.072,0-.044-.01-.087-.028-.127-.003-.006,0-.012.005-.015.006-.003.012,0,.015.005.023.048.041.098.054.15.01.04.017.081.021.122.018-.036.026-.075.026-.115,0-.025-.003-.05-.01-.074-.002-.006.002-.012.007-.014.006-.002.012.002.014.007.022.05.039.102.051.156.008.037.014.075.017.115.004-.013.008-.027.012-.04.009-.039.012-.08.009-.12,0-.006.004-.011.01-.012.005,0,.01.003.011.008.016.042.027.086.036.131.006.031.01.062.012.094.013-.029.022-.058.029-.089.001-.006.007-.01.013-.008.003,0,.006.003.007.005.025.043.047.088.065.136.01.027.019.055.027.083.002-.021.002-.042.002-.063,0-.213-.086-.406-.226-.546-.14-.14-.333-.226-.546-.226-.094,0-.184.017-.268.048-.087.032-.166.079-.235.138-.005.004-.012.003-.016-.001-.003-.004-.003-.009,0-.013.026-.043.057-.083.093-.119.056-.055.122-.098.195-.128.02-.008.041-.016.062-.022-.018-.023-.042-.041-.07-.05-.006-.002-.009-.008-.007-.014.001-.005.006-.008.011-.007.037,0,.075.003.112.008.027.004.055.009.082.016-.023-.032-.055-.055-.092-.069-.006-.002-.009-.008-.006-.014.002-.005.007-.008.012-.007.046.007.091.017.136.031.035.011.069.025.102.04-.013-.026-.031-.05-.053-.069-.018-.016-.038-.028-.06-.037-.006-.002-.008-.009-.006-.014.002-.005.008-.008.013-.006.052.016.103.038.15.064.039.021.076.046.111.073-.005-.021-.013-.042-.024-.06-.024-.041-.058-.072-.101-.093-.005-.003-.008-.009-.005-.014.002-.006.009-.008.014-.005.051.023.099.052.145.086.034.026.066.054.096.085-.006-.023-.016-.046-.028-.067-.011-.019-.024-.037-.039-.053-.015-.016-.031-.03-.049-.043-.005-.003-.006-.01-.003-.015.003-.005.01-.006.015-.003.044.03.084.065.122.103.028.029.055.061.079.095,0-.014-.003-.027-.006-.041-.006-.024-.015-.049-.028-.071-.013-.022-.028-.041-.046-.059-.004-.004-.005-.011,0-.016.004-.004.011-.005.015,0,.044.032.085.068.122.109.026.028.05.059.072.091-.003-.014-.006-.028-.01-.041-.008-.028-.02-.056-.036-.082l-.016-.026c-.004-.005-.002-.012.003-.015.004-.003.009-.003.013,0,.034.029.067.061.097.096.02.024.039.049.057.075-.003-.031-.01-.061-.02-.091-.002-.006.001-.012.007-.014.003-.001.007,0,.009.001.043.024.085.052.124.084.022.018.044.038.065.059-.009-.019-.019-.038-.029-.056-.107-.185-.278-.309-.469-.36-.191-.051-.402-.029-.587.077-.067.039-.126.087-.177.14-.052.056-.095.118-.129.186-.003.005-.009.008-.015.005-.005-.002-.007-.007-.006-.012.008-.062.023-.122.044-.179.015-.04.033-.078.054-.114-.013.011-.026.023-.038.035-.025.027-.047.056-.066.088-.002.003-.006.005-.01.005-.006,0-.011-.005-.011-.011,0-.089.008-.176.021-.261.008-.052.018-.103.031-.153-.004.01-.009.019-.013.029-.018.041-.034.084-.048.128-.001.004-.004.006-.008.007-.006.001-.012-.002-.013-.008-.013-.057-.03-.114-.052-.167-.011-.027-.022-.054-.035-.08.011.05.02.1.027.151.011.08.016.161.016.243,0,.04-.001.081-.004.121,0,.004-.002.007-.006.009-.005.003-.012.001-.015-.004-.018-.034-.041-.065-.067-.093-.013-.014-.026-.027-.041-.039.021.036.039.075.054.114.022.056.037.116.044.178Z" fill="#007c29" fill-rule="evenodd" />
        <path d="M22.961,9.683c-.021-.098-.062-.187-.12-.264-.061-.083-.141-.152-.233-.2-.01.005-.019.01-.029.015-.099.075-.18.172-.236.283-.054.108-.084.229-.084.358,0,.037.002.074.008.111.076.087.122.202.122.327,0,.045-.006.09-.018.133.024.024.045.051.063.081.032.032.059.069.082.108.01.017.019.035.027.053.024.028.045.058.063.089.011.018.021.038.03.058.02.038.036.078.047.12.006.021.01.042.013.064.008.039.012.079.012.118,0,.022-.001.044-.004.066,0,.016-.016.03-.041.039-.022.008-.052.013-.084.013s-.062-.005-.084-.013c-.024-.009-.04-.022-.04-.039-.003-.022-.004-.044-.004-.066,0-.019,0-.037.003-.056-.008-.02-.014-.039-.019-.06-.005-.019-.009-.039-.012-.058-.013-.015-.028-.04-.038-.058-.018-.031-.033-.065-.045-.099-.012-.016-.023-.033-.033-.05-.012-.02-.022-.041-.03-.062-.008-.02-.016-.041-.022-.061-.059-.06-.139-.092-.222-.092-.086,0-.165.035-.222.092-.057.057-.092.135-.092.222,0,.032.005.064.014.094.002.006-.001.012-.007.014-.005.002-.011,0-.013-.005-.018-.032-.033-.066-.043-.103-.01-.035-.015-.073-.015-.111,0-.116.047-.221.123-.297.076-.076.181-.123.297-.123.008,0,.016,0,.025,0-.029-.044-.055-.09-.079-.137-.026-.052-.05-.105-.071-.16-.041-.014-.086-.022-.132-.022-.105,0-.201.041-.272.109-.071.067-.117.162-.122.266,0,.006-.006.011-.012.011-.005,0-.01-.004-.01-.01-.021-.154.031-.308.141-.419.088-.088.209-.143.343-.145-.012-.055-.022-.111-.029-.168-.007-.061-.01-.123-.01-.185,0-.008,0-.016,0-.023-.03-.02-.065-.03-.101-.03-.052,0-.099.021-.133.055-.034.034-.055.081-.055.132,0,.044.015.086.042.119.004.004.004.009.001.014-.003.005-.01.007-.015.003-.047-.032-.086-.075-.113-.125-.026-.049-.041-.104-.041-.163,0-.095.039-.182.101-.245.072-.072.171-.108.272-.1.09.007.169.048.227.11.066.071.098.166.091.262,0,.011-.001.023-.001.034.027-.11.084-.209.162-.286.03-.03.063-.057.098-.08-.11-.045-.182-.152-.182-.271,0-.02.002-.041.006-.061,0-.003.003-.006.006-.008.006-.002.012,0,.014.006.018.042.046.079.081.107.035.028.076.047.122.055.082.013.162.038.236.074.017-.001.035-.002.052-.002.099,0,.196.024.283.069.005.003.008.009.005.015-.002.004-.006.006-.011.006-.057,0-.112.004-.166.014.052.041.098.087.14.139.04.05.074.104.102.161.034-.118.098-.224.183-.309.13-.13.31-.211.509-.211.071,0,.139-.009.204-.026.067-.017.132-.043.191-.076.005-.003.012,0,.015.004.002.003.002.006,0,.01-.032.083-.09.154-.162.204-.071.049-.156.077-.249.077-.145,0-.277.059-.372.154-.095.095-.154.227-.154.372,0,.012,0,.023.001.035.018-.003.035-.004.053-.004.102,0,.194.041.26.108.067.067.108.159.108.26,0,.064-.016.124-.045.176-.03.054-.073.1-.124.133-.003.002-.007.002-.011,0-.005-.003-.008-.009-.005-.015.023-.047.034-.098.034-.151,0-.079-.027-.152-.071-.211-.045-.058-.107-.102-.18-.122-.006.004-.011.009-.016.014-.04.036-.067.086-.075.143-.002.027-.007.053-.015.078.01.04.015.082.015.123,0,.019-.001.038-.003.057.006.023.01.046.013.07.003.024.005.048.005.072,0,.022-.001.043-.004.065.007.026.012.053.015.08.003.027.005.055.005.083,0,.025-.001.05-.004.074.008.03.014.06.018.091.004.031.006.062.006.094,0,.028-.002.057-.005.085,0,.02-.02.037-.051.048-.028.01-.066.017-.108.017s-.08-.006-.109-.017c-.031-.011-.05-.028-.051-.048-.003-.028-.005-.057-.005-.085,0-.032.002-.063.006-.094.004-.031.01-.061.017-.091-.002-.025-.004-.049-.004-.074,0-.028.002-.055.005-.083.004-.027.009-.054.015-.08-.003-.021-.004-.043-.004-.065,0-.024.002-.049.004-.072.003-.024.008-.047.013-.07-.002-.019-.003-.038-.003-.057,0-.042.005-.084.016-.125.003-.011.004-.021.004-.032,0-.033-.014-.064-.036-.086-.022-.022-.052-.036-.086-.036-.006,0-.012,0-.018.001.029.075.043.155.043.236s-.014.158-.041.23c-.028.074-.068.142-.119.201-.002.003-.007.005-.011.004-.006-.001-.01-.007-.008-.013.006-.032.01-.064.01-.096,0-.054-.01-.107-.027-.155-.018-.05-.045-.096-.078-.137-.052-.06-.081-.137-.081-.217,0-.091.037-.174.097-.233.06-.06.143-.097.234-.097.044,0,.084.008.125.024Z" fill-rule="evenodd" />
        <path d="M22.957,10.295c-.003.015-.006.031-.008.046-.003.023-.004.046-.004.07,0,.021.001.042.004.063,0,.011.018.017.026.02.02.007.046.012.077.012s.057-.004.076-.012c.008-.003.026-.009.026-.02.002-.021.004-.042.004-.063,0-.024-.002-.047-.004-.07-.002-.016-.005-.031-.008-.046-.005.004-.012.007-.02.01-.019.007-.045.011-.074.011-.029,0-.055-.005-.074-.011-.008-.003-.015-.007-.02-.01Z" fill="#963" fill-rule="evenodd" />
        <path d="M22.942,10.503c-.004.018-.007.037-.009.055-.003.026-.005.053-.005.08,0,.024.001.048.004.073,0,.013.021.021.031.025.022.008.053.013.088.013s.066-.005.088-.013c.01-.004.031-.012.031-.025.003-.024.004-.048.004-.073,0-.027-.002-.054-.005-.08-.002-.018-.005-.037-.009-.055-.007.005-.015.009-.025.013-.022.008-.051.013-.084.013s-.062-.005-.084-.013c-.01-.003-.018-.008-.025-.013Z" fill="#630" fill-rule="evenodd" />
        <path d="M22.926,10.74c-.005.022-.009.044-.011.066-.004.03-.006.06-.006.092,0,.028.001.055.004.083,0,.016.025.025.037.03.026.01.062.016.101.016.04,0,.075-.006.101-.016.012-.004.036-.014.037-.03.003-.028.005-.055.005-.083,0-.031-.002-.062-.006-.092-.003-.022-.006-.044-.011-.066-.008.006-.018.012-.03.016-.025.009-.058.015-.095.015s-.071-.006-.096-.015c-.012-.004-.022-.01-.03-.016Z" fill="#963" fill-rule="evenodd" />
        <path d="M22.603,10.191c.035.042.063.091.082.144.018.051.028.106.028.163,0,.02-.001.039-.003.059.037-.049.067-.104.089-.163.026-.069.04-.144.04-.222,0-.098-.022-.195-.066-.283-.01-.02-.015-.042-.015-.065,0-.041.017-.079.044-.106.016-.016.035-.028.056-.035-.007,0-.015,0-.022,0-.085,0-.162.035-.218.09-.056.056-.09.133-.09.218,0,.075.027.146.075.202Z" fill="#007c29" fill-rule="evenodd" />
        <path d="M22.907,9.695c-.035,0-.067.014-.09.037-.023.023-.037.055-.037.09,0,.019.004.038.012.055.006.012.012.024.016.036.009-.001.018-.002.026-.002.04,0,.076.016.102.042.026.026.042.062.042.102,0,.01-.001.021-.003.032.024.008.05.01.075.01.014,0,.057-.001.077-.011.01-.031.016-.064.016-.097,0-.085-.035-.162-.09-.218-.035-.035-.094-.076-.146-.076Z" fill="#007c29" fill-rule="evenodd" />
        <path d="M23.585,9.864c-.014-.024-.031-.046-.051-.065-.063-.063-.149-.101-.245-.101-.076,0-.149.024-.209.07.042.047.071.107.081.172.014-.033.036-.063.062-.087.046-.042.107-.068.175-.068.071,0,.136.029.183.076l.003.004Z" fill="#007c29" fill-rule="evenodd" />
        <path d="M23.636,10.043c0-.064-.027-.125-.069-.167-.042-.042-.102-.069-.167-.069-.044,0-.085.012-.12.033.07.024.13.068.174.125.048.062.076.14.076.224,0,.042-.007.084-.021.123.035-.028.064-.063.085-.103.027-.049.042-.105.042-.165Z" fill="#007c29" fill-rule="evenodd" />
        <path d="M23.215,9.683c-.001-.013-.001-.026-.001-.039,0-.151.061-.289.161-.388.099-.099.236-.161.388-.161.088,0,.169-.027.236-.073.061-.042.11-.099.142-.166-.053.027-.109.048-.168.064-.067.017-.138.026-.21.026-.192,0-.367.078-.493.204-.157.157-.229.377-.197.596.043-.032.091-.053.143-.064Z" fill="#007c29" fill-rule="evenodd" />
        <path d="M22.497,10.646c-.018-.032-.04-.062-.064-.089-.003.006-.007.012-.012.018-.012.014-.031.03-.054.043-.023.013-.046.022-.065.025-.008.001-.015.002-.021.001.004.014.009.027.015.041.008.02.018.04.029.059.009.016.02.032.03.047.008.012.019.009.033.007.019-.003.043-.012.067-.026.024-.014.045-.031.057-.045.008-.01.016-.019.011-.031-.008-.017-.016-.034-.025-.05Z" fill="#630" fill-rule="evenodd" />
        <path d="M22.542,10.925c.026-.015.048-.033.061-.049.007-.008.017-.021.012-.032-.008-.019-.018-.037-.028-.056-.014-.024-.029-.046-.046-.067-.003.006-.007.013-.013.02-.014.017-.036.035-.063.05-.026.015-.054.025-.075.029-.009.001-.017.002-.024.001.01.025.022.05.035.073.01.018.022.036.035.052.007.01.023.007.033.005.02-.004.046-.013.071-.028Z" fill="#963" fill-rule="evenodd" />
        <path d="M22.554,10.943c-.028.016-.057.027-.079.031-.01.002-.02.002-.028,0,.003.014.006.028.009.041.005.02.012.04.019.059.005.012.02.013.031.014.021.002.048,0,.077-.008.029-.008.054-.019.071-.031.009-.007.022-.015.02-.027-.003-.021-.007-.041-.013-.061-.008-.029-.018-.058-.03-.085-.003.005-.006.01-.011.015-.015.018-.038.037-.066.053Z" fill="#630" fill-rule="evenodd" />
        <path d="M22.68,11.057s-.008.007-.014.011c-.019.013-.046.026-.078.034-.031.008-.062.011-.085.009-.012,0-.022-.003-.03-.007,0,.011-.001.022-.001.034,0,.02.001.04.003.06.001.014.014.018.027.023.019.007.046.012.076.012s.057-.005.076-.012c.014-.005.025-.009.027-.024.002-.02.003-.04.003-.06,0-.027-.002-.054-.006-.081Z" fill="#963" fill-rule="evenodd" />
        <path d="M22.225,10.58c-.022-.033-.051-.061-.084-.083-.048-.031-.105-.05-.166-.05-.074,0-.142.027-.195.071-.067.057-.105.137-.105.225,0,.037.005.072.014.105.002.007.004.014.006.02,0-.005,0-.01,0-.015,0-.093.038-.177.098-.238.061-.061.145-.098.237-.098.07,0,.137.021.194.062Z" fill="#007c29" fill-rule="evenodd" />
        <path d="M21.737,10.53c.009-.01.019-.019.029-.028.056-.048.129-.076.209-.076.066,0,.127.02.178.054.052.035.094.084.119.142.003.003.013.003.025,0,.017-.003.037-.011.058-.023.021-.012.037-.026.048-.039.008-.01.013-.018.011-.023-.035-.059-.085-.108-.145-.142-.058-.033-.125-.051-.196-.051-.11,0-.209.045-.282.117-.02.021-.039.043-.055.068Z" fill="#007c29" fill-rule="evenodd" />
        <path d="M22.23,10.353c.018.007.035.015.051.025.026.014.05.032.072.051.009-.038.014-.077.014-.116,0-.131-.053-.25-.139-.336-.086-.086-.205-.139-.336-.139s-.25.053-.336.139c-.077.077-.127.179-.137.293.021-.067.059-.126.109-.174.074-.071.176-.115.287-.115.108,0,.206.041.281.109.073.066.122.159.133.263Z" fill="#007c29" fill-rule="evenodd" />
        <path d="M22.126,10.326c.028.003.055.009.081.018-.013-.094-.059-.177-.125-.238-.031-.028-.067-.052-.105-.069.019.048.04.094.063.139.026.051.056.101.087.149Z" fill="#007c29" fill-rule="evenodd" />
        <path d="M21.454,9.446c0,.055.014.107.038.152.015.029.035.055.058.077-.01-.025-.015-.051-.015-.078,0-.058.023-.11.061-.148.038-.038.09-.061.148-.061.036,0,.071.009.102.027,0-.011,0-.021,0-.032,0-.052-.019-.099-.05-.133-.032-.035-.077-.057-.129-.059-.037,0-.068.006-.1.024-.078.044-.113.146-.113.231Z" fill="#007c29" fill-rule="evenodd" />
        <path d="M22.144,9.826c.029-.192.123-.363.258-.489.144-.135.335-.22.546-.228-.073-.03-.15-.046-.229-.046-.164,0-.312.066-.419.174-.107.107-.174.255-.174.419,0,.057.008.114.018.171Z" fill="#007c29" fill-rule="evenodd" />
        <path d="M22.241,9.96c-.003-.028-.004-.056-.004-.084,0-.132.031-.257.086-.368.033-.066.074-.127.123-.181-.01.009-.02.017-.029.026-.147.138-.243.328-.259.541.03.019.058.041.083.066Z" fill="#007c29" fill-rule="evenodd" />
        <path d="M22.426,8.991c-.049-.009-.095-.029-.132-.059-.029-.023-.053-.051-.071-.083,0,.007,0,.014,0,.022,0,.116.074.219.183.256.066-.039.14-.066.219-.078-.063-.027-.13-.046-.198-.057Z" fill="#007c29" fill-rule="evenodd" />
        <path d="M23.062,9.477c-.029-.065-.067-.126-.111-.18-.044-.055-.095-.104-.151-.147-.058.013-.115.032-.169.057.089.049.167.117.227.198.062.084.107.182.127.289.023.012.044.026.064.042-.011-.086-.007-.175.014-.26Z" fill="#007c29" fill-rule="evenodd" />
        <path d="M22.101,9.472c.007-.091-.023-.179-.085-.246-.053-.058-.128-.097-.212-.103-.075-.006-.148.014-.208.055.023-.007.047-.01.072-.01.058.002.108.027.144.066.036.039.056.091.056.148,0,.027-.002.054-.002.081,0,.062.003.123.01.183.007.058.017.115.029.171.081.002.157.024.224.061-.01-.048-.017-.097-.023-.146-.009-.086-.012-.173-.007-.259Z" fill="#007c29" fill-rule="evenodd" />
        <path d="M23.41,10.957c-.004.02-.008.041-.01.062-.004.03-.006.061-.006.092,0,.027.001.053.004.08.002.02.02.026.037.033.026.009.061.015.101.015.04,0,.075-.006.101-.015.016-.006.035-.013.037-.032.003-.027.004-.053.004-.081s-.001-.053-.004-.079c-.002-.016-.004-.031-.007-.047-.009.008-.023.014-.04.018-.026.006-.061.006-.099.001-.037-.005-.069-.015-.092-.028-.01-.005-.019-.012-.026-.018Z" fill="#963" fill-rule="evenodd" />
        <path d="M23.692,10.761v-.022c0-.067.02-.157.065-.222.035-.051.084-.088.149-.088.091,0,.165.074.165.164,0,.008,0,.016-.002.024.03-.039.046-.086.046-.134,0-.06-.024-.115-.064-.154-.04-.039-.094-.064-.154-.064-.078,0-.153.05-.217.12-.089.097-.157.231-.186.321,0,.006.008.016.022.025.017.012.041.023.069.031.029.008.056.011.077.009.016-.001.027-.005.03-.01Z" fill="#007c29" fill-rule="evenodd" />
        <path d="M24.133,10.525c.038.02.07.05.092.086.027.043.039.092.037.142.025-.045.038-.095.038-.147,0-.078-.03-.149-.078-.202-.041-.044-.094-.077-.155-.091.043.043.07.103.07.169,0,.015-.001.029-.004.043Z" fill="#007c29" fill-rule="evenodd" />
        <path d="M23.899,10.242c.01-.083.049-.157.108-.211.061-.055.141-.089.23-.089.051,0,.1.011.143.032-.01-.007-.02-.014-.031-.02-.067-.04-.144-.063-.228-.063-.123,0-.234.05-.314.13-.088.088-.134.208-.13.333.065-.066.139-.112.219-.112h.003Z" fill="#007c29" fill-rule="evenodd" />
        <path d="M23.996,10.076c.02-.003.041-.004.062-.004.116,0,.222.042.303.112.076.065.13.154.152.254.027-.048.041-.101.041-.156,0-.175-.142-.317-.317-.317-.083,0-.158.031-.215.083-.009.009-.018.018-.027.028Z" fill="#007c29" fill-rule="evenodd" />
        <path d="M24.455,9.267c-.09,0-.157.069-.205.162-.006.011-.011.023-.017.035.009-.009.019-.017.029-.025.039-.029.088-.045.14-.045.065,0,.124.027.167.069.043.043.069.102.069.168,0,.008,0,.016-.001.024.004-.009.008-.018.011-.027.011-.032.017-.066.017-.102,0-.122-.075-.26-.211-.26Z" fill="#007c29" fill-rule="evenodd" />
        <path d="M24.126,9.869c.001-.108.031-.306.105-.45.051-.1.125-.174.224-.174.011,0,.022,0,.033.003-.039-.018-.083-.029-.13-.029-.13,0-.232.085-.308.202-.1.155-.154.366-.163.512.069-.04.149-.063.234-.063h.004Z" fill="#007c29" fill-rule="evenodd" />
        <path d="M23.417,10.927c0,.008.011.019.03.028.021.011.051.02.085.025.035.005.067.004.091,0,.018-.004.031-.006.037-.025l.01-.034c.007-.026.012-.052.016-.078.003-.019.004-.037.005-.055-.008.003-.017.005-.028.006-.023.002-.053-.001-.084-.01-.031-.008-.058-.021-.076-.034-.009-.006-.016-.013-.022-.02-.008.017-.016.034-.023.051-.01.024-.019.05-.026.076-.006.023-.011.047-.015.071Z" fill="#630" fill-rule="evenodd" />
        <path d="M23.132,10.108c-.022.009-.057.011-.08.011-.023,0-.059-.002-.08-.011-.008.035-.011.069-.011.105,0,.019,0,.037.003.055,0,.009.015.014.022.017.017.006.04.01.067.01s.049-.004.066-.01c.007-.003.022-.008.022-.017.002-.018.003-.037.003-.055,0-.035-.004-.07-.011-.105Z" fill="#630" fill-rule="evenodd" />
      </g>
    </g>
  </g>
</g></svg>