<?xml version="1.0" encoding="UTF-8"?>
<svg id="Layer_2" data-name="Layer 2" xmlns="http://www.w3.org/2000/svg" viewBox="0 0 33.945 22.631">
  <g id="_Ñëîé_1" data-name="Ñëîé 1">
    <g>
      <g>
        <rect width="33.945" height="22.631" fill="#fff"/>
        <rect width="33.945" height="5.165" fill="red"/>
        <rect y="17.466" width="33.945" height="5.165" fill="red"/>
      </g>
      <g>
        <g>
          <path d="M22.023,13.352c-.079.196-.169.387-.27.571h-2.082c.066-.047.128-.1.185-.157.083-.083.156-.176.218-.277.072.021.149.032.229.032.176,0,.34-.056.474-.151.188-.135.405-.206.636-.206.22,0,.429.065.61.188h0ZM19.284,16.246c-.702.329-1.485.514-2.311.514s-1.609-.184-2.311-.514c.136-.021.262-.07.37-.139.209-.135.45-.206.708-.206s.499.071.707.206c.148.096.33.151.526.151s.378-.056.526-.151c.209-.135.45-.206.708-.206s.499.071.707.206c.108.069.234.118.37.139h0ZM20.634,15.345c-.158.144-.325.278-.499.403h-6.325c-.174-.124-.341-.259-.499-.403.18-.007.347-.062.486-.15.209-.135.45-.206.707-.206s.499.071.708.206c.149.095.33.151.526.151s.377-.056.526-.151c.209-.135.45-.206.707-.206s.499.071.707.206c.149.095.33.151.526.151s.378-.056.526-.151c.209-.135.45-.206.708-.206s.499.071.707.206c.138.088.305.143.486.15h0ZM21.446,14.418c-.1.144-.207.283-.321.417h-8.306c-.113-.133-.22-.273-.321-.417.121-.023.233-.07.33-.136.196-.135.423-.206.665-.206s.469.071.665.206c.14.095.31.151.495.151s.355-.056.495-.151c.196-.135.423-.206.665-.206s.469.071.665.206c.14.095.31.151.495.151s.355-.056.495-.151c.196-.135.423-.206.665-.206s.469.071.665.206c.14.095.31.151.494.151s.355-.056.495-.151c.196-.135.423-.206.665-.206s.469.071.665.206c.097.066.209.113.33.136h0ZM17.949,13.923h-1.952c.23-.165.41-.393.515-.656.143-.067.299-.103.461-.103s.318.035.461.103c.105.264.285.491.515.656h0ZM14.275,13.923h-2.082c-.101-.184-.191-.375-.27-.571.182-.123.39-.188.61-.188.231,0,.449.071.637.206.133.095.297.151.473.151.079,0,.156-.011.229-.032.061.101.135.194.218.277.057.057.119.11.185.157h0ZM22.334,12.268c-.045.254-.108.502-.187.743h-1.886c.019-.094.029-.192.029-.292v-.467c.24,0,.454.066.65.206.133.095.297.151.473.151s.34-.056.474-.151c.135-.097.287-.162.447-.19h0ZM17.358,13.011h-.77c.019-.095.029-.192.029-.292v-.16c0-.011,0-.022-.003-.033.108.053.23.083.359.083s.251-.03.359-.083c-.002.01-.003.022-.003.033v.16c0,.1.01.197.029.292h0ZM13.684,13.011h-1.886c-.079-.241-.141-.489-.186-.743.161.028.312.092.447.19.134.095.297.151.474.151s.34-.056.473-.151c.196-.14.41-.206.65-.206v.467c0,.1.01.197.029.292Z" fill="#039" fill-rule="evenodd"/>
          <path d="M18.278,6.029c.408.101.798.247,1.164.433l-1.158,2.15v-.606c0-.154-.126-.28-.28-.28-.073,0-.144-.01-.211-.03l.485-1.667h0ZM15.662,8.612l-1.159-2.15c.366-.187.756-.333,1.164-.433l.102.351c-.069.16-.108.336-.108.523v1.71h0ZM19.872,6.707l-1.588,2.495v.708l.961-.973c-.023-.048-.037-.101-.037-.158,0-.082.029-.159.077-.219-.048-.061-.077-.138-.077-.221,0-.113.092-.205.205-.205h.626l.719-.729c-.27-.262-.568-.495-.887-.697h0ZM21.081,7.743c.281.323.524.679.723,1.061l-1.53.749c-.013-.042-.034-.082-.061-.116.048-.061.077-.137.077-.219,0-.084-.029-.16-.077-.221.048-.061.077-.137.077-.22s-.029-.16-.076-.22c.025-.031.044-.067.057-.105l.811-.71h0ZM19.208,10.076l-.924.453v-.336l.953-.835c.012.03.029.057.048.081-.048.061-.077.137-.077.22v.416h0ZM21.998,9.219c.165.395.285.815.353,1.252l-2.062.15v-.713l1.709-.688h0ZM19.208,10.699v-.356l-1.077.434,1.077-.078h0ZM22.402,10.918c.01.131.015.264.015.398,0,.284-.022.563-.064.835h-2.063v-1.233h2.113ZM13.656,12.151h-2.063c-.042-.272-.064-.551-.064-.835,0-.134.005-.266.014-.398h2.113v1.233h0ZM11.594,10.471c.068-.436.188-.856.353-1.252l1.709.688v.713l-2.062-.15h0ZM14.737,10.344l1.076.434-1.076-.078v-.355h0ZM12.141,8.804l1.53.749c.013-.042.034-.082.061-.116-.048-.061-.077-.137-.077-.219,0-.084.029-.16.077-.221-.048-.061-.077-.137-.077-.22s.029-.16.076-.22c-.024-.031-.044-.066-.057-.105l-.811-.71c-.281.323-.524.678-.723,1.061h0ZM14.708,9.358c-.012.029-.029.056-.048.081.048.061.077.137.077.22v.416l.924.453v-.336l-.953-.834h0ZM13.186,7.404l.72.729h.626c.113,0,.205.092.205.205,0,.084-.029.16-.077.221.048.061.077.137.077.219,0,.056-.013.11-.037.158l.961.973v-.708l-1.588-2.495c-.32.202-.617.435-.887.697Z" fill="#fea000" fill-rule="evenodd"/>
        </g>
        <g>
          <g>
            <path d="M14.814,11.998c-.042,0-.076.034-.076.076s.034.076.076.076h4.318c.042,0,.076-.034.076-.076s-.034-.076-.076-.076h-4.318Z" fill="#7c0000" fill-rule="evenodd"/>
            <g>
              <path d="M15.587,11.636c.03.03.03.078,0,.108-.03.03-.078.03-.108,0l-.267-.267-.267.267c-.03.03-.078.03-.108,0-.03-.03-.03-.078,0-.108l.267-.267-.267-.267c-.03-.03-.03-.078,0-.108.03-.03.078-.03.108,0l.191.191v-.219c0-.042.034-.076.076-.076s.076.034.076.076v.219l.191-.191c.03-.03.078-.03.108,0,.03.03.03.078,0,.108l-.267.267.267.267Z" fill="#7c0000" fill-rule="evenodd"/>
              <path d="M17.348,11.636c.03.03.03.078,0,.108-.03.03-.078.03-.108,0l-.267-.267-.267.267c-.03.03-.078.03-.108,0-.03-.03-.03-.078,0-.108l.267-.267-.267-.267c-.03-.03-.03-.078,0-.108.03-.03.078-.03.108,0l.191.191v-.219c0-.042.034-.076.076-.076s.076.034.076.076v.219l.191-.191c.03-.03.078-.03.108,0,.03.03.03.078,0,.108l-.267.267.267.267Z" fill="#7c0000" fill-rule="evenodd"/>
              <path d="M16.468,11.636c.03.03.03.078,0,.108-.03.03-.078.03-.108,0l-.267-.267-.267.267c-.03.03-.078.03-.108,0-.03-.03-.03-.078,0-.108l.267-.267-.267-.267c-.03-.03-.03-.078,0-.108.03-.03.079-.03.108,0l.191.191v-.219c0-.042.034-.076.076-.076s.077.034.077.076v.219l.19-.191c.03-.03.078-.03.108,0,.03.03.03.078,0,.108l-.267.267.267.267Z" fill="#7c0000" fill-rule="evenodd"/>
              <path d="M19.109,11.636c.03.03.03.078,0,.108-.03.03-.078.03-.108,0l-.267-.267-.267.267c-.03.03-.078.03-.108,0-.03-.03-.03-.078,0-.108l.267-.267-.267-.267c-.03-.03-.03-.078,0-.108.03-.03.078-.03.108,0l.191.191v-.219c0-.042.034-.076.077-.076s.076.034.076.076v.219l.191-.191c.03-.03.078-.03.108,0,.03.03.03.078,0,.108l-.267.267.267.267Z" fill="#7c0000" fill-rule="evenodd"/>
              <path d="M18.228,11.636c.03.03.03.078,0,.108-.03.03-.078.03-.108,0l-.267-.267-.267.267c-.03.03-.078.03-.108,0-.03-.03-.03-.078,0-.108l.267-.267-.267-.267c-.03-.03-.03-.078,0-.108.03-.03.079-.03.108,0l.191.191v-.219c0-.042.034-.076.076-.076s.077.034.077.076v.219l.19-.191c.03-.03.078-.03.108,0,.03.03.03.078,0,.108l-.267.267.267.267Z" fill="#7c0000" fill-rule="evenodd"/>
            </g>
          </g>
          <g>
            <path d="M16.972,5.871c.157,0,.314.007.468.02.157.013.312.033.465.059.031.005.051.034.046.064-.005.026-.027.045-.052.047-.245.026-.463.144-.62.317-.156.173-.25.401-.25.652,0,.269.109.513.285.69.176.176.42.286.69.286.031,0,.056.025.056.056v2.605c0,.031-.025.056-.056.056l-.018-.003-2.058-.551c-.025-.007-.042-.03-.042-.054v-3.156c0-.302.12-.571.315-.766.196-.197.469-.318.772-.321Z" fill="#7c0000" fill-rule="evenodd"/>
            <path d="M17.431,6.003c-.151-.013-.304-.02-.458-.02-.271.003-.516.112-.693.289-.175.175-.282.416-.282.687v3.113l1.95.523v-2.477c-.278-.014-.528-.133-.713-.317-.197-.197-.319-.469-.319-.769,0-.279.106-.534.279-.727.111-.124.251-.222.408-.284l-.173-.017Z" fill="red" fill-rule="evenodd"/>
          </g>
          <g>
            <path d="M17.585,12.303c.196.295.531.49.912.49.118,0,.231-.019.338-.053-.103-.185-.258-.337-.445-.437h-.805Z" fill="#7c0000" fill-rule="evenodd"/>
            <g>
              <path d="M19.933,8.545l-.009.004s-.004.005-.004.008c0,.003.002.006.004.008l.009.005c.057,0,.109.023.147.061.037.037.061.089.061.147s-.024.109-.062.146-.09.061-.147.061l-.007.003s-.004.006-.004.01c0,.003.002.006.004.008l.009.005c.057,0,.109.023.147.061.037.038.061.09.061.147s-.024.109-.062.147c-.038.037-.09.061-.147.061l-.007.004s-.004.006-.004.009c0,.003.002.006.004.008l.009.005c.057,0,.109.023.147.061.037.037.061.089.061.147v3.06c0,.367-.149.7-.39.941s-.574.39-.941.39-.7-.149-.941-.39c-.241-.241-.39-.573-.39-.941v-.16c0-.031.025-.056.056-.056.018,0,.035.009.045.022.113.13.254.235.413.308.154.07.325.109.506.109.169,0,.329-.034.475-.096h.003c.143-.062.273-.15.382-.259v-2.928c0-.057.024-.109.062-.147.038-.037.09-.061.147-.061l.008-.004s.003-.005.003-.009c0-.003-.001-.006-.004-.008l-.009-.005c-.057,0-.109-.023-.147-.061l-.003-.003c-.036-.037-.057-.088-.057-.143,0-.057.024-.109.062-.147.038-.037.09-.061.147-.061l.008-.004s.003-.006.003-.009c0-.003-.001-.006-.004-.008l-.009-.005c-.057,0-.109-.023-.147-.061l-.003-.003c-.036-.037-.057-.088-.057-.143,0-.057.024-.109.062-.147.038-.037.09-.061.147-.061l.007-.003s.004-.006.004-.009c0-.003-.001-.006-.004-.008l-.009-.004c-.057,0-.109-.023-.147-.061-.037-.038-.061-.09-.061-.147,0-.031.025-.056.056-.056h.671c.031,0,.056.025.056.056,0,.057-.023.109-.061.147-.038.037-.09.061-.147.061Z" fill="#7c0000" fill-rule="evenodd"/>
              <path d="M20.01,8.393h-.522c.017.024.046.039.078.039.068.002.124.057.124.125s-.054.123-.122.125c-.053,0-.098.042-.098.095,0,.053.043.095.096.095.068.002.124.057.124.125,0,.067-.054.123-.122.125-.053,0-.098.042-.098.095s.043.095.096.095c.068.002.124.057.124.125s-.054.123-.122.125c-.053,0-.098.042-.098.095v2.974l-.016.016c-.252.26-.595.405-.956.405-.34,0-.662-.128-.907-.357v.022c0,.673.546,1.219,1.219,1.219s1.219-.546,1.219-1.219v-3.06c0-.052-.043-.095-.096-.095-.068-.002-.124-.057-.124-.125s.054-.123.122-.125c.053,0,.098-.043.098-.095s-.043-.095-.096-.095c-.068-.002-.124-.057-.124-.125s.054-.123.122-.125c.053,0,.098-.042.098-.095s-.043-.095-.096-.095c-.068-.002-.124-.057-.124-.125s.056-.123.124-.125c.032,0,.06-.016.078-.039Z" fill="red" fill-rule="evenodd"/>
            </g>
          </g>
          <g>
            <path d="M16.36,12.303c-.196.295-.532.49-.912.49-.118,0-.231-.019-.338-.053.103-.185.258-.337.445-.437h.805Z" fill="#7c0000" fill-rule="evenodd"/>
            <g>
              <path d="M14.013,8.545l.009.004s.004.005.004.008c0,.003-.002.006-.004.008l-.009.005c-.057,0-.109.023-.147.061-.037.037-.061.089-.061.147s.024.109.062.146c.038.037.09.061.147.061l.008.003s.004.006.004.01c0,.003-.002.006-.004.008l-.009.005c-.057,0-.109.023-.147.061-.037.038-.061.09-.061.147s.024.109.062.147c.038.037.09.061.147.061l.008.004s.004.006.004.009c0,.003-.002.006-.004.008l-.009.005c-.057,0-.109.023-.147.061-.037.037-.061.089-.061.147v3.06c0,.367.149.7.39.941.241.241.574.39.941.39s.7-.149.941-.39c.241-.241.39-.573.39-.941v-.16c0-.031-.025-.056-.056-.056-.018,0-.035.009-.045.022-.113.13-.254.235-.413.308-.153.07-.325.109-.505.109-.169,0-.329-.034-.475-.096h-.003c-.143-.062-.273-.15-.382-.259v-2.928c0-.057-.024-.109-.062-.147-.038-.037-.09-.061-.147-.061l-.008-.004s-.004-.005-.004-.009c0-.003.002-.006.004-.008l.009-.005c.057,0,.109-.023.147-.061l.003-.003c.035-.037.058-.088.058-.143,0-.057-.024-.109-.062-.147-.038-.037-.09-.061-.147-.061l-.008-.004s-.004-.006-.004-.009c0-.003.002-.006.004-.008l.009-.005c.057,0,.109-.023.147-.061l.003-.003c.035-.037.058-.088.058-.143,0-.057-.024-.109-.062-.147s-.09-.061-.147-.061l-.007-.003s-.004-.006-.004-.009c0-.003.002-.006.004-.008l.009-.004c.057,0,.109-.023.147-.061.038-.038.061-.09.061-.147,0-.031-.025-.056-.056-.056h-.671c-.031,0-.056.025-.056.056,0,.057.023.109.061.147.037.037.089.061.147.061Z" fill="#7c0000" fill-rule="evenodd"/>
              <path d="M13.935,8.393h.522c-.017.024-.046.039-.078.039-.068.002-.124.057-.124.125s.054.123.123.125c.053,0,.098.042.098.095,0,.053-.043.095-.096.095-.068.002-.124.057-.124.125,0,.067.054.123.123.125.053,0,.098.042.098.095s-.043.095-.096.095c-.068.002-.124.057-.124.125s.054.123.123.125c.053,0,.098.042.098.095v2.974l.016.016c.252.26.595.405.956.405.34,0,.662-.128.907-.357v.022c0,.673-.546,1.219-1.219,1.219s-1.219-.546-1.219-1.219v-3.06c0-.052.043-.095.096-.095.068-.002.124-.057.124-.125s-.054-.123-.122-.125c-.053,0-.098-.043-.098-.095s.043-.095.096-.095c.068-.002.124-.057.124-.125s-.054-.123-.122-.125c-.053,0-.098-.042-.098-.095s.043-.095.096-.095c.068-.002.124-.057.124-.125s-.056-.123-.124-.125c-.032,0-.061-.016-.078-.039Z" fill="red" fill-rule="evenodd"/>
            </g>
          </g>
        </g>
      </g>
    </g>
  </g>
</svg>