<?xml version="1.0" encoding="UTF-8"?>
<svg id="Layer_2" data-name="Layer 2" xmlns="http://www.w3.org/2000/svg" viewBox="0 0 118.961 79.168">
  <g id="Layer_1-2" data-name="Layer 1">
    <g>
      <rect width="118.961" height="79.168" fill="#fff"/>
      <polygon points="23.061 9.095 28.52 9.095 27.689 14.535 33.151 14.229 33.151 19.06 27.808 18.553 28.462 23.942 23.061 23.942 23.653 18.553 18.193 19.314 18.193 13.977 23.653 14.535 23.061 9.095" fill="#ee2d37"/>
      <polygon points="23.061 56.279 28.52 56.279 27.689 61.719 33.151 61.414 33.151 66.244 27.808 65.735 28.462 71.124 23.061 71.124 23.653 65.735 18.193 66.498 18.193 61.16 23.653 61.719 23.061 56.279" fill="#ee2d37"/>
      <polygon points="90.578 56.076 96.038 56.076 95.208 61.517 100.669 61.211 100.669 66.042 95.327 65.534 95.979 70.924 90.578 70.924 91.172 65.534 85.71 66.298 85.71 60.958 91.172 61.517 90.578 56.076" fill="#ee2d37"/>
      <polygon points="90.664 9.106 96.124 9.106 95.294 14.547 100.755 14.243 100.755 19.072 95.413 18.564 96.065 23.955 90.664 23.955 91.258 18.564 85.798 19.326 85.798 13.989 91.258 14.547 90.664 9.106" fill="#ee2d37"/>
      <rect x="51.631" width="15.828" height="79.168" fill="#ee2d37"/>
      <rect y="31.696" width="118.961" height="15.907" fill="#ee2d37"/>
    </g>
  </g>
</svg>