<svg xmlns="http://www.w3.org/2000/svg" id="Layer_2" data-name="Layer 2" viewBox="0 0 33.945 22.63">
  <defs><clipPath id="circleClip"><circle cx="16.9725" cy="11.315" r="11.315" /></clipPath></defs><g clip-path="url(#circleClip)"><g id="_&#209;&#235;&#238;&#233;_1" data-name="&#209;&#235;&#238;&#233; 1">
    <g>
      <rect width="33.945" height="22.63" fill="red" />
      <g>
        <g>
          <polygon points="15.586 1.273 16.645 1.273 16.973 .265 17.3 1.273 18.359 1.273 17.502 1.894 17.829 2.902 16.973 2.277 16.116 2.902 16.444 1.894 15.586 1.273" fill="#fed700" fill-rule="evenodd" />
          <polygon points="8.043 1.273 9.102 1.273 9.429 .265 9.756 1.273 10.815 1.273 9.958 1.894 10.286 2.902 9.429 2.277 8.572 2.902 8.9 1.894 8.043 1.273" fill="#fed700" fill-rule="evenodd" />
          <polygon points="23.13 1.273 24.189 1.273 24.516 .265 24.844 1.273 25.903 1.273 25.046 1.894 25.373 2.902 24.516 2.277 23.659 2.902 23.987 1.894 23.13 1.273" fill="#fed700" fill-rule="evenodd" />
        </g>
        <g>
          <polygon points="15.586 20.735 16.645 20.735 16.973 19.728 17.3 20.735 18.359 20.735 17.502 21.357 17.829 22.365 16.973 21.74 16.116 22.365 16.444 21.357 15.586 20.735" fill="#fed700" fill-rule="evenodd" />
          <polygon points="8.043 20.735 9.102 20.735 9.429 19.728 9.756 20.735 10.815 20.735 9.958 21.357 10.286 22.365 9.429 21.74 8.572 22.365 8.9 21.357 8.043 20.735" fill="#fed700" fill-rule="evenodd" />
          <polygon points="23.13 20.735 24.189 20.735 24.516 19.728 24.844 20.735 25.903 20.735 25.046 21.357 25.373 22.365 24.516 21.74 23.659 22.365 23.987 21.357 23.13 20.735" fill="#fed700" fill-rule="evenodd" />
        </g>
      </g>
      <g>
        <g>
          <polygon points="16.973 11.315 30.778 3.167 3.168 3.167 16.973 11.315" fill="#fed700" fill-rule="evenodd" />
          <polygon points="16.973 11.315 30.778 19.463 3.168 19.463 16.973 11.315" fill="#fed700" fill-rule="evenodd" />
        </g>
        <g>
          <polygon points="3.168 3.168 3.168 19.463 16.973 11.315 3.168 3.168" fill="#007c29" fill-rule="evenodd" />
          <polygon points="30.778 3.168 30.778 19.463 16.973 11.315 30.778 3.168" fill="#007c29" fill-rule="evenodd" />
        </g>
      </g>
      <g>
        <path d="M6.652,12.896c-.594-.258-1.113-.703-1.462-1.307-.349-.604-.474-1.276-.4-1.92.594.258,1.113.702,1.462,1.307.349.604.474,1.276.4,1.92Z" fill="red" fill-rule="evenodd" />
        <path d="M6.144,10.119c.437.116.799.409,1.025.8.321.556.306,1.204.013,1.671l-.021-.037c-.349-.604-.869-1.048-1.462-1.307-.073.644.052,1.316.4,1.92l.022.037c-.55.021-1.119-.29-1.44-.846-.226-.391-.299-.851-.181-1.288.155-.576.166-1.216.024-1.858.484.444,1.044.754,1.62.908Z" fill="#fed700" fill-rule="evenodd" />
      </g>
      <g>
        <path d="M16.973,8.59c1.505,0,2.725,1.22,2.725,2.725s-1.22,2.725-2.725,2.725-2.725-1.22-2.725-2.725,1.22-2.725,2.725-2.725Z" fill="red" fill-rule="evenodd" />
        <polygon points="14.587 10.531 16.409 10.531 16.973 8.797 17.536 10.531 19.359 10.531 17.884 11.6 18.447 13.336 16.973 12.26 15.498 13.336 16.062 11.6 14.587 10.531" fill="#fed700" fill-rule="evenodd" />
      </g>
    </g>
  </g>
</g></svg>