<svg xmlns="http://www.w3.org/2000/svg" id="Layer_2" data-name="Layer 2" viewBox="0 0 33.946 22.63">
  <defs><clipPath id="circleClip"><circle cx="16.973" cy="11.315" r="11.315" /></clipPath></defs><g clip-path="url(#circleClip)"><g id="_&#209;&#235;&#238;&#233;_1" data-name="&#209;&#235;&#238;&#233; 1">
    <g>
      <g>
        <rect width="33.946" height="22.63" fill="#fff" />
        <rect width="11.315" height="22.63" fill="#00adfe" />
        <rect x="22.63" width="11.315" height="22.63" fill="#00adfe" />
      </g>
      <g>
        <path d="M20.837,8.262c-.006-.019-.011-.037-.016-.057-.028-.111-.044-.229-.044-.349,0-.083.007-.165.021-.244.014-.081.035-.16.063-.236.003-.008.012-.012.02-.009.004.001.007.004.009.008.056.102.099.211.128.326.025.1.04.205.043.313.026-.096.061-.188.105-.275.006-.012.024-.011.029.002.039.089.07.182.09.279.02.095.031.193.031.294,0,.113-.013.224-.039.329-.023.096-.056.188-.097.274.006-.001.012-.002.019-.002.051,0,.092.041.092.092,0,.044-.03.08-.071.09.024.071.047.142.068.215.01.035.02.069.029.104.004-.177.031-.349.08-.512.054-.181.134-.351.236-.506.007-.011.024-.008.028.004.027.089.049.181.063.276.012.076.018.154.021.233.018-.027.038-.053.058-.079.009-.011.027-.006.028.009.004.067.005.135.002.202-.004.087-.013.172-.028.255.06-.064.126-.122.197-.173.086-.062.178-.115.277-.156.012-.005.024.005.021.018-.045.207-.136.397-.261.558-.125.162-.283.295-.465.391.015.052.027.104.036.158.013.077.019.156.019.236,0,.138-.02.272-.057.399-.006.021-.013.042-.02.062.006-.013.014-.026.021-.039.113-.208.277-.385.474-.513.011-.007.025.001.024.013.003.242-.055.479-.171.692-.112.206-.274.381-.469.509-.027.186-.065.369-.113.549.091-.151.209-.283.348-.39.177-.137.388-.233.617-.273.013-.002.023.012.016.023-.096.209-.241.39-.421.529-.174.135-.38.23-.605.271-.044.145-.094.289-.151.429.033-.04.067-.078.103-.114.16-.158.358-.279.579-.347.012-.004.024.008.019.021-.012.038-.026.075-.041.111.056-.016.113-.029.171-.039.068-.011.138-.018.209-.019.014,0,.021.016.012.026-.086.104-.186.196-.299.272-.109.074-.23.133-.358.175-.015.017-.031.033-.047.049-.159.157-.355.277-.573.345-.034.064-.069.126-.106.187-.01.017-.02.034-.031.051.109-.083.23-.151.359-.2.156-.059.324-.091.5-.091.116,0,.231.014.343.042.013.003.016.02.006.028-.127.112-.274.201-.435.262-.156.059-.324.091-.5.091-.112,0-.223-.013-.332-.039-.007.011-.014.022-.021.033.018.017.029.041.029.067,0,.051-.041.092-.092.092-.014,0-.027-.003-.039-.008-.035.048-.071.097-.108.146l-.021.027c.091-.068.191-.125.297-.169.178-.075.372-.112.565-.109.013,0,.02.015.012.025-.21.288-.52.487-.869.556l.334.358c.023.028.039.055.036.092-.003.035-.022.064-.049.085-.042.033-.081.068-.119.105-.036.036-.07.074-.101.113-.031.04-.06.081-.087.123-.022.035-.057.058-.099.058-.041,0-.078-.023-.1-.057l-.17-.26c-.139.051-.29.081-.446.086-.089.003-.177-.003-.265-.017-.002.003-.003.005-.004.008l-.063.117c.009,0,.019.002.027.007l.003.002c.035-.003.071-.004.107-.004.128,0,.252.017.369.049.122.033.237.081.343.143.012.007.01.023-.002.028-.091.042-.187.074-.287.096-.097.021-.198.032-.302.032-.052,0-.103-.003-.153-.008.09.038.175.084.254.139.011.007.008.023-.003.028-.074.029-.149.052-.226.069.042.026.083.054.122.084.05.039.097.08.142.125.009.009.004.024-.008.027-.062.012-.123.019-.185.022-.205.011-.404-.022-.584-.092-.187-.072-.356-.182-.495-.323-.024-.014-.048-.029-.071-.044-.006.045-.044.081-.091.081-.036,0-.067-.021-.082-.051-.062.017-.125.032-.188.046l-.014.003c.17.026.331.082.476.164.177.1.331.236.451.4.005.007.004.017-.003.022-.003.003-.007.003-.011.003-.206-.017-.401-.079-.574-.176-.174-.098-.326-.231-.445-.391-.025.005-.049.009-.074.013-.01.08-.015.161-.015.243,0,.132.013.263.04.392.002.008-.004.017-.012.019-.007.001-.014-.002-.017-.008-.064-.099-.114-.207-.149-.322-.028-.094-.044-.192-.049-.294-.113.015-.22.035-.325.062l.043.018.088.036c.024.01.039.029.046.052.008.025.006.054-.002.08-.008.024-.021.047-.042.061-.023.016-.044.016-.069.007-.068-.029-.135-.056-.199-.082-.063-.025-.127-.049-.191-.072-.129.046-.257.098-.39.154-.025.009-.046.009-.069-.007-.021-.014-.034-.037-.042-.061-.008-.026-.01-.055-.002-.08.007-.023.022-.042.046-.052.044-.018.088-.036.132-.054-.065-.017-.131-.031-.198-.042-.127.032-.257.055-.388.068-.008,0-.016-.006-.017-.014,0-.008.004-.015.012-.017.051-.023.101-.047.151-.072-.054-.008-.107-.017-.16-.027-.119.16-.271.294-.445.391-.173.097-.368.159-.574.176-.004,0-.007,0-.01-.003-.007-.005-.008-.015-.003-.022.12-.164.274-.3.451-.4.145-.082.306-.138.476-.164-.068-.015-.135-.032-.201-.049-.015.03-.046.051-.082.051-.047,0-.086-.036-.092-.082-.022.014-.044.028-.067.041-.14.14-.308.251-.495.323-.181.069-.379.103-.584.091-.062-.003-.124-.011-.185-.022-.003,0-.006-.002-.008-.005-.006-.006-.007-.016,0-.022.044-.045.092-.087.142-.125.039-.03.08-.058.122-.084h-.005c-.076-.018-.15-.041-.221-.07-.003-.001-.005-.003-.007-.006-.005-.007-.003-.017.004-.022.078-.053.161-.099.248-.136-.048.005-.097.007-.146.007-.104,0-.205-.011-.302-.032-.1-.022-.196-.054-.287-.096-.003-.001-.006-.003-.008-.007-.005-.007-.002-.017.006-.021.106-.062.221-.111.343-.143.118-.032.242-.049.369-.049.035,0,.071.001.107.004.008-.004.017-.006.025-.006l-.063-.117s-.003-.005-.004-.008c-.088.014-.176.019-.265.017-.08-.002-.158-.011-.234-.026-.073-.015-.144-.035-.213-.06l-.169.26c-.022.034-.059.057-.1.057-.042,0-.077-.023-.099-.058-.026-.043-.055-.084-.087-.123-.031-.039-.065-.077-.101-.113-.037-.037-.077-.073-.119-.105-.027-.02-.046-.05-.049-.084-.002-.035.013-.067.037-.093l.334-.358c-.171-.034-.331-.098-.474-.188-.154-.096-.288-.222-.395-.368-.008-.01-.001-.025.012-.025.193-.003.387.035.564.109.106.044.205.101.297.169-.007-.009-.014-.018-.021-.027-.037-.048-.073-.097-.108-.146-.012.005-.025.008-.039.008-.051,0-.092-.041-.092-.092,0-.026.011-.05.029-.067-.007-.011-.014-.022-.021-.033-.108.026-.22.039-.332.039-.176,0-.344-.032-.5-.091-.161-.061-.308-.15-.435-.262-.01-.008-.007-.025.006-.028.112-.028.228-.042.344-.042.176,0,.345.032.5.091.13.049.251.117.359.2-.01-.017-.021-.034-.031-.051-.036-.061-.072-.124-.106-.187-.219-.068-.414-.188-.573-.345-.016-.016-.032-.032-.047-.049-.128-.041-.249-.101-.358-.175-.112-.076-.213-.168-.299-.272-.008-.011-.001-.026.012-.026.129.002.256.021.38.058-.015-.036-.029-.073-.041-.111-.005-.012.007-.024.019-.021.221.068.419.189.578.347.036.036.071.074.103.114-.057-.14-.107-.283-.151-.429-.225-.042-.431-.137-.606-.271-.18-.139-.325-.32-.421-.529-.006-.011.003-.025.017-.023.23.04.44.136.617.273.139.107.257.239.348.39-.048-.18-.086-.363-.113-.549-.195-.128-.357-.303-.469-.509-.114-.211-.175-.452-.171-.692,0-.012.014-.02.024-.013.198.129.362.305.475.513.005.008.009.017.014.026-.006-.018-.012-.036-.017-.055-.037-.127-.057-.26-.057-.399,0-.08.007-.159.02-.235.009-.053.02-.104.035-.155-.179-.095-.336-.228-.46-.388-.124-.162-.215-.351-.26-.558-.002-.012.01-.023.022-.018.098.042.191.094.277.156.071.052.137.109.197.173-.015-.083-.024-.168-.027-.255-.003-.067-.002-.135.002-.202,0-.014.019-.02.028-.009.02.026.039.052.058.079.002-.079.009-.157.021-.233.014-.094.035-.186.063-.276,0-.003.003-.007.006-.009.007-.005.017-.003.022.005.102.155.182.325.236.506.049.163.076.334.08.512.009-.035.019-.069.029-.104.021-.072.044-.144.068-.215-.041-.01-.071-.046-.071-.09,0-.051.041-.092.092-.092.007,0,.013,0,.019.002-.041-.087-.074-.179-.097-.274-.025-.106-.039-.216-.039-.329,0-.101.011-.199.031-.294.021-.097.051-.19.09-.279.004-.013.023-.015.029-.002.044.087.08.179.105.275.003-.108.017-.212.043-.313.029-.115.073-.224.128-.326.006-.012.024-.012.029.002.027.076.049.155.063.236.014.079.021.161.021.244,0,.12-.015.237-.043.349-.005.019-.01.038-.016.057.022-.038.046-.076.069-.113.015-.024.029-.04.042-.051.01-.008.02-.014.029-.016.012-.071.029-.141.052-.208.033-.1.077-.194.13-.283l-.269-.269c-.006-.006-.006-.015,0-.021.006-.007.016-.007.022-.002l.275.248c.047-.072.101-.14.16-.202.064-.067.134-.127.209-.181.011-.008.026,0,.025.014-.009.103-.03.203-.06.298-.029.093-.069.183-.116.267l.118.107c.143-.082.296-.146.457-.19.013-.003.024.01.018.022-.067.136-.148.262-.243.376l.683.613c.006.006.014.009.023.009.008,0,.017-.003.023-.009l.149-.149-.061-.061c-.006-.006-.006-.016,0-.022l.098-.099c.006-.006.016-.006.022,0l.176.176c.053-.103.133-.176.253-.176.009,0,.017,0,.025.001.314.024.646.044.983.059.268.012.539.021.809.028l-.27-.156c-.194-.112-.325-.294-.379-.495-.051-.188-.034-.394.058-.579-.012.003-.026.005-.039.005-.034,0-.066-.011-.093-.031-.006-.005-.008-.014-.004-.02l.057-.098c-.019-.041-.03-.087-.03-.132,0-.085.035-.163.091-.218.059-.059.137-.09.22-.09.085,0,.161.035.217.09.056.056.09.133.09.218,0,.032-.005.062-.014.091-.01.04-.008.082.005.121.012.038.034.073.067.1l1.004.839c.192.159.368.336.525.528l.26-.261c.006-.006.016-.006.022,0l.098.099c.006.006.006.016,0,.022l-.061.061.149.149c.006.006.015.009.023.009.008,0,.017-.003.023-.009l.683-.613c-.094-.114-.176-.24-.243-.376-.004-.008,0-.017.007-.021.003-.002.007-.002.011-.001.16.044.314.108.457.19l.119-.107c-.048-.084-.087-.173-.116-.267-.03-.095-.05-.195-.06-.298-.001-.013.014-.022.025-.014.076.053.146.114.21.181.059.062.113.13.16.202l.275-.248c.006-.006.016-.005.022.002.006.006.005.016,0,.021l-.269.269c.053.088.097.183.13.283.022.067.04.137.052.208.03.01.054.041.071.067.023.038.047.075.069.113h0ZM14.734,13.301l.067.039c.007.004.01.014.006.021-.004.008-.014.01-.022.006l-.069-.04-.044.067.059.035c.019.01.04.012.059.007.02-.005.037-.018.048-.036l.075-.13c.008-.015.01-.032.008-.048-.002-.016-.01-.031-.022-.043l-.052-.052-.113.173h0ZM19.228,13.327l-.069.04c-.008.004-.017.002-.021-.006-.004-.007-.002-.017.006-.021l.067-.039-.113-.174-.052.052c-.012.012-.019.028-.022.043-.002.016,0,.033.008.048l.075.13c.011.018.028.031.048.036.02.005.041.003.06-.008l.059-.034-.044-.067h0ZM20.979,9.439c.105.113.196.237.272.372-.015-.083-.032-.166-.051-.248-.076-.037-.15-.078-.22-.124h0ZM21.31,10.307c-.012-.002-.024-.004-.035-.007.016.042.03.085.042.129-.002-.042-.004-.083-.007-.123h0ZM20.217,7.889c.07.044.137.092.201.145.102.084.196.179.279.283-.017-.028-.034-.056-.051-.083-.015-.026-.03-.054-.031-.084-.052-.042-.1-.087-.145-.135-.061-.065-.116-.137-.165-.213l-.087.087h0ZM21.015,8.414c-.01.037-.021.074-.034.11.02.04.04.081.059.121-.014-.075-.023-.152-.025-.231h0ZM17.986,9.333l.459-.459-.013-.016c-.036-.042-.076-.08-.12-.112-.037-.027-.078-.051-.12-.07.003.062-.001.125-.013.187-.002.011-.012.019-.024.012l-.096-.056c-.01.074-.04.14-.083.189-.041.047-.094.078-.153.086.056.076.111.156.164.239h0ZM18.658,9.173l-.482.482c.122.221.232.457.326.697.124.316.218.638.27.941.059-.019.12-.036.18-.052.063-.016.127-.029.191-.04.043-.247.044-.497.005-.74-.033-.202-.084-.399-.151-.591-.087-.244-.201-.478-.34-.697h0ZM18.832,12.206l.044.044c.039-.068.076-.137.112-.208.008-.015.015-.03.023-.045-.048.065-.099.126-.154.183-.008.009-.016.017-.025.026h0ZM18.684,12.057l.073.073c.041-.058.08-.118.116-.181.113-.196.194-.402.243-.611-.05.022-.1.045-.15.069-.055.027-.111.054-.166.084.005.049.01.097.012.145.008.14-.042.306-.127.418l-.002.003h0ZM17.145,12.793l.988.931c.09-.128.175-.26.254-.397l.267-.462c-.034.039-.069.076-.105.111-.114.109-.241.2-.378.272-.008.004-.017,0-.021-.007-.003-.006-.002-.013.003-.018.135-.141.263-.291.382-.45.05-.068.099-.136.146-.206l-.127-.127c-.016.011-.033.022-.049.033-.006.004-.014.003-.02-.002-.006-.006-.006-.016,0-.022.013-.012.026-.025.038-.038l-.184-.184c-.197-.001-.395,0-.592.003l-.043.039-.046.043-.513.483h0ZM16.601,12.279l.372.351.417-.393c-.124.004-.248.01-.372.016-.139.007-.278.016-.417.026h0ZM14.598,13.51c.037.086.066.176.085.27.02.094.03.191.03.291,0,.089-.009.178-.025.266l.115-.109c.018-.017.038-.033.057-.047-.012-.042-.022-.085-.03-.129-.009-.047-.016-.095-.02-.143,0-.003,0-.006.002-.009.004-.008.014-.01.021-.007.044.024.086.05.126.077.031.021.06.043.089.067-.003-.022-.005-.045-.007-.068-.004-.047-.005-.094-.004-.142,0-.002,0-.005.002-.008.004-.008.014-.01.021-.006.069.038.135.081.197.13.058.045.111.095.161.148l1.38-1.3-.518-.488c-.183.016-.366.035-.548.056-.018.002-.034.004-.053.004-.06,0-.118-.016-.17-.045l-.395.394-.251.386.057.057c.017.017.027.039.031.061.004.023,0,.046-.011.067-.025.044-.051.088-.076.132-.015.025-.039.043-.066.05-.027.007-.056.005-.082-.01l-.062-.036-.058.089h0ZM20.969,12.489l-.004-.004c-.001.009-.003.018-.005.027l.009-.022h0ZM21.29,10.07c-.006.001-.013.002-.019.002-.051,0-.092-.041-.092-.092,0-.034.019-.064.046-.08-.215-.084-.412-.205-.581-.356-.184-.164-.337-.363-.448-.585-.004-.008,0-.017.007-.021.004-.002.008-.002.012,0,.143.051.277.118.402.199-.005-.005-.009-.01-.014-.015-.168-.184-.301-.401-.388-.64-.003-.008.001-.017.009-.02.004-.002.008-.001.012,0,.229.109.433.261.602.446.122.133.225.284.306.448l-.005-.018c-.051-.175-.112-.347-.185-.515-.016.015-.038.025-.063.025-.051,0-.092-.041-.092-.092,0-.032.017-.061.042-.077-.243-.075-.469-.197-.663-.357-.072-.059-.139-.124-.202-.193l-.643.643c-.034.034-.078.051-.123.051s-.09-.017-.123-.051l-.149-.149-.114.114c.151.203.283.421.391.653.232.492.361,1.042.361,1.622,0,.357-.049.703-.141,1.03-.054.194-.124.382-.207.563l.108.108s.005.007.004.012c0,.045.013.079.041.114h.086c.009,0,.016.007.016.016,0,.009-.007.016-.016.016h-.078v.099l.189.242c.024-.05.052-.099.082-.146.007-.011.024-.009.028.003.027.062.049.126.067.191.018-.047.038-.092.061-.137.031-.06.066-.118.105-.173.008-.011.024-.008.028.005.026.074.046.15.059.229.013.077.02.157.02.238,0,.056-.003.112-.01.168l.138.147c-.018-.071-.031-.143-.038-.218-.008-.093-.008-.189.003-.286.014-.13.046-.254.092-.369.048-.12.11-.23.187-.331.008-.01.024-.007.027.005.028.09.046.184.055.28.009.094.008.189-.003.286-.014.13-.046.253-.092.369-.016.04-.034.079-.053.117.036-.046.07-.093.105-.141.08-.113.156-.229.226-.349-.014-.016-.023-.037-.023-.061,0-.05.04-.091.09-.092-.07-.171-.106-.354-.106-.538,0-.134.018-.263.053-.386-.054-.145-.083-.297-.087-.452,0-.014.016-.022.026-.012.062.058.119.123.17.191.017-.032.035-.063.054-.093.007-.011.023-.009.028.002.038.087.068.18.088.275.012.06.021.121.025.183.022.062.04.126.053.192.033-.091.063-.182.091-.275.032-.106.059-.214.084-.323-.021-.012-.038-.033-.044-.057-.159-.132-.289-.298-.378-.486-.102-.216-.139-.426-.134-.664,0-.013.015-.02.025-.012.17.122.311.282.413.466.086.156.143.329.165.513.01-.057.018-.114.026-.171.011-.081.019-.162.026-.245-.125-.129-.226-.282-.295-.451h0c-.057-.142-.092-.293-.101-.451-.076-.049-.146-.107-.208-.173-.064-.068-.118-.144-.162-.226-.006-.012.004-.026.017-.023.069.011.135.028.199.051.058.021.114.047.167.077.002-.014.004-.028.007-.042.002-.013.018-.017.027-.008.057.058.109.121.155.189.072.066.135.141.188.224-.004-.05-.008-.1-.014-.152h0ZM19.257,14.336c-.016-.088-.025-.177-.025-.266,0-.1.01-.197.03-.291.019-.094.048-.184.085-.27l-.058-.089-.06.035c-.026.015-.056.018-.084.011-.027-.007-.052-.025-.067-.051-.024-.044-.052-.087-.075-.131-.011-.021-.014-.045-.011-.067.004-.022.014-.044.031-.061l.057-.057-.063-.097-.581,1.006.089.084c.05-.053.104-.103.161-.148.061-.048.127-.092.197-.13.01-.006.023.002.023.014.001.048,0,.095-.004.142-.002.021-.004.043-.007.065.028-.023.057-.044.086-.064.04-.028.083-.054.126-.077.011-.006.024.003.023.015-.004.048-.01.096-.019.143-.008.043-.018.086-.03.128.02.014.04.03.059.048l.116.109h0ZM19.812,14.427c.035-.015.071-.028.107-.04l-.022-.034c-.028.025-.056.05-.085.074h0ZM19.738,14.224c-.01-.029-.018-.058-.027-.087-.012.032-.026.064-.04.095-.014.029-.028.057-.044.085.037-.03.075-.061.111-.093h0ZM19.55,14.378c-.013-.031-.025-.063-.036-.095-.019.059-.041.117-.068.173.035-.025.07-.051.104-.078h0ZM19.042,15.114c-.057-.024-.112-.051-.164-.082-.051.024-.102.047-.154.069-.017.007-.034.015-.051.021.046-.007.093-.012.14-.015.078-.004.155-.002.23.006h0ZM18.144,15.079c-.002-.113.01-.224.034-.331.026-.113.065-.223.117-.325v-.002c-.001-.037.012-.074.039-.103l.04-.043-.059-.056-.258.446c-.08.141-.143.293-.185.454-.002.008-.004.016-.006.024.094-.018.186-.039.278-.064h0ZM18.372,15.011c.001-.015.003-.03.005-.046-.034.028-.07.054-.107.078.035-.01.069-.021.103-.033h0ZM18.801,14.705c-.055.065-.117.126-.183.18-.03.025-.062.049-.095.071.127-.048.25-.103.37-.164h0c-.029-.016-.045-.049-.04-.082-.018.004-.036.002-.052-.006h0ZM19.042,14.298c-.023.06-.05.118-.081.174.012.016.018.038.014.059.018-.004.037-.002.055.008.03.017.046.048.04.082.017-.004.036-.002.053.007.011.006.02.013.027.023.023-.014.046-.028.07-.043.024-.015.049-.031.073-.047-.007-.023-.019-.044-.035-.059l-.217-.204h0ZM15.802,15.08c.173.046.352.081.535.104.03.004.061.008.093.013.029.005.058.01.086.015.309-.181.601-.395.871-.64.218-.199.421-.418.606-.657l-1.019-.96-1.401,1.32.041.043c.027.029.04.066.039.103v.002c.051.094.093.221.117.326.024.107.036.218.034.331h0ZM16.973,15.334c.025-.009.051-.017.077-.025.179-.057.363-.101.559-.125l.022-.003c.007-.056.018-.111.033-.165.028-.106.071-.207.125-.3l.147-.255c-.188.235-.408.433-.652.59-.144.093-.296.173-.454.237.048.014.096.03.143.046h0ZM14.915,15.108c.073-.008.148-.009.223-.005.039.002.077.006.115.011-.01-.004-.021-.009-.031-.013-.052-.022-.103-.045-.154-.069-.049.028-.101.054-.153.076h0ZM15.571,15.01c.028.01.056.019.084.028l.022.006c-.039-.025-.076-.052-.111-.081.002.016.003.031.005.047h0ZM14.651,14.561c.024.016.048.032.073.047.023.014.046.029.07.043.006-.009.015-.017.026-.022.017-.009.037-.012.054-.008-.002-.012,0-.024.002-.035.006-.019.019-.037.038-.047.018-.009.037-.012.055-.008-.002-.012-.001-.024.002-.035.002-.008.006-.016.011-.022-.017-.03-.032-.06-.046-.092-.012-.027-.024-.055-.035-.082l-.215.203c-.016.015-.028.036-.035.059h0ZM15.053,14.793c.118.06.24.114.365.162-.031-.022-.062-.045-.092-.069-.066-.054-.127-.115-.183-.18-.016.007-.033.009-.05.005.002.012.001.024-.002.035-.006.019-.019.036-.038.047h0ZM14.431,14.283c-.011.032-.023.064-.036.095.034.026.069.052.104.078-.026-.056-.049-.114-.068-.173h0ZM14.027,14.387c.036.012.072.025.107.04-.029-.024-.057-.049-.085-.074l-.022.034h0ZM14.234,14.137c-.002.008-.004.016-.007.024-.006.021-.013.042-.02.063.037.032.074.063.111.093-.016-.028-.03-.056-.044-.085-.015-.031-.028-.063-.041-.095h0ZM12.977,12.489l.009.022c-.002-.009-.004-.017-.005-.027l-.004.004h0ZM12.671,10.3c-.013.003-.025.005-.038.007-.003.043-.005.087-.006.131.012-.047.027-.093.044-.138h0ZM12.967,9.44c-.071.046-.144.087-.221.124-.019.082-.036.165-.051.248.076-.135.167-.26.272-.372h0ZM12.965,8.524c-.013-.036-.024-.072-.034-.11-.002.079-.01.156-.025.231.019-.041.039-.081.059-.122h0ZM13.528,8.034c.064-.053.131-.101.201-.145l-.087-.087c-.048.076-.103.148-.165.213-.045.048-.094.093-.145.135,0,.01-.003.022-.007.035-.005.015-.013.031-.024.048-.018.028-.035.055-.051.083.083-.104.177-.198.279-.283h0ZM12.723,9.899c.029.016.049.046.049.081,0,.051-.041.092-.092.092-.008,0-.016-.001-.023-.003-.006.048-.011.097-.016.145v.01c.019-.032.041-.063.064-.093.037-.048.079-.093.124-.133.046-.067.098-.13.155-.189.009-.009.025-.004.027.008.003.014.005.028.007.042.053-.03.109-.056.167-.077.064-.023.13-.041.2-.051.013-.003.023.011.017.023-.044.082-.099.158-.163.226-.061.066-.131.124-.208.173-.009.158-.044.309-.102.449h0c-.069.17-.17.323-.295.452.006.082.015.164.026.245.008.057.016.114.026.171.022-.184.079-.358.165-.513.102-.184.243-.344.413-.466.01-.008.025-.001.025.012.005.237-.031.447-.134.664-.089.189-.219.355-.378.486-.006.025-.023.045-.044.057.024.109.052.217.084.323.027.093.058.184.091.275.013-.066.031-.13.053-.192.005-.062.013-.123.026-.183.02-.096.049-.188.087-.275.005-.012.021-.013.028-.002.019.031.037.062.054.093.051-.069.107-.133.17-.191.01-.01.027-.002.026.012-.002.079-.011.157-.026.232-.014.075-.035.149-.061.219.035.123.053.252.053.386,0,.099-.01.195-.029.288-.018.086-.044.17-.076.25.05,0,.09.042.09.092,0,.023-.009.044-.023.061.07.12.146.237.226.349.034.047.069.094.104.14-.019-.038-.037-.077-.053-.117-.046-.116-.077-.24-.092-.369-.011-.097-.011-.193-.003-.286.009-.096.027-.19.055-.28,0-.003.003-.006.006-.008.007-.005.017-.004.022.003.076.1.139.211.187.331.046.116.078.24.092.369.011.097.011.193.003.286-.007.074-.019.147-.037.218l.137-.147c-.006-.056-.01-.112-.01-.168,0-.081.007-.16.02-.238.013-.079.033-.155.059-.229,0-.003.003-.006.006-.008.007-.005.017-.003.022.004.039.055.074.113.105.173.023.044.043.09.061.137l.002-.009c.017-.063.039-.124.064-.182.001-.003.003-.006.006-.008.007-.005.017-.002.022.005.017.027.034.055.049.083.011.021.022.042.033.063l.04-.052.148-.19v-.099h-.078c-.009,0-.016-.007-.016-.016,0-.009.007-.016.016-.016h.086c.027-.035.042-.069.04-.114,0-.005.002-.009.005-.012l.063-.064h0s.612-.613.612-.613c-.027-.075-.043-.159-.043-.248,0-.063.012-.144.036-.223-.127-.072-.257-.138-.388-.199-.136-.063-.275-.119-.414-.17-.007-.002-.012-.008-.011-.016,0-.008.008-.015.016-.015.155.008.309.03.461.064.146.033.291.079.431.137.055-.073.128-.124.22-.124.013,0,.025.001.038.002.059.007.118.014.175.02.053.006.105.011.157.016-.082-.183-.196-.37-.316-.567-.287-.471-.605-.994-.605-1.638,0-.095.007-.243.038-.381l-.073-.073-.149.149c-.034.034-.079.051-.123.051s-.089-.017-.122-.05l-.644-.644c-.063.069-.13.133-.202.193-.194.16-.42.282-.663.357.026.016.042.045.042.077,0,.051-.041.092-.092.092-.024,0-.046-.01-.063-.025-.073.168-.134.34-.185.515l-.005.018c.081-.164.184-.314.306-.448.169-.185.373-.337.602-.446.004-.002.008-.002.012,0,.008.003.012.012.009.02-.087.239-.22.456-.388.64l-.014.015c.125-.081.26-.148.402-.199.004-.002.008-.002.012,0,.008.004.011.013.007.021-.11.223-.263.422-.448.585-.169.15-.365.271-.579.355Z" fill-rule="evenodd" />
        <path d="M21.271,9.92c.033,0,.06.027.06.06,0,.034-.027.06-.06.06-.033,0-.061-.027-.061-.06,0-.033.027-.06.061-.06Z" fill="red" fill-rule="evenodd" />
        <path d="M21.076,8.665c.018.084.043.165.076.242.041-.086.074-.178.097-.273.025-.103.038-.211.038-.322,0-.099-.01-.195-.03-.287-.018-.084-.043-.165-.075-.243-.041.086-.074.178-.097.273-.025.103-.038.211-.038.322,0,.098.01.194.03.287Z" fill="#3c6" fill-rule="evenodd" />
        <path d="M21.4,11.047c.062-.102.111-.213.146-.33.036-.123.056-.254.056-.39,0-.078-.007-.156-.019-.23-.011-.066-.027-.13-.046-.192-.062.102-.111.213-.146.329-.036.124-.056.254-.056.39,0,.143.022.285.065.422Z" fill="#3c6" fill-rule="evenodd" />
        <path d="M18.782,14.568l.062-.116c.012-.023.004-.052-.019-.064-.023-.012-.052-.004-.064.019l-.062.116c-.012.023-.004.052.019.064.023.012.052.004.064-.019Z" fill="#fed700" fill-rule="evenodd" />
        <path d="M18.878,14.656l.062-.115c.012-.022.004-.053-.019-.064-.023-.012-.052-.004-.064.019-.02.039-.043.077-.063.116-.012.023-.004.051.018.064.025.013.052.005.065-.02Z" fill="#fed700" fill-rule="evenodd" />
        <path d="M19.068,14.836l.062-.116c.012-.023.004-.052-.019-.064-.023-.012-.051-.004-.064.019-.02.039-.042.078-.063.117-.012.023-.003.05.019.063.023.013.052.005.065-.019Z" fill="#fed700" fill-rule="evenodd" />
        <path d="M19.262,15.188c-.142-.04-.293-.057-.449-.049-.077.004-.152.015-.225.031-.065.014-.128.033-.188.056.117.077.247.136.384.174.142.04.293.057.449.049.142-.008.281-.037.414-.087-.117-.077-.247-.136-.384-.174Z" fill="#3c6" fill-rule="evenodd" />
        <path d="M19.413,15.459c-.059.011-.118.018-.179.021-.159.009-.313-.009-.459-.05-.075-.021-.148-.048-.218-.081.118.101.254.181.4.238.177.068.37.1.571.089.051-.003.101-.008.151-.016-.037-.036-.077-.07-.118-.101-.048-.037-.097-.07-.149-.1Z" fill="#007c29" fill-rule="evenodd" />
        <path d="M19.331,15.05c.01.004.022,0,.03-.007.005-.006.008-.013.008-.02,0-.01-.004-.016-.011-.022l-.027.049Z" fill="#fed700" fill-rule="evenodd" />
        <path d="M19.245,15.025c-.007.014-.002.031.011.038.014.007.031.002.038-.011l.059-.11c.007-.014.002-.03-.012-.038-.014-.007-.031-.002-.038.012l-.059.109Z" fill="#fed700" fill-rule="evenodd" />
        <path d="M12.345,9.885c-.066-.12-.119-.247-.158-.381-.014-.049-.027-.098-.037-.149-.068-.077-.144-.146-.227-.207-.075-.054-.156-.102-.242-.14.046.191.132.365.248.515.113.147.255.27.417.361Z" fill="#007c29" fill-rule="evenodd" />
        <path d="M12.508,11.411c-.001-.106-.014-.209-.037-.308v-.002c-.029-.119-.073-.233-.13-.338-.106-.195-.257-.362-.44-.486.002.235.062.455.167.648.106.195.257.362.44.486Z" fill="#3c6" fill-rule="evenodd" />
        <path d="M12.175,12.297c-.117-.037-.239-.058-.362-.063.079.091.17.171.27.239.092.063.192.114.299.153-.083-.099-.153-.209-.207-.329Z" fill="#007c29" fill-rule="evenodd" />
        <path d="M13.249,11.971c.019-.057.034-.115.046-.175.012-.061.02-.124.024-.188-.054.053-.103.111-.147.173.03.061.056.125.077.19Z" fill="#007c29" fill-rule="evenodd" />
        <path d="M12.957,12.236c-.008.032-.016.065-.022.097-.01.058-.018.117-.021.176.021-.021.041-.042.06-.064-.011-.068-.017-.138-.017-.209Z" fill="#007c29" fill-rule="evenodd" />
        <path d="M16.639,7.158c.012-.006.023-.014.032-.023l-.104-.06-.046.079c.019.011.04.017.062.017.02,0,.039-.005.055-.013Z" fill="#f93" fill-rule="evenodd" />
        <path d="M16.861,6.862c.032,0,.059.026.059.059s-.026.059-.059.059-.058-.026-.058-.059.026-.059.058-.059Z" fill="#e6e6e6" fill-rule="evenodd" />
        <path d="M15.498,8.86c.01-.033.018-.073.018-.108,0-.041-.013-.117-.044-.171-.019-.035-.044-.06-.077-.06-.039,0-.071.034-.094.08-.036.072-.053.172-.053.226,0,.08.024.151.062.203.037.05.089.082.145.082.056,0,.107-.039.144-.102.022-.036.039-.079.049-.128h-.138c-.011,0-.018-.011-.015-.021Z" fill="#ffec83" fill-rule="evenodd" />
        <path d="M15.473,8.525c.01.012.019.025.028.04.033.06.048.142.048.186,0,.031-.006.067-.014.097h.123c.005-.03.008-.063.008-.097,0-.08-.017-.154-.048-.216l-.104-.007-.04-.003Z" fill="#ffec83" fill-rule="evenodd" />
        <path d="M17.442,8.464c-.345-.006-.696-.017-1.039-.032-.3-.014-.595-.031-.876-.051.031.02.059.048.083.082.053.074.087.177.087.289,0,.107-.026.203-.068.274-.019.032-.042.059-.067.079.348-.025.698-.04,1.048-.047.393-.008.786-.005,1.177.008.064.002.122-.03.164-.077.042-.047.07-.112.077-.185l-.586-.338Z" fill="#ffec83" fill-rule="evenodd" />
        <path d="M15.904,11.643c-.055-.006-.11-.011-.164-.017-.034-.004-.067-.007-.1-.011.006.007.011.014.016.021.029.046.043.108.043.151,0,.016-.002.033-.005.048h.109s.115,0,.115,0c.002-.017.003-.033.003-.048,0-.042-.005-.092-.016-.144Z" fill="#ffec83" fill-rule="evenodd" />
        <path d="M15.977,12.164c-.039.004-.079.008-.12.013-.048.005-.097.011-.147.016-.01.001-.019.002-.028.002-.081,0-.143-.049-.187-.116-.057-.088-.084-.208-.084-.292,0-.043.014-.105.043-.151.024-.036.056-.062.1-.062.005,0,.01,0,.014.001.059.007.117.013.173.02.052.005.103.011.153.016-.017-.069-.045-.139-.082-.198-.053-.081-.126-.14-.221-.14-.085,0-.151.049-.202.12h0c-.004.006-.008.012-.012.019-.028.044-.05.095-.067.147h0s0,.001,0,.001h0c-.025.08-.038.162-.038.226,0,.088.016.172.044.246h0s0,.001,0,.001h0c.017.046.039.088.065.125h0s0,.002,0,.002h0c.003.005.007.01.01.015.074.098.175.158.287.158s.213-.06.287-.158c.003-.004.005-.007.008-.011Z" fill="#ffec83" fill-rule="evenodd" />
        <path d="M15.977,11.315c-.059-.006-.118-.012-.175-.018l-.063-.007c.039.027.072.064.1.107.076.117.112.279.112.391,0,.084-.027.204-.084.292-.018.028-.039.052-.063.071l.049-.005c.047-.005.096-.01.145-.015.057-.093.09-.213.09-.343,0-.156-.043-.313-.112-.472Z" fill="#ffec83" fill-rule="evenodd" />
        <path d="M16.615,7.831c.06.169.178.317.344.414l.32.185c.036,0,.071.001.107.002-.177-.104-.301-.266-.361-.448v-.005s-.096-.094-.096-.094c-.043-.043-.098-.07-.155-.078-.054-.008-.11,0-.16.024Z" fill="#f93" fill-rule="evenodd" />
        <path d="M18.189,8.64c.05.021.097.048.141.08.046.034.089.073.126.117h0c.248.308.441.653.572,1.022.129.365.198.753.198,1.151,0,.319-.043.633-.128.936-.085.302-.211.592-.376.863l-.307.532c-.277.48-.618.899-1.007,1.253-.378.344-.8.626-1.251.843.394-.055.774-.196,1.11-.413.347-.225.648-.532.87-.912l.708-1.227c.173-.283.304-.585.392-.899.088-.315.134-.643.134-.975,0-.415-.071-.819-.206-1.199-.137-.385-.338-.745-.597-1.065-.005-.007-.004-.017.003-.022.007-.006.017-.005.022.002.261.323.464.686.601,1.074.136.383.208.791.208,1.21,0,.335-.045.665-.135.983-.089.317-.221.622-.395.907l-1.056,1.83c-.052.091-.094.189-.122.292-.027.099-.041.204-.041.311,0,.119.017.235.049.344.025.084.059.165.101.24-.017-.103-.025-.208-.025-.312,0-.171.022-.337.064-.495.043-.163.107-.318.188-.462l.966-1.673c.177-.291.317-.608.411-.944.091-.325.14-.668.14-1.022,0-.575-.128-1.121-.358-1.609-.239-.507-.587-.953-1.014-1.306l-1.005-.839c-.037-.031-.063-.071-.077-.114-.006-.017-.009-.035-.011-.053-.012.018-.025.035-.04.05-.056.056-.133.091-.218.091-.009,0-.016-.007-.016-.016,0-.009.007-.016.016-.016.077,0,.146-.031.196-.081.05-.05.081-.12.081-.196s-.031-.146-.081-.196c-.05-.05-.119-.081-.195-.081-.075,0-.145.028-.197.081-.05.05-.081.12-.081.196,0,.042.009.083.028.121l.13.075c.008.005.01.015.004.023-.01.014-.023.026-.037.036-.106.186-.127.399-.075.592.003.011.006.022.009.033.055-.025.116-.033.174-.025.063.009.124.038.173.086l.054.054c-.04-.168-.028-.349.044-.515.003-.008.013-.012.021-.008.008.003.012.013.008.021-.078.181-.083.38-.024.56.058.177.179.334.352.434l.744.429c.021-.131.008-.266-.037-.391-.045-.127-.124-.244-.235-.337-.006-.006-.007-.016-.002-.022.006-.007.016-.007.022-.002.115.096.197.218.244.35.023.066.038.135.045.205h0ZM17.521,7.806c-.002-.008.002-.017.011-.019.009-.003.017.002.02.011.009.032.024.062.045.089.02.025.044.048.074.064.007.005.01.014.006.021-.004.008-.014.01-.022.006-.033-.019-.06-.044-.083-.072-.023-.03-.04-.064-.05-.099h0ZM17.192,7.521c.003-.008.012-.013.02-.01.008.003.013.012.01.02-.046.136-.041.281.008.411.048.128.139.24.264.313l.524.302c.007.004.01.014.006.022-.004.008-.014.01-.022.006l-.523-.302c-.132-.076-.228-.194-.278-.329-.051-.136-.057-.288-.008-.432h0ZM17.34,7.648c.001-.008.01-.014.018-.013.009.001.014.009.013.018-.015.088-.001.179.036.259.037.078.096.145.175.191l.294.169c.008.005.01.014.006.022-.004.007-.014.01-.021.006l-.294-.169c-.084-.049-.148-.121-.187-.205-.04-.085-.054-.182-.039-.277h0ZM16.861,6.831c.05,0,.09.04.09.09s-.04.09-.09.09c-.05,0-.09-.04-.09-.09s.04-.09.09-.09Z" fill="#007c29" fill-rule="evenodd" />
        <path d="M19.193,11.08c-.006.051-.013.101-.023.152-.046.251-.136.499-.271.733-.054.094-.115.183-.18.267-.032.041-.065.081-.099.119.075-.058.147-.122.213-.192.102-.107.192-.227.27-.36.055-.234.085-.475.09-.718Z" fill="#007c29" fill-rule="evenodd" />
        <path d="M19.058,11.972c-.014.028-.027.056-.042.084-.13.257-.283.503-.456.734-.099.132-.204.258-.314.378.101-.061.195-.133.281-.216.107-.103.202-.222.28-.356.104-.2.188-.409.251-.624Z" fill="#007c29" fill-rule="evenodd" />
        <path d="M19.138,11.234c-.06.01-.119.023-.178.038-.061.015-.122.033-.183.052.007.045.014.089.019.133.051-.027.103-.053.156-.078.057-.028.114-.054.172-.08.005-.022.009-.043.013-.065Z" fill="#ccc" fill-rule="evenodd" />
        <path d="M18.786,12.402l-.08-.08c-.041.035-.083.068-.127.099l.119.119c.03-.045.059-.091.088-.138Z" fill="#8e2300" fill-rule="evenodd" />
        <path d="M18.651,12.267l-.094-.094c-.051.031-.11.05-.174.052l.162.162c.036-.038.072-.078.106-.119Z" fill="#8e2300" fill-rule="evenodd" />
        <path d="M15.113,8.693s0,.001,0,.002c-.033.137-.039.286-.039.382,0,.635.316,1.154.6,1.621.235.385.448.736.448,1.089,0,.159-.049.302-.127.407-.038.051-.083.092-.133.121.383-.042.769-.073,1.155-.093.451-.024.904-.033,1.355-.029.12,0,.219-.064.29-.158.081-.107.128-.267.12-.4-.023-.392-.138-.838-.308-1.272-.181-.462-.425-.91-.689-1.266-.39-.013-.782-.016-1.173-.008-.38.007-.76.025-1.14.054-.005,0-.009,0-.014,0-.067,0-.127-.036-.171-.095-.042-.057-.069-.136-.069-.222,0-.057.017-.163.056-.24.028-.056.068-.098.122-.098.003,0,.006,0,.009,0l.111.008.084.006c-.004-.008-.009-.015-.015-.022-.048-.068-.115-.11-.189-.11-.112,0-.186.074-.234.176h0s0,.002,0,.002h0c-.02.044-.036.093-.048.143Z" fill="#ffec83" fill-rule="evenodd" />
        <path d="M15.128,8.546l-.173-.173-.076.076.21.21c.01-.04.023-.078.039-.113Z" fill="#ccc" fill-rule="evenodd" />
        <path d="M18.738,12.156l-.074-.074c-.024.028-.051.052-.08.073l.087.087c.008-.01.016-.02.024-.03.014-.018.028-.037.042-.056Z" fill="#ccc" fill-rule="evenodd" />
        <path d="M18.86,12.278l-.05-.051c-.026.026-.052.05-.079.073l.073.073c.019-.032.038-.064.057-.096Z" fill="#ccc" fill-rule="evenodd" />
        <path d="M15.354,11.393c-.137-.056-.277-.1-.419-.133-.114-.026-.23-.044-.345-.056.106.041.21.084.313.132.13.06.258.126.385.197.017-.048.038-.095.064-.137l.003-.004Z" fill="#ccc" fill-rule="evenodd" />
        <path d="M17.071,12.722l.052.049.514-.484.046-.043.016-.014c-.036,0-.071.002-.107.003l-.521.491Z" fill="#ccc" fill-rule="evenodd" />
        <path d="M16.996,12.652l.052.049.497-.468c-.035,0-.071.002-.107.003l-.441.416Z" fill="#ccc" fill-rule="evenodd" />
        <path d="M16.462,12.29l1.506,1.418c.006.006.006.016,0,.022-.006.007-.016.007-.022,0l-1.526-1.438c-.032.002-.063.005-.095.008l1.686,1.589c.035-.046.07-.093.104-.14l-1.557-1.467c-.032.003-.064.005-.096.007Z" fill="#ccc" fill-rule="evenodd" />
        <rect x="18.155" y="9.223" width=".096" height=".299" transform="translate(-1.296 15.616) rotate(-45)" fill="#ccc" />
        <path d="M18.062,9.455l.055-.055-.076-.077-.037.038c.02.031.039.062.058.094Z" fill="#ccc" fill-rule="evenodd" />
        <path d="M18.161,9.626l.091-.091-.113-.113-.061.061c.028.047.056.095.082.143Z" fill="#8e2300" fill-rule="evenodd" />
        <path d="M18.549,9.012l-.297.297.113.113.276-.276c-.029-.045-.06-.09-.092-.134Z" fill="#8e2300" fill-rule="evenodd" />
        <path d="M18.465,8.899l-.312.312.076.076.301-.301c-.021-.029-.043-.058-.065-.087Z" fill="#ccc" fill-rule="evenodd" />
        <path d="M18.806,8.711l.261-.261-.076-.076-.252.252c.023.028.045.057.067.086Z" fill="#ccc" fill-rule="evenodd" />
        <path d="M14.992,12.569l.113.113.379-.379c-.043-.028-.081-.066-.114-.109h0s-.376.375-.376.375Z" fill="#8e2300" fill-rule="evenodd" />
        <path d="M14.894,12.47l.076.076.38-.38c-.02-.03-.038-.064-.053-.1l-.403.403Z" fill="#ccc" fill-rule="evenodd" />
        <path d="M15.085,12.706l-.214-.213-.17.17c.009.038.01.078.003.117-.008.04-.025.079-.052.114l-.212.272.209.209.436-.669h0ZM14.842,12.783c.033,0,.059.026.059.059s-.026.059-.059.059-.059-.026-.059-.059.026-.059.059-.059h0ZM14.702,12.997c.033,0,.059.027.059.059s-.026.059-.059.059-.059-.026-.059-.059.027-.059.059-.059Z" fill="#ccc" fill-rule="evenodd" />
        <path d="M14.674,12.69l-.04.039c0,.052-.017.089-.048.129v.069l.04-.052c.024-.031.039-.065.046-.101.005-.028.006-.056.002-.084Z" fill="#ccc" fill-rule="evenodd" />
        <path d="M14.702,13.029c.015,0,.027.013.027.028,0,.015-.012.027-.027.027-.015,0-.027-.012-.027-.027,0-.015.012-.028.027-.028Z" fill="#8e2300" fill-rule="evenodd" />
        <circle cx="14.842" cy="12.842" r=".027" fill="#8e2300" />
        <path d="M14.42,13.192l-.144.185c-.026.034-.059.059-.095.077-.035.017-.074.026-.113.028-.298.319-.596.638-.894.956-.018.019-.03.042-.028.069.002.027.017.045.037.062.043.033.083.069.122.108.037.037.071.076.103.116.033.041.062.083.089.126.016.025.041.043.072.043.031,0,.057-.018.074-.043l.988-1.516-.211-.211Z" fill="#8e2300" fill-rule="evenodd" />
        <path d="M19.272,12.69c-.004.028-.004.056.002.084.007.036.022.07.046.101l.04.052v-.069c-.031-.04-.048-.077-.049-.129l-.039-.039Z" fill="#ccc" fill-rule="evenodd" />
        <path d="M19.244,13.029c-.015,0-.028.013-.028.028,0,.015.013.027.028.027.015,0,.027-.012.027-.027,0-.015-.012-.028-.027-.028Z" fill="#8e2300" fill-rule="evenodd" />
        <path d="M19.122,12.821c.006.005.01.012.01.021,0,.015-.012.028-.027.028-.003,0-.006,0-.009-.002.009-.015.018-.031.026-.047Z" fill="#8e2300" fill-rule="evenodd" />
        <path d="M19.08,12.896c.007.003.015.005.024.005.032,0,.059-.026.059-.059,0-.02-.01-.039-.026-.049.028-.052.054-.105.079-.159l.029.029c-.009.038-.01.078-.002.117.008.04.025.079.052.114l.212.272-.209.209-.262-.402c.015-.025.03-.051.045-.077h0ZM19.244,12.997c-.033,0-.059.027-.059.059s.026.059.059.059.059-.026.059-.059-.026-.059-.059-.059Z" fill="#ccc" fill-rule="evenodd" />
        <path d="M15.62,14.42c0-.029-.009-.058-.031-.081l-.064-.068c-.093-.099-.219-.151-.345-.155-.127-.004-.255.041-.354.134l-.199.188c-.037.035-.061.086-.069.141-.008.054,0,.112.025.158l.147.273c.004.007.01.011.017.014.006.002.014.001.021-.002h.001c.006-.005.011-.01.013-.017.002-.007.001-.014-.002-.021l-.147-.273c-.018-.035-.025-.08-.018-.123.006-.042.023-.082.052-.109.077-.073.154-.148.232-.219.045-.042.103-.062.16-.061s.114.025.156.069c.071.068.144.153.212.225.022.023.05.035.079.035.029,0,.058-.009.081-.031.022-.021.034-.05.035-.078Z" fill="#fed700" fill-rule="evenodd" />
        <path d="M15.348,14.457l-.143-.151c-.006.006-.01.013-.012.021-.003.011-.002.024.004.035l.062.116c.012.023.041.032.064.019.015-.008.024-.023.025-.04Z" fill="#fed700" fill-rule="evenodd" />
        <path d="M15.007,14.542l.062.115c.006.011.017.019.028.023.013.004.025.002.037-.004.011-.006.019-.016.022-.028s.002-.024-.003-.035l-.063-.117c-.006-.012-.017-.02-.028-.023-.011-.003-.024-.002-.035.003-.012.007-.02.016-.024.029-.004.013-.002.025.004.037Z" fill="#fed700" fill-rule="evenodd" />
        <path d="M15.126,14.246c.01.034.021.069.034.102-.001-.01,0-.02.003-.03.004-.013.011-.025.021-.035-.017-.016-.037-.028-.057-.037Z" fill="#3c6" fill-rule="evenodd" />
        <path d="M15.274,14.583c.062.102.138.196.224.279.081.078.173.146.272.203,0-.106-.011-.209-.033-.309-.022-.098-.055-.193-.097-.283-.008.018-.019.035-.034.05-.029.027-.066.04-.103.039-.037-.001-.073-.016-.101-.045l-.029-.031c-.007.018-.019.03-.036.04-.017.009-.037.011-.055.007.003.018,0,.035-.008.05Z" fill="#3c6" fill-rule="evenodd" />
        <path d="M15.169,14.687c.054.063.113.121.177.174.06.049.124.093.192.132-.002-.02-.005-.041-.008-.061-.018-.015-.036-.031-.053-.048-.086-.082-.162-.175-.224-.277-.003.003-.006.005-.01.007-.018.009-.037.012-.055.008.002.012.001.024-.002.035-.003.011-.009.021-.017.03Z" fill="#007c29" fill-rule="evenodd" />
        <path d="M14.927,14.276c.012.032.025.062.039.092.013.028.027.056.041.083.001,0,.002-.002.004-.002.017-.009.037-.012.054-.008-.005-.032.01-.066.04-.082.007-.004.014-.006.022-.008-.014-.038-.027-.077-.038-.117-.011-.002-.022-.003-.033-.004-.046-.001-.093.014-.13.045Z" fill="#007c29" fill-rule="evenodd" />
        <path d="M15.411,14.145c.05.026.097.061.137.104l.002.002,1.4-1.319-.052-.048-.899.847c-.006.006-.016.006-.022,0-.006-.006-.006-.016,0-.022l.897-.846-.052-.048-1.413,1.331Z" fill="#ccc" fill-rule="evenodd" />
        <path d="M15.398,14.114c-.049-.052-.101-.101-.158-.145-.053-.042-.11-.08-.169-.114,0,.038.001.075.004.113.003.042.008.082.015.122.03-.004.06-.006.09-.005.069.002.136.017.2.045l.018-.017Z" fill="#3c6" fill-rule="evenodd" />
        <path d="M15.057,14.084c-.036-.031-.074-.06-.114-.087-.031-.021-.064-.042-.098-.061.004.037.009.074.016.11.007.039.016.078.027.117.053-.033.111-.055.17-.067l-.002-.011Z" fill="#008c45" fill-rule="evenodd" />
        <path d="M15.102,14.452l.062.115c.012.023.041.032.064.019.023-.012.032-.041.019-.064l-.062-.116c-.013-.024-.041-.032-.065-.019-.023.013-.031.042-.018.065Z" fill="#fed700" fill-rule="evenodd" />
        <path d="M14.701,15.025l-.059-.109c-.007-.013-.023-.019-.037-.012-.014.007-.02.024-.013.038l.059.11c.007.014.024.019.038.011.014-.007.019-.025.012-.038Z" fill="#fed700" fill-rule="evenodd" />
        <path d="M14.588,15l-.002.002c-.006.005-.008.012-.009.02,0,.007.002.014.008.02.005.006.012.009.02.009.003,0,.007,0,.01-.002l-.027-.049Z" fill="#fed700" fill-rule="evenodd" />
        <path d="M14.721,14.81l.062.116c.006.011.016.019.028.023.012.004.025.002.036-.003.012-.006.019-.016.023-.028.003-.012.003-.025-.004-.036l-.062-.116c-.006-.012-.016-.02-.028-.023-.012-.003-.024-.003-.036.004-.011.006-.019.017-.023.028s-.003.024.004.036Z" fill="#fed700" fill-rule="evenodd" />
        <path d="M14.816,14.72l.062.116c.006.011.017.019.028.023.012.004.025.003.036-.003.011-.006.019-.016.023-.028.004-.012.002-.025-.003-.036l-.062-.116c-.006-.012-.017-.02-.028-.023-.011-.003-.024-.003-.036.004-.011.006-.019.016-.023.028-.004.012-.003.024.003.036Z" fill="#fed700" fill-rule="evenodd" />
        <path d="M14.911,14.631l.062.116c.006.011.016.019.028.023.012.004.025.003.036-.004.012-.006.019-.016.023-.028.003-.012.003-.025-.004-.036l-.062-.116c-.006-.012-.016-.02-.028-.023s-.025-.003-.036.004c-.012.006-.019.016-.023.028-.003.012-.003.024.004.036Z" fill="#fed700" fill-rule="evenodd" />
        <path d="M14.781,14.68c-.024-.015-.049-.03-.073-.045-.022-.014-.043-.027-.064-.041-.005.036,0,.073.015.102l.031.059c.007-.015.019-.028.034-.036.018-.009.037-.012.055-.008-.002-.01-.001-.021.001-.031Z" fill="#f93" fill-rule="evenodd" />
        <path d="M15.062,15.883c.188-.02.366-.079.525-.168.163-.091.306-.215.42-.362-.188.02-.366.079-.525.168-.163.091-.306.215-.419.362Z" fill="#007c29" fill-rule="evenodd" />
        <path d="M15.393,15.345c-.07.033-.143.06-.218.081-.145.041-.3.059-.459.05-.061-.003-.121-.011-.179-.021-.052.03-.101.064-.149.1-.041.032-.08.065-.118.101.05.008.101.014.151.017.201.011.395-.022.572-.09.147-.056.282-.137.4-.237Z" fill="#007c29" fill-rule="evenodd" />
        <path d="M14.563,14.905c-.026-.001-.051-.002-.078-.002-.125,0-.246.017-.361.048-.109.029-.212.072-.309.125.08.035.165.062.253.081.095.021.194.031.296.031.125,0,.246-.016.361-.048.109-.029.212-.071.308-.125-.021-.009-.044-.019-.066-.027-.029-.011-.058-.02-.088-.029-.005.005-.011.009-.018.013-.016.009-.034.011-.051.008.003.011.003.022,0,.033-.004.014-.014.028-.029.035h0c-.015.008-.031.009-.045.005h-.002c-.004.015-.014.029-.029.037-.025.013-.056.007-.074-.014-.009.004-.018.006-.027.006-.015,0-.03-.007-.042-.019-.011-.012-.017-.027-.016-.043,0-.015.007-.03.019-.042l.008-.008-.008-.015c-.009-.017-.009-.036-.002-.052Z" fill="#007c29" fill-rule="evenodd" />
        <path d="M15.137,15.134c-.156-.008-.306.009-.449.049-.137.038-.267.098-.384.174.061.023.124.042.188.056.073.016.148.027.225.031.156.008.306-.009.449-.049.138-.038.267-.097.384-.174-.133-.05-.272-.079-.414-.087Z" fill="#3c6" fill-rule="evenodd" />
        <circle cx="15.658" cy="15.239" r=".06" fill="red" />
        <path d="M15.658,15.147c.051,0,.092.041.092.092,0,.004,0,.007,0,.011.081.022.164.042.247.059.086.018.172.033.26.045.073-.037.146-.077.217-.118-.016-.003-.032-.006-.049-.008-.029-.005-.06-.009-.092-.013-.237-.029-.466-.079-.686-.147-.226-.07-.442-.159-.648-.266h0c.002.012.001.024-.002.035-.006.02-.019.037-.038.047-.017.01-.037.012-.055.008.001.007.001.015,0,.023.108.057.219.111.332.158.068.028.136.055.206.08.046.013.091.028.135.045.015-.03.046-.051.082-.051Z" fill="#f93" fill-rule="evenodd" />
        <path d="M17.247,15.469c-.05.014-.1.029-.149.044-.026.008-.052.017-.078.026.051.019.103.039.155.06.067.027.133.054.2.082.014.005.026.005.039-.004.016-.011.023-.027.03-.044.006-.02.008-.043.002-.061-.005-.015-.014-.027-.028-.033l-.088-.036c-.027-.011-.054-.022-.083-.033Z" fill="#f93" fill-rule="evenodd" />
        <path d="M17.628,15.213l-.015.002c-.194.024-.375.067-.553.124-.178.056-.352.125-.532.2-.014.006-.023.018-.028.033-.006.018-.005.041.002.061.006.017.014.034.03.044.013.009.025.009.039.004.176-.073.344-.141.517-.197.171-.055.345-.098.534-.121,0-.009,0-.018,0-.027,0-.041.002-.082.006-.123Z" fill="#f93" fill-rule="evenodd" />
        <path d="M16.697,15.435c.076-.03.151-.058.227-.085-.047-.015-.094-.03-.141-.043-.086.033-.173.062-.262.087.059.012.118.026.176.041Z" fill="#f93" fill-rule="evenodd" />
        <path d="M14.498,13.664c.006.054.009.108.009.162,0,.098-.01.195-.029.288-.008.039-.018.078-.029.116.025.09.06.177.103.26.013-.028.031-.054.053-.075l.044-.041c.022-.1.033-.201.033-.304,0-.097-.01-.193-.029-.284-.018-.085-.043-.166-.075-.244l-.08.122Z" fill="#007c29" fill-rule="evenodd" />
        <path d="M14.24,14.06c.018.055.039.108.063.159.021.045.045.088.071.131.031-.077.056-.158.073-.241.019-.091.029-.185.029-.282,0-.04-.002-.08-.005-.12l-.23.353Z" fill="#3c6" fill-rule="evenodd" />
        <path d="M14.344,13.238c-.012-.025-.025-.051-.038-.075-.01-.019-.021-.038-.032-.056-.02.049-.037.1-.052.152-.014.051-.025.103-.034.156.024-.015.046-.034.064-.057l.093-.119Z" fill="#3c6" fill-rule="evenodd" />
        <path d="M14.168,14.17l.016.024c.005-.014.009-.028.013-.042.004-.015.008-.03.012-.045l-.041.063Z" fill="#007c29" fill-rule="evenodd" />
        <path d="M14.175,13.313c-.021-.061-.046-.12-.076-.177-.026-.049-.054-.097-.085-.143-.02.063-.036.128-.048.195-.013.075-.019.153-.019.233,0,.046.002.092.007.137l.096-.103s.008-.005.012-.005c.031,0,.062-.006.091-.018.006-.04.013-.079.022-.118Z" fill="#007c29" fill-rule="evenodd" />
        <path d="M14.25,14.482c.02.011.039.021.058.033.079.047.152.101.22.161-.006-.033-.007-.068-.002-.101.002-.018.006-.035.012-.052-.07-.054-.142-.103-.212-.159-.063-.05-.124-.102-.184-.155l-.077.117c.06.054.121.106.184.156Z" fill="#f93" fill-rule="evenodd" />
        <path d="M13.856,14.648c.065.024.132.043.201.056.074.015.151.023.228.026.08.003.16-.002.239-.013-.071-.066-.149-.125-.233-.175-.088-.053-.183-.096-.283-.128l-.152.234Z" fill="#007c29" fill-rule="evenodd" />
        <path d="M13.453,7.614c-.05.084-.092.175-.124.27-.029.088-.05.18-.061.275.067-.049.129-.105.185-.165.062-.066.117-.137.165-.214l-.165-.166Z" fill="#3c6" fill-rule="evenodd" />
        <path d="M13.653,7.721c.045-.08.082-.166.11-.255.026-.083.044-.168.055-.257-.063.047-.122.099-.176.156-.059.062-.113.13-.16.202l.171.154Z" fill="#3c6" fill-rule="evenodd" />
        <path d="M13.053,8.695c.033,0,.06.027.06.06s-.027.06-.06.06-.06-.027-.06-.06.027-.06.06-.06Z" fill="red" fill-rule="evenodd" />
        <path d="M14.008,8.082c-.006.007-.013.015-.02.022l.645.645c.027.027.064.041.1.041.036,0,.073-.014.101-.042l.149-.149-.056-.056-.149.149c-.013.012-.029.019-.045.019-.016,0-.033-.006-.045-.018l-.681-.612Z" fill="#ccc" fill-rule="evenodd" />
        <polygon points="13.757 7.872 13.767 7.866 13.598 7.713 13.757 7.872" fill="#ccc" fill-rule="evenodd" />
        <path d="M14.227,7.699c-.25.073-.481.196-.679.359-.197.163-.362.365-.481.597.25-.073.481-.196.679-.359.197-.162.362-.365.481-.597Z" fill="#007c29" fill-rule="evenodd" />
        <path d="M13.624,13.911c-.126-.125-.276-.226-.442-.296-.161-.068-.336-.105-.521-.107.101.133.226.247.368.335.145.091.308.156.482.187l.112-.12Z" fill="#3c6" fill-rule="evenodd" />
        <path d="M13.749,13.758c.022-.079.037-.16.045-.244.008-.091.008-.185-.003-.28-.014-.127-.044-.248-.09-.361-.042-.107-.098-.207-.164-.298-.022.079-.037.16-.045.243-.009.092-.008.185.002.28.014.127.045.248.09.361.042.107.098.207.164.298Z" fill="#007c29" fill-rule="evenodd" />
        <path d="M13.323,13.438c.033,0,.06.027.06.06,0,.033-.027.06-.06.06-.033,0-.06-.027-.06-.06,0-.033.027-.06.06-.06Z" fill="red" fill-rule="evenodd" />
        <path d="M12.32,13.046c-.103,0-.206.011-.306.034.119.1.255.181.403.237.152.058.317.089.489.089.103,0,.206-.011.306-.034-.119-.1-.255-.181-.403-.237-.152-.058-.317-.089-.489-.089Z" fill="#007c29" fill-rule="evenodd" />
        <path d="M12.655,12.125c-.094-.193-.231-.361-.4-.49-.165-.128-.361-.219-.573-.262.094.193.231.36.399.491.166.128.361.219.574.261Z" fill="#007c29" fill-rule="evenodd" />
        <path d="M15.659,11.848c.005-.02.008-.04.008-.061,0-.038-.012-.093-.038-.133-.018-.028-.042-.048-.074-.048s-.056.02-.074.048c-.026.04-.038.095-.038.133,0,.079.025.193.078.275.038.059.091.101.16.101s.122-.043.16-.101c.037-.058.061-.13.071-.196h-.111c-.042,0-.085,0-.128,0-.01,0-.018-.01-.016-.019Z" fill="#ffec83" fill-rule="evenodd" />
        <path d="M13.183,12.931c.032-.077.057-.158.074-.242.019-.091.029-.185.029-.282,0-.133-.019-.261-.054-.383-.033-.116-.081-.225-.142-.326-.032.077-.056.158-.074.241-.019.091-.029.185-.029.282,0,.133.018.261.054.383.033.116.081.225.141.327Z" fill="#3c6" fill-rule="evenodd" />
        <path d="M13.209,12.978c.033,0,.06.027.06.06,0,.033-.027.06-.06.06-.033,0-.06-.027-.06-.06,0-.033.027-.06.06-.06Z" fill="red" fill-rule="evenodd" />
        <path d="M12.688,11.57c.033,0,.06.027.06.061,0,.033-.027.06-.06.06s-.06-.027-.06-.06c0-.033.027-.061.06-.061Z" fill="red" fill-rule="evenodd" />
        <path d="M12.778,11.611c.146-.126.265-.281.348-.457.094-.198.134-.401.132-.619-.155.117-.285.267-.38.438-.094.171-.153.363-.168.569.034.008.06.036.067.07Z" fill="#3c6" fill-rule="evenodd" />
        <path d="M12.541,11.041c.02-.062.035-.126.047-.192.012-.075.019-.152.019-.23,0-.136-.019-.267-.056-.39-.034-.117-.084-.227-.146-.329-.02.062-.035.126-.046.192-.012.075-.019.152-.019.23,0,.136.02.266.056.39.034.117.084.228.146.33Z" fill="#007c29" fill-rule="evenodd" />
        <path d="M12.602,11.052c-.004-.024-.008-.047-.011-.07-.009.034-.019.067-.03.1-.003.013-.021.016-.028.005-.012-.019-.024-.039-.035-.058.001.022.003.045.004.068.027.113.039.228.038.344.032.217.078.431.138.64.06.211.134.417.221.616.072.107.129.225.169.351.035.065.071.129.108.192.035.06.072.118.11.176.011-.005.024-.008.037-.008.051,0,.092.041.092.092,0,.025-.01.048-.027.065.035.05.071.098.107.145.039.051.079.101.121.151.01.01.02.019.03.029l.089-.096c-.09-.104-.175-.214-.255-.326-.08-.113-.156-.229-.226-.348-.013.007-.028.011-.044.011-.051,0-.092-.041-.092-.092,0-.034.018-.064.046-.079-.04-.065-.074-.133-.103-.204-.021-.044-.041-.087-.06-.13-.016-.037-.032-.074-.047-.11-.015.016-.031.031-.046.046-.01.009-.027.002-.026-.012.002-.06.007-.12.016-.177-.041-.108-.077-.217-.11-.328-.032-.106-.059-.214-.084-.322-.005,0-.01.001-.015.001-.051,0-.092-.041-.092-.092,0-.043.03-.08.07-.09-.014-.078-.027-.157-.037-.237-.011-.084-.02-.168-.027-.253Z" fill="#f93" fill-rule="evenodd" />
        <path d="M12.636,10.546c.001.024.002.048.002.073,0,.08-.007.159-.019.235-.001.007-.003.015-.004.022,0,.046.006.095.013.141.115-.122.207-.266.272-.423h0c.065-.162.101-.338.101-.523,0-.072-.005-.144-.016-.216-.082.087-.152.185-.209.291-.067.124-.118.261-.14.401Z" fill="#3c6" fill-rule="evenodd" />
        <path d="M12.751,10.124c-.007.009-.015.018-.022.027-.03.038-.057.078-.082.121.012-.003.025-.005.037-.008.02-.048.042-.095.067-.141Z" fill="#007c29" fill-rule="evenodd" />
        <path d="M12.378,9.881c.002-.007.005-.015.007-.022,0-.004.003-.007.007-.009.007-.005.017-.002.021.005.036.056.069.115.097.177,0-.01,0-.02,0-.03,0-.024,0-.048-.002-.073-.008-.2-.048-.392-.113-.57-.062-.171-.149-.331-.255-.474-.002.052-.002.104,0,.156.007.157.033.31.075.455.04.136.094.265.162.386Z" fill="#3c6" fill-rule="evenodd" />
        <path d="M13.033,10.115c.067-.045.129-.097.183-.156.054-.058.102-.122.142-.191-.056.01-.11.025-.163.044-.06.022-.118.049-.173.082.007.058.011.117.011.176,0,.015,0,.03,0,.045Z" fill="#007c29" fill-rule="evenodd" />
        <path d="M13.029,13.03c-.07-.203-.186-.385-.336-.533-.149-.148-.333-.262-.536-.33.07.203.186.385.335.533.15.148.332.262.537.33Z" fill="#3c6" fill-rule="evenodd" />
        <path d="M12.794,8.907c.032-.077.058-.158.075-.242.02-.093.03-.189.03-.287,0-.111-.013-.219-.038-.322-.023-.095-.056-.187-.097-.273-.032.077-.058.158-.075.243-.02.092-.03.189-.03.287,0,.111.013.219.038.322.023.095.055.187.097.273Z" fill="#3c6" fill-rule="evenodd" />
        <path d="M12.744,8.946c.033,0,.061.027.061.06,0,.033-.027.06-.061.06-.033,0-.06-.027-.06-.06,0-.033.027-.06.06-.06Z" fill="red" fill-rule="evenodd" />
        <path d="M12.696,9.876c.217-.083.415-.204.585-.355.171-.152.315-.335.422-.54-.217.083-.415.204-.585.355-.171.153-.315.335-.422.54Z" fill="#007c29" fill-rule="evenodd" />
        <path d="M13.687,8.507c-.211.105-.4.248-.557.421-.157.172-.282.372-.368.592.211-.105.4-.249.557-.421.157-.172.282-.372.368-.592Z" fill="#3c6" fill-rule="evenodd" />
        <circle cx="12.68" cy="9.981" r=".06" fill="red" />
        <path d="M12.626,10.055c-.023-.016-.038-.044-.038-.074,0-.04.025-.074.061-.087.031-.191.073-.38.126-.566.053-.182.117-.362.193-.536-.005-.012-.008-.024-.008-.037,0-.041.027-.076.065-.088.036-.076.075-.152.116-.227.042-.076.086-.151.132-.224.009-.014.015-.026.019-.037-.011.008-.023.017-.034.025-.011.008-.026,0-.025-.014.002-.024.005-.047.008-.07l-.002.002c-.011.009-.022.023-.036.043-.068.108-.132.219-.191.333-.059.114-.113.231-.163.35-.011.032-.024.064-.038.095.015.016.024.038.024.062,0,.047-.035.085-.08.091-.025.073-.049.147-.07.222-.022.075-.043.153-.061.231-.003.065-.01.13-.019.193-.014.095-.035.188-.063.278,0,.028,0,.055,0,.082.015.038.028.077.04.117.008.026.015.052.021.079.002-.029.005-.058.007-.087.005-.053.011-.105.017-.157Z" fill="#f93" fill-rule="evenodd" />
        <path d="M12.985,8.485c.046-.09.083-.187.108-.287.028-.109.042-.223.042-.341,0-.082-.007-.162-.021-.239-.012-.067-.029-.133-.05-.197-.046.09-.083.187-.109.287-.028.109-.042.223-.042.341,0,.081.007.161.021.239.012.068.029.134.05.197Z" fill="#007c29" fill-rule="evenodd" />
        <path d="M18.396,14.252l.002-.003c.041-.043.087-.078.137-.104l-.115-.109-.089.154.065.061Z" fill="#ccc" fill-rule="evenodd" />
        <path d="M18.356,14.34c-.021.022-.031.052-.03.081,0,.029.012.057.035.078.023.021.052.032.08.031.029,0,.057-.013.079-.035.07-.075.141-.15.211-.225.042-.044.099-.068.156-.069.057-.002.115.018.16.061.077.073.155.146.232.219.029.027.046.067.052.109.006.043,0,.088-.019.123l-.146.273c-.007.014-.002.031.011.038.014.007.031.002.038-.011l.147-.273c.025-.047.033-.104.025-.158-.008-.054-.032-.106-.069-.141-.066-.062-.133-.129-.2-.189-.099-.093-.227-.137-.354-.133s-.252.056-.345.155c-.021.023-.043.046-.064.068Z" fill="#fed700" fill-rule="evenodd" />
        <path d="M12.54,9.912c.014-.057.025-.115.034-.173.014-.092.021-.187.021-.283,0-.189-.028-.372-.079-.544-.05-.167-.122-.325-.213-.469-.022.078-.04.157-.052.239-.014.09-.021.181-.022.274.08.122.146.254.197.393.065.177.104.366.114.564Z" fill="#007c29" fill-rule="evenodd" />
        <path d="M19.162,14.926l.062-.116c.012-.023.004-.052-.019-.064-.023-.012-.052-.004-.064.019l-.062.116c-.012.023-.004.052.019.064.023.012.052.004.064-.019Z" fill="#fed700" fill-rule="evenodd" />
        <path d="M19.134,14.981c-.017.003-.035,0-.051-.008-.005-.003-.01-.006-.014-.009-.052.015-.103.034-.152.055.096.054.2.096.308.125.115.031.236.048.361.048.101,0,.2-.011.295-.032.088-.019.172-.046.253-.081-.096-.053-.2-.096-.309-.125-.115-.031-.236-.048-.361-.048-.027,0-.054,0-.082.003.006.016.005.033-.003.048l-.008.015c.015.015.027.026.027.05,0,.015-.005.031-.016.043-.018.019-.046.024-.069.013-.018.021-.049.027-.074.014-.015-.008-.025-.021-.03-.038-.016.005-.033.004-.048-.004-.025-.014-.036-.042-.029-.068Z" fill="#007c29" fill-rule="evenodd" />
        <path d="M19.165,14.68c.003.01.003.02.001.031.018-.004.037-.002.054.008.016.008.027.021.034.036l.032-.059c.015-.028.02-.066.015-.102-.021.014-.042.027-.063.041-.023.015-.048.03-.073.045Z" fill="#f93" fill-rule="evenodd" />
        <path d="M18.972,14.747l.062-.116c.013-.024.003-.052-.02-.064-.022-.012-.051-.003-.063.019-.021.039-.042.078-.063.117-.011.023-.003.051.019.063.024.013.052.005.065-.019h0Z" fill="#fed700" fill-rule="evenodd" />
        <path d="M18.687,14.478l.062-.116c.006-.011.007-.024.004-.035-.002-.008-.006-.015-.012-.021l-.143.151c0,.017.01.032.025.04.023.012.052.004.064-.019Z" fill="#fed700" fill-rule="evenodd" />
        <path d="M18.306,14.473c-.042.09-.075.185-.097.283-.023.1-.034.203-.033.309.099-.056.19-.125.272-.202.086-.083.162-.177.225-.279-.009-.015-.012-.033-.009-.051-.018.004-.037.002-.055-.007-.016-.009-.029-.023-.036-.04l-.029.031c-.027.029-.064.044-.101.045-.037.001-.074-.012-.103-.039-.015-.014-.026-.031-.034-.049Z" fill="#3c6" fill-rule="evenodd" />
        <path d="M18.786,14.35c.013-.034.024-.069.035-.104-.021.008-.04.021-.058.037.01.01.017.022.021.035.003.011.004.021.002.032Z" fill="#3c6" fill-rule="evenodd" />
        <path d="M18.856,14.09c.007-.04.012-.081.015-.122.003-.037.004-.075.004-.113-.059.034-.116.072-.169.114-.056.044-.109.093-.158.145l.018.017c.063-.028.131-.043.2-.045.03-.001.061,0,.091.005Z" fill="#3c6" fill-rule="evenodd" />
        <path d="M18.413,14.935c-.003.019-.005.038-.007.058.068-.039.132-.083.192-.132.065-.053.124-.112.178-.175-.015-.018-.022-.041-.018-.064-.019.004-.038.002-.056-.008-.003-.002-.006-.003-.009-.006-.063.101-.138.194-.224.277-.018.017-.037.034-.056.051Z" fill="#007c29" fill-rule="evenodd" />
        <path d="M18.937,14.45c.031-.057.057-.115.08-.175-.037-.031-.083-.045-.128-.044-.011,0-.022.001-.033.004-.011.039-.023.079-.038.117.007.001.014.004.021.008.029.016.046.049.041.082.017-.004.036-.002.053.007l.003.002Z" fill="#007c29" fill-rule="evenodd" />
        <path d="M19.054,14.161c.011-.038.02-.077.027-.115.007-.036.012-.073.016-.11-.033.019-.066.04-.098.061-.038.026-.075.054-.11.084l-.003.014c.058.012.115.034.167.065Z" fill="#007c29" fill-rule="evenodd" />
        <path d="M18.359,15.715c.159.089.337.148.525.168-.114-.147-.257-.271-.419-.362-.159-.089-.337-.148-.525-.168.114.147.257.271.419.362Z" fill="#007c29" fill-rule="evenodd" />
        <circle cx="18.288" cy="15.239" r=".06" fill="red" />
        <path d="M18.288,15.147c.036,0,.067.021.083.051.116-.037.23-.079.34-.126.113-.048.224-.101.332-.158-.001-.007,0-.015,0-.023-.018.004-.037.002-.055-.008h0c-.029-.016-.045-.049-.04-.082-.173.09-.352.166-.536.23-.178.061-.363.11-.554.146-.012.051-.021.102-.029.154.061-.01.122-.022.181-.036.062-.014.124-.029.186-.046,0-.004,0-.007,0-.011,0-.051.041-.092.092-.092Z" fill="#f93" fill-rule="evenodd" />
        <path d="M20.319,14.348c-.176.005-.344.043-.497.108-.149.063-.285.151-.402.26.079.011.16.016.239.013.176-.005.344-.043.497-.108.149-.063.285-.151.401-.26-.079-.011-.159-.016-.239-.013Z" fill="#3c6" fill-rule="evenodd" />
        <path d="M20.318,14.317c.093-.003.185.003.277.019.013.002.017.019.008.027-.124.12-.271.219-.434.287-.01.005-.021.009-.032.013l.166.254c.016.025.043.043.074.043.031,0,.056-.018.072-.043.027-.043.057-.086.089-.126.032-.04.066-.079.103-.116.038-.038.079-.074.122-.108.02-.017.035-.035.037-.062.002-.028-.01-.048-.028-.069l-.894-.956c-.039-.001-.078-.01-.113-.028-.036-.018-.069-.043-.095-.077l-.144-.185-.211.211.635.974c.117-.035.24-.056.368-.06Z" fill="#8e2300" fill-rule="evenodd" />
        <path d="M19.416,14.516l-.007.013c.005.015.008.03.01.045.005.033.005.068-.002.102.084-.075.177-.141.278-.194.063-.051.124-.103.184-.156l-.076-.117c-.06.053-.121.105-.184.155-.066.053-.133.104-.203.152Z" fill="#f93" fill-rule="evenodd" />
        <path d="M19.497,14.23c-.011-.038-.021-.077-.029-.116-.019-.093-.029-.189-.029-.288,0-.054.003-.108.009-.162l-.08-.122c-.032.078-.057.16-.075.244-.019.092-.029.187-.029.284,0,.102.011.204.033.304l.044.041c.022.021.04.047.053.075.043-.083.078-.17.103-.26Z" fill="#007c29" fill-rule="evenodd" />
        <path d="M19.758,13.414c-.016-.105-.045-.209-.085-.307-.026.042-.05.086-.071.131l.093.119c.018.023.04.042.063.057Z" fill="#3c6" fill-rule="evenodd" />
        <path d="M19.737,14.107c.007.03.016.058.025.087l.016-.024-.041-.063Z" fill="#007c29" fill-rule="evenodd" />
        <path d="M19.706,14.06l-.23-.353c-.004.04-.005.08-.005.12,0,.097.01.191.029.282.017.083.042.164.073.241.026-.042.049-.086.071-.131.024-.052.045-.105.063-.159Z" fill="#3c6" fill-rule="evenodd" />
        <path d="M19.992,13.557c.004-.046.007-.092.007-.137,0-.079-.007-.157-.019-.233-.011-.067-.027-.132-.048-.195-.031.046-.059.094-.085.143-.029.057-.054.116-.076.177.009.039.016.078.021.118.029.012.06.018.091.018.004,0,.009.001.012.005l.096.103Z" fill="#007c29" fill-rule="evenodd" />
        <path d="M20.434,14.031c.339-.062.641-.249.85-.523-.184.002-.36.04-.521.107-.164.069-.315.17-.442.296l.112.12Z" fill="#007c29" fill-rule="evenodd" />
        <path d="M20.623,13.438c.033,0,.06.027.06.06,0,.033-.027.06-.06.06-.033,0-.061-.027-.061-.06,0-.033.027-.06.061-.06Z" fill="red" fill-rule="evenodd" />
        <path d="M21.626,13.046c-.172,0-.337.032-.489.089-.148.056-.284.137-.403.237.1.023.203.034.306.034.172,0,.337-.031.489-.089.148-.056.284-.137.403-.237-.1-.023-.203-.034-.306-.034Z" fill="#3c6" fill-rule="evenodd" />
        <path d="M21.252,12.497c-.066.065-.125.137-.177.215h0s0,0,0,0h0s0,0,0,0c-.065.097-.118.204-.157.317.204-.068.387-.182.536-.33.15-.148.266-.33.336-.533-.204.068-.387.182-.536.33Z" fill="#007c29" fill-rule="evenodd" />
        <path d="M21.564,12.626c.106-.039.206-.09.299-.153.1-.068.19-.148.27-.239-.057.002-.114.008-.169.017-.066.011-.13.026-.192.046-.054.119-.124.23-.207.329Z" fill="#007c29" fill-rule="evenodd" />
        <path d="M20.763,12.931c.06-.101.108-.211.141-.327.035-.122.053-.25.053-.383,0-.097-.01-.191-.029-.282-.017-.083-.042-.164-.074-.241-.06.101-.108.211-.142.326-.035.122-.054.25-.054.383,0,.18.035.357.103.524Z" fill="#3c6" fill-rule="evenodd" />
        <path d="M20.736,12.978c.033,0,.061.027.061.06,0,.033-.027.06-.061.06-.033,0-.06-.027-.06-.06,0-.033.027-.06.06-.06Z" fill="red" fill-rule="evenodd" />
        <path d="M20.775,11.781c-.044-.061-.094-.119-.147-.173.007.123.03.245.07.363.021-.066.047-.129.077-.19Z" fill="#007c29" fill-rule="evenodd" />
        <path d="M20.972,12.445c.02.022.04.043.06.064-.005-.092-.02-.184-.043-.274,0,.071-.007.141-.018.209Z" fill="#007c29" fill-rule="evenodd" />
        <path d="M20.152,13.514c.008.083.023.165.045.244.066-.091.121-.191.164-.298.045-.113.075-.234.089-.361.01-.095.011-.189.003-.28-.008-.083-.023-.164-.045-.243-.066.091-.121.191-.164.298-.045.113-.076.234-.09.361-.01.095-.011.189-.002.28Z" fill="#3c6" fill-rule="evenodd" />
        <path d="M21.69,11.635c-.168.13-.306.298-.399.49.213-.042.408-.133.574-.261.168-.13.306-.298.399-.491-.213.042-.408.134-.574.262Z" fill="#3c6" fill-rule="evenodd" />
        <path d="M21.605,10.764c-.057.105-.101.218-.129.337h0s0,.002,0,.003c-.023.099-.036.202-.037.308.183-.124.334-.291.44-.486.105-.193.165-.413.167-.648-.183.124-.334.291-.44.486Z" fill="#007c29" fill-rule="evenodd" />
        <path d="M21.258,11.57c.033,0,.06.027.06.061,0,.033-.027.06-.06.06s-.06-.027-.06-.06c0-.033.027-.061.06-.061Z" fill="red" fill-rule="evenodd" />
        <path d="M21.235,11.542c-.014-.205-.073-.398-.168-.569-.094-.171-.224-.321-.38-.438-.002.219.038.421.132.619.083.176.203.332.348.457.007-.034.034-.061.067-.07Z" fill="#007c29" fill-rule="evenodd" />
        <path d="M21.307,10.526c-.024-.13-.075-.265-.137-.381-.057-.106-.128-.203-.209-.291-.011.072-.017.144-.017.216,0,.185.036.361.102.522h0c.064.159.157.302.272.425.006-.038.01-.076.013-.114-.018-.092-.027-.185-.027-.278,0-.033.001-.066.003-.098Z" fill="#3c6" fill-rule="evenodd" />
        <path d="M21.261,10.265c.012.003.025.005.037.008-.03-.052-.065-.102-.104-.148l.003.006c.023.044.045.089.063.135Z" fill="#007c29" fill-rule="evenodd" />
        <path d="M20.923,9.895c-.055-.032-.113-.059-.173-.082-.052-.019-.107-.034-.162-.044.04.069.088.133.142.191.055.059.116.111.183.156,0-.015,0-.03,0-.045,0-.059.004-.117.011-.176Z" fill="#007c29" fill-rule="evenodd" />
        <path d="M21.563,9.888c.069-.123.125-.255.165-.393.043-.145.068-.297.075-.455.002-.052.002-.104,0-.156-.106.144-.192.303-.255.474-.065.179-.104.37-.113.57,0,.025-.001.049-.002.073,0,.009,0,.018,0,.027.027-.058.058-.114.092-.168.007-.012.025-.009.028.004.003.008.005.015.008.023Z" fill="#3c6" fill-rule="evenodd" />
        <path d="M21.601,9.885c.162-.091.304-.215.417-.361.116-.15.201-.324.248-.515-.086.039-.167.086-.242.14-.083.06-.16.13-.227.207-.01.05-.023.1-.037.149-.039.134-.093.261-.158.381Z" fill="#007c29" fill-rule="evenodd" />
        <path d="M21.717,8.955c0-.093-.008-.184-.021-.274-.013-.081-.03-.161-.053-.239-.091.145-.163.302-.213.469-.051.172-.079.355-.079.544,0,.154.018.307.055.457.01-.198.05-.387.114-.564.051-.14.117-.271.197-.393Z" fill="#007c29" fill-rule="evenodd" />
        <path d="M21.201,8.946c.033,0,.061.027.061.06,0,.033-.027.06-.061.06-.033,0-.06-.027-.06-.06,0-.033.027-.06.06-.06Z" fill="red" fill-rule="evenodd" />
        <path d="M20.327,7.779c.048.077.103.148.165.214.057.06.118.115.185.165-.011-.095-.031-.187-.061-.275-.031-.095-.073-.185-.123-.27l-.166.166Z" fill="#007c29" fill-rule="evenodd" />
        <path d="M20.464,7.567c-.047-.072-.1-.14-.16-.202-.054-.057-.113-.109-.177-.156.01.088.029.174.055.257.028.089.065.175.11.255l.171-.154Z" fill="#007c29" fill-rule="evenodd" />
        <path d="M20.398,8.059c-.198-.163-.429-.286-.679-.359.119.232.284.435.481.597.198.164.429.287.679.359-.119-.232-.284-.434-.481-.597Z" fill="#3c6" fill-rule="evenodd" />
        <path d="M19.957,8.105c-.006-.007-.013-.015-.02-.022l-.681.611c-.012.012-.029.019-.045.019-.017,0-.033-.006-.045-.019l-.149-.149-.056.056.149.149c.028.028.065.042.101.042s.073-.014.101-.042l.644-.644Z" fill="#ccc" fill-rule="evenodd" />
        <polygon points="20.178 7.866 20.189 7.872 20.348 7.713 20.178 7.866" fill="#ccc" fill-rule="evenodd" />
        <circle cx="20.893" cy="8.755" r=".06" fill="red" />
        <path d="M20.853,8.198c.025.101.062.197.108.287h0c.021-.063.038-.129.05-.197.014-.078.021-.158.021-.239,0-.118-.015-.232-.042-.341-.026-.101-.062-.197-.109-.287-.021.064-.038.13-.05.197-.014.077-.021.157-.021.239,0,.118.015.232.043.341Z" fill="#007c29" fill-rule="evenodd" />
        <path d="M20.816,8.928c-.157-.173-.346-.316-.557-.421.086.22.211.421.368.592.157.172.346.316.557.421-.086-.221-.211-.421-.368-.592Z" fill="#007c29" fill-rule="evenodd" />
        <path d="M20.665,9.521c.17.152.368.273.585.355-.107-.205-.251-.388-.422-.54-.17-.151-.368-.273-.585-.355.107.205.251.388.422.54Z" fill="#3c6" fill-rule="evenodd" />
        <path d="M21.296,9.892c.038.011.066.046.066.088,0,.033-.017.061-.043.078.006.051.012.103.017.154.002.026.005.052.006.078.005-.021.011-.043.017-.064.014-.048.03-.095.049-.14-.003-.003-.005-.007-.005-.011,0-.018,0-.035,0-.053-.047-.153-.075-.312-.082-.472-.019-.078-.039-.155-.061-.231-.022-.075-.045-.149-.071-.222-.045-.006-.08-.044-.08-.091,0-.024.009-.045.024-.062-.014-.031-.026-.063-.038-.095-.049-.119-.103-.236-.163-.351-.059-.114-.123-.225-.191-.333-.011-.017-.023-.033-.038-.045.003.023.006.047.008.07,0,.014-.014.022-.025.014-.012-.008-.023-.016-.034-.025.005.012.012.026.019.037.046.073.09.148.132.224.041.075.08.15.116.227.038.012.065.047.065.088,0,.013-.003.026-.008.037.076.174.14.353.193.536.053.185.095.373.126.563Z" fill="#f93" fill-rule="evenodd" />
        <path d="M21.381,11.087c-.01-.03-.019-.061-.028-.092-.003.018-.006.037-.009.056-.006.084-.016.168-.027.253-.01.079-.023.158-.037.237.04.01.07.046.07.09,0,.051-.041.092-.092.092-.005,0-.01,0-.015-.001-.024.108-.052.215-.084.322-.033.111-.07.22-.11.328.009.058.014.117.016.177,0,.014-.016.021-.026.012-.016-.015-.031-.03-.046-.046-.015.037-.031.073-.047.11-.049.111-.1.231-.163.334.027.016.046.046.046.079,0,.051-.041.092-.092.092-.016,0-.031-.004-.044-.011-.07.119-.145.235-.225.347-.08.113-.166.222-.256.326l.09.096c.056-.055.103-.117.151-.179.036-.047.072-.095.107-.145-.017-.017-.027-.04-.027-.065,0-.051.041-.092.092-.092.013,0,.025.003.037.008.037-.057.074-.116.109-.176.038-.063.074-.127.109-.192.04-.125.098-.243.17-.351.087-.199.161-.405.221-.616.059-.209.106-.422.137-.639,0-.119.011-.229.038-.345.002-.023.003-.047.005-.069-.013.022-.026.044-.04.065-.008.011-.025.008-.029-.004Z" fill="#f93" fill-rule="evenodd" />
        <g>
          <path d="M15.805,9.62l.108-.005v.02h-.007c-.007,0-.013.002-.016.005-.003.003-.004.009-.004.017v.191c0,.008.001.014.004.016.003.003.007.004.014.004l.032-.002c.014,0,.026-.005.036-.011.01-.007.017-.014.023-.022.001-.002.002-.003.003-.005,0-.001.002-.003.003-.005h.011s-.01.064-.01.064l-.198.009v-.02h.006c.007,0,.012-.002.015-.005.003-.003.004-.005.005-.008v-.003s0-.001,0-.002h0v-.004s0,0,0,0h0v-.193c0-.008-.001-.014-.004-.016-.003-.003-.008-.004-.015-.004h-.006s0-.02,0-.02h0ZM16.036,9.866h.007c.008,0,.013-.003.016-.006.002-.003.004-.007.004-.011v-.005h0v-.196h0v-.006s-.002-.007-.004-.01c-.002-.003-.007-.005-.016-.004h-.007s0-.02,0-.02l.109-.005v.02h-.007c-.009,0-.015.003-.017.007-.002.004-.003.009-.003.015v.194c0,.006,0,.011.003.015.002.004.008.006.017.005h.007s0,.02,0,.02l-.109.005v-.02h0ZM16.183,9.603l.104-.005h.001c.006,0,.012,0,.02,0,.008,0,.016,0,.024.002.014.002.027.007.038.016.012.008.017.023.017.043,0,.014-.003.025-.01.034-.007.009-.015.016-.023.021-.003.002-.006.003-.01.004-.003.001-.006.002-.009.003v.004s.004,0,.006,0c.002,0,.004,0,.006,0,.013.003.025.01.035.021.011.011.016.026.016.047,0,.004,0,.009,0,.014,0,.005-.002.01-.004.015-.004.013-.013.024-.026.035-.013.011-.033.017-.06.018l-.126.006v-.02h.007c.008,0,.014-.003.016-.006.002-.004.004-.011.004-.021v-.187h0s0,0,0,0h0v-.005h0s0-.002,0-.003c0,0,0-.002,0-.003,0-.003-.002-.006-.004-.008-.002-.002-.007-.003-.015-.003h-.006s0-.02,0-.02h0ZM16.265,9.742v.089c0,.006,0,.011.002.015.002.004.007.005.017.005h.002s0,0,0,0c.014,0,.025-.005.033-.013.007-.008.013-.016.016-.025.001-.004.002-.008.002-.012,0-.004,0-.007,0-.01,0-.003,0-.006-.001-.011,0-.004-.002-.009-.004-.014-.003-.007-.009-.013-.018-.019-.009-.005-.021-.008-.038-.007-.002,0-.004,0-.006,0-.002,0-.004,0-.006,0h0ZM16.265,9.644v.072s.004,0,.005,0,.003,0,.005,0c.016,0,.029-.005.038-.011.01-.007.015-.018.015-.034,0-.002,0-.006,0-.009,0-.004-.001-.007-.002-.011-.002-.007-.006-.013-.013-.019-.006-.006-.016-.008-.029-.008-.01,0-.016.003-.017.007-.001.004-.002.009-.002.015h0ZM16.609,9.583l.01.066h-.011s-.002-.004-.003-.006c-.001-.003-.002-.005-.004-.008-.004-.007-.01-.013-.017-.018-.008-.005-.018-.008-.03-.007h-.025c-.007.001-.012.003-.015.006-.003.002-.005.008-.005.017v.071h.024c.019-.002.031-.004.035-.007.004-.003.007-.007.008-.012h0s0-.002,0-.003,0-.001,0-.002v-.002s0-.001,0-.002c0,0,0-.001,0-.002h.011s0,.077,0,.077h-.011s0-.001,0-.002c0,0,0-.001,0-.002v-.002s0,0,0-.001c0,0,0-.002,0-.003,0,0,0-.001,0-.002-.001-.003-.003-.006-.007-.009-.004-.002-.011-.004-.021-.003l-.037.002v.091c0,.007.001.013.004.016.002.003.008.005.016.004h.029s.01-.002.017-.003c.007-.001.014-.005.021-.01.004-.003.009-.008.013-.013.004-.006.009-.013.012-.022h.012s-.012.068-.012.068l-.194.009v-.02h.007c.008,0,.013-.003.016-.006.003-.003.004-.007.004-.01v-.005h0v-.196h0c0-.006,0-.01-.003-.014-.002-.004-.007-.006-.017-.005h-.007s0-.02,0-.02l.183-.008h0ZM16.748,9.735v.077s0,.003,0,.004c0,.001,0,.003,0,.005,0,.003.002.006.004.008.002.003.005.004.01.003h.007s0,.02,0,.02l-.104.005v-.02h.007c.008,0,.013-.003.015-.006.002-.003.004-.007.004-.01v-.005h0v-.196h0v-.006s-.002-.007-.004-.01c-.002-.003-.008-.004-.015-.004h-.007s0-.02,0-.02l.107-.005c.029-.001.054.002.075.011.021.008.031.029.031.061,0,.017-.004.032-.013.044-.009.012-.021.02-.036.023v.005s.022.051.022.051c.002.005.004.009.006.013.002.004.004.008.006.011.005.008.009.016.014.021.005.005.012.009.02.011v.02l-.101.005v-.02h.004s.005-.001.007-.003c.002-.002.003-.005.003-.008,0-.001,0-.003,0-.004,0-.002-.001-.004-.002-.006,0,0,0-.001,0-.002,0,0,0,0,0-.001,0-.001,0-.002-.001-.004,0-.001,0-.002-.001-.003l-.031-.067h-.026ZM16.748,9.621v.09h.019s.006-.001.01-.002c.003,0,.007-.001.011-.003.008-.003.015-.008.022-.016.007-.008.01-.021.01-.039,0-.002,0-.006,0-.01,0-.005-.002-.01-.003-.015-.003-.007-.008-.013-.014-.019-.007-.005-.017-.008-.031-.007-.01,0-.016.003-.018.006s-.003.009-.003.015h0ZM17.109,9.56l.016.059h-.011c-.01-.014-.02-.023-.03-.027-.009-.004-.017-.006-.023-.005h-.001s-.008.001-.011.002-.005.006-.005.015v.195h0v.006s.001.007.004.01c.002.003.007.004.016.004h.007s0,.02,0,.02l-.109.005v-.02h.007c.01,0,.015-.003.017-.007.002-.004.003-.009.003-.015v-.195c0-.008-.001-.013-.004-.014-.003-.001-.007-.002-.011-.002h0s-.003,0-.005,0c-.001,0-.003,0-.004,0-.006.001-.013.005-.019.01-.007.005-.015.014-.025.027h-.011s.016-.06.016-.06l.185-.008h0ZM17.268,9.547l.07.218s.001.004.002.008.003.007.004.011c.001.003.002.005.004.007.001.003.003.005.004.006,0,.001.002.002.002.002,0,0,.002.001.002.002.002.002.004.003.006.003.002,0,.004,0,.007,0h.002s0,0,0,0v.021l-.09.004v-.02h.011s0,0,0,0h.001s.001,0,.002,0c0,0,.001-.002.002-.003h0v-.002h0s0-.002,0-.003c0-.001,0-.003-.002-.006l-.015-.048-.084.004-.013.044s0,.002,0,.003c0,.001,0,.002,0,.003,0,0,0,0,0,0,0,0,0,0,0,0,0,.001,0,.003-.001.004,0,.001,0,.002,0,.003h0s0,.002,0,.002h0s0,.002.002.003c.001,0,.002,0,.003,0,0,0,.001,0,.002,0h.01s0,.02,0,.02l-.07.003v-.02c.009-.001.015-.003.019-.005.003-.003.006-.006.008-.01,0,0,0-.001,0-.002,0,0,0-.001.001-.002.002-.003.003-.006.003-.008,0-.002.001-.003.001-.005h0s0-.001,0-.002c0,0,0-.001,0-.002l.054-.168s0-.003.001-.005c0-.001.001-.003.001-.005,0-.002,0-.003,0-.004,0-.001,0-.003,0-.005h0v-.003s-.001-.003-.003-.005c-.002-.001-.005-.002-.01-.002h-.004s0-.013,0-.013c.006,0,.011-.001.016-.002.004-.002.008-.003.012-.006.003-.002.006-.004.009-.007l.01-.01h.014ZM17.239,9.623l-.032.102.067-.003-.031-.099h-.004ZM17.392,9.547l.111-.005c.044-.002.077.006.097.024.02.018.033.039.039.061.002.007.003.015.004.022,0,.007,0,.014,0,.021,0,.004,0,.008,0,.013,0,.005,0,.009-.001.013-.004.029-.016.056-.037.081-.02.025-.051.039-.091.04l-.121.006v-.02h.006c.007,0,.012-.002.015-.005.003-.003.005-.009.005-.017v-.194c0-.008-.002-.014-.005-.016-.003-.003-.008-.004-.015-.004h-.006s0-.02,0-.02h0ZM17.474,9.589v.186c0,.009.002.015.005.017.003.002.007.003.012.003h.003s.003,0,.005,0c.002,0,.003,0,.005,0,.024-.002.041-.01.052-.024.011-.014.018-.029.022-.046.002-.009.003-.018.004-.026,0-.008,0-.016,0-.022v-.019s0-.01-.001-.015c0-.005-.001-.011-.002-.016-.004-.016-.011-.029-.022-.042-.011-.012-.028-.019-.052-.018h-.003s-.002,0-.003,0h-.003s-.002,0-.003,0h-.004s-.007.002-.01.005c-.003.002-.005.008-.005.017Z" fill="#8e2300" fill-rule="evenodd" />
          <path d="M16.584,10.187h.018s0,.24,0,.24c0,.008.002.014.005.017.003.003.008.004.015.004h.006s0,.02,0,.02l-.109.005v-.02h.007c.007,0,.012-.003.015-.006.003-.003.004-.009.004-.017v-.153c0-.011-.001-.019-.003-.024-.002-.005-.009-.007-.021-.007,0,0-.001,0-.002,0h-.001v-.013h.001c.008,0,.016-.003.027-.009.01-.005.023-.018.037-.037h0ZM16.705,10.339h-.017s.01-.151.01-.151l.093-.004h0s0,0,0,0c0,0,0,0,0,0,0,0,0,0,0,0h0s0,0,.001,0h.002s.002,0,.003,0c.001,0,.003-.001.004-.002.001,0,.002-.002.003-.003,0-.001.002-.003.003-.005h.009s-.01.056-.01.056l-.095.004-.004.07h.004c.006-.004.013-.008.019-.011.006-.003.012-.004.018-.004.022,0,.042.006.06.02.018.015.027.037.027.067,0,.003,0,.005,0,.008,0,.003,0,.006,0,.008-.003.018-.012.036-.026.051-.014.016-.035.024-.061.025-.023,0-.042-.004-.057-.014-.015-.01-.023-.027-.023-.049,0-.011.002-.02.007-.028.005-.008.011-.013.019-.013.007,0,.012.002.017.007.004.004.006.012.006.021,0,.004,0,.008-.002.01-.001.003-.002.006-.004.008,0,0-.001.002-.002.002,0,0,0,.002-.001.003,0,.002-.002.004-.002.006,0,.002-.001.004-.001.007,0,.005.002.008.006.011.004.003.008.004.012.005.002,0,.003,0,.005,0h.005c.015,0,.025-.006.032-.017.007-.01.011-.021.013-.034,0-.003,0-.006,0-.009,0-.003,0-.005,0-.008,0-.017-.003-.033-.009-.046-.006-.013-.016-.02-.03-.019-.008,0-.016.003-.022.008-.006.005-.011.011-.014.019h0ZM17.001,10.174l.111-.005c.045-.002.077.006.097.024.02.018.033.039.038.061.002.007.003.015.004.021,0,.007.001.014.001.021,0,.004,0,.008,0,.013,0,.005,0,.009-.001.013-.004.029-.017.056-.037.081-.02.025-.051.039-.091.041l-.121.006v-.02h.006c.007,0,.012-.002.015-.005.003-.003.005-.008.005-.017v-.194c0-.008-.002-.014-.005-.017-.003-.002-.008-.004-.015-.004h-.006s0-.02,0-.02h0ZM17.083,10.216v.186c0,.009.002.015.005.017.003.002.007.003.012.003h.002s.004,0,.005,0c.002,0,.003,0,.005,0,.023-.002.041-.01.052-.024.011-.014.018-.029.022-.046.002-.009.003-.017.004-.026,0-.008,0-.016,0-.022v-.019s0-.01-.001-.015c0-.005-.001-.01-.002-.016-.004-.016-.011-.03-.022-.042-.011-.012-.028-.019-.052-.018h-.003s-.002,0-.003,0h-.003s-.002,0-.003,0h-.004s-.007.002-.01.005c-.003.002-.005.008-.005.017h0ZM17.469,10.153l.011.067h-.011s-.002-.004-.003-.007c-.001-.003-.002-.005-.004-.008-.004-.007-.01-.013-.018-.018-.007-.005-.017-.008-.03-.007h-.025c-.007.002-.012.003-.015.006-.003.003-.004.008-.004.017v.071h.024c.019-.002.031-.004.035-.007.004-.003.007-.007.008-.013,0,0,0,0,0-.001,0,0,0,0,0-.001h0s0-.002,0-.003c0,0,0-.001,0-.002v-.003h.011s0,.077,0,.077h-.011v-.002s0-.001,0-.002c0,0,0-.001,0-.002v-.002s0-.001,0-.002c0,0,0-.002,0-.002-.001-.003-.004-.007-.007-.009-.004-.003-.011-.004-.022-.003l-.037.002v.091c0,.008.001.013.004.016.003.003.008.005.016.004h.029s.01-.002.017-.004c.007-.001.014-.005.021-.01.005-.003.009-.008.013-.013.004-.006.008-.013.012-.021h.011s-.012.068-.012.068l-.194.009v-.02h.007c.008,0,.013-.003.016-.006.002-.003.003-.007.004-.011v-.005h0v-.196h0c0-.006,0-.01-.002-.015-.002-.004-.008-.006-.017-.005h-.007s0-.02,0-.02l.182-.008Z" fill="#8e2300" fill-rule="evenodd" />
          <path d="M16.26,10.889h-.011c-.004-.01-.009-.018-.016-.024-.006-.007-.013-.011-.02-.015-.005-.003-.01-.005-.016-.006-.005,0-.01-.002-.014-.001-.008,0-.015.003-.019.008-.005.005-.007.011-.009.017,0,.001,0,.002,0,.004v.003c0,.009.002.016.006.021.004.005.009.009.014.013.002,0,.003.002.005.003.001,0,.003.002.004.002.017.009.032.018.044.026.012.008.022.016.029.023.008.009.014.017.017.026.004.009.005.019.005.03,0,.026-.009.046-.028.061-.018.015-.039.023-.062.024-.01,0-.021,0-.034-.002-.012-.002-.027-.006-.044-.013l-.006-.058h.011c.005.009.01.017.017.023s.013.012.02.016c.007.004.014.007.021.008.006.002.012.003.017.002.012,0,.021-.004.027-.011.006-.007.009-.015.009-.026,0-.007-.001-.013-.005-.018-.003-.005-.008-.01-.014-.015-.004-.004-.01-.008-.016-.012-.006-.004-.013-.008-.021-.012-.002-.001-.005-.003-.008-.005-.003-.001-.005-.003-.008-.005-.015-.009-.027-.02-.037-.031-.01-.011-.014-.027-.014-.048,0-.021.007-.04.02-.056.013-.016.033-.025.06-.026.005,0,.01,0,.016,0,.006,0,.011.001.017.003.007.002.013.003.02.006.006.002.012.005.017.008l.003.052h0ZM16.5,10.811l.01.066h-.011s-.002-.004-.003-.007c-.001-.003-.003-.005-.004-.008-.004-.007-.01-.013-.018-.018-.008-.005-.018-.008-.03-.007h-.025c-.007.001-.012.003-.015.006-.003.003-.004.008-.004.017v.071h.023c.02-.002.031-.004.035-.007.004-.003.007-.007.008-.013,0,0,0,0,0,0h0s0-.003,0-.003,0-.001,0-.002,0-.001,0-.002c0,0,0-.002,0-.002h.011s0,.077,0,.077h-.011s0-.001,0-.002c0,0,0-.001,0-.002s0-.001,0-.002,0-.001,0-.001c0,0,0-.002,0-.003,0,0,0-.002,0-.002-.001-.003-.004-.007-.008-.009-.004-.002-.011-.004-.021-.003l-.037.002v.091c0,.007.001.013.004.016.003.003.008.005.016.004h.029s.01-.002.017-.003.014-.005.021-.01c.005-.003.009-.008.013-.013.004-.006.008-.013.012-.022h.011s-.012.068-.012.068l-.194.009v-.02h.007c.008,0,.013-.003.016-.006.002-.003.003-.007.004-.01v-.005h0v-.196h0c0-.006,0-.01-.003-.014-.002-.004-.007-.006-.017-.005h-.007s0-.02,0-.02l.182-.008h0ZM16.639,10.976v.064c0,.008.001.014.004.017.003.003.008.004.015.003h.012s0,.02,0,.02l-.114.005v-.02h.007c.007,0,.012-.002.015-.005.003-.003.004-.009.004-.017v-.194c0-.008-.001-.014-.004-.017-.003-.002-.008-.004-.015-.004h-.007s0-.02,0-.02l.107-.005h.003s.002,0,.003,0c.001,0,.002,0,.003,0,.033-.002.058.007.073.024s.023.037.023.059h0c0,.024-.008.044-.024.061-.016.017-.044.026-.086.028h-.021ZM16.639,10.952h.013c.018-.001.031-.006.04-.016.008-.009.014-.02.016-.031,0-.003.001-.006.001-.01,0-.003,0-.006,0-.009,0-.018-.003-.031-.009-.039-.006-.008-.013-.014-.02-.016-.003-.001-.007-.002-.01-.002-.003,0-.007,0-.009,0-.008,0-.013.002-.016.005-.003.002-.005.008-.005.017v.102h0ZM16.985,10.789l.016.059h-.011c-.01-.014-.02-.023-.03-.027-.009-.004-.017-.006-.023-.005h-.001s-.008,0-.011.002c-.003.002-.005.006-.005.014v.195h0v.006s.001.007.004.01c.002.003.007.004.016.004h.007s0,.02,0,.02l-.109.005v-.02h.007c.01,0,.015-.003.017-.007.002-.004.003-.009.003-.015v-.195c0-.008-.001-.013-.004-.014-.003-.001-.007-.002-.011-.001h0s-.003,0-.005,0h-.004c-.006.002-.013.006-.02.011-.007.005-.015.014-.025.027h-.011s.016-.06.016-.06l.185-.008h0ZM17.024,11.043h.007c.008,0,.013-.002.016-.006.002-.003.004-.007.004-.011v-.005h0v-.196h0v-.006s-.001-.007-.004-.01c-.002-.003-.008-.004-.016-.004h-.007s0-.02,0-.02l.109-.005v.02h-.007c-.009,0-.015.003-.017.007-.002.004-.003.009-.003.015v.194c0,.006.001.011.003.015.002.004.007.006.017.005h.007s0,.02,0,.02l-.109.005v-.02h0ZM17.352,10.772l.01.067h-.011s-.002-.004-.003-.007c-.001-.002-.003-.005-.004-.008-.004-.007-.01-.013-.018-.018-.007-.005-.017-.008-.029-.007h-.025c-.007.001-.012.003-.015.006-.003.003-.004.008-.004.017v.071h.023c.019-.002.031-.004.035-.007.004-.003.007-.007.008-.013h0s0-.002,0-.002v-.002s0-.001,0-.002c0,0,0-.001,0-.002,0,0,0-.002,0-.003h.011s0,.077,0,.077h-.011s0,0,0-.002c0,0,0-.001,0-.002,0,0,0-.001,0-.002v-.002s0-.001,0-.002c0,0,0-.002,0-.003-.001-.003-.004-.006-.007-.009-.004-.003-.011-.004-.021-.003l-.037.002v.091c0,.008.001.013.004.016.003.003.008.004.016.004h.029s.01-.002.017-.003c.007-.001.013-.005.021-.01.004-.003.009-.007.013-.013.004-.006.008-.013.012-.021h.012s-.012.068-.012.068l-.194.009v-.02h.007c.008,0,.013-.003.016-.006.002-.003.004-.007.004-.01v-.005h0v-.196h0c0-.006-.001-.011-.003-.014-.002-.004-.007-.006-.017-.005h-.007s0-.02,0-.02l.183-.008h0ZM17.509,10.765l.048.174h.003s.051-.179.051-.179l.076-.003v.02h-.008c-.005,0-.008.002-.01.005-.002.003-.002.005-.002.008v.003s0,.001,0,.002l.025.194c.001.011.004.018.007.02.003.003.01.004.02.003v.02l-.099.005v-.02h.006s.005,0,.006,0,.003,0,.004,0c.001,0,.002-.002.003-.003,0-.001,0-.003,0-.006v-.002s0-.002,0-.002l-.022-.175h-.004s-.059.208-.059.208h-.025s-.057-.201-.057-.201h-.003l-.019.162h0s0,.002,0,.002h0s0,.003,0,.003v.002s0,.004,0,.005c0,.001,0,.002,0,.003h0c0,.006.001.01.004.011.002.002.006.003.01.002h.01s0,.02,0,.02l-.074.003v-.02h.009c.009,0,.016-.004.018-.01.002-.006.004-.013.005-.021l.021-.172h0s0-.002,0-.003h0s0-.003,0-.004,0-.003,0-.005c0,0,0-.002,0-.003,0-.001,0-.002,0-.003,0-.002,0-.003,0-.005,0-.002,0-.003,0-.004,0,0,0-.001,0-.002,0,0,0,0,0-.001,0-.002-.002-.003-.005-.005-.003-.001-.007-.002-.014-.001h-.006s0-.02,0-.02l.084-.004h0ZM17.742,10.754l.105-.005h0s0,0,0,0c.005,0,.012,0,.02,0,.008,0,.015,0,.023.002.014.002.027.007.038.016.011.008.017.023.017.043,0,.013-.003.025-.01.034-.007.009-.015.016-.023.021-.003.002-.006.003-.01.005-.003.001-.006.002-.009.002v.004s.004,0,.006,0c.002,0,.004,0,.006,0,.013.003.024.01.035.021.01.011.016.026.016.046,0,.004,0,.009-.001.014,0,.005-.002.01-.004.015-.004.012-.013.024-.026.035-.013.011-.033.017-.059.018l-.126.006v-.02h.007c.008,0,.013-.003.016-.007.002-.004.004-.011.004-.021v-.186h0s0-.001,0-.001h0v-.005h0v-.003s0-.002,0-.003c0-.003-.002-.006-.004-.008-.003-.002-.007-.004-.015-.003h-.007s0-.02,0-.02h0ZM17.824,10.893v.089c0,.006,0,.011.003.015.002.004.007.006.017.005h.002c.014-.001.025-.005.033-.013.008-.008.013-.016.016-.025.001-.004.002-.008.003-.012,0-.004,0-.007,0-.011,0-.003,0-.006,0-.01,0-.005-.002-.009-.005-.014-.003-.007-.01-.013-.018-.019-.008-.005-.021-.008-.038-.007-.002,0-.004,0-.006,0-.002,0-.004,0-.007,0h0ZM17.824,10.796v.072h.005s.003,0,.005,0c.016,0,.029-.005.039-.011.01-.007.015-.018.015-.034,0-.003,0-.006,0-.009s-.001-.007-.002-.011c-.002-.007-.006-.013-.012-.019-.006-.006-.016-.008-.029-.008-.01,0-.016.003-.017.007-.002.004-.003.009-.003.015h0ZM18.068,10.898v.077s0,.002,0,.004c0,.002,0,.003,0,.005,0,.003.002.006.004.008.002.002.005.003.01.003h.007s0,.02,0,.02l-.104.005v-.021h.007c.008,0,.013-.002.015-.006.002-.003.004-.007.004-.011v-.005h0v-.196h0v-.006s-.001-.007-.004-.01c-.002-.003-.008-.004-.015-.004h-.007s0-.02,0-.02l.107-.005c.029-.001.054.002.075.011.021.009.031.029.031.061,0,.017-.004.032-.013.044-.009.012-.021.02-.036.023v.005s.022.051.022.051c.002.005.004.009.006.013.002.004.004.008.006.011.005.009.009.016.014.021s.012.009.021.011v.02l-.101.005v-.02h.004s.005-.001.007-.003c.002-.002.003-.005.003-.008,0-.001,0-.002,0-.004,0-.002-.001-.004-.002-.006,0,0,0-.001,0-.002,0,0,0-.001,0-.001,0-.001,0-.003-.001-.004,0-.001,0-.002-.001-.003l-.031-.067h-.026ZM18.068,10.784v.09h.019s.006-.001.01-.002c.003,0,.007-.001.011-.003.008-.003.015-.008.022-.016.006-.008.01-.021.01-.038,0-.002,0-.006,0-.011,0-.005-.001-.009-.003-.014-.003-.007-.008-.013-.015-.019-.007-.006-.017-.008-.031-.007-.01,0-.016.002-.018.006s-.003.009-.003.015h0ZM18.425,10.723l.01.066h-.011s-.002-.004-.003-.006c-.001-.003-.002-.005-.004-.008-.004-.007-.01-.013-.017-.018-.008-.005-.018-.008-.03-.007h-.025c-.007.001-.012.003-.015.006-.003.002-.005.008-.005.017v.071h.024c.019-.002.031-.004.035-.007.004-.003.007-.007.008-.013,0,0,0,0,0,0h0s0-.002,0-.003v-.002s0-.001,0-.002c0,0,0-.002,0-.002h.011s0,.077,0,.077h-.011s0-.001,0-.002c0,0,0-.001,0-.002v-.002s0-.001,0-.001c0,0,0-.002,0-.003,0,0,0-.002,0-.002-.001-.004-.004-.007-.008-.009-.004-.002-.011-.004-.021-.003l-.037.002v.091c0,.007.001.013.004.016.002.003.008.005.016.004h.029s.01-.002.017-.003c.006-.001.014-.005.021-.01.005-.003.009-.008.013-.013.004-.006.008-.013.012-.022h.011s-.012.068-.012.068l-.194.009v-.02h.007c.008,0,.013-.002.016-.006.002-.003.003-.007.004-.01v-.005h0v-.196h0c0-.006,0-.011-.003-.014-.002-.004-.007-.006-.017-.005h-.007s0-.02,0-.02l.183-.008Z" fill="#8e2300" fill-rule="evenodd" />
          <path d="M16.72,11.412l.111-.005c.045-.002.077.006.097.024.02.018.033.039.038.062.002.007.003.014.004.022,0,.007.001.014.001.021,0,.004,0,.008,0,.013,0,.005,0,.009-.002.013-.004.029-.016.056-.037.082-.02.025-.05.039-.091.041l-.122.005v-.02h.006c.007,0,.012-.002.015-.005.003-.003.005-.009.005-.017v-.195c0-.008-.001-.014-.005-.016-.003-.003-.008-.004-.015-.004h-.006s0-.02,0-.02h0ZM16.802,11.454v.186c0,.009.002.015.005.017.004.002.008.003.012.003h.003s.004,0,.005,0c.002,0,.003,0,.005,0,.024-.002.041-.01.052-.024.011-.014.018-.03.022-.046.002-.009.004-.018.004-.026,0-.008.001-.016.001-.022v-.019s0-.01-.001-.015-.002-.011-.003-.016c-.004-.016-.011-.029-.022-.042-.011-.013-.028-.019-.052-.019h-.003s-.002,0-.003,0h-.003s-.002,0-.003,0h-.004s-.007.002-.01.004c-.003.002-.005.008-.005.017h0ZM17.188,11.391l.01.066h-.011s-.002-.004-.003-.007c-.001-.002-.002-.005-.004-.008-.004-.007-.01-.013-.018-.018-.008-.005-.018-.008-.03-.007h-.025c-.007.001-.012.003-.015.006-.003.003-.004.008-.004.017v.071h.023c.019-.002.031-.004.035-.007.004-.003.007-.007.008-.013h0s0-.002,0-.002c0,0,0-.001,0-.002v-.002s0-.001,0-.002c0,0,0-.002,0-.003h.011s0,.077,0,.077h-.011s0-.001,0-.002c0,0,0-.002,0-.002h0s0-.003,0-.003c0,0,0-.002,0-.003,0,0,0-.001,0-.002-.001-.003-.003-.006-.007-.009-.004-.003-.011-.004-.021-.003l-.037.002v.091c0,.007.001.013.004.016.003.003.008.005.016.004h.029s.01-.002.017-.004c.006-.001.014-.005.021-.01.004-.003.009-.008.013-.013.005-.006.009-.013.012-.021h.012s-.012.068-.012.068l-.194.009v-.02h.007c.008,0,.013-.002.016-.006.003-.003.004-.006.004-.01v-.005h0v-.196h0c0-.006,0-.011-.003-.014-.002-.004-.007-.006-.017-.005h-.007s0-.02,0-.02l.183-.008h0ZM17.433,11.374h.018s0,.24,0,.24c0,.008.001.014.004.017.003.003.008.004.015.004h.007s0,.02,0,.02l-.109.005v-.02h.007c.007,0,.012-.002.015-.006.003-.003.004-.009.004-.017v-.153c0-.011-.001-.019-.003-.024-.002-.005-.009-.007-.022-.006h-.002s-.001,0-.001,0v-.013h0s0,0,0,0h0c.007,0,.016-.003.026-.009.01-.006.023-.018.037-.038h0ZM17.563,11.506v-.002c-.011-.007-.021-.016-.029-.028-.008-.011-.013-.024-.013-.04,0-.018.007-.033.021-.047.014-.014.033-.021.058-.022.023-.001.041.005.054.018s.019.028.019.044c0,.003,0,.006,0,.01,0,.003-.001.007-.002.01-.003.008-.007.016-.014.023-.006.007-.015.013-.026.018v.002s.007.004.01.006c.003.002.006.004.009.006.012.009.022.018.029.027.007.01.01.022.01.037v.004c0,.019-.009.038-.025.055-.016.017-.037.026-.065.028-.024,0-.042-.005-.055-.017-.013-.012-.021-.025-.025-.041,0-.003-.001-.006-.001-.009,0-.003,0-.006,0-.009s0-.005,0-.008c0-.003,0-.006.001-.009.002-.011.007-.021.014-.031.007-.01.018-.019.031-.026h0ZM17.609,11.54l-.029-.02c-.008.009-.015.018-.02.028-.005.01-.007.021-.007.033,0,.016.004.029.014.038.009.009.019.013.031.012.012,0,.022-.005.029-.012.007-.007.011-.017.011-.028,0-.011-.003-.02-.009-.029-.006-.008-.012-.016-.02-.021h0ZM17.61,11.48s0,0,0,0c0,0,0,0,0,0,.007-.005.013-.012.019-.021.006-.009.009-.019.009-.029,0-.012-.004-.022-.011-.029-.007-.007-.017-.01-.027-.009-.001,0-.002,0-.003,0,0,0-.002,0-.003,0-.006.001-.012.005-.017.009-.005.005-.008.012-.008.021,0,.011.003.021.009.029.006.008.013.015.02.021.002.001.004.002.006.004.002.001.004.002.006.003h0ZM17.721,11.643v-.004c.003-.009.008-.021.015-.037.007-.015.02-.036.038-.061.002-.003.005-.007.007-.011.003-.004.005-.007.008-.011.008-.013.016-.026.023-.041.007-.015.011-.03.011-.046,0-.014-.003-.025-.009-.036-.006-.011-.015-.015-.029-.015-.009,0-.016.004-.021.01-.005.006-.008.013-.008.02,0,.002,0,.004,0,.005,0,.001,0,.003.002.005,0,.001.001.002.002.003,0,.001.001.002.002.004,0,0,0,0,0,.001,0,0,0,.001,0,.002,0,.001.001.002.002.004,0,.001.001.003.002.005,0,.002.001.003.001.005s0,.003,0,.005c0,.001,0,.003,0,.004,0,.001,0,.003,0,.005-.001.004-.003.008-.007.012-.003.004-.007.006-.012.006-.001,0-.003,0-.005,0-.002,0-.003,0-.005-.001-.005-.002-.009-.005-.014-.011-.004-.006-.006-.015-.006-.026,0-.003,0-.006,0-.009,0-.003.001-.007.002-.01.004-.015.012-.028.025-.041.013-.013.032-.02.056-.021.021,0,.039.006.054.021.016.014.023.033.023.056,0,.018-.005.034-.014.048-.01.015-.02.028-.032.039-.003.003-.006.006-.008.008-.003.003-.006.005-.008.008l-.02.02c-.008.008-.018.019-.032.035v.003l.069-.003c.006,0,.012-.002.017-.005s.01-.009.015-.018h.011s-.012.066-.012.066l-.147.006h0ZM17.988,11.349h.018s0,.24,0,.24c0,.008.002.014.004.017.003.003.008.004.015.004h.006s0,.02,0,.02l-.109.005v-.02h.007c.007,0,.012-.002.015-.006.003-.003.004-.009.004-.017v-.153c0-.011,0-.019-.003-.024-.002-.005-.009-.007-.021-.006h-.003v-.013h.001c.007,0,.016-.003.027-.009.01-.006.023-.018.037-.038Z" fill="#8e2300" fill-rule="evenodd" />
        </g>
        <path d="M16.826,6.878c.024,0,.043.019.043.043s-.019.043-.043.043-.043-.019-.043-.043.019-.043.043-.043Z" fill-rule="evenodd" />
      </g>
    </g>
  </g>
</g></svg>