<?xml version="1.0" encoding="UTF-8"?>
<svg id="Layer_2" data-name="Layer 2" xmlns="http://www.w3.org/2000/svg" viewBox="0 0 118.969 79.099">
  <g id="Layer_1-2" data-name="Layer 1">
    <g>
      <rect width="118.969" height="79.099" fill="#fff"/>
      <rect width="118.969" height="26.133" fill="#2b72b9"/>
      <rect y="52.95" width="118.969" height="26.149" fill="#2b72b9"/>
      <polygon points="45.17 34.988 42.994 33.852 40.996 34.988 41.784 32.953 40.131 31.548 42.283 31.556 42.919 29.661 43.542 31.556 46.142 31.58 44.303 32.906 45.17 34.988" fill="#2b72b9"/>
      <polygon points="61.619 41.844 59.443 40.708 57.445 41.844 58.232 39.808 56.58 38.404 58.731 38.412 59.368 36.517 59.991 38.412 62.59 38.435 60.711 39.764 61.619 41.844" fill="#2b72b9"/>
      <polygon points="78.203 35.037 76.027 33.901 74.029 35.037 74.816 33.001 73.163 31.597 75.315 31.604 75.952 29.709 76.574 31.604 79.175 31.628 77.338 32.955 78.203 35.037" fill="#2b72b9"/>
      <polygon points="45.171 47.999 42.996 46.863 40.996 47.999 41.785 45.963 40.131 44.559 42.284 44.566 42.919 42.672 43.545 44.566 46.143 44.59 44.303 45.919 45.171 47.999" fill="#2b72b9"/>
      <polygon points="78.204 47.954 76.029 46.817 74.029 47.954 74.817 45.918 73.163 44.514 75.316 44.521 75.952 42.626 76.577 44.521 79.175 44.545 77.32 45.886 78.204 47.954" fill="#2b72b9"/>
    </g>
  </g>
</svg>