<?xml version="1.0" encoding="UTF-8"?>
<svg id="Layer_2" data-name="Layer 2" xmlns="http://www.w3.org/2000/svg" xmlns:xlink="http://www.w3.org/1999/xlink" viewBox="0 0 118.969 79.17">
  <defs>
    <clipPath id="clippath">
      <path d="M19.899,39.584c0,21.862,17.723,39.586,39.585,39.586s39.585-17.724,39.585-39.586S81.347,0,59.484,0,19.899,17.723,19.899,39.584Z" fill="none"/>
    </clipPath>
  </defs>
  <g id="Layer_1-2" data-name="Layer 1">
    <g clip-path="url(#clippath)">
      <g>
        <rect y=".036" width="118.969" height="79.099" fill="#fff"/>
        <rect y=".036" width="118.969" height="26.133" fill="#2b72b9"/>
        <rect y="52.985" width="118.969" height="26.149" fill="#2b72b9"/>
        <polygon points="45.17 35.024 42.994 33.888 40.996 35.024 41.784 32.988 40.131 31.584 42.283 31.591 42.919 29.697 43.542 31.591 46.142 31.615 44.303 32.941 45.17 35.024" fill="#2b72b9"/>
        <polygon points="61.619 41.88 59.443 40.744 57.445 41.88 58.232 39.844 56.58 38.439 58.731 38.447 59.368 36.553 59.991 38.447 62.59 38.471 60.711 39.8 61.619 41.88" fill="#2b72b9"/>
        <polygon points="78.203 35.073 76.027 33.936 74.029 35.073 74.816 33.037 73.163 31.633 75.315 31.64 75.952 29.745 76.574 31.64 79.175 31.664 77.338 32.99 78.203 35.073" fill="#2b72b9"/>
        <polygon points="45.171 48.034 42.996 46.898 40.996 48.034 41.785 45.999 40.131 44.594 42.284 44.602 42.919 42.708 43.545 44.602 46.142 44.626 44.303 45.954 45.171 48.034" fill="#2b72b9"/>
        <polygon points="78.204 47.989 76.029 46.853 74.029 47.989 74.817 45.954 73.163 44.549 75.316 44.557 75.952 42.662 76.577 44.557 79.175 44.581 77.32 45.922 78.204 47.989" fill="#2b72b9"/>
      </g>
    </g>
  </g>
</svg>