<?xml version="1.0" encoding="UTF-8"?>
<svg id="Layer_2" data-name="Layer 2" xmlns="http://www.w3.org/2000/svg" viewBox="0 0 33.946 22.631">
  <g id="_Ñëîé_1" data-name="Ñëîé 1">
    <g>
      <g>
        <rect width="33.946" height="22.631" fill="#fff"/>
        <path d="M0,7.536h.177v-.178h1.6v.178h.178v-.178h1.6v.178h.178v-.178h1.6v.178h.178v-.178h1.599v.178h.178v-.178h1.6v.178h.178v-.178h1.6v.178h.178v-.178h1.6v.178h.178v-.178h1.599v.178h.178v-.178h1.6v.178h.178v-.178h1.6v.178h.178v-.178h1.6v.178h.178v-.178h1.6v.178h.177v-.178h1.6v.178h.177v-.178h1.6v.178h.178v-.178h1.6v.178h.178v-.178h1.599v.178h.178v-.178h1.6v.178h.178v-.178h1.599v.178h.178v-.178h1.6v.178h.178V0H0v7.536H0ZM32.524,7.003h.178v.178h-.178v-.178h0ZM32.168,6.292h1.6v.178h-1.6v-.178h0ZM33.235,6.647h.533v.533h-.889v-.355s-.533,0-.533,0v.355h-.178v-.533h.889v.356h.533v-.178h-.355v-.178h0ZM28.969,7.003h.178v.178h-.178v-.178h0ZM28.614,6.292h2.31v.178h-2.31v-.178h0ZM31.102,6.292h.178v.711h.178v-.711h.178v.711h.177v-.711h.178v.888h-.889v-.355h-.533v.178h.356v.178h-.533v-.533h.711v-.355h0ZM29.68,6.647h.533v.533h-.889v-.355h-.533v.355h-.178v-.533h.889v.356h.533v-.178h-.355v-.178h0ZM25.415,7.003h.178v.178h-.178v-.178h0ZM25.059,6.292h2.31v.178h-2.31v-.178h0ZM27.548,6.292h.178v.711h.178v-.711h.178v.711h.178v-.711h.178v.888h-.888v-.355h-.533v.178h.355v.178h-.533v-.533h.711v-.355h0ZM26.126,6.647h.533v.533h-.889v-.355h-.533v.355h-.178v-.533h.889v.356h.533v-.178h-.355v-.178h0ZM21.86,7.003h.177v.178h-.177v-.178h0ZM21.505,6.292h2.31v.178h-2.31v-.178h0ZM23.993,6.292h.178v.711h.177v-.711h.178v.711h.178v-.711h.178v.888h-.889v-.355h-.533v.178h.356v.178h-.533v-.533h.711v-.355h0ZM22.571,6.647h.533v.533h-.889v-.355h-.533v.355h-.178v-.533h.889v.356h.533v-.178h-.355v-.178h0ZM18.306,7.003h.178v.178h-.178v-.178h0ZM17.95,6.292h2.31v.178h-2.31v-.178h0ZM20.439,6.292h.178v.711h.178v-.711h.178v.711h.178v-.711h.178v.888h-.889v-.355h-.533v.178h.355v.178h-.533v-.533h.711v-.355h0ZM19.017,6.647h.533v.533h-.889v-.355h-.533v.355h-.178v-.533h.889v.356h.533v-.178h-.355v-.178h0ZM14.751,7.003h.178v.178h-.178v-.178h0ZM14.396,6.292h2.31v.178h-2.31v-.178h0ZM16.884,6.292h.178v.711h.178v-.711h.178v.711h.178v-.711h.178v.888h-.889v-.355h-.533v.178h.355v.178h-.533v-.533h.711v-.355h0ZM15.462,6.647h.533v.533h-.889v-.355s-.533,0-.533,0v.355h-.178v-.533h.889v.356h.533v-.178h-.355v-.178h0ZM11.197,7.003h.178v.178h-.178v-.178h0ZM10.841,6.292h2.31v.178h-2.31v-.178h0ZM13.33,6.292h.178v.711h.178v-.711h.178v.711h.178v-.711h.177v.888h-.889v-.355h-.533v.178h.355v.178h-.533v-.533h.711v-.355h0ZM11.908,6.647h.533v.533h-.889v-.355h-.533v.355h-.178v-.533h.889v.356h.533v-.178h-.355v-.178h0ZM7.642,7.003h.178v.178h-.178v-.178h0ZM7.287,6.292h2.31v.178h-2.31v-.178h0ZM9.775,6.292h.178v.711h.177v-.711h.178v.711h.178v-.711h.178v.888h-.889v-.355h-.533v.178h.356v.178h-.533v-.533h.711v-.355h0ZM8.353,6.647h.533v.533h-.889v-.355h-.533v.355h-.178v-.533h.889v.356h.533v-.178h-.356v-.178h0ZM4.088,7.003h.178v.178h-.178v-.178h0ZM3.732,6.292h2.31v.178h-2.31v-.178h0ZM6.221,6.292h.178v.711h.178v-.711h.177v.711h.178v-.711h.178v.888h-.889v-.355h-.533v.178h.356v.178h-.533v-.533h.711v-.355h0ZM4.798,6.647h.533v.533h-.889v-.355h-.533v.355h-.178v-.533h.889v.356h.533v-.178h-.356v-.178h0ZM.533,7.003h.178v.178h-.178v-.178h0ZM.178,6.292h2.31v.178H.178v-.178H.178ZM2.666,6.292h.178v.711h.178v-.711h.178v.711h.178v-.711h.178v.888h-.889v-.355h-.533v.178h.355v.178h-.533v-.533h.711v-.355h0ZM1.244,6.647h.533v.533h-.889v-.355s-.533,0-.533,0v.355h-.178v-.533h.889v.356h.533v-.178h-.355v-.178Z" fill="#007c29" fill-rule="evenodd"/>
        <path d="M0,15.095h.177v.178h1.6v-.178h.178v.178h1.6v-.178h.178v.178h1.6v-.178h.178v.178h1.599v-.178h.178v.178h1.6v-.178h.178v.178h1.6v-.178h.178v.178h1.6v-.178h.178v.178h1.599v-.178h.178v.178h1.6v-.178h.178v.178h1.6v-.178h.178v.178h1.6v-.178h.178v.178h1.6v-.178h.177v.178h1.6v-.178h.177v.178h1.6v-.178h.178v.178h1.6v-.178h.178v.178h1.599v-.178h.178v.178h1.6v-.178h.178v.178h1.599v-.178h.178v.178h1.6v-.178h.178v7.536H0v-7.536H0ZM32.524,15.628h.178v-.178h-.178v.178h0ZM32.168,16.339h1.6v-.178h-1.6v.178h0ZM33.235,15.983h.533v-.533h-.889v.355s-.533,0-.533,0v-.355h-.178v.533h.889v-.355h.533v.178h-.355v.178h0ZM28.969,15.628h.178v-.178h-.178v.178h0ZM28.614,16.339h2.31v-.178h-2.31v.178h0ZM31.102,16.339h.178v-.711h.178v.711h.178v-.711h.177v.711h.178v-.889h-.889v.355h-.533v-.178h.356v-.178h-.533v.533h.711v.355h0ZM29.68,15.983h.533v-.533h-.889v.355h-.533v-.355h-.178v.533h.889v-.355h.533v.178h-.355v.178h0ZM25.415,15.628h.178v-.178h-.178v.178h0ZM25.059,16.339h2.31v-.178h-2.31v.178h0ZM27.548,16.339h.178v-.711h.178v.711h.178v-.711h.178v.711h.178v-.889h-.888v.355h-.533v-.178h.355v-.178h-.533v.533h.711v.355h0ZM26.126,15.983h.533v-.533h-.889v.355h-.533v-.355h-.178v.533h.889v-.355h.533v.178h-.355v.178h0ZM21.86,15.628h.177v-.178h-.177v.178h0ZM21.505,16.339h2.31v-.178h-2.31v.178h0ZM23.993,16.339h.178v-.711h.177v.711h.178v-.711h.178v.711h.178v-.889h-.889v.355h-.533v-.178h.356v-.178h-.533v.533h.711v.355h0ZM22.571,15.983h.533v-.533h-.889v.355h-.533v-.355h-.178v.533h.889v-.355h.533v.178h-.355v.178h0ZM18.306,15.628h.178v-.178h-.178v.178h0ZM17.95,16.339h2.31v-.178h-2.31v.178h0ZM20.439,16.339h.178v-.711h.178v.711h.178v-.711h.178v.711h.178v-.889h-.889v.355h-.533v-.178h.355v-.178h-.533v.533h.711v.355h0ZM19.017,15.983h.533v-.533h-.889v.355h-.533v-.355h-.178v.533h.889v-.355h.533v.178h-.355v.178h0ZM14.751,15.628h.178v-.178h-.178v.178h0ZM14.396,16.339h2.31v-.178h-2.31v.178h0ZM16.884,16.339h.178v-.711h.178v.711h.178v-.711h.178v.711h.178v-.889h-.889v.355h-.533v-.178h.355v-.178h-.533v.533h.711v.355h0ZM15.462,15.983h.533v-.533h-.889v.355s-.533,0-.533,0v-.355h-.178v.533h.889v-.355h.533v.178h-.355v.178h0ZM11.197,15.628h.178v-.178h-.178v.178h0ZM10.841,16.339h2.31v-.178h-2.31v.178h0ZM13.33,16.339h.178v-.711h.178v.711h.178v-.711h.178v.711h.177v-.889h-.889v.355h-.533v-.178h.355v-.178h-.533v.533h.711v.355h0ZM11.908,15.983h.533v-.533h-.889v.355h-.533v-.355h-.178v.533h.889v-.355h.533v.178h-.355v.178h0ZM7.642,15.628h.178v-.178h-.178v.178h0ZM7.287,16.339h2.31v-.178h-2.31v.178h0ZM9.775,16.339h.178v-.711h.177v.711h.178v-.711h.178v.711h.178v-.889h-.889v.355h-.533v-.178h.356v-.178h-.533v.533h.711v.355h0ZM8.353,15.983h.533v-.533h-.889v.355h-.533v-.355h-.178v.533h.889v-.355h.533v.178h-.356v.178h0ZM4.088,15.628h.178v-.178h-.178v.178h0ZM3.732,16.339h2.31v-.178h-2.31v.178h0ZM6.221,16.339h.178v-.711h.178v.711h.177v-.711h.178v.711h.178v-.889h-.889v.355h-.533v-.178h.356v-.178h-.533v.533h.711v.355h0ZM4.798,15.983h.533v-.533h-.889v.355h-.533v-.355h-.178v.533h.889v-.355h.533v.178h-.356v.178h0ZM.533,15.628h.178v-.178h-.178v.178h0ZM.178,16.339h2.31v-.178H.178v.178H.178ZM2.666,16.339h.178v-.711h.178v.711h.178v-.711h.178v.711h.178v-.889h-.889v.355h-.533v-.178h.355v-.178h-.533v.533h.711v.355h0ZM1.244,15.983h.533v-.533h-.889v.355s-.533,0-.533,0v-.355h-.178v.533h.889v-.355h.533v.178h-.355v.178Z" fill="red" fill-rule="evenodd"/>
      </g>
      <g>
        <path d="M17.686,8.622c.012.037.018.077.018.118,0,.217-.176.394-.394.394-.144,0-.269-.077-.338-.192-.069.114-.194.192-.338.192-.218,0-.394-.176-.394-.394,0-.041.006-.081.018-.118.05.16.199.275.376.275.143,0,.269-.077.338-.192.069.115.194.192.338.192.176,0,.325-.116.376-.275Z" fill="red" fill-rule="evenodd"/>
        <path d="M16.973,14.139l-.227-.302-.102-4.47c.139-.05.255-.154.329-.289.074.135.19.239.329.289l-.102,4.47-.227.302Z" fill="red" fill-rule="evenodd"/>
        <g>
          <g>
            <path d="M15.243,13.193c-.656-.371-1.099-1.075-1.099-1.883,0-1.019.705-1.873,1.654-2.102-.692.514-1.14,1.337-1.14,2.265,0,.647.218,1.244.585,1.72Z" fill="red" fill-rule="evenodd"/>
            <path d="M18.545,13.67c-.256.085-.53.131-.814.131-1.426,0-2.582-1.156-2.582-2.582,0-.792.356-1.499.916-1.973-.326.458-.518,1.019-.518,1.624,0,1.549,1.256,2.805,2.806,2.805.065,0,.129-.002.192-.006Z" fill="red" fill-rule="evenodd"/>
          </g>
          <g>
            <path d="M18.703,13.193c.656-.371,1.099-1.075,1.099-1.883,0-1.019-.705-1.873-1.653-2.102.691.514,1.139,1.337,1.139,2.265,0,.647-.218,1.244-.585,1.72Z" fill="red" fill-rule="evenodd"/>
            <path d="M15.401,13.67c.256.085.53.131.815.131,1.426,0,2.582-1.156,2.582-2.582,0-.792-.356-1.499-.916-1.973.326.458.518,1.019.518,1.624,0,1.549-1.256,2.805-2.805,2.805-.065,0-.129-.002-.192-.006Z" fill="red" fill-rule="evenodd"/>
          </g>
        </g>
      </g>
    </g>
  </g>
</svg>