<?xml version="1.0" encoding="UTF-8"?>
<svg id="Layer_2" data-name="Layer 2" xmlns="http://www.w3.org/2000/svg" viewBox="0 0 33.945 22.631">
  <g id="_Ñëîé_1" data-name="Ñëîé 1">
    <g>
      <g>
        <rect width="33.945" height="7.543" fill="red"/>
        <rect y="7.543" width="33.945" height="7.544" fill="#fff"/>
        <rect y="15.087" width="33.945" height="7.543"/>
      </g>
      <g>
        <path d="M11.744,13.234c.099,0,.179.08.179.179s-.08.179-.179.179-.179-.08-.179-.179.08-.179.179-.179Z" fill="#007c29" fill-rule="evenodd"/>
        <path d="M16.99,13.009h1.195l-.266-.993c-.071.093-.182.153-.308.153h-.162v-2.106c0-.129.067-.242.168-.308l-.628-.362v3.616Z" fill="#007c29" fill-rule="evenodd"/>
        <path d="M11.091,12.169c-.167,0-.303-.135-.303-.303,0-.055.015-.107.041-.152l-.544.314.209.363c.232.402.094.917-.308,1.149-.059.034-.12.06-.183.079.215.065.455.045.665-.076.208-.12.346-.317.397-.534h5.465v-1.529c0-.255-.166-.471-.396-.546-.066-.025-.126-.062-.178-.108-.052.046-.112.083-.179.108-.23.075-.396.291-.396.546h-1.891l1.447-1.447c.091-.091.219-.124.336-.099l-.187-.7-2.246,2.246v.459h3v-.459c0-.064.051-.115.115-.115s.115.051.115.115v.689h-3.69v-.821l-.628.362c.101.065.168.179.168.308v.15h-.832Z" fill="#007c29" fill-rule="evenodd"/>
        <path d="M22.747,13.009h1.195l-.266-.993c-.071.093-.183.153-.308.153h-.162v-2.106c0-.129.067-.242.168-.308l-.628-.362v3.616Z" fill="#007c29" fill-rule="evenodd"/>
        <path d="M19.99,11.693c0-.115-.053-.217-.136-.285l.595-.595v1.355h.459v-1.394c0-.115-.053-.217-.136-.285l.595-.596v2.274h.459v-2.313c0-.115-.053-.217-.136-.285l.595-.595v4.033h-3.093v-.955c0-.199.161-.361.361-.361h.435ZM19.99,11.939h-.21c-.063,0-.115.051-.115.115v.115h.325v-.23Z" fill="#007c29" fill-rule="evenodd"/>
        <path d="M20.516,9.111c.051-.015.105.015.12.066.003.011.004.022.004.033v.327s-.175-.276-.175-.276c-.006-.009-.011-.019-.014-.03-.015-.051.015-.105.066-.12Z" fill="#007c29" fill-rule="evenodd"/>
        <path d="M19.924,9.745c.06.158.213.271.393.271.129,0,.245-.059.323-.151.062.059.145.095.238.095.19,0,.345-.155.345-.345v-.044l-.024.042c-.095.165-.306.222-.471.127-.034-.02-.063-.044-.087-.072-.118.203-.379.272-.583.155l-.133-.077Z" fill="#007c29" fill-rule="evenodd"/>
      </g>
    </g>
  </g>
</svg>