<?xml version="1.0" encoding="UTF-8"?>
<svg id="Layer_2" data-name="Layer 2" xmlns="http://www.w3.org/2000/svg" xmlns:xlink="http://www.w3.org/1999/xlink" viewBox="0 0 118.961 79.23">
  <defs>
    <clipPath id="clippath">
      <path d="M19.83,39.584c0,21.862,17.723,39.586,39.585,39.586s39.585-17.724,39.585-39.586S81.277,0,59.415,0,19.83,17.723,19.83,39.584Z" fill="none"/>
    </clipPath>
  </defs>
  <g id="Layer_1-2" data-name="Layer 1">
    <g clip-path="url(#clippath)">
      <g>
        <rect y=".062" width="118.961" height="79.168" fill="#fff"/>
        <rect y="7.58" width="118.961" height="12.405" fill="#13499f"/>
        <rect y="59.439" width="118.961" height="12.406" fill="#13499f"/>
        <polygon points="54.562 31.222 44.295 31.222 49.43 39.646 44.295 48.151 54.562 48.151 59.477 56.592 64.381 48.151 74.537 48.151 69.543 39.646 74.537 31.222 64.326 31.222 59.477 22.578 54.562 31.222" fill="#13499f"/>
        <polygon points="57.481 31.171 61.52 31.171 59.5 27.865 57.481 31.171" fill="#fff"/>
        <polygon points="48.913 45.658 52.953 45.658 50.932 42.353 48.913 45.658" fill="#fff"/>
        <polygon points="66.054 45.658 70.095 45.658 68.075 42.353 66.054 45.658" fill="#fff"/>
        <polygon points="70.095 33.61 66.054 33.61 68.075 36.916 70.095 33.61" fill="#fff"/>
        <polygon points="52.953 33.61 48.913 33.61 50.932 36.916 52.953 33.61" fill="#fff"/>
        <polygon points="61.435 48.151 57.396 48.151 59.417 51.458 61.435 48.151" fill="#fff"/>
        <polygon points="55.854 33.61 63.091 33.61 66.513 39.646 63.148 45.658 55.854 45.658 52.318 39.646 55.854 33.61" fill="#fff"/>
      </g>
    </g>
  </g>
</svg>