<?xml version="1.0" encoding="UTF-8"?>
<svg id="Layer_2" data-name="Layer 2" xmlns="http://www.w3.org/2000/svg" viewBox="0 0 118.961 79.168">
  <g id="Layer_1-2" data-name="Layer 1">
    <g>
      <rect width="118.961" height="79.168" fill="#fff"/>
      <rect y="7.519" width="118.961" height="12.405" fill="#13499f"/>
      <rect y="59.377" width="118.961" height="12.406" fill="#13499f"/>
      <polygon points="54.562 31.16 44.295 31.16 49.43 39.584 44.295 48.09 54.562 48.09 59.476 56.53 64.381 48.09 74.537 48.09 69.543 39.584 74.537 31.16 64.326 31.16 59.476 22.517 54.562 31.16" fill="#13499f"/>
      <polygon points="57.481 31.109 61.519 31.109 59.5 27.804 57.481 31.109" fill="#fff"/>
      <polygon points="48.913 45.597 52.953 45.597 50.932 42.291 48.913 45.597" fill="#fff"/>
      <polygon points="66.054 45.597 70.095 45.597 68.075 42.291 66.054 45.597" fill="#fff"/>
      <polygon points="70.095 33.549 66.054 33.549 68.075 36.854 70.095 33.549" fill="#fff"/>
      <polygon points="52.953 33.549 48.913 33.549 50.932 36.854 52.953 33.549" fill="#fff"/>
      <polygon points="61.434 48.09 57.395 48.09 59.417 51.396 61.434 48.09" fill="#fff"/>
      <polygon points="55.853 33.549 63.091 33.549 66.513 39.584 63.148 45.597 55.853 45.597 52.318 39.584 55.853 33.549" fill="#fff"/>
    </g>
  </g>
</svg>