<?xml version="1.0" encoding="UTF-8"?>
<svg id="Layer_2" data-name="Layer 2" xmlns="http://www.w3.org/2000/svg" xmlns:xlink="http://www.w3.org/1999/xlink" viewBox="0 0 118.972 79.172">
  <defs>
    <clipPath id="clippath">
      <path d="M19.901,39.586c0,21.862,17.723,39.586,39.585,39.586s39.585-17.724,39.585-39.586S81.348.002,59.486.002,19.901,17.725,19.901,39.586Z" fill="none"/>
    </clipPath>
  </defs>
  <g id="Layer_1-2" data-name="Layer 1">
    <g clip-path="url(#clippath)">
      <g>
        <g>
          <rect width="118.972" height="79.168" fill="#e9e9e9"/>
          <path d="M36.235,39.582c0,12.849,10.416,23.264,23.261,23.264s23.251-10.415,23.251-23.264-10.405-23.253-23.251-23.253-23.261,10.411-23.261,23.253Z" fill="#b33e3e"/>
        </g>
        <rect width="118.972" height="79.168" fill="#fff"/>
        <path d="M36.235,39.582c0,12.849,10.416,23.264,23.261,23.264s23.251-10.415,23.251-23.264-10.405-23.253-23.251-23.253-23.261,10.411-23.261,23.253Z" fill="#b33e3e"/>
      </g>
    </g>
  </g>
</svg>