<?xml version="1.0" encoding="UTF-8"?>
<svg id="Layer_2" data-name="Layer 2" xmlns="http://www.w3.org/2000/svg" xmlns:xlink="http://www.w3.org/1999/xlink" viewBox="0 0 118.972 79.229">
  <defs>
    <clipPath id="clippath">
      <path d="M9.07,39.584c0,21.862,17.723,39.586,39.585,39.586s39.585-17.724,39.585-39.586S70.518,0,48.655,0,9.07,17.723,9.07,39.584Z" fill="none"/>
    </clipPath>
  </defs>
  <g id="Layer_1-2" data-name="Layer 1">
    <g clip-path="url(#clippath)">
      <g>
        <rect y=".061" width="118.972" height="79.168" fill="#fff"/>
        <rect y=".061" width="118.972" height="25.227"/>
        <rect y="54.006" width="118.972" height="25.224" fill="#2b8742"/>
        <polygon points="0 .061 0 79.229 59.486 39.641 0 .061" fill="#ef4848"/>
        <polygon points="17.774 35.282 19.501 31.175 21.045 35.352 25.332 34.142 23.028 37.954 26.647 40.552 22.23 41.126 22.457 45.575 19.253 42.481 15.916 45.432 16.338 40.997 11.951 40.228 15.68 37.793 13.546 33.885 17.774 35.282" fill="#fff"/>
      </g>
    </g>
  </g>
</svg>