<svg xmlns="http://www.w3.org/2000/svg" id="Layer_2" data-name="Layer 2" viewBox="0 0 33.945 22.63">
  <defs><clipPath id="circleClip"><circle cx="16.9725" cy="11.315" r="11.315" /></clipPath></defs><g clip-path="url(#circleClip)"><g id="_&#209;&#235;&#238;&#233;_1" data-name="&#209;&#235;&#238;&#233; 1">
    <g>
      <rect width="33.945" height="22.63" fill="#00adfe" />
      <g>
        <g>
          <g>
            <path d="M16.959,6.408c1.805,0,3.268,1.463,3.268,3.267s-1.463,3.268-3.268,3.268-3.268-1.463-3.268-3.268,1.463-3.267,3.268-3.267Z" fill="#ffda0c" fill-rule="evenodd" />
            <g>
              <path d="M13.03,9.909l-.986-.233.986-.232c.021-.005.041-.008.063-.008.133,0,.241.108.241.241s-.108.241-.241.241c-.022,0-.042-.003-.063-.008Z" fill="#ffda0c" fill-rule="evenodd" />
              <path d="M14.016,7.062l-.533-.862.862.533c.019.012.035.023.051.039.094.094.094.247,0,.341-.094.094-.247.094-.341,0-.016-.016-.027-.032-.039-.051Z" fill="#ffda0c" fill-rule="evenodd" />
              <g>
                <path d="M16.726,5.747l.232-.987.232.987c.005.021.008.041.008.063,0,.133-.108.241-.241.241s-.241-.108-.241-.241c0-.022.003-.042.008-.063Z" fill="#ffda0c" fill-rule="evenodd" />
                <path d="M17.191,13.605l-.232.987-.232-.987c-.005-.022-.008-.041-.008-.063,0-.133.108-.241.241-.241s.241.108.241.241c0,.022-.003.042-.008.063Z" fill="#ffda0c" fill-rule="evenodd" />
              </g>
              <g>
                <path d="M19.572,6.734l.862-.533-.533.862c-.012.019-.023.035-.039.051-.094.094-.247.094-.34,0-.094-.094-.094-.247,0-.341.016-.016.032-.027.051-.039Z" fill="#ffda0c" fill-rule="evenodd" />
                <path d="M14.345,12.619l-.862.533.533-.862c.011-.019.023-.035.039-.051.094-.094.247-.094.341,0,.094.094.094.247,0,.341-.016.016-.032.027-.051.039Z" fill="#ffda0c" fill-rule="evenodd" />
              </g>
              <path d="M20.887,9.443l.987.232-.987.233c-.021.005-.041.008-.063.008-.133,0-.241-.108-.241-.241s.108-.241.241-.241c.023,0,.042.003.063.008Z" fill="#ffda0c" fill-rule="evenodd" />
              <path d="M19.901,12.29l.533.862-.862-.533c-.019-.012-.035-.023-.051-.039-.094-.094-.094-.247,0-.341.094-.094.247-.094.34,0,.016.016.027.032.039.051Z" fill="#ffda0c" fill-rule="evenodd" />
              <g>
                <path d="M15.977,5.865l.039-1.013.417.924c.009.02.016.039.02.061.025.131-.06.257-.19.283-.131.026-.257-.06-.283-.19-.004-.022-.005-.042-.004-.064Z" fill="#ffda0c" fill-rule="evenodd" />
                <path d="M17.94,13.487l-.039,1.013-.417-.924c-.009-.02-.016-.039-.02-.061-.025-.131.06-.257.19-.283.13-.025.257.06.283.19.004.022.005.042.004.064Z" fill="#ffda0c" fill-rule="evenodd" />
              </g>
              <g>
                <path d="M13.57,7.675l-.689-.744.948.358c.021.008.039.016.057.029.11.074.14.224.065.334-.074.11-.224.14-.334.065-.018-.012-.033-.026-.048-.042Z" fill="#ffda0c" fill-rule="evenodd" />
                <path d="M20.347,11.677l.689.744-.948-.358c-.021-.007-.039-.016-.057-.028-.11-.074-.139-.224-.065-.334.074-.111.224-.14.334-.066.019.013.033.026.048.043Z" fill="#ffda0c" fill-rule="evenodd" />
              </g>
              <g>
                <path d="M13.147,10.657l-1.013-.039.924-.417c.02-.009.039-.016.061-.02.131-.025.257.059.283.19.026.13-.06.257-.19.283-.022.004-.042.005-.064.004Z" fill="#ffda0c" fill-rule="evenodd" />
                <path d="M20.77,8.695l1.013.039-.924.417c-.02.009-.039.016-.061.02-.131.025-.257-.059-.283-.19-.025-.131.059-.257.19-.283.022-.004.042-.005.064-.004Z" fill="#ffda0c" fill-rule="evenodd" />
              </g>
              <g>
                <path d="M14.957,13.065l-.744.689.358-.949c.008-.021.016-.039.029-.057.074-.11.224-.139.334-.065.11.074.14.224.066.334-.013.019-.026.033-.043.048Z" fill="#ffda0c" fill-rule="evenodd" />
                <path d="M18.96,6.287l.744-.689-.358.948c-.008.021-.016.039-.028.057-.074.11-.224.14-.334.065-.11-.074-.139-.224-.065-.334.012-.019.026-.033.042-.048Z" fill="#ffda0c" fill-rule="evenodd" />
              </g>
              <g>
                <path d="M15.265,6.123l-.156-1.002.586.827c.013.018.023.035.032.056.05.123-.009.264-.133.314-.123.05-.264-.009-.314-.132-.008-.021-.013-.04-.016-.062Z" fill="#ffda0c" fill-rule="evenodd" />
                <path d="M18.652,13.229l.156,1.001-.587-.826c-.013-.018-.023-.035-.031-.056-.05-.123.009-.264.132-.314.123-.05.264.009.314.132.008.021.013.04.016.062Z" fill="#ffda0c" fill-rule="evenodd" />
              </g>
              <g>
                <path d="M13.249,8.361l-.819-.598.999.17c.022.004.041.008.062.017.122.052.18.193.128.316-.052.122-.193.18-.316.128-.021-.009-.037-.019-.055-.033Z" fill="#ffda0c" fill-rule="evenodd" />
                <path d="M20.668,10.991l.818.598-.999-.17c-.022-.004-.041-.008-.061-.017-.122-.052-.18-.193-.128-.316.052-.122.193-.18.315-.128.021.009.037.019.055.033Z" fill="#ffda0c" fill-rule="evenodd" />
              </g>
              <g>
                <path d="M13.406,11.369l-1.002.156.827-.587c.018-.013.035-.023.056-.032.123-.05.264.009.314.133.05.123-.009.264-.133.314-.021.008-.04.013-.062.016Z" fill="#ffda0c" fill-rule="evenodd" />
                <path d="M20.511,7.983l1.001-.156-.827.587c-.018.013-.035.023-.056.031-.123.05-.264-.009-.314-.133-.05-.123.009-.264.133-.314.021-.008.04-.013.062-.016Z" fill="#ffda0c" fill-rule="evenodd" />
              </g>
              <g>
                <path d="M15.644,13.386l-.598.818.17-.999c.003-.022.008-.041.017-.062.052-.122.193-.18.315-.128.123.052.18.193.128.316-.008.021-.019.038-.032.055Z" fill="#ffda0c" fill-rule="evenodd" />
                <path d="M18.273,5.966l.598-.818-.17.999c-.004.022-.008.041-.017.062-.052.122-.193.18-.316.128-.122-.052-.18-.193-.128-.315.009-.021.019-.037.032-.055Z" fill="#ffda0c" fill-rule="evenodd" />
              </g>
              <g>
                <path d="M14.616,6.514l-.345-.953.734.699c.016.015.029.03.042.049.073.111.041.261-.07.333-.111.073-.261.041-.333-.07-.012-.019-.02-.037-.028-.058Z" fill="#ffda0c" fill-rule="evenodd" />
                <path d="M19.301,12.838l.345.953-.734-.699c-.016-.015-.029-.03-.042-.049-.073-.111-.041-.261.07-.333.111-.073.26-.041.333.07.012.019.02.037.027.058Z" fill="#ffda0c" fill-rule="evenodd" />
              </g>
              <g>
                <path d="M13.066,9.096l-.918-.43,1.013-.025c.022,0,.042,0,.064.005.13.027.214.155.186.285-.027.13-.155.214-.285.186-.022-.005-.04-.012-.06-.021Z" fill="#ffda0c" fill-rule="evenodd" />
                <path d="M20.851,10.256l.918.43-1.013.025c-.022,0-.042,0-.064-.005-.13-.027-.213-.155-.186-.285.027-.13.155-.214.285-.186.022.005.041.012.06.021Z" fill="#ffda0c" fill-rule="evenodd" />
              </g>
              <g>
                <path d="M13.796,12.019l-.953.345.699-.734c.015-.016.03-.03.048-.042.111-.073.261-.041.334.07.073.111.041.261-.07.333-.019.012-.037.02-.058.028Z" fill="#ffda0c" fill-rule="evenodd" />
                <path d="M20.121,7.333l.953-.345-.699.734c-.015.016-.029.029-.048.042-.111.073-.26.041-.333-.07-.073-.111-.041-.261.07-.333.019-.012.037-.02.058-.028Z" fill="#ffda0c" fill-rule="evenodd" />
              </g>
              <g>
                <path d="M16.379,13.569l-.43.918-.025-1.013c0-.022,0-.042.005-.064.027-.13.155-.213.285-.186.13.028.213.155.186.285-.005.022-.012.04-.021.06Z" fill="#ffda0c" fill-rule="evenodd" />
                <path d="M17.538,5.783l.43-.918.025,1.013c0,.022,0,.042-.005.064-.027.13-.155.213-.285.186-.13-.028-.214-.155-.186-.285.005-.022.012-.041.021-.06Z" fill="#ffda0c" fill-rule="evenodd" />
              </g>
            </g>
          </g>
          <path d="M19.033,16.494l1.892.111s-.013.393-.301.432c-.288.039-.524-.17-.524-.17,0,0,.105.439-.118.452-.223.013-.419-.196-.419-.196,0,0-.092.425-.255.419-.164-.006-.183-.242-.183-.242,0,0-.157.393-.34.386-.183-.006-.242-.216-.242-.216,0,0-.124.315-.301.301-.177-.013-.19-.275-.19-.275,0,0-.164.38-.366.347-.203-.033-.137-.327-.137-.327,0,0-.203.367-.38.354-.177-.013-.085-.367-.085-.367,0,0-.19.413-.406.347-.216-.065-.072-.327-.072-.327,0,0-.498.413-.648.327-.151-.085.543-.563.543-.563,0,0,1.159-.039,1.617-.046.459-.006.714-.295.917-.747Z" fill="#ffda0c" fill-rule="evenodd" />
          <path d="M16.891,15.15c-2.375-.04-4.933-1.711-5.443-4.371-.049-.257-.224-.295-.254-.052-.04.321.089,1.003.089,1.003-.231-.463-.391-.867-.484-1.374-.082-.445-.35-.313-.336.023.03.724.272,1.242.624,1.859-.306-.354-.579-.714-.865-1.081-.274-.351-.508-.188-.227.363.214.422.669.949,1.012,1.284-.341-.244-.66-.497-.957-.794-.275-.274-.405-.13-.255.147.218.402.886.975,1.253,1.275-.067,0-.361-.087-.543-.214-.262-.182-.425-.092-.121.229.165.175.404.307.715.468.31.162.455.236.455.236,0,0-.168.033-.465-.014-.296-.047-.293.091.03.185.324.094.634.138.634.138-.63.034-.495.3.206.331-.816.072.062.356.364.405-.571-.065-.2.187.067.3.565.239,1.171.43,1.773.539,0,0-.809-.249-1.284-.482-.28-.137-.525-.285-.108-.398-.166-.031-1.085-.271-.442-.411-.342-.056-.595-.338-.266-.351-.215-.037-.365-.289-.192-.347-.638-.153-.8-.556-.421-.357-.575-.48-.317-.778-.013-.539-.171-.213-.62-1.089-.007-.624-.165-.592.556.347.556.347.42.544.855,1.179,1.538,1.396.303.097.444.26.661.48.567.575.711.551,1.476.571.513.014.516.006.933.256.121-.131.227-.264.299-.428Z" fill="#ffda0c" fill-rule="evenodd" />
          <path d="M17.613,17.076s-1.47-.005-1.801-.009c-.332-.005-.391-.009-.391-.009-.04.071-.215.108-.294.118l.098-.127-.255.143c-.05-.187.068-.365.237-.439-.067-.193.279-.324.425-.37.686-.217,1.14-.667,1.563-1.248,2.418-.011,4.69-1.945,5.245-4.258.056-.232.284-.621.319-.124.025.361-.035.625-.089.975,0,0,.424-1.085.473-1.419.049-.334.273-.383.289-.02.032.713-.202,1.254-.506,1.806,0,0,.514-.598.72-.909.277-.417.587-.316.381.118-.205.433-.7,1.14-1.06,1.447,0,0,.576-.45.862-.723.421-.404.519-.293.184.222-.25.384-.732.854-1.083,1.153,0,0,.29-.109.489-.228.409-.243.33-.007.095.274-.197.235-.585.53-1.017.745,1.226-.133-.077.41-.457.485.995-.134.334.298-.322.342.828-.008.01.295-.416.334.917.131-.767.809-1.562.763.233-.051,1.813-.693,1.256-.84.314.053.629-.25.249-.261.28-.033.761-.305.335-.277.222-.092.891-.524.326-.408.435-.13,1.099-.717.42-.514.561-.385.386-.82-.012-.494.779-.871-.19-.606-.669-.186-.173.152-.672.711-.697.911-.457.048-1.655.812-1.859,1.236-.921-.007-1.689.108-2.393.697-.375.314-.632.478-.915.557-.164.046-.412.1-.458.303,0,0,.112-.055.191-.019.211.094.254-.196.254-.196l.671-.202c-.172.084-.514.333-.09.253-.411.167-.194.27.104.297.401.037.752.033,1.161.098Z" fill="#ffda0c" fill-rule="evenodd" />
          <path d="M15.547,16.689c-.059.057.032.088.065.036.036-.055-.028-.072-.065-.036Z" fill="#ffda0c" fill-rule="evenodd" />
        </g>
        <g>
          <path d="M2.854,13.321c0,.064-.03.121-.077.157.011,0,.021-.001.032-.001.166,0,.304.122.328.282-.037-.039-.089-.063-.147-.063-.112,0-.203.091-.203.203v.591c.055-.04.123-.063.198-.063h.175c.082,0,.148-.066.148-.148,0-.042-.018-.08-.046-.107.116.018.205.118.205.239,0,.01,0,.02-.002.029.064,0,.12.034.152.084-.032.05-.088.084-.152.084.001.01.002.019.002.029,0,.121-.089.221-.205.239.028-.027.046-.065.046-.107,0-.082-.066-.148-.148-.148-.097,0-.167.092-.143.185.039.164.185.285.361.285.281,0,.456-.299.329-.543l-1.053-2.305-1.053,2.305c-.127.244.048.543.329.543.175,0,.322-.122.361-.285.024-.093-.046-.185-.143-.185-.082,0-.148.066-.148.148,0,.042.018.08.046.107-.116-.018-.205-.118-.205-.239,0-.01,0-.02.002-.029-.064,0-.12-.034-.152-.084.032-.05.088-.084.152-.084-.001-.009-.002-.019-.002-.029,0-.121.089-.221.205-.239-.028.027-.046.065-.046.107,0,.082.066.148.148.148h.175c.075,0,.143.024.198.063v-.59c0-.112-.091-.203-.204-.203-.058,0-.11.024-.147.063.024-.16.162-.282.328-.282.01,0,.021,0,.032.001-.047-.037-.077-.094-.077-.157,0-.153.08-.288.2-.364.12.077.2.211.2.364h0ZM2.654,14.855c-.072.287-.368.502-.724.502-.352,0-.638-.285-.638-.637,0-.107.026-.208.073-.296l1.074-2.352c.021-.047.033-.099.033-.154,0-.205-.166-.371-.371-.371s-.371.166-.371.371c0,.148.091.311.256.311.1,0,.185-.063.217-.152.023-.058-.02-.122-.084-.122-.049,0-.089.039-.089.089,0,.025.01.049.028.065-.071-.011-.125-.072-.125-.145,0-.008,0-.016.002-.023-.043,0-.081-.023-.103-.057.022-.034.059-.056.103-.057-.001-.007-.002-.015-.002-.023,0-.074.054-.134.125-.145-.017.016-.028.039-.028.065,0,.05.04.09.09.09.162.002.271.166.213.315-.052.14-.188.24-.347.24-.025,0-.05-.003-.074-.007.053.058.087.132.095.215-.044-.019-.095-.029-.144-.028.059.077.082.162.08.258-.04-.033-.088-.058-.14-.074.012.043.018.087.018.133,0,.244-.175.448-.406.493.132-.196.208-.431.208-.685,0-.175-.038-.345-.105-.496-.036-.079-.055-.168-.055-.261,0-.352.285-.637.637-.637.236,0,.442.129.552.319.11-.191.316-.319.552-.319.351,0,.637.285.637.637,0,.093-.02.181-.056.261-.066.151-.104.321-.104.496,0,.254.077.489.208.685-.231-.045-.406-.248-.406-.493,0-.046.006-.091.018-.133-.052.015-.099.04-.14.074-.002-.096.021-.18.08-.258-.048,0-.099.009-.144.028.007-.083.042-.157.095-.215-.024.005-.048.007-.073.007-.159,0-.294-.1-.347-.24-.058-.149.05-.314.213-.315.05,0,.09-.04.09-.09,0-.026-.011-.049-.028-.065.071.011.125.071.125.145,0,.008,0,.016-.002.023.043,0,.081.023.103.057-.022.034-.059.057-.103.057.001.008.002.015.002.023,0,.073-.054.134-.125.145.017-.016.028-.039.028-.065,0-.05-.04-.088-.089-.089-.064,0-.106.064-.084.122.032.089.117.152.217.152.166,0,.256-.163.256-.311,0-.205-.166-.371-.371-.371s-.371.166-.371.371c0,.055.012.107.033.154l1.074,2.352c.046.088.072.189.072.296,0,.352-.285.637-.637.637-.355,0-.652-.215-.724-.502Z" fill="#fed516" fill-rule="evenodd" />
          <path d="M2.854,9.309c0-.064-.03-.121-.077-.157.011.001.021.001.032.001.166,0,.304-.122.328-.282-.037.039-.089.063-.147.063-.112,0-.203-.091-.203-.204v-.59c.055.039.123.063.198.063h.175c.082,0,.148.066.148.148,0,.042-.018.08-.046.107.116-.018.205-.118.205-.239,0-.01,0-.019-.002-.029.064,0,.12-.034.152-.084-.032-.05-.088-.084-.152-.084.001-.009.002-.019.002-.029,0-.121-.089-.221-.205-.239.028.027.046.065.046.107,0,.082-.066.148-.148.148-.097,0-.167-.092-.143-.185.039-.164.185-.285.361-.285.281,0,.456.299.329.543l-1.053,2.305-1.053-2.305c-.127-.244.048-.543.329-.543.175,0,.322.121.361.285.024.093-.046.185-.143.185-.082,0-.148-.066-.148-.148,0-.042.018-.081.046-.107-.116.018-.205.118-.205.239,0,.01,0,.02.002.029-.064,0-.12.034-.152.084.032.05.088.084.152.084-.001.01-.002.019-.002.029,0,.121.089.221.205.239-.028-.027-.046-.065-.046-.107,0-.082.066-.148.148-.148h.175c.075,0,.143-.024.198-.063v.59c0,.112-.091.204-.204.204-.058,0-.11-.024-.147-.063.024.16.162.282.328.282.01,0,.021,0,.032-.001-.047.037-.077.094-.077.157,0,.153.08.288.2.364.12-.077.2-.211.2-.364h0ZM2.654,7.775c-.072-.287-.368-.502-.724-.502-.352,0-.638.285-.638.637,0,.107.026.208.073.296l1.074,2.352c.021.047.033.099.033.154,0,.205-.166.371-.371.371s-.371-.166-.371-.371c0-.148.091-.311.256-.311.1,0,.185.064.217.152.023.058-.02.122-.084.122-.049,0-.089-.04-.089-.089,0-.026.01-.049.028-.065-.071.011-.125.072-.125.146,0,.008,0,.015.002.023-.043,0-.081.023-.103.057.022.034.059.056.103.056-.001.008-.002.015-.002.023,0,.074.054.135.125.145-.017-.016-.028-.039-.028-.065,0-.05.04-.09.09-.09.162-.002.271-.166.213-.315-.052-.14-.188-.24-.347-.24-.025,0-.05.003-.074.007.053-.058.087-.132.095-.215-.044.019-.095.029-.144.028.059-.077.082-.161.08-.258-.04.033-.088.059-.14.073.012-.043.018-.087.018-.134,0-.244-.175-.448-.406-.492.132.196.208.431.208.684,0,.175-.038.346-.105.496-.036.08-.055.168-.055.261,0,.352.285.637.637.637.236,0,.442-.128.552-.319.11.191.316.319.552.319.351,0,.637-.285.637-.637,0-.093-.02-.181-.056-.261-.066-.151-.104-.321-.104-.496,0-.253.077-.489.208-.684-.231.045-.406.248-.406.492,0,.047.006.091.018.134-.052-.015-.099-.04-.14-.073-.002.096.021.18.08.258-.048,0-.099-.009-.144-.028.007.082.042.157.095.215-.024-.005-.048-.007-.073-.007-.159,0-.294.1-.347.24-.058.148.05.313.213.315.05,0,.09.04.09.09,0,.025-.011.049-.028.065.071-.01.125-.071.125-.145,0-.008,0-.015-.002-.023.043,0,.081-.023.103-.056-.022-.034-.059-.057-.103-.057.001-.007.002-.015.002-.023,0-.074-.054-.135-.125-.146.017.016.028.039.028.065,0,.049-.04.088-.089.089-.064,0-.106-.064-.084-.122.032-.089.117-.152.217-.152.166,0,.256.164.256.311,0,.205-.166.371-.371.371s-.371-.166-.371-.371c0-.055.012-.107.033-.154l1.074-2.352c.046-.088.072-.189.072-.296,0-.352-.285-.637-.637-.637-.355,0-.652.215-.724.502Z" fill="#fed516" fill-rule="evenodd" />
          <path d="M1.849,11.115c.11,0,.2.09.2.2s-.09.2-.2.2c-.153,0-.288-.08-.364-.2.077-.12.211-.2.364-.2Z" fill="#fed516" fill-rule="evenodd" />
          <path d="M3.459,11.115c-.111,0-.2.09-.2.2s.089.2.2.2c.153,0,.288-.08.364-.2-.077-.12-.211-.2-.364-.2Z" fill="#fed516" fill-rule="evenodd" />
          <path d="M2.854,17.343c0-.064-.03-.121-.077-.158.011.001.021.002.032.002.166,0,.304-.123.328-.282-.037.039-.089.063-.147.063-.112,0-.203-.091-.203-.204v-.59c.055.039.123.063.198.063h.175c.082,0,.148.066.148.148,0,.042-.018.08-.046.107.116-.018.205-.118.205-.239,0-.01,0-.02-.002-.029.064,0,.12-.034.152-.084-.032-.05-.088-.084-.152-.084.001-.01.002-.019.002-.029,0-.121-.089-.221-.205-.239.028.027.046.065.046.107,0,.082-.066.148-.148.148-.097,0-.167-.092-.143-.185.039-.163.185-.285.361-.285.281,0,.456.299.329.543l-1.053,2.305-1.053-2.305c-.127-.244.048-.543.329-.543.175,0,.322.122.361.285.024.093-.046.185-.143.185-.082,0-.148-.066-.148-.148,0-.042.018-.08.046-.107-.116.017-.205.118-.205.239,0,.01,0,.02.002.029-.064,0-.12.033-.152.084.032.05.088.084.152.084-.001.01-.002.019-.002.029,0,.121.089.221.205.239-.028-.027-.046-.065-.046-.107,0-.082.066-.148.148-.148h.175c.075,0,.143-.023.198-.063v.59c0,.112-.091.204-.204.204-.058,0-.11-.024-.147-.063.024.16.162.282.328.282.01,0,.021,0,.032-.002-.047.037-.077.093-.077.158,0,.153.08.287.2.364.12-.077.2-.211.2-.364h0ZM2.654,15.809c-.072-.287-.368-.502-.724-.502-.352,0-.638.285-.638.637,0,.107.026.208.073.296l1.074,2.352c.021.047.033.099.033.154,0,.205-.166.371-.371.371s-.371-.166-.371-.371c0-.148.091-.311.256-.311.1,0,.185.064.217.152.023.058-.02.122-.084.122-.049,0-.089-.04-.089-.089,0-.025.01-.049.028-.065-.071.011-.125.072-.125.145,0,.008,0,.016.002.023-.043,0-.081.023-.103.057.022.034.059.056.103.056-.001.008-.002.016-.002.023,0,.073.054.134.125.145-.017-.016-.028-.039-.028-.065,0-.05.04-.09.09-.09.162-.002.271-.166.213-.315-.052-.14-.188-.24-.347-.24-.025,0-.05.003-.074.007.053-.058.087-.132.095-.215-.044.019-.095.029-.144.028.059-.077.082-.161.08-.258-.04.033-.088.059-.14.073.012-.042.018-.087.018-.133,0-.244-.175-.448-.406-.493.132.196.208.431.208.684,0,.175-.038.346-.105.496-.036.08-.055.168-.055.261,0,.352.285.637.637.637.236,0,.442-.128.552-.319.11.191.316.319.552.319.351,0,.637-.285.637-.637,0-.093-.02-.181-.056-.261-.066-.15-.104-.321-.104-.496,0-.253.077-.489.208-.684-.231.045-.406.248-.406.493,0,.046.006.091.018.133-.052-.015-.099-.04-.14-.073-.002.096.021.18.08.258-.048.001-.099-.009-.144-.028.007.083.042.157.095.215-.024-.005-.048-.007-.073-.007-.159,0-.294.1-.347.24-.058.148.05.313.213.315.05,0,.09.04.09.09,0,.026-.011.049-.028.065.071-.011.125-.072.125-.145,0-.008,0-.016-.002-.023.043,0,.081-.023.103-.056-.022-.034-.059-.057-.103-.057.001-.007.002-.015.002-.023,0-.074-.054-.135-.125-.145.017.016.028.04.028.065,0,.049-.04.088-.089.089-.064,0-.106-.064-.084-.122.032-.089.117-.152.217-.152.166,0,.256.163.256.311,0,.205-.166.371-.371.371s-.371-.166-.371-.371c0-.055.012-.107.033-.154l1.074-2.352c.046-.088.072-.189.072-.296,0-.352-.285-.637-.637-.637-.355,0-.652.215-.724.502Z" fill="#fed516" fill-rule="evenodd" />
          <path d="M1.849,19.148c.11,0,.2.09.2.2s-.09.2-.2.2c-.153,0-.288-.08-.364-.2.077-.12.211-.2.364-.2Z" fill="#fed516" fill-rule="evenodd" />
          <path d="M3.459,19.148c-.111,0-.2.09-.2.2s.089.2.2.2c.153,0,.288-.08.364-.2-.077-.12-.211-.2-.364-.2Z" fill="#fed516" fill-rule="evenodd" />
          <path d="M2.654,20.928c-.053.09-.152.151-.264.151-.036,0-.065-.029-.065-.065,0-.01.002-.019.006-.028l.324-.709.324.709c.004.008.006.017.006.028,0,.036-.029.065-.065.065-.112,0-.211-.061-.264-.151h0ZM2.654,21.213c.061.08.156.131.264.131.183,0,.332-.148.332-.332,0-.052-.012-.1-.033-.144l-.349-.763c-.021-.047-.033-.099-.033-.154,0-.205.166-.371.371-.371s.371.166.371.371c0,.148-.091.311-.256.311-.1,0-.185-.063-.217-.152-.023-.058.02-.122.084-.122.049,0,.089.04.089.089,0,.025-.01.049-.028.065.071-.011.125-.071.125-.145,0-.008,0-.016-.002-.023.043,0,.081-.023.103-.057-.022-.034-.059-.056-.103-.057.001-.007.002-.015.002-.023,0-.073-.054-.134-.125-.145.017.016.028.039.028.065,0,.05-.04.09-.09.09-.162.002-.271.166-.213.315.052.14.188.24.347.24.025,0,.05-.003.073-.007-.053.058-.087.132-.095.215.044-.018.095-.029.144-.027-.059.077-.082.161-.08.257.041-.033.088-.058.14-.073-.012.042-.018.087-.018.133,0,.244.175.448.406.493-.132-.196-.208-.431-.208-.684,0-.175.038-.346.105-.496.036-.08.056-.168.056-.261,0-.352-.285-.637-.637-.637-.236,0-.442.128-.552.319-.11-.191-.316-.319-.552-.319-.352,0-.637.285-.637.637,0,.093.02.181.055.261.066.15.105.321.105.496,0,.253-.077.489-.208.684.231-.045.406-.248.406-.493,0-.046-.006-.091-.018-.133.052.015.099.04.14.073.003-.096-.021-.18-.08-.257.048-.001.099.009.144.027-.007-.082-.042-.157-.095-.215.024.005.049.007.074.007.159,0,.294-.1.347-.24.058-.149-.05-.314-.213-.315-.05,0-.09-.04-.09-.09,0-.026.01-.049.028-.065-.071.011-.125.072-.125.145,0,.008,0,.016.002.023-.043,0-.081.023-.103.057.022.034.059.057.103.057-.001.008-.002.015-.002.023,0,.074.054.134.125.145-.017-.016-.028-.039-.028-.065,0-.049.039-.088.089-.089.064,0,.106.064.084.122-.032.089-.117.152-.217.152-.166,0-.256-.163-.256-.311,0-.205.166-.371.371-.371s.371.166.371.371c0,.055-.012.107-.033.154l-.349.763c-.021.044-.033.092-.033.144,0,.183.149.332.332.332.108,0,.204-.052.264-.131Z" fill="#fed516" fill-rule="evenodd" />
          <path d="M2.854,5.288c0,.064-.03.121-.077.157.011,0,.021-.001.032-.001.166,0,.304.122.328.282-.037-.039-.089-.063-.147-.063-.112,0-.203.091-.203.204v.59c.055-.04.123-.063.198-.063h.175c.082,0,.148-.066.148-.148,0-.042-.018-.081-.046-.107.116.018.205.118.205.239,0,.01,0,.02-.002.029.064,0,.12.034.152.084-.032.05-.088.084-.152.084.001.009.002.019.002.029,0,.121-.089.221-.205.239.028-.027.046-.065.046-.107,0-.082-.066-.148-.148-.148-.097,0-.167.092-.143.185.039.164.185.285.361.285.281,0,.456-.299.329-.543l-1.053-2.305-1.053,2.305c-.127.244.048.542.329.543.175,0,.322-.122.361-.285.024-.093-.046-.185-.143-.185-.082,0-.148.066-.148.148,0,.042.018.081.046.107-.116-.018-.205-.118-.205-.239,0-.01,0-.02.002-.029-.064,0-.12-.034-.152-.084.032-.05.088-.084.152-.084-.001-.009-.002-.019-.002-.029,0-.121.089-.221.205-.239-.028.027-.046.065-.046.107,0,.082.066.148.148.148h.175c.075,0,.143.024.198.063v-.59c0-.113-.091-.204-.204-.204-.058,0-.11.024-.147.063.024-.16.162-.282.328-.282.01,0,.021,0,.032.001-.047-.037-.077-.094-.077-.157,0-.153.08-.288.2-.364.12.077.2.211.2.364h0ZM2.654,6.821c-.072.287-.368.502-.724.502-.352,0-.638-.285-.638-.637,0-.107.026-.208.073-.296l1.074-2.352c.021-.047.033-.099.033-.154,0-.205-.166-.371-.371-.371s-.371.166-.371.371c0,.148.091.311.256.311.1,0,.185-.064.217-.152.023-.058-.02-.122-.084-.122-.049,0-.089.04-.089.089,0,.026.01.049.028.065-.071-.011-.125-.072-.125-.145,0-.008,0-.016.002-.023-.043,0-.081-.023-.103-.057.022-.034.059-.056.103-.056-.001-.008-.002-.015-.002-.023,0-.074.054-.134.125-.145-.017.016-.028.039-.028.065,0,.05.04.09.09.09.162.002.271.166.213.315-.052.14-.188.24-.347.24-.025,0-.05-.003-.074-.007.053.058.087.132.095.215-.044-.019-.095-.029-.144-.028.059.077.082.162.08.258-.04-.033-.088-.058-.14-.074.012.043.018.087.018.134,0,.244-.175.448-.406.492.132-.195.208-.431.208-.684,0-.175-.038-.346-.105-.496-.036-.079-.055-.168-.055-.261,0-.352.285-.637.637-.637.236,0,.442.128.552.319.11-.191.316-.319.552-.319.351,0,.637.285.637.637,0,.093-.02.181-.056.261-.066.151-.104.321-.104.496,0,.253.077.489.208.684-.231-.045-.406-.248-.406-.492,0-.046.006-.091.018-.134-.052.015-.099.04-.14.074-.002-.096.021-.18.08-.258-.048,0-.099.009-.144.028.007-.082.042-.157.095-.215-.024.005-.048.007-.073.007-.159,0-.294-.1-.347-.24-.058-.149.05-.314.213-.315.05,0,.09-.04.09-.09,0-.026-.011-.049-.028-.065.071.011.125.071.125.145,0,.008,0,.015-.002.023.043,0,.081.023.103.056-.022.034-.059.057-.103.057.001.007.002.015.002.023,0,.073-.054.134-.125.145.017-.016.028-.039.028-.065,0-.049-.04-.088-.089-.089-.064,0-.106.064-.084.122.032.089.117.152.217.152.166,0,.256-.164.256-.311,0-.205-.166-.371-.371-.371s-.371.166-.371.371c0,.055.012.107.033.154l1.074,2.352c.046.088.072.189.072.296,0,.352-.285.637-.637.637-.355,0-.652-.215-.724-.502Z" fill="#fed516" fill-rule="evenodd" />
          <path d="M1.849,3.482c.11,0,.2-.09.2-.2s-.09-.2-.2-.2c-.153,0-.288.08-.364.2.077.12.211.2.364.2Z" fill="#fed516" fill-rule="evenodd" />
          <path d="M3.459,3.482c-.111,0-.2-.09-.2-.2s.089-.2.2-.2c.153,0,.288.08.364.2-.077.12-.211.2-.364.2Z" fill="#fed516" fill-rule="evenodd" />
          <path d="M2.654,1.703c-.053-.09-.152-.151-.264-.151-.036,0-.065.029-.065.066,0,.01.002.019.006.028l.324.709.324-.709c.004-.008.006-.018.006-.028,0-.036-.029-.066-.065-.066-.112,0-.211.061-.264.151h0ZM2.654,1.417c.061-.08.156-.131.264-.131.183,0,.332.149.332.332,0,.052-.012.1-.033.144l-.349.764c-.021.047-.033.099-.033.154,0,.205.166.371.371.371s.371-.166.371-.371c0-.148-.091-.311-.256-.311-.1,0-.185.064-.217.152-.023.058.02.122.084.122.049,0,.089-.04.089-.089,0-.026-.01-.049-.028-.065.071.011.125.072.125.145,0,.008,0,.016-.002.023.043,0,.081.023.103.057-.022.034-.059.056-.103.056.001.008.002.015.002.023,0,.074-.054.134-.125.145.017-.016.028-.039.028-.065,0-.05-.04-.09-.09-.09-.162-.002-.271-.166-.213-.315.052-.14.188-.24.347-.24.025,0,.05.003.073.007-.053-.057-.087-.132-.095-.215.044.019.095.029.144.028-.059-.077-.082-.162-.08-.258.041.033.088.059.14.074-.012-.043-.018-.087-.018-.133,0-.244.175-.448.406-.492-.132.195-.208.431-.208.684,0,.175.038.345.105.496.036.079.056.168.056.261,0,.352-.285.637-.637.637-.236,0-.442-.128-.552-.319-.11.191-.316.319-.552.319-.352,0-.637-.285-.637-.637,0-.093.02-.181.055-.261.066-.151.105-.321.105-.496,0-.254-.077-.489-.208-.684.231.045.406.248.406.492,0,.046-.006.091-.018.133.052-.015.099-.04.14-.074.003.096-.021.18-.08.258.048,0,.099-.009.144-.028-.007.082-.042.157-.095.215.024-.005.049-.007.074-.007.159,0,.294.1.347.24.058.149-.05.314-.213.315-.05,0-.09.04-.09.09,0,.025.01.049.028.065-.071-.011-.125-.071-.125-.145,0-.008,0-.016.002-.023-.043,0-.081-.023-.103-.056.022-.034.059-.057.103-.057-.001-.007-.002-.015-.002-.023,0-.073.054-.134.125-.145-.017.016-.028.039-.028.065,0,.049.039.088.089.089.064,0,.106-.064.084-.122-.032-.089-.117-.152-.217-.152-.166,0-.256.163-.256.311,0,.205.166.371.371.371s.371-.166.371-.371c0-.055-.012-.107-.033-.154l-.349-.764c-.021-.043-.033-.092-.033-.144,0-.183.149-.332.332-.332.108,0,.204.052.264.131Z" fill="#fed516" fill-rule="evenodd" />
        </g>
      </g>
    </g>
  </g>
</g></svg>