<?xml version="1.0" encoding="UTF-8"?>
<svg id="Layer_2" data-name="Layer 2" xmlns="http://www.w3.org/2000/svg" viewBox="0 0 33.945 22.63">
  <g id="_Ñëîé_1" data-name="Ñëîé 1">
    <g>
      <g>
        <rect width="33.945" height="22.63" fill="#fff"/>
        <rect y="7.951" width="33.945" height="6.729" fill="red"/>
        <rect width="33.945" height="6.729"/>
        <rect y="15.901" width="33.945" height="6.729" fill="#007c29"/>
      </g>
      <g>
        <path d="M14.41,5.934l7.294,12.634-.372.215-7.294-12.634c-.335-.011-.602-.33-.71-.625l-1.108-2.955,2.004,2.438c.202.242.345.632.186.928Z" fill="#fff" fill-rule="evenodd"/>
        <path d="M19.535,5.934l-7.294,12.634.372.215,7.294-12.634c.336-.011.602-.33.711-.625l1.108-2.955-2.005,2.438c-.202.242-.345.632-.186.928Z" fill="#fff" fill-rule="evenodd"/>
        <g>
          <path d="M13.613,11.315c0-2.42.978-4.649,2.621-6.424.188-.192.449-.311.739-.311s.551.119.739.311c1.643,1.775,2.621,4.004,2.621,6.424s-.978,4.649-2.621,6.424c-.187.192-.449.311-.739.311s-.551-.119-.739-.311c-1.643-1.775-2.621-4.004-2.621-6.424Z" fill="red" fill-rule="evenodd"/>
          <path d="M13.613,11.315c0-1.177.231-2.308.658-3.364.555.996.872,2.143.872,3.364s-.317,2.368-.872,3.364c-.426-1.056-.658-2.187-.658-3.364Z" fill-rule="evenodd"/>
          <path d="M20.332,11.315c0-1.177-.231-2.308-.658-3.364-.555.996-.872,2.143-.872,3.364s.317,2.368.872,3.364c.426-1.056.658-2.187.658-3.364Z" fill-rule="evenodd"/>
          <path d="M16.973,10.484c.362,0,.655.372.655.831s-.293.831-.655.831-.655-.372-.655-.831.293-.831.655-.831Z" fill="#fff" fill-rule="evenodd"/>
          <g>
            <path d="M16.758,4.602c-.353.91-.548,1.912-.548,2.964s.195,2.053.548,2.964v-5.927Z" fill="#fff" fill-rule="evenodd"/>
            <path d="M17.187,4.602c.353.91.548,1.912.548,2.964s-.195,2.053-.548,2.964v-5.927Z" fill="#fff" fill-rule="evenodd"/>
          </g>
          <g>
            <path d="M16.758,18.028c-.353-.91-.548-1.912-.548-2.964s.195-2.053.548-2.963v5.927Z" fill="#fff" fill-rule="evenodd"/>
            <path d="M17.187,18.028c.353-.91.548-1.912.548-2.964s-.195-2.053-.548-2.963v5.927Z" fill="#fff" fill-rule="evenodd"/>
          </g>
        </g>
      </g>
    </g>
  </g>
</svg>