<?xml version="1.0" encoding="UTF-8"?>
<svg id="Layer_2" data-name="Layer 2" xmlns="http://www.w3.org/2000/svg" viewBox="0 0 33.945 22.631">
  <g id="_Ñëîé_1" data-name="Ñëîé 1">
    <g>
      <rect width="33.945" height="22.631" fill="#fff"/>
      <path d="M16.973,12.715c.733,0,1.433-.137,2.076-.389.668-.275,1.4-.427,2.167-.427s1.499.152,2.167.427c.644.252,1.344.389,2.076.389s1.433-.137,2.076-.389c.668-.275,1.4-.427,2.167-.427s1.499.152,2.167.427c.643.252,1.344.389,2.076.389V0H0v12.715c.733,0,1.433-.137,2.076-.389.668-.275,1.4-.427,2.167-.427s1.499.152,2.167.427c.643.252,1.344.389,2.076.389s1.433-.137,2.076-.389c.668-.275,1.4-.427,2.167-.427s1.499.152,2.167.427c.643.252,1.344.389,2.076.389Z" fill="red" fill-rule="evenodd"/>
      <g>
        <path d="M18.939,2.088c.366.062.738.092,1.109.092.285,0,.564-.018.837-.052.279-.035.552-.088.819-.157.013-.004.027,0,.037.01.01.011.012.028.005.04-.119.266-.345.472-.621.566-.358.128-.735.193-1.116.193-.124,0-.249-.007-.372-.021-.378-.035-.751.036-1.081.195-.188.091-.362.211-.515.356.282.21.656.315,1.005.315.188,0,.374-.025.556-.075.311-.082.646-.077.954.016.065.024.109.077.109.148,0,.083-.069.155-.152.155-.13-.002-.256.008-.377.031.046.044.088.092.128.141.048.063.043.152-.013.208-.043.043-.11.059-.166.036-.182-.081-.382-.122-.581-.118-.334.235-.705.42-1.102.546-.385.122-.795.188-1.221.188-.533,0-1.042-.103-1.509-.291-.484-.195-.922-.481-1.292-.836-.096-.09-.209-.162-.333-.211-.12-.047-.25-.073-.386-.073h-.344c-.126,0-.239.075-.288.191-.007.017-.026.027-.043.022-.174-.04-.297-.196-.297-.374,0-.212.172-.383.384-.383h.984c.065,0,.128-.017.184-.05.092-.056.198-.086.306-.086.118,0,.234.035.332.102l.636.438c.12.084.261.128.407.128h.019c-.252-.591-.76-.836-1.383-.83-.073,0-.161.003-.256.006-.707.02-1.886.052-2.102-.487-.012-.025.008-.054.036-.051.277.034.555.06.836.077.563.035,1.129.034,1.692,0,.283-.017.564-.044.843-.078.515-.045,1.005.213,1.256.667.182-.172.379-.321.59-.439.331-.184.695-.292,1.084-.292.135,0,.27.012.403.036Z" fill="#963" fill-rule="evenodd"/>
        <path d="M19.611,4.098c.173.01.343.051.502.122.033.008.063.005.088-.021.031-.03.034-.08.007-.114-.047-.059-.1-.116-.156-.167-.155.038-.304.099-.441.18Z" fill="#fed700" fill-rule="evenodd"/>
        <path d="M12.317,2.234c.299.396,1.339.367,1.981.349.095-.003.182-.005.258-.006.663-.006,1.199.264,1.458.895.127-.017.247-.068.348-.148-.116-.285-.264-.531-.462-.699-.202-.171-.457-.263-.786-.237-.446.036-1.191.071-1.837.025-.38-.027-.727-.081-.96-.179Z" fill="#fed700" fill-rule="evenodd"/>
        <path d="M16.494,3.188c.098-.126.204-.245.315-.355-.233-.437-.703-.691-1.195-.648-.279.035-.562.061-.847.079-.566.035-1.135.035-1.701,0-.198-.012-.396-.028-.591-.049.216.066.5.106.808.127.642.045,1.384.01,1.827-.025.35-.028.622.071.837.254.202.172.353.418.472.704.027-.027.053-.056.076-.087Z" fill="#fed700" fill-rule="evenodd"/>
        <path d="M21.102,2.519c.205-.069.382-.205.501-.386-.178.113-.404.186-.645.233-.304.059-.632.077-.91.082-.39.006-.78-.018-1.166-.078-.114-.018-.231-.028-.346-.026-.338.006-.649.107-.93.27-.325.189-.607.46-.839.76-.197.271-.511.435-.847.44-.085.001-.169-.007-.251-.026-.019-.004-.031-.023-.027-.042.004-.019.023-.032.043-.027.077.017.155.026.234.024.313-.005.606-.158.79-.411.237-.307.528-.586.861-.779.29-.169.613-.274.964-.28.12-.002.239.008.358.026.381.059.768.083,1.154.077.274-.004.597-.022.897-.081.229-.045.444-.113.611-.217-.217.05-.437.09-.662.118-.278.035-.561.053-.846.053-.375,0-.749-.031-1.12-.093-.13-.024-.26-.035-.392-.035-.377,0-.73.104-1.05.283-.354.197-.669.485-.935.825-.148.201-.381.319-.631.319-.16,0-.316-.048-.448-.14l-.635-.438c-.086-.059-.187-.09-.292-.09-.095,0-.187.026-.269.075-.067.039-.143.061-.221.061h-.984c-.173,0-.312.14-.312.312,0,.113.06.216.158.272-.035-.085-.044-.185-.006-.271.046-.103.144-.148.253-.148h.495c.184,0,.366.037.535.109.018.008.026.029.018.047-.008.018-.028.026-.046.019-.161-.069-.333-.103-.507-.103h-.495c-.08,0-.154.029-.188.105-.033.074-.018.167.017.237.07-.111.192-.178.324-.178h.344c.145,0,.285.028.412.078.133.052.253.129.356.225.363.349.795.631,1.27.823.458.184.958.286,1.482.286.418,0,.821-.065,1.199-.184.374-.119.746-.306,1.065-.524.333-.228.664-.33,1.069-.323.045-.002.081-.039.081-.084,0-.034-.024-.07-.058-.08-.298-.09-.613-.095-.914-.015-.184.051-.384.077-.576.077-.367,0-.761-.112-1.056-.336-.094.097-.181.205-.256.321-.098.153-.234.281-.395.368-.155.085-.332.133-.521.133-.02,0-.036-.016-.036-.036,0-.02.016-.036.036-.036.177,0,.342-.045.487-.124.15-.082.277-.201.369-.344.084-.129.181-.248.287-.354.166-.164.358-.299.564-.399.341-.165.727-.239,1.118-.202.122.013.243.02.365.02.372,0,.741-.063,1.092-.189h0ZM14.546,3.095c.049,0,.089.04.089.089,0,.049-.04.089-.089.089-.049,0-.089-.04-.089-.089,0-.049.04-.089.089-.089Z" fill="#fed700" fill-rule="evenodd"/>
        <path d="M14.546,3.166c.01,0,.018.008.018.018,0,.01-.008.018-.018.018-.01,0-.018-.008-.018-.018,0-.01.008-.018.018-.018Z" fill="#fed700" fill-rule="evenodd"/>
      </g>
      <g>
        <path d="M17.332,8.028c.013-.023.027-.045.042-.067.107-.167.162-.366.156-.564-.016-.268.091-.531.291-.711.099-.088.216-.153.341-.19.019-.006.039.005.044.024.003.012,0,.025-.008.034-.06.067-.108.143-.142.226-.073.176-.08.37-.02.55.055.18.039.372-.045.54-.101.199-.157.416-.161.637l1.181-1.812c.011-.016.033-.021.049-.01.013.008.018.023.016.037l-.363,1.724c.021-.016.043-.031.065-.046.163-.113.29-.276.359-.462.087-.253.287-.456.54-.545.125-.044.258-.059.389-.045.019.002.033.019.031.039-.001.013-.009.023-.02.028-.081.039-.154.091-.218.155-.134.135-.215.311-.229.501-.018.187-.107.358-.248.481-.17.145-.303.324-.393.527l1.784-1.222c.016-.011.039-.007.049.009.009.013.008.028,0,.04l-.995,1.454c.025-.007.052-.012.078-.018.194-.042.374-.144.509-.289.178-.201.44-.311.708-.297.132.007.261.044.376.107.017.009.023.031.014.048-.006.011-.017.018-.029.018-.09.005-.177.025-.26.059-.176.073-.318.205-.403.375-.088.166-.235.29-.413.35-.212.069-.404.183-.565.336l2.115-.446c.019-.004.038.008.042.027.003.015-.003.029-.015.037l-1.475.962c.026.004.052.008.079.014.195.035.4.01.58-.072.241-.118.525-.119.768-.003.12.058.224.141.307.243.012.015.01.038-.005.05-.01.008-.023.01-.034.006-.085-.03-.173-.045-.264-.045-.19,0-.372.067-.516.192-.145.12-.328.178-.515.165-.223-.017-.444.014-.65.095l2.125.398c.019.004.032.022.029.042-.003.015-.014.025-.029.028l-1.731.324c.023.013.045.027.067.043.167.107.366.163.564.156.268-.016.531.091.711.291.088.099.153.216.19.342.005.019-.005.039-.024.044-.012.003-.025,0-.034-.008-.067-.06-.143-.108-.226-.142-.176-.073-.369-.08-.55-.02-.179.056-.372.039-.539-.045-.199-.101-.416-.156-.637-.161l1.811,1.181c.016.011.021.033.01.049-.008.013-.023.018-.037.015l-1.723-.363c.016.021.031.043.046.065.113.163.276.29.462.36.253.087.456.287.545.541.044.125.059.258.045.389-.002.02-.02.034-.039.031-.012-.001-.023-.009-.028-.02-.039-.081-.091-.154-.154-.218-.134-.134-.311-.215-.5-.229-.187-.018-.358-.106-.481-.248-.145-.17-.324-.304-.527-.393l1.221,1.785c.011.016.007.038-.009.049-.012.008-.028.008-.04,0l-1.453-.995c.007.026.012.052.018.078.042.194.144.374.289.509.201.178.311.44.296.708-.007.132-.044.261-.107.376-.01.017-.031.023-.049.014-.011-.006-.018-.017-.018-.029-.005-.09-.025-.177-.059-.261-.073-.176-.205-.318-.375-.403-.166-.088-.29-.236-.349-.414-.069-.212-.183-.405-.336-.565l.446,2.117c.004.019-.008.038-.028.042-.014.003-.029-.003-.037-.015l-.962-1.476c-.004.026-.008.052-.013.078-.035.195-.01.4.072.581.118.241.119.525.003.768-.057.12-.141.225-.243.307-.015.012-.038.01-.05-.005-.008-.01-.01-.023-.006-.034.03-.085.045-.173.045-.263,0-.191-.067-.372-.192-.516-.12-.145-.178-.329-.164-.516.017-.222-.015-.444-.095-.65l-.398,2.126c-.004.019-.022.032-.041.028-.015-.003-.026-.014-.028-.028l-.324-1.732c-.013.023-.027.045-.042.067-.107.167-.162.366-.156.564.016.268-.091.531-.291.711-.099.089-.216.153-.342.19-.019.005-.039-.005-.044-.024-.003-.013,0-.025.008-.034.06-.067.108-.143.142-.226.073-.176.08-.37.02-.55-.055-.18-.039-.372.045-.54.101-.199.156-.416.161-.637l-1.181,1.812c-.01.016-.033.021-.049.011-.013-.008-.018-.023-.015-.037l.363-1.724c-.021.016-.043.031-.065.046-.163.113-.29.276-.359.462-.087.254-.287.456-.541.545-.125.044-.258.059-.388.045-.02-.002-.034-.02-.032-.039.001-.013.009-.023.02-.028.081-.039.154-.091.218-.155.134-.135.215-.311.229-.501.018-.187.106-.358.248-.481.169-.145.304-.324.393-.527l-1.784,1.222c-.016.011-.038.007-.049-.009-.008-.012-.008-.028,0-.04l.995-1.454c-.025.007-.051.012-.078.017-.194.042-.374.144-.509.289-.178.201-.439.311-.708.297-.133-.007-.261-.044-.376-.107-.017-.01-.023-.031-.014-.048.006-.011.017-.018.029-.018.09-.005.177-.025.26-.059.176-.073.318-.205.403-.375.088-.166.235-.29.413-.35.212-.069.404-.183.564-.336l-2.115.446c-.019.004-.038-.008-.042-.028-.003-.015.004-.029.015-.037l1.475-.963c-.026-.004-.052-.008-.078-.013-.195-.035-.4-.01-.58.072-.241.117-.525.119-.768.003-.12-.057-.224-.141-.307-.243-.012-.015-.01-.038.005-.05.01-.008.023-.01.034-.006.085.03.173.045.263.045.19,0,.372-.068.516-.192.144-.12.328-.178.516-.165.223.017.444-.015.65-.095l-2.125-.398c-.019-.004-.032-.022-.028-.042.003-.015.014-.025.028-.028l1.731-.324c-.023-.013-.045-.028-.067-.043-.167-.107-.366-.162-.564-.156-.267.016-.531-.091-.71-.291-.089-.099-.153-.216-.19-.342-.006-.019.005-.038.024-.044.012-.004.025,0,.034.008.067.06.143.108.226.142.176.073.369.08.55.021.179-.055.371-.039.539.045.199.101.415.157.637.161l-1.811-1.181c-.016-.011-.021-.033-.01-.049.008-.012.023-.018.037-.015l1.723.363c-.016-.021-.031-.043-.046-.065-.113-.163-.276-.29-.461-.36-.253-.087-.456-.287-.545-.541-.044-.125-.059-.258-.045-.389.002-.019.02-.034.039-.031.013.001.023.009.028.02.039.081.091.154.154.218.135.135.311.215.501.229.187.018.358.107.481.248.145.169.324.304.527.393l-1.221-1.785c-.011-.017-.007-.039.009-.05.012-.008.028-.008.04,0l1.453.995c-.007-.026-.012-.052-.018-.078-.042-.194-.144-.374-.289-.509-.201-.178-.311-.44-.296-.708.007-.133.044-.261.107-.377.009-.017.031-.023.048-.014.011.006.017.018.018.029.005.09.025.178.059.261.073.176.205.318.374.403.166.088.29.236.349.414.069.212.183.405.336.565l-.446-2.117c-.004-.019.008-.038.027-.042.015-.003.029.003.037.015l.962,1.476c.004-.026.008-.052.014-.079.035-.195.01-.4-.072-.581-.117-.241-.119-.525-.003-.768.057-.12.141-.225.243-.307.015-.012.038-.01.05.006.008.01.01.023.006.034-.03.085-.045.174-.045.264,0,.19.067.372.192.516.12.145.178.329.165.516-.017.223.014.444.095.651l.398-2.126c.004-.019.022-.032.041-.028.015.002.026.014.028.028l.324,1.732Z" fill="#963" fill-rule="evenodd"/>
        <path d="M16.973,8.848c.069,0,.138.003.206.007-.041-.247-.005-.5.1-.725l-.306-1.633-.447,2.386c.146-.023.295-.035.447-.035h0ZM16.973,8.919c1.54,0,2.789,1.249,2.789,2.79s-1.249,2.79-2.789,2.79-2.789-1.249-2.789-2.79,1.248-2.79,2.789-2.79h0ZM17.641,8.926c.215.052.42.127.613.224.057-.244.187-.464.37-.631l.342-1.626-1.325,2.033h0ZM17.76,8.614l-.193.296c-.103-.022-.209-.038-.316-.049-.054-.299.012-.609.182-.86.117-.182.175-.394.167-.61-.015-.244.085-.488.268-.652.06-.054.127-.098.199-.131-.03.047-.056.093-.077.145-.079.191-.087.403-.022.599.05.162.035.334-.041.486-.122.241-.18.507-.167.776h0ZM19.412,10.214c.113.184.206.383.275.592.213-.133.46-.196.708-.184l1.391-.908-2.374.5h0ZM19.717,10.078c.181-.2.41-.347.667-.43.161-.054.293-.165.372-.315.093-.185.248-.329.439-.408.052-.021.103-.037.157-.048-.075-.028-.154-.044-.234-.048-.245-.013-.488.088-.65.272-.148.158-.338.267-.55.313-.298.057-.564.23-.737.48.067.082.131.168.189.258l.346-.073h0ZM18.654,9.394c.177.129.338.277.481.442.146-.204.35-.358.584-.442l.938-1.371-2.003,1.371h0ZM18.884,9.151c.091-.254.247-.478.452-.653.128-.111.207-.264.223-.433.016-.206.104-.399.25-.545.04-.04.081-.073.127-.105-.08.003-.159.018-.235.045-.231.082-.417.268-.496.499-.076.203-.211.376-.388.5-.253.167-.433.428-.497.725.094.05.186.106.273.166l.292-.2h0ZM16.304,14.492c-.214-.051-.42-.127-.613-.224-.057.244-.187.464-.37.631l-.342,1.626,1.325-2.033h0ZM16.185,14.804l.193-.296c.103.022.209.038.316.049.054.298-.012.609-.182.86-.117.182-.175.394-.167.61.015.244-.085.488-.267.652-.06.054-.128.098-.2.132.03-.047.056-.094.077-.145.079-.191.087-.403.022-.599-.05-.162-.035-.334.041-.486.122-.241.181-.507.168-.776h0ZM14.533,13.204c-.113-.185-.206-.383-.275-.592-.213.133-.46.196-.707.185l-1.392.908,2.375-.5h0ZM14.228,13.34c-.181.2-.41.347-.667.43-.161.054-.293.165-.372.315-.093.185-.248.329-.439.408-.052.021-.103.036-.158.048.075.027.154.044.234.048.245.013.487-.088.649-.271.148-.158.338-.267.55-.313.298-.057.564-.23.737-.48-.068-.082-.131-.168-.189-.258l-.346.073h0ZM15.291,14.024c-.177-.129-.338-.277-.48-.442-.146.204-.35.358-.584.442l-.938,1.371,2.002-1.371h0ZM15.061,14.267c-.091.254-.247.477-.451.653-.128.111-.207.264-.224.433-.016.206-.103.399-.25.545-.04.04-.081.073-.127.105.08-.003.159-.018.235-.045.231-.082.417-.268.497-.5.076-.203.21-.376.388-.5.254-.167.433-.428.497-.725-.094-.051-.186-.106-.273-.167l-.291.2h0ZM19.754,12.378c-.051.215-.127.42-.224.613.244.057.464.186.631.37l1.625.342-2.032-1.326h0ZM20.066,12.497l-.296-.193c.022-.104.038-.209.049-.317.298-.054.608.012.86.182.182.117.393.175.61.168.244-.015.487.085.651.267.054.06.098.128.132.2-.047-.03-.094-.056-.145-.077-.191-.079-.402-.087-.599-.022-.162.05-.334.035-.486-.041-.24-.122-.506-.181-.776-.168h0ZM18.467,14.149c-.184.113-.383.206-.592.276.133.213.196.46.184.708l.907,1.392-.5-2.376h0ZM18.603,14.455c.2.181.346.411.43.667.054.161.164.293.314.372.184.093.328.248.408.439.021.052.036.103.048.157.027-.075.044-.154.048-.234.013-.245-.088-.488-.271-.65-.158-.148-.267-.338-.313-.55-.057-.298-.23-.564-.479-.737-.082.067-.168.131-.258.189l.073.346h0ZM19.286,13.391c-.128.177-.277.338-.442.481.204.146.358.35.442.584l1.371.939-1.371-2.004h0ZM19.53,13.621c.254.091.477.247.653.452.111.128.264.208.433.224.206.015.399.104.545.25.039.04.073.081.105.127-.003-.08-.018-.159-.045-.235-.082-.231-.268-.416-.499-.496-.203-.076-.376-.211-.499-.388-.167-.254-.428-.434-.724-.497-.05.094-.106.186-.166.273l.2.292h0ZM19.798,11.262c.023.146.035.295.035.447,0,.069-.003.138-.007.206.247-.041.5-.005.725.1l1.632-.306-2.385-.447h0ZM20.132,11.252c.244-.115.512-.163.781-.142.169.012.333-.04.464-.148.157-.135.355-.209.562-.209.056,0,.109.006.164.016-.059-.054-.125-.099-.198-.134-.221-.106-.484-.105-.704.002-.197.09-.415.117-.628.079-.297-.061-.609-.004-.863.161.031.101.056.205.076.311l.347.065h0ZM17.419,14.536c-.146.023-.295.035-.447.035-.069,0-.138-.003-.205-.007.041.248.005.501-.1.725l.306,1.633.447-2.386h0ZM17.429,14.87c.115.244.163.512.142.781-.012.169.04.334.148.465.135.157.209.355.209.562,0,.056-.006.109-.016.164.054-.059.099-.126.134-.198.106-.221.105-.484-.002-.704-.09-.197-.117-.415-.079-.628.061-.297.004-.609-.16-.864-.101.031-.205.056-.311.076l-.065.347h0ZM14.191,11.04c.052-.215.127-.42.224-.613-.244-.056-.464-.186-.631-.37l-1.625-.342,2.032,1.326h0ZM13.879,10.921l.296.193c-.022.104-.038.209-.048.317-.299.055-.609-.012-.86-.182-.182-.117-.394-.175-.61-.168-.244.015-.487-.085-.651-.267-.054-.06-.098-.128-.132-.2.047.03.094.056.145.077.191.079.402.087.599.022.162-.05.334-.035.486.041.241.122.506.181.776.168h0ZM15.479,9.269c.184-.113.383-.206.592-.276-.133-.213-.196-.46-.184-.708l-.907-1.392.5,2.376h0ZM15.342,8.963c-.2-.181-.346-.41-.43-.667-.054-.161-.164-.293-.314-.372-.184-.093-.328-.248-.408-.439-.021-.052-.036-.103-.048-.157-.027.075-.044.154-.048.234-.013.245.088.488.271.65.158.148.267.338.313.55.057.298.23.565.479.737.082-.068.168-.131.258-.189l-.073-.346h0ZM14.659,10.026c.128-.177.277-.338.442-.481-.204-.146-.358-.35-.442-.584l-1.371-.939,1.371,2.004h0ZM14.416,9.797c-.254-.091-.477-.247-.653-.452-.111-.128-.264-.208-.433-.224-.206-.015-.399-.103-.545-.25-.04-.04-.073-.081-.105-.127.003.08.019.159.045.235.082.231.268.417.499.496.203.076.376.211.499.389.167.254.427.433.724.497.05-.094.106-.186.166-.273l-.199-.292h0ZM14.147,12.156c-.023-.146-.035-.295-.035-.447,0-.069.002-.138.007-.206-.247.041-.5.005-.725-.1l-1.633.306,2.385.447h0ZM13.813,12.166c-.244.115-.512.163-.781.142-.169-.012-.333.04-.464.148-.156.135-.355.209-.562.209-.056,0-.109-.006-.164-.015.059.054.126.099.198.134.221.106.484.105.704-.002.197-.09.414-.117.628-.079.297.061.609.004.864-.161-.031-.101-.056-.205-.076-.311l-.347-.065h0ZM16.516,8.548c-.115-.244-.163-.512-.142-.781.012-.169-.04-.334-.148-.464-.135-.157-.209-.355-.209-.562,0-.056.006-.109.015-.164-.054.059-.099.126-.134.198-.106.221-.105.484.002.704.09.197.117.415.079.628-.061.297-.004.609.161.864.101-.031.205-.056.311-.076l.065-.347Z" fill="#fed700" fill-rule="evenodd"/>
      </g>
      <g>
        <path d="M16.973,12.715c.733,0,1.433-.137,2.076-.389.668-.275,1.4-.427,2.167-.427s1.499.152,2.167.427c.644.252,1.344.389,2.076.389s1.433-.137,2.076-.389c.668-.275,1.4-.427,2.167-.427s1.499.152,2.167.427c.643.252,1.344.389,2.076.389v9.916H0v-9.916c.733,0,1.433-.137,2.076-.389.668-.275,1.4-.427,2.167-.427s1.499.152,2.167.427c.643.252,1.344.389,2.076.389s1.433-.137,2.076-.389c.668-.275,1.4-.427,2.167-.427s1.499.152,2.167.427c.643.252,1.344.389,2.076.389Z" fill="#fff" fill-rule="evenodd"/>
        <path d="M16.973,14.341c.733,0,1.433-.137,2.076-.389.668-.275,1.4-.427,2.167-.427s1.499.152,2.167.427c.644.252,1.344.389,2.076.389s1.433-.137,2.076-.389c.668-.275,1.4-.427,2.167-.427s1.499.152,2.167.427c.643.252,1.344.389,2.076.389v1.626c-.733,0-1.433-.137-2.076-.389-.668-.275-1.4-.427-2.167-.427s-1.499.152-2.167.427c-.643.252-1.344.389-2.076.389s-1.433-.137-2.076-.389c-.668-.275-1.399-.427-2.167-.427s-1.499.152-2.167.427c-.643.252-1.344.389-2.076.389s-1.433-.137-2.076-.389c-.668-.275-1.4-.427-2.167-.427s-1.499.152-2.167.427c-.643.252-1.344.389-2.076.389s-1.433-.137-2.076-.389c-.668-.275-1.4-.427-2.167-.427s-1.499.152-2.167.427c-.643.252-1.343.389-2.076.389v-1.626c.733,0,1.433-.137,2.076-.389.668-.275,1.4-.427,2.167-.427s1.499.152,2.167.427c.643.252,1.344.389,2.076.389s1.433-.137,2.076-.389c.668-.275,1.4-.427,2.167-.427s1.499.152,2.167.427c.643.252,1.344.389,2.076.389Z" fill="#039" fill-rule="evenodd"/>
        <path d="M16.973,17.594c.733,0,1.433-.137,2.076-.389.668-.275,1.4-.427,2.167-.427s1.499.152,2.167.427c.644.252,1.344.389,2.076.389s1.433-.137,2.076-.389c.668-.275,1.4-.427,2.167-.427s1.499.152,2.167.427c.643.252,1.344.389,2.076.389v1.627c-.733,0-1.433-.137-2.076-.389-.668-.275-1.4-.427-2.167-.427s-1.499.152-2.167.427c-.643.252-1.344.389-2.076.389s-1.433-.137-2.076-.389c-.668-.275-1.399-.427-2.167-.427s-1.499.152-2.167.427c-.643.252-1.344.389-2.076.389s-1.433-.137-2.076-.389c-.668-.275-1.4-.427-2.167-.427s-1.499.152-2.167.427c-.643.252-1.344.389-2.076.389s-1.433-.137-2.076-.389c-.668-.275-1.4-.427-2.167-.427s-1.499.152-2.167.427c-.643.252-1.343.389-2.076.389v-1.627c.733,0,1.433-.137,2.076-.389.668-.275,1.4-.427,2.167-.427s1.499.152,2.167.427c.643.252,1.344.389,2.076.389s1.433-.137,2.076-.389c.668-.275,1.4-.427,2.167-.427s1.499.152,2.167.427c.643.252,1.344.389,2.076.389Z" fill="#039" fill-rule="evenodd"/>
        <path d="M16.973,20.847c.733,0,1.433-.137,2.076-.389.668-.275,1.4-.427,2.167-.427s1.499.152,2.167.427c.644.252,1.344.389,2.076.389s1.433-.137,2.076-.389c.668-.275,1.4-.427,2.167-.427s1.499.152,2.167.427c.643.252,1.344.389,2.076.389v1.784H0v-1.784c.733,0,1.433-.137,2.076-.389.668-.275,1.4-.427,2.167-.427s1.499.152,2.167.427c.643.252,1.344.389,2.076.389s1.433-.137,2.076-.389c.668-.275,1.4-.427,2.167-.427s1.499.152,2.167.427c.643.252,1.344.389,2.076.389Z" fill="#039" fill-rule="evenodd"/>
      </g>
    </g>
  </g>
</svg>