<?xml version="1.0" encoding="UTF-8"?>
<svg id="Layer_2" data-name="Layer 2" xmlns="http://www.w3.org/2000/svg" viewBox="0 0 33.945 22.631">
  <g id="_Ñëîé_1" data-name="Ñëîé 1">
    <g>
      <rect width="33.945" height="22.631" fill="#039"/>
      <g>
        <polygon points="9.314 4.815 9.624 5.775 10.634 5.774 9.817 6.367 10.13 7.326 9.314 6.731 8.497 7.326 8.811 6.367 7.993 5.774 9.003 5.775 9.314 4.815" fill="#fff" fill-rule="evenodd"/>
        <polygon points="24.632 4.815 24.942 5.775 25.953 5.774 25.134 6.367 25.448 7.326 24.632 6.731 23.815 7.326 24.129 6.367 23.311 5.774 24.321 5.775 24.632 4.815" fill="#fff" fill-rule="evenodd"/>
        <polygon points="21.64 3.736 21.95 4.698 22.961 4.696 22.143 5.289 22.456 6.248 21.64 5.653 20.823 6.248 21.137 5.289 20.319 4.696 21.329 4.698 21.64 3.736" fill="#fff" fill-rule="evenodd"/>
        <polygon points="12.306 3.736 12.616 4.698 13.627 4.696 12.809 5.289 13.122 6.248 12.306 5.653 11.489 6.248 11.803 5.289 10.985 4.696 11.995 4.698 12.306 3.736" fill="#fff" fill-rule="evenodd"/>
        <polygon points="15.383 3.211 15.694 4.173 16.704 4.171 15.886 4.764 16.2 5.723 15.383 5.128 14.567 5.723 14.88 4.764 14.062 4.171 15.073 4.173 15.383 3.211" fill="#fff" fill-rule="evenodd"/>
        <polygon points="18.562 3.211 18.873 4.173 19.883 4.171 19.065 4.764 19.379 5.723 18.562 5.128 17.746 5.723 18.059 4.764 17.241 4.171 18.251 4.173 18.562 3.211" fill="#fff" fill-rule="evenodd"/>
        <path d="M20.587,16.036h-.276v.374l-.469.469.213.213v.192l-.195.113h-.429l-.258-.149v-.314l-.586-.586-.625.625h-.514l-.455.455h-.581l-.29.503v.337l.162.162v.471l-.555.555h-.781l-.181-.677.356-.356h0s-.639-2.385-.639-2.385l-1.251-.722h-.65v-.624l-.567-.982-.427-.247-.204-.761.232-.402h0s0,0,0,0l-.902-.242.171-.638.413-.238.702.188h.424l.243-.421,1.911-.512-.371-.371.102-.379.429-.115.099-.371h.571v-.528l.285-.076-.096-.359h-.32l-.115-.431.12-.45,1.395-.374.284.164.141.528-.428.115.89.514h.677v-.193h.456l.307,1.144.218-.219.235.235v.551c0,.109.089.198.198.198v.122h.56v.27h.584v.243l-.21.365v.481h1.351v.421l.337.194.678-.182.279.483-.313.542v.467l-.795.795.216.216-.248.43h-.706l.634,1.097h-.745l-.122-.212h-.402l.103.384h-.167l-.101-.1Z" fill="#c09300" fill-rule="evenodd"/>
      </g>
    </g>
  </g>
</svg>