<svg xmlns="http://www.w3.org/2000/svg" id="Layer_2" data-name="Layer 2" viewBox="0 0 33.945 22.63">
  <defs><clipPath id="circleClip"><circle cx="16.9725" cy="11.315" r="11.315" /></clipPath></defs><g clip-path="url(#circleClip)"><g id="_&#209;&#235;&#238;&#233;_1" data-name="&#209;&#235;&#238;&#233; 1">
    <g>
      <g>
        <rect width="33.945" height="22.63" fill="#fff" />
        <rect y="16.973" width="33.945" height="5.657" fill="red" />
        <rect width="33.945" height="5.657" fill="red" />
      </g>
      <path d="M15.867,7.681c.046-.022.078-.07.078-.124,0-.076-.062-.138-.138-.138-.008,0-.016,0-.023.002-.027.005-.053.011-.079.017-.005.001-.01.002-.016.002-.036,0-.065-.029-.065-.064,0-.016.006-.031.015-.042.123-.141.265-.264.421-.367.336-.213.607-.519.776-.882.074.574.537,1.026,1.116,1.083.293.02.562.131.778.304.124.104.261.194.408.267.031.017.051.05.051.088,0,.056-.045.1-.101.1-.029-.002-.059-.003-.089-.003-.033,0-.067.001-.099.003-.063,0-.115.051-.115.115,0,.034.015.065.038.085.216.206.472.37.755.479.024.008.042.032.042.059,0,.035-.028.063-.062.063-.311-.016-.607-.094-.873-.222-.024-.011-.05-.017-.078-.017-.106,0-.192.086-.192.192,0,.078.046.145.112.175.24.11.453.266.629.458.412.413.901.752,1.44.994.042.019.072.063.072.112,0,.068-.055.122-.122.122-.006,0-.012,0-.018-.001-.222-.033-.441-.077-.655-.132-.017-.005-.035-.007-.053-.007-.103,0-.187.084-.187.187,0,.096.072.175.166.186.404.066.793.176,1.163.324.044.017.075.06.075.11,0,.065-.053.119-.118.119-.134-.013-.269-.018-.406-.018-.23,0-.455.018-.674.053-.075.013-.131.079-.131.157,0,.088.071.159.16.159.348.004.657.175.849.437.196.259.455.469.752.608.049.024.082.075.082.133,0,.081-.064.146-.144.148-.256-.003-.489-.098-.668-.255-.059-.059-.142-.096-.232-.096-.182,0-.329.147-.329.329,0,.13.075.242.184.295.611.294,1.168.683,1.652,1.147.035.035.056.083.056.136,0,.106-.086.192-.192.192-.046,0-.089-.017-.123-.044-.292-.25-.607-.473-.94-.668-.182-.108-.395-.17-.622-.17-.15,0-.293.027-.425.076-.129.047-.268.072-.413.072-.283,0-.544-.097-.751-.259-.061-.051-.139-.082-.225-.082-.194,0-.351.157-.351.351v.725c0,.664.404,1.234.979,1.477.057.026.097.084.097.151,0,.092-.074.166-.166.166-.071,0-.131-.044-.155-.106-.077-.213-.285-.371-.522-.359-.06,0-.127-.011-.18-.041-.038-.021-.082-.033-.129-.033-.15,0-.271.122-.271.271,0,.021.002.041.006.06.001.005.002.011.002.016,0,.038-.031.069-.069.069-.024,0-.045-.013-.057-.031-.044-.073-.112-.131-.192-.162-.154-.061-.275-.185-.333-.341-.042-.124-.159-.212-.297-.212-.03,0-.071.005-.099.016-.041.012-.075.019-.118.019-.055,0-.108-.012-.156-.033-.106-.049-.224-.077-.349-.077-.246,0-.468.108-.619.279-.196.211-.486.303-.768.247-.052-.011-.114-.017-.167-.017-.271,0-.511.13-.662.332-.016.023-.043.038-.074.038-.05,0-.09-.04-.09-.09,0-.021.007-.04.019-.055.134-.172.318-.301.531-.366.678-.191,1.348-.89,1.348-1.619,0-.312-.253-.565-.565-.565-.123,0-.237.039-.33.106-.585.433-1.31.69-2.094.69-.095.002-.173-.073-.173-.168,0-.085.063-.156.146-.166.593-.079,1.139-.305,1.601-.641.066-.045.11-.121.11-.207,0-.138-.112-.25-.25-.25-.056,0-.107.018-.149.049-.524.377-1.155.612-1.839.653-.065,0-.117-.048-.117-.114,0-.058.043-.105.098-.113.16-.025.3-.109.397-.23.357-.434.825-.772,1.361-.971.12-.046.206-.163.206-.3,0-.177-.144-.321-.321-.321-.086,0-.164.034-.222.089-.143.131-.318.228-.512.279-.016.004-.032.006-.049.006-.109,0-.197-.088-.197-.197,0-.069.035-.129.089-.165.153-.106.29-.233.406-.378.134-.17.329-.29.552-.327.357-.07.643-.341.735-.69.009-.03.014-.061.014-.094,0-.179-.145-.324-.324-.324-.03,0-.059.004-.086.012-.124.032-.246.072-.363.12-.02.008-.043.013-.066.013-.1,0-.181-.081-.181-.181,0-.065.034-.122.085-.153.215-.147.444-.273.685-.38.201-.086.37-.23.487-.412.103-.171.289-.287.501-.293.102,0,.184-.083.184-.185,0-.089-.064-.164-.148-.181-.055-.012-.11-.019-.167-.018-.041,0-.074-.033-.074-.074,0-.026.013-.049.034-.062.269-.205.56-.382.868-.529h0ZM20.057,12.293c-.099-.1-.296-.065-.438.077s-.177.338-.077.438.296.065.438-.077c.142-.142.177-.338.077-.438h0ZM14.983,11.597c-.031-.116-.244-.159-.475-.097-.231.062-.394.206-.363.322.031.116.244.16.475.098.231-.062.393-.206.363-.322h0ZM16.899,10.846c-.073.02-.103.148-.065.286.037.138.127.235.2.215.073-.02.102-.148.065-.286-.037-.139-.126-.235-.2-.215h0ZM16.069,8.742c-.061-.061-.207-.013-.327.107-.12.12-.168.266-.107.327.061.061.207.013.327-.107s.168-.266.107-.326h0ZM16.93,8.366c-.043-.074-.196-.066-.343.019s-.231.213-.188.288c.043.074.196.066.343-.019.147-.085.231-.213.188-.288h0ZM17.948,8.236c-.07-.041-.171.003-.225.097-.054.094-.042.203.029.244.07.04.171-.003.225-.097.054-.094.042-.203-.028-.244h0ZM15.658,8.102c-.071,0-.129.072-.129.16s.058.16.129.16.129-.071.129-.16-.058-.16-.129-.16h0ZM17.324,8.205c-.088,0-.16.072-.16.16s.071.16.16.16.16-.071.16-.16-.071-.16-.16-.16h0ZM17.417,9.264c-.076-.02-.161.051-.19.159-.029.108.009.212.086.232.076.02.161-.05.19-.159.029-.108-.009-.212-.086-.233h0ZM16.784,9.318c-.088,0-.16.072-.16.16s.072.16.16.16.161-.072.161-.16-.072-.16-.161-.16h0ZM16.546,12.582c-.076.044-.084.173-.018.287.066.115.181.172.257.128.076-.044.084-.172.018-.287-.066-.114-.181-.172-.257-.128h0ZM15.638,9.671c-.05-.086-.181-.103-.294-.038-.112.065-.163.187-.114.274.05.086.181.103.294.038.113-.065.164-.188.114-.274h0ZM14.574,9.768c-.093.093-.07.267.052.389.122.121.295.145.388.052.093-.093.07-.267-.052-.388-.121-.121-.295-.145-.388-.052h0ZM18.077,9.381c-.175,0-.318.116-.318.259s.142.259.318.259.318-.116.318-.259-.142-.259-.318-.259h0ZM18.868,10.26c-.122,0-.221.099-.221.221s.099.221.221.221.221-.099.221-.221-.099-.221-.221-.221h0ZM15.297,12.541c-.092.024-.132.171-.09.327.042.156.15.262.241.238.092-.024.132-.171.09-.327-.042-.156-.15-.262-.241-.237h0ZM15.911,12.692c-.057.033-.057.137-.002.233.055.096.146.147.202.115.056-.033.057-.137.002-.233-.056-.096-.146-.147-.202-.115h0ZM15.717,10.828c-.056.033-.067.118-.025.192.042.074.123.107.179.075.056-.033.067-.119.025-.192-.042-.074-.122-.107-.179-.075h0ZM16.497,10.667c-.055-.015-.117.036-.138.113-.021.077.007.152.063.167.055.015.117-.036.138-.113.021-.077-.007-.152-.063-.167h0ZM17.379,11.025c-.057,0-.104.065-.104.145s.046.145.104.145.104-.065.104-.145-.046-.145-.104-.145h0ZM19.188,12.204c-.036-.136-.224-.204-.418-.152-.194.052-.322.205-.286.341.037.136.224.204.418.152.194-.052.322-.205.286-.341Z" fill="#007c29" fill-rule="evenodd" />
    </g>
  </g>
</g></svg>