<?xml version="1.0" encoding="UTF-8"?>
<svg id="Layer_2" data-name="Layer 2" xmlns="http://www.w3.org/2000/svg" viewBox="0 0 33.945 22.63">
  <g id="_Ñëîé_1" data-name="Ñëîé 1">
    <g>
      <g>
        <rect width="33.945" height="22.63" fill="#fff"/>
        <rect y="15.925" width="33.945" height="6.705" fill="#007c29"/>
        <rect width="33.945" height="6.705" fill="#039"/>
      </g>
      <path d="M17.26,7.68v1.17l.563.563h-.44v.84l.311.411c.29-.564.399-1.272.399-1.901,0-.519-.353-.956-.832-1.082h0ZM14.235,13.33l1.792-2.369c-.315-.529-.515-1.318-.515-2.199,0-.716.516-1.312,1.196-1.437.044-.103.146-.174.264-.174s.221.072.264.174c.68.124,1.196.721,1.196,1.437,0,.881-.2,1.669-.515,2.199l1.792,2.368c.094-.042.187-.086.279-.132l.675,1.416c-1.112.554-2.365.867-3.692.867s-2.58-.312-3.692-.867l.675-1.415c.092.046.185.091.279.132h0ZM16.252,10.664l.311-.41v-.84h-.44l.563-.563v-1.17c-.479.127-.832.563-.832,1.082,0,.626.109,1.341.399,1.901h0ZM14.462,14.574l-.111-.298-.39.108c.164.069.331.132.501.19h0ZM13.948,14.218l.346-.096-.132-.354-.215.45h0ZM14.509,13.755l.213.573.415-.141-.118-.262c-.173-.05-.343-.107-.51-.169h0ZM15.425,14.029l.23.512.455-.194-.114-.214c-.193-.027-.384-.062-.571-.104h0ZM16.388,14.176l.251.473.566-.305-.09-.145c-.047,0-.095.001-.143.001-.197,0-.391-.008-.584-.024h0ZM17.488,14.182l.27.436.454-.319-.133-.186c-.195.031-.392.054-.592.068h0ZM18.435,14.048l.279.39.379-.331-.152-.186c-.166.048-.335.091-.505.128h0ZM19.279,13.812l.296.361.254-.31-.106-.222c-.145.062-.293.119-.444.171h0ZM19.907,14.026l-.226.276.126.154c.086-.033.171-.069.255-.105l-.155-.325h0ZM19.478,14.576l-.281-.343-.387.338.12.168c.185-.048.368-.103.548-.164h0ZM18.586,14.82l-.278-.388-.463.326.105.169c.215-.027.427-.063.636-.106h0ZM17.589,14.963l-.298-.48-.575.31.102.193c.052.001.103.002.154.002.207,0,.413-.008.616-.024h0ZM16.441,14.97l-.254-.478-.465.198.095.212c.205.031.413.053.624.067h0ZM15.428,14.834l-.223-.497-.425.145.08.216c.187.053.376.098.568.137Z" fill-rule="evenodd"/>
    </g>
  </g>
</svg>