<?xml version="1.0" encoding="UTF-8"?>
<svg id="Layer_2" data-name="Layer 2" xmlns="http://www.w3.org/2000/svg" xmlns:xlink="http://www.w3.org/1999/xlink" viewBox="0 0 118.969 79.17">
  <defs>
    <clipPath id="clippath">
      <path d="M0,39.584c0,21.862,17.723,39.586,39.585,39.586s39.585-17.724,39.585-39.586S61.447,0,39.585,0,0,17.723,0,39.584Z" fill="none"/>
    </clipPath>
  </defs>
  <g id="Layer_1-2" data-name="Layer 1">
    <g clip-path="url(#clippath)">
      <g>
        <rect y=".019" width="118.969" height="7.179" fill="#bf2033"/>
        <rect y="7.197" width="118.969" height="7.179" fill="#fff"/>
        <rect y="14.459" width="118.969" height="7.177" fill="#bf2033"/>
        <rect y="21.636" width="118.969" height="7.182" fill="#fff"/>
        <rect y="28.818" width="118.969" height="7.178" fill="#bf2033"/>
        <rect y="35.996" width="118.969" height="7.177" fill="#fff"/>
        <rect y="43.173" width="118.969" height="7.181" fill="#bf2033"/>
        <rect y="50.354" width="118.969" height="7.179" fill="#fff"/>
        <rect y="57.533" width="118.969" height="7.18" fill="#bf2033"/>
        <rect y="64.713" width="118.969" height="7.179" fill="#fff"/>
        <rect y="71.892" width="118.969" height="7.179" fill="#bf2033"/>
        <rect y=".019" width="35.768" height="35.977" fill="#212f64"/>
        <polygon points="24.295 26.776 17.564 22.799 11.241 26.728 13.272 19.667 7.413 14.406 15.328 14.343 17.583 7.346 20.185 14.343 28.031 14.406 22.428 19.104 24.295 26.776" fill="#fff"/>
      </g>
    </g>
  </g>
</svg>