<?xml version="1.0" encoding="UTF-8"?>
<svg id="Layer_2" data-name="Layer 2" xmlns="http://www.w3.org/2000/svg" viewBox="0 0 118.952 79.158">
  <g id="Layer_1-2" data-name="Layer 1">
    <g>
      <rect width="118.952" height="79.158"/>
      <rect width="118.952" height="26.293" fill="#ee2825"/>
      <rect y="52.862" width="118.952" height="26.296" fill="#009c4a"/>
      <path d="M57.348,48.075c-4.69,0-8.493-3.806-8.493-8.495s3.803-8.496,8.493-8.496c2.184,0,4.168.832,5.673,2.184-1.849-2.297-4.679-3.77-7.856-3.77-5.567,0-10.081,4.511-10.081,10.083s4.514,10.08,10.081,10.08c3.178,0,6.008-1.471,7.856-3.771-1.506,1.353-3.489,2.186-5.673,2.186Z" fill="#fff"/>
      <polygon points="74.761 44.242 69.44 42.607 66.023 46.874 65.888 41.331 60.824 39.431 66.058 37.715 66.331 32.283 69.511 36.627 74.798 35.27 71.492 39.616 74.761 44.242" fill="#fff"/>
    </g>
  </g>
</svg>