<?xml version="1.0" encoding="UTF-8"?>
<svg id="Layer_2" data-name="Layer 2" xmlns="http://www.w3.org/2000/svg" xmlns:xlink="http://www.w3.org/1999/xlink" viewBox="0 0 118.952 79.17">
  <defs>
    <clipPath id="clippath">
      <path d="M19.891,39.584c0,21.862,17.723,39.586,39.585,39.586s39.585-17.724,39.585-39.586S81.338,0,59.476,0,19.891,17.723,19.891,39.584Z" fill="none"/>
    </clipPath>
  </defs>
  <g id="Layer_1-2" data-name="Layer 1">
    <g clip-path="url(#clippath)">
      <g>
        <rect y=".006" width="118.952" height="79.158"/>
        <rect y=".006" width="118.952" height="26.293" fill="#ee2825"/>
        <rect y="52.868" width="118.952" height="26.296" fill="#009c4a"/>
        <path d="M57.348,48.081c-4.69,0-8.493-3.806-8.493-8.495s3.803-8.496,8.493-8.496c2.184,0,4.168.832,5.673,2.184-1.849-2.297-4.679-3.771-7.856-3.771-5.567,0-10.081,4.511-10.081,10.083s4.514,10.08,10.081,10.08c3.178,0,6.008-1.471,7.856-3.771-1.506,1.352-3.489,2.185-5.673,2.185Z" fill="#fff"/>
        <polygon points="74.761 44.248 69.44 42.613 66.023 46.88 65.888 41.337 60.824 39.436 66.058 37.721 66.331 32.289 69.511 36.633 74.798 35.275 71.492 39.622 74.761 44.248" fill="#fff"/>
      </g>
    </g>
  </g>
</svg>