<?xml version="1.0" encoding="UTF-8"?>
<svg id="Layer_2" data-name="Layer 2" xmlns="http://www.w3.org/2000/svg" viewBox="0 0 118.972 79.168">
  <g id="Layer_1-2" data-name="Layer 1">
    <g>
      <rect x=".07" width="118.901" height="79.168" fill="#db2326"/>
      <polygon points="0 79.168 49.617 46.138 51.043 48.781 17.862 79.168 0 79.168" fill="#ffe600"/>
      <polygon points="57.989 51.562 60.982 51.562 65.518 79.168 53.594 79.168 57.989 51.562" fill="#ffe600"/>
      <polygon points="118.972 79.168 101.099 79.168 68.421 48.807 69.52 46.532 118.972 79.168" fill="#ffe600"/>
      <polygon points="118.972 31.929 118.972 47.178 71.629 40.828 71.629 38.401 118.972 31.929" fill="#ffe600"/>
      <polygon points="118.972 0 68.886 32.924 67.916 30.56 101.014 0 118.972 0" fill="#ffe600"/>
      <polygon points="57.989 27.983 61.029 27.983 65.238 0 53.546 0 57.989 27.983" fill="#ffe600"/>
      <polygon points="0 0 49.992 33.049 51.055 30.622 18.004 0 0 0" fill="#ffe600"/>
      <polygon points="0 47.363 0 31.99 47.484 38.34 47.484 40.828 0 47.363" fill="#ffe600"/>
      <path d="M50.169,39.733c0,5.184,4.203,9.385,9.386,9.385s9.387-4.201,9.387-9.385-4.203-9.387-9.387-9.387-9.386,4.202-9.386,9.387Z" fill="#ffe600"/>
    </g>
  </g>
</svg>