<?xml version="1.0" encoding="UTF-8"?>
<svg id="Layer_2" data-name="Layer 2" xmlns="http://www.w3.org/2000/svg" viewBox="0 0 33.945 22.631">
  <g id="_Ñëîé_1" data-name="Ñëîé 1">
    <g>
      <g>
        <rect width="33.945" height="7.543"/>
        <rect y="15.086" width="33.945" height="7.544" fill="#007c29"/>
        <rect y="7.543" width="33.945" height="7.543" fill="red"/>
      </g>
      <g>
        <path d="M16.973,3.551c2.129,0,3.939,1.363,4.606,3.263h-9.213c.668-1.9,2.478-3.263,4.606-3.263Z" fill="red" fill-rule="evenodd"/>
        <path d="M16.973,2.948c-.171-.662-.425-2.219,0-2.219s.171,1.557,0,2.219Z" fill="red" fill-rule="evenodd"/>
        <path d="M16.491,2.969c-.228-.644-.619-2.173-.195-2.21.424-.037.307,1.536.195,2.21Z" fill="red" fill-rule="evenodd"/>
        <path d="M16.013,3.032c-.284-.622-.807-2.11-.388-2.184.419-.074.44,1.503.388,2.184Z" fill="red" fill-rule="evenodd"/>
        <path d="M15.543,3.137c-.337-.595-.989-2.031-.578-2.142.411-.111.571,1.459.578,2.142Z" fill="red" fill-rule="evenodd"/>
        <path d="M15.084,3.283c-.388-.562-1.164-1.936-.764-2.083.4-.147.696,1.403.764,2.083Z" fill="red" fill-rule="evenodd"/>
        <path d="M14.639,3.469c-.436-.526-1.329-1.827-.944-2.008.385-.181.817,1.337.944,2.008Z" fill="red" fill-rule="evenodd"/>
        <path d="M14.213,3.693c-.481-.486-1.484-1.703-1.116-1.917.368-.214.931,1.259,1.116,1.917Z" fill="red" fill-rule="evenodd"/>
        <path d="M13.807,3.953c-.522-.442-1.628-1.566-1.281-1.812.347-.245,1.038,1.173,1.281,1.812Z" fill="red" fill-rule="evenodd"/>
        <path d="M13.426,4.248c-.558-.394-1.759-1.417-1.435-1.692.325-.275,1.137,1.077,1.435,1.692Z" fill="red" fill-rule="evenodd"/>
        <path d="M13.073,4.576c-.591-.344-1.877-1.257-1.578-1.56.299-.303,1.227.973,1.578,1.56Z" fill="red" fill-rule="evenodd"/>
        <path d="M12.749,4.933c-.618-.291-1.98-1.088-1.709-1.415.272-.328,1.308.862,1.709,1.415Z" fill="red" fill-rule="evenodd"/>
        <path d="M12.459,5.318c-.642-.235-2.068-.91-1.826-1.26.242-.35,1.378.744,1.826,1.26Z" fill="red" fill-rule="evenodd"/>
        <path d="M12.203,5.726c-.66-.178-2.14-.725-1.93-1.095.21-.37,1.438.62,1.93,1.095Z" fill="red" fill-rule="evenodd"/>
        <path d="M11.983,6.155c-.673-.12-2.195-.534-2.018-.921.177-.387,1.487.491,2.018.921Z" fill="red" fill-rule="evenodd"/>
        <path d="M11.803,6.602c-.681-.06-2.233-.339-2.091-.74s1.524.359,2.091.74Z" fill="red" fill-rule="evenodd"/>
        <path d="M9.513,6.509c.083-.321.978-.006,1.652.305h-.999c-.18,0-.732-.001-.653-.305Z" fill="red" fill-rule="evenodd"/>
        <path d="M17.454,2.969c.228-.644.619-2.173.195-2.21-.424-.037-.307,1.536-.195,2.21Z" fill="red" fill-rule="evenodd"/>
        <path d="M17.932,3.032c.284-.622.807-2.11.388-2.184-.419-.074-.44,1.503-.388,2.184Z" fill="red" fill-rule="evenodd"/>
        <path d="M18.402,3.137c.337-.595.989-2.031.578-2.142-.411-.111-.571,1.459-.578,2.142Z" fill="red" fill-rule="evenodd"/>
        <path d="M18.861,3.283c.388-.562,1.164-1.936.764-2.083-.4-.147-.696,1.403-.764,2.083Z" fill="red" fill-rule="evenodd"/>
        <path d="M19.306,3.469c.436-.526,1.329-1.827.944-2.008-.385-.181-.817,1.337-.944,2.008Z" fill="red" fill-rule="evenodd"/>
        <path d="M19.733,3.693c.481-.486,1.484-1.703,1.117-1.917-.368-.214-.931,1.259-1.117,1.917Z" fill="red" fill-rule="evenodd"/>
        <path d="M20.138,3.953c.521-.442,1.628-1.566,1.28-1.812-.348-.245-1.038,1.173-1.28,1.812Z" fill="red" fill-rule="evenodd"/>
        <path d="M20.519,4.248c.558-.394,1.759-1.417,1.435-1.692-.325-.275-1.137,1.077-1.435,1.692Z" fill="red" fill-rule="evenodd"/>
        <path d="M20.873,4.576c.59-.344,1.877-1.257,1.577-1.56-.299-.303-1.227.973-1.577,1.56Z" fill="red" fill-rule="evenodd"/>
        <path d="M21.196,4.933c.618-.291,1.98-1.088,1.708-1.415-.272-.328-1.308.862-1.708,1.415Z" fill="red" fill-rule="evenodd"/>
        <path d="M21.487,5.318c.641-.235,2.068-.91,1.826-1.26-.241-.35-1.378.744-1.826,1.26Z" fill="red" fill-rule="evenodd"/>
        <path d="M21.743,5.726c.66-.178,2.14-.725,1.929-1.095-.21-.37-1.438.62-1.929,1.095Z" fill="red" fill-rule="evenodd"/>
        <path d="M21.962,6.155c.673-.12,2.195-.534,2.018-.921-.177-.387-1.487.491-2.018.921Z" fill="red" fill-rule="evenodd"/>
        <path d="M22.143,6.602c.681-.06,2.233-.339,2.091-.74-.142-.401-1.524.359-2.091.74Z" fill="red" fill-rule="evenodd"/>
        <path d="M24.432,6.509c-.083-.321-.978-.006-1.652.305h.999c.18,0,.732-.001.653-.305Z" fill="red" fill-rule="evenodd"/>
      </g>
    </g>
  </g>
</svg>