<?xml version="1.0" encoding="UTF-8"?>
<svg id="Layer_2" data-name="Layer 2" xmlns="http://www.w3.org/2000/svg" viewBox="0 0 118.901 79.168">
  <g id="Layer_1-2" data-name="Layer 1">
    <g>
      <rect width="118.901" height="79.168" fill="#fff"/>
      <rect width="59.452" height="45.143" fill="#20225f"/>
      <rect x="59.452" width="59.45" height="5.824" fill="#d52227"/>
      <rect x="59.452" y="11.16" width="59.45" height="5.822" fill="#d52227"/>
      <rect x="59.452" y="22.571" width="59.45" height="5.824" fill="#d52227"/>
      <rect x="59.452" y="33.76" width="59.45" height="5.823" fill="#d52227"/>
      <rect y="45.148" width="118.901" height="5.824" fill="#d52227"/>
      <rect y="56.538" width="118.901" height="5.823" fill="#d52227"/>
      <rect y="67.656" width="118.901" height="5.823" fill="#d52227"/>
      <path d="M28.694,34.875c-6.519,0-11.804-5.285-11.804-11.805s5.284-11.803,11.804-11.803c1.591,0,3.108.316,4.493.887-2.251-1.661-5.033-2.645-8.045-2.645-7.49,0-13.562,6.071-13.562,13.56s6.072,13.562,13.562,13.562c3.012,0,5.794-.984,8.045-2.645-1.385.57-2.902.888-4.493.888Z" fill="#ffcc09"/>
      <polygon points="39.149 18.655 40.337 12.188 41.188 18.67 45.077 13.195 43.255 19.353 48.91 16.158 44.267 21.078 51.078 20.492 44.966 23.074 51.151 25.336 44.595 25.171 48.729 29.961 43.268 26.91 44.951 32.727 41.201 27.565 40.161 34.08 39.12 27.92 35.385 32.697 37.096 26.895 31.606 29.975 35.713 25.184 29.568 25.326 35.371 23.07 29.881 20.721 36.055 21.064 31.887 16.415 37.067 19.011 35.629 13.337 39.149 18.655" fill="#ffcc09"/>
    </g>
  </g>
</svg>