<?xml version="1.0" encoding="UTF-8"?>
<svg id="Layer_2" data-name="Layer 2" xmlns="http://www.w3.org/2000/svg" xmlns:xlink="http://www.w3.org/1999/xlink" viewBox="0 0 118.901 79.17">
  <defs>
    <clipPath id="clippath">
      <path d="M0,39.584c0,21.862,17.723,39.586,39.585,39.586s39.585-17.724,39.585-39.586S61.447,0,39.585,0,0,17.723,0,39.584Z" fill="none"/>
    </clipPath>
  </defs>
  <g id="Layer_1-2" data-name="Layer 1">
    <g clip-path="url(#clippath)">
      <g>
        <rect y=".002" width="118.901" height="79.168" fill="#fff"/>
        <rect y=".002" width="59.452" height="45.143" fill="#20225f"/>
        <rect x="59.452" y=".002" width="59.45" height="5.824" fill="#d52227"/>
        <rect x="59.452" y="11.162" width="59.45" height="5.822" fill="#d52227"/>
        <rect x="59.452" y="22.573" width="59.45" height="5.824" fill="#d52227"/>
        <rect x="59.452" y="33.762" width="59.45" height="5.823" fill="#d52227"/>
        <rect y="45.15" width="118.901" height="5.824" fill="#d52227"/>
        <rect y="56.54" width="118.901" height="5.823" fill="#d52227"/>
        <rect y="67.658" width="118.901" height="5.823" fill="#d52227"/>
        <path d="M28.694,34.877c-6.52,0-11.804-5.285-11.804-11.805s5.284-11.803,11.804-11.803c1.591,0,3.107.316,4.493.887-2.251-1.661-5.033-2.644-8.045-2.644-7.49,0-13.562,6.071-13.562,13.56s6.072,13.562,13.562,13.562c3.012,0,5.794-.984,8.045-2.646-1.385.57-2.902.888-4.493.888Z" fill="#ffcc09"/>
        <polygon points="39.149 18.657 40.337 12.189 41.188 18.672 45.077 13.197 43.255 19.355 48.91 16.16 44.267 21.08 51.078 20.494 44.966 23.076 51.151 25.338 44.595 25.173 48.729 29.963 43.269 26.912 44.951 32.728 41.201 27.567 40.161 34.082 39.12 27.922 35.385 32.699 37.096 26.896 31.606 29.977 35.713 25.185 29.568 25.328 35.371 23.072 29.881 20.723 36.055 21.065 31.887 16.417 37.067 19.013 35.629 13.339 39.149 18.657" fill="#ffcc09"/>
      </g>
    </g>
  </g>
</svg>