<?xml version="1.0" encoding="UTF-8"?>
<svg id="Layer_2" data-name="Layer 2" xmlns="http://www.w3.org/2000/svg" xmlns:xlink="http://www.w3.org/1999/xlink" viewBox="0 0 118.972 79.17">
  <defs>
    <clipPath id="clippath">
      <path d="M19.901,39.584c0,21.862,17.723,39.586,39.585,39.586s39.585-17.724,39.585-39.586S81.348,0,59.486,0,19.901,17.723,19.901,39.584Z" fill="none"/>
    </clipPath>
  </defs>
  <g id="Layer_1-2" data-name="Layer 1">
    <g clip-path="url(#clippath)">
      <g>
        <rect y=".001" width="118.972" height="79.168" fill="#ed1f24"/>
        <rect x="19.545" y="19.386" width="79.547" height="39.646" fill="#0d8441"/>
        <path d="M54.721,40.07c0-6.634,5.382-12.096,12.318-12.844-1.882-.969-4-1.528-6.245-1.528-7.71,0-13.962,6.412-13.962,14.318s6.251,14.316,13.962,14.316c2.177,0,4.233-.527,6.071-1.439-6.849-.823-12.144-6.244-12.144-12.823Z" fill="#fff"/>
      </g>
    </g>
  </g>
</svg>