<?xml version="1.0" encoding="UTF-8"?>
<svg id="Layer_2" data-name="Layer 2" xmlns="http://www.w3.org/2000/svg" viewBox="0 0 33.945 22.631">
  <g id="_Ñëîé_1" data-name="Ñëîé 1">
    <g>
      <g>
        <rect width="33.945" height="22.631" fill="#fff"/>
        <polygon points="33.945 4.428 33.945 8.857 0 22.631 0 22.279 33.945 4.428" fill="#fff" fill-rule="evenodd"/>
        <polygon points="33.945 8.857 33.945 22.631 0 22.631 33.945 8.857" fill="#039" fill-rule="evenodd"/>
        <path d="M0,0h33.945L0,21.927V0h0Z" fill="#039" fill-rule="evenodd"/>
        <polygon points="33.945 0 33.945 4.428 0 22.279 0 21.927 33.945 0" fill="#e57200" fill-rule="evenodd"/>
      </g>
      <polygon points="15.49 8.223 10.783 7.961 13.347 6.925 10.757 7.289 12.846 5.715 10.439 6.737 12.049 4.677 9.988 6.287 11.01 3.88 9.437 5.968 9.801 3.379 8.765 5.943 8.503 1.236 8.241 5.943 7.205 3.379 7.569 5.968 5.996 3.88 7.017 6.287 4.957 4.677 6.567 6.737 4.16 5.715 6.249 7.289 3.659 6.925 6.223 7.961 1.516 8.223 6.223 8.485 3.659 9.521 6.249 9.156 4.16 10.73 6.567 9.708 4.957 11.768 7.017 10.159 5.996 12.565 7.569 10.477 7.205 13.066 8.241 10.502 8.503 15.21 8.765 10.502 9.801 13.066 9.437 10.477 11.01 12.565 9.988 10.159 12.049 11.768 10.439 9.708 12.846 10.73 10.757 9.156 13.347 9.521 10.783 8.485 15.49 8.223" fill="#fff" fill-rule="evenodd"/>
    </g>
  </g>
</svg>