<?xml version="1.0" encoding="UTF-8"?>
<svg id="Layer_2" data-name="Layer 2" xmlns="http://www.w3.org/2000/svg" viewBox="0 0 118.972 79.168">
  <g id="Layer_1-2" data-name="Layer 1">
    <g>
      <rect width="118.972" height="79.168" fill="#026233"/>
      <path d="M83.4,22.622c.027.467.046.936.046,1.411,0,13.233-10.728,23.959-23.961,23.959s-23.959-10.726-23.959-23.959c0-.475.018-.944.045-1.411-.763,2.398-1.176,4.952-1.176,7.603,0,13.856,11.232,25.091,25.09,25.091s25.092-11.234,25.092-25.091c0-2.651-.413-5.205-1.177-7.603Z" fill="#fec40d"/>
      <polygon points="65.198 31.768 59.54 27.976 54.034 31.768 55.83 25.227 50.568 21.216 57.306 21.051 59.54 14.785 61.735 20.995 68.407 21.27 63.001 25.195 65.198 31.768" fill="#fec40d"/>
    </g>
  </g>
</svg>