<?xml version="1.0" encoding="UTF-8"?>
<svg id="Layer_2" data-name="Layer 2" xmlns="http://www.w3.org/2000/svg" xmlns:xlink="http://www.w3.org/1999/xlink" viewBox="0 0 79.17 79.17">
  <defs>
    <clipPath id="clippath">
      <path d="M0,39.584c0,21.862,17.723,39.586,39.585,39.586s39.585-17.724,39.585-39.586S61.447,0,39.585,0,0,17.723,0,39.584Z" fill="none"/>
    </clipPath>
  </defs>
  <g id="Layer_1-2" data-name="Layer 1">
    <g clip-path="url(#clippath)">
      <g>
        <rect x="-19.9" y=".001" width="118.972" height="79.168" fill="#026233"/>
        <path d="M63.5,22.623c.027.467.046.936.046,1.411,0,13.233-10.728,23.959-23.961,23.959s-23.959-10.726-23.959-23.959c0-.475.018-.944.045-1.411-.763,2.398-1.176,4.952-1.176,7.603,0,13.856,11.232,25.091,25.09,25.091s25.092-11.234,25.092-25.091c0-2.651-.413-5.205-1.177-7.603Z" fill="#fec40d"/>
        <polygon points="45.298 31.769 39.64 27.977 34.134 31.769 35.93 25.229 30.668 21.217 37.405 21.052 39.64 14.786 41.835 20.996 48.507 21.271 43.101 25.196 45.298 31.769" fill="#fec40d"/>
      </g>
    </g>
  </g>
</svg>