<?xml version="1.0" encoding="UTF-8"?>
<svg id="Layer_2" data-name="Layer 2" xmlns="http://www.w3.org/2000/svg" viewBox="0 0 33.946 22.63">
  <g id="_Ñëîé_1" data-name="Ñëîé 1">
    <g>
      <g>
        <rect width="33.946" height="22.63" fill="#fff"/>
        <rect x="22.63" width="11.315" height="22.63" fill="red"/>
        <rect width="11.315" height="22.63" fill="#007c29"/>
      </g>
      <g>
        <path d="M12.693,11.019c.011.022.004.052-.019.082-.021.028-.056.057-.098.082l-.138.08c-.022.013-.028.037-.016.059.013.022.037.029.059.016.029-.015.059-.023.085-.022.027,0,.05.01.061.03.016.029.005.058-.013.082-.017.022-.043.042-.061.053-.043.024-.085.051-.128.074-.011.006-.013.018-.007.029.004.008.013.013.022.011.013-.003.027-.002.037.008.019.019.006.052-.008.069-.022.029-.041.063-.052.099-.012.034-.018.072-.018.111,0,.043.008.085.024.126h0c.005.015.01.03.015.046l.191-.08-.01-.011c-.03-.031-.029-.081.003-.111.031-.029.079-.029.11,0l.035-.033c.027-.025.07-.024.095.002.026.026.025.069-.002.093l-.036.033c.028.032.025.079-.006.108-.032.03-.083.029-.113-.003l-.015-.015-.228.177c0,.006,0,.011,0,.017,0,.033-.003.066-.008.099.008-.005.018-.008.029-.008.02,0,.038.012.05.03.012.017.019.041.019.068,0,.006,0,.011-.001.017-.001.014.007.026.019.033.019.011.039.006.05-.013l.016-.028c.016-.028.034-.055.07-.055.025,0,.047.016.063.041.031.052.027.108.012.163-.004.02-.011.04-.016.06-.006.021.005.039.026.044.021.006.039-.005.045-.026l.024-.089c.013-.053.05-.129.114-.129.036,0,.067.025.09.067.021.039.034.093.034.153,0,.066-.012.115-.045.172l-.042.073c-.01.018-.004.038.014.049.019.011.039.006.05-.013.015-.026.048-.071.084-.062.035.009.04.06.04.089,0,.043-.004.085-.012.127-.028.158,0,.321.082.459l.122-.161-.013-.004c-.042-.012-.067-.056-.055-.098.012-.041.053-.065.094-.056l.013-.046c.01-.036.047-.056.082-.046.035.01.056.047.046.083l-.013.047c.039.014.062.056.05.097-.012.042-.056.067-.098.055l-.022-.006-.109.266c.041.041.086.077.138.108v-.147c0-.047.012-.08.068-.062.021.007.045.021.065.041.03.03.046.058.046.101v.033c0,.029.021.043.043.043.012,0,.024-.004.032-.012.007-.007.012-.017.012-.031v-.109c0-.043.023-.063.061-.035.014.011.028.027.04.048.022.038.022.058.022.096v.277c0,.029.021.043.043.043.025,0,.043-.017.043-.043v-.125c0-.026,0-.057.026-.073.02-.012.048-.007.076.012.025.017.051.046.071.082.033.058.037.091.037.156v.253c0,.026.018.043.043.043.024,0,.042-.015.043-.039.001-.03.008-.057.017-.077.01-.022.025-.036.043-.036.021,0,.035.016.044.038.012.03.016.072.016.09,0,.079.001.15.022.212.02.061.058.117.131.171.011.005.022.011.032.016l.084-.191h-.009c-.044,0-.079-.036-.079-.08,0-.043.033-.077.075-.079v-.048c0-.037.03-.067.067-.067.037,0,.067.03.067.067v.048c.042.002.075.037.075.079,0,.044-.036.08-.08.08h-.026l-.044.287c.031.031.059.065.082.102.006-.016.017-.03.033-.041.051-.035.137-.033.182.012l.094.094c.019.019.045.019.065,0,.016-.016.022-.043,0-.064l-.044-.044c-.02-.02-.024-.04-.017-.057.013-.033.061-.048.093-.053.059-.009.131.006.163.06l.115.2c.014.023.039.03.063.016.023-.014.031-.039.017-.062l-.066-.115c-.015-.026-.015-.046-.004-.061.017-.025.058-.028.086-.027.07.005.163.043.201.109l.095.164c.011.018.03.024.049.013.018-.011.024-.03.013-.049-.031-.054.027-.069.064-.038.028.023.055.048.08.074.045.046.104.073.168.073.043,0,.084-.005.125-.016.065-.018.132-.035.2-.047.062-.012.125-.021.188-.028v-.075c0-.006.005-.012.011-.012h.455c.006,0,.011.005.011.012v.075c.064.007.127.016.189.028.067.013.134.029.199.047.041.011.083.016.125.016.081,0,.158-.019.225-.054.071-.035.132-.087.178-.15.06-.082.138-.15.228-.196.088-.045.186-.07.291-.07.114,0,.226.03.324.088.005.003.007.01.004.015-.018.034-.042.066-.069.093.016-.001.032-.002.048-.002.1,0,.198.026.285.076.021-.028.044-.054.069-.078l-.046-.301c-.043-.013-.075-.054-.075-.101,0-.058.047-.106.106-.106s.106.047.106.106c0,.04-.022.075-.055.093l.09.207c.051-.044.093-.099.123-.161.031-.064.048-.136.048-.212-.003-.086.018-.169.057-.24.04-.07.099-.13.174-.171.078-.048.148-.107.208-.176.059-.068.108-.146.144-.23.002-.006.009-.009.015-.006.003.001.005.004.006.007.021.059.032.12.032.183,0,.034-.003.069-.01.103.122-.058.253-.097.392-.115.011-.01.023-.021.033-.032l-.101-.286c-.053-.006-.095-.051-.095-.105,0-.059.047-.106.106-.106.058,0,.106.047.106.106,0,.033-.015.062-.038.081l.127.185c.022-.032.039-.068.052-.106.036-.11.025-.232-.03-.334-.088-.162-.086-.35-.004-.515.057-.117.151-.216.269-.28.048-.026.099-.046.154-.059.007-.002.013.003.014.01.008.044.011.089.008.134.061-.064.131-.121.207-.168.011-.032.02-.064.027-.097l-.24-.185c-.015.007-.031.011-.048.011-.058,0-.106-.047-.106-.106s.047-.106.106-.106.106.047.106.106c0,.011-.002.022-.005.032l.207.086c0-.011,0-.022,0-.034,0-.042-.003-.083-.008-.123-.006-.041-.014-.081-.025-.12-.01-.032-.026-.061-.049-.086-.038-.041-.069-.088-.089-.141-.02-.051-.031-.106-.031-.164,0-.057.011-.113.032-.166.025-.07.023-.148-.004-.217-.014-.036-.036-.069-.062-.097-.004-.005-.004-.012,0-.016.004-.003.009-.004.013-.002.064.028.122.068.172.117.041.041.076.087.103.138.002-.011.004-.022.006-.033.033-.155.1-.303.197-.43.005-.007.014-.006.019,0,.058.071.105.152.136.241.01.029.019.059.026.089.014-.03.032-.057.053-.083.005-.006.012-.005.018,0,.038.047.068.1.088.158.019.056.03.116.03.178,0,.118-.038.227-.102.315-.066.091-.16.16-.269.196-.064.022-.119.062-.16.114-.037.047-.063.104-.072.167l.224-.029v-.004c0-.058.047-.106.106-.106.058,0,.106.047.106.106,0,.059-.047.106-.106.106-.027,0-.052-.01-.071-.027l-.281.116c-.007.035-.017.069-.028.102.014.048.026.097.033.147.012.079.014.16.008.239.093-.075.202-.131.322-.16.006-.001.012.002.014.008.001.005,0,.009-.004.012-.066.066-.124.141-.169.223-.045.081-.079.169-.101.261-.021.113-.078.213-.158.288-.08.075-.183.127-.297.142-.051.005-.102.019-.15.038-.049.02-.096.048-.139.081-.01.016-.02.032-.031.047l.205.097c.019-.031.052-.052.091-.052.058,0,.106.048.106.106s-.047.106-.106.106c-.049,0-.09-.033-.102-.078l-.299-.055c-.011.011-.023.022-.035.033-.008.105-.033.206-.071.3.045-.015.088-.018.135-.015.006,0,.012.005.012.012,0,.175-.071.333-.186.448-.147.147-.356.212-.56.175-.156-.027-.317-.004-.458.067-.021.011-.042.022-.061.035l.181.133c.019-.022.048-.036.079-.036.058,0,.106.048.106.106s-.047.106-.106.106c-.056,0-.102-.043-.106-.098l-.282-.11c-.026.026-.05.053-.073.083-.033.048-.072.092-.114.131-.034.031-.07.059-.109.083.113.012.215.07.283.162.007.01.001.021-.012.019-.114-.018-.234-.01-.345.026-.073.024-.142.058-.204.103-.157.117-.31.151-.456.126-.146-.025-.285-.11-.416-.232-.092-.086-.199-.157-.315-.21-.109-.05-.227-.084-.351-.098v.112c.098.021.192.056.28.103.093.05.179.114.257.19.008.008.014.017.014.028,0,.025-.031.046-.07.046-.032,0-.059-.014-.068-.034-.046-.074-.097-.136-.152-.185-.083-.073-.157-.103-.26-.125v.065c0,.027-.003.061-.01.095.033.044.072.084.116.117.045.034.095.061.148.081.133.048.246.139.318.262.002.003.002.007,0,.01-.002.006-.009.009-.015.007-.037-.014-.077-.02-.117-.02-.056,0-.108.013-.155.036-.048.024-.09.06-.122.103-.003.005-.01.006-.015.003-.058-.032-.121-.053-.187-.063-.052-.011-.101-.033-.143-.063-.038-.028-.072-.062-.098-.102l-.227.227c-.006.006-.013.004-.018-.002-.032-.043-.074-.079-.122-.104-.047-.024-.1-.037-.156-.037-.052,0-.104.012-.151.035-.01.005-.02-.006-.016-.015.046-.11.115-.207.2-.288.083-.079.182-.141.291-.182v-.162c-.104.022-.178.052-.26.125-.055.049-.106.111-.152.185-.008.019-.036.034-.068.034-.039,0-.071-.021-.071-.046,0-.011.006-.02.014-.028.078-.076.164-.14.257-.19.088-.047.182-.082.28-.103v-.112c-.124.014-.242.048-.351.098-.116.053-.222.124-.315.21-.069.063-.145.118-.227.162-.035.019-.101.019-.135-.003-.027-.018-.029-.044-.013-.07l.024-.042c.011-.018.005-.038-.013-.048-.018-.01-.038-.006-.048.013-.04.063-.074.133-.114.197-.03.045-.095.064-.147.064-.044,0-.084-.012-.112-.031-.052-.035-.068-.094-.022-.141.029-.029.058-.06.088-.088.024-.024.023-.057,0-.08-.024-.024-.057-.024-.081,0l-.117.117c-.02.02-.044.033-.07.041-.025.007-.052.01-.079.01-.041,0-.08-.008-.107-.02-.031-.014-.05-.033-.05-.057,0-.026.022-.041.042-.053.02-.01.041-.024.061-.035.029-.017.037-.049.02-.078-.017-.029-.049-.038-.078-.021l-.082.047c-.032.019-.065.028-.094.028-.041,0-.079-.02-.074-.065.001-.014.007-.027.014-.039.005-.009.003-.017-.006-.022-.009-.005-.017-.003-.023.006-.009.016-.02.032-.034.046-.027.027-.089.065-.124.031-.031-.031-.003-.087.021-.114.033-.035.067-.064.111-.085.038-.019.078-.026.105,0,.02.02.046.02.066,0,.014-.015.019-.035.009-.053-.032-.055-.056-.095-.103-.141l-.268.105.008.032c.011.042-.014.086-.056.097-.041.011-.083-.012-.096-.052l-.046.012c-.036.01-.072-.012-.082-.047-.01-.035.012-.072.047-.082l.046-.012c-.008-.041.016-.082.057-.093.043-.011.086.014.098.056v.003s.159-.116.159-.116c-.076-.039-.163-.06-.249-.06-.076,0-.116.016-.163.035-.033.013-.087.036-.122.036-.021,0-.053-.007-.065-.026-.012-.018-.001-.037.012-.051.018-.018.018-.043,0-.061-.018-.018-.042-.018-.061,0-.015.017-.033.032-.049.049-.031.031-.067.042-.103.041-.045,0-.091-.019-.132-.043-.047-.027-.085-.063-.106-.098-.022-.037-.028-.074-.012-.102.024-.041.074-.043.113-.043h.153c.025,0,.043-.018.043-.043,0-.025-.017-.043-.043-.043h-.243c-.074,0-.118-.017-.171-.069-.034-.034-.057-.073-.066-.109-.01-.037-.005-.071.017-.093.016-.016.04-.024.067-.022.026.002.055.011.083.028.013.008.026.015.039.022.022.012.045.006.058-.015.013-.023.008-.047-.015-.06l-.173-.1c-.021-.012-.033-.023-.038-.033-.006-.012-.005-.022.002-.031.02-.028.092-.036.123-.036.021,0,.037-.011.042-.029-.057-.033-.109-.073-.153-.118l-.288.039v.035c0,.044-.035.08-.079.08-.042,0-.077-.033-.079-.075h-.048c-.037,0-.067-.03-.067-.067,0-.037.03-.067.067-.067h.048c.002-.042.037-.075.079-.075.044,0,.079.035.079.079h0s.188-.078.188-.078c-.048-.064-.11-.117-.181-.155-.073-.039-.155-.063-.243-.066-.034-.001-.067-.004-.099-.009-.042-.007-.105-.019-.142-.041-.017-.01-.035-.027-.035-.048,0-.016.01-.027.023-.035.016-.009.04-.015.07-.015h.092c.022,0,.036-.015.036-.037,0-.022-.014-.037-.036-.037h-.263c-.069,0-.124-.013-.175-.064-.031-.031-.053-.068-.061-.101-.008-.034-.004-.066.016-.087.024-.024.058-.026.09-.017.069.016.142.039.212.057.021.005.038-.005.044-.026.005-.021-.004-.039-.025-.045l-.266-.072c-.019-.005-.037-.012-.055-.022-.042-.024-.101-.084-.072-.136.022-.037.069-.038.106-.028l.031.008c.021.006.039-.005.044-.026.006-.021-.004-.039-.025-.045l-.019-.005c-.037-.01-.055-.03-.064-.066-.008-.032-.004-.083.033-.093.028-.007.052.014.065.037.008.014.021.021.037.018.023-.003.031-.022.036-.043.011-.046.016-.093.016-.14,0-.005,0-.01,0-.015l-.267-.109-.016.03c-.021.038-.069.052-.107.03-.037-.021-.051-.068-.033-.105l-.042-.024c-.032-.018-.044-.059-.026-.092.018-.032.058-.044.09-.025l.042.024c.022-.036.068-.048.105-.027.038.022.052.071.031.109v.002s.198.025.198.025c-.013-.045-.032-.088-.054-.127-.053-.093-.129-.17-.22-.225-.014-.008-.032-.026-.036-.043-.003-.013,0-.025.011-.033.004-.003.006-.008.008-.013.003-.012-.003-.023-.015-.026l-.1-.027c-.027-.007-.048-.014-.068-.024-.054-.027-.105-.089-.119-.147-.009-.036-.003-.069.018-.091.017-.017.041-.024.069-.022.026.002.056.013.084.032l.038.022c.022.013.046.006.059-.016.013-.022.006-.046-.016-.059l-.06-.034c-.04-.023-.068-.068-.08-.111h0c-.016-.063-.005-.16.068-.18.05-.014.097.022.123.062.014.018.036.02.055.009.019-.012.028-.032.019-.053-.009-.017-.014-.039-.015-.063-.003-.059.02-.13.062-.172.024-.024.053-.035.08-.029.02.006.034.018.044.036.007.011.016.017.025.019.019.005.04-.006.05-.022.024-.035.052-.062.08-.077.03-.016.059-.019.083-.006.025.015.037.045.037.083,0,.035-.013.078-.037.118-.015.025-.029.044-.046.06-.017.016-.036.029-.06.043-.022.013-.028.036-.016.058.011.019.031.029.052.021.035-.016.069-.024.097-.025.029,0,.052.007.062.025Z" fill-rule="evenodd"/>
        <path d="M18.257,9.861c-.047.015-.097.023-.147.023-.078,0-.152-.019-.217-.052-.036-.018-.069-.041-.099-.067l.207.358c.035.062.085.116.144.156.057.039.124.066.196.076.007,0,.011.007.01.013,0,.004-.003.007-.006.008-.052.028-.109.045-.168.052l.034.059c.043.074.065.157.065.243v.026l1.846,1.386c.006.005.006.012.001.018l-.136.136c-.052.051-.116.075-.183.075-.057,0-.115-.018-.166-.051-.053.042-.118.062-.182.06h0c-.052-.002-.104-.02-.148-.052-.052.041-.116.06-.18.057-.052-.002-.104-.019-.149-.052-.052.041-.116.06-.18.058-.066-.003-.131-.029-.18-.079l-.344-.344c-.003.034-.012.068-.024.098-.017.04-.043.075-.073.104-.006.006-.018.002-.019-.007l-.025-.161c-.006.026-.014.05-.025.073-.02.042-.049.079-.084.109l.251.251.159.092c.042-.032.101-.038.15-.01.061.035.084.111.055.174.042.024.07.057.082.104.011.041.007.087-.016.127-.021.036-.055.063-.094.076-.008.003-.016-.005-.015-.013.004-.027,0-.053-.011-.078-.009-.02-.022-.039-.04-.053-.009.013-.021.024-.033.032.004.026.007.052.007.078,0,.046-.007.09-.02.132.048.027.102.04.157.04.067,0,.129-.02.181-.055.053-.036.095-.088.119-.148.012-.031.027-.06.046-.086l-.028-.105c-.002-.006.002-.012.008-.014.006-.002.012.002.014.008l.024.088c.022-.026.047-.05.075-.069.058-.04.128-.065.203-.067l.027-.103c.002-.006.008-.01.014-.008.006.002.01.008.008.014l-.025.096c.049.001.097.012.14.031.043.019.083.046.116.079.016-.022.035-.044.056-.063.033-.03.071-.054.113-.07-.011-.015-.018-.033-.018-.053,0-.049.039-.088.088-.088s.088.039.088.087c.013-.008.029-.012.045-.012.008,0,.016.001.024.003l.12-.091c-.003-.008-.004-.018-.004-.027,0-.048.04-.088.088-.088s.088.039.088.088-.039.088-.088.088c-.013,0-.025-.002-.036-.008l-.104.109s.001.009.001.014c0,.02-.007.039-.018.054.044.005.078.042.078.087,0,.048-.039.088-.088.088-.023,0-.044-.009-.06-.024-.02.039-.048.075-.081.104-.053.047-.114.076-.169.084-.004,0-.008.001-.011.001-.002.05-.014.098-.034.142l.097.026c.006.001.01.008.008.014-.002.006-.008.01-.014.008l-.102-.027c-.025.048-.061.09-.104.122h0c-.041.034-.085.064-.132.089l.07.07s.004.012,0,.016c-.004.005-.012.005-.016,0l-.075-.075c-.021.011-.042.021-.064.03l.069.069s.005.012,0,.016c-.004.005-.012.005-.016,0l-.076-.076s-.009.003-.013.005c-.09.032-.186.05-.287.05-.123,0-.243-.026-.354-.077l.023.087c.001.006-.002.012-.008.014-.006.002-.012-.002-.014-.008l-.028-.106c-.024-.012-.047-.025-.07-.039-.072-.043-.15-.074-.232-.093-.06.039-.13.064-.205.07-.181.015-.342.071-.454.177-.024.023-.046.048-.065.076h.108c.027-.054.084-.082.144-.082.099.001.17.075.17.175,0,.057-.027.111-.073.144.086.024.176.038.267.04.097.002.196-.01.294-.036l.267-.072c.009-.045.038-.082.078-.105.035-.02.074-.036.113-.047.076-.02.15-.022.207-.007.059.015.103.048.115.093.012.046-.009.095-.053.138-.042.041-.107.077-.183.098-.039.01-.081.017-.122.017-.041,0-.081-.014-.111-.043l-.294.079c-.035.009-.085.026-.119.052-.023.017-.038.038-.038.063,0,.025.018.051.054.074.034.021.082.039.146.05.018-.065.078-.113.149-.113.086,0,.155.069.155.155s-.069.155-.155.155c-.06,0-.113-.035-.138-.085-.005,0-.01,0-.015,0-.102,0-.2.015-.293.041-.095.027-.184.068-.267.119-.023.054-.071.091-.133.099-.031.027-.061.057-.089.088-.031.034-.069.061-.111.08-.041.018-.085.028-.132.028h-1.074c-.047,0-.092-.01-.132-.028-.042-.019-.079-.046-.111-.08-.028-.031-.058-.06-.09-.088-.058-.008-.11-.043-.134-.099-.066-.042-.142-.065-.221-.065-.048,0-.096-.002-.144.002-.019.001-.038.004-.056.007-.009.062-.054.11-.117.128-.039.011-.081.016-.122.016-.079,0-.15-.018-.202-.047-.054-.03-.087-.072-.087-.12s.033-.09.087-.12c.052-.029.123-.047.202-.047.041,0,.082.005.122.016.011.003.022.007.032.012.057-.024.143-.075.143-.147,0-.056-.054-.113-.162-.154-.096-.037-.235-.061-.417-.061h-.215c-.01.076-.075.134-.154.134-.086,0-.155-.069-.155-.155s.07-.155.155-.155c.037,0,.072.013.099.035.037.003.093,0,.114-.037.018-.031.006-.081-.042-.141-.044-.054-.116-.115-.222-.176l-.153-.088c-.032.013-.069.016-.105.006-.04-.011-.078-.027-.113-.048-.068-.039-.121-.09-.151-.141-.032-.053-.039-.106-.016-.147.023-.041.073-.061.135-.06.059,0,.13.021.198.06.035.02.069.046.098.075.03.03.047.069.048.108l.385.222c.123.071.227.109.307.122.088.014.146-.003.168-.04.014-.025.01-.055.001-.081-.069-.016-.121-.077-.121-.151,0-.086.069-.155.155-.155s.155.069.155.155c0,.046-.02.087-.051.115l.07.121c.036.061.093.118.158.159.059.038.123.062.181.065-.002-.011-.003-.022-.003-.033,0-.101.071-.174.17-.175.065,0,.117.031.143.082h.718v-.077c0-.115.018-.226.053-.331.002-.006.004-.011.006-.017-.079.049-.165.089-.256.117l-.028.104c-.001.006-.008.01-.014.008-.006-.002-.01-.008-.008-.014l.024-.091c-.02.006-.039.011-.059.015l-.055.095c-.003.006-.01.008-.016.004-.006-.003-.007-.01-.004-.016l.044-.077c-.068.013-.137.02-.209.02-.031,0-.063-.001-.096-.004l-.077.077s-.012.004-.016,0c-.004-.005-.004-.012,0-.016l.064-.064c-.124-.014-.256-.049-.37-.108l-.075.075s-.012.004-.016,0c-.004-.005-.004-.012,0-.016l.07-.07c-.023-.013-.046-.028-.068-.043-.095-.068-.17-.157-.203-.27-.154.065-.319.099-.487.099-.051,0-.101-.003-.151-.009l-.053.093c-.003.005-.01.007-.016.004-.005-.003-.007-.01-.004-.016l.049-.084c-.021-.003-.042-.007-.063-.011l-.077.077s-.012.005-.016,0c-.005-.005-.005-.012,0-.016l.066-.066c-.014-.003-.027-.006-.041-.01-.101-.026-.197-.064-.287-.112-.016-.009-.031-.019-.045-.029l-.074.074s-.012.005-.016,0c-.005-.005-.005-.012,0-.016l.072-.072c-.071-.059-.12-.142-.137-.234h-.002c-.084,0-.18-.016-.276-.046l-.076.076s-.012.005-.016,0c-.005-.005-.005-.012,0-.016l.068-.068c-.094-.032-.188-.076-.272-.132-.016-.011-.032-.022-.047-.033l-.105.028c-.006.001-.012-.002-.014-.008-.001-.006.002-.012.008-.014l.088-.024c-.12-.094-.211-.213-.24-.349l-.104-.028c-.006-.001-.01-.008-.008-.014.001-.006.008-.01.014-.008l.093.025c-.003-.019-.004-.039-.005-.059,0-.078.018-.151.058-.218-.007-.003-.014-.007-.02-.011-.061-.034-.119-.096-.159-.175-.025-.05-.043-.106-.048-.162-.014.006-.028.009-.044.009-.06,0-.108-.048-.108-.108s.048-.108.108-.108c.011,0,.022.002.033.005-.004-.011-.006-.023-.006-.035,0-.02.006-.04.016-.056l-.074-.18s-.005,0-.008,0c-.059,0-.108-.048-.108-.108s.048-.108.108-.108.108.048.108.108c0,.027-.01.051-.026.07l.101.166c.033.003.061.02.079.046.014-.042.055-.073.102-.073.06,0,.108.048.108.108,0,.04-.022.075-.054.094.043.037.077.084.102.135.033.066.05.135.049.196.029-.006.058-.01.088-.01.052,0,.102.011.15.029v-.098c0-.006.005-.011.011-.011.006,0,.012.005.012.011v.107c.081.036.156.095.222.166.068.073.126.159.17.247l.046-.081c.003-.006.01-.007.016-.004.005.003.007.01.004.016l-.054.094c.034.072.059.144.074.211.061-.043.135-.069.215-.071l-.048-.082c-.003-.005-.001-.012.004-.016.006-.003.012-.001.016.004l.054.094c.054,0,.107.005.159.012.054.007.107.018.159.033.012-.024.026-.046.043-.067-.031-.014-.053-.044-.053-.081,0-.049.039-.088.088-.088.033,0,.061.018.076.044.012-.021.031-.037.055-.043l.058-.14c-.018-.016-.029-.039-.029-.065,0-.048.039-.088.088-.088.048,0,.088.039.088.088,0,.046-.035.083-.079.088l-.036.147c.012.015.02.034.02.055,0,.004,0,.008,0,.011.011-.005.022-.007.035-.007.048,0,.088.039.088.088,0,.049-.039.088-.088.088-.007,0-.014,0-.02-.002.002.037-.003.075-.012.111.105.065.2.145.282.238.026-.043.058-.081.096-.114l.003-.002-.052-.091c-.003-.005-.001-.012.004-.016s.013-.001.016.004l.05.088c.057-.044.124-.077.197-.098l-.05-.086c-.003-.006-.001-.013.004-.016s.013-.001.016.004l.053.092c.028-.007.057-.012.086-.016l-.049-.084c-.003-.005-.001-.013.004-.016.005-.003.012-.001.015.004l.054.093c.021-.002.042-.003.064-.003.091,0,.179.017.259.047.015.006.029.012.043.018v-.096c0-.007.005-.011.011-.011.006,0,.012.005.012.011v.107c.034.017.067.037.097.059v-.092c0-.006.005-.012.011-.012.006,0,.012.005.012.012v.109c.013.01.026.021.038.032h0c.066.058.143.101.226.128.008-.026.022-.049.041-.068.03-.03.072-.049.118-.049h.006c.006-.069.064-.123.135-.123.056,0,.105.035.125.084h.107c.025,0,.059-.011.093-.028.034-.017.069-.041.095-.067l.032-.031c-.036-.036-.067-.084-.082-.131l-.009-.029c-.003.027-.01.052-.021.076-.015.033-.037.063-.064.088-.005.006-.016.004-.019-.004l-.149-.348c-.014-.031-.031-.06-.052-.086-.005.009-.01.017-.016.026-.004.006-.014.008-.02.001l-.314-.397v.501c0,.006-.005.012-.012.012-.003,0-.006-.002-.009-.004-.088-.088-.16-.191-.213-.306l-.554.149c-.006.002-.012-.002-.014-.008,0-.002,0-.004,0-.006.01-.039.024-.077.041-.114-.085-.006-.166-.026-.241-.058-.082-.035-.157-.085-.221-.146-.008-.007-.002-.02.008-.02h.089c-.025-.031-.05-.063-.074-.094l-.146.115c-.025.019-.055.027-.084.024-.029-.003-.057-.018-.076-.042l-.006-.008c-.03.02-.065.028-.099.026-.028.028-.065.044-.103.047-.007,0-.014,0-.021,0-.023.019-.05.032-.079.037-.044.008-.072-.002-.11-.017-.003.002-.006.004-.008.007-.122.097-.251.123-.367.102-.116-.021-.22-.089-.293-.182-.065-.082-.105-.182-.11-.287-.002-.057-.01-.109-.027-.157-.017-.048-.042-.093-.078-.139-.04-.05-.088-.092-.144-.124-.058-.033-.109-.077-.15-.129-.054-.069-.091-.151-.105-.236-.012-.08-.003-.163.032-.242l.105-.264c.011-.032.013-.065.007-.096-.006-.034-.022-.066-.044-.094-.016-.02-.035-.038-.057-.051-.015.042-.06.067-.104.055-.032-.008-.056-.033-.063-.064-.021.023-.054.034-.086.026-.032-.008-.055-.033-.063-.064-.021.023-.054.034-.086.026-.041-.01-.069-.049-.066-.091.002-.025-.006-.043-.025-.059-.029-.02-.041-.059-.033-.092.008-.034.037-.06.072-.065.027-.005.041-.018.052-.042.018-.037.06-.056.1-.046.032.008.056.033.063.064.021-.023.054-.034.086-.025.032.008.056.033.063.063.021-.023.054-.034.086-.025.049.012.071.055.064.102.049.015.095.037.138.066.103.069.196.189.219.312.012.069.004.141-.024.22-.03.073-.057.15-.088.222-.036.081.018.173.089.213.151.086.276.224.344.383.027.063.045.129.055.199.005.037.016.068.04.098.025.031.058.053.093.063.034.01.07.011.105.001,0-.007,0-.013.001-.02.006-.047.033-.087.071-.114.01-.044.037-.083.072-.111.009-.007.018-.013.029-.019.028-.077.102-.136.184-.146.036-.005.073,0,.108.018.021-.009.045-.012.068-.011.032-.028.043-.074.027-.114l-.233.034c-.129.02-.254,0-.367-.048-.121-.051-.228-.136-.31-.24v-.002c-.116-.145-.182-.328-.172-.512.01-.185.096-.372.288-.523l.592-.468c.021-.017.034-.042.037-.068.003-.023-.002-.046-.015-.066-.07.036-.149.047-.223.031-.076-.015-.147-.056-.199-.121-.017-.021-.032-.046-.043-.07l-.228.033c-.072.011-.142-.009-.196-.05-.054-.041-.093-.102-.104-.174l-.052-.355-.018-.023c-.039-.049-.054-.109-.047-.166.007-.057.035-.112.084-.151l.301-.238c.023-.018.052-.025.079-.022.024.003.047.014.065.032l.033-.026c.023-.019.052-.026.08-.023.027.003.054.017.072.04.004.005.003.012-.002.017l-.046.036c.016.056.019.114.008.171-.011.058-.036.113-.076.161-.003.004-.008.006-.013.004-.006-.002-.009-.008-.008-.014.014-.043.02-.088.018-.133-.001-.04-.008-.079-.021-.117l-.053.042-.016.136s-.002.005-.004.007c-.035.03-.061.067-.08.106-.017.038-.027.079-.029.12.041.006.083.004.124-.006.042-.011.083-.03.119-.059l.116-.09c.008-.006.019,0,.018.01-.006.061-.036.117-.084.155l-.059.047c-.031.025-.065.044-.101.058-.033.013-.067.021-.101.024l.003.018c.004.031.021.057.045.075.023.018.053.026.084.022l.132-.019c.015-.019.033-.037.053-.052l.216-.171c-.013-.022-.018-.046-.016-.07.003-.028.017-.054.04-.072l.155-.123c.068-.053.114-.125.136-.202.023-.08.021-.166-.006-.246-.002-.005,0-.01.004-.013.005-.004.012-.003.016.002l.033.041c.045.057.071.124.078.193.044-.051.074-.112.089-.175.016-.073.013-.15-.012-.222-.002-.006.001-.013.007-.015.004-.002.01,0,.013.004l.033.041c.04.052.065.11.075.171.008.051.006.103-.006.152.066-.053.11-.123.132-.199.023-.08.022-.166-.006-.246-.002-.006.001-.012.007-.015.005-.002.01,0,.013.004l.033.042c.048.061.074.133.079.206.027-.028.05-.058.068-.091.023-.041.038-.087.045-.133.001-.01.014-.014.02-.006.057.073.09.157.1.244.036-.004.073-.006.109-.006.241,0,.463.083.639.222.095.076.177.169.24.273.004-.021.006-.043.006-.065,0-.113-.062-.209-.15-.287-.118-.104-.283-.174-.41-.204-.12-.028-.206-.135-.206-.259,0-.146.119-.265.265-.265.054,0,.108.001.162.004.035-.11.137-.185.253-.185.355,0,.699.05,1.025.142.337.096.655.237.946.417.038.022.082.033.126.033.059,0,.116-.021.162-.059.007-.006.018-.002.019.008.006.07-.008.14-.039.201.273.204.518.443.726.712.208.268.38.565.51.883.031.077.091.147.16.193.068.045.148.071.231.069.006,0,.012.005.012.011,0,.003,0,.005-.003.008-.045.052-.101.094-.164.123-.029.013-.059.024-.09.031.042.155.074.315.095.478.022.164.033.331.033.5v1.744c0,.01-.011.015-.018.009-.039-.029-.075-.081-.1-.14-.025-.059-.041-.126-.041-.186v-1.527c0-.068-.028-.131-.073-.176-.057-.057-.118-.073-.195-.073.012.115.018.231.018.349v1.436c0,.006-.005.012-.012.012-.003,0-.006-.001-.008-.003-.039-.03-.074-.081-.1-.14-.025-.059-.041-.125-.041-.186v-1.219c0-.068-.028-.131-.073-.176-.058-.058-.119-.073-.198-.073.014.115.021.231.021.349v1.128c0,.007-.005.012-.012.012-.003,0-.005-.001-.008-.003-.039-.03-.074-.081-.099-.14-.025-.059-.041-.125-.041-.186v-.911c0-.068-.028-.131-.073-.176-.059-.06-.121-.073-.201-.073.016.114.024.231.024.349v.82c0,.01-.011.015-.018.009-.039-.029-.075-.081-.1-.14-.025-.059-.041-.126-.041-.186v-.603c0-.068-.028-.13-.073-.176-.062-.062-.123-.073-.206-.073.019.114.029.23.029.349v.512c0,.01-.011.015-.019.009-.039-.029-.074-.081-.1-.14-.025-.059-.041-.126-.041-.186v-.295c0-.068-.028-.13-.073-.176-.045-.045-.107-.073-.176-.073h-.037c.024.113.036.23.036.349v.205c0,.01-.011.015-.018.009-.039-.03-.074-.081-.1-.14-.022-.052-.04-.12-.041-.177,0-.065-.027-.124-.069-.168-.042-.044-.101-.073-.165-.077-.057-.003-.098-.037-.117-.09-.012-.033-.025-.065-.04-.096h0ZM16.084,11.342c.034-.033.074-.06.118-.079.033-.014.069-.024.106-.028-.051-.022-.097-.055-.135-.094-.051-.053-.088-.121-.106-.196-.002-.008.006-.016.014-.014l.21.056c-.007-.05-.011-.101-.013-.152-.045-.046-.088-.094-.129-.143-.097-.116-.183-.24-.258-.372-.03.013-.063.022-.098.025-.008,0-.014-.006-.012-.014.017-.1.007-.203-.029-.298-.013-.031-.025-.063-.037-.094-.029-.079-.043-.161-.043-.245,0-.09.016-.176.046-.255h0c.027-.072.066-.139.113-.197-.032.005-.066.008-.098.007-.008,0-.014-.009-.01-.017.007-.015.016-.029.024-.044l.228-.395c-.019-.006-.037-.012-.056-.021-.006-.003-.008-.009-.005-.015.001-.003.004-.006.008-.006.056-.013.104-.049.134-.098l.021-.037c.032-.055.035-.108.02-.154-.015-.045-.049-.083-.091-.107-.023-.013-.047-.022-.072-.026.004.032,0,.063-.012.092-.017.045-.052.083-.1.103l-.281.121c.076.105.105.231.091.353-.015.127-.078.25-.186.335l-.592.468c-.071.057-.127.131-.136.225-.008.081.021.167.085.248.043.054.091.094.143.117.051.023.105.031.161.022l.262-.038c.126-.019.252.03.331.129.075.096.111.21.107.324l.225.284c.02.025.027.055.024.084-.003.026-.014.051-.034.07l.061.077Z" fill-rule="evenodd"/>
        <path d="M17.083,15.003v.315c0,.066-.017.127-.049.181-.032.054-.079.1-.136.132-.055.031-.105.068-.151.111-.043.04-.081.085-.114.134.033.022.063.049.088.081l.404-.404c.056-.056.086-.184.086-.261v-.288h-.129Z" fill="red" fill-rule="evenodd"/>
        <path d="M16.443,15.815c.043-.07.097-.133.158-.187.063-.055.134-.101.212-.135.057-.025.095-.081.095-.144v-.347h-.129v.393s-.003.009-.008.011c-.109.039-.208.101-.291.179-.076.072-.138.158-.183.254.042-.017.088-.025.133-.025h.01Z" fill="#007c29" fill-rule="evenodd"/>
        <path d="M16.932,15.003v.347c0,.072-.043.136-.109.165-.075.033-.145.077-.206.131-.057.05-.107.108-.147.172.046.005.09.018.13.038.005.003.01.005.015.008.034-.051.073-.097.118-.139.047-.044.099-.082.156-.114.054-.03.098-.073.128-.124.029-.05.046-.107.046-.169v-.315h-.129Z" fill="#fff" fill-rule="evenodd"/>
        <path d="M17.045,15.664l-.073.073c.025.039.057.073.095.1.039.028.084.048.133.059.065.01.128.03.186.061.022-.028.048-.053.077-.073-.056-.03-.117-.05-.18-.06-.051-.011-.1-.033-.141-.061-.038-.027-.071-.06-.097-.099Z" fill="#007c29" fill-rule="evenodd"/>
        <path d="M17.144,15.566l-.002.002-.08.081c.025.038.057.071.094.097.039.027.083.047.131.058.07.01.137.034.199.068.008-.005.017-.01.025-.014.019-.01.039-.018.059-.024-.061-.06-.134-.105-.214-.134-.042-.015-.081-.035-.118-.058-.034-.022-.065-.047-.094-.075Z" fill="#fff" fill-rule="evenodd"/>
        <path d="M17.218,15.414c-.013.05-.033.099-.059.134.027.027.058.052.091.073.036.023.074.042.114.056.087.032.167.082.232.149.026-.006.053-.009.08-.009.032,0,.064.004.095.012-.07-.105-.171-.183-.289-.226-.056-.02-.108-.048-.154-.084-.041-.031-.077-.066-.109-.106Z" fill="red" fill-rule="evenodd"/>
        <path d="M16.276,15.499c.026,0,.047.01.047.023,0,.013-.021.023-.047.023-.026,0-.047-.01-.047-.023,0-.013.021-.023.047-.023Z" fill="#3c6" fill-rule="evenodd"/>
        <path d="M17.716,15.499c-.026,0-.047.01-.047.023,0,.013.021.023.047.023s.047-.01.047-.023c0-.013-.021-.023-.047-.023Z" fill="#3c6" fill-rule="evenodd"/>
        <path d="M17.716,15.476c-.027,0-.051.01-.062.025-.044-.066-.092-.123-.143-.168-.005-.004-.01-.008-.014-.012l.008.004c.076.041.148.092.215.151h-.003Z" fill="#007c29" fill-rule="evenodd"/>
        <path d="M21.752,11.726c.105-.034.195-.101.258-.188.062-.085.098-.189.098-.302,0-.06-.01-.117-.029-.171-.018-.051-.043-.098-.075-.14-.022.029-.04.062-.054.096.008.047.013.096.013.146,0,.126-.028.245-.079.351-.037.079-.087.15-.147.213.005-.002.01-.004.016-.006Z" fill="#007c29" fill-rule="evenodd"/>
        <path d="M21.591,11.548c.014.061.018.124.013.187-.003.036-.009.072-.017.107.017-.021.037-.041.059-.057.092-.074.166-.168.218-.276.049-.103.077-.219.077-.341,0-.093-.016-.183-.046-.267-.029-.081-.071-.157-.124-.224-.09.121-.152.262-.184.409-.032.151-.032.31.005.461Z" fill="#007c29" fill-rule="evenodd"/>
        <path d="M21.271,13.084c-.029.09-.074.173-.132.244-.036.045-.077.086-.123.122.034-.011.07-.018.106-.021.109-.015.207-.064.284-.136.076-.073.131-.169.152-.276.022-.095.057-.185.103-.268.04-.072.089-.138.145-.198-.12.037-.229.101-.318.185-.099.094-.175.214-.216.348Z" fill="#007c29" fill-rule="evenodd"/>
        <path d="M18.171,14.967c-.049.066-.112.12-.186.157-.071.036-.151.056-.236.056-.024,0-.047-.002-.071-.005.041.019.085.035.129.048.07.019.144.029.221.029.103,0,.205-.019.301-.056.094-.037.182-.09.257-.159.052-.049.114-.088.181-.115.039-.016.081-.027.124-.034.033-.028.061-.061.083-.099-.093-.052-.197-.079-.303-.079-.101,0-.197.024-.281.067-.088.045-.163.11-.22.189Z" fill="#007c29" fill-rule="evenodd"/>
        <path d="M18.761,15.484c.063-.045.135-.081.211-.106.105-.034.218-.044.328-.03-.073-.084-.178-.133-.289-.133-.085,0-.167.028-.234.08-.074.058-.159.105-.25.137-.088.03-.183.047-.281.047-.055,0-.109-.005-.162-.015-.033-.006-.065-.014-.096-.024.107.086.22.146.336.166.141.024.287-.009.438-.122Z" fill="#007c29" fill-rule="evenodd"/>
        <path d="M20.582,14.105c-.046.103-.109.197-.186.279-.126.134-.289.233-.473.28.025.002.051.005.076.009.196.035.398-.027.54-.169.108-.108.176-.256.179-.421-.047-.003-.092.004-.136.021Z" fill="#007c29" fill-rule="evenodd"/>
        <path d="M19.874,14.013c-.071.039-.128.096-.166.163-.038.067-.057.146-.055.227,0,.02-.001.041-.003.061.089-.174.215-.326.369-.444.066-.051.137-.096.212-.133.009-.038.013-.077.013-.116,0-.05-.007-.1-.021-.148-.036.076-.081.146-.136.209-.061.071-.133.132-.213.181Z" fill="#007c29" fill-rule="evenodd"/>
        <path d="M20.642,13.784c-.227.031-.436.121-.609.254-.18.139-.323.325-.409.539-.006.017-.013.034-.021.05-.02.042-.045.08-.075.114.082-.041.172-.067.267-.076.228-.029.433-.138.584-.298.147-.155.243-.359.263-.584Z" fill="#007c29" fill-rule="evenodd"/>
        <path d="M19.318,14.395c.046,0,.083.037.083.082,0,.046-.037.083-.083.083-.046,0-.083-.037-.083-.083,0-.046.037-.082.083-.082Z" fill="#fed700" fill-rule="evenodd"/>
        <path d="M19.736,14.917c.045,0,.082.037.082.083,0,.046-.037.083-.082.083-.046,0-.083-.037-.083-.083,0-.046.037-.083.083-.083Z" fill="#fed700" fill-rule="evenodd"/>
        <path d="M19.366,14.88l.265.103c.002-.012.006-.024.012-.035l-.188-.138c-.031.021-.061.044-.089.07Z" fill="#fed700" fill-rule="evenodd"/>
        <path d="M19.311,14.584l.042.277c.027-.025.057-.048.087-.069l-.093-.212c-.01.003-.02.004-.03.004-.002,0-.004,0-.007,0Z" fill="#fed700" fill-rule="evenodd"/>
        <path d="M21.223,12.481c.007-.049.006-.099-.002-.147-.048.012-.094.03-.136.054-.113.061-.204.158-.259.27-.078.159-.081.338.004.494.05.093.066.201.044.305.053-.112.086-.233.093-.357.011-.17.063-.33.146-.468.032-.053.069-.103.109-.149Z" fill="#007c29" fill-rule="evenodd"/>
        <path d="M20.917,13.492c.078-.046.148-.107.204-.177.056-.07.1-.15.127-.237.043-.138.12-.261.222-.358.008-.007.015-.014.023-.02.009-.085.007-.172-.006-.257-.007-.045-.017-.09-.029-.133-.133.084-.245.199-.326.334-.081.135-.132.291-.143.457-.008.129-.042.255-.098.37-.008.018-.018.035-.027.052.017-.011.034-.022.052-.031Z" fill="#007c29" fill-rule="evenodd"/>
        <path d="M20.593,13.253c.046,0,.083.037.083.083s-.037.082-.083.082c-.046,0-.083-.037-.083-.082s.037-.083.083-.083Z" fill="#fed700" fill-rule="evenodd"/>
        <path d="M20.641,13.43c-.011.006-.023.009-.035.011l.095.268c.026-.027.05-.057.073-.087l-.132-.192Z" fill="#fed700" fill-rule="evenodd"/>
        <path d="M21.101,13.687c.046,0,.082.037.082.083s-.037.083-.082.083c-.046,0-.083-.037-.083-.083s.037-.083.083-.083Z" fill="#fed700" fill-rule="evenodd"/>
        <path d="M20.995,13.773v-.004c0-.012.002-.023.005-.033l-.209-.099c-.022.03-.046.058-.072.086l.276.051Z" fill="#fed700" fill-rule="evenodd"/>
        <path d="M21.494,11.741c.011.04.02.082.025.124.004.026.006.053.007.08.004-.009.007-.018.012-.027.022-.047.039-.133.043-.185.004-.06,0-.121-.013-.18-.031-.131-.037-.267-.017-.399-.028-.06-.066-.115-.113-.161-.035-.035-.076-.065-.12-.09.013.02.025.041.033.063.029.075.031.159.004.234-.02.051-.031.104-.031.158,0,.055.01.107.029.155.02.05.049.095.085.133.025.027.043.059.054.094Z" fill="#007c29" fill-rule="evenodd"/>
        <path d="M21.196,11.824c.046,0,.083.037.083.083s-.037.083-.083.083-.083-.037-.083-.083.037-.083.083-.083Z" fill="#fed700" fill-rule="evenodd"/>
        <path d="M21.288,11.959c-.006.011-.014.02-.024.028l.225.173c.001-.006.002-.013.004-.019.005-.03.008-.061.011-.093l-.215-.09Z" fill="#fed700" fill-rule="evenodd"/>
        <path d="M21.858,11.912c.046,0,.082.037.082.083,0,.046-.037.083-.082.083-.046,0-.083-.037-.083-.083,0-.046.037-.083.083-.083Z" fill="#fed700" fill-rule="evenodd"/>
        <path d="M21.771,12.056c-.007-.01-.012-.022-.016-.034l-.23.03c-.002.031-.006.063-.011.093-.001.006-.002.011-.003.017l.26-.107Z" fill="#fed700" fill-rule="evenodd"/>
        <path d="M18.761,15.278c.072-.056.158-.085.249-.085.048-.027.094-.06.135-.098.039-.035.074-.075.104-.118-.083-.047-.175-.071-.271-.071-.071,0-.14.014-.202.038-.065.026-.124.064-.174.111-.077.071-.168.125-.265.163-.098.038-.203.058-.309.058-.121,0-.243-.024-.355-.071.089.048.171.107.245.176.006.006.013.012.02.018.048.019.098.033.149.043.051.01.103.015.157.015.096,0,.188-.016.274-.046.089-.031.171-.076.243-.133Z" fill="#007c29" fill-rule="evenodd"/>
        <path d="M15.384,15.311c.033.033.034.08.002.113l-.088.088c-.036.036-.022.08.018.106.025.017.061.027.1.027.044,0,.102-.015.128-.054l.113-.196c.017-.029.05-.038.079-.022.029.018.041.05.023.081l-.024.041c-.009.015-.01.029.006.04.027.018.084.017.112.003.081-.043.155-.096.222-.159.094-.087.203-.16.321-.214.017-.007.034-.015.052-.022-.024.006-.049.013-.073.02-.107.027-.226.047-.335.06-.112.014-.226.021-.341.021-.046,0-.093-.001-.139-.003-.007,0-.011-.006-.011-.012,0-.006.006-.011.012-.011.046.002.092.003.138.003.114,0,.228-.007.339-.02.055-.007.11-.015.164-.025-.054-.009-.104-.036-.142-.076-.025-.025-.051-.049-.078-.072-.013-.011-.049-.023-.03.009.017.029.008.062-.021.079-.03.017-.064.009-.081-.021l-.095-.164c-.034-.06-.119-.094-.183-.098-.018-.001-.054,0-.066.017-.005.008-.004.02.005.037l.067.115c.02.034.009.073-.025.093-.035.02-.075.011-.095-.024l-.115-.199c-.026-.045-.088-.057-.14-.049-.023.003-.065.015-.075.039-.004.009,0,.02.011.033l.044.044c.032.032.024.073,0,.097-.028.028-.069.028-.097,0l-.095-.095c-.036-.037-.11-.038-.152-.01-.023.016-.036.042-.021.067.015.027.009.059-.012.08-.028.028-.069.03-.097.001-.018-.017-.049-.012-.08.003-.036.018-.077.048-.103.08-.014.016-.042.062-.022.083.023.023.075-.014.092-.031.011-.011.022-.027.03-.041.011-.02.033-.026.053-.015.02.011.027.033.016.054-.005.009-.01.02-.011.03-.003.03.025.04.051.04.025,0,.054-.009.083-.025l.081-.047c.04-.024.086-.011.11.03.023.04.012.086-.029.109-.02.012-.041.023-.061.035-.012.007-.031.017-.031.033,0,.013.014.026.035.036.025.011.06.018.098.018.025,0,.05-.002.073-.008s.043-.017.06-.035l.117-.117c.033-.033.08-.032.113,0Z" fill="#007c29" fill-rule="evenodd"/>
        <path d="M14.396,14.696c-.089-.047-.173-.102-.249-.166-.112-.092-.21-.201-.29-.322-.003-.005-.002-.012.003-.016.005-.004.012-.002.016.003.079.119.175.226.285.317.096.079.202.145.316.198-.041-.042-.067-.086-.082-.133-.021-.065-.023-.136-.023-.217,0-.017-.003-.056-.014-.083-.006-.014-.013-.024-.023-.024-.008,0-.015.008-.022.022-.008.017-.014.041-.015.068-.002.037-.03.061-.066.061-.038,0-.066-.027-.066-.066v-.253c0-.061-.002-.09-.033-.145-.019-.033-.043-.059-.065-.074-.02-.014-.039-.019-.051-.012-.015.009-.016.034-.015.054v.125c0,.038-.028.066-.066.066-.033,0-.067-.022-.067-.066v-.277c0-.034,0-.051-.019-.084-.011-.018-.023-.033-.035-.041-.022-.017-.024-.007-.024.016v.109c0,.02-.007.036-.018.047-.013.013-.031.019-.048.019-.033,0-.066-.022-.066-.066v-.033c0-.037-.013-.059-.038-.085-.018-.018-.037-.03-.055-.036-.041-.012-.039.01-.039.041v.157c0,.038-.028.066-.066.066-.022,0-.091.007-.105.027-.001.002-.002.005,0,.008.004.006.013.014.029.024l.173.1c.033.019.043.057.024.09-.019.033-.056.044-.09.025l-.039-.022c-.025-.015-.05-.024-.072-.025-.02-.001-.037.003-.049.015-.015.016-.019.042-.012.072.008.032.029.066.06.097.049.049.086.063.155.063h.243c.039,0,.066.028.066.066s-.027.066-.066.066h-.153c-.034,0-.075,0-.093.03-.012.021-.007.05.011.08.02.032.054.065.097.09.038.022.081.039.121.04.031,0,.061-.009.087-.035.017-.015.033-.033.049-.049.027-.027.066-.026.093,0,.027.027.027.066,0,.094-.005.005-.014.015-.009.022.007.012.033.016.046.016.031,0,.084-.023.114-.035.049-.02.091-.037.172-.037.028,0,.056.002.082.006Z" fill="#007c29" fill-rule="evenodd"/>
        <path d="M14.413,15.013c.008.03-.01.061-.04.069-.03.008-.061-.01-.069-.04l-.032-.12c-.008-.03.01-.061.04-.069.03-.008.061.01.069.04l.032.12Z" fill="#fed700" fill-rule="evenodd"/>
        <path d="M14.655,14.542c-.031,0-.056-.025-.056-.056s.025-.056.056-.056h.125c.031,0,.056.025.056.056s-.025.056-.056.056h-.125Z" fill="#fed700" fill-rule="evenodd"/>
        <path d="M14.674,14.406v-.048c0-.024.02-.044.044-.044.024,0,.044.02.044.044v.048h-.088Z" fill="#fed700" fill-rule="evenodd"/>
        <path d="M14.255,14.945l.023.084-.046.013c-.024.006-.047-.008-.054-.031-.006-.023.008-.047.031-.054l.046-.012Z" fill="#fed700" fill-rule="evenodd"/>
        <path d="M14.677,14.852c-.029-.025-.059-.048-.093-.067l-.174.128.01.039.256-.1Z" fill="#fed700" fill-rule="evenodd"/>
        <path d="M14.601,14.768c.032.019.062.041.09.065l.041-.268h-.041l-.089.203Z" fill="#fed700" fill-rule="evenodd"/>
        <path d="M13.036,13.772c0,.031-.025.056-.056.056s-.056-.025-.056-.056v-.125c0-.031.025-.056.056-.056s.056.025.056.056v.125Z" fill="#fed700" fill-rule="evenodd"/>
        <path d="M12.9,13.666v.088h-.048c-.024,0-.044-.019-.044-.044,0-.024.02-.044.044-.044h.048Z" fill="#fed700" fill-rule="evenodd"/>
        <path d="M13.382,13.367c-.03-.008-.047-.04-.039-.07.009-.03.04-.048.07-.039l.12.034c.03.009.047.04.039.07-.008.03-.04.047-.07.039l-.12-.034Z" fill="#fed700" fill-rule="evenodd"/>
        <path d="M13.522,13.265l-.084-.024.013-.046c.006-.023.031-.037.054-.03.023.007.037.031.03.054l-.013.046Z" fill="#fed700" fill-rule="evenodd"/>
        <path d="M12.728,13.315c.031.005.063.008.096.009.091.004.177.028.253.069.011.006.023.012.033.02-.019-.024-.038-.049-.056-.074-.044-.063-.084-.13-.119-.2-.024-.051-.052-.1-.082-.148-.03-.048-.063-.093-.098-.137-.004-.005-.003-.012.002-.016.005-.004.012-.003.016.002.036.044.069.09.099.139.03.048.058.098.083.15.034.069.073.135.117.197.041.058.086.112.134.163-.053-.123-.07-.26-.045-.398.007-.04.011-.081.011-.122,0-.016-.001-.063-.022-.068-.022-.006-.05.036-.058.051-.017.03-.051.039-.081.022-.03-.018-.04-.051-.023-.082l.042-.073c.031-.054.042-.099.042-.161,0-.056-.012-.106-.032-.142-.018-.034-.043-.055-.07-.055-.051,0-.081.071-.091.112l-.024.09c-.009.034-.04.051-.073.042-.033-.009-.051-.039-.042-.073.005-.02.01-.04.016-.06.013-.049.018-.1-.009-.145-.011-.019-.027-.03-.043-.03-.026,0-.039.024-.05.043l-.016.028c-.017.03-.052.039-.081.022-.02-.011-.032-.032-.031-.055,0-.006,0-.01.001-.016,0-.022-.006-.041-.015-.055-.008-.012-.019-.02-.031-.02-.023,0-.037.028-.042.047-.006.024-.026.041-.05.045-.025.004-.047-.008-.06-.029-.007-.012-.023-.031-.039-.026-.023.006-.022.047-.017.065.007.028.019.043.048.05l.019.005c.033.009.05.04.041.073-.009.033-.039.051-.073.042l-.031-.008c-.024-.006-.065-.009-.08.016-.021.039.032.088.062.105.016.009.032.015.05.02l.266.072c.033.009.05.039.042.073-.009.033-.039.052-.073.043l-.212-.057c-.022-.005-.05-.006-.067.011-.014.015-.018.039-.011.066.007.029.026.061.054.09.047.047.095.058.159.058h.263c.035,0,.059.025.059.06s-.025.06-.059.06h-.092c-.025,0-.046.004-.058.012-.005.003-.012.008-.012.015,0,.011.016.023.024.028.033.02.095.032.133.038Z" fill="#007c29" fill-rule="evenodd"/>
        <path d="M13.348,13.664l.104-.254-.039-.011-.133.175c.02.032.043.062.069.09Z" fill="#fed700" fill-rule="evenodd"/>
        <path d="M13.059,13.713l.269-.037c-.025-.028-.048-.057-.067-.089l-.201.084v.041Z" fill="#fed700" fill-rule="evenodd"/>
        <path d="M12.135,12.125c-.015.027-.049.037-.076.022-.027-.016-.037-.051-.022-.078l.06-.109c.015-.028.049-.037.076-.022.027.015.037.05.022.077l-.06.11Z" fill="#fed700" fill-rule="evenodd"/>
        <path d="M12.068,11.964l-.042.077-.042-.024c-.021-.012-.029-.039-.017-.06.011-.021.038-.029.059-.017l.042.024Z" fill="#fed700" fill-rule="evenodd"/>
        <path d="M12.635,11.947c-.022-.022-.021-.058.002-.079.023-.021.059-.02.081.002l.087.09c.021.022.021.058-.002.079-.023.021-.059.02-.08-.002l-.087-.09Z" fill="#fed700" fill-rule="evenodd"/>
        <path d="M12.808,11.93l-.061-.063.035-.033c.018-.016.046-.016.063.002.017.017.016.045-.002.061l-.035.033Z" fill="#fed700" fill-rule="evenodd"/>
        <path d="M12.46,12.185l.214-.165-.028-.029-.203.085c.009.036.015.072.017.11Z" fill="#fed700" fill-rule="evenodd"/>
        <path d="M12.182,12.086l.255.104c-.003-.038-.008-.076-.018-.112l-.218-.028-.019.036Z" fill="#fed700" fill-rule="evenodd"/>
        <path d="M12.327,11.839c-.02-.058-.037-.118-.051-.179h0c-.022-.1-.033-.204-.033-.31,0-.053.003-.107.009-.16,0-.006.006-.011.013-.01.006,0,.011.007.01.013-.006.052-.008.105-.008.158,0,.105.011.207.032.305h0c.018.085.044.167.076.246,0-.006,0-.013,0-.019,0-.041.007-.081.02-.118.013-.038.032-.074.056-.105.005-.007.018-.03.01-.039-.004-.004-.011-.003-.016-.002-.019.004-.038-.005-.047-.022-.012-.022-.006-.047.016-.06.04-.025.087-.051.129-.074.017-.01.039-.027.054-.047.012-.016.023-.037.012-.057-.007-.012-.022-.018-.041-.018-.022,0-.048.006-.073.02-.033.019-.071.008-.09-.025h0c-.019-.034-.009-.071.024-.09l.138-.08c.04-.023.072-.051.091-.076.017-.023.024-.043.018-.056-.006-.01-.022-.016-.043-.015-.024,0-.055.008-.088.023-.033.013-.063,0-.081-.029-.019-.033-.009-.071.024-.09.023-.013.041-.025.056-.04.015-.014.028-.032.042-.055.021-.037.033-.076.033-.108,0-.029-.008-.053-.025-.063-.016-.009-.038-.006-.06.006-.025.013-.051.037-.072.069-.015.025-.046.039-.075.032-.015-.004-.029-.013-.039-.03-.007-.012-.016-.022-.03-.025-.018-.005-.039.004-.058.023-.037.037-.058.102-.056.154.001.021.005.039.013.054.014.032.003.065-.027.083-.03.017-.066.012-.086-.016-.02-.032-.057-.064-.097-.053-.06.016-.065.101-.052.151h0c.01.038.033.078.069.097l.06.035c.033.019.043.057.024.09-.019.033-.057.044-.09.025l-.039-.023c-.025-.016-.051-.026-.073-.028-.021-.002-.038.003-.05.015-.016.016-.019.041-.012.069.012.051.06.108.108.132.018.009.037.015.062.021l.101.028c.024.007.037.029.031.054-.002.01-.008.019-.016.025-.003.003-.004.005-.003.009.003.011.016.024.025.03.069.041.129.094.178.157Z" fill="#007c29" fill-rule="evenodd"/>
        <path d="M16.276,15.476c.027,0,.05.01.062.025.044-.066.092-.123.143-.168.004-.004.009-.008.014-.012l-.008.004c-.076.041-.148.092-.214.151h.003Z" fill="#007c29" fill-rule="evenodd"/>
        <path d="M15.526,11.253c.049-.038.058-.109.02-.158-.038-.049-.108-.058-.158-.02l-.127.099c-.049.038-.058.109-.02.158.038.049.109.058.158.02l.127-.099Z" fill="#fed700" fill-rule="evenodd"/>
        <path d="M15.205,11.501c-.043.003-.087-.015-.116-.052-.029-.037-.035-.084-.021-.125l-.045.035c-.049.038-.058.109-.02.158.038.049.108.058.158.02l.045-.035Z" fill="#fed700" fill-rule="evenodd"/>
        <path d="M15.1,11.582c-.043.003-.087-.015-.116-.052-.028-.037-.035-.084-.021-.125l-.025.019c-.049.038-.058.108-.02.157.038.049.108.058.158.02l.024-.019Z" fill="#fed700" fill-rule="evenodd"/>
        <path d="M14.919,11.409s.003-.003.005-.004l.059-.046-.033-.042c-.032-.041-.045-.083-.044-.123-.023.022-.04.052-.044.084-.004.032.005.067.031.1l.025.032Z" fill="#fed700" fill-rule="evenodd"/>
        <path d="M15.366,11.064c-.014-.024-.021-.051-.022-.078,0-.024.004-.049.014-.072-.03.001-.059.012-.082.031-.031.025-.049.06-.053.096-.005.037.005.075.03.106l.003.003.112-.086Z" fill="#4d4d4d" fill-rule="evenodd"/>
        <path d="M15.087,11.279l-.039-.049c-.037-.047-.058-.107-.046-.167-.002.002-.003.003-.005.004-.035.028-.061.068-.066.113-.005.039.006.081.038.122l.033.042.085-.066Z" fill="#fed700" fill-rule="evenodd"/>
        <path d="M14.754,7.67l-.052.041c.015.042.023.087.025.132,0,.027,0,.053-.005.08.018-.032.03-.066.037-.101.01-.05.008-.102-.005-.151Z" fill="#fed700" fill-rule="evenodd"/>
        <path d="M14.745,8.702c-.019-.051-.025-.106-.019-.159.006-.052.024-.103.054-.148l-.109.016c-.037.005-.073-.005-.101-.026-.028-.021-.048-.052-.054-.09l-.003-.02h-.065c-.023,0-.044-.009-.059-.024-.015-.015-.025-.036-.025-.059,0-.007.005-.012.012-.012.006,0,.011.005.011.012,0,.016.007.031.018.042.011.011.026.018.042.018h.075c.036-.003.072-.01.106-.024.033-.013.065-.031.095-.054l.059-.047c.035-.028.06-.067.071-.11l-.093.072c-.039.031-.083.051-.128.063-.047.012-.096.013-.143.005-.006-.001-.01-.007-.009-.012,0-.048.011-.095.031-.139.019-.041.046-.079.082-.111l.016-.136s.002-.006.005-.008l.182-.144c-.014-.013-.031-.021-.049-.023-.021-.002-.044.003-.062.017l-.042.033c-.005.004-.013.003-.017-.003-.014-.018-.035-.028-.056-.031-.021-.003-.044.003-.062.017l-.302.238c-.044.035-.069.084-.075.135-.006.052.007.106.042.149l.02.025s.002.003.002.005l.052.358c.01.066.045.122.095.159.05.037.114.055.179.046l.222-.033h0ZM14.545,7.659c.021,0,.039.017.039.039s-.017.039-.039.039-.039-.017-.039-.039.017-.039.039-.039h0ZM14.408,8.09c0,.006-.006.011-.013.01-.006,0-.01-.007-.01-.013.007-.044.02-.088.04-.128.02-.04.045-.077.077-.11.004-.005.012-.005.016,0,.005.004.005.012,0,.016-.029.031-.054.066-.073.104-.018.038-.031.079-.038.121h0ZM14.253,7.916c.005-.004.012-.003.016.002.004.005.003.012-.002.016-.022.018-.036.043-.039.07-.003.027.004.055.022.077.004.005.003.012-.002.016-.005.004-.012.003-.016-.002-.022-.028-.03-.061-.026-.094.004-.032.02-.064.047-.085Z" fill="#993" fill-rule="evenodd"/>
        <path d="M15.518,7.938l.292-.231c.076-.06.12-.146.131-.235.01-.088-.012-.181-.071-.256.014.068.011.138-.008.205-.024.082-.072.157-.144.214l-.024.019s-.007.004-.012.002c-.006-.002-.009-.008-.007-.015.02-.056.026-.117.016-.176-.009-.056-.032-.111-.069-.158.012.06.011.121-.002.18-.017.075-.054.145-.109.202v.002c0,.06-.012.119-.039.173.023.019.039.045.047.075Z" fill="#963" fill-rule="evenodd"/>
        <path d="M15.363,8.019c.006.002.011.003.018.003.027,0,.05-.022.05-.05,0-.011-.004-.022-.01-.03l-.057.077Z" fill="#fed700" fill-rule="evenodd"/>
        <path d="M15.434,7.923c.012.013.019.03.019.049,0,.04-.033.073-.073.073-.011,0-.022-.003-.031-.007l-.028.037c.017.01.038.016.059.016.065,0,.118-.053.118-.119,0-.035-.015-.066-.039-.088-.007.012-.014.024-.023.035l-.002.003Z" fill="#f60" fill-rule="evenodd"/>
        <path d="M17.007,8.251c.018.056.054.104.101.138.046.033.102.052.162.052.052,0,.103-.014.147-.041-.031-.019-.057-.044-.079-.073-.025-.033-.043-.072-.052-.114-.052-.225-.179-.421-.354-.56-.171-.136-.388-.218-.624-.218-.036,0-.071.002-.107.006.002.029,0,.057-.002.086-.008.066-.029.13-.063.188h.172c.2,0,.381.081.512.212.088.088.154.2.187.324Z" fill="#963" fill-rule="evenodd"/>
        <path d="M16.219,8.976l.122-.209c.038-.066.06-.134.067-.203-.017.054-.047.103-.086.142-.062.062-.149.101-.244.101-.026,0-.052-.003-.077-.009l-.232.401c-.005.009-.01.017-.014.026.094-.002.182-.026.259-.067.082-.044.152-.106.205-.182Z" fill="#630" fill-rule="evenodd"/>
        <path d="M15.231,8.195l.209.083.234-.101c.048-.021.099-.02.144-.002.045.017.083.052.103.1.004.009.007.019.01.028.031.004.061.015.088.03.046.027.084.069.101.12.017.051.014.111-.021.173l-.022.038c-.027.044-.068.079-.116.098.038.013.077.021.117.021.089,0,.169-.036.228-.094.058-.058.094-.139.094-.228,0-.034-.005-.069-.016-.102-.038-.108-.115-.204-.225-.268-.038-.022-.079-.039-.121-.051h-.266c-.007,0-.012-.005-.012-.012,0-.004.002-.007.005-.009l.242-.191c.098-.078.155-.189.169-.304.012-.108-.013-.221-.079-.315-.008.04-.023.079-.042.115-.022.041-.052.078-.088.111,0,.013-.001.026-.003.039-.011.095-.059.186-.139.251-.102.076-.203.16-.303.239,0,.003,0,.005,0,.008,0,.078-.063.142-.142.142-.027,0-.052-.008-.073-.02l-.076.102Z" fill="#630" fill-rule="evenodd"/>
        <path d="M15.09,8.139l.119.047.209-.281c.047-.063.07-.14.069-.216-.001-.074-.025-.147-.074-.21.014.068.01.139-.008.205-.024.082-.072.158-.144.214l-.156.123c-.018.014-.028.035-.031.056-.002.021.003.043.016.06Z" fill="#963" fill-rule="evenodd"/>
        <path d="M14.545,7.682c.009,0,.016.007.016.016,0,.009-.007.016-.016.016-.009,0-.016-.007-.016-.016,0-.009.007-.016.016-.016Z" fill="#fed700" fill-rule="evenodd"/>
        <path d="M18.277,11.174l1.343,1.105c.055.045.121.069.186.069.061,0,.12-.021.167-.068l.126-.126-1.822-1.368v.388Z" fill="#630" fill-rule="evenodd"/>
        <path d="M18.277,11.383l1.016.903c.045.046.105.07.165.072.057.003.114-.014.161-.05-.005-.003-.009-.007-.014-.011l-1.328-1.093v.179Z" fill="#963" fill-rule="evenodd"/>
        <path d="M18.277,11.639l.687.653c.046.046.105.07.165.072.056.002.113-.014.16-.049-.005-.004-.009-.008-.013-.012l-1-.889v.225Z" fill="#630" fill-rule="evenodd"/>
        <path d="M18.277,11.938l.359.359c.046.046.105.07.165.072.056.003.113-.014.16-.049-.005-.004-.009-.008-.014-.012l-.671-.637v.267Z" fill="#630" fill-rule="evenodd"/>
        <path d="M18.049,11.307c.014.054.042.101.079.139.035.035.077.062.125.078v-.793c0-.081-.021-.161-.062-.231l-.039-.068c-.011,0-.023.001-.034.001-.096,0-.19-.027-.272-.075-.038-.022-.073-.049-.105-.079l.043.074c.054.095.101.196.137.301.035.102.061.208.076.318l.052.334Z" fill="#630" fill-rule="evenodd"/>
        <path d="M18.254,11.548c-.054-.017-.103-.047-.141-.086-.019-.019-.035-.04-.049-.063l.114.74c.021-.024.039-.051.052-.081.015-.035.024-.075.024-.117v-.393Z" fill="#963" fill-rule="evenodd"/>
        <path d="M17.664,9.586c-.027.005-.055.007-.082.007-.078,0-.151-.02-.216-.054-.032-.017-.061-.037-.088-.061l.386.668c.047.08.114.146.194.192.078.046.168.071.26.071.063,0,.126-.013.184-.038-.062-.013-.12-.039-.17-.073-.062-.042-.113-.097-.15-.162l-.318-.551Z" fill="#630" fill-rule="evenodd"/>
        <path d="M17.031,8.775c0,.1.04.191.106.256.065.066.156.106.256.106h.011s-.092-.16-.092-.16c-.001-.002-.002-.004-.002-.007v-.51c-.014.002-.027.003-.041.003-.065,0-.126-.021-.175-.057-.027-.02-.051-.044-.07-.071.005.034.007.068.007.102v.337Z" fill="#630" fill-rule="evenodd"/>
        <path d="M17.419,9.16h-.024c-.107,0-.203-.042-.273-.112-.039-.039-.069-.086-.089-.139.005.103.035.202.086.291l.102.176c.04.059.093.108.157.142.061.033.131.051.205.051.023,0,.046-.002.069-.006l-.233-.405Z" fill="#963" fill-rule="evenodd"/>
        <path d="M16.727,8.411c.005.073.038.14.088.187.053.05.121.075.193.075v-.235c0-.193-.079-.369-.205-.495-.127-.127-.302-.205-.495-.205h-.186c-.027.041-.061.078-.101.109l-.216.171h.503c.116,0,.222.047.298.123.069.069.114.166.122.27Z" fill="#630" fill-rule="evenodd"/>
        <path d="M16.375,8.752c.018.003.036.005.054.005.077,0,.146-.031.196-.081.072-.072.081-.14.081-.234,0-.11-.044-.214-.116-.286-.072-.072-.171-.117-.281-.117h-.2c.021.009.042.02.062.031.126.073.211.186.245.314.031.118.02.247-.041.367Z" fill="#963" fill-rule="evenodd"/>
        <path d="M16.51,9.077l.093-.159c.07-.121.092-.209.099-.313-.015.033-.036.063-.061.088-.054.054-.129.088-.212.088-.022,0-.044-.003-.065-.007l-.002.005-.245.419c-.012.022-.024.045-.034.068.023.004.046.006.07.006.145,0,.279-.073.357-.194Z" fill="#963" fill-rule="evenodd"/>
        <path d="M16.323,10.387c.055-.09.084-.193.084-.299,0-.053-.008-.107-.022-.158-.031-.096-.046-.197-.046-.303,0-.149.037-.312.11-.444-.082.071-.186.111-.296.111-.026,0-.053-.002-.079-.007-.043.106-.065.22-.065.335,0,.139.031.275.094.399.062.129.136.251.22.366Z" fill="#630" fill-rule="evenodd"/>
        <path d="M16.038,9.932c-.035-.099-.054-.203-.054-.31,0-.153.038-.302.111-.436l.06-.102c-.039.037-.084.069-.132.094-.048.025-.1.045-.154.056-.054.062-.098.133-.128.212h0c-.029.077-.045.16-.045.248,0,.08.014.16.041.235.012.033.025.065.038.098.035.094.047.195.032.294.067-.009.128-.041.173-.091.074-.08.095-.195.058-.297Z" fill="#963" fill-rule="evenodd"/>
        <path d="M15.338,11.398h0c-.043.003-.087-.016-.115-.052-.029-.037-.035-.084-.021-.126l-.073.057c-.049.038-.058.108-.02.158.038.049.109.058.158.02l.073-.056Z" fill="#fed700" fill-rule="evenodd"/>
        <path d="M15.563,11.252l.08.009c.044.005.086-.008.119-.034.031-.025.054-.061.06-.104l-.067-.084c-.032.064-.078.122-.137.169l-.055.043Z" fill="#963" fill-rule="evenodd"/>
        <path d="M15.587,11.204l.017-.013c.103-.082.164-.198.178-.321.014-.122-.018-.25-.099-.353-.074-.093-.192-.139-.309-.121l-.262.039c-.06.01-.119.002-.174-.024-.055-.025-.106-.066-.151-.124-.068-.086-.098-.178-.09-.265,0-.004,0-.007.001-.011-.017.043-.028.087-.033.132-.015.131.019.268.107.379l.211.267c.059.008.119.008.181-.001l.242-.035s.01.001.012.006c.025.051.012.114-.032.151-.012.023-.019.049-.018.075,0,.023.007.045.018.065.058-.037.137-.024.179.032.028.036.035.082.022.122Z" fill="#fed700" fill-rule="evenodd"/>
        <path d="M15.414,8.482l.229-.099c.016-.007.035-.007.05,0,.015.006.029.018.036.035.002.006,0,.012-.006.015-.006.003-.012,0-.015-.006-.004-.011-.013-.019-.023-.023-.01-.004-.022-.004-.033,0l-.223.096.098.124.287-.123c.042-.018.072-.052.088-.091.015-.039.016-.084-.002-.126-.018-.042-.051-.072-.09-.088-.039-.016-.085-.016-.126.002l-.238.103s-.006.001-.009,0l-.351-.14-.219.173c-.068.054-.108.131-.117.211-.01.081.012.165.065.233.048.061.115.1.186.114.068.013.141.005.205-.027l-.101-.127c-.038-.048-.051-.099-.045-.146.006-.054.037-.102.079-.136.042-.033.096-.052.15-.045.044.005.089.027.126.07h0ZM15.058,8.241c.024,0,.043.02.043.043s-.019.043-.043.043-.043-.02-.043-.043.019-.043.043-.043h0ZM15.058,8.265c.011,0,.02.009.02.02,0,.011-.009.02-.02.02-.011,0-.02-.009-.02-.02,0-.011.009-.02.02-.02Z" fill="#fed700" fill-rule="evenodd"/>
        <path d="M15.252,11.494l.005.007c.024.03.058.048.094.053.032.004.066-.002.095-.02l-.093-.118-.101.078Z" fill="#4d4d4d" fill-rule="evenodd"/>
        <path d="M15.152,11.571l.005.004c.029.022.064.031.098.028.027-.002.053-.012.075-.029-.035-.008-.068-.028-.092-.059l-.005-.007-.081.063Z" fill="#4d4d4d" fill-rule="evenodd"/>
        <path d="M15.072,11.631c.027.011.053.015.081.009.018-.003.035-.01.05-.019-.021-.005-.041-.014-.06-.028l-.01-.007-.044.034c-.006.004-.011.008-.017.011Z" fill="#4d4d4d" fill-rule="evenodd"/>
        <path d="M13.657,9.524c-.026.004-.047.022-.054.048-.006.025.003.052.024.068.026.02.037.046.035.079-.002.031.018.059.048.067.035.009.069-.012.078-.046-.016-.015-.029-.035-.036-.056-.007-.023-.009-.048-.002-.074.006-.025.019-.047.037-.064.016-.015.037-.027.058-.032.009-.034-.012-.069-.046-.078-.03-.008-.062.007-.075.035-.013.029-.036.047-.068.053Z" fill="#fed700" fill-rule="evenodd"/>
        <path d="M13.639,9.704c-.002-.018-.01-.033-.025-.045-.029-.021-.042-.058-.033-.092.009-.034.037-.06.073-.065.019-.003.034-.012.044-.028.007-.034-.014-.067-.047-.076-.029-.008-.06.006-.074.034-.014.03-.036.051-.07.055-.026.004-.046.023-.053.048-.007.027.003.052.025.068.025.02.036.046.034.079-.002.031.018.059.049.067.034.008.068-.011.078-.044Z" fill="#fed700" fill-rule="evenodd"/>
        <path d="M14.841,11.317c-.038.01-.077.009-.114-.002-.04-.012-.077-.036-.105-.071-.026-.033-.039-.067-.044-.109-.01-.068-.027-.132-.053-.193-.066-.155-.187-.289-.334-.372-.082-.046-.14-.151-.099-.243l.088-.221c.027-.075.035-.143.023-.208-.021-.117-.111-.232-.209-.297-.043-.029-.089-.05-.139-.065-.02.004-.037.014-.052.027-.014.014-.025.032-.031.052-.005.021-.004.042.002.061.006.019.018.037.033.05.029.016.055.037.076.064.024.03.041.066.048.104.007.035.005.072-.008.108-.036.088-.068.179-.105.266-.034.075-.042.153-.03.229.012.082.048.16.1.225.039.05.088.092.143.123.059.034.109.077.151.13.038.048.064.095.082.146.018.05.026.104.029.164.004.099.043.196.104.274.07.088.169.153.279.173.105.019.22-.003.332-.084-.041,0-.081-.018-.108-.052-.039-.051-.036-.122.003-.169l-.027-.034c-.019-.024-.03-.05-.035-.074Z" fill="#993" fill-rule="evenodd"/>
        <path d="M13.501,9.36c-.03-.007-.06.007-.074.034-.014.03-.036.051-.07.055-.026.004-.046.023-.053.048-.006.027.004.052.025.069.025.02.036.046.034.078-.002.031.018.059.049.067.034.008.068-.011.078-.044-.002-.018-.01-.033-.025-.045-.029-.02-.041-.059-.033-.092.009-.035.038-.06.073-.065.021-.003.035-.012.045-.028.006-.034-.014-.067-.047-.075Z" fill="#fed700" fill-rule="evenodd"/>
        <path d="M16.349,11.226c-.005-.015-.01-.03-.015-.046-.016-.055-.029-.111-.038-.169l-.201-.054c.018.063.051.12.095.166.044.046.098.081.159.102Z" fill="#963" fill-rule="evenodd"/>
        <path d="M15.877,11.557h.347l-.22-.278-.107.085c-.005.004-.012.003-.016-.002-.004-.005-.003-.012.002-.016l.116-.092c.02-.016.031-.038.034-.061.003-.024-.003-.048-.019-.068l-.209-.264s0,.008-.001.012c-.006.049-.019.098-.038.143l.077.098s.003.005.003.008c-.006.05-.032.094-.069.123-.037.029-.086.045-.136.039l-.101-.012-.169.13c.038.048.076.095.113.143.015.02.038.031.061.034.023.003.048-.003.068-.019.052-.039.104-.082.155-.122.005-.004.012-.003.016.002h0c.031.039.062.079.093.118Z" fill="#fed700" fill-rule="evenodd"/>
        <path d="M16.383,11.557c.029-.024.059-.046.092-.065-.046-.075-.085-.154-.116-.238h-.006c-.051,0-.099.011-.143.029-.042.018-.081.044-.113.076l.156.197h.129Z" fill="#630" fill-rule="evenodd"/>
        <path d="M16.223,11.758c.032-.063.075-.12.124-.169.003-.003.006-.006.01-.009h-.569c.057.05.122.091.193.122.075.032.157.052.242.056Z" fill="#963" fill-rule="evenodd"/>
        <path d="M16.646,11.424c-.005-.04-.007-.08-.007-.121,0-.051.003-.102.011-.153-.059-.041-.116-.084-.171-.13-.061-.05-.12-.104-.175-.16.005.109.023.214.053.315.033.109.08.213.139.307.047-.025.098-.045.151-.058Z" fill="#963" fill-rule="evenodd"/>
        <path d="M16.731,11.739c-.003-.008-.007-.016-.01-.024-.035-.084-.059-.175-.072-.268-.109.028-.207.083-.285.159-.076.075-.134.169-.165.274l.531-.142Z" fill="#630" fill-rule="evenodd"/>
        <path d="M16.951,11.528l-.281-.355c-.005.043-.008.086-.008.13,0,.143.028.28.08.404.05.12.121.23.209.324v-.502Z" fill="#630" fill-rule="evenodd"/>
        <path d="M17.507,11.826l-.155-.197c.012.037.018.076.018.117,0,.056-.012.11-.036.16.025.03.046.063.062.099l.142.333c.02-.02.036-.043.047-.069.022-.048.026-.103.014-.154l-.093-.288Z" fill="#630" fill-rule="evenodd"/>
        <path d="M17.586,11.5c.006.029.009.06.009.091,0,.082-.022.161-.065.231l.128.4c.017.053.056.107.098.143.038.032.083.056.133.069l-.128-.465c-.026-.09-.053-.181-.086-.268-.026-.069-.056-.137-.09-.202Z" fill="#630" fill-rule="evenodd"/>
        <path d="M17.514,11.376l-.224-.378c-.054-.095-.122-.183-.201-.259.007.011.013.022.019.033.032.064.05.136.05.212,0,.031-.003.062-.009.092-.002.009-.01.011-.018.007l-.07-.037c-.1-.053-.196-.113-.286-.179.042.047.082.094.121.144l.622.788c.037-.064.056-.136.056-.209,0-.075-.02-.15-.058-.214Z" fill="#963" fill-rule="evenodd"/>
        <path d="M16.658,11.127c.024-.049.036-.103.036-.157,0-.095-.037-.185-.104-.252-.035-.032-.069-.065-.102-.099-.165-.172-.303-.37-.407-.587l-.002-.003c0,.081-.027.156-.082.216-.024.026-.053.049-.084.065.074.13.159.253.254.367.042.05.085.098.13.145h0s0,0,0,0h0c.061.063.126.123.194.179.053.044.108.086.165.126Z" fill="#630" fill-rule="evenodd"/>
        <path d="M16.678,10.802c.026.052.039.11.039.168,0,.06-.014.119-.041.173l.62.785c.033-.055.051-.118.051-.182,0-.042-.007-.081-.02-.118-.015-.041-.035-.074-.061-.108l-.39-.493c-.046-.058-.091-.113-.141-.167-.018-.02-.037-.039-.056-.058Z" fill="#630" fill-rule="evenodd"/>
        <path d="M17.07,11.027l.058.031c.004-.024.006-.048.006-.073,0-.072-.017-.141-.048-.201-.025-.05-.072-.112-.117-.145-.059-.043-.115-.088-.169-.137-.121-.11-.228-.234-.318-.371-.021-.032-.039-.064-.056-.097.002.018.003.035.003.053,0,.113-.032.223-.092.319.052.069.108.134.168.196.028.029.057.057.086.085.144.133.305.248.478.339Z" fill="#630" fill-rule="evenodd"/>
        <path d="M17.703,11.71c.028-.028.052-.061.068-.098.041-.091.037-.198-.01-.286l-.29-.502c-.093.012-.187-.002-.273-.042-.028-.015-.056-.03-.083-.047.075.075.141.16.193.252l.268.451c.048.081.087.167.12.255l.006.016Z" fill="#630" fill-rule="evenodd"/>
        <path d="M17.823,11.492c-.002.046-.012.089-.03.129-.019.043-.047.081-.081.113.027.075.05.153.072.23l.041.149c.019.057.05.11.088.155.036.042.08.078.129.105l-.213-.852c-.002-.009-.004-.018-.006-.028Z" fill="#963" fill-rule="evenodd"/>
        <path d="M18.08,11.654c-.052-.019-.1-.046-.142-.081-.04-.033-.074-.074-.101-.118.006.02.011.039.015.06l.162.65c.03-.027.056-.06.073-.097.026-.055.036-.116.028-.176l-.037-.237Z" fill="#630" fill-rule="evenodd"/>
        <path d="M20.179,12.419c.036,0,.065.029.065.065,0,.036-.029.065-.065.065s-.065-.029-.065-.065c0-.036.029-.065.065-.065Z" fill="#fed700" fill-rule="evenodd"/>
        <path d="M19.818,12.548c.036,0,.065.029.065.065,0,.036-.029.065-.065.065-.036,0-.065-.029-.065-.065,0-.036.029-.065.065-.065Z" fill="#fed700" fill-rule="evenodd"/>
        <path d="M19.952,12.623c.036,0,.065.029.065.065,0,.036-.029.065-.065.065-.036,0-.065-.029-.065-.065,0-.036.029-.065.065-.065Z" fill="#fed700" fill-rule="evenodd"/>
        <path d="M20.031,12.649l.092-.097c-.007-.005-.013-.012-.017-.02l-.106.081c.013.009.024.021.031.035Z" fill="#fed700" fill-rule="evenodd"/>
        <path d="M20.011,12.764c.036,0,.065.029.065.065s-.029.065-.065.065c-.036,0-.065-.029-.065-.065s.029-.065.065-.065Z" fill="#fed700" fill-rule="evenodd"/>
        <path d="M19.576,13.023c.027.031.072.042.122.035.051-.008.108-.034.157-.079.033-.03.062-.066.08-.107-.008-.013-.012-.028-.012-.044,0-.02.007-.039.018-.053-.044-.005-.078-.042-.078-.087-.013.008-.029.013-.045.013-.02,0-.038-.006-.052-.018-.042.014-.081.039-.114.068-.05.044-.083.098-.096.148-.012.048-.007.093.02.124Z" fill="#f9c" fill-rule="evenodd"/>
        <path d="M18.614,12.692c.031-.054.013-.122-.041-.153-.054-.031-.123-.012-.154.041l-.08.14c-.031.054-.012.122.041.153.054.031.122.012.153-.041l.08-.14Z" fill="#fed700" fill-rule="evenodd"/>
        <path d="M17.33,12.809c-.031-.054-.012-.122.041-.153.054-.031.122-.013.153.041l.081.14c.031.054.012.122-.041.153-.054.031-.122.013-.153-.041l-.08-.14Z" fill="#fed700" fill-rule="evenodd"/>
        <path d="M17.133,12.55h-.005c-.04,0-.076.016-.102.043-.026.026-.042.062-.042.102,0,.03.009.059.027.084.012-.022.028-.041.048-.055.022-.016.047-.027.075-.031v-.142Z" fill="#4d4d4d" fill-rule="evenodd"/>
        <path d="M17.315,12.83c-.036.021-.06.05-.071.09-.009.036-.005.075.014.109.015.026.038.046.065.059,0-.025.004-.049.014-.071.011-.025.027-.047.049-.064l-.071-.123Z" fill="#4d4d4d" fill-rule="evenodd"/>
        <path d="M18.558,12.836c.022.018.038.04.049.064.01.022.015.047.014.072.027-.012.05-.033.065-.059.02-.034.024-.074.014-.11-.011-.041-.035-.069-.071-.09l-.071.123Z" fill="#4d4d4d" fill-rule="evenodd"/>
        <path d="M18.712,14.203c.073,0,.132.059.132.132s-.059.132-.132.132c-.073,0-.132-.059-.132-.132s.059-.132.132-.132Z" fill="#0cf" fill-rule="evenodd"/>
        <path d="M15.469,13.196c.073,0,.132.059.132.132s-.059.132-.132.132-.132-.059-.132-.132.059-.132.132-.132Z" fill="#0cf" fill-rule="evenodd"/>
        <path d="M14.683,13.833c.073,0,.132.059.132.132s-.059.132-.132.132c-.073,0-.132-.059-.132-.132s.059-.132.132-.132Z" fill="#0cf" fill-rule="evenodd"/>
        <path d="M14.229,13.037c-.053,0-.096.016-.115.049-.019.033-.012.078.015.124.029.048.078.096.143.133.034.019.07.035.108.045.06.016.121-.006.152-.061.032-.055.02-.118-.024-.163-.028-.028-.059-.051-.093-.071-.064-.037-.131-.056-.187-.057Z" fill="#fed700" fill-rule="evenodd"/>
        <path d="M15.45,14.358c-.038-.01-.077-.014-.116-.014-.075,0-.142.017-.19.044-.046.026-.075.061-.075.1s.029.073.075.1c.048.027.116.044.19.044.039,0,.078-.005.116-.015.06-.016.101-.066.101-.129s-.041-.112-.101-.129Z" fill="#fed700" fill-rule="evenodd"/>
        <path d="M16.062,13.906c-.034-.022-.06-.055-.073-.093-.063-.002-.135-.028-.199-.07-.067-.042-.128-.102-.166-.167l-.068-.118c-.025.016-.054.026-.086.026-.003,0-.006,0-.009,0,.008.029.009.061-.006.088-.026.045-.093.067-.191.051-.083-.013-.189-.052-.315-.124l-.375-.216c-.002.019-.009.038-.019.057-.013.022-.03.04-.049.052l.14.081c.108.063.183.125.228.181.055.067.067.127.044.166-.022.038-.07.049-.111.049.02.026.033.058.033.094h.214c.184,0,.326.025.425.063.118.045.177.11.177.176,0,.078-.079.132-.143.162.039.028.063.072.063.124.018-.003.035-.005.053-.006.048-.004.098-.003.146-.003.074,0,.146.019.211.055-.003-.013-.004-.027-.004-.041,0-.062.031-.118.083-.151-.024-.027-.043-.059-.056-.092-.016-.04-.023-.083-.023-.126,0-.043.008-.086.023-.126.013-.034.032-.065.056-.092Z" fill="#00adfe" fill-rule="evenodd"/>
        <path d="M16.912,14.696h.276l-.146-.253c-.058-.1-.074-.176-.09-.251-.015-.073-.031-.147-.086-.243l-.152-.265h-.276l.146.253c.057.1.073.175.089.25.016.074.031.147.087.244l.152.264Z" fill="#f93" fill-rule="evenodd"/>
        <path d="M16.298,14.574c.01.035.031.065.059.087.028.022.063.035.102.035h.426l-.146-.253c-.058-.1-.074-.176-.089-.251-.015-.073-.031-.147-.086-.243l-.153-.265h-.109c.006.018.009.037.009.057,0,.051-.028.095-.083.095-.045,0-.082-.037-.082-.082,0-.006.005-.012.011-.012.006,0,.012.005.012.012,0,.033.026.059.059.059.042,0,.06-.034.06-.072,0-.083-.057-.14-.139-.139-.086,0-.147.064-.147.152,0,.058.032.111.083.138.007.004.008.013.003.018-.027.027-.048.06-.061.095-.014.037-.022.077-.022.117s.007.08.022.117c.014.035.034.068.061.095.004.005.004.012,0,.016,0,0-.002.002-.003.002-.051.027-.083.08-.083.138,0,.087.061.151.147.152.081,0,.139-.056.139-.139,0-.038-.018-.072-.06-.072-.033,0-.059.026-.059.059,0,.006-.005.011-.012.011-.006,0-.011-.005-.011-.011,0-.045.037-.082.082-.082.055,0,.083.044.083.095,0,.025-.005.049-.013.069Z" fill="#f93" fill-rule="evenodd"/>
        <path d="M17.83,14.667c-.052-.003-.094-.027-.12-.065-.013.031-.034.058-.06.078-.032.025-.072.04-.116.04h-1.074c-.044,0-.084-.015-.116-.04-.026-.02-.047-.047-.06-.078-.026.038-.069.062-.12.065.024.022.048.046.07.071.029.032.065.057.103.075.038.017.079.026.123.026h1.074c.044,0,.085-.009.123-.026.039-.017.074-.043.103-.074.023-.025.046-.048.071-.071Z" fill="#00adfe" fill-rule="evenodd"/>
        <path d="M17.195,13.999h-.172c-.006,0-.012-.005-.012-.012v-.302h-.271l.146.253c.057.1.073.175.089.25.015.074.031.147.086.244l.153.265h.276l-.146-.253c-.058-.1-.074-.176-.089-.251-.013-.06-.025-.121-.06-.194Z" fill="#f93" fill-rule="evenodd"/>
        <path d="M17.576,13.685c-.05.081-.078.181-.078.302,0,.007-.005.012-.012.012h-.267c.033.071.045.13.057.189.015.074.031.147.087.244l.153.264h.017c.039,0,.074-.013.102-.035.028-.022.049-.052.059-.087-.009-.02-.013-.044-.013-.069,0-.051.028-.095.083-.095.045,0,.082.037.082.082,0,.006-.005.011-.011.011-.006,0-.012-.005-.012-.011,0-.033-.026-.059-.059-.059-.042,0-.06.034-.06.072,0,.083.057.139.139.139.086,0,.148-.065.148-.152,0-.058-.032-.111-.083-.138-.007-.004-.008-.013-.003-.019.027-.027.048-.06.061-.095.014-.037.022-.077.022-.117s-.007-.081-.022-.117c-.014-.035-.034-.068-.061-.095-.005-.005-.004-.015.003-.018.051-.027.083-.08.083-.138,0-.088-.061-.151-.148-.152-.081,0-.139.055-.139.139,0,.038.018.072.06.072.033,0,.059-.026.059-.059,0-.006.005-.012.012-.012.006,0,.011.005.011.012,0,.045-.037.082-.082.082-.055,0-.083-.044-.083-.095,0-.021.003-.04.008-.057h-.113Z" fill="#f93" fill-rule="evenodd"/>
        <path d="M18.766,13.856l-.258.069c-.1.027-.201.039-.3.037-.089-.002-.176-.014-.26-.037.017.022.03.047.04.073.016.04.024.083.024.126,0,.043-.008.086-.024.126-.013.033-.032.065-.056.092.051.033.082.089.082.151,0,.014-.001.028-.004.041.077-.046.161-.082.25-.108.095-.027.196-.042.299-.042h.006c-.005-.015-.007-.031-.007-.048,0-.007,0-.013.001-.019-.067-.012-.118-.031-.153-.053-.044-.027-.065-.06-.065-.093,0-.033.02-.06.048-.081.037-.028.09-.046.127-.056l.283-.076c-.011-.015-.02-.033-.026-.053-.004-.016-.006-.032-.005-.047Z" fill="#00adfe" fill-rule="evenodd"/>
        <path d="M17.22,12.994c-.057.082-.102.172-.134.268-.034.102-.052.21-.052.323v.391h.441c.003-.177.065-.311.166-.407.116-.109.282-.168.468-.183.109-.009.206-.059.275-.135.069-.075.111-.176.111-.285,0-.022-.002-.044-.005-.066-.038.017-.083.016-.122-.007-.049-.028-.073-.082-.066-.135l-.093-.054h-.273l-.295.17c.007.053-.018.107-.066.135-.06.035-.137.018-.177-.037-.018.015-.031.033-.04.054-.01.024-.014.051-.011.078.001.008-.006.016-.015.013-.04-.012-.074-.04-.095-.076-.008-.015-.015-.031-.018-.047h0ZM18.28,12.984s.012-.005.016,0c.005.005.005.012,0,.016l-.081.081s-.012.005-.016,0-.004-.012,0-.016l.081-.081h0ZM17.2,13.25c0-.006.005-.011.012-.011.006,0,.011.005.011.011v.114c0,.007-.005.012-.011.012-.007,0-.012-.005-.012-.012v-.114h0ZM17.487,13.148c.001-.006.008-.01.014-.008.006.002.01.008.008.014l-.029.11c-.002.006-.008.01-.014.008-.006-.002-.01-.008-.008-.014l.03-.111h0ZM17.437,13.508s.012-.005.016,0c.004.005.004.012,0,.017l-.081.081s-.012.005-.016,0c-.004-.005-.004-.012,0-.016l.081-.081h0ZM17.78,13.15c.002-.006.008-.01.014-.008.006.001.01.008.008.014l-.029.111c-.002.006-.008.01-.014.008-.006-.002-.01-.008-.008-.014l.029-.111h0ZM17.949,12.871s.012-.005.016,0,.004.012,0,.016l-.081.081s-.012.005-.016,0c-.005-.005-.005-.012,0-.016l.081-.081h0ZM18.136,13.229c.006-.003.012-.001.015.004.003.005.001.012-.004.016l-.099.057c-.006.003-.012.001-.016-.004-.003-.005-.001-.012.004-.016l.099-.057Z" fill="#2ca7b0" fill-rule="evenodd"/>
        <path d="M18.966,13.702c-.037.01-.075.025-.108.044-.054.032-.081.09-.065.151.016.061.069.098.132.098.039,0,.078-.006.116-.016.072-.019.133-.053.172-.091.038-.037.057-.079.047-.116-.01-.037-.047-.064-.098-.077-.054-.014-.123-.012-.195.007Z" fill="#fed700" fill-rule="evenodd"/>
        <path d="M19.56,13.04c-.032-.037-.041-.091-.026-.146.007-.025.018-.051.033-.075-.032-.033-.07-.059-.112-.077-.043-.019-.091-.029-.142-.029-.075,0-.145.023-.203.063-.059.041-.105.1-.131.168h0c-.026.065-.071.12-.128.159-.055.038-.122.06-.194.06-.057,0-.114-.014-.164-.041-.02.055-.051.105-.09.147-.018.02-.038.038-.06.054.077.02.151.051.219.091.132.082.284.126.44.126.098,0,.192-.017.279-.048.091-.032.174-.08.247-.14h0c.043-.033.077-.075.101-.124.022-.043.035-.092.037-.143-.043,0-.081-.014-.107-.043h0ZM19.372,13.249s.012-.005.016,0c.004.005.004.012,0,.016l-.081.081s-.012.005-.016,0c-.005-.004-.005-.012,0-.016l.081-.081h0ZM18.79,13.233s.012-.005.016,0c.005.004.005.012,0,.016l-.081.081s-.012.005-.016,0c-.004-.005-.004-.012,0-.016l.081-.081h0ZM19.071,13.174c.002-.006.008-.01.014-.008.006.002.01.008.008.014l-.03.111c-.001.006-.008.01-.014.008-.006-.001-.01-.008-.008-.014l.029-.111h0ZM19.177,12.878c.002-.006.008-.01.014-.008.006.002.01.008.008.014l-.03.111c-.002.006-.008.01-.014.008-.006-.001-.01-.008-.008-.014l.029-.111h0ZM19.428,13.007s.012-.004.016,0c.005.004.005.012,0,.016l-.081.081s-.012.005-.016,0c-.004-.005-.004-.012,0-.016l.081-.081Z" fill="#2ca7b0" fill-rule="evenodd"/>
        <path d="M16.727,12.533c-.063-.056-.138-.102-.219-.133-.078-.03-.162-.046-.251-.046-.15,0-.296.047-.4.137-.092.08-.151.194-.151.339,0,.17.087.297.211.385.162.114.386.165.572.165.108,0,.213-.016.311-.046.101-.03.196-.075.282-.132.034-.086.079-.168.133-.242,0-.015.002-.031.006-.046.008-.029.024-.057.047-.078-.069,0-.128-.052-.135-.121-.023.004-.044.013-.062.026-.021.016-.038.037-.048.062-.003.008-.013.01-.019.004-.028-.031-.044-.071-.044-.113,0-.01,0-.019.003-.028-.087-.028-.167-.073-.235-.132h0ZM16.648,12.97c-.006-.002-.01-.008-.008-.014.002-.006.008-.01.014-.008l.111.03c.006.002.01.008.008.014-.002.006-.008.01-.014.008l-.11-.029h0ZM15.939,12.743s-.004-.012,0-.016c.005-.005.012-.005.017,0l.081.081s.004.012,0,.016c-.004.005-.012.005-.016,0l-.081-.081h0ZM16.157,12.533s-.004-.012,0-.016c.004-.004.012-.004.016,0l.081.081s.005.012,0,.016c-.005.005-.012.005-.016,0l-.081-.081h0ZM16.571,12.636s-.004-.012,0-.016c.004-.005.012-.005.016,0l.081.081s.004.012,0,.016c-.004.005-.012.004-.016,0l-.081-.081h0ZM16.329,12.819s-.005-.012,0-.016c.004-.005.012-.005.016,0l.081.081s.004.012,0,.016c-.005.005-.012.005-.016,0l-.081-.081h0ZM16.059,13.142c-.006.003-.013.001-.016-.004-.003-.005-.001-.012.004-.016l.099-.057c.006-.003.013-.001.016.004.003.005.001.012-.004.016l-.099.057h0ZM16.466,13.229c-.006.003-.013.001-.016-.004-.003-.006-.001-.013.004-.016l.099-.057c.006-.003.013-.001.016.004.003.005.001.012-.004.016l-.099.057Z" fill="#2ca7b0" fill-rule="evenodd"/>
        <path d="M15.47,11.706c.036,0,.065.029.065.065,0,.036-.029.065-.065.065-.036,0-.065-.029-.065-.065,0-.036.029-.065.065-.065Z" fill="#fed700" fill-rule="evenodd"/>
        <path d="M15.222,11.998c.036,0,.065.029.065.065,0,.036-.029.065-.065.065-.036,0-.065-.029-.065-.065,0-.036.029-.065.065-.065Z" fill="#fed700" fill-rule="evenodd"/>
        <path d="M15.375,11.996c.036,0,.065.029.065.065,0,.036-.029.065-.065.065s-.065-.029-.065-.065c0-.036.029-.065.065-.065Z" fill="#fed700" fill-rule="evenodd"/>
        <path d="M15.424,11.988l.031-.13c-.009-.001-.017-.004-.025-.008l-.052.123c.017,0,.032.006.045.015Z" fill="#fed700" fill-rule="evenodd"/>
        <path d="M15.497,12.088c.036,0,.065.029.065.065,0,.036-.029.065-.065.065s-.065-.029-.065-.065c0-.036.029-.065.065-.065Z" fill="#fed700" fill-rule="evenodd"/>
        <path d="M15.212,12.15c-.029.033-.052.075-.065.117-.021.063-.023.125-.009.175.013.048.041.085.08.097.039.013.083,0,.122-.031.041-.032.076-.084.097-.147.014-.042.02-.088.016-.133-.026-.015-.044-.044-.044-.076,0-.004,0-.008,0-.011-.011.005-.022.007-.035.007-.032,0-.061-.018-.076-.044-.015.027-.044.045-.077.045-.003,0-.006,0-.01,0Z" fill="#f9c" fill-rule="evenodd"/>
        <path d="M15.135,12.232c-.05-.013-.101-.024-.152-.031-.055-.008-.112-.012-.169-.012-.103,0-.197.042-.265.11s-.11.162-.11.265c0,.137.074.262.194.328.088.048.182.085.281.11.096.024.197.037.301.037.165,0,.329-.033.481-.098-.008-.035-.013-.072-.013-.112,0-.084.019-.158.052-.221-.08-.092-.173-.172-.277-.236-.022.066-.06.12-.103.154-.045.036-.097.05-.144.035-.047-.015-.08-.057-.095-.113-.015-.054-.013-.121.009-.188.003-.01.006-.019.01-.028h0ZM15.383,12.761c-.006,0-.012-.005-.012-.011,0-.006.005-.012.012-.012h.115c.006,0,.012.005.012.012,0,.006-.005.011-.012.011h-.115ZM14.655,12.486s-.004-.012,0-.016c.004-.005.012-.005.016,0l.081.081s.005.012,0,.016c-.004.005-.012.004-.016,0l-.081-.081h0ZM14.837,12.341s-.004-.012,0-.016c.004-.005.012-.005.016,0l.081.081s.005.012,0,.016c-.004.004-.012.004-.016,0l-.081-.081h0ZM14.997,12.646s-.004-.012,0-.016c.004-.005.012-.005.016,0l.081.081s.004.012,0,.016c-.005.004-.012.004-.016,0l-.081-.081h0ZM14.73,12.722s-.004-.012,0-.017c.005-.005.012-.005.016,0l.081.081s.004.012,0,.016c-.004.004-.012.004-.016,0l-.081-.081h0ZM15.127,12.943c-.006.001-.012-.002-.014-.008-.002-.006.002-.012.008-.014l.111-.03c.006-.001.012.002.014.008.002.006-.002.012-.008.014l-.111.03Z" fill="#2ca7b0" fill-rule="evenodd"/>
        <path d="M13.315,11.216c.047,0,.085.038.085.085s-.038.085-.085.085-.085-.038-.085-.085.038-.085.085-.085Z" fill="#fed700" fill-rule="evenodd"/>
        <path d="M13.45,11.078c.047,0,.085.038.085.085s-.038.085-.085.085c-.047,0-.085-.038-.085-.085s.038-.085.085-.085Z" fill="#fed700" fill-rule="evenodd"/>
        <path d="M13.641,11.051c.047,0,.085.038.085.085s-.038.085-.085.085-.085-.038-.085-.085.038-.085.085-.085Z" fill="#fed700" fill-rule="evenodd"/>
        <path d="M13.276,10.735c.047,0,.085.038.085.085s-.038.085-.085.085-.085-.038-.085-.085.038-.085.085-.085Z" fill="#fed700" fill-rule="evenodd"/>
        <path d="M13.307,10.923l.067.164c.016-.016.036-.027.059-.03l-.092-.151c-.01.008-.022.014-.034.017Z" fill="#fed700" fill-rule="evenodd"/>
        <path d="M13.737,11.733c.047-.024.076-.076.084-.139.007-.065-.007-.143-.045-.218-.026-.051-.062-.098-.106-.135-.009.003-.019.004-.03.004-.037,0-.069-.018-.089-.047-.014.043-.055.073-.102.073-.012,0-.023-.002-.033-.005.004.011.006.023.006.035,0,.035-.016.066-.042.086.003.057.02.114.046.165.038.075.092.133.149.166.056.032.113.039.161.016Z" fill="#f9c" fill-rule="evenodd"/>
        <path d="M13.748,11.753c-.042.021-.092.021-.141.003-.04.065-.057.133-.057.209.003.189.135.351.309.465.174.114.389.181.559.182-.002-.016-.003-.032-.003-.048,0-.11.044-.209.116-.281.01-.011.022-.021.033-.03-.03-.153-.123-.342-.253-.482-.106-.115-.237-.196-.378-.196-.03,0-.059.003-.089.01,0,.004,0,.008-.001.011-.008.071-.041.129-.095.157h0ZM14.272,12.25c0-.007.005-.012.012-.012.006,0,.011.005.011.012v.114c0,.006-.005.011-.011.011-.006,0-.012-.005-.012-.011v-.114h0ZM13.983,12.315s-.004-.012,0-.016c.005-.004.012-.004.016,0l.081.081s.004.012,0,.016c-.005.005-.012.005-.016,0l-.081-.081h0ZM13.732,12.047s-.005-.012,0-.016c.004-.004.012-.004.016,0l.081.081s.004.012,0,.016-.012.005-.016,0l-.081-.081h0ZM14.104,11.74c0-.006.005-.011.011-.011.006,0,.012.005.012.011v.115c0,.007-.005.012-.012.012s-.011-.005-.011-.012v-.115h0ZM13.986,12.063s-.004-.012,0-.016c.005-.004.012-.004.016,0l.081.081s.004.012,0,.016c-.005.005-.012.005-.016,0l-.081-.081h0ZM14.3,11.977c-.002-.006.002-.012.008-.014.006-.002.012.002.014.008l.03.11c.001.006-.002.013-.008.014-.006.002-.012-.002-.014-.008l-.029-.111Z" fill="#2ca7b0" fill-rule="evenodd"/>
        <path d="M17.736,12.378l-.031.031c-.028.028-.064.053-.101.072-.037.018-.074.03-.103.03h-.1c.002.009.003.019.003.029v.081c.038-.007.076.003.106.026l.177-.102c.005-.003.012-.001.016.004.003.006.001.013-.004.016l-.171.099c.007.007.012.015.017.023l.08.14c.005.009.009.018.012.026l.292-.168s.004-.002.006-.002h.279s.005,0,.007.002l.088.051c.003-.009.007-.018.012-.026l.08-.139c.005-.008.011-.016.017-.023l-.153-.089s-.002-.001-.003-.002l-.232-.232.042.168c.002.01-.008.018-.017.013-.061-.029-.115-.071-.158-.122-.014-.016-.026-.033-.038-.051l.059.215c.002.008-.005.016-.013.014-.061-.012-.116-.039-.161-.078l-.006-.005Z" fill="#fed700" fill-rule="evenodd"/>
        <path d="M17.359,12.636c-.06.035-.084.109-.057.171-.011.003-.023.006-.035.006-.062,0-.112-.051-.112-.113v-.161c0-.062.05-.112.112-.112s.112.05.112.112v.087c-.007.002-.014.006-.021.01Z" fill="#fed700" fill-rule="evenodd"/>
        <path d="M17.9,10.663c-.063.025-.129.038-.197.038-.092,0-.178-.024-.253-.065-.038-.021-.072-.046-.103-.075l.429.743c.025.044.051.088.076.133.026.046.06.086.1.119.036.03.078.055.123.072l-.101-.652c-.015-.108-.04-.214-.075-.314Z" fill="#963" fill-rule="evenodd"/>
        <path d="M17.501,9.908c-.062.021-.127.032-.194.032-.107,0-.207-.028-.294-.077-.044-.025-.086-.056-.122-.091l.388.672c.045.071.108.131.182.172.071.039.154.062.241.062.065,0,.129-.013.189-.037-.035-.096-.077-.188-.128-.275l-.264-.457Z" fill="#630" fill-rule="evenodd"/>
        <path d="M16.637,10.301c.069-.039.127-.096.168-.164.041-.069.065-.149.065-.234,0-.072-.016-.141-.048-.205l-.088-.152c-.04-.066-.072-.139-.093-.216-.02-.074-.031-.152-.031-.233,0-.055.005-.108.015-.16,0-.004.001-.008.002-.012l-.003.006-.146.249c-.077.131-.115.297-.115.448,0,.179.041.343.14.493.041.063.087.124.136.181Z" fill="#630" fill-rule="evenodd"/>
        <path d="M16.883,9.803c.007.032.01.065.01.099,0,.09-.025.174-.068.246-.042.071-.102.129-.173.17.051.059.105.115.163.167.045.041.091.079.14.115.08.06.165.113.253.16.078.036.165.05.25.041l-.577-.998Z" fill="#963" fill-rule="evenodd"/>
        <path d="M16.69,8.787c-.013.043-.02.086-.02.131,0,.119.048.227.126.305.078.078.186.126.305.126.025,0,.049-.002.073-.006l-.076-.131c-.058-.1-.089-.213-.09-.328v-.188c-.078,0-.152-.028-.209-.081-.03-.028-.054-.062-.07-.101-.001.103-.007.183-.038.273Z" fill="#963" fill-rule="evenodd"/>
        <path d="M17.186,9.364c-.028.005-.057.008-.085.008-.125,0-.239-.051-.321-.133-.078-.078-.128-.185-.133-.303v.004c-.01.05-.015.103-.015.156,0,.079.011.155.031.227.021.075.052.145.091.21l.061.106c.051.085.124.156.21.205.083.047.18.074.282.074.062,0,.123-.01.182-.029l-.302-.524Z" fill="#963" fill-rule="evenodd"/>
        <path d="M15.091,8.558c.058.003.106.033.142.078l.109.138c.086.109.119.242.104.37-.009.08-.037.157-.083.225l.068-.054c.103-.082.164-.198.178-.32.014-.122-.018-.25-.1-.353l-.109-.138c-.034-.043-.075-.064-.116-.069-.048-.005-.095.011-.133.041-.027.022-.049.05-.061.083Z" fill="#fed700" fill-rule="evenodd"/>
        <path d="M15.247,9.462c.103-.082.163-.199.177-.32.014-.122-.017-.249-.099-.352l-.11-.139c-.033-.042-.077-.069-.131-.07-.001.005-.002.01-.002.014-.005.041.006.086.04.129l.109.138c.021.027.029.059.025.091-.004.032-.019.062-.046.083l-.591.467c-.186.147-.27.328-.28.507-.01.179.055.357.166.498h0c.08.101.184.183.301.234.045.019.092.033.14.043l-.196-.248c-.091-.116-.127-.259-.112-.395.017-.143.088-.27.2-.359l.406-.321Z" fill="#993" fill-rule="evenodd"/>
        <path d="M17.071,7.34c-.006.002-.012,0-.015-.007-.002-.006,0-.012.007-.015.053-.02.11-.03.166-.03.04,0,.078.005.116.014.007.002.014.003.02.006-.095-.064-.203-.111-.318-.138-.121-.028-.207-.135-.207-.259,0-.02.002-.039.006-.057-.052-.002-.104-.003-.156-.003-.134,0-.242.108-.242.242,0,.113.079.211.189.236.131.03.299.102.42.209.093.082.158.184.158.304,0,.032-.004.064-.012.094.047.084.083.175.105.271.008.038.025.074.048.105.023.031.053.057.088.076.008.004.008.014.001.02-.033.024-.071.04-.111.048v.494c.107-.066.2-.151.274-.251-.026-.014-.054-.025-.083-.033-.006-.002-.01-.008-.008-.014.002-.006.008-.01.014-.008.031.009.061.022.09.037.018-.025.034-.051.049-.077.049-.085.085-.178.107-.277-.029-.014-.059-.026-.091-.034-.034-.009-.069-.014-.105-.015-.007,0-.012-.005-.011-.012,0-.006.005-.011.012-.011.038,0,.075.006.11.015.031.008.061.019.09.033.011-.06.017-.122.017-.184,0-.084-.011-.166-.031-.244-.031-.016-.063-.028-.098-.037-.035-.009-.071-.013-.109-.013-.027,0-.054.002-.08.007-.006.001-.012-.003-.013-.009-.001-.006.003-.012.009-.013.027-.005.055-.007.084-.007.039,0,.078.005.114.014.029.007.057.017.084.03-.035-.123-.094-.235-.171-.332-.044-.055-.093-.106-.148-.15-.032-.017-.066-.03-.102-.039-.035-.009-.072-.014-.11-.014-.054,0-.107.01-.158.029Z" fill="#963" fill-rule="evenodd"/>
        <path d="M17.832,7.135c.355.078.688.213.991.395.055.032.117.048.18.048.099,0,.19-.04.255-.105.07-.071.106-.162.105-.262-.047.033-.102.051-.16.051-.048,0-.096-.012-.138-.037-.289-.179-.605-.32-.94-.415-.324-.092-.666-.141-1.019-.141-.134,0-.242.108-.242.242,0,.113.078.211.189.236.223.052.417.179.555.353.135.17.215.385.215.619,0,.18-.048.35-.132.496-.085.148-.207.272-.353.36l.193.335c.205-.122.376-.295.495-.502.116-.203.183-.438.183-.689,0-.236-.059-.459-.163-.653-.109-.202-.265-.374-.455-.5-.005-.003-.006-.011-.003-.016.003-.005.011-.007.016-.003.082.055.159.118.228.189Z" fill="#630" fill-rule="evenodd"/>
        <path d="M20.706,9.423c-.028.005-.057.008-.086.008-.098,0-.189-.029-.265-.08-.041-.027-.077-.06-.108-.098.089.245.151.503.18.771.085,0,.152.018.214.08.049.049.08.117.08.192v1.527c0,.057.015.121.039.177.02.046.046.087.075.115v-1.719c0-.169-.011-.334-.033-.497-.022-.162-.054-.321-.096-.476Z" fill="#630" fill-rule="evenodd"/>
        <path d="M20.561,8.994c-.129-.317-.3-.613-.507-.879-.207-.266-.449-.504-.719-.706-.017.029-.037.056-.061.08-.069.069-.165.113-.271.113-.027,0-.053-.003-.079-.008.3.194.567.436.79.714.199.248.363.524.485.822h0c.035.083.094.154.169.204.072.048.159.076.252.076.068,0,.132-.015.19-.041.052-.024.099-.057.139-.098-.078-.003-.154-.03-.218-.073-.073-.048-.135-.12-.169-.202Z" fill="#630" fill-rule="evenodd"/>
        <path d="M18.156,7.659c.225.086.435.198.628.333h0c.047.03.101.039.155.025.048-.013.09-.044.117-.09.05-.086.026-.197-.056-.254h0c-.339-.236-.724-.41-1.14-.507.08.087.15.184.206.29.035.065.065.133.089.204Z" fill="#963" fill-rule="evenodd"/>
        <path d="M19.93,9.339c.07.043.152.069.241.069.034,0,.067-.004.1-.011-.125-.396-.322-.759-.576-1.075-.179-.222-.386-.421-.615-.592.034.065.033.144-.004.208-.03.052-.078.086-.131.101-.029.008-.059.01-.09.005.258.193.483.426.665.69.089.129.167.265.235.407.039.082.097.15.175.198Z" fill="#630" fill-rule="evenodd"/>
        <path d="M20.278,9.419c-.035.008-.071.012-.107.012-.093,0-.18-.026-.253-.072-.039-.024-.074-.054-.105-.088.099.238.168.491.201.754.086,0,.153.016.217.08.049.049.08.117.08.192v1.219c0,.057.015.12.039.177.02.046.046.087.074.115v-1.41c0-.34-.051-.668-.146-.977Z" fill="#963" fill-rule="evenodd"/>
        <path d="M18.233,8.14c.119.059.233.128.34.205h0c.048.032.104.043.16.028.048-.013.089-.043.116-.089.025-.043.033-.093.023-.137-.009-.043-.033-.083-.069-.111-.195-.141-.409-.258-.638-.347.044.136.067.281.067.432,0,.007,0,.014,0,.021Z" fill="#963" fill-rule="evenodd"/>
        <path d="M18.614,9.657c-.065.032-.136.048-.208.048-.068,0-.133-.014-.192-.04-.024-.011-.047-.023-.069-.037.073.099.132.208.174.324.015.043.05.071.096.073.071.004.134.036.181.084.044.046.074.114.075.178,0,.056.015.118.039.173.02.046.046.087.074.115v-.179c0-.263-.061-.514-.171-.739Z" fill="#630" fill-rule="evenodd"/>
        <path d="M17.726,9.646c.034.016.073.018.107.007.035-.011.067-.034.086-.069.019-.032.024-.069.018-.103-.007-.036-.026-.068-.055-.091-.046-.035-.095-.068-.146-.097l-.073-.042c-.038.028-.077.054-.118.078l.182.316Z" fill="#963" fill-rule="evenodd"/>
        <path d="M17.951,9.449c.003.009.006.019.008.029.007.039.001.081-.02.118-.023.04-.059.067-.099.079-.031.009-.063.01-.096.001.042.057.097.103.16.136.062.032.132.049.206.049.046,0,.092-.007.137-.021-.046-.094-.103-.183-.171-.263-.038-.046-.08-.089-.125-.129Z" fill="#630" fill-rule="evenodd"/>
        <path d="M18.383,8.743c-.073-.056-.15-.108-.231-.155-.029.081-.064.158-.106.231-.022.039-.046.076-.072.113.062.037.121.077.177.121.048.037.11.05.169.035.048-.013.091-.044.117-.09.025-.043.031-.09.022-.135-.01-.05-.037-.087-.077-.119Z" fill="#963" fill-rule="evenodd"/>
        <path d="M18.113,9.446c.048-.013.091-.044.117-.09.024-.041.03-.086.023-.129-.006-.039-.028-.082-.059-.108-.073-.062-.151-.119-.234-.168-.079.108-.173.204-.279.286l.064.037c.069.039.133.084.192.134.05.04.112.056.176.039Z" fill="#630" fill-rule="evenodd"/>
        <path d="M18.265,9.181c.005.014.009.028.012.042.008.048,0,.099-.026.144-.03.052-.078.087-.131.101-.037.01-.076.01-.114,0,.021.02.041.041.061.063.042.047.099.088.157.113.055.024.117.038.182.038.069,0,.136-.015.198-.045-.013-.026-.027-.051-.041-.076-.08-.14-.181-.268-.297-.379Z" fill="#963" fill-rule="evenodd"/>
        <path d="M18.527,8.73c.048-.013.091-.044.118-.09.024-.043.031-.09.022-.135-.009-.044-.034-.087-.071-.114-.114-.084-.235-.16-.364-.225-.004.139-.029.274-.072.4.069.04.136.084.2.131.048.035.108.048.167.033Z" fill="#630" fill-rule="evenodd"/>
        <path d="M18.584,9.444c.059.028.125.043.194.043.065,0,.129-.014.188-.041-.017-.033-.035-.066-.054-.099-.117-.202-.267-.383-.444-.536.006.015.011.03.014.045.01.05.003.104-.025.151-.03.052-.078.087-.131.101-.033.009-.069.01-.104.002.073.063.14.132.2.207.042.052.099.096.161.126Z" fill="#963" fill-rule="evenodd"/>
        <path d="M18.977,9.467c-.062.028-.13.043-.199.043-.073,0-.142-.016-.204-.046-.025-.012-.049-.026-.072-.042.028.041.055.083.08.126.084.147.147.307.185.475h.042c.075,0,.143.031.192.08.049.049.08.117.08.192v.295c0,.057.015.121.039.177.02.046.046.087.074.115v-.487c0-.331-.078-.647-.218-.928Z" fill="#630" fill-rule="evenodd"/>
        <path d="M19.012,9.353c.065.035.139.055.218.055.055,0,.108-.009.159-.028-.046-.104-.099-.204-.159-.3-.149-.239-.337-.453-.557-.63.008.016.013.033.017.05.01.05.003.104-.025.151-.03.052-.078.086-.131.101-.032.008-.065.01-.098.003.157.127.294.276.409.442.044.064.097.117.167.156Z" fill="#630" fill-rule="evenodd"/>
        <path d="M19.398,9.4c-.054.02-.111.03-.168.03-.083,0-.161-.021-.229-.058-.027-.015-.054-.033-.077-.053l.009.016c.122.21.209.443.253.688.091,0,.158.012.226.08.049.049.08.117.08.192v.603c0,.057.015.121.039.177.02.046.046.087.074.115v-.795c0-.351-.073-.688-.207-.995Z" fill="#963" fill-rule="evenodd"/>
        <path d="M19.481,9.346c.067.039.146.062.229.062.042,0,.084-.006.125-.017-.084-.229-.197-.445-.334-.643-.172-.25-.383-.473-.625-.658.008.017.014.034.018.052.011.05.003.105-.025.154-.03.051-.078.086-.131.1-.03.008-.062.01-.093.004.24.185.444.412.604.669.021.034.042.069.061.105.04.072.098.131.17.173Z" fill="#963" fill-rule="evenodd"/>
        <path d="M19.843,9.412c-.043.012-.088.019-.133.019-.088,0-.17-.024-.241-.065-.035-.02-.067-.045-.096-.073.111.228.189.474.227.732.088,0,.155.015.221.08.049.049.08.117.08.192v.911c0,.057.015.121.039.177.02.046.046.087.075.115v-1.103c0-.343-.06-.675-.171-.983Z" fill="#630" fill-rule="evenodd"/>
        <path d="M15.236,11.164l-.002-.003c-.028-.036-.04-.081-.035-.123.005-.042.026-.083.062-.112.005-.004.01-.008.016-.011-.026-.009-.052-.012-.079-.008-.083.01-.158.077-.173.16-.01.056.009.105.043.149l.038.048.13-.1Z" fill="#fed700" fill-rule="evenodd"/>
      </g>
    </g>
  </g>
</svg>