<?xml version="1.0" encoding="UTF-8"?>
<svg id="Layer_2" data-name="Layer 2" xmlns="http://www.w3.org/2000/svg" xmlns:xlink="http://www.w3.org/1999/xlink" viewBox="0 0 118.972 79.17">
  <defs>
    <clipPath id="clippath">
      <path d="M19.9,39.584c0,21.862,17.723,39.586,39.585,39.586s39.585-17.724,39.585-39.586S81.348,0,59.485,0,19.9,17.723,19.9,39.584Z" fill="none"/>
    </clipPath>
  </defs>
  <g id="Layer_1-2" data-name="Layer 1">
    <g clip-path="url(#clippath)">
      <g>
        <rect y=".004" width="118.972" height="79.161" fill="#76b2dd"/>
        <polygon points="63.146 21.137 59.476 18.726 55.848 21.158 56.944 17.151 53.572 14.223 58.08 14.076 59.465 9.917 60.843 14.154 65.382 14.19 62.007 16.969 63.146 21.137" fill="#fff"/>
        <polygon points="44.263 39.639 40.02 38.506 37.345 41.958 37.12 37.81 32.999 36.092 37.23 34.534 37.235 30.149 39.877 33.736 44.196 32.341 41.869 36.042 44.263 39.639" fill="#fff"/>
        <polygon points="65.203 58.347 60.815 58.532 59.288 62.624 57.838 58.732 53.394 58.321 56.965 55.571 55.664 51.387 59.257 54.021 62.963 51.401 61.844 55.629 65.203 58.347" fill="#fff"/>
        <polygon points="81.841 41.994 79.033 38.619 74.852 39.885 77.067 36.372 74.698 32.588 79.052 33.761 81.59 30.189 81.675 34.642 86.004 36.001 81.965 37.674 81.841 41.994" fill="#fff"/>
      </g>
    </g>
  </g>
</svg>