<?xml version="1.0" encoding="UTF-8"?>
<svg id="Layer_2" data-name="Layer 2" xmlns="http://www.w3.org/2000/svg" viewBox="0 0 118.972 79.161">
  <g id="Layer_1-2" data-name="Layer 1">
    <g>
      <rect width="118.972" height="79.161" fill="#76b2dd"/>
      <polygon points="63.146 21.133 59.476 18.721 55.848 21.153 56.944 17.146 53.572 14.218 58.08 14.072 59.465 9.912 60.843 14.149 65.382 14.186 62.007 16.964 63.146 21.133" fill="#fff"/>
      <polygon points="44.263 39.634 40.02 38.502 37.345 41.953 37.12 37.805 32.999 36.087 37.23 34.529 37.235 30.145 39.877 33.732 44.196 32.336 41.869 36.038 44.263 39.634" fill="#fff"/>
      <polygon points="65.203 58.342 60.815 58.527 59.288 62.62 57.838 58.728 53.394 58.317 56.965 55.567 55.664 51.382 59.257 54.017 62.963 51.397 61.844 55.625 65.203 58.342" fill="#fff"/>
      <polygon points="81.841 41.99 79.033 38.614 74.852 39.88 77.067 36.368 74.698 32.583 79.052 33.757 81.59 30.185 81.675 34.638 86.004 35.997 81.965 37.67 81.841 41.99" fill="#fff"/>
    </g>
  </g>
</svg>