<?xml version="1.0" encoding="UTF-8"?>
<svg id="Layer_2" data-name="Layer 2" xmlns="http://www.w3.org/2000/svg" viewBox="0 0 33.946 22.631">
  <g id="_Ñëîé_1" data-name="Ñëîé 1">
    <g>
      <g>
        <rect x="11.315" width="11.315" height="22.631" fill="#fed700"/>
        <rect x="22.63" width="11.315" height="22.631" fill="red"/>
        <rect width="11.315" height="22.631" fill="#039"/>
      </g>
      <g>
        <path d="M14.946,8.092c.051.002.101.009.148.022.056.015.109.038.158.066l.838.484c.059-.05.112-.107.158-.169.123-.166.196-.372.196-.593v-.373c0-.182-.054-.351-.146-.494-.089-.137-.214-.248-.362-.321v.376c0,.029.012.055.031.073s.045.03.073.03c.012,0,.022.01.022.022,0,.01-.006.018-.015.021-.037.017-.071.041-.1.071-.031.031-.057.067-.077.108-.008.016-.032.016-.04,0-.02-.041-.046-.077-.077-.107-.03-.03-.064-.055-.102-.072-.011-.005-.016-.018-.011-.029.004-.008.012-.013.02-.013.028,0,.054-.012.073-.031.019-.019.031-.045.031-.073v-.841h-.18c-.043,0-.081.027-.097.067-.006.016-.027.019-.038.006-.02-.021-.036-.046-.047-.073-.011-.027-.017-.056-.017-.086,0-.03.006-.06.017-.087.011-.027.028-.053.048-.074.011-.012.031-.007.037.008.016.04.054.067.097.067h.18v-.18c0-.043-.027-.082-.067-.097-.016-.006-.019-.027-.006-.038.021-.02.046-.036.073-.047.027-.011.056-.017.086-.017.03,0,.059.006.086.017.027.011.053.028.074.048.012.011.007.031-.008.037-.04.015-.067.054-.067.097v.18h.18c.043,0,.082-.027.097-.067.006-.016.027-.019.038-.007.02.021.036.046.047.073.011.027.017.056.017.087,0,.031-.006.06-.017.086-.011.028-.028.053-.048.074-.011.012-.031.007-.037-.008-.015-.04-.054-.067-.097-.067h-.18v.191c.023-.007.047-.011.072-.011h.3c.024-.072.073-.129.135-.165.067-.039.148-.052.227-.03l1.141.306c.017.005.022.026.009.038-.051.047-.111.083-.176.107.06.04.112.091.152.152.01.015-.002.036-.02.035-.045-.003-.092,0-.136.009.069.072.117.162.137.26.004.02-.018.034-.035.022-.042-.03-.09-.053-.14-.068.005.033.008.067.008.101,0,.081-.014.158-.04.23-.026.072-.064.138-.111.196v.28c0,.222.073.427.197.593.046.062.099.119.158.169l.838-.484c.094-.054.198-.085.306-.088v-.458c0-.006.002-.012.006-.016l.736-.736c.008-.008.023-.008.031,0l.486.486c.081.083.146.181.19.29.043.105.067.22.067.341v4.134l.289-.593c.008-.016.02-.027.035-.034-.008-.012-.014-.024-.019-.037-.012-.036-.011-.077.007-.113.037-.075.059-.154.068-.233.009-.082.004-.164-.014-.243-.002-.012.004-.023.016-.026.058-.017.118-.028.18-.031.039-.002.079-.001.119.003-.006-.013-.009-.027-.009-.042,0-.044.027-.081.066-.096-.015-.014-.027-.029-.037-.046-.006-.01-.003-.024.007-.03l.198-.138c.014-.01.034,0,.035.017l.013.242c0,.012-.008.022-.02.023-.019.002-.039.002-.059-.001.003.01.004.02.004.03,0,.048-.033.089-.078.1.028.029.053.059.076.092.035.05.064.105.086.162.004.011,0,.023-.011.028-.073.034-.141.081-.2.139-.057.056-.105.122-.142.198-.018.037-.049.063-.085.075-.013.004-.027.007-.041.008.004.016.002.033-.005.048l-.406.833c-.007.015-.019.026-.033.033.016.028.019.064.003.095-.009.019-.024.034-.041.044v2.304c0,.018-.02.028-.034.019-.151-.076-.277-.192-.366-.335-.036-.058-.065-.119-.087-.184-.12-.053-.226-.132-.313-.23-.003,0-.006,0-.008,0,.015.024.024.052.024.082,0,.078-.058.142-.134.151l.028.022c.02.016.03.035.036.06l.059.243c.005.021-.02.036-.036.022l-.006-.005c-.002.021-.01.042-.024.06-.022.026-.054.039-.085.038.006.031,0,.064-.023.09-.022.026-.054.039-.085.038.007.031,0,.064-.023.09-.037.044-.102.05-.147.015-.003.044-.032.081-.071.096.023.02.043.043.059.069.006.01.004.023-.006.03l-.255.178c-.014.011-.035.002-.036-.016l-.017-.311c0-.012.008-.022.02-.024.03-.003.061-.001.091.005-.003-.011-.005-.022-.005-.033,0-.052.036-.096.084-.107h0c-.011-.01-.019-.02-.025-.032l-.117-.192-.674-.991-.016.092c-.004.02-.031.025-.041.007l-.244-.359-.499.229c.17.361.364.708.579,1.04.221.341.465.666.729.972.009.011.006.029-.008.035-.108.049-.215.101-.322.155-.106.054-.211.11-.315.167-.01.006-.023.004-.03-.006-.184-.262-.355-.534-.511-.816-.116-.21-.224-.425-.324-.645.058.241.127.477.204.71.103.311.224.614.36.909.005.011.002.023-.008.029-.155.095-.306.194-.453.297-.147.103-.292.211-.434.324-.008.007-.02.007-.028,0-.142-.112-.287-.221-.434-.324-.147-.103-.298-.202-.453-.297-.01-.006-.014-.018-.009-.028.136-.295.257-.598.361-.909.077-.232.145-.469.204-.71-.099.22-.207.435-.324.645-.156.282-.326.554-.51.815-.006.009-.019.012-.029.007-.103-.058-.209-.114-.315-.168-.106-.054-.213-.106-.321-.155-.014-.006-.018-.024-.008-.035.264-.306.508-.631.729-.972.215-.332.409-.679.579-1.04l-.499-.229-.244.359c-.01.018-.038.013-.041-.007l-.016-.092-.674.991-.006.009c.045.036.092.067.141.095.054.031.111.057.169.078.011.004.017.016.014.028-.019.058-.034.119-.043.181-.009.062-.013.125-.012.188,0,.019-.022.03-.037.018-.049-.04-.101-.076-.155-.107-.054-.031-.111-.057-.169-.078-.011-.004-.018-.016-.014-.028.019-.058.034-.119.043-.181.005-.036.009-.073.01-.11l-.06.098c-.006.012-.015.022-.025.031l-.135.113c-.044.038-.112.032-.149-.013-.022-.026-.029-.059-.023-.09-.031.001-.063-.012-.085-.038-.022-.026-.029-.059-.022-.09-.032.001-.063-.012-.085-.038-.015-.017-.023-.038-.025-.059l-.006.005c-.016.014-.041-.002-.036-.022l.059-.243c.006-.024.016-.043.036-.06l.163-.127c.024-.02.054-.028.084-.023l.035.004-.037-.076c-.017.03-.049.05-.086.05-.055,0-.099-.044-.099-.1,0-.015.003-.029.009-.041-.024.003-.049.004-.074.003-.014,0-.027,0-.041-.002-.046.061-.1.117-.16.164-.06.048-.126.089-.197.121-.022.065-.052.127-.087.184-.088.142-.215.259-.366.335-.014.009-.034-.001-.034-.019v-1.86c-.041-.037-.076-.078-.106-.122-.009-.013-.002-.031.013-.034.03-.01.061-.017.093-.023v-.086l-.006-.008c-.029-.045-.053-.094-.07-.145-.005-.014.005-.029.02-.029.019,0,.037-.001.056,0v-.386c-.016.001-.031.001-.046.001-.071,0-.143-.013-.213-.037-.07-.024-.134-.059-.19-.102-.058-.044-.108-.098-.148-.157-.008-.012-.002-.029.012-.034.05-.016.103-.027.156-.031-.025-.028-.047-.056-.067-.087-.029-.045-.053-.094-.07-.145-.005-.014.005-.029.02-.029.072-.004.144.004.215.023.068.019.134.049.196.091.03.02.057.042.083.066l-.204-.418c-.017.029-.049.048-.085.048-.055,0-.1-.044-.1-.099,0-.025.01-.048.025-.066-.016-.003-.032-.007-.048-.012-.068-.019-.134-.049-.196-.091-.061-.041-.114-.092-.157-.148-.044-.058-.079-.122-.102-.19-.005-.014.005-.029.02-.03.071-.004.144.004.215.024.027.008.054.017.081.028-.027-.035-.051-.074-.071-.115-.032-.067-.053-.136-.062-.207-.01-.072-.007-.145.006-.215.003-.015.02-.023.033-.015.063.033.122.075.173.127.05.05.092.11.125.176.02.041.036.084.047.127.008-.028.017-.055.028-.082.028-.068.066-.129.113-.183.01-.012.028-.01.036.002.039.06.069.127.087.198.018.068.025.141.02.215-.005.074-.022.145-.049.21-.006.015-.013.03-.02.044h.005c.055,0,.099.044.099.099s-.044.1-.099.1c-.004,0-.009,0-.013,0l.151.309v-3.645c0-.121.023-.236.067-.341.044-.109.109-.207.19-.29l.486-.486c.009-.008.023-.008.031,0l.736.736s.006.01.006.016v.458h0ZM19.45,13.53c-.146-.076-.269-.19-.355-.329-.057-.092-.098-.194-.119-.304-.014.04-.033.079-.055.114-.054.084-.132.153-.228.196l-.116.053.196.314c.011.018-.007.04-.027.033l-.098-.037.412.657c.021.035.051.062.085.079.035.017.075.024.115.019l.079-.01c.017-.002.034,0,.05.004-.002-.009-.002-.018-.002-.028,0-.079.061-.145.138-.152-.013-.02-.022-.043-.027-.067-.009-.043-.006-.093.012-.141-.039-.102-.059-.211-.059-.32v-.082h0ZM14.93,12.897c-.011.059-.029.116-.051.17-.044.106-.107.202-.185.284.006.021.011.044.015.066.036-.039.076-.075.12-.104.012-.009.03-.004.035.011.022.068.033.14.033.213,0,.071-.013.143-.037.213-.024.07-.059.134-.102.19-.015.02-.031.038-.048.056.044.011.076.05.076.097,0,.055-.044.1-.099.1-.004,0-.009,0-.014,0l.061.125c.009-.003.018-.006.027-.011.034-.017.064-.044.085-.079l.412-.657-.098.037c-.019.007-.038-.015-.027-.033l.197-.314-.116-.053c-.095-.044-.173-.113-.228-.196-.023-.035-.042-.074-.056-.114h0ZM15.937,6.618v.045l.462.124-.238-.138c-.058-.033-.123-.045-.185-.038-.013.002-.026.004-.038.007Z" fill-rule="evenodd"/>
        <path d="M16.496,6.791l-.182-.316h-.304c-.09,0-.169.061-.192.148.046-.031.099-.05.154-.056.071-.008.146.005.212.044l.312.181Z" fill="red" fill-rule="evenodd"/>
        <path d="M16.819,13.925c.05.04.095.086.134.135.04-.05.085-.095.134-.135.057-.046.119-.085.186-.116l1.4-.642c.088-.041.16-.103.209-.18.049-.076.077-.166.077-.262v-3.419c0-.092.024-.179.066-.254.032-.058.075-.109.125-.15h-4.396c.05.042.093.093.125.15.042.076.066.163.066.254v3.419c0,.096.027.186.077.262.049.077.121.14.209.18l1.401.642c.067.031.129.07.186.116h0ZM16.968,13.859c-.008.007-.021.008-.03,0-.075-.068-.16-.124-.252-.166l-1.401-.642c-.065-.03-.118-.076-.154-.132-.036-.056-.057-.123-.057-.194v-3.419c0-.084-.016-.167-.048-.245-.008-.015.003-.033.02-.033h3.814c.016,0,.027.016.021.031-.032.078-.048.162-.048.246v3.419c0,.071-.02.138-.057.194-.037.056-.09.102-.155.132l-1.401.642c-.092.042-.177.098-.252.166Z" fill="#fed700" fill-rule="evenodd"/>
        <path d="M19.142,15.043c.036,0,.065.029.065.066s-.029.066-.065.066-.066-.029-.066-.066.029-.066.066-.066Z" fill="#fed700" fill-rule="evenodd"/>
        <path d="M19.144,14.966c-.026-.022-.029-.061-.008-.086.022-.026.061-.029.087-.008l.134.113c.026.022.029.061.008.087-.022.026-.061.029-.087.008l-.134-.113Z" fill="red" fill-rule="evenodd"/>
        <path d="M19.251,14.838c-.026-.022-.029-.061-.007-.087.022-.026.061-.029.087-.008l.134.113c.026.022.029.061.007.087-.022.026-.06.029-.086.007l-.135-.113Z" fill="red" fill-rule="evenodd"/>
        <path d="M19.359,14.71c-.026-.022-.029-.061-.008-.086.022-.026.061-.03.087-.008l.134.113c.026.022.029.061.008.087-.022.026-.061.03-.087.007l-.134-.113Z" fill="red" fill-rule="evenodd"/>
        <path d="M19.34,14.574l-.091-.036.051.083c.004-.009.009-.018.016-.027.007-.008.015-.015.023-.021Z" fill-rule="evenodd"/>
        <path d="M19.125,14.83l-.091-.036.051.083c.004-.009.01-.018.016-.027.007-.008.015-.015.023-.021Z" fill-rule="evenodd"/>
        <path d="M19.233,14.702l-.091-.036.051.084c.004-.009.01-.018.016-.027s.015-.015.024-.021Z" fill-rule="evenodd"/>
        <path d="M19.487,14.6c.025.014.058.009.077-.014.022-.026.018-.065-.007-.086-.051-.043-.11-.084-.163-.126-.014-.012-.031-.016-.049-.014l-.08.01c-.048.006-.097-.003-.14-.024-.042-.02-.078-.053-.104-.096l-.442-.706-.011-.004-.035.198c-.002.016-.017.021-.031.017l-.187-.071-.007.041.685,1.006.179.071-.104-.168c-.011-.018.007-.04.027-.032l.184.073-.103-.169c-.012-.019.009-.041.028-.032l.226.089c.013.004.025.011.036.02l.021.018Z" fill="red" fill-rule="evenodd"/>
        <path d="M19.598,14.615c-.014.017-.033.028-.053.033l.076.064-.024-.097Z" fill-rule="evenodd"/>
        <path d="M18.985,15.43l.205-.143c-.025-.034-.059-.061-.097-.079-.038-.019-.079-.028-.122-.028l.014.25Z" fill="#fed700" fill-rule="evenodd"/>
        <path d="M14.762,14.966c.026-.022.029-.061.008-.086-.022-.026-.061-.029-.087-.008l-.134.113c-.026.022-.029.061-.008.087.022.026.061.029.087.008l.134-.113Z" fill="red" fill-rule="evenodd"/>
        <path d="M14.654,14.838c.026-.022.029-.061.007-.087-.022-.026-.061-.029-.086-.008l-.135.113c-.026.022-.029.061-.007.086.022.026.061.03.087.008l.134-.113Z" fill="red" fill-rule="evenodd"/>
        <path d="M14.547,14.71c.026-.022.03-.061.008-.086-.022-.026-.061-.03-.087-.008l-.134.113c-.026.022-.029.061-.008.087.022.026.061.03.087.007l.134-.113Z" fill="red" fill-rule="evenodd"/>
        <path d="M14.565,14.574l.091-.036-.051.083c-.004-.009-.009-.018-.016-.027-.007-.008-.015-.015-.023-.021Z" fill-rule="evenodd"/>
        <path d="M14.78,14.83l.091-.036-.051.083c-.004-.009-.009-.018-.016-.027-.007-.008-.015-.015-.023-.021Z" fill-rule="evenodd"/>
        <path d="M14.672,14.702l.091-.036-.051.084c-.004-.01-.01-.018-.016-.027-.007-.008-.015-.015-.024-.021Z" fill-rule="evenodd"/>
        <path d="M14.418,14.6c-.025.014-.058.009-.077-.014-.022-.026-.019-.065.007-.086.051-.043.11-.084.163-.127.014-.012.031-.016.05-.013l.079.01c.048.006.097-.003.14-.024.042-.02.078-.053.104-.096l.442-.706.011-.004.035.198c.003.016.017.021.031.017l.187-.071.007.041-.684,1.006-.179.071.103-.168c.011-.018-.007-.04-.027-.032l-.184.073.104-.169c.011-.019-.009-.041-.029-.032l-.226.089c-.013.004-.025.011-.036.02l-.021.018Z" fill="red" fill-rule="evenodd"/>
        <path d="M14.308,14.615c.015.017.033.028.053.033l-.076.064.023-.097Z" fill-rule="evenodd"/>
        <path d="M14.922,14.839c0,.05-.005.1-.012.149-.008.057-.021.114-.038.168.053.02.106.044.156.073.043.025.085.052.125.082,0-.05.005-.1.012-.149.008-.057.021-.114.039-.168-.054-.02-.106-.045-.156-.074-.043-.024-.085-.052-.125-.082Z" fill="#fed700" fill-rule="evenodd"/>
        <path d="M19.539,14.184c.06,0,.108.048.108.108,0,.059-.048.108-.108.108s-.108-.049-.108-.108c0-.06.048-.108.108-.108Z" fill="#fed700" fill-rule="evenodd"/>
        <path d="M20.205,12.853c-.028-.014-.04-.048-.026-.076.014-.028.047-.04.075-.026l.059.029c.028.014.04.047.026.076-.014.028-.048.04-.076.026l-.059-.029Z" fill="#fed700" fill-rule="evenodd"/>
        <path d="M20.274,12.711c-.028-.014-.04-.047-.026-.075s.047-.04.075-.026l.059.029c.028.014.04.047.026.075-.014.028-.047.04-.076.026l-.059-.029Z" fill="#fed700" fill-rule="evenodd"/>
        <path d="M20.343,12.569c-.028-.014-.04-.048-.026-.075.014-.028.048-.04.076-.026l.059.028c.028.014.04.048.026.076-.014.028-.048.04-.076.026l-.059-.029Z" fill="#fed700" fill-rule="evenodd"/>
        <path d="M21.251,10.723c.032,0,.059.026.059.058,0,.032-.026.059-.059.059s-.058-.026-.058-.059c0-.032.026-.058.058-.058Z" fill="#fed700" fill-rule="evenodd"/>
        <path d="M21.384,10.71l-.01-.179-.147.103c.007.009.014.017.023.025.027.024.064.043.1.049.011.002.022.003.034.003Z" fill="#fed700" fill-rule="evenodd"/>
        <path d="M20.89,11.496l-.003.022.009.005.016-.016c.017-.018.036-.047.046-.069.038-.079.08-.152.122-.219.042-.067.086-.126.128-.177.006-.049.009-.11-.005-.159-.046.019-.093.059-.128.094-.014.065-.034.136-.061.21-.026.074-.059.152-.097.23-.012.024-.023.052-.027.079Z" fill="#fed700" fill-rule="evenodd"/>
        <path d="M21.254,10.923c.004.043.001.088-.004.131,0,.004-.002.009-.005.012-.043.05-.086.11-.128.177-.041.065-.082.137-.119.214-.016.03-.031.056-.054.081.014.001.029,0,.042-.005.025-.008.047-.027.059-.052.039-.08.091-.15.151-.21.057-.056.123-.103.194-.138-.02-.047-.044-.091-.073-.133-.018-.027-.039-.052-.061-.076Z" fill="#fed700" fill-rule="evenodd"/>
        <path d="M20.845,11.49c.005-.032.016-.063.031-.092.038-.077.07-.154.095-.226.027-.075.047-.147.06-.211,0-.005.003-.008.006-.011.03-.03.064-.06.1-.083-.033-.003-.065-.003-.098-.001-.051.003-.101.011-.15.024.016.077.02.158.01.237-.01.084-.033.168-.072.248-.012.026-.013.054-.005.079.004.013.012.026.022.036Z" fill="#fed700" fill-rule="evenodd"/>
        <path d="M20.412,12.428l.059.029c.013.006.03,0,.036-.012l.406-.833c.006-.013,0-.03-.012-.036l-.06-.029c-.013-.006-.029,0-.035.013l-.406.833c-.007.013-.001.03.012.036Z" fill="#fed700" fill-rule="evenodd"/>
        <path d="M20.215,12.907l-.029-.014c-.013-.006-.029,0-.036.013l-.165.338s-.001.002-.002.004l-.205.42c-.035.064-.081.121-.139.166-.035.025-.059.052-.078.091-.023.048-.029.098-.02.141.008.041.031.075.065.091.034.017.075.014.112-.004.039-.019.075-.055.098-.103.021-.043.024-.072.024-.119,0-.073.017-.145.046-.212.116-.252.246-.512.371-.76.006-.013,0-.029-.013-.035l-.029-.014Z" fill="#fed700" fill-rule="evenodd"/>
        <path d="M16.34,7.017c.007-.048.029-.091.062-.123.018-.018.039-.033.062-.044l-.384-.103c.102.071.189.16.257.264l.004.005Z" fill="red" fill-rule="evenodd"/>
        <path d="M16.715,6.583c.039,0,.071.032.071.071s-.032.071-.071.071-.071-.032-.071-.071.032-.071.071-.071Z" fill="#fed700" fill-rule="evenodd"/>
        <path d="M15.81,6.684v.407c0,.041-.017.078-.044.105-.012.013-.027.023-.043.03.022.015.043.032.063.051.024.025.046.053.065.084.019-.031.041-.059.065-.083.019-.02.04-.037.063-.052-.016-.008-.031-.018-.043-.03-.027-.027-.044-.064-.044-.105v-.458c-.03.012-.058.03-.082.052Z" fill="#fed700" fill-rule="evenodd"/>
        <path d="M15.893,6.46v-.233c0-.012.01-.022.022-.022h.202c.049,0,.094.024.122.064.008-.011.014-.023.019-.035.008-.021.013-.045.013-.07s-.005-.048-.013-.069c-.005-.013-.012-.024-.019-.035-.027.04-.073.064-.122.064h-.202c-.012,0-.022-.01-.022-.022v-.202c0-.049.024-.094.064-.122-.011-.008-.023-.014-.035-.019-.021-.009-.045-.014-.069-.014s-.048.005-.07.014c-.012.005-.024.011-.035.019.04.028.064.073.064.122v.202c0,.012-.01.022-.022.022h-.202c-.048,0-.094-.024-.122-.064-.008.011-.014.023-.019.035-.009.022-.014.045-.014.07s.005.048.014.07c.005.012.011.024.019.035.027-.04.073-.064.122-.064h.202c.012,0,.022.01.022.022v.306c.021-.03.05-.056.082-.074Z" fill="#fed700" fill-rule="evenodd"/>
        <path d="M18.385,12.188c-.054-.026-.115-.041-.179-.041-.114,0-.217.046-.292.121-.075.075-.121.178-.121.292,0,.103.038.197.1.269.052.06.12.105.199.127-.043-.072-.066-.153-.066-.237,0-.126.051-.241.134-.323.083-.083.197-.134.323-.134h.009c-.031-.03-.067-.056-.107-.075Z" fill="#fed700" fill-rule="evenodd"/>
        <path d="M16.373,12.75c.037-.029.067-.065.09-.105.029-.051.045-.11.045-.172v-.419c-.034-.006-.067-.012-.1-.02-.029-.006-.057-.013-.086-.02.018.123.031.247.039.371.008.12.012.241.011.363Z" fill="#fed700" fill-rule="evenodd"/>
        <path d="M17.432,12.645c.022.04.053.076.09.105,0-.122.003-.243.011-.363.009-.124.022-.248.039-.371-.028.007-.057.014-.085.02-.033.007-.066.014-.1.02v.419c0,.061.016.12.045.172Z" fill="#fed700" fill-rule="evenodd"/>
        <path d="M16.406,11.704c-.014-.014-.027-.03-.038-.047-.011.017-.024.032-.038.047-.016.016-.033.03-.052.042.019.012.036.026.052.042.014.015.027.03.038.047.011-.017.024-.032.038-.047.015-.016.033-.029.052-.042-.019-.012-.036-.026-.052-.042Z" fill="#fed700" fill-rule="evenodd"/>
        <path d="M16.777,9.67l-.189.076.189.076c.011.005.017.018.012.029l-.08.188.188-.08c.011-.005.024,0,.029.012l.076.189.076-.189c.005-.011.018-.017.029-.012l.187.08-.08-.188c-.005-.012,0-.024.012-.029l.189-.076-.189-.076c-.011-.005-.017-.018-.012-.029l.08-.187-.188.08c-.011.005-.024,0-.029-.012l-.076-.189-.076.189c-.005.011-.018.016-.029.012l-.188-.08.08.188c.004.012,0,.025-.013.029Z" fill="#fed700" fill-rule="evenodd"/>
        <path d="M16.932,10.752c-.054-.049-.117-.09-.184-.119-.051.033-.1.071-.146.111-.005.004-.011.006-.018.005-.176-.023-.332-.11-.443-.238-.11-.126-.177-.29-.177-.47,0-.101.022-.201.062-.294l.181-.427c-.152.093-.284.216-.379.361-.098.149-.157.32-.157.505,0,.201.069.385.185.531.118.149.285.257.477.301.014.004.022.02.014.033-.057.097-.101.202-.13.311.128.015.243.076.327.166.089.096.144.223.144.363v.58c0,.096-.026.187-.071.265-.046.081-.114.148-.194.196-.044.026-.072.074-.072.125,0,.075.058.139.133.145.087.008.169.045.232.106.029.031.066.058.105.075.038.016.08.025.124.025s.086-.009.124-.025c.039-.017.076-.044.105-.075.063-.061.145-.098.232-.106.075-.006.133-.069.133-.145,0-.051-.027-.099-.071-.125-.08-.047-.148-.115-.194-.196-.045-.078-.071-.169-.071-.265v-.58c0-.14.055-.268.144-.363.084-.09.199-.151.327-.166-.029-.109-.073-.214-.13-.311-.008-.013,0-.03.014-.033.191-.044.358-.153.476-.301.116-.146.185-.331.185-.531,0-.185-.059-.357-.156-.505-.095-.145-.228-.268-.379-.361l.181.427c.04.093.062.192.062.294,0,.18-.067.344-.177.47-.111.127-.267.215-.443.238-.006,0-.013-.001-.018-.005-.046-.04-.095-.078-.146-.111-.067.029-.13.07-.184.119-.008.008-.022.008-.03,0Z" fill="#fed700" fill-rule="evenodd"/>
        <path d="M17.565,11.704c-.014-.014-.027-.03-.038-.047-.011.017-.024.032-.038.047-.016.016-.033.03-.052.042.019.012.036.026.052.042.014.015.027.03.038.047.011-.017.024-.032.039-.047.015-.016.033-.029.051-.042-.019-.012-.036-.026-.051-.042Z" fill="#fed700" fill-rule="evenodd"/>
        <path d="M18.102,11.058c-.056.034-.115.064-.177.09.063.026.122.056.177.09.065.04.125.084.178.132.053-.049.113-.093.178-.132.055-.033.115-.064.177-.09-.063-.026-.122-.056-.177-.09-.065-.039-.125-.084-.178-.132-.053.048-.113.093-.178.132Z" fill="#fed700" fill-rule="evenodd"/>
        <path d="M18.787,11.125v-1.819c0-.079.014-.158.04-.232h-3.749c.027.075.04.153.04.232v1.819h.077c.079-.029.152-.065.219-.105.069-.041.131-.089.185-.141.008-.008.022-.008.031,0,.055.052.117.099.185.141.067.041.141.076.219.105h.224c.011-.023.023-.046.035-.069-.189-.05-.354-.161-.473-.31-.122-.153-.195-.347-.195-.559,0-.194.061-.374.164-.53.111-.169.27-.309.452-.408.019-.01.04.009.031.029l-.207.488c-.038.088-.058.181-.058.276,0,.169.063.323.166.44.102.117.245.198.405.221.048-.042.099-.08.153-.114.007-.004.015-.005.021-.002.07.029.134.069.192.118.057-.05.122-.089.192-.118.007-.003.015-.003.021.002.054.034.105.073.153.114.161-.024.303-.104.405-.221.103-.118.165-.271.165-.44,0-.095-.02-.189-.058-.276l-.207-.488c-.008-.019.012-.039.031-.029.181.099.341.239.452.408.103.156.164.336.164.53,0,.211-.073.405-.195.559-.118.149-.283.26-.472.31.013.023.024.046.036.069h.224c.079-.029.152-.065.219-.105.068-.041.131-.089.185-.141.008-.008.022-.008.031,0,.055.052.117.099.186.141.067.041.141.076.219.105h.088ZM16.52,9.725l.219-.088-.092-.217c-.008-.019.011-.037.029-.029l.217.092.088-.219c.007-.019.034-.018.041,0l.088.219.217-.092c.019-.008.037.011.029.029l-.093.217.219.088c.019.008.018.034,0,.041l-.219.088.093.217c.008.018-.011.037-.029.029l-.217-.093-.088.219c-.008.019-.034.018-.041,0l-.088-.219-.217.093c-.019.008-.037-.011-.029-.029l.092-.217-.219-.088c-.019-.007-.018-.034,0-.041Z" fill="red" fill-rule="evenodd"/>
        <path d="M16.953,13.813c.075-.065.159-.119.249-.16l1.401-.642c.057-.026.104-.067.136-.116.032-.049.049-.107.049-.169v-1.555h-.088c-.078.029-.152.065-.219.105-.069.041-.131.089-.186.141-.008.008-.022.008-.031,0-.055-.052-.117-.099-.185-.141-.067-.041-.141-.076-.219-.105h-.204c.029.067.053.136.07.208.003.014-.004.028-.02.029-.127.008-.241.066-.324.154-.082.087-.132.205-.132.333v.58c0,.088.023.171.065.242.043.074.104.136.178.18.058.034.094.097.094.164,0,.099-.076.181-.174.189-.077.007-.149.04-.205.093-.033.035-.073.064-.118.083-.044.019-.092.03-.142.03s-.098-.011-.142-.03c-.045-.02-.086-.048-.119-.083-.055-.053-.127-.087-.204-.093-.098-.008-.174-.091-.174-.189,0-.067.036-.13.094-.164.074-.043.135-.106.178-.18.041-.072.065-.154.065-.242v-.58c0-.128-.05-.246-.132-.333-.082-.088-.197-.146-.324-.154-.016-.001-.022-.014-.02-.029.017-.071.041-.141.07-.208h-.204c-.078.029-.152.065-.219.105-.069.041-.131.089-.185.141-.008.008-.022.008-.031,0-.054-.052-.117-.099-.185-.141-.067-.041-.141-.076-.219-.105h-.077v1.555c0,.062.018.12.049.169.032.05.079.09.136.116l1.401.642c.09.041.173.096.248.16h0ZM16.502,12.667c-.033.059-.081.109-.139.145-.015.009-.034-.001-.034-.019.002-.135-.002-.269-.011-.403-.009-.133-.024-.267-.044-.401-.002-.016.012-.029.028-.025.038.01.077.02.116.028.039.008.077.016.115.022.011.001.02.011.02.022v.438c0,.069-.018.135-.051.193h0ZM16.388,11.602c.012.026.029.05.05.07.021.021.047.039.075.053.016.008.016.032,0,.04-.028.014-.053.032-.075.053-.021.021-.038.045-.05.07-.008.018-.033.017-.041,0-.012-.026-.029-.05-.049-.07-.021-.021-.047-.039-.075-.053-.016-.008-.016-.032,0-.04.028-.014.053-.032.075-.053.021-.021.038-.045.049-.07.008-.017.033-.017.041,0h0ZM17.547,11.602c.012.026.029.05.049.07.021.021.047.039.075.053.016.008.016.032,0,.04-.028.014-.053.032-.074.053-.021.021-.038.045-.05.07-.008.018-.033.017-.04,0-.012-.026-.029-.05-.05-.07-.021-.021-.046-.039-.074-.053-.016-.008-.016-.032,0-.04.028-.014.053-.032.074-.053.021-.021.038-.045.05-.07.008-.017.033-.017.04,0h0ZM17.532,12.812c-.059-.036-.107-.086-.14-.145-.033-.058-.051-.124-.051-.193v-.438c0-.012.009-.021.02-.022.038-.006.076-.014.115-.022.039-.008.078-.018.116-.028.016-.004.03.009.028.025-.02.134-.035.268-.044.401-.009.134-.013.269-.011.403,0,.018-.019.028-.034.019h0ZM18.205,12.103c.071,0,.139.016.199.045.062.03.117.074.16.128.013.016,0,.039-.021.036-.02-.003-.04-.004-.06-.004-.114,0-.217.046-.291.121-.075.075-.121.178-.121.292,0,.093.031.183.089.256.012.016,0,.039-.021.036-.111-.016-.209-.073-.279-.154-.069-.08-.111-.185-.111-.298,0-.126.051-.241.134-.323.083-.083.197-.134.323-.134h0ZM16.149,12.674c.005.053-.009.109-.045.154-.036.045-.088.071-.141.076-.05.005-.102-.007-.145-.039-.022.049-.06.086-.107.106-.053.024-.105.023-.16.004-.054-.021-.094-.061-.116-.11-.021-.046-.024-.1-.007-.151-.054-.006-.101-.031-.135-.069-.035-.04-.056-.094-.052-.152.003-.058.03-.109.07-.144.037-.033.086-.053.139-.053-.01-.052,0-.103.024-.147.029-.051.071-.081.127-.097.056-.015.112-.006.159.021.043.025.077.065.094.115.046-.026.098-.033.146-.024.052.011.1.042.132.089.031.047.042.103.031.158-.01.049-.038.095-.082.127.041.036.064.084.069.135Z" fill="#039" fill-rule="evenodd"/>
        <path d="M15.725,12.357c.091,0,.165.074.165.165s-.074.165-.165.165-.165-.074-.165-.165.074-.165.165-.165Z" fill="#fed700" fill-rule="evenodd"/>
        <path d="M15.538,12.616c-.014-.028-.022-.06-.022-.094,0-.042.012-.081.034-.114l-.08-.065c-.049-.005-.093.007-.13.04-.031.028-.052.068-.055.113-.003.046.013.088.041.119.034.039.077.055.128.055l.085-.055Z" fill="#fed700" fill-rule="evenodd"/>
        <path d="M15.758,12.729c-.01.002-.021.003-.032.003-.066,0-.125-.03-.163-.078l-.084.055c-.021.047-.024.091-.003.139.017.038.048.07.09.086.041.016.087.016.128-.002.047-.021.075-.056.091-.104l-.026-.098Z" fill="#fed700" fill-rule="evenodd"/>
        <path d="M15.932,12.554c-.012.075-.063.136-.131.163l.026.098c.038.033.08.05.131.044.042-.004.082-.025.111-.06s.04-.079.036-.121c-.005-.051-.031-.089-.072-.119l-.1-.005Z" fill="#fed700" fill-rule="evenodd"/>
        <path d="M15.82,12.335c.065.033.11.098.114.175l.1.005c.044-.026.073-.061.083-.111.009-.044,0-.088-.024-.125-.025-.038-.063-.062-.104-.07-.048-.01-.094.001-.133.03l-.036.096Z" fill="#fed700" fill-rule="evenodd"/>
        <path d="M15.725,12.312c.018,0,.036.002.053.007l.037-.096c-.01-.048-.036-.086-.079-.111-.037-.021-.081-.028-.125-.016-.044.012-.079.04-.1.077-.025.043-.028.088-.013.136l.08.065c.038-.037.09-.061.147-.061Z" fill="#fed700" fill-rule="evenodd"/>
        <path d="M13.874,13.209c.058,0,.115-.007.17-.022-.034-.045-.074-.086-.12-.122-.052-.04-.112-.072-.178-.095-.066-.023-.133-.034-.198-.034-.058,0-.115.007-.17.022.034.045.075.086.12.122.052.04.112.072.178.095.066.023.133.034.199.034Z" fill="#007c29" fill-rule="evenodd"/>
        <path d="M14.315,14.112c.058,0,.115-.007.17-.022-.034-.045-.074-.086-.12-.122-.052-.04-.112-.073-.178-.095-.066-.022-.133-.034-.199-.034-.058,0-.115.007-.17.022.034.045.075.086.12.122.052.04.112.072.178.095s.133.034.199.035Z" fill="#007c29" fill-rule="evenodd"/>
        <path d="M12.968,10.938c.026.02.051.041.073.065l.017.019-.004-.025c-.005-.033-.006-.064-.006-.097,0-.095-.022-.189-.064-.274-.03-.063-.07-.118-.116-.165-.04-.041-.086-.076-.135-.105-.008.056-.008.114,0,.171.009.065.028.13.058.193.042.085.101.16.176.219Z" fill="#007c29" fill-rule="evenodd"/>
        <path d="M13.141,11.239l-.053-.109c-.022-.035-.048-.067-.078-.097-.029-.03-.061-.057-.097-.081-.058-.039-.12-.067-.183-.085-.056-.016-.113-.023-.17-.023.021.053.05.103.085.149.04.052.089.099.147.138.058.039.12.067.183.085.055.015.11.023.166.023Z" fill="#007c29" fill-rule="evenodd"/>
        <path d="M13.265,11.075c.025-.061.041-.127.046-.196.005-.069-.002-.137-.018-.201-.014-.056-.037-.109-.065-.158-.035.044-.064.094-.086.148-.025.061-.041.127-.046.196-.003.043-.002.086.004.126.006.042.015.082.028.121l.053.109c.034-.045.062-.092.084-.145Z" fill="#007c29" fill-rule="evenodd"/>
        <path d="M13.086,11.282c.03,0,.055.025.055.055s-.025.055-.055.055-.055-.024-.055-.055.025-.055.055-.055Z" fill="#fed700" fill-rule="evenodd"/>
        <path d="M13.292,11.18c.03,0,.055.025.055.055s-.024.055-.055.055-.055-.025-.055-.055.025-.055.055-.055Z" fill="#fed700" fill-rule="evenodd"/>
        <path d="M13.604,12.001c-.001-.016-.002-.032-.001-.048,0-.071.013-.143.037-.213.02-.059.048-.114.083-.164,0-.054-.007-.106-.02-.156-.014-.056-.036-.109-.065-.158-.035.045-.064.094-.086.148-.025.061-.041.127-.046.196-.005.069.002.137.018.201.019.074.048.127.081.194Z" fill="#007c29" fill-rule="evenodd"/>
        <path d="M13.755,12.129c.03,0,.055.024.055.055,0,.03-.025.055-.055.055s-.055-.024-.055-.055c0-.031.024-.055.055-.055Z" fill="#fed700" fill-rule="evenodd"/>
        <circle cx="14.686" cy="14.093" r=".055" fill="#fed700"/>
        <path d="M14.6,14.033c.045-.034.086-.074.122-.12.04-.052.072-.112.095-.178.023-.066.034-.133.034-.199,0-.058-.007-.115-.022-.17-.045.034-.086.075-.122.121-.04.052-.072.112-.095.178-.023.066-.034.133-.035.199,0,.058.007.115.022.17Z" fill="#007c29" fill-rule="evenodd"/>
        <path d="M14.479,14.139c.03,0,.055.025.055.055,0,.031-.025.055-.055.055s-.055-.024-.055-.055c0-.03.024-.055.055-.055Z" fill="#fed700" fill-rule="evenodd"/>
        <path d="M14.67,13.463c-.005-.048-.016-.095-.031-.139-.013-.038-.03-.074-.05-.109-.035.045-.064.094-.086.148-.025.061-.041.127-.046.196-.007.098.009.197.047.288l.031.063c0-.016-.001-.032-.001-.048,0-.071.013-.143.037-.213.024-.069.058-.132.099-.187Z" fill="#007c29" fill-rule="evenodd"/>
        <path d="M14.413,13.933c-.048-.1-.122-.184-.214-.246-.058-.039-.119-.067-.183-.085-.055-.016-.113-.023-.17-.023.015.037.033.072.055.106.025.039.055.076.09.109.07.001.14.013.21.037.07.024.134.059.19.102.013.01.025.02.037.031l-.015-.031Z" fill="#007c29" fill-rule="evenodd"/>
        <path d="M13.383,12.202c.058,0,.115-.007.17-.022-.034-.046-.075-.087-.12-.122-.052-.04-.112-.073-.177-.095-.066-.023-.133-.034-.199-.035-.058,0-.115.007-.17.022.034.045.075.086.12.122.052.04.112.073.178.095.066.023.133.034.198.035Z" fill="#007c29" fill-rule="evenodd"/>
        <path d="M13.391,11.885c-.035-.04-.077-.077-.124-.109-.058-.039-.12-.067-.183-.084-.056-.016-.113-.023-.17-.023.015.037.033.072.055.106.025.039.055.076.089.109.07,0,.141.013.21.037.071.024.134.059.19.102.013.01.025.02.037.031-.03-.061-.058-.114-.105-.168Z" fill="#007c29" fill-rule="evenodd"/>
        <circle cx="13.547" cy="12.285" r=".055" fill="#fed700"/>
        <path d="M14.039,13.237c.031,0,.055.025.055.055s-.024.055-.055.055c-.03,0-.055-.025-.055-.055s.024-.055.055-.055Z" fill="#fed700" fill-rule="evenodd"/>
        <path d="M14.16,13.13c.045-.034.086-.075.122-.12.04-.052.073-.112.095-.178.02-.059.031-.118.034-.177,0-.069-.002-.123-.021-.192-.045.034-.086.074-.122.12-.04.052-.072.112-.095.178-.022.066-.034.133-.034.198,0,.058.007.115.022.17Z" fill="#007c29" fill-rule="evenodd"/>
        <path d="M14.245,13.135c.03,0,.055.025.055.055,0,.031-.025.055-.055.055s-.055-.024-.055-.055c0-.03.025-.055.055-.055Z" fill="#fed700" fill-rule="evenodd"/>
        <path d="M14.222,12.572c-.038.052-.069.112-.091.176-.024.07-.036.142-.037.213,0,.016,0,.032.001.048l-.026-.053c-.023-.047-.044-.107-.053-.158-.01-.053-.014-.108-.01-.165.005-.07.021-.135.046-.196.022-.054.051-.103.086-.148.02.034.037.071.05.109.019.056.031.115.034.174Z" fill="#007c29" fill-rule="evenodd"/>
        <path d="M13.969,13.023c-.023-.046-.052-.09-.087-.13-.035-.041-.077-.077-.124-.109-.058-.039-.12-.067-.183-.085-.056-.016-.113-.023-.17-.023.015.037.033.073.055.107.025.039.055.076.09.109.07,0,.141.013.21.037.07.024.134.059.19.102.012.01.025.02.037.031l-.015-.03h0s0,0,0,0v-.002s-.002-.003-.002-.003v-.002Z" fill="#007c29" fill-rule="evenodd"/>
        <path d="M14.688,14.326l-1.491-3.056c-.01.012-.012.012-.027.013l1.484,3.043c.011,0,.023,0,.034,0Z" fill="#fed700" fill-rule="evenodd"/>
        <path d="M13.669,12.124c.045-.034.086-.075.122-.121.04-.052.072-.112.095-.178.023-.066.034-.133.035-.198,0-.058-.007-.115-.022-.17-.045.034-.086.074-.122.12-.04.052-.072.112-.095.178-.023.066-.034.133-.034.199,0,.058.007.115.022.17Z" fill="#007c29" fill-rule="evenodd"/>
        <g>
          <path d="M18.037,13.508l.21.309.029-.168c.004-.013.016-.022.03-.017l.188.071.035-.198c.004-.014.016-.022.03-.017l.141.054-.164-.262-.498.228Z" fill="#af753b" fill-rule="evenodd"/>
          <path d="M15.868,13.508l-.21.309-.03-.168c-.004-.014-.016-.022-.03-.017l-.188.071-.035-.198c-.004-.014-.016-.022-.03-.017l-.141.054.165-.262.498.228Z" fill="#af753b" fill-rule="evenodd"/>
          <path d="M16.448,13.774c-.171.363-.366.712-.582,1.046-.217.334-.455.653-.714.954.1.046.199.094.297.144.101.051.2.104.3.159.179-.256.345-.521.497-.795.153-.277.292-.564.417-.859.004-.011.018-.017.029-.012.01.004.016.016.013.026-.069.322-.155.637-.258.946-.102.306-.221.605-.354.896.149.091.295.188.438.288.144.101.285.206.422.315.137-.109.278-.213.423-.315.143-.1.29-.197.438-.288-.133-.291-.252-.59-.354-.896-.103-.309-.189-.625-.258-.947-.002-.012.005-.024.017-.026.01-.002.021.004.025.013.124.295.263.582.416.859.152.274.317.539.497.795.099-.055.199-.108.3-.159.097-.049.196-.097.297-.144-.258-.301-.497-.62-.713-.954-.216-.334-.411-.683-.582-1.046l-.165.076c-.063.029-.123.067-.177.11-.054.044-.103.094-.144.151-.009.012-.027.012-.036,0-.042-.056-.09-.107-.144-.15-.054-.044-.113-.081-.177-.11l-.165-.076Z" fill="#af753b" fill-rule="evenodd"/>
          <path d="M19.986,13.614v.534c0,.165.047.32.129.452.078.126.188.23.317.302v-2.145c-.014.015-.032.025-.052.03.012.027.013.059,0,.087-.015.032-.045.052-.077.056.003.014.002.03-.005.045l-.312.639Z" fill="#af753b" fill-rule="evenodd"/>
          <path d="M19.725,14.196c.07.076.154.139.247.186-.02-.075-.031-.153-.031-.233v-.443l-.014.03c-.026.06-.042.127-.042.193.003.048-.007.096-.028.139-.028.057-.071.1-.119.123-.004.002-.008.004-.013.006Z" fill="#af753b" fill-rule="evenodd"/>
          <path d="M16.349,8.857c.09-.09.163-.197.214-.316.012-.028.022-.057.032-.086-.047.082-.111.156-.188.22-.098.081-.217.143-.35.182h.293Z" fill="#af753b" fill-rule="evenodd"/>
          <path d="M17.338,8.857c-.059-.026-.112-.063-.157-.108-.046-.046-.084-.101-.11-.161-.047.046-.08.104-.096.168-.005.023-.038.022-.043,0-.016-.064-.049-.122-.096-.168-.026.06-.064.115-.11.161-.045.045-.098.082-.157.108h.769Z" fill="#af753b" fill-rule="evenodd"/>
          <path d="M17.849,8.857c-.133-.039-.252-.102-.349-.182-.077-.064-.141-.138-.188-.22.009.029.02.058.032.086.05.119.123.226.213.316h.292Z" fill="#af753b" fill-rule="evenodd"/>
          <path d="M16.822,6.609c.006.014.009.029.009.045,0,.064-.052.115-.116.115s-.116-.052-.116-.115c0-.038.018-.071.046-.092l-.273-.073.306.529c.006.011.003.024-.008.031-.01.006-.024.003-.03-.008l-.095-.166c-.043.003-.082.022-.111.051-.031.031-.051.075-.051.123,0,.029.007.055.019.081.056.122.088.257.088.4v.373c0,.232-.076.446-.205.62-.103.139-.24.252-.398.326.191-.025.362-.1.492-.207.161-.132.26-.314.261-.515v-.512c0-.013.01-.022.022-.022.012,0,.022.01.022.022v.547c0,.141-.029.275-.08.397-.046.109-.11.209-.19.295.108-.013.206-.063.28-.136.086-.086.14-.205.14-.336v-.768c0-.013.01-.022.022-.022.012,0,.022.01.022.022v.768c0,.056-.009.11-.026.161.043.038.078.086.101.138.023-.053.057-.1.1-.138-.017-.05-.026-.105-.026-.161v-.768c0-.013.01-.022.022-.022.012,0,.022.01.022.022v.768c0,.131.053.249.139.336.074.074.171.123.28.136-.079-.087-.143-.186-.19-.295-.052-.122-.081-.257-.081-.397v-.547c0-.013.01-.022.022-.022.012,0,.022.01.022.022v.509c0,.202.1.385.261.518.131.107.301.182.492.207-.158-.074-.295-.187-.398-.326-.129-.174-.205-.388-.205-.62v-.288c0-.006.002-.011.006-.015.046-.056.083-.119.108-.189.024-.067.038-.139.038-.215,0-.043-.004-.085-.013-.126-.003-.016.011-.03.026-.026.049.011.097.029.14.053-.026-.081-.074-.154-.138-.21-.014-.012-.008-.034.009-.039.046-.014.094-.021.143-.021-.042-.053-.094-.096-.154-.127-.018-.009-.015-.036.005-.041.063-.016.123-.044.174-.084l-1.1-.295c-.068-.018-.137-.007-.194.025-.051.029-.092.076-.113.134l.747.2c.048.013.091.037.125.069.036.033.063.074.079.12.004.012-.002.024-.013.028-.012.004-.024-.002-.029-.013-.014-.039-.037-.074-.067-.102-.029-.027-.065-.048-.107-.059l-.269-.072Z" fill="#af753b" fill-rule="evenodd"/>
          <path d="M19.004,7.814l.223.223.223-.223v-.1c0-.021-.009-.04-.022-.054-.014-.014-.033-.022-.054-.022-.012,0-.022-.01-.022-.022,0-.012.01-.022.022-.022.033,0,.064.014.086.035.022.022.035.052.035.086v.1l.223.223.223-.223v-.247c0-.021-.008-.04-.022-.054-.014-.014-.033-.023-.054-.023-.012,0-.022-.01-.022-.022,0-.012.01-.022.022-.022.033,0,.064.014.086.035.022.022.036.052.036.086v.247l.223.223.207-.207c-.011-.054-.027-.106-.047-.156-.042-.104-.104-.197-.181-.275l-.47-.47-.714.714v.171Z" fill="#af753b" fill-rule="evenodd"/>
          <path d="M18.334,8.416l.157.157.23-.23c.009-.009.023-.009.032,0l.207.207v-.414c-.1.004-.197.032-.284.082l-.342.197Z" fill="#af753b" fill-rule="evenodd"/>
          <path d="M18.468,8.857v-.243l-.175-.175-.441.255c.094.072.2.128.316.164h.3Z" fill="#af753b" fill-rule="evenodd"/>
          <polygon points="18.759 8.413 18.759 8.857 18.959 8.857 18.959 8.614 18.759 8.413" fill="#af753b" fill-rule="evenodd"/>
          <polygon points="18.714 8.857 18.714 8.413 18.513 8.614 18.513 8.857 18.714 8.857" fill="#af753b" fill-rule="evenodd"/>
          <polygon points="19.249 8.078 19.249 8.35 19.45 8.551 19.45 7.877 19.249 8.078" fill="#af753b" fill-rule="evenodd"/>
          <polygon points="19.205 8.35 19.205 8.078 19.004 7.877 19.004 8.551 19.205 8.35" fill="#af753b" fill-rule="evenodd"/>
          <polygon points="19.205 8.857 19.205 8.413 19.004 8.614 19.004 8.857 19.205 8.857" fill="#af753b" fill-rule="evenodd"/>
          <polygon points="20.231 8.413 20.231 9.216 20.432 9.015 20.432 8.614 20.231 8.413" fill="#af753b" fill-rule="evenodd"/>
          <path d="M20.231,8.078v.272l.201.201v-.552c0-.039-.003-.076-.007-.114l-.193.193Z" fill="#af753b" fill-rule="evenodd"/>
          <polygon points="20.186 8.35 20.186 8.078 19.986 7.877 19.986 8.551 20.186 8.35" fill="#af753b" fill-rule="evenodd"/>
          <polygon points="19.986 9.015 20.186 9.216 20.186 8.413 19.986 8.614 19.986 9.015" fill="#af753b" fill-rule="evenodd"/>
          <polygon points="19.74 8.413 19.74 9.216 19.941 9.015 19.941 8.614 19.74 8.413" fill="#af753b" fill-rule="evenodd"/>
          <polygon points="19.74 8.078 19.74 8.35 19.941 8.551 19.941 7.877 19.74 8.078" fill="#af753b" fill-rule="evenodd"/>
          <polygon points="19.695 8.35 19.695 8.078 19.495 7.877 19.495 8.551 19.695 8.35" fill="#af753b" fill-rule="evenodd"/>
          <polygon points="19.495 9.015 19.695 9.216 19.695 8.413 19.495 8.614 19.495 9.015" fill="#af753b" fill-rule="evenodd"/>
          <polygon points="19.249 9.216 19.45 9.015 19.45 8.614 19.249 8.413 19.249 9.216" fill="#af753b" fill-rule="evenodd"/>
          <path d="M19.064,9.075l.141.141v-.299c-.058.041-.106.095-.14.157h0Z" fill="#af753b" fill-rule="evenodd"/>
          <path d="M19.45,9.078l-.207.207c-.009.009-.023.009-.031,0l-.168-.168c-.025.058-.039.122-.039.189v3.418h0c0,.166.047.321.129.453.078.126.188.23.317.302v-4.401Z" fill="#af753b" fill-rule="evenodd"/>
          <path d="M19.941,9.078l-.207.207c-.009.009-.023.009-.032,0l-.207-.207v4.533c0,.09.014.179.042.264.02-.031.045-.059.076-.079.052-.041.095-.094.126-.151l.202-.415v-4.152Z" fill="#af753b" fill-rule="evenodd"/>
          <path d="M20.432,9.078l-.207.207c-.009.009-.023.009-.032,0l-.207-.207v4.06l.123-.253c.007-.015.019-.026.033-.033-.016-.028-.019-.064-.003-.095.014-.028.039-.048.068-.054-.013-.026-.013-.058,0-.087.014-.029.04-.048.069-.054-.012-.027-.013-.058,0-.087.015-.032.045-.052.077-.056-.003-.015-.002-.031.005-.046l.073-.149v-3.145Z" fill="#af753b" fill-rule="evenodd"/>
          <path d="M13.777,12.086c.044.011.077.05.077.097,0,.055-.045.1-.1.1-.004,0-.009,0-.014,0l.179.367v-.788c-.023.062-.055.118-.094.168-.015.02-.031.039-.048.056Z" fill="#af753b" fill-rule="evenodd"/>
          <path d="M13.934,14.382c.054-.027.105-.06.152-.097.05-.04.095-.085.135-.136-.04-.006-.08-.016-.12-.03-.049-.017-.095-.039-.137-.065v.094c0,.081-.011.159-.031.233Z" fill="#af753b" fill-rule="evenodd"/>
          <path d="M13.92,13.252c-.015,0-.031.001-.046.001-.071,0-.143-.013-.213-.037-.069-.024-.132-.058-.188-.1v1.786c.13-.072.239-.176.317-.302.082-.132.129-.287.129-.452v-.124l-.008-.007c-.058-.044-.108-.097-.148-.157-.009-.013-.002-.031.013-.034.05-.016.101-.026.154-.03-.025-.028-.047-.057-.067-.087-.029-.045-.053-.094-.07-.145-.005-.014.005-.029.02-.029.035-.002.071,0,.106.003v-.286Z" fill="#af753b" fill-rule="evenodd"/>
          <path d="M14.125,13.342c-.017.03-.049.05-.086.05-.029,0-.056-.013-.074-.033v.186c.021.004.042.008.063.014.068.019.134.049.196.091.03.02.058.042.083.066l-.182-.374Z" fill="#af753b" fill-rule="evenodd"/>
          <path d="M14.269,13.094c.044.011.076.05.076.097,0,.055-.045.1-.1.1-.004,0-.009,0-.013,0l.181.371c-.001-.018-.002-.037-.002-.055v-.736c-.023.061-.055.117-.093.167-.015.02-.031.038-.048.056Z" fill="#af753b" fill-rule="evenodd"/>
          <path d="M13.474,12.635c.038.004.076.011.114.021.068.019.134.049.196.091.03.02.057.042.083.066l-.233-.478c-.017.03-.049.05-.086.05-.029,0-.056-.012-.074-.033v.283Z" fill="#af753b" fill-rule="evenodd"/>
          <path d="M13.49,12.893c-.006-.006-.011-.013-.017-.019v.02c.006,0,.011-.001.017-.002Z" fill="#af753b" fill-rule="evenodd"/>
          <path d="M14.946,8.551l.207-.207c.009-.009.023-.009.032,0l.23.23.157-.157-.342-.197c-.045-.026-.095-.047-.147-.061-.044-.012-.09-.019-.137-.021v.414Z" fill="#af753b" fill-rule="evenodd"/>
          <path d="M13.92,9.078l-.207.207c-.009.009-.023.009-.032,0l-.207-.207v2.433c.009-.041.021-.08.036-.117.028-.068.067-.13.113-.184.01-.011.027-.01.036.003.039.06.068.127.086.198.009.036.016.073.019.112.039-.046.084-.086.134-.119.007-.004.015-.005.021-.002v-2.322Z" fill="#af753b" fill-rule="evenodd"/>
          <path d="M14.411,9.078l-.207.207c-.008.009-.023.009-.031,0l-.207-.207v3.516c.007-.061.023-.12.046-.175.028-.068.066-.129.113-.183.01-.012.028-.011.036.002.029.045.053.093.071.144.015.044.026.091.032.139.038-.043.081-.081.127-.112.007-.004.014-.005.021-.002v-3.329Z" fill="#af753b" fill-rule="evenodd"/>
          <path d="M14.863,9.117l-.168.168c-.009.009-.023.009-.031,0l-.207-.207v4.284c.002-.005.004-.01.006-.016.028-.067.066-.129.113-.183.01-.011.028-.011.036.002.027.043.05.089.068.137.067-.074.121-.159.159-.252.041-.1.064-.21.064-.325h0v-3.419c0-.067-.014-.131-.039-.189Z" fill="#af753b" fill-rule="evenodd"/>
          <path d="M13.49,7.83l.207.207.223-.223v-.247c0-.033.014-.064.036-.085.022-.022.052-.036.086-.036.012,0,.022.01.022.022,0,.012-.01.022-.022.022-.021,0-.04.009-.054.023-.014.014-.022.033-.022.054v.247l.223.223.223-.223v-.1c0-.033.014-.064.035-.086.022-.022.052-.035.086-.035.012,0,.022.01.022.022,0,.013-.01.022-.022.022-.021,0-.04.009-.054.022-.014.014-.022.033-.022.054v.1l.223.223.223-.223v-.171l-.714-.714-.47.47c-.076.079-.138.172-.18.275-.02.05-.036.102-.047.156Z" fill="#af753b" fill-rule="evenodd"/>
          <polygon points="14.165 8.35 14.165 8.078 13.965 7.877 13.965 8.551 14.165 8.35" fill="#af753b" fill-rule="evenodd"/>
          <polygon points="14.165 9.216 14.165 8.413 13.965 8.614 13.965 9.015 14.165 9.216" fill="#af753b" fill-rule="evenodd"/>
          <polygon points="14.21 8.413 14.21 9.216 14.411 9.015 14.411 8.614 14.21 8.413" fill="#af753b" fill-rule="evenodd"/>
          <polygon points="14.21 8.078 14.21 8.35 14.411 8.551 14.411 7.877 14.21 8.078" fill="#af753b" fill-rule="evenodd"/>
          <path d="M13.675,8.35v-.272l-.194-.193c-.005.037-.007.075-.007.114v.552l.201-.201Z" fill="#af753b" fill-rule="evenodd"/>
          <polygon points="13.675 9.216 13.675 8.413 13.474 8.614 13.474 9.015 13.675 9.216" fill="#af753b" fill-rule="evenodd"/>
          <polygon points="13.719 8.413 13.719 9.216 13.92 9.015 13.92 8.614 13.719 8.413" fill="#af753b" fill-rule="evenodd"/>
          <polygon points="13.719 8.078 13.719 8.35 13.92 8.551 13.92 7.877 13.719 8.078" fill="#af753b" fill-rule="evenodd"/>
          <path d="M14.701,8.916v.299l.141-.141h0c-.035-.063-.083-.117-.14-.158Z" fill="#af753b" fill-rule="evenodd"/>
          <polygon points="14.701 8.413 14.701 8.857 14.902 8.857 14.902 8.614 14.701 8.413" fill="#af753b" fill-rule="evenodd"/>
          <polygon points="14.701 8.078 14.701 8.35 14.902 8.551 14.902 7.877 14.701 8.078" fill="#af753b" fill-rule="evenodd"/>
          <polygon points="14.656 8.35 14.656 8.078 14.456 7.877 14.456 8.551 14.656 8.35" fill="#af753b" fill-rule="evenodd"/>
          <polygon points="14.656 9.216 14.656 8.413 14.456 8.614 14.456 9.015 14.656 9.216" fill="#af753b" fill-rule="evenodd"/>
          <polygon points="15.147 8.857 15.147 8.413 14.946 8.614 14.946 8.857 15.147 8.857" fill="#af753b" fill-rule="evenodd"/>
          <path d="M15.437,8.614v.243h.3c.115-.036.222-.091.315-.163l-.441-.255-.175.175Z" fill="#af753b" fill-rule="evenodd"/>
          <polygon points="15.392 8.857 15.392 8.614 15.192 8.413 15.192 8.857 15.392 8.857" fill="#af753b" fill-rule="evenodd"/>
        </g>
        <path d="M15.97,11.148c-.062-.026-.122-.056-.177-.09-.065-.039-.125-.084-.178-.132-.053.048-.112.093-.178.132-.055.034-.114.064-.177.09.063.026.122.056.177.09.065.04.125.084.178.132.053-.049.113-.093.178-.132.055-.033.115-.064.177-.09Z" fill="#fed700" fill-rule="evenodd"/>
        <path d="M16.632,12.975c.047,0,.084.038.084.084s-.038.084-.084.084h-.13c-.046,0-.084-.038-.084-.084s.038-.084.084-.084h.13Z" fill-rule="evenodd"/>
        <path d="M16.632,13.099c.022,0,.04-.017.04-.04,0-.022-.018-.04-.04-.04h-.13c-.022,0-.039.018-.039.04,0,.022.018.04.039.04h.13Z" fill-rule="evenodd"/>
        <path d="M17.393,12.975c.046,0,.084.038.084.084s-.038.084-.084.084h-.13c-.046,0-.084-.038-.084-.084s.038-.084.084-.084h.13Z" fill-rule="evenodd"/>
        <path d="M17.393,13.099c.022,0,.04-.017.04-.04,0-.022-.017-.04-.04-.04h-.13c-.022,0-.04.018-.04.04,0,.022.018.04.04.04h.13Z" fill-rule="evenodd"/>
      </g>
    </g>
  </g>
</svg>