<svg xmlns="http://www.w3.org/2000/svg" id="Layer_2" data-name="Layer 2" viewBox="0 0 33.946 22.63">
  <defs><clipPath id="circleClip"><circle cx="16.973" cy="11.315" r="11.315" /></clipPath></defs><g clip-path="url(#circleClip)"><g id="_&#209;&#235;&#238;&#233;_1" data-name="&#209;&#235;&#238;&#233; 1">
    <g>
      <g>
        <rect x="22.63" width="11.315" height="22.63" fill="red" />
        <rect x="11.315" width="11.315" height="22.63" fill="#0072fe" />
        <rect width="11.315" height="22.63" fill="red" />
      </g>
      <g>
        <path d="M5.665,6.689c.758,0,1.372.614,1.372,1.372s-.614,1.372-1.372,1.372-1.372-.614-1.372-1.372.614-1.372,1.372-1.372Z" fill="#fed700" fill-rule="evenodd" />
        <path d="M7.578,8.513v.037c0,1.057-.856,1.913-1.913,1.913s-1.913-.856-1.913-1.913v-.037c.314.747,1.052,1.272,1.913,1.272s1.599-.525,1.913-1.272Z" fill="#fed700" fill-rule="evenodd" />
        <rect x="1.874" y="10.806" width="1.724" height="8.24" fill="#fed700" />
        <rect x="7.718" y="10.806" width="1.724" height="8.24" fill="#fed700" />
        <rect x="3.941" y="12.179" width="3.433" height=".687" fill="#fed700" />
        <polygon points="5.658 11.836 7.374 10.806 3.941 10.806 5.658 11.836" fill="#fed700" fill-rule="evenodd" />
        <polygon points="5.658 19.046 7.374 18.016 3.941 18.016 5.658 19.046" fill="#fed700" fill-rule="evenodd" />
        <rect x="3.941" y="16.986" width="3.433" height=".687" fill="#fed700" />
        <path d="M6.488,13.424c.528.292.886.856.886,1.503,0,.948-.768,1.717-1.717,1.717-.444,0-.805-.36-.805-.805s.36-.805.805-.805c.563,0,1.019-.456,1.019-1.019,0-.22-.07-.424-.188-.591h0ZM5.658,15.498c-.188,0-.339.152-.339.34s.152.34.339.34.34-.152.34-.34-.152-.34-.34-.34h0ZM5.658,13.675c-.188,0-.339.152-.339.339s.152.34.339.34.34-.152.34-.34-.152-.339-.34-.339h0ZM4.827,16.429c-.119-.166-.189-.37-.189-.591,0-.563.456-1.019,1.019-1.019.444,0,.805-.36.805-.805s-.36-.805-.805-.805c-.948,0-1.717.769-1.717,1.717,0,.647.358,1.21.886,1.503Z" fill="#fed700" fill-rule="evenodd" />
        <path d="M5.835,5.339c.014.081.086.143.171.143.095,0,.173-.077.173-.173,0-.057-.028-.108-.071-.14-.052-.036-.082-.101-.082-.163,0-.039.01-.074.029-.105.034-.053.054-.115.054-.183,0-.091-.036-.174-.095-.235.176.077.276.248.267.438-.004.08.029.16.088.215.106.097.147.212.149.353.009.47-.381.852-.852.852s-.861-.382-.852-.852c.003-.141.043-.256.149-.353.058-.054.092-.135.088-.215-.009-.19.091-.362.266-.438-.059.06-.095.143-.095.235,0,.067.02.13.054.183.019.031.029.066.029.105,0,.063-.031.127-.082.163-.043.031-.071.082-.071.14,0,.095.077.173.173.173.092,0,.167-.071.173-.161.004-.083-.007-.159-.041-.235-.032-.07-.05-.147-.05-.229,0-.133.044-.244.126-.347.048-.062.077-.14.077-.224,0-.047-.008-.091-.025-.132-.021-.053-.032-.107-.032-.166,0-.181.11-.337.267-.403-.1.086-.164.214-.164.356,0,.121.046.232.122.316.121.127.188.281.188.458,0,.113-.029.219-.079.312-.048.092-.068.211-.05.314Z" fill="#fed700" fill-rule="evenodd" />
      </g>
    </g>
  </g>
</g></svg>