<?xml version="1.0" encoding="UTF-8"?>
<svg id="Layer_2" data-name="Layer 2" xmlns="http://www.w3.org/2000/svg" viewBox="0 0 118.972 79.161">
  <g id="Layer_1-2" data-name="Layer 1">
    <g>
      <rect width="118.972" height="79.161" fill="#ed4847"/>
      <g>
        <polygon points="59.634 25.567 55.367 39.832 56.845 41.14 59.634 32.392 60.992 35.636 63.064 35.591 59.634 25.567" fill="#009c68"/>
        <polygon points="73.265 35.399 58.358 35.399 57.798 37.501 67.462 37.478 64.283 39.686 64.848 41.665 73.265 35.399" fill="#009c68"/>
        <polygon points="68.003 51.259 63.774 37.244 61.747 37.244 64.415 46.16 61.142 43.968 59.675 45.175 68.003 51.259" fill="#009c68"/>
        <polygon points="46.248 35.399 56.977 35.399 56.378 37.536 52.265 37.478 60.02 43.096 58.358 44.253 46.248 35.399" fill="#009c68"/>
        <polyline points="51.57 51.259 63.829 42.529 63.064 40.58 55.367 46.217 56.486 42.443 54.553 41.018 51.309 51.259" fill="#009c68"/>
      </g>
    </g>
  </g>
</svg>