<?xml version="1.0" encoding="UTF-8"?>
<svg id="Layer_2" data-name="Layer 2" xmlns="http://www.w3.org/2000/svg" xmlns:xlink="http://www.w3.org/1999/xlink" viewBox="0 0 118.972 79.17">
  <defs>
    <clipPath id="clippath">
      <path d="M20.09,39.584c0,21.862,17.723,39.586,39.585,39.586s39.585-17.724,39.585-39.586S81.538,0,59.675,0,20.09,17.723,20.09,39.584Z" fill="none"/>
    </clipPath>
  </defs>
  <g id="Layer_1-2" data-name="Layer 1">
    <g clip-path="url(#clippath)">
      <g>
        <rect y=".004" width="118.972" height="79.161" fill="#ed4847"/>
        <g>
          <polygon points="59.634 25.571 55.367 39.836 56.845 41.144 59.634 32.396 60.992 35.64 63.064 35.595 59.634 25.571" fill="#009c68"/>
          <polygon points="73.265 35.404 58.359 35.404 57.798 37.506 67.462 37.482 64.283 39.69 64.848 41.669 73.265 35.404" fill="#009c68"/>
          <polygon points="68.003 51.263 63.774 37.248 61.747 37.248 64.415 46.164 61.142 43.973 59.675 45.179 68.003 51.263" fill="#009c68"/>
          <polygon points="46.247 35.404 56.978 35.404 56.378 37.541 52.265 37.482 60.02 43.101 58.359 44.257 46.247 35.404" fill="#009c68"/>
          <polyline points="51.57 51.263 63.829 42.533 63.064 40.584 55.367 46.221 56.486 42.447 54.553 41.022 51.309 51.263" fill="#009c68"/>
        </g>
      </g>
    </g>
  </g>
</svg>