<svg xmlns="http://www.w3.org/2000/svg" id="Layer_2" data-name="Layer 2" viewBox="0 0 33.945 22.631">
  <defs><clipPath id="circleClip"><circle cx="16.9725" cy="11.3155" r="11.3155" /></clipPath></defs><g clip-path="url(#circleClip)"><g id="_&#209;&#235;&#238;&#233;_1" data-name="&#209;&#235;&#238;&#233; 1">
    <g>
      <g>
        <rect width="33.945" height="22.631" fill="#fff" />
        <rect y="7.803" width="33.945" height="7.024" />
        <rect width="33.945" height="7.024" fill="#007c29" />
        <rect y="15.607" width="33.945" height="7.024" fill="#fed700" />
      </g>
      <g>
        <polygon points="0 0 0 22.631 15.064 11.315 0 0" fill="red" fill-rule="evenodd" />
        <g>
          <polygon points=".643 10.318 4.037 10.318 5.086 7.089 6.135 10.318 9.529 10.318 6.782 12.309 7.832 15.541 5.086 13.538 2.34 15.541 3.39 12.309 .643 10.318" fill="#fed700" fill-rule="evenodd" />
          <path d="M3.464,9.007l-.539-.036h-.004c-.043-.001-.087.013-.122.044-.01.008-.018.017-.025.027h0s-.001.002-.001.002v.002s-.002.001-.002.001l-1.012,1.509v.002s-.002.002-.002.002v.002c-.024.038-.022.088.006.125l.536.614c.025.024.065.026.091.003.003-.003.006-.006.008-.009l1.213-1.517h.001c.01-.015.016-.031.019-.047v-.002l.03-.451.263.301.219.015.683.781-.116.098.161.19.118-.101.03.034-.154.13-.19-.224-.02-.113-.372.315c-.296.013-.604.068-.874.181-.003.001-.005.003-.007.005l-.261.261s-.006.008-.006.013l-.147.729-.1-.008-.03.363.041.003-.008.093-.064-.005-.425.421c-.093-.02-.194.001-.272.067l-.74.627c-.028.023-.031.065-.007.093l.437.515c.061.072.171.071.232,0l.615-.748h1.979c.128.11.301.162.469.162.169,0,.346-.054.474-.167.174-.13.688-.157.904-.157.19,0,.707.024.894.15l.618.706c.058-.015.113-.043.161-.085.048-.042.083-.093.106-.148l-.742-.849-.437-1.764s-.003-.008-.006-.012l-.26-.26s-.007-.005-.011-.007c-.313-.13-.677-.183-1.016-.183-.07,0-.14.002-.21.007l-.063-.072.186-.158c.058-.049.079-.127.059-.196l.334-.283.131.155c.02.023.055.026.078.007l.841-.713c.059.039.137.034.191-.018l1.424-1.374c.011-.01.013-.027.003-.038-.009-.011-.024-.013-.035-.006l-1.583,1.128.01-.119c.002-.024-.006-.047-.022-.067-.033-.039-.093-.044-.132-.011l-.091.077c-.084-.039-.161-.096-.226-.168l-.055.01-.022.268-.409.347-.212-.018-.513.435-.009.11-.087-.103-.289.245-.686-.785.015-.219-.393-.45c-.121-.138-.331-.153-.47-.031-.102.089-.136.227-.099.348h0ZM5.291,10.366l-.03-.034.198-.168.029.035-.198.167Z" fill-rule="evenodd" />
          <polygon points="2.961 12.197 3.736 11.54 3.771 11.582 4.355 11.123 3.844 11.591 3.852 11.636 3.755 11.718 3.705 11.659 2.948 12.353 2.961 12.197" fill="#fff" fill-rule="evenodd" />
          <path d="M5.541,13.288c-.09-.107-.238-.204-.428-.283-.19.08-.338.176-.429.283.119.097.277.142.429.142s.309-.045.428-.142Z" fill="#fff" fill-rule="evenodd" />
          <path d="M3.288,11.657l.932-.79-.017-.096.023-.02c-.269.017-.544.069-.789.169l-.149.736Z" fill="#fff" fill-rule="evenodd" />
          <polygon points="3.037 11.87 3.233 11.704 3.381 10.974 3.177 11.177 3.037 11.87" fill="#fff" fill-rule="evenodd" />
          <path d="M3.412,12.747l-.019-.052-.118-.103.325-.299.116.01.159-.146-.085-.1-.116.107c.024.015.052.024.08.026l-.004.052-.147-.012-.525.482c.002.027-.001.053-.008.079.117-.02.234-.034.344-.044Z" fill="#fff" fill-rule="evenodd" />
          <path d="M3.604,13.268l-.175-.476c-.122.01-.251.026-.38.049-.006.012-.014.023-.022.034l-.323.393h.901Z" fill="#fff" fill-rule="evenodd" />
          <path d="M3.813,12.775l.097.263-.271.23h1.003c.088-.108.23-.206.412-.287-.383-.147-.831-.203-1.24-.205Z" fill="#fff" fill-rule="evenodd" />
          <path d="M5.09,12.383c-.395-.074-.774-.245-1.097-.511l-.08.074.197.233-.386.354.072.197c.425,0,.895.059,1.293.216v-.564Z" fill="#fff" fill-rule="evenodd" />
          <path d="M5.09,11.003l-.288.244c-.015.013-.038.011-.051-.004l-.178-.21-.035.03.142.167c.006.008.005.019-.002.025-.004.003-.009.005-.014.004-.049-.011-.102,0-.143.035-.089.075-.073.209.024.268.17.107.353.185.544.232v-.79Z" fill="#fff" fill-rule="evenodd" />
          <path d="M7.093,12.427l-1.466-1.677c.057-.003.115-.005.172-.005.33,0,.683.05.99.176l.305,1.506Z" fill="#fff" fill-rule="evenodd" />
          <polygon points="7.463 12.851 7.153 12.496 6.845 10.974 7.048 11.177 7.463 12.851" fill="#fff" fill-rule="evenodd" />
          <path d="M6.951,12.805l.357.408c-.237-.089-.641-.107-.817-.107-.237,0-.712.027-.914.154-.088-.105-.228-.2-.405-.279.391-.15.85-.205,1.265-.205.17,0,.343.009.514.03Z" fill="#fff" fill-rule="evenodd" />
          <path d="M5.255,10.863l1.653,1.891c-.157-.017-.314-.024-.47-.024-.427,0-.902.058-1.302.217v-.556c.14.023.282.034.424.033.014,0,.028-.005.039-.014.012-.01.019-.023.021-.037l.038-.463c0-.016-.004-.03-.014-.042-.012-.015-.03-.022-.048-.021-.154.005-.308-.01-.459-.043v-.839l.119-.101Z" fill="#fff" fill-rule="evenodd" />
        </g>
      </g>
    </g>
  </g>
</g></svg>