<svg xmlns="http://www.w3.org/2000/svg" id="Layer_2" data-name="Layer 2" viewBox="0 0 33.945 22.63">
  <defs><clipPath id="circleClip"><circle cx="16.9725" cy="11.315" r="11.315" /></clipPath></defs><g clip-path="url(#circleClip)"><g id="_&#209;&#235;&#238;&#233;_1" data-name="&#209;&#235;&#238;&#233; 1">
    <g>
      <rect width="33.945" height="22.63" fill="#fff" />
      <g>
        <polygon points="17.918 22.63 0 22.63 0 0 20.127 11.62 6.908 11.62 17.918 22.63" fill="#039" fill-rule="evenodd" />
        <polygon points="16.291 21.956 5.281 10.946 17.612 10.946 .674 1.167 .674 21.956 16.291 21.956" fill="red" fill-rule="evenodd" />
        <polygon points="3.103 17.906 1.745 18.071 2.567 16.978 1.309 16.443 2.567 15.907 1.745 14.814 3.103 14.98 2.937 13.622 4.03 14.444 4.566 13.186 5.101 14.444 6.194 13.622 6.029 14.98 7.386 14.814 6.564 15.907 7.823 16.443 6.564 16.978 7.386 18.071 6.029 17.906 6.194 19.263 5.101 18.441 4.566 19.7 4.03 18.441 2.937 19.263 3.103 17.906" fill="#fff" fill-rule="evenodd" />
        <path d="M7.683,7.215v.047c0,1.722-1.395,3.119-3.118,3.119s-3.119-1.396-3.119-3.119v-.048c.279.718.798,1.315,1.458,1.693l.246-.2-.527-.381.622-.176-.334-.559.641.084-.086-.646.556.331.176-.627.38.524.38-.524.176.627.556-.331-.086.646.641-.084-.334.559.622.176-.527.381.234.19c.652-.379,1.164-.972,1.44-1.683Z" fill="#fff" fill-rule="evenodd" />
      </g>
    </g>
  </g>
</g></svg>