<?xml version="1.0" encoding="UTF-8"?>
<svg id="Layer_2" data-name="Layer 2" xmlns="http://www.w3.org/2000/svg" viewBox="0 0 118.972 79.168">
  <g id="Layer_1-2" data-name="Layer 1">
    <g>
      <rect width="118.972" height="79.168" fill="#2a3887"/>
      <polygon points="75.927 33.795 76.92 36.818 80.111 36.835 77.608 38.964 78.513 41.754 75.927 40.122 73.342 41.754 74.249 38.964 71.744 36.835 74.909 36.79 75.927 33.795" fill="#fff"/>
      <polygon points="75.927 35.096 76.626 37.225 78.874 37.237 77.111 38.737 77.749 40.701 75.927 39.552 74.106 40.701 74.745 38.737 72.98 37.237 75.211 37.205 75.927 35.096" fill="#a53333"/>
      <polygon points="89.188 13.044 90.18 16.066 93.372 16.084 90.869 18.214 91.773 21.003 89.188 19.37 86.602 21.003 87.509 18.214 85.004 16.084 88.17 16.039 89.188 13.044" fill="#fff"/>
      <polygon points="89.188 14.345 89.887 16.474 92.135 16.486 90.372 17.985 91.009 19.95 89.188 18.801 87.366 19.95 88.006 17.985 86.241 16.486 88.471 16.454 89.188 14.345" fill="#a53333"/>
      <polygon points="89.784 66.958 90.776 69.98 93.967 69.998 91.464 72.127 92.369 74.916 89.784 73.284 87.198 74.916 88.105 72.127 85.6 69.998 88.766 69.952 89.784 66.958" fill="#fff"/>
      <polygon points="89.784 68.258 90.482 70.387 92.73 70.399 90.968 71.899 91.605 73.864 89.784 72.714 87.962 73.864 88.601 71.899 86.837 70.399 89.067 70.367 89.784 68.258" fill="#a53333"/>
      <polygon points="101.478 28.469 102.47 31.491 105.662 31.509 103.159 33.638 104.063 36.427 101.478 34.795 98.892 36.427 99.799 33.638 97.294 31.509 100.46 31.463 101.478 28.469" fill="#fff"/>
      <polygon points="101.478 29.769 102.177 31.898 104.425 31.91 102.662 33.41 103.299 35.374 101.478 34.225 99.656 35.374 100.296 33.41 98.531 31.91 100.761 31.878 101.478 29.769" fill="#a53333"/>
      <rect x=".13" y=".144" width="59.726" height="44.502" fill="#2a3887"/>
      <polygon points=".13 39.664 52.846 .144 59.857 .144 59.857 5.183 7.15 44.608 .13 44.608 .13 39.664" fill="#fff"/>
      <polygon points="59.857 39.664 7.15 .144 .13 .144 .13 5.183 52.846 44.608 59.857 44.608 59.857 39.664" fill="#fff"/>
      <rect x=".13" y="14.869" width="59.726" height="15.291" fill="#fff"/>
      <rect x="25.139" y=".144" width="9.925" height="44.604" fill="#fff"/>
      <rect x="26.927" y=".144" width="6.141" height="44.464" fill="#ef4848"/>
      <rect x=".13" y="17.812" width="59.726" height="9.129" fill="#ef4848"/>
      <polygon points=".13 3.523 .13 .144 19.263 14.537 14.853 14.537 .13 3.523" fill="#ef4848"/>
      <polygon points="40.065 29.789 44.415 29.789 59.857 41.325 59.857 44.608 40.065 29.789" fill="#ef4848"/>
      <polygon points="55.38 .144 59.857 .144 40.601 14.537 36.032 14.537 55.38 .144" fill="#ef4848"/>
      <polygon points=".13 44.608 20.018 29.789 24.385 29.789 4.68 44.608 .13 44.608" fill="#ef4848"/>
    </g>
  </g>
</svg>