<?xml version="1.0" encoding="UTF-8"?>
<svg id="Layer_2" data-name="Layer 2" xmlns="http://www.w3.org/2000/svg" xmlns:xlink="http://www.w3.org/1999/xlink" viewBox="0 0 118.972 79.17">
  <defs>
    <clipPath id="clippath">
      <path d="M0,39.584c0,21.862,17.723,39.586,39.585,39.586s39.585-17.724,39.585-39.586S61.447,0,39.585,0,0,17.723,0,39.584Z" fill="none"/>
    </clipPath>
  </defs>
  <g id="Layer_1-2" data-name="Layer 1">
    <g clip-path="url(#clippath)">
      <g>
        <rect y=".001" width="118.972" height="79.167" fill="#2a3887"/>
        <polygon points="75.927 33.796 76.92 36.819 80.111 36.836 77.608 38.965 78.513 41.755 75.927 40.123 73.342 41.755 74.249 38.965 71.744 36.836 74.909 36.791 75.927 33.796" fill="#fff"/>
        <polygon points="75.927 35.097 76.626 37.226 78.874 37.238 77.111 38.738 77.749 40.702 75.927 39.553 74.106 40.702 74.745 38.738 72.98 37.238 75.211 37.206 75.927 35.097" fill="#a53333"/>
        <polygon points="89.188 13.045 90.18 16.067 93.371 16.085 90.869 18.215 91.773 21.004 89.188 19.371 86.602 21.004 87.509 18.215 85.004 16.085 88.17 16.04 89.188 13.045" fill="#fff"/>
        <polygon points="89.188 14.346 89.887 16.475 92.135 16.487 90.372 17.986 91.009 19.951 89.188 18.802 87.366 19.951 88.006 17.986 86.241 16.487 88.471 16.455 89.188 14.346" fill="#a53333"/>
        <polygon points="89.784 66.959 90.776 69.981 93.967 69.998 91.464 72.128 92.369 74.918 89.784 73.285 87.198 74.918 88.105 72.128 85.6 69.998 88.766 69.953 89.784 66.959" fill="#fff"/>
        <polygon points="89.784 68.259 90.482 70.388 92.73 70.4 90.968 71.9 91.605 73.865 89.784 72.715 87.962 73.865 88.601 71.9 86.837 70.4 89.067 70.368 89.784 68.259" fill="#a53333"/>
        <polygon points="101.478 28.47 102.47 31.492 105.662 31.51 103.159 33.639 104.063 36.428 101.478 34.796 98.892 36.428 99.799 33.639 97.294 31.51 100.46 31.464 101.478 28.47" fill="#fff"/>
        <polygon points="101.478 29.771 102.177 31.898 104.425 31.911 102.662 33.411 103.299 35.376 101.478 34.226 99.656 35.376 100.296 33.411 98.531 31.911 100.761 31.879 101.478 29.771" fill="#a53333"/>
        <rect x=".13" y=".145" width="59.727" height="44.502" fill="#2a3887"/>
        <polygon points=".13 39.665 52.846 .145 59.857 .145 59.857 5.184 7.15 44.609 .13 44.609 .13 39.665" fill="#fff"/>
        <polygon points="59.857 39.665 7.15 .145 .13 .145 .13 5.184 52.846 44.609 59.857 44.609 59.857 39.665" fill="#fff"/>
        <rect x=".13" y="14.87" width="59.727" height="15.291" fill="#fff"/>
        <rect x="25.139" y=".145" width="9.925" height="44.604" fill="#fff"/>
        <rect x="26.927" y=".145" width="6.141" height="44.464" fill="#ef4848"/>
        <rect x=".13" y="17.813" width="59.727" height="9.129" fill="#ef4848"/>
        <polygon points=".13 3.524 .13 .145 19.263 14.538 14.853 14.538 .13 3.524" fill="#ef4848"/>
        <polygon points="40.065 29.79 44.415 29.79 59.857 41.326 59.857 44.609 40.065 29.79" fill="#ef4848"/>
        <polygon points="55.38 .145 59.857 .145 40.6 14.538 36.032 14.538 55.38 .145" fill="#ef4848"/>
        <polygon points=".13 44.609 20.017 29.79 24.385 29.79 4.68 44.609 .13 44.609" fill="#ef4848"/>
      </g>
    </g>
  </g>
</svg>