<?xml version="1.0" encoding="UTF-8"?>
<svg id="Layer_2" data-name="Layer 2" xmlns="http://www.w3.org/2000/svg" viewBox="0 0 33.945 22.63">
  <g id="_Ñëîé_1" data-name="Ñëîé 1">
    <g>
      <g>
        <rect width="33.945" height="22.63" fill="#fff"/>
        <rect y="15.925" width="33.945" height="6.705" fill="#0072fe"/>
        <rect width="33.945" height="6.705" fill="#0072fe"/>
      </g>
      <g>
        <g>
          <polygon points="14.173 12.881 19.689 12.881 16.931 8.114 14.173 12.881" fill="#c8a400" fill-rule="evenodd"/>
          <polygon points="14.32 12.796 19.542 12.796 16.931 8.283 14.32 12.796" fill="#00e8fe" fill-rule="evenodd"/>
          <g>
            <g>
              <g>
                <polygon points="16.994 8.392 16.931 10.588 16.868 8.392 16.931 8.283 16.994 8.392" fill="#fff" fill-rule="evenodd"/>
                <polygon points="16.994 12.796 16.931 10.588 16.867 12.796 16.994 12.796" fill="#fff" fill-rule="evenodd"/>
              </g>
              <g>
                <polygon points="15.619 10.55 16.931 10.588 15.575 10.627 15.619 10.55" fill="#fff" fill-rule="evenodd"/>
                <polygon points="18.242 10.55 16.931 10.588 18.287 10.627 18.242 10.55" fill="#fff" fill-rule="evenodd"/>
              </g>
            </g>
            <g>
              <g>
                <polygon points="16.73 8.63 16.931 10.588 16.64 8.785 16.73 8.63" fill="#fff" fill-rule="evenodd"/>
                <polygon points="17.286 12.796 16.931 10.588 17.157 12.796 17.286 12.796" fill="#fff" fill-rule="evenodd"/>
              </g>
              <g>
                <polygon points="15.513 10.733 16.931 10.588 15.46 10.824 15.513 10.733" fill="#fff" fill-rule="evenodd"/>
                <polygon points="18.15 10.391 16.931 10.588 18.189 10.458 18.15 10.391" fill="#fff" fill-rule="evenodd"/>
              </g>
            </g>
            <g>
              <g>
                <polygon points="16.543 8.953 16.931 10.588 16.476 9.069 16.543 8.953" fill="#fff" fill-rule="evenodd"/>
                <polygon points="17.591 12.796 16.931 10.588 17.455 12.796 17.591 12.796" fill="#fff" fill-rule="evenodd"/>
              </g>
              <g>
                <polygon points="15.385 10.954 16.931 10.588 15.318 11.07 15.385 10.954" fill="#fff" fill-rule="evenodd"/>
                <polygon points="18.067 10.248 16.931 10.588 18.103 10.309 18.067 10.248" fill="#fff" fill-rule="evenodd"/>
              </g>
            </g>
            <g>
              <g>
                <polygon points="16.402 9.198 16.931 10.588 16.349 9.289 16.402 9.198" fill="#fff" fill-rule="evenodd"/>
                <polygon points="17.921 12.796 16.931 10.588 17.772 12.796 17.921 12.796" fill="#fff" fill-rule="evenodd"/>
              </g>
              <g>
                <polygon points="15.22 11.239 16.931 10.588 15.13 11.395 15.22 11.239" fill="#fff" fill-rule="evenodd"/>
                <polygon points="17.989 10.113 16.931 10.588 18.023 10.171 17.989 10.113" fill="#fff" fill-rule="evenodd"/>
              </g>
            </g>
            <g>
              <g>
                <polygon points="16.287 9.395 16.931 10.588 16.243 9.472 16.287 9.395" fill="#fff" fill-rule="evenodd"/>
                <polygon points="18.292 12.796 16.931 10.588 18.122 12.796 18.292 12.796" fill="#fff" fill-rule="evenodd"/>
              </g>
              <g>
                <polygon points="14.992 11.634 16.931 10.588 14.858 11.865 14.992 11.634" fill="#fff" fill-rule="evenodd"/>
                <polygon points="17.914 9.982 16.931 10.588 17.947 10.039 17.914 9.982" fill="#fff" fill-rule="evenodd"/>
              </g>
            </g>
            <g>
              <g>
                <polygon points="16.19 9.563 16.931 10.588 16.151 9.63 16.19 9.563" fill="#fff" fill-rule="evenodd"/>
                <polygon points="18.728 12.796 16.931 10.588 18.526 12.796 18.728 12.796" fill="#fff" fill-rule="evenodd"/>
              </g>
              <g>
                <polygon points="14.639 12.244 16.931 10.588 14.41 12.64 14.639 12.244" fill="#fff" fill-rule="evenodd"/>
                <polygon points="17.837 9.85 16.931 10.588 17.871 9.908 17.837 9.85" fill="#fff" fill-rule="evenodd"/>
              </g>
            </g>
            <g>
              <g>
                <polygon points="16.104 9.712 16.931 10.588 16.068 9.774 16.104 9.712" fill="#fff" fill-rule="evenodd"/>
                <polygon points="19.27 12.796 16.931 10.588 19.015 12.796 19.27 12.796" fill="#fff" fill-rule="evenodd"/>
              </g>
              <g>
                <polygon points="14.592 12.796 16.931 10.588 14.846 12.796 14.592 12.796" fill="#fff" fill-rule="evenodd"/>
                <polygon points="17.757 9.712 16.931 10.588 17.793 9.774 17.757 9.712" fill="#fff" fill-rule="evenodd"/>
              </g>
            </g>
            <g>
              <g>
                <polygon points="16.024 9.85 16.931 10.588 15.99 9.908 16.024 9.85" fill="#fff" fill-rule="evenodd"/>
                <polygon points="19.222 12.243 16.931 10.588 19.451 12.639 19.222 12.243" fill="#fff" fill-rule="evenodd"/>
              </g>
              <g>
                <polygon points="15.134 12.796 16.931 10.588 15.335 12.796 15.134 12.796" fill="#fff" fill-rule="evenodd"/>
                <polygon points="17.671 9.563 16.931 10.588 17.71 9.63 17.671 9.563" fill="#fff" fill-rule="evenodd"/>
              </g>
            </g>
            <g>
              <g>
                <polygon points="15.948 9.982 16.931 10.588 15.915 10.039 15.948 9.982" fill="#fff" fill-rule="evenodd"/>
                <polygon points="18.869 11.634 16.931 10.588 19.003 11.865 18.869 11.634" fill="#fff" fill-rule="evenodd"/>
              </g>
              <g>
                <polygon points="15.57 12.796 16.931 10.588 15.739 12.796 15.57 12.796" fill="#fff" fill-rule="evenodd"/>
                <polygon points="17.574 9.395 16.931 10.588 17.618 9.472 17.574 9.395" fill="#fff" fill-rule="evenodd"/>
              </g>
            </g>
            <g>
              <g>
                <polygon points="15.872 10.113 16.931 10.588 15.838 10.172 15.872 10.113" fill="#fff" fill-rule="evenodd"/>
                <polygon points="18.641 11.239 16.931 10.588 18.731 11.394 18.641 11.239" fill="#fff" fill-rule="evenodd"/>
              </g>
              <g>
                <polygon points="15.941 12.796 16.931 10.588 16.09 12.796 15.941 12.796" fill="#fff" fill-rule="evenodd"/>
                <polygon points="17.46 9.198 16.931 10.588 17.513 9.289 17.46 9.198" fill="#fff" fill-rule="evenodd"/>
              </g>
            </g>
            <g>
              <g>
                <polygon points="15.794 10.248 16.931 10.588 15.758 10.309 15.794 10.248" fill="#fff" fill-rule="evenodd"/>
                <polygon points="18.476 10.954 16.931 10.588 18.543 11.07 18.476 10.954" fill="#fff" fill-rule="evenodd"/>
              </g>
              <g>
                <polygon points="16.271 12.796 16.931 10.588 16.407 12.796 16.271 12.796" fill="#fff" fill-rule="evenodd"/>
                <polygon points="17.319 8.953 16.931 10.588 17.385 9.069 17.319 8.953" fill="#fff" fill-rule="evenodd"/>
              </g>
            </g>
            <g>
              <g>
                <polygon points="15.711 10.391 16.931 10.588 15.672 10.459 15.711 10.391" fill="#fff" fill-rule="evenodd"/>
                <polygon points="18.348 10.733 16.931 10.588 18.401 10.824 18.348 10.733" fill="#fff" fill-rule="evenodd"/>
              </g>
              <g>
                <polygon points="16.575 12.796 16.931 10.588 16.705 12.796 16.575 12.796" fill="#fff" fill-rule="evenodd"/>
                <polygon points="17.131 8.63 16.931 10.588 17.221 8.785 17.131 8.63" fill="#fff" fill-rule="evenodd"/>
              </g>
            </g>
          </g>
          <path d="M16.999,10.713v.988h-.137v-.988c-.082-.007-.2-.027-.198-.08.006-.105.019-.211.039-.314-.003-.002-.005-.004-.008-.006-.062-.062.037-.188.081-.232.014-.015.03-.028.046-.041.004-.003.008-.007.013-.009.028-.02.061-.031.095-.031.106,0,.175.098.197.192.038.143.06.293.069.441.002.052-.116.073-.198.08Z" fill="#fff" fill-rule="evenodd"/>
          <g>
            <path d="M16.931,9.474c.302,0,.59.089.833.249l1.778,3.073h-.249l-1.375-2.376c-.204-.352-.579-.569-.988-.569s-.783.217-.988.569l-1.375,2.376h-.249l1.778-3.073c.243-.159.531-.249.833-.249Z" fill="red" fill-rule="evenodd"/>
            <path d="M16.931,9.528c.331,0,.645.111.898.307l1.713,2.961h-.249l-1.375-2.376c-.204-.352-.579-.569-.988-.569s-.783.217-.988.569l-1.375,2.376h-.249l1.713-2.961c.252-.196.567-.307.898-.307Z" fill="#f60" fill-rule="evenodd"/>
            <path d="M16.931,9.581c.372,0,.721.146.98.396l1.63,2.818h-.249l-1.375-2.376c-.204-.352-.579-.569-.988-.569s-.783.217-.988.569l-1.375,2.376h-.249l1.63-2.818c.259-.251.609-.396.98-.396Z" fill="#fc0" fill-rule="evenodd"/>
            <path d="M16.931,9.635c.501,0,.939.272,1.173.676l1.437,2.484h-.249l-1.375-2.376c-.204-.352-.579-.569-.988-.569s-.783.217-.988.569l-1.375,2.376h-.249l1.437-2.484c.235-.404.672-.677,1.174-.677Z" fill="#3c6" fill-rule="evenodd"/>
            <path d="M14.382,12.796h.186l1.375-2.376c.204-.352.579-.569.988-.569s.783.217.988.569l1.375,2.376h.186l-1.421-2.457c-.233-.402-.661-.65-1.127-.65s-.894.248-1.127.65l-1.422,2.457Z" fill="#00e8fe" fill-rule="evenodd"/>
            <path d="M14.444,12.796h.124l1.375-2.376c.204-.352.579-.569.988-.569s.783.217.988.569l1.375,2.376h.124l-1.406-2.43c-.223-.386-.634-.623-1.081-.623s-.857.238-1.081.623l-1.406,2.43Z" fill="#039" fill-rule="evenodd"/>
            <path d="M14.506,12.796h.062l1.375-2.376c.204-.352.579-.569.988-.569s.783.217.988.569l1.375,2.376h.062l-1.39-2.403c-.213-.369-.607-.596-1.034-.596s-.821.227-1.034.596l-1.39,2.403Z" fill="#90f" fill-rule="evenodd"/>
          </g>
          <path d="M17.098,10.2c.035.131.059.278.068.435-.003-.026-.108-.048-.235-.048s-.232.021-.235.048c.007-.118.022-.231.044-.335-.009-.001-.016-.004-.022-.01-.029-.029.007-.113.081-.187.014-.014.029-.027.043-.038.004-.003.007-.006.011-.008h0c.023-.016.05-.025.077-.025.078,0,.143.07.167.168Z" fill="red" fill-rule="evenodd"/>
          <path d="M16.696,10.634h0c.007-.117.022-.23.044-.334.036.005.098-.027.156-.081-.106.111-.178.255-.199.415Z" fill="#9a0000" fill-rule="evenodd"/>
          <path d="M16.931,10.588c.13,0,.235.022.235.049,0,.027-.106.049-.235.049s-.235-.022-.235-.049c0-.027.105-.049.235-.049Z" fill="#9a0000" fill-rule="evenodd"/>
          <rect x="16.893" y="10.588" width=".075" height="1.083" fill="#0072fe"/>
          <path d="M16.968,10.588v.097l-.075.043v-.14c.012,0,.025,0,.037,0,.013,0,.025,0,.037,0Z" fill="#039" fill-rule="evenodd"/>
          <path d="M15.046,11.541c.018.006.036.012.054.019.081.032.17.05.262.05s.181-.018.262-.05c.081-.032.169-.049.262-.049s.181.017.261.049c.081.032.169.05.262.05s.181-.018.262-.05c.081-.032.169-.049.262-.049s.181.017.262.049c.081.032.169.05.262.05s.18-.018.261-.05c.081-.032.169-.049.262-.049s.18.017.262.049c.081.032.169.05.262.05s.181-.018.262-.05c.017-.007.035-.013.053-.019l.726,1.255h-5.222l.726-1.255Z" fill="#039" fill-rule="evenodd"/>
          <path d="M15,11.619c.034.008.067.018.099.031.081.032.17.049.262.049s.181-.018.262-.049c.081-.032.169-.05.262-.05s.181.018.261.05c.081.032.169.049.262.049s.181-.018.262-.049c.081-.032.169-.05.262-.05s.181.018.262.05c.081.032.169.049.262.049s.18-.018.261-.049c.081-.032.169-.05.262-.05s.18.018.262.05c.081.032.169.049.262.049s.181-.018.262-.049c.032-.013.065-.023.099-.031l.681,1.176h-5.222l.681-1.176Z" fill="#fff" fill-rule="evenodd"/>
          <path d="M14.953,11.701c.051.008.1.022.146.04.081.032.17.05.262.05s.181-.018.262-.05c.081-.032.169-.049.262-.049s.181.018.261.049c.081.032.169.05.262.05s.181-.018.262-.05c.081-.032.169-.049.262-.049s.181.018.262.049c.081.032.169.05.262.05s.18-.018.261-.05c.081-.032.169-.049.262-.049s.18.018.262.049c.081.032.169.05.262.05s.181-.018.262-.05c.046-.018.095-.032.146-.04l.634,1.095h-5.222l.633-1.095Z" fill="#039" fill-rule="evenodd"/>
          <path d="M14.904,11.786c.068.006.134.022.195.046.081.032.17.05.262.05s.181-.018.262-.05c.081-.032.169-.049.262-.049s.181.017.261.049c.081.032.169.05.262.05s.181-.018.262-.05c.081-.032.169-.049.262-.049s.181.017.262.049c.081.032.169.05.262.05s.18-.018.261-.05c.081-.032.169-.049.262-.049s.18.017.262.049c.081.032.169.05.262.05s.181-.018.262-.05c.061-.024.127-.04.195-.046l.584,1.01h-5.222l.584-1.01Z" fill="#fff" fill-rule="evenodd"/>
          <path d="M14.853,11.874c.087.002.17.019.246.049.081.032.17.049.262.049s.181-.018.262-.049c.081-.032.169-.05.262-.05s.181.017.261.05c.081.032.169.049.262.049s.181-.018.262-.049c.081-.032.169-.05.262-.05s.181.017.262.05c.081.032.169.049.262.049s.18-.018.261-.049c.081-.032.169-.05.262-.05s.18.017.262.05c.081.032.169.049.262.049s.181-.018.262-.049c.076-.03.16-.048.246-.049l.533.922h-5.222l.533-.922Z" fill="#039" fill-rule="evenodd"/>
          <path d="M14.8,11.966c.012,0,.025-.001.038-.001.092,0,.18.017.262.049.081.032.17.05.262.05s.181-.018.262-.05c.081-.032.169-.049.262-.049s.181.017.261.049c.081.032.169.05.262.05s.181-.018.262-.05c.081-.032.169-.049.262-.049s.181.017.262.049c.081.032.169.05.262.05s.18-.018.261-.05c.081-.032.169-.049.262-.049s.18.017.262.049c.081.032.169.05.262.05s.181-.018.262-.05c.081-.032.169-.049.261-.049.013,0,.025,0,.038.001l.48.83h-5.222l.48-.83Z" fill="#fff" fill-rule="evenodd"/>
          <path d="M14.745,12.061c.031-.004.062-.006.093-.006.092,0,.18.017.262.049.081.032.17.05.262.05s.181-.018.262-.05c.081-.032.169-.049.262-.049s.181.017.261.049c.081.032.169.05.262.05s.181-.018.262-.05c.081-.032.169-.049.262-.049s.181.017.262.049c.081.032.169.05.262.05s.18-.018.261-.05c.081-.032.169-.049.262-.049s.18.017.262.049c.081.032.169.05.262.05s.181-.018.262-.05c.081-.032.169-.049.261-.049.032,0,.063.002.094.006l.425.734h-5.222l.425-.734Z" fill="#039" fill-rule="evenodd"/>
          <path d="M14.686,12.162c.049-.011.1-.016.152-.016.092,0,.18.017.262.05.081.032.17.049.262.049s.181-.018.262-.049c.081-.032.169-.05.262-.05s.181.017.261.05c.081.032.169.049.262.049s.181-.018.262-.049c.081-.032.169-.05.262-.05s.181.017.262.05c.081.032.169.049.262.049s.18-.018.261-.049c.081-.032.169-.05.262-.05s.18.017.262.05c.081.032.169.049.262.049s.181-.018.262-.049c.081-.032.169-.05.261-.05.052,0,.103.006.152.016l.366.633h-5.222l.366-.633Z" fill="#fff" fill-rule="evenodd"/>
          <path d="M14.624,12.27c.067-.021.139-.033.214-.033.092,0,.18.018.262.049.081.032.17.05.262.05s.181-.018.262-.05c.081-.032.169-.049.262-.049s.181.018.261.049c.081.032.169.05.262.05s.181-.018.262-.05c.081-.032.169-.049.262-.049s.181.018.262.049c.081.032.169.05.262.05s.18-.018.261-.05c.081-.032.169-.049.262-.049s.18.018.262.049c.081.032.169.05.262.05s.181-.018.262-.05c.081-.032.169-.049.261-.049.075,0,.147.011.214.033l.304.526h-5.222l.304-.526Z" fill="#039" fill-rule="evenodd"/>
          <polygon points="18.033 11.216 19.247 12.43 16.673 12.43 17.887 11.216 18.033 11.216" fill="#fed700" fill-rule="evenodd"/>
          <polygon points="16.673 12.43 17.887 11.216 19.102 12.43 16.673 12.43" fill="#007c29" fill-rule="evenodd"/>
          <polygon points="17.732 11.216 18.946 12.43 16.371 12.43 17.586 11.216 17.732 11.216" fill="#fed700" fill-rule="evenodd"/>
          <polygon points="16.371 12.43 17.586 11.216 18.8 12.43 16.371 12.43" fill="#007c29" fill-rule="evenodd"/>
          <polygon points="17.35 11.136 18.644 12.43 15.845 12.43 17.139 11.136 17.35 11.136" fill="#fed700" fill-rule="evenodd"/>
          <polygon points="15.845 12.43 17.139 11.136 18.433 12.43 15.845 12.43" fill="#007c29" fill-rule="evenodd"/>
          <polygon points="16.913 11.066 18.277 12.43 15.338 12.43 16.701 11.066 16.913 11.066" fill="#fed700" fill-rule="evenodd"/>
          <polygon points="15.338 12.43 16.701 11.066 18.065 12.43 15.338 12.43" fill="#007c29" fill-rule="evenodd"/>
          <polygon points="16.332 10.923 17.839 12.43 14.614 12.43 16.121 10.923 16.332 10.923" fill="#007c29" fill-rule="evenodd"/>
          <polygon points="16.332 10.923 17.839 12.43 16.6 12.43 16.077 11.907 15.349 11.907 16.354 11.327 15.929 11.327 16.332 10.923" fill="#fed700" fill-rule="evenodd"/>
          <polygon points="16.29 11.547 15.943 11.748 16.216 11.748 16.899 12.43 17.173 12.43 16.29 11.547" fill="#007c29" fill-rule="evenodd"/>
          <polygon points="16.354 11.327 16.534 11.327 17.637 12.43 17.457 12.43 16.354 11.327" fill="#007c29" fill-rule="evenodd"/>
          <path d="M14.558,12.385c.006-.002.013-.005.019-.007.081-.032.169-.049.261-.049s.18.017.262.049c.081.032.17.049.262.049s.181-.018.262-.049c.081-.032.169-.049.262-.049s.181.017.261.049c.081.032.169.049.262.049s.181-.018.262-.049c.081-.032.169-.049.262-.049s.181.017.262.049c.081.032.169.049.262.049s.18-.018.261-.049c.081-.032.169-.049.262-.049s.18.017.262.049c.081.032.169.049.262.049s.181-.018.262-.049c.081-.032.169-.049.261-.049s.181.017.262.049c.006.002.012.005.019.007l.238.411h-5.222l.238-.411Z" fill="#fff" fill-rule="evenodd"/>
          <path d="M14.494,12.495c.028-.007.056-.016.083-.027.081-.032.169-.05.261-.05s.18.018.262.05c.081.032.17.049.262.049s.181-.018.262-.049c.081-.032.169-.05.262-.05s.181.018.261.05c.081.032.169.049.262.049s.181-.018.262-.049c.081-.032.169-.05.262-.05s.181.018.262.05c.081.032.169.049.262.049s.18-.018.261-.049c.081-.032.169-.05.262-.05s.18.018.262.05c.081.032.169.049.262.049s.181-.018.262-.049c.081-.032.169-.05.261-.05s.181.018.262.05c.027.01.054.02.083.027l.174.301h-5.222l.174-.301Z" fill="#039" fill-rule="evenodd"/>
          <path d="M14.434,12.599c.049-.008.097-.022.143-.04.081-.032.169-.049.261-.049s.18.018.262.049c.081.032.17.05.262.05s.181-.018.262-.05c.081-.032.169-.049.262-.049s.181.018.261.049c.081.032.169.05.262.05s.181-.018.262-.05c.081-.032.169-.049.262-.049s.181.018.262.049c.081.032.169.05.262.05s.18-.018.261-.05c.081-.032.169-.049.262-.049s.18.018.262.049c.081.032.169.05.262.05s.181-.018.262-.05c.081-.032.169-.049.261-.049s.181.018.262.049c.046.018.093.031.143.04l.114.197h-5.222l.114-.197Z" fill="#fff" fill-rule="evenodd"/>
          <path d="M14.377,12.697c.07-.006.137-.022.199-.047.081-.032.169-.05.261-.05s.18.017.262.05c.081.032.17.049.262.049s.181-.018.262-.049c.081-.032.169-.05.262-.05s.181.017.261.05c.081.032.169.049.262.049s.181-.018.262-.049c.081-.032.169-.05.262-.05s.181.017.262.05c.081.032.169.049.262.049s.18-.018.261-.049c.081-.032.169-.05.262-.05s.18.017.262.05c.081.032.169.049.262.049s.181-.018.262-.049c.081-.032.169-.05.261-.05s.181.017.262.05c.063.025.13.041.199.047l.057.099h-5.222l.057-.099Z" fill="#039" fill-rule="evenodd"/>
        </g>
        <path d="M13.584,11.217l-.471-.036.016-.209c.003-.042.01-.073.02-.095.01-.021.026-.037.049-.049.022-.011.046-.016.072-.014.033.003.061.016.082.039.021.023.033.058.036.103.009-.016.018-.028.026-.036.018-.017.041-.033.067-.047l.134-.072-.006.078-.103.055c-.03.016-.053.029-.069.04-.016.011-.027.02-.034.029-.007.008-.012.018-.015.027-.002.007-.004.018-.005.035l-.006.072.209.016-.005.063h0ZM13.325,11.134l.01-.134c.002-.028,0-.051-.004-.067-.004-.017-.013-.03-.025-.039-.012-.009-.026-.015-.041-.016-.022-.002-.041.005-.057.02-.016.015-.025.04-.027.075l-.011.149.156.012h0ZM13.645,10.673l-.461-.106.077-.332.054.012-.063.271.141.033.059-.254.054.012-.059.254.157.036.065-.282.054.012-.079.343h0ZM13.779,10.181l-.44-.173.066-.166c.011-.029.021-.051.031-.065.012-.02.026-.036.042-.046.016-.011.035-.017.056-.019.021-.002.043.002.065.01.037.015.064.039.08.073.016.034.012.082-.012.144l-.044.113.179.071-.023.058h0ZM13.571,10.032l.045-.114c.015-.038.018-.067.011-.088-.008-.021-.024-.037-.05-.047-.018-.007-.036-.009-.053-.005-.017.004-.03.013-.041.026-.006.009-.015.026-.025.053l-.044.113.157.062h0ZM13.749,9.194l.034-.053.23.147c.04.026.069.051.087.075.018.024.026.053.026.086,0,.033-.013.069-.038.107-.024.037-.05.064-.078.079-.028.015-.058.02-.088.015-.031-.005-.067-.022-.109-.049l-.23-.147.034-.053.23.147c.035.022.062.035.083.039.02.004.04.001.059-.009.019-.01.035-.026.05-.049.025-.038.033-.071.027-.099-.007-.028-.036-.057-.086-.09l-.23-.147h0ZM14.279,9.253l.118-.136c.02-.023.035-.044.044-.063.01-.019.015-.037.016-.054.001-.017-.002-.035-.011-.055-.008-.02-.021-.037-.037-.051-.021-.018-.044-.028-.069-.029-.025-.002-.05.005-.076.022.006-.024.006-.046,0-.065-.006-.02-.017-.037-.033-.05-.016-.014-.036-.023-.059-.027-.023-.004-.045,0-.067.01s-.044.029-.068.056l-.116.134.357.31h0ZM14.113,9.026l-.108-.094.062-.071c.022-.025.039-.042.052-.05.012-.008.026-.011.04-.008.014.002.027.008.039.019.012.011.02.023.023.036.003.013.001.028-.006.043-.005.011-.017.028-.035.049l-.067.077h0ZM14.278,9.169l-.123-.107.072-.083c.02-.023.037-.038.051-.047.014-.009.03-.012.046-.011.016.002.03.008.044.02.011.01.019.021.024.033.004.013.006.024.004.035-.002.011-.006.023-.014.036-.004.007-.013.018-.026.034l-.077.089h0ZM14.621,8.872l-.309-.357.047-.041.273.316.175-.152.036.042-.223.193h0ZM14.968,8.585l.051-.037-.274-.385-.051.036.274.385h0ZM15.378,8.134l.062-.018c.014.051.013.097-.003.137-.016.04-.045.073-.088.097-.044.026-.085.037-.123.035-.038-.002-.074-.016-.108-.042s-.062-.058-.085-.097c-.024-.043-.038-.085-.04-.126-.002-.041.007-.079.028-.112.021-.034.049-.061.085-.082.041-.024.081-.033.121-.028.04.005.076.023.109.055l-.046.043c-.027-.024-.053-.038-.079-.041-.026-.003-.052.003-.08.019-.031.018-.054.041-.066.068-.012.027-.016.056-.01.086.006.03.017.059.032.086.02.035.042.062.068.083.025.02.052.03.08.031.029,0,.056-.006.08-.021.03-.018.051-.041.062-.071.011-.029.01-.064-.002-.102h0ZM15.607,8.212l-.005-.506.064-.025.352.369-.066.026-.103-.113-.185.073.005.152-.061.024h0ZM15.662,7.982l.15-.059-.094-.104c-.028-.032-.051-.058-.068-.079.005.031.008.062.009.094l.003.148h0ZM16.462,7.957l-.036-.471.162-.012c.036-.003.065-.003.084,0,.027.004.051.014.072.028.026.019.047.044.062.076.015.032.024.069.027.111.003.036.001.068-.005.096-.006.028-.015.052-.027.071-.012.019-.025.034-.04.046-.014.012-.033.021-.054.028-.022.007-.047.012-.075.014l-.17.013h0ZM16.52,7.897l.101-.008c.031-.003.055-.007.072-.014.017-.007.031-.016.041-.028.014-.016.023-.037.03-.062.006-.026.008-.056.005-.092-.004-.05-.015-.087-.033-.112-.018-.025-.039-.041-.063-.049-.017-.005-.044-.006-.081-.003l-.099.007.027.361h0ZM17.011,7.921l.036-.471.34.026-.004.055-.278-.021-.011.145.26.02-.004.055-.26-.019-.012.16.289.022-.004.055-.351-.027h0ZM17.877,8.043l.151-.448.061.021.116.431.119-.351.057.019-.151.448-.061-.02-.116-.431-.119.351-.057-.019h0ZM18.4,8.241l.195-.431.057.026-.195.431-.057-.026h0ZM18.994,8.388l.044.047c-.039.036-.08.056-.123.061-.043.004-.086-.007-.127-.033-.043-.027-.072-.058-.088-.093-.016-.035-.02-.073-.013-.115.007-.042.023-.082.047-.12.027-.041.058-.072.093-.093s.073-.03.112-.027c.039.003.077.016.112.038.04.025.067.057.081.095.014.038.015.078.002.122l-.059-.021c.009-.035.01-.064,0-.089-.009-.024-.027-.045-.053-.062-.03-.02-.061-.029-.09-.027-.03.001-.057.012-.081.031-.024.02-.045.042-.061.069-.022.034-.036.066-.042.098-.006.032-.003.06.009.086.013.026.031.046.055.062.029.019.059.026.091.022.031-.004.061-.02.09-.049h0ZM19.036,8.618l.05.043.132-.075.15.13-.052.144.054.047.164-.483-.052-.045-.446.239h0ZM19.266,8.56l.13-.071c.028-.016.054-.033.079-.052-.011.025-.024.057-.039.097l-.048.131-.122-.105h0ZM19.452,9l.357-.31.137.158c.027.032.045.059.053.081s.008.045,0,.069c-.008.024-.021.044-.041.061-.026.022-.054.032-.086.031-.031-.001-.064-.017-.099-.047.005.018.007.032.007.044,0,.025-.005.052-.014.08l-.044.146-.051-.059.033-.112c.01-.032.016-.058.02-.077.003-.019.005-.033.003-.044-.001-.011-.005-.021-.009-.03-.003-.006-.01-.016-.021-.028l-.048-.055-.158.137-.041-.047h0ZM19.692,8.874l.088.101c.019.022.035.037.05.045.015.008.03.011.045.009.015-.002.029-.008.04-.018.017-.015.026-.033.026-.054,0-.022-.011-.046-.034-.072l-.098-.113-.118.102h0ZM19.771,9.379l.033.057.15-.027.099.173-.097.119.035.062.314-.403-.034-.06-.5.079h0ZM20.007,9.4l.146-.024c.031-.006.062-.013.092-.023-.018.02-.041.046-.069.079l-.089.108-.08-.14h0ZM20.302,10.007l.052-.02.073.186-.163.064c-.034-.02-.063-.042-.086-.068-.023-.026-.042-.055-.054-.087-.017-.043-.023-.086-.019-.129.005-.042.021-.08.049-.111.028-.032.063-.056.107-.073.043-.017.086-.024.13-.02.044.003.082.018.113.044.031.027.056.062.073.105.012.032.019.063.018.092,0,.03-.007.056-.019.077-.013.022-.033.042-.059.061l-.035-.047c.019-.016.034-.031.043-.045.009-.015.014-.033.014-.054s-.003-.043-.012-.065c-.01-.026-.023-.048-.039-.064-.016-.016-.033-.027-.05-.034-.018-.007-.036-.01-.054-.011-.032,0-.063.005-.095.018-.039.015-.069.035-.091.059-.021.024-.033.051-.036.082-.003.031.002.061.013.09.01.025.025.048.044.068.019.02.037.034.053.042l.082-.033-.051-.129h0ZM20.777,10.615l.014.061-.266.061c-.047.011-.084.014-.114.01-.029-.004-.056-.018-.079-.041-.023-.023-.04-.057-.05-.101-.01-.043-.011-.08-.002-.111.009-.031.025-.056.051-.074.025-.018.063-.033.111-.044l.266-.061.014.061-.266.062c-.04.009-.069.019-.086.031-.017.012-.029.028-.035.048-.006.02-.006.044,0,.07.011.045.028.074.053.088.025.014.066.015.124.001l.266-.061h0ZM20.343,10.906l.485.145.005.069-.457.228-.005-.071.139-.065-.015-.198-.146-.04-.005-.066h0ZM20.546,11.027l.012.161.127-.059c.039-.018.071-.031.096-.041-.031-.004-.062-.011-.093-.019l-.142-.041Z" fill="#c8a400" fill-rule="evenodd"/>
        <path d="M13.329,12.107l.057-.011.035.176-.057.011-.035-.176h0ZM13.403,12.834l.504-.044.03.062-.34.38-.031-.064.105-.112-.087-.179-.151.017-.029-.06h0ZM13.637,12.871l.071.145.096-.102c.029-.031.054-.055.074-.074-.03.008-.061.013-.093.016l-.147.015h0ZM13.734,13.442l.036.048.325-.238-.244.348.033.045.4-.123-.319.234.036.048.381-.28-.05-.068-.332.103c-.034.011-.059.019-.076.024.01-.013.024-.033.043-.06l.204-.288-.056-.076-.381.28h0ZM14.207,14.03l.325-.344.248.234-.038.04-.202-.191-.1.106.19.179-.038.04-.189-.179-.111.117.211.199-.038.04-.256-.242h0ZM14.693,14.452l.053.034.113-.176.061.039c.014.009.023.016.028.021.007.007.013.016.017.026.004.01.008.025.01.044.002.019.003.045.003.079v.117s.065.043.065.043v-.153c0-.03-.002-.057-.009-.081-.003-.011-.009-.024-.019-.04.041.019.077.025.108.018.031-.008.055-.025.073-.054.014-.022.021-.045.022-.071,0-.025-.006-.047-.02-.066-.014-.019-.039-.04-.074-.063l-.176-.113-.256.397h0ZM14.888,14.263l.085-.132.126.081c.029.019.047.039.053.06.006.021.003.041-.01.06-.008.013-.02.022-.033.029-.014.007-.03.008-.046.004-.017-.004-.037-.013-.061-.029l-.113-.073h0ZM15.284,14.802l.191-.432.057.025-.191.432-.057-.025h0ZM16.002,14.9l.054.035c-.029.044-.064.074-.105.088-.041.015-.084.014-.131-.001-.048-.016-.084-.039-.107-.069-.023-.03-.037-.066-.04-.109-.003-.043.002-.085.017-.128.016-.046.038-.084.068-.113.03-.029.064-.046.103-.053.039-.007.078-.004.117.01.045.015.079.039.101.072.023.033.033.073.031.118l-.063-.006c0-.036-.007-.065-.021-.087-.015-.021-.037-.037-.067-.047-.034-.012-.066-.013-.094-.005-.029.009-.052.025-.071.05-.019.025-.033.052-.043.081-.013.038-.018.073-.017.105.001.032.012.059.03.081.019.022.042.037.069.047.033.011.064.011.094,0,.029-.011.054-.035.075-.069h0ZM16.233,15.123l.242-.444.068.009.128.494-.071-.009-.035-.149-.197-.026-.069.135-.066-.009h0ZM16.394,14.948l.16.021-.032-.137c-.009-.041-.016-.075-.021-.102-.011.029-.023.058-.038.087l-.07.131h0ZM17.568,14.974l.064.008c-.007.053-.025.094-.055.126-.03.031-.07.05-.119.056-.05.007-.093.002-.127-.015-.034-.017-.062-.043-.084-.08-.021-.037-.035-.078-.041-.122-.006-.049-.003-.092.011-.131.014-.039.037-.07.069-.093.032-.023.069-.038.11-.043.047-.006.088,0,.123.02.035.02.061.051.08.092l-.059.022c-.015-.033-.034-.056-.057-.068-.023-.013-.05-.017-.081-.013-.036.005-.065.017-.087.038-.022.02-.036.046-.042.076-.006.03-.007.061-.003.092.005.04.015.074.031.102.015.028.036.048.063.06.026.012.054.015.082.012.035-.004.062-.018.084-.041.022-.023.034-.055.037-.095h0ZM17.926,15.069l-.13-.454.328-.094.015.053-.268.077.04.139.251-.072.015.053-.251.072.045.155.278-.08.015.053-.339.097h0ZM18.532,14.862l-.211-.423.057-.029.388.221-.166-.332.054-.027.211.423-.057.029-.388-.221.166.332-.054.027h0ZM19.225,14.463l.051-.037-.244-.338.126-.091-.032-.045-.304.219.033.045.126-.091.244.338h0ZM19.605,14.159l-.339-.329.146-.15c.029-.03.055-.05.076-.06.021-.01.044-.012.069-.006.024.006.046.018.065.036.024.023.037.051.038.083.001.032-.011.065-.039.102.017-.006.032-.01.043-.01.025-.001.052,0,.081.007l.149.031-.054.056-.114-.024c-.033-.007-.059-.011-.078-.013-.019-.002-.034-.002-.045,0-.011.002-.02.006-.029.012-.006.004-.014.012-.026.023l-.05.052.15.147-.044.045h0ZM19.46,13.929l.094-.096c.02-.021.033-.039.04-.054.007-.016.009-.031.005-.046-.003-.015-.01-.028-.022-.038-.016-.016-.035-.023-.056-.021-.021.001-.044.015-.069.04l-.104.107.112.109h0ZM20.026,13.695l.039-.054-.086-.125.116-.162.148.04.042-.058-.496-.12-.04.055.277.424h0ZM19.949,13.471l-.082-.123c-.018-.026-.037-.051-.058-.074.025.009.059.019.1.03l.135.037-.094.131h0ZM20.399,13.113l-.421-.215.029-.056.371.19.106-.207.049.025-.134.263h0ZM20.579,12.254l-.056-.015.046-.174.056.015-.046.174Z" fill="#c8a400" fill-rule="evenodd"/>
      </g>
    </g>
  </g>
</svg>