<svg xmlns="http://www.w3.org/2000/svg" id="Layer_2" data-name="Layer 2" viewBox="0 0 33.945 22.631">
  <defs><clipPath id="circleClip"><circle cx="16.9725" cy="11.3155" r="11.3155" /></clipPath></defs><g clip-path="url(#circleClip)"><g id="_&#209;&#235;&#238;&#233;_1" data-name="&#209;&#235;&#238;&#233; 1">
    <g>
      <rect width="33.945" height="22.631" fill="#fff" />
      <polygon points="16.939 0 33.945 0 33.945 22.631 0 22.631 0 11.315 16.939 11.315 16.939 0" fill="#fed700" fill-rule="evenodd" />
      <g>
        <polygon points="0 3.84 0 1.358 3.552 3.84 0 3.84" fill="#039" fill-rule="evenodd" />
        <polygon points="0 9.987 0 7.504 3.552 7.504 0 9.987" fill="#039" fill-rule="evenodd" />
        <polygon points="6.715 11.315 1.943 11.315 6.715 7.979 6.715 11.315" fill="#039" fill-rule="evenodd" />
        <polygon points="15.038 11.315 10.223 11.315 10.223 7.95 15.038 11.315" fill="#039" fill-rule="evenodd" />
        <polygon points="16.939 7.475 16.939 9.957 13.387 7.475 16.939 7.475" fill="#039" fill-rule="evenodd" />
        <polygon points="16.939 1.329 16.939 3.811 13.387 3.811 16.939 1.329" fill="#039" fill-rule="evenodd" />
        <polygon points="14.996 0 10.223 3.336 10.223 0 14.996 0" fill="#039" fill-rule="evenodd" />
        <polygon points="6.715 0 6.715 3.365 1.901 0 6.715 0" fill="#039" fill-rule="evenodd" />
        <rect y="4.561" width="16.939" height="2.223" fill="red" />
        <rect x="7.405" width="2.129" height="11.315" fill="red" />
        <polygon points="1.263 11.315 6.715 7.504 5.452 7.504 0 11.315 1.263 11.315" fill="red" fill-rule="evenodd" />
        <polygon points="4.232 3.84 0 .883 0 0 5.495 3.84 4.232 3.84" fill="red" fill-rule="evenodd" />
        <polygon points="15.676 0 10.223 3.811 11.486 3.811 16.939 0 15.676 0" fill="red" fill-rule="evenodd" />
        <polygon points="12.707 7.475 16.939 10.432 16.939 11.315 11.444 7.475 12.707 7.475" fill="red" fill-rule="evenodd" />
        <polygon points="8.469 .873 8.719 1.648 9.534 1.647 8.874 2.124 9.127 2.898 8.469 2.418 7.812 2.898 8.065 2.124 7.405 1.647 8.219 1.648 8.469 .873" fill="#fed700" fill-rule="evenodd" />
        <polygon points="8.469 8.418 8.719 9.193 9.534 9.191 8.874 9.668 9.127 10.442 8.469 9.962 7.812 10.442 8.065 9.668 7.405 9.191 8.219 9.193 8.469 8.418" fill="#fed700" fill-rule="evenodd" />
        <polygon points="1.882 4.66 2.132 5.435 2.946 5.434 2.286 5.91 2.539 6.685 1.882 6.205 1.224 6.685 1.477 5.91 .817 5.434 1.631 5.435 1.882 4.66" fill="#fed700" fill-rule="evenodd" />
        <polygon points="15.052 4.66 15.302 5.435 16.116 5.434 15.456 5.91 15.71 6.685 15.052 6.205 14.394 6.685 14.647 5.91 13.987 5.434 14.801 5.435 15.052 4.66" fill="#fed700" fill-rule="evenodd" />
        <g>
          <path d="M8.469,3.689c1.088,0,1.969.882,1.969,1.969s-.882,1.969-1.969,1.969-1.969-.882-1.969-1.969.882-1.969,1.969-1.969Z" fill="#039" fill-rule="evenodd" />
          <polygon points="8.469 3.69 8.909 5.052 10.341 5.049 9.181 5.888 9.626 7.25 8.469 6.406 7.313 7.25 7.758 5.888 6.598 5.049 8.029 5.052 8.469 3.69" fill="#fed700" fill-rule="evenodd" />
        </g>
      </g>
    </g>
  </g>
</g></svg>