<svg xmlns="http://www.w3.org/2000/svg" id="Layer_2" data-name="Layer 2" viewBox="0 0 33.945 22.63">
  <defs><clipPath id="circleClip"><circle cx="16.9725" cy="11.315" r="11.315" /></clipPath></defs><g clip-path="url(#circleClip)"><g id="_&#209;&#235;&#238;&#233;_1" data-name="&#209;&#235;&#238;&#233; 1">
    <g>
      <g>
        <rect width="33.945" height="7.543" fill="#fff" />
        <rect y="7.543" width="33.945" height="7.544" fill="red" />
        <rect y="15.087" width="33.945" height="7.543" fill="#007c29" />
      </g>
      <g>
        <rect width="10.163" height="22.63" fill="red" />
        <g>
          <path d="M6.853,4.386v.209h1.36v-.702h-1.36v.175h.088v.319h-.088ZM8.074,4.571s.003.007,0,.01c-.003.003-.008.003-.011,0l-.008-.008-.008.008s-.007.003-.01,0-.003-.008,0-.01l.008-.008-.027-.027-.027.027.008.008s.003.007,0,.01c-.003.003-.007.003-.01,0l-.008-.008-.008.008s-.007.003-.01,0c-.003-.003-.003-.008,0-.01l.008-.008-.027-.027-.027.027.008.008s.003.007,0,.01-.007.003-.01,0l-.008-.008-.008.008s-.007.003-.01,0c-.003-.003-.003-.008,0-.01l.008-.008-.027-.027-.027.027.008.008s.003.007,0,.01c-.003.003-.007.003-.01,0l-.008-.008-.008.008s-.007.003-.01,0c-.003-.003-.003-.008,0-.01l.008-.008-.027-.027-.027.027.008.008s.003.007,0,.01-.008.003-.01,0l-.008-.008-.008.008s-.007.003-.01,0c-.003-.003-.003-.008,0-.01l.008-.008-.027-.027-.027.027.008.008s.003.007,0,.01c-.003.003-.007.003-.01,0l-.008-.008-.008.008s-.007.003-.011,0c-.003-.003-.003-.008,0-.01l.008-.008-.027-.027-.027.027.008.008s.003.007,0,.01c-.003.003-.007.003-.01,0l-.008-.008-.008.008s-.007.003-.01,0c-.003-.003-.003-.008,0-.01l.008-.008-.027-.027-.027.027.008.008s.003.007,0,.01c-.002.003-.007.003-.01,0l-.008-.008-.008.008s-.007.003-.01,0c-.003-.003-.003-.008,0-.01l.008-.008-.027-.027-.027.027.008.008s.003.007,0,.01c-.003.003-.008.003-.01,0l-.008-.008-.008.008s-.007.003-.01,0-.003-.008,0-.01l.008-.008-.027-.027-.027.027.008.008s.003.007,0,.01c-.003.003-.008.003-.01,0l-.008-.008-.008.008s-.008.003-.01,0c-.003-.003-.003-.008,0-.01l.008-.008-.027-.027-.027.027.008.008s.003.007,0,.01c-.003.003-.007.003-.01,0l-.008-.008-.008.008s-.007.003-.01,0c-.002-.003-.002-.008,0-.01l.008-.008-.027-.027-.027.027.008.008s.003.007,0,.01c-.003.003-.007.003-.01,0l-.008-.008-.008.008s-.007.003-.01,0c-.003-.003-.003-.008,0-.01l.008-.008-.027-.027-.027.027.008.008s.003.007,0,.01c-.003.003-.007.003-.01,0l-.008-.008-.008.008s-.007.003-.01,0c-.003-.003-.003-.008,0-.01l.008-.008-.027-.027-.027.027.008.008s.003.007,0,.01c-.003.003-.008.003-.01,0l-.008-.008-.008.008s-.007.003-.01,0-.003-.008,0-.01l.008-.008-.027-.027-.027.027.008.008s.003.007,0,.01c-.003.003-.007.003-.01,0l-.008-.008-.008.008s-.007.003-.01,0c-.003-.003-.003-.008,0-.01l.008-.008-.027-.027-.045.045s-.007.003-.01,0c-.003-.003-.003-.008,0-.01l.045-.045-.045-.045s-.003-.008,0-.01c.003-.003.007-.003.01,0l.045.046.027-.027-.008-.008s-.003-.008,0-.01c.003-.003.007-.003.01,0l.008.008.008-.008s.007-.003.01,0c.003.003.003.008,0,.01l-.008.008.027.027.027-.027-.008-.008s-.003-.008,0-.01c.003-.003.008-.003.01,0l.008.008.008-.008s.007-.003.01,0c.003.003.003.008,0,.01l-.008.008.027.027.027-.027-.008-.008s-.003-.008,0-.01c.003-.003.007-.003.01,0l.008.008.008-.008s.008-.003.01,0c.003.003.003.008,0,.01l-.008.008.027.027.027-.027-.008-.008s-.003-.008,0-.01c.003-.003.007-.003.01,0l.008.008.008-.008s.007-.003.01,0c.003.003.003.008,0,.01l-.008.008.027.027.027-.027-.008-.008s-.002-.008,0-.01c.003-.003.008-.003.01,0l.008.008.008-.008s.007-.003.01,0c.003.003.003.008,0,.01l-.008.008.027.027.027-.027-.008-.008s-.003-.008,0-.01c.003-.003.007-.003.01,0l.008.008.008-.008s.007-.003.01,0c.003.003.003.008,0,.01l-.008.008.027.027.027-.027-.008-.008s-.003-.008,0-.01c.003-.003.007-.003.01,0l.008.008.008-.008s.008-.003.01,0c.003.003.003.008,0,.01l-.008.008.027.027.027-.027-.008-.008s-.003-.008,0-.01c.003-.003.007-.003.01,0l.008.008.008-.008s.008-.003.01,0c.003.003.003.008,0,.01l-.008.008.027.027.027-.027-.008-.008s-.003-.008,0-.01c.003-.003.008-.003.01,0l.008.008.008-.008s.007-.003.01,0c.003.003.003.008,0,.01l-.008.008.027.027.027-.027-.008-.008s-.003-.008,0-.01c.003-.003.008-.003.011,0l.008.008.008-.008s.007-.003.01,0c.003.003.003.008,0,.01l-.008.008.027.027.027-.027-.008-.008s-.003-.008,0-.01c.003-.003.007-.003.01,0l.008.008.008-.008s.008-.003.01,0c.003.003.003.008,0,.01l-.008.008.027.027.027-.027-.008-.008s-.003-.008,0-.01c.003-.003.007-.003.01,0l.008.008.008-.008s.008-.003.01,0c.003.003.003.008,0,.01l-.008.008.027.027.027-.027-.008-.008s-.003-.008,0-.01c.003-.003.007-.003.01,0l.008.008.008-.008s.007-.003.01,0c.003.003.003.008,0,.01l-.008.008.027.027.027-.027-.008-.008s-.003-.008,0-.01c.003-.003.008-.003.01,0l.008.008.008-.008s.007-.003.01,0c.003.003.003.008,0,.01l-.008.008.027.027.027-.027-.008-.008s-.003-.008,0-.01c.003-.003.007-.003.01,0l.008.008.008-.008s.008-.003.011,0c.003.003.003.008,0,.01l-.008.008.027.027.045-.046s.008-.003.01,0c.003.003.003.008,0,.01l-.046.045.046.045s.003.007,0,.01c-.003.003-.008.003-.01,0l-.045-.045-.027.027.008.008h0ZM7.036,4.526l-.027.027-.027-.027.027-.027.027.027h0ZM8.008,4.526l-.027.027-.027-.027.027-.027.027.027h0ZM8.028,4.526l.027-.027.027.027-.027.027-.027-.027h0ZM7.933,4.526l-.027.027-.027-.027.027-.027.027.027h0ZM7.858,4.526l-.027.027-.027-.027.027-.027.027.027h0ZM7.783,4.526l-.027.027-.027-.027.027-.027.027.027h0ZM7.709,4.526l-.027.027-.027-.027.027-.027.027.027h0ZM7.634,4.526l-.027.027-.027-.027.027-.027.027.027h0ZM7.559,4.526l-.027.027-.027-.027.027-.027.027.027h0ZM7.484,4.526l-.027.027-.027-.027.027-.027.027.027h0ZM7.409,4.526l-.027.027-.027-.027.027-.027.027.027h0ZM7.335,4.526l-.027.027-.027-.027.027-.027.027.027h0ZM7.26,4.526l-.027.027-.027-.027.027-.027.027.027h0ZM7.185,4.526l-.027.027-.027-.027.027-.027.027.027h0ZM7.11,4.526l-.027.027-.027-.027.027-.027.027.027h0ZM7.556,4.174c.039,0,.071.028.071.062,0,.034-.031.062-.071.062-.039,0-.07-.028-.07-.062,0-.034.032-.062.07-.062h0ZM7.556,4.16c.047,0,.085.034.085.076,0,.042-.038.076-.085.076s-.085-.034-.085-.076c0-.042.038-.076.085-.076h0ZM7.512,4.118s.006-.003.006-.007l.004-.037h.054l.004.034s.003.006.006.006c.017.002.034.006.05.013.002,0,.005,0,.007,0l.045-.028.053.031-.039.033s-.003.007-.001.01c.007.008.012.017.016.027.001.003.003.004.006.004l.047.004v.054l-.047.004s-.005.002-.006.005c-.004.01-.009.019-.016.027-.002.003-.002.007.001.01l.039.034-.053.031-.045-.028s-.004-.001-.006,0c-.016.007-.033.011-.05.013-.003,0-.006.003-.006.006l-.004.034h-.054l-.004-.037s-.002-.006-.006-.006c-.015-.003-.029-.008-.043-.014-.002-.001-.005-.001-.007,0l-.051.032-.053-.031.048-.041s.004-.007.001-.01c-.004-.006-.007-.012-.01-.019-.001-.002-.003-.004-.006-.004l-.062-.005v-.054l.062-.005s.005-.002.006-.005c.003-.006.006-.013.01-.019.002-.003.002-.007-.001-.01l-.048-.041.053-.031.051.032s.004.001.007,0c.014-.006.029-.011.043-.014h0ZM7.504,4.105l.004-.037s.003-.007.007-.007h.067s.007.003.008.006l.004.035c.015.003.03.006.044.012l.046-.028s.005-.001.008,0l.065.038s.005.008.001.012l-.042.036c.005.006.009.014.012.021l.049.004s.007.003.007.007v.067s-.003.007-.007.007l-.05.004c-.003.007-.007.014-.012.021l.042.035s.003.009-.001.012l-.065.038s-.005.001-.008,0l-.046-.028c-.015.005-.029.009-.044.012l-.004.035s-.003.007-.007.007h-.067s-.007-.003-.007-.007l-.004-.038c-.013-.003-.026-.007-.038-.012l-.052.032s-.005.001-.007,0l-.065-.038s-.005-.008-.001-.012l.051-.044s-.004-.008-.006-.012l-.064-.005s-.007-.003-.007-.007v-.067s.003-.007.007-.007l.065-.005s.004-.008.006-.012l-.051-.044s-.003-.009.001-.012l.065-.038s.005-.002.008,0l.052.032c.012-.005.025-.009.038-.012h0ZM7.036,3.961l-.027.027-.027-.027.027-.027.027.027h0ZM8.055,3.934l.027.027-.027.027-.027-.027.027-.027h0ZM7.981,3.988l-.027-.027.027-.027.027.027-.027.027h0ZM7.933,3.961l-.027.027-.027-.027.027-.027.027.027h0ZM7.858,3.961l-.027.027-.027-.027.027-.027.027.027h0ZM7.783,3.961l-.027.027-.027-.027.027-.027.027.027h0ZM7.709,3.961l-.027.027-.027-.027.027-.027.027.027h0ZM7.634,3.961l-.027.027-.027-.027.027-.027.027.027h0ZM7.559,3.961l-.027.027-.027-.027.027-.027.027.027h0ZM7.484,3.961l-.027.027-.027-.027.027-.027.027.027h0ZM7.409,3.961l-.027.027-.027-.027.027-.027.027.027h0ZM7.335,3.961l-.027.027-.027-.027.027-.027.027.027h0ZM7.26,3.961l-.027.027-.027-.027.027-.027.027.027h0ZM7.185,3.961l-.027.027-.027-.027.027-.027.027.027h0ZM7.11,3.961l-.027.027-.027-.027.027-.027.027.027h0ZM8.063,3.905s.008-.003.011,0c.003.003.003.007,0,.01l-.008.008.027.027.045-.045s.008-.003.01,0c.003.003.003.007,0,.01l-.046.045.046.045s.003.007,0,.01c-.003.003-.008.003-.01,0l-.045-.045-.027.027.008.008s.003.007,0,.01c-.003.003-.008.003-.011,0l-.008-.008-.008.008s-.007.003-.01,0c-.003-.003-.003-.007,0-.01l.008-.008-.027-.027-.027.027.008.008s.003.007,0,.01c-.003.003-.007.003-.01,0l-.008-.008-.008.008s-.007.003-.01,0c-.003-.003-.003-.007,0-.01l.008-.008-.027-.027-.027.027.008.008s.003.007,0,.01c-.003.003-.007.003-.01,0l-.008-.008-.008.008s-.007.003-.01,0c-.003-.003-.003-.007,0-.01l.008-.008-.027-.027-.027.027.008.008s.003.007,0,.01c-.003.003-.007.003-.01,0l-.008-.008-.008.008s-.007.003-.01,0c-.003-.003-.003-.007,0-.01l.008-.008-.027-.027-.027.027.008.008s.003.007,0,.01c-.003.003-.008.003-.01,0l-.008-.008-.008.008s-.007.003-.01,0c-.003-.003-.003-.007,0-.01l.008-.008-.027-.027-.027.027.008.008s.003.007,0,.01c-.003.003-.007.003-.01,0l-.008-.008-.008.008s-.007.003-.011,0c-.003-.003-.003-.007,0-.01l.008-.008-.027-.027-.027.027.008.008s.003.007,0,.01c-.003.003-.007.003-.01,0l-.008-.008-.008.008s-.007.003-.01,0c-.003-.003-.003-.007,0-.01l.008-.008-.027-.027-.027.027.008.008s.003.007,0,.01c-.002.003-.007.003-.01,0l-.008-.008-.008.008s-.007.003-.01,0c-.003-.003-.003-.007,0-.01l.008-.008-.027-.027-.027.027.008.008s.003.007,0,.01c-.003.003-.008.003-.01,0l-.008-.008-.008.008s-.007.003-.01,0c-.003-.003-.003-.007,0-.01l.008-.008-.027-.027-.027.027.008.008s.003.007,0,.01c-.003.003-.008.003-.01,0l-.008-.008-.008.008s-.008.003-.01,0c-.003-.003-.003-.007,0-.01l.008-.008-.027-.027-.027.027.008.008s.003.007,0,.01c-.003.003-.007.003-.01,0l-.008-.008-.008.008s-.007.003-.01,0c-.002-.003-.002-.007,0-.01l.008-.008-.027-.027-.027.027.008.008s.003.007,0,.01c-.003.003-.007.003-.01,0l-.008-.008-.008.008s-.007.003-.01,0c-.003-.003-.003-.007,0-.01l.008-.008-.027-.027-.027.027.008.008s.003.007,0,.01c-.003.003-.007.003-.01,0l-.008-.008-.008.008s-.007.003-.01,0c-.003-.003-.003-.007,0-.01l.008-.008-.027-.027-.027.027.008.008s.003.007,0,.01c-.003.003-.008.003-.01,0l-.008-.008-.008.008s-.007.003-.01,0c-.003-.003-.003-.007,0-.01l.008-.008-.027-.027-.027.027.008.008s.003.007,0,.01c-.003.003-.007.003-.01,0l-.008-.008-.008.008s-.007.003-.01,0c-.003-.003-.003-.007,0-.01l.008-.008-.027-.027-.045.045s-.007.003-.01,0c-.003-.003-.003-.007,0-.01l.045-.045-.045-.045s-.003-.007,0-.01c.003-.003.007-.003.01,0l.045.045.027-.027-.008-.008s-.003-.007,0-.01c.003-.003.007-.003.01,0l.008.008.008-.008s.007-.003.01,0c.003.003.003.007,0,.01l-.008.008.027.027.027-.027-.008-.008s-.003-.007,0-.01c.003-.003.008-.003.01,0l.008.008.008-.008s.007-.003.01,0c.003.003.003.007,0,.01l-.008.008.027.027.027-.027-.008-.008s-.003-.007,0-.01c.003-.003.007-.003.01,0l.008.008.008-.008s.008-.003.01,0c.003.003.003.007,0,.01l-.008.008.027.027.027-.027-.008-.008s-.003-.007,0-.01c.003-.003.007-.003.01,0l.008.008.008-.008s.007-.003.01,0c.003.003.003.007,0,.01l-.008.008.027.027.027-.027-.008-.008s-.002-.007,0-.01c.003-.003.008-.003.01,0l.008.008.008-.008s.007-.003.01,0c.003.003.003.007,0,.01l-.008.008.027.027.027-.027-.008-.008s-.003-.007,0-.01c.003-.003.007-.003.01,0l.008.008.008-.008s.007-.003.01,0c.003.003.003.007,0,.01l-.008.008.027.027.027-.027-.008-.008s-.003-.007,0-.01c.003-.003.007-.003.01,0l.008.008.008-.008s.008-.003.01,0c.003.003.003.007,0,.01l-.008.008.027.027.027-.027-.008-.008s-.003-.007,0-.01c.003-.003.007-.003.01,0l.008.008.008-.008s.008-.003.01,0c.003.003.003.007,0,.01l-.008.008.027.027.027-.027-.008-.008s-.003-.007,0-.01c.003-.003.008-.003.01,0l.008.008.008-.008s.007-.003.01,0c.003.003.003.007,0,.01l-.008.008.027.027.027-.027-.008-.008s-.003-.007,0-.01c.003-.003.008-.003.011,0l.008.008.008-.008s.007-.003.01,0c.003.003.003.007,0,.01l-.008.008.027.027.027-.027-.008-.008s-.003-.007,0-.01c.003-.003.007-.003.01,0l.008.008.008-.008s.008-.003.01,0c.003.003.003.007,0,.01l-.008.008.027.027.027-.027-.008-.008s-.003-.007,0-.01c.003-.003.007-.003.01,0l.008.008.008-.008s.008-.003.01,0c.003.003.003.007,0,.01l-.008.008.027.027.027-.027-.008-.008s-.003-.007,0-.01c.003-.003.007-.003.01,0l.008.008.008-.008s.007-.003.01,0c.003.003.003.007,0,.01l-.008.008.027.027.027-.027-.008-.008s-.003-.007,0-.01c.003-.003.008-.003.01,0l.008.008.008-.008s.007-.003.01,0c.003.003.003.007,0,.01l-.008.008.027.027.027-.027-.008-.008s-.003-.007,0-.01c.003-.003.007-.003.01,0l.008.008.008-.008Z" fill="#fff" fill-rule="evenodd" />
          <path d="M6.808,4.386v.254h1.451v-.792h-1.451v.22h.031v-.182s.003-.007.007-.007h1.375s.007.003.007.007v.716s-.003.007-.007.007h-1.375s-.007-.003-.007-.007v-.216h-.031Z" fill="#fff" fill-rule="evenodd" />
          <rect x="3.197" y="4.045" width=".512" height=".326" fill="#fff" />
          <path d="M3.328,4.03h.031v-.183h-1.45v.793h1.45v-.254h-.031v.216s-.003.007-.007.007h-1.374s-.007-.003-.007-.007v-.716s.003-.007.007-.007h1.374s.007.003.007.007v.145Z" fill="#fff" fill-rule="evenodd" />
          <path d="M3.189,4.03h.124v-.138h-1.36v.702h1.36v-.208h-.131v-.355h.007ZM2.61,4.174c.039,0,.07.028.07.062,0,.034-.032.062-.07.062-.039,0-.071-.028-.071-.062,0-.034.031-.062.071-.062h0ZM2.655,4.118c.015.003.029.008.043.014.002.001.005,0,.007,0l.051-.032.053.031-.048.041s-.003.007-.001.01c.004.006.007.012.01.019.001.003.004.005.006.005l.062.005v.054l-.062.005s-.005.002-.006.004c-.003.007-.006.013-.01.019-.002.003-.001.007.001.01l.048.041-.053.031-.051-.032s-.005-.001-.007,0c-.014.006-.028.011-.043.014-.003,0-.006.003-.006.006l-.004.037h-.054l-.004-.034s-.003-.006-.006-.006c-.017-.002-.034-.006-.05-.013-.002,0-.004,0-.006,0l-.045.028-.053-.031.039-.034s.003-.007,0-.01c-.007-.008-.012-.018-.016-.027-.001-.003-.004-.005-.006-.005l-.047-.004v-.054l.047-.004s.005-.002.006-.004c.004-.01.009-.019.016-.027.002-.003.002-.007,0-.01l-.039-.033.053-.031.045.028s.004.001.006,0c.016-.006.033-.01.05-.013.003,0,.006-.003.006-.006l.004-.034h.054l.004.037s.003.006.006.007h0ZM2.61,4.16c.047,0,.085.034.085.076,0,.042-.038.076-.085.076-.047,0-.085-.034-.085-.076,0-.042.038-.076.085-.076h0ZM2.093,4.48s-.003-.008,0-.01c.003-.003.007-.003.01,0l.008.008.008-.008s.007-.003.01,0c.003.003.003.008,0,.01l-.008.008.027.027.027-.027-.008-.008s-.003-.008,0-.01c.003-.003.007-.003.01,0l.008.008.008-.008s.007-.003.01,0c.003.003.003.008,0,.01l-.008.008.027.027.027-.027-.008-.008s-.003-.008,0-.01c.003-.003.007-.003.01,0l.008.008.008-.008s.007-.003.01,0c.003.003.003.008,0,.01l-.008.008.027.027.027-.027-.008-.008s-.003-.008,0-.01c.003-.003.007-.003.01,0l.008.008.008-.008s.007-.003.01,0c.003.003.003.008,0,.01l-.008.008.027.027.027-.027-.008-.008s-.003-.008,0-.01c.003-.003.007-.003.01,0l.008.008.008-.008s.008-.003.01,0c.003.003.003.008,0,.01l-.008.008.027.027.027-.027-.008-.008s-.003-.008,0-.01c.003-.003.007-.003.01,0l.008.008.008-.008s.007-.003.01,0c.003.003.003.008,0,.01l-.008.008.027.027.027-.027-.008-.008s-.003-.008,0-.01c.002-.003.007-.003.01,0l.008.008.008-.008s.007-.003.01,0c.003.003.003.008,0,.01l-.008.008.027.027.027-.027-.008-.008s-.003-.008,0-.01c.003-.003.007-.003.01,0l.008.008.008-.008s.008-.003.01,0c.003.003.003.008,0,.01l-.008.008.027.027.027-.027-.008-.008s-.003-.008,0-.01c.003-.003.007-.003.01,0l.008.008.008-.008s.008-.003.01,0c.003.003.003.008,0,.01l-.008.008.027.027.027-.027-.008-.008s-.003-.008,0-.01c.003-.003.007-.003.01,0l.008.008.008-.008s.007-.003.01,0c.003.003.003.008,0,.01l-.008.008.027.027.027-.027-.008-.008s-.003-.008,0-.01c.003-.003.007-.003.01,0l.008.008.008-.008s.007-.003.01,0c.003.003.003.008,0,.01l-.008.008.027.027.027-.027-.008-.008s-.003-.008,0-.01c.003-.003.007-.003.01,0l.008.008.008-.008s.008-.003.01,0c.003.003.003.008,0,.01l-.008.008.027.027.027-.027-.008-.008s-.003-.008,0-.01c.003-.003.007-.003.01,0l.008.008.008-.008s.008-.003.01,0c.002.003.002.008,0,.01l-.008.008.027.027.027-.027-.008-.008s-.003-.008,0-.01c.003-.003.007-.003.01,0l.008.008.008-.008s.007-.003.01,0c.003.003.003.008,0,.01l-.008.008.027.027.027-.027-.008-.008s-.003-.008,0-.01c.003-.003.007-.003.01,0l.008.008.008-.008s.007-.003.01,0c.003.003.003.008,0,.01l-.008.008.027.027.045-.046s.008-.003.01,0c.003.003.003.008,0,.01l-.045.045.045.045s.003.007,0,.01-.007.003-.01,0l-.045-.045-.027.027.008.008s.003.007,0,.01c-.003.003-.007.003-.01,0l-.008-.008-.008.008s-.007.003-.01,0c-.003-.003-.003-.008,0-.01l.008-.008-.027-.027-.027.027.008.008s.003.007,0,.01c-.003.003-.007.003-.01,0l-.008-.008-.008.008s-.007.003-.01,0c-.003-.003-.003-.008,0-.01l.008-.008-.027-.027-.027.027.008.008s.002.007,0,.01c-.003.003-.008.003-.01,0l-.008-.008-.008.008s-.007.003-.01,0-.003-.008,0-.01l.008-.008-.027-.027-.027.027.008.008s.003.007,0,.01c-.003.003-.007.003-.01,0l-.008-.008-.008.008s-.007.003-.01,0c-.003-.003-.003-.008,0-.01l.008-.008-.027-.027-.027.027.008.008s.003.007,0,.01-.007.003-.01,0l-.008-.008-.008.008s-.007.003-.01,0c-.003-.003-.003-.008,0-.01l.008-.008-.027-.027-.027.027.008.008s.003.007,0,.01c-.003.003-.007.003-.01,0l-.008-.008-.008.008s-.007.003-.01,0c-.003-.003-.003-.008,0-.01l.008-.008-.027-.027-.027.027.008.008s.003.007,0,.01c-.002.003-.007.003-.01,0l-.008-.008-.008.008s-.007.003-.01,0c-.003-.003-.003-.008,0-.01l.008-.008-.027-.027-.027.027.008.008s.003.007,0,.01c-.003.003-.007.003-.01,0l-.008-.008-.008.008s-.007.003-.01,0-.003-.008,0-.01l.008-.008-.027-.027-.027.027.008.008s.003.007,0,.01c-.003.003-.007.003-.01,0l-.008-.008-.008.008s-.008.003-.01,0c-.003-.003-.003-.008,0-.01l.008-.008-.027-.027-.027.027.008.008s.003.007,0,.01-.007.003-.01,0l-.008-.008-.008.008s-.007.003-.01,0c-.003-.003-.003-.008,0-.01l.008-.008-.027-.027-.027.027.008.008s.003.007,0,.01c-.003.003-.007.003-.01,0l-.008-.008-.008.008s-.007.003-.01,0-.003-.008,0-.01l.008-.008-.027-.027-.027.027.008.008s.003.007,0,.01c-.003.003-.007.003-.01,0l-.008-.008-.008.008s-.008.003-.01,0c-.003-.003-.003-.008,0-.01l.008-.008-.027-.027-.027.027.008.008s.003.007,0,.01-.007.003-.01,0l-.008-.008-.008.008s-.008.003-.01,0c-.003-.003-.003-.008,0-.01l.008-.008-.027-.027-.027.027.008.008s.003.007,0,.01c-.003.003-.007.003-.01,0l-.008-.008-.008.008s-.007.003-.01,0c-.003-.003-.003-.008,0-.01l.008-.008-.027-.027-.027.027.008.008s.003.007,0,.01c-.003.003-.007.003-.01,0l-.008-.008-.008.008s-.007.003-.01,0c-.003-.003-.003-.008,0-.01l.008-.008-.027-.027-.045.045s-.008.003-.01,0-.003-.008,0-.01l.045-.045-.045-.045s-.003-.008,0-.01c.003-.003.007-.003.01,0l.045.046.027-.027-.008-.008h0ZM3.158,4.499l.027.027-.027.027-.027-.027.027-.027h0ZM2.159,4.526l.027-.027.027.027-.027.027-.027-.027h0ZM2.138,4.526l-.027.027-.027-.027.027-.027.027.027h0ZM2.261,4.499l.027.027-.027.027-.027-.027.027-.027h0ZM2.336,4.499l.027.027-.027.027-.027-.027.027-.027h0ZM2.41,4.499l.027.027-.027.027-.027-.027.027-.027h0ZM2.485,4.499l.027.027-.027.027-.027-.027.027-.027h0ZM2.56,4.499l.027.027-.027.027-.027-.027.027-.027h0ZM2.635,4.499l.027.027-.027.027-.027-.027.027-.027h0ZM2.709,4.499l.027.027-.027.027-.027-.027.027-.027h0ZM2.784,4.499l.027.027-.027.027-.027-.027.027-.027h0ZM2.859,4.499l.027.027-.027.027-.027-.027.027-.027h0ZM2.934,4.499l.027.027-.027.027-.027-.027.027-.027h0ZM3.008,4.499l.027.027-.027.027-.027-.027.027-.027h0ZM3.083,4.499l.027.027-.027.027-.027-.027.027-.027h0ZM2.662,4.105c.013.003.026.007.038.012l.052-.032s.005-.001.008,0l.065.038s.005.008,0,.012l-.051.044s.004.007.006.012l.065.005s.006.003.006.007v.067s-.003.007-.007.007l-.064.005s-.004.008-.006.012l.052.044s.003.01-.001.012l-.065.038s-.005.001-.007,0l-.052-.032c-.012.005-.025.009-.038.012l-.004.038s-.004.007-.008.007h-.067s-.007-.003-.007-.007l-.004-.035c-.015-.003-.03-.006-.044-.012l-.046.028s-.005.001-.008,0l-.065-.038s-.005-.008,0-.012l.042-.035c-.005-.007-.009-.014-.012-.021l-.05-.004s-.007-.003-.007-.007v-.067s.003-.007.007-.007l.049-.004c.003-.007.008-.014.012-.021l-.042-.036s-.003-.009.001-.012l.066-.038s.005-.001.007,0l.046.028c.014-.005.029-.009.044-.012l.004-.035s.004-.007.007-.006h.067s.007.003.007.007l.004.037h0ZM2.103,4.016s-.007.003-.01,0c-.003-.003-.003-.007,0-.01l.008-.008-.027-.027-.045.045s-.008.003-.01,0c-.003-.003-.003-.007,0-.01l.045-.045-.045-.045s-.003-.007,0-.01c.003-.003.007-.003.01,0l.045.045.027-.027-.008-.008s-.003-.007,0-.01c.003-.003.007-.003.01,0l.008.008.008-.008s.007-.003.01,0c.003.003.003.007,0,.01l-.008.008.027.027.027-.027-.008-.008s-.003-.007,0-.01c.003-.003.007-.003.01,0l.008.008.008-.008s.007-.003.01,0c.003.003.003.007,0,.01l-.008.008.027.027.027-.027-.008-.008s-.003-.007,0-.01c.003-.003.007-.003.01,0l.008.008.008-.008s.007-.003.01,0c.003.003.003.007,0,.01l-.008.008.027.027.027-.027-.008-.008s-.003-.007,0-.01c.003-.003.007-.003.01,0l.008.008.008-.008s.007-.003.01,0c.003.003.003.007,0,.01l-.008.008.027.027.027-.027-.008-.008s-.003-.007,0-.01c.003-.003.007-.003.01,0l.008.008.008-.008s.008-.003.01,0c.003.003.003.007,0,.01l-.008.008.027.027.027-.027-.008-.008s-.003-.007,0-.01c.003-.003.007-.003.01,0l.008.008.008-.008s.007-.003.01,0c.003.003.003.007,0,.01l-.008.008.027.027.027-.027-.008-.008s-.003-.007,0-.01c.002-.003.007-.003.01,0l.008.008.008-.008s.007-.003.01,0c.003.003.003.007,0,.01l-.008.008.027.027.027-.027-.008-.008s-.003-.007,0-.01c.003-.003.007-.003.01,0l.008.008.008-.008s.008-.003.01,0c.003.003.003.007,0,.01l-.008.008.027.027.027-.027-.008-.008s-.003-.007,0-.01c.003-.003.007-.003.01,0l.008.008.008-.008s.008-.003.01,0c.003.003.003.007,0,.01l-.008.008.027.027.027-.027-.008-.008s-.003-.007,0-.01c.003-.003.007-.003.01,0l.008.008.008-.008s.007-.003.01,0c.003.003.003.007,0,.01l-.008.008.027.027.027-.027-.008-.008s-.003-.007,0-.01c.003-.003.007-.003.01,0l.008.008.008-.008s.007-.003.01,0c.003.003.003.007,0,.01l-.008.008.027.027.027-.027-.008-.008s-.003-.007,0-.01c.003-.003.007-.003.01,0l.008.008.008-.008s.008-.003.01,0c.003.003.003.007,0,.01l-.008.008.027.027.027-.027-.008-.008s-.003-.007,0-.01c.003-.003.007-.003.01,0l.008.008.008-.008s.008-.003.01,0c.002.003.002.007,0,.01l-.008.008.027.027.027-.027-.008-.008s-.003-.007,0-.01c.003-.003.007-.003.01,0l.008.008.008-.008s.007-.003.01,0c.003.003.003.007,0,.01l-.008.008.027.027.027-.027-.008-.008s-.003-.007,0-.01c.003-.003.007-.003.01,0l.008.008.008-.008s.007-.003.01,0c.003.003.003.007,0,.01l-.008.008.027.027.045-.045s.008-.003.01,0c.003.003.003.007,0,.01l-.045.045.045.045s.003.007,0,.01c-.003.003-.007.003-.01,0l-.045-.045-.027.027.008.008s.003.007,0,.01c-.003.003-.007.003-.01,0l-.008-.008-.008.008s-.007.003-.01,0c-.003-.003-.003-.007,0-.01l.008-.008-.027-.027-.027.027.008.008s.003.007,0,.01c-.003.003-.007.003-.01,0l-.008-.008-.008.008s-.007.003-.01,0c-.003-.003-.003-.007,0-.01l.008-.008-.027-.027-.027.027.008.008s.002.007,0,.01c-.003.003-.008.003-.01,0l-.008-.008-.008.008s-.007.003-.01,0c-.003-.003-.003-.007,0-.01l.008-.008-.027-.027-.027.027.008.008s.003.007,0,.01c-.003.003-.007.003-.01,0l-.008-.008-.008.008s-.007.003-.01,0c-.003-.003-.003-.007,0-.01l.008-.008-.027-.027-.027.027.008.008s.003.007,0,.01c-.003.003-.007.003-.01,0l-.008-.008-.008.008s-.007.003-.01,0c-.003-.003-.003-.007,0-.01l.008-.008-.027-.027-.027.027.008.008s.003.007,0,.01c-.003.003-.007.003-.01,0l-.008-.008-.008.008s-.007.003-.01,0c-.003-.003-.003-.007,0-.01l.008-.008-.027-.027-.027.027.008.008s.003.007,0,.01c-.002.003-.007.003-.01,0l-.008-.008-.008.008s-.007.003-.01,0c-.003-.003-.003-.007,0-.01l.008-.008-.027-.027-.027.027.008.008s.003.007,0,.01c-.003.003-.007.003-.01,0l-.008-.008-.008.008s-.007.003-.01,0c-.003-.003-.003-.007,0-.01l.008-.008-.027-.027-.027.027.008.008s.003.007,0,.01c-.003.003-.007.003-.01,0l-.008-.008-.008.008s-.008.003-.01,0c-.003-.003-.003-.007,0-.01l.008-.008-.027-.027-.027.027.008.008s.003.007,0,.01c-.003.003-.007.003-.01,0l-.008-.008-.008.008s-.007.003-.01,0c-.003-.003-.003-.007,0-.01l.008-.008-.027-.027-.027.027.008.008s.003.007,0,.01c-.003.003-.007.003-.01,0l-.008-.008-.008.008s-.007.003-.01,0c-.003-.003-.003-.007,0-.01l.008-.008-.027-.027-.027.027.008.008s.003.007,0,.01c-.003.003-.007.003-.01,0l-.008-.008-.008.008s-.008.003-.01,0c-.003-.003-.003-.007,0-.01l.008-.008-.027-.027-.027.027.008.008s.003.007,0,.01c-.003.003-.007.003-.01,0l-.008-.008-.008.008s-.008.003-.01,0c-.003-.003-.003-.007,0-.01l.008-.008-.027-.027-.027.027.008.008s.003.007,0,.01c-.003.003-.007.003-.01,0l-.008-.008-.008.008s-.007.003-.01,0c-.003-.003-.003-.007,0-.01l.008-.008-.027-.027-.027.027.008.008s.003.007,0,.01c-.003.003-.007.003-.01,0l-.008-.008-.008.008h0ZM3.158,3.934l.027.027-.027.027-.027-.027.027-.027h0ZM2.111,3.988l-.027-.027.027-.027.027.027-.027.027h0ZM2.186,3.934l.027.027-.027.027-.027-.027.027-.027h0ZM2.261,3.934l.027.027-.027.027-.027-.027.027-.027h0ZM2.336,3.934l.027.027-.027.027-.027-.027.027-.027h0ZM2.41,3.934l.027.027-.027.027-.027-.027.027-.027h0ZM2.485,3.934l.027.027-.027.027-.027-.027.027-.027h0ZM2.56,3.934l.027.027-.027.027-.027-.027.027-.027h0ZM2.635,3.934l.027.027-.027.027-.027-.027.027-.027h0ZM2.709,3.934l.027.027-.027.027-.027-.027.027-.027h0ZM2.784,3.934l.027.027-.027.027-.027-.027.027-.027h0ZM2.859,3.934l.027.027-.027.027-.027-.027.027-.027h0ZM2.934,3.934l.027.027-.027.027-.027-.027.027-.027h0ZM3.008,3.934l.027.027-.027.027-.027-.027.027-.027h0ZM3.083,3.934l.027.027-.027.027-.027-.027.027-.027Z" fill="#fff" fill-rule="evenodd" />
          <path d="M6.089,4.311h-.121c.019.061.06.107.111.14.048.03.107.049.167.056.061.007.123.003.18-.013.07-.019.132-.055.17-.107h-.142c-.043.038-.097.059-.154.059-.091,0-.171-.053-.211-.134Z" fill="#fff" fill-rule="evenodd" />
          <path d="M5.961,4.105h.117c.017-.046.047-.086.086-.114.038-.028.086-.045.136-.045.043,0,.084.012.119.033.035.021.064.051.085.087h.124c-.026-.07-.084-.121-.154-.151-.061-.026-.132-.038-.201-.034-.069.004-.137.023-.192.058-.059.037-.104.092-.119.165Z" fill="#fff" fill-rule="evenodd" />
          <rect x="5.257" y="4.082" width=".247" height=".253" fill="#fff" />
          <path d="M5.482,4.349h-.061c.029.077.109.113.187.104.079-.008.143-.06.154-.142h-.056c-.009.048-.048.078-.093.086-.015.003-.031.003-.046.001-.034-.005-.065-.021-.084-.049Z" fill="#fff" fill-rule="evenodd" />
          <rect x="4.027" y="4.086" width=".244" height=".244" fill="#fff" />
          <path d="M4.186,4.344h-.128c-.044.062-.114.101-.191.101-.057,0-.111-.021-.154-.059h-.142c.029.04.071.07.121.091.061.025.133.036.203.032.07-.004.139-.023.194-.058.042-.026.076-.061.097-.106Z" fill="#fff" fill-rule="evenodd" />
          <path d="M4.073,4.072h.123c-.024-.067-.074-.116-.138-.148-.048-.024-.104-.037-.161-.041-.057-.004-.115.003-.167.019-.075.023-.139.066-.174.128h.133c.044-.052.109-.084.178-.084.087,0,.165.05.207.125Z" fill="#fff" fill-rule="evenodd" />
          <rect x="4.525" y="4.119" width=".214" height=".177" fill="#fff" />
          <rect x="4.823" y="4.119" width=".419" height=".177" fill="#fff" />
          <path d="M4.279,4.344c.015.012.032.02.052.02.029,0,.055-.017.074-.045.019-.028.032-.068.032-.112s-.012-.083-.032-.112c-.019-.028-.045-.045-.074-.045-.02,0-.037.008-.052.02.004,0,.007.003.007.007v.258s-.003.007-.007.007Z" fill="#fff" fill-rule="evenodd" />
          <path d="M4.192,4.364c.035.042.084.068.139.068.04,0,.078-.014.109-.039.032-.025.057-.061.071-.104v-.164c-.014-.042-.039-.078-.071-.104-.031-.025-.068-.039-.109-.039-.051,0-.097.023-.131.059.005.009.008.019.012.029h.046c.019-.021.044-.035.073-.035.034,0,.064.02.086.051.021.031.034.073.034.12s-.013.089-.034.12c-.022.031-.052.051-.086.051-.029,0-.054-.014-.073-.035h-.056c-.003.007-.006.013-.01.02Z" fill="#fff" fill-rule="evenodd" />
          <path d="M4.511,4.327c-.011.022-.025.041-.041.058.021.047.061.077.105.09.03.008.063.01.093.004.031-.006.06-.018.084-.038.034-.027.056-.069.056-.122v-.222c0-.054-.022-.095-.056-.122-.023-.02-.053-.032-.084-.038-.031-.006-.063-.005-.093.004-.047.014-.085.044-.105.09.016.017.03.036.041.058.003-.048.034-.079.072-.092.016-.006.032-.008.049-.008s.034.003.049.008c.041.014.072.048.072.101v.222c0,.052-.032.086-.072.101-.015.006-.033.008-.049.008s-.033-.003-.049-.008c-.039-.014-.069-.045-.072-.093Z" fill="#fff" fill-rule="evenodd" />
          <path d="M2.691,4.943c-.016.1-.024.201-.024.302,0,.096.007.192.021.286.072.023.144.044.216.064-.02-.115-.028-.234-.028-.35,0-.11.007-.22.025-.329-.07.008-.14.016-.21.026Z" fill="#fff" fill-rule="evenodd" />
          <path d="M5.607,3.963c-.078-.008-.157.028-.187.104h.061c.028-.042.083-.057.13-.048.046.008.084.038.093.086h.056c-.01-.083-.076-.133-.154-.142Z" fill="#fff" fill-rule="evenodd" />
          <path d="M2.371,5.217l-.132.107c.097.056.238.116.412.173l-.28-.28Z" fill="#fff" fill-rule="evenodd" />
          <path d="M2.372,5.197l.28-.226c-.171.026-.31.057-.406.091l-.006.002.132.132Z" fill="#fff" fill-rule="evenodd" />
          <path d="M2.226,5.316l.135-.109-.136-.136c-.081.031-.126.065-.127.099v.002c-.008.042.039.091.128.145Z" fill="#fff" fill-rule="evenodd" />
          <path d="M2.668,5.493c-.01-.082-.016-.164-.016-.247,0-.091.006-.182.019-.271l-.289.233.285.285Z" fill="#fff" fill-rule="evenodd" />
          <path d="M2.966,4.933c-.018.002-.036.003-.053.005-.001.009-.003.018-.004.028l.057-.033Z" fill="#fff" fill-rule="evenodd" />
          <path d="M3.155,4.916c-.053.004-.105.008-.155.013l-.094.054c-.003.026-.006.053-.008.081l.257-.148Z" fill="#fff" fill-rule="evenodd" />
          <path d="M3.336,4.904c-.05.003-.1.006-.148.01l-.291.168c-.002.025-.003.052-.004.078l.444-.256Z" fill="#fff" fill-rule="evenodd" />
          <path d="M3.512,4.896c-.026.001-.052.002-.078.003-.022.001-.044.002-.066.003l-.477.275c0,.022-.001.045-.001.068v.009l.622-.359Z" fill="#fff" fill-rule="evenodd" />
          <path d="M3.683,4.89c-.047.001-.094.003-.14.004l-.652.377c0,.025,0,.05.002.075l.79-.456Z" fill="#fff" fill-rule="evenodd" />
          <path d="M3.849,4.887c-.046,0-.091.001-.136.002l-.819.473c.001.024.003.049.005.073l.951-.549Z" fill="#fff" fill-rule="evenodd" />
          <path d="M4.012,4.886c-.045,0-.089,0-.133,0l-.979.565c.002.024.005.049.008.072l1.104-.638Z" fill="#fff" fill-rule="evenodd" />
          <path d="M4.173,4.886h-.132l-1.131.653c.002.013.004.025.006.038.014.004.027.007.042.011l1.215-.702Z" fill="#fff" fill-rule="evenodd" />
          <path d="M4.271,5.837c.03.002.059.005.089.006.029.002.058.004.086.005-.034-.167-.046-.346-.046-.517,0-.155.01-.314.037-.467h-.173c-.031.153-.045.311-.045.467,0,.169.016.34.053.505Z" fill="#fff" fill-rule="evenodd" />
          <path d="M4.246,5.788l-.037.021c.014.001.028.003.041.004-.002-.008-.003-.016-.005-.025Z" fill="#fff" fill-rule="evenodd" />
          <path d="M4.231,5.704l-.158.092c.038.004.075.008.112.012l.058-.034c-.004-.023-.008-.046-.012-.069Z" fill="#fff" fill-rule="evenodd" />
          <path d="M4.219,5.618l-.279.161c.037.005.073.009.109.013l.18-.104c-.003-.023-.006-.047-.009-.071Z" fill="#fff" fill-rule="evenodd" />
          <path d="M4.211,5.53l-.4.231c.036.005.071.01.106.015l.301-.174c-.003-.024-.005-.048-.007-.072Z" fill="#fff" fill-rule="evenodd" />
          <path d="M4.205,5.44l-.522.301c.035.006.069.011.103.017l.422-.244c-.002-.024-.003-.049-.004-.073Z" fill="#fff" fill-rule="evenodd" />
          <path d="M4.203,5.349l-.643.371.012.002c.03.005.06.01.09.015l.543-.314c0-.025-.001-.05-.001-.075Z" fill="#fff" fill-rule="evenodd" />
          <path d="M4.205,5.255l-.766.442c.033.006.066.012.099.019l.665-.384c0-.026,0-.052.001-.077Z" fill="#fff" fill-rule="evenodd" />
          <path d="M4.209,5.16l-.889.513c.032.007.065.014.097.02l.788-.455c0-.026.002-.053.004-.078Z" fill="#fff" fill-rule="evenodd" />
          <path d="M4.218,5.062l-1.015.586.028.006c.022.005.045.01.068.014l.912-.526c.002-.027.004-.054.007-.081Z" fill="#fff" fill-rule="evenodd" />
          <path d="M4.231,4.962l-1.142.659c.031.007.062.015.094.022l1.037-.599c.003-.028.007-.056.011-.082Z" fill="#fff" fill-rule="evenodd" />
          <path d="M4.244,4.886h-.042l-1.224.707c.03.008.06.016.091.023l1.165-.672c.003-.02.006-.039.01-.058Z" fill="#fff" fill-rule="evenodd" />
          <polygon points="4.623 4.105 4.59 4.079 4.557 4.105 4.623 4.105" fill="#fff" fill-rule="evenodd" />
          <path d="M4.533,4.105l.045-.036-.035-.028c-.011.014-.018.033-.018.056v.008h.008Z" fill="#fff" fill-rule="evenodd" />
          <polygon points="4.739 4.098 4.715 4.079 4.681 4.105 4.739 4.105 4.739 4.098" fill="#fff" fill-rule="evenodd" />
          <path d="M4.733,4.064l-.007.006.011.009c-.001-.005-.003-.01-.004-.015Z" fill="#fff" fill-rule="evenodd" />
          <polygon points="4.872 4.105 4.839 4.079 4.823 4.092 4.823 4.097 4.823 4.105 4.872 4.105" fill="#fff" fill-rule="evenodd" />
          <polygon points="4.821 4.074 4.827 4.069 4.82 4.064 4.821 4.074" fill="#fff" fill-rule="evenodd" />
          <polygon points="4.997 4.105 4.963 4.079 4.93 4.105 4.997 4.105" fill="#fff" fill-rule="evenodd" />
          <polygon points="5.121 4.105 5.088 4.079 5.055 4.105 5.121 4.105" fill="#fff" fill-rule="evenodd" />
          <polygon points="4.546 4.311 4.539 4.316 4.59 4.356 4.641 4.316 4.634 4.311 4.546 4.311" fill="#fff" fill-rule="evenodd" />
          <path d="M4.553,4.386l.025-.02-.051-.04-.002.002c.002.025.012.044.028.058Z" fill="#fff" fill-rule="evenodd" />
          <path d="M4.639,4.414l-.048-.039-.025.02c.007.005.015.008.023.011.014.005.029.008.044.008h.006Z" fill="#fff" fill-rule="evenodd" />
          <path d="M4.718,4.378l-.004-.003-.04.032h.002c.016-.007.031-.016.042-.029Z" fill="#fff" fill-rule="evenodd" />
          <polygon points="4.728 4.364 4.726 4.366 4.727 4.366 4.728 4.364" fill="#fff" fill-rule="evenodd" />
          <path d="M4.715,4.356l.023-.018c.001-.006.002-.012.002-.019v-.008h-.069l-.006.005.051.04Z" fill="#fff" fill-rule="evenodd" />
          <polygon points="4.652 4.406 4.703 4.366 4.652 4.325 4.602 4.366 4.652 4.406" fill="#fff" fill-rule="evenodd" />
          <polygon points="5.242 4.102 5.213 4.079 5.179 4.105 5.242 4.105 5.242 4.102" fill="#fff" fill-rule="evenodd" />
          <polygon points="4.901 4.406 4.952 4.366 4.901 4.325 4.851 4.366 4.901 4.406" fill="#fff" fill-rule="evenodd" />
          <polygon points="4.652 4.603 4.703 4.563 4.652 4.523 4.602 4.563 4.652 4.603" fill="#fff" fill-rule="evenodd" />
          <polygon points="4.59 4.653 4.641 4.613 4.59 4.572 4.539 4.613 4.59 4.653" fill="#fff" fill-rule="evenodd" />
          <polygon points="5.026 4.406 5.076 4.366 5.026 4.325 4.975 4.366 5.026 4.406" fill="#fff" fill-rule="evenodd" />
          <polygon points="4.963 4.455 5.014 4.415 4.963 4.375 4.913 4.415 4.963 4.455" fill="#fff" fill-rule="evenodd" />
          <polygon points="4.901 4.505 4.952 4.464 4.901 4.424 4.851 4.464 4.901 4.505" fill="#fff" fill-rule="evenodd" />
          <polygon points="4.839 4.554 4.89 4.514 4.839 4.474 4.789 4.514 4.839 4.554" fill="#fff" fill-rule="evenodd" />
          <polygon points="4.777 4.603 4.827 4.563 4.777 4.523 4.726 4.563 4.777 4.603" fill="#fff" fill-rule="evenodd" />
          <polygon points="4.715 4.653 4.765 4.613 4.715 4.572 4.664 4.613 4.715 4.653" fill="#fff" fill-rule="evenodd" />
          <polygon points="4.652 4.702 4.703 4.662 4.652 4.622 4.602 4.662 4.652 4.702" fill="#fff" fill-rule="evenodd" />
          <polygon points="4.59 4.752 4.641 4.711 4.59 4.671 4.539 4.711 4.59 4.752" fill="#fff" fill-rule="evenodd" />
          <polygon points="5.15 4.406 5.201 4.366 5.15 4.325 5.1 4.366 5.15 4.406" fill="#fff" fill-rule="evenodd" />
          <polygon points="5.088 4.455 5.139 4.415 5.088 4.375 5.037 4.415 5.088 4.455" fill="#fff" fill-rule="evenodd" />
          <polygon points="5.026 4.505 5.076 4.464 5.026 4.424 4.975 4.464 5.026 4.505" fill="#fff" fill-rule="evenodd" />
          <polygon points="4.963 4.554 5.014 4.514 4.963 4.474 4.913 4.514 4.963 4.554" fill="#fff" fill-rule="evenodd" />
          <polygon points="4.901 4.603 4.952 4.563 4.901 4.523 4.851 4.563 4.901 4.603" fill="#fff" fill-rule="evenodd" />
          <polygon points="4.839 4.653 4.89 4.613 4.839 4.572 4.789 4.613 4.839 4.653" fill="#fff" fill-rule="evenodd" />
          <polygon points="4.777 4.702 4.827 4.662 4.777 4.622 4.726 4.662 4.777 4.702" fill="#fff" fill-rule="evenodd" />
          <polygon points="4.715 4.752 4.765 4.711 4.715 4.671 4.664 4.711 4.715 4.752" fill="#fff" fill-rule="evenodd" />
          <polygon points="4.652 4.801 4.703 4.761 4.652 4.721 4.602 4.761 4.652 4.801" fill="#fff" fill-rule="evenodd" />
          <polygon points="4.59 4.85 4.641 4.81 4.59 4.77 4.539 4.81 4.59 4.85" fill="#fff" fill-rule="evenodd" />
          <polygon points="4.528 4.899 4.579 4.86 4.528 4.819 4.477 4.86 4.528 4.899" fill="#fff" fill-rule="evenodd" />
          <polygon points="5.586 4.159 5.637 4.119 5.586 4.079 5.535 4.119 5.586 4.159" fill="#fff" fill-rule="evenodd" />
          <polygon points="5.213 4.455 5.263 4.415 5.213 4.375 5.162 4.415 5.213 4.455" fill="#fff" fill-rule="evenodd" />
          <polygon points="5.15 4.505 5.201 4.464 5.15 4.424 5.1 4.464 5.15 4.505" fill="#fff" fill-rule="evenodd" />
          <polygon points="5.088 4.554 5.139 4.514 5.088 4.474 5.037 4.514 5.088 4.554" fill="#fff" fill-rule="evenodd" />
          <polygon points="5.026 4.603 5.076 4.563 5.026 4.523 4.975 4.563 5.026 4.603" fill="#fff" fill-rule="evenodd" />
          <polygon points="4.963 4.653 5.014 4.613 4.963 4.572 4.913 4.613 4.963 4.653" fill="#fff" fill-rule="evenodd" />
          <polygon points="4.901 4.702 4.952 4.662 4.901 4.622 4.851 4.662 4.901 4.702" fill="#fff" fill-rule="evenodd" />
          <polygon points="4.839 4.752 4.89 4.711 4.839 4.671 4.789 4.711 4.839 4.752" fill="#fff" fill-rule="evenodd" />
          <polygon points="4.777 4.801 4.827 4.761 4.777 4.721 4.726 4.761 4.777 4.801" fill="#fff" fill-rule="evenodd" />
          <polygon points="4.715 4.85 4.765 4.81 4.715 4.77 4.664 4.81 4.715 4.85" fill="#fff" fill-rule="evenodd" />
          <polygon points="4.652 4.899 4.703 4.86 4.652 4.819 4.602 4.86 4.652 4.899" fill="#fff" fill-rule="evenodd" />
          <polygon points="4.59 4.949 4.641 4.909 4.59 4.869 4.539 4.909 4.59 4.949" fill="#fff" fill-rule="evenodd" />
          <polygon points="4.528 4.998 4.579 4.958 4.528 4.918 4.477 4.958 4.528 4.998" fill="#fff" fill-rule="evenodd" />
          <polygon points="5.586 4.258 5.637 4.217 5.586 4.177 5.535 4.217 5.586 4.258" fill="#fff" fill-rule="evenodd" />
          <polygon points="5.337 4.455 5.388 4.415 5.337 4.375 5.286 4.415 5.337 4.455" fill="#fff" fill-rule="evenodd" />
          <polygon points="5.275 4.505 5.325 4.464 5.275 4.424 5.224 4.464 5.275 4.505" fill="#fff" fill-rule="evenodd" />
          <polygon points="5.213 4.554 5.263 4.514 5.213 4.474 5.162 4.514 5.213 4.554" fill="#fff" fill-rule="evenodd" />
          <polygon points="5.15 4.603 5.201 4.563 5.15 4.523 5.1 4.563 5.15 4.603" fill="#fff" fill-rule="evenodd" />
          <polygon points="5.088 4.653 5.139 4.613 5.088 4.572 5.037 4.613 5.088 4.653" fill="#fff" fill-rule="evenodd" />
          <polygon points="5.026 4.702 5.076 4.662 5.026 4.622 4.975 4.662 5.026 4.702" fill="#fff" fill-rule="evenodd" />
          <polygon points="4.963 4.752 5.014 4.711 4.963 4.671 4.913 4.711 4.963 4.752" fill="#fff" fill-rule="evenodd" />
          <polygon points="4.901 4.801 4.952 4.761 4.901 4.721 4.851 4.761 4.901 4.801" fill="#fff" fill-rule="evenodd" />
          <polygon points="4.839 4.85 4.89 4.81 4.839 4.77 4.789 4.81 4.839 4.85" fill="#fff" fill-rule="evenodd" />
          <polygon points="4.777 4.899 4.827 4.86 4.777 4.819 4.726 4.86 4.777 4.899" fill="#fff" fill-rule="evenodd" />
          <polygon points="4.715 4.949 4.765 4.909 4.715 4.869 4.664 4.909 4.715 4.949" fill="#fff" fill-rule="evenodd" />
          <polygon points="4.652 4.998 4.703 4.958 4.652 4.918 4.602 4.958 4.652 4.998" fill="#fff" fill-rule="evenodd" />
          <polygon points="4.59 5.048 4.641 5.008 4.59 4.968 4.539 5.008 4.59 5.048" fill="#fff" fill-rule="evenodd" />
          <polygon points="4.528 5.097 4.579 5.057 4.528 5.017 4.477 5.057 4.528 5.097" fill="#fff" fill-rule="evenodd" />
          <polygon points="5.586 4.356 5.637 4.316 5.586 4.276 5.535 4.316 5.586 4.356" fill="#fff" fill-rule="evenodd" />
          <polygon points="5.638 4.235 5.598 4.267 5.638 4.299 5.638 4.235" fill="#fff" fill-rule="evenodd" />
          <polygon points="5.638 4.136 5.598 4.168 5.638 4.2 5.638 4.136" fill="#fff" fill-rule="evenodd" />
          <path d="M5.598,4.385l-.012-.01-.012.01c.008,0,.016,0,.024,0Z" fill="#fff" fill-rule="evenodd" />
          <path d="M5.638,4.374v-.04l-.04.032.02.016c.007-.002.014-.004.021-.007Z" fill="#fff" fill-rule="evenodd" />
          <path d="M5.653,4.311v.055c.019-.012.033-.031.038-.055h-.038Z" fill="#fff" fill-rule="evenodd" />
          <rect x="5.653" y="4.119" width=".452" height=".177" fill="#fff" />
          <path d="M5.653,4.05v.055h.038c-.005-.024-.02-.042-.038-.055Z" fill="#fff" fill-rule="evenodd" />
          <polygon points="5.634 4.041 5.598 4.069 5.638 4.102 5.638 4.042 5.634 4.041" fill="#fff" fill-rule="evenodd" />
          <path d="M5.554,4.035l.032.025.032-.025s-.005-.001-.008-.002c-.018-.003-.037-.003-.056.002Z" fill="#fff" fill-rule="evenodd" />
          <path d="M5.518,4.105l.005.004.051-.04-.037-.029c-.014.006-.027.015-.037.027h.011s.007.003.007.007v.031Z" fill="#fff" fill-rule="evenodd" />
          <polygon points="5.518 4.204 5.524 4.208 5.574 4.168 5.524 4.128 5.518 4.132 5.518 4.204" fill="#fff" fill-rule="evenodd" />
          <polygon points="5.518 4.303 5.524 4.307 5.574 4.267 5.524 4.227 5.518 4.231 5.518 4.303" fill="#fff" fill-rule="evenodd" />
          <path d="M5.554,4.381l.02-.016-.051-.04-.005.005v.012s-.003.007-.007.007h-.011c.014.016.033.027.054.032Z" fill="#fff" fill-rule="evenodd" />
          <polygon points="5.399 4.505 5.45 4.464 5.399 4.424 5.349 4.464 5.399 4.505" fill="#fff" fill-rule="evenodd" />
          <polygon points="5.337 4.554 5.388 4.514 5.337 4.474 5.286 4.514 5.337 4.554" fill="#fff" fill-rule="evenodd" />
          <polygon points="5.275 4.603 5.325 4.563 5.275 4.523 5.224 4.563 5.275 4.603" fill="#fff" fill-rule="evenodd" />
          <polygon points="5.213 4.653 5.263 4.613 5.213 4.572 5.162 4.613 5.213 4.653" fill="#fff" fill-rule="evenodd" />
          <polygon points="5.15 4.702 5.201 4.662 5.15 4.622 5.1 4.662 5.15 4.702" fill="#fff" fill-rule="evenodd" />
          <polygon points="5.088 4.752 5.139 4.711 5.088 4.671 5.037 4.711 5.088 4.752" fill="#fff" fill-rule="evenodd" />
          <polygon points="5.026 4.801 5.076 4.761 5.026 4.721 4.975 4.761 5.026 4.801" fill="#fff" fill-rule="evenodd" />
          <polygon points="4.963 4.85 5.014 4.81 4.963 4.77 4.913 4.81 4.963 4.85" fill="#fff" fill-rule="evenodd" />
          <polygon points="4.901 4.899 4.952 4.86 4.901 4.819 4.851 4.86 4.901 4.899" fill="#fff" fill-rule="evenodd" />
          <polygon points="4.839 4.949 4.89 4.909 4.839 4.869 4.789 4.909 4.839 4.949" fill="#fff" fill-rule="evenodd" />
          <polygon points="4.777 4.998 4.827 4.958 4.777 4.918 4.726 4.958 4.777 4.998" fill="#fff" fill-rule="evenodd" />
          <polygon points="4.715 5.048 4.765 5.007 4.715 4.968 4.664 5.008 4.715 5.048" fill="#fff" fill-rule="evenodd" />
          <polygon points="4.652 5.097 4.703 5.057 4.652 5.017 4.602 5.057 4.652 5.097" fill="#fff" fill-rule="evenodd" />
          <polygon points="4.59 5.147 4.641 5.106 4.59 5.066 4.539 5.106 4.59 5.147" fill="#fff" fill-rule="evenodd" />
          <polygon points="4.528 5.196 4.579 5.156 4.528 5.116 4.477 5.156 4.528 5.196" fill="#fff" fill-rule="evenodd" />
          <polygon points="5.461 4.554 5.512 4.514 5.461 4.474 5.411 4.514 5.461 4.554" fill="#fff" fill-rule="evenodd" />
          <polygon points="5.399 4.603 5.45 4.563 5.399 4.523 5.349 4.563 5.399 4.603" fill="#fff" fill-rule="evenodd" />
          <polygon points="5.337 4.653 5.388 4.613 5.337 4.572 5.286 4.613 5.337 4.653" fill="#fff" fill-rule="evenodd" />
          <polygon points="5.275 4.702 5.325 4.662 5.275 4.622 5.224 4.662 5.275 4.702" fill="#fff" fill-rule="evenodd" />
          <polygon points="5.213 4.752 5.263 4.711 5.213 4.671 5.162 4.711 5.213 4.752" fill="#fff" fill-rule="evenodd" />
          <polygon points="5.15 4.801 5.201 4.761 5.15 4.721 5.1 4.761 5.15 4.801" fill="#fff" fill-rule="evenodd" />
          <polygon points="5.088 4.85 5.139 4.81 5.088 4.77 5.037 4.81 5.088 4.85" fill="#fff" fill-rule="evenodd" />
          <polygon points="5.026 4.899 5.076 4.86 5.026 4.819 4.975 4.86 5.026 4.899" fill="#fff" fill-rule="evenodd" />
          <polygon points="4.963 4.949 5.014 4.909 4.963 4.869 4.913 4.909 4.963 4.949" fill="#fff" fill-rule="evenodd" />
          <polygon points="4.901 4.998 4.952 4.958 4.901 4.918 4.851 4.958 4.901 4.998" fill="#fff" fill-rule="evenodd" />
          <polygon points="4.839 5.048 4.89 5.008 4.839 4.968 4.789 5.007 4.839 5.048" fill="#fff" fill-rule="evenodd" />
          <polygon points="4.777 5.097 4.827 5.057 4.777 5.017 4.726 5.057 4.777 5.097" fill="#fff" fill-rule="evenodd" />
          <polygon points="4.715 5.147 4.765 5.106 4.715 5.066 4.664 5.106 4.715 5.147" fill="#fff" fill-rule="evenodd" />
          <polygon points="4.652 5.196 4.703 5.156 4.652 5.116 4.602 5.156 4.652 5.196" fill="#fff" fill-rule="evenodd" />
          <polygon points="4.59 5.245 4.641 5.205 4.59 5.165 4.539 5.205 4.59 5.245" fill="#fff" fill-rule="evenodd" />
          <polygon points="4.528 5.295 4.579 5.255 4.528 5.214 4.477 5.255 4.528 5.295" fill="#fff" fill-rule="evenodd" />
          <polygon points="4.466 5.344 4.516 5.304 4.466 5.264 4.415 5.304 4.466 5.344" fill="#fff" fill-rule="evenodd" />
          <polygon points="5.586 4.554 5.637 4.514 5.586 4.474 5.535 4.514 5.586 4.554" fill="#fff" fill-rule="evenodd" />
          <polygon points="5.524 4.603 5.574 4.563 5.524 4.523 5.473 4.563 5.524 4.603" fill="#fff" fill-rule="evenodd" />
          <polygon points="5.461 4.653 5.512 4.613 5.461 4.572 5.411 4.613 5.461 4.653" fill="#fff" fill-rule="evenodd" />
          <polygon points="5.399 4.702 5.45 4.662 5.399 4.622 5.349 4.662 5.399 4.702" fill="#fff" fill-rule="evenodd" />
          <polygon points="5.337 4.752 5.388 4.711 5.337 4.671 5.286 4.711 5.337 4.752" fill="#fff" fill-rule="evenodd" />
          <polygon points="5.275 4.801 5.325 4.761 5.275 4.721 5.224 4.761 5.275 4.801" fill="#fff" fill-rule="evenodd" />
          <polygon points="5.213 4.85 5.263 4.81 5.213 4.77 5.162 4.81 5.213 4.85" fill="#fff" fill-rule="evenodd" />
          <polygon points="5.15 4.899 5.201 4.86 5.15 4.819 5.1 4.86 5.15 4.899" fill="#fff" fill-rule="evenodd" />
          <polygon points="5.088 4.949 5.139 4.909 5.088 4.869 5.037 4.909 5.088 4.949" fill="#fff" fill-rule="evenodd" />
          <polygon points="5.026 4.998 5.076 4.958 5.026 4.918 4.975 4.958 5.026 4.998" fill="#fff" fill-rule="evenodd" />
          <polygon points="4.963 5.048 5.014 5.008 4.963 4.968 4.913 5.008 4.963 5.048" fill="#fff" fill-rule="evenodd" />
          <polygon points="4.901 5.097 4.952 5.057 4.901 5.017 4.851 5.057 4.901 5.097" fill="#fff" fill-rule="evenodd" />
          <polygon points="4.839 5.147 4.89 5.106 4.839 5.066 4.789 5.106 4.839 5.147" fill="#fff" fill-rule="evenodd" />
          <polygon points="4.777 5.196 4.827 5.156 4.777 5.116 4.726 5.156 4.777 5.196" fill="#fff" fill-rule="evenodd" />
          <polygon points="4.715 5.245 4.765 5.205 4.715 5.165 4.664 5.205 4.715 5.245" fill="#fff" fill-rule="evenodd" />
          <polygon points="4.652 5.295 4.703 5.255 4.652 5.214 4.602 5.255 4.652 5.295" fill="#fff" fill-rule="evenodd" />
          <polygon points="4.59 5.344 4.641 5.304 4.59 5.264 4.539 5.304 4.59 5.344" fill="#fff" fill-rule="evenodd" />
          <polygon points="4.528 5.393 4.579 5.353 4.528 5.313 4.477 5.353 4.528 5.393" fill="#fff" fill-rule="evenodd" />
          <polygon points="4.466 5.443 4.516 5.403 4.466 5.362 4.415 5.403 4.466 5.443" fill="#fff" fill-rule="evenodd" />
          <polygon points="5.586 4.653 5.637 4.613 5.586 4.572 5.535 4.613 5.586 4.653" fill="#fff" fill-rule="evenodd" />
          <polygon points="5.524 4.702 5.574 4.662 5.524 4.622 5.473 4.662 5.524 4.702" fill="#fff" fill-rule="evenodd" />
          <polygon points="5.461 4.752 5.512 4.711 5.461 4.671 5.411 4.711 5.461 4.752" fill="#fff" fill-rule="evenodd" />
          <polygon points="5.399 4.801 5.45 4.761 5.399 4.721 5.349 4.761 5.399 4.801" fill="#fff" fill-rule="evenodd" />
          <polygon points="5.337 4.85 5.388 4.81 5.337 4.77 5.286 4.81 5.337 4.85" fill="#fff" fill-rule="evenodd" />
          <polygon points="5.275 4.899 5.325 4.86 5.275 4.819 5.224 4.86 5.275 4.899" fill="#fff" fill-rule="evenodd" />
          <polygon points="5.213 4.949 5.263 4.909 5.213 4.869 5.162 4.909 5.213 4.949" fill="#fff" fill-rule="evenodd" />
          <polygon points="5.15 4.998 5.201 4.958 5.15 4.918 5.1 4.958 5.15 4.998" fill="#fff" fill-rule="evenodd" />
          <polygon points="5.088 5.048 5.139 5.007 5.088 4.968 5.037 5.008 5.088 5.048" fill="#fff" fill-rule="evenodd" />
          <polygon points="5.026 5.097 5.076 5.057 5.026 5.017 4.975 5.057 5.026 5.097" fill="#fff" fill-rule="evenodd" />
          <polygon points="4.963 5.147 5.014 5.106 4.963 5.066 4.913 5.106 4.963 5.147" fill="#fff" fill-rule="evenodd" />
          <polygon points="4.901 5.196 4.952 5.156 4.901 5.116 4.851 5.156 4.901 5.196" fill="#fff" fill-rule="evenodd" />
          <polygon points="4.839 5.245 4.89 5.205 4.839 5.165 4.789 5.205 4.839 5.245" fill="#fff" fill-rule="evenodd" />
          <polygon points="4.777 5.295 4.827 5.255 4.777 5.214 4.726 5.255 4.777 5.295" fill="#fff" fill-rule="evenodd" />
          <polygon points="4.715 5.344 4.765 5.304 4.715 5.264 4.664 5.304 4.715 5.344" fill="#fff" fill-rule="evenodd" />
          <polygon points="4.652 5.393 4.703 5.353 4.652 5.313 4.602 5.353 4.652 5.393" fill="#fff" fill-rule="evenodd" />
          <polygon points="4.59 5.443 4.641 5.403 4.59 5.362 4.539 5.403 4.59 5.443" fill="#fff" fill-rule="evenodd" />
          <polygon points="4.528 5.492 4.579 5.452 4.528 5.412 4.477 5.452 4.528 5.492" fill="#fff" fill-rule="evenodd" />
          <polygon points="5.586 4.752 5.637 4.711 5.586 4.671 5.535 4.711 5.586 4.752" fill="#fff" fill-rule="evenodd" />
          <polygon points="5.524 4.801 5.574 4.761 5.524 4.721 5.473 4.761 5.524 4.801" fill="#fff" fill-rule="evenodd" />
          <polygon points="5.461 4.85 5.512 4.81 5.461 4.77 5.411 4.81 5.461 4.85" fill="#fff" fill-rule="evenodd" />
          <polygon points="5.399 4.899 5.45 4.86 5.399 4.819 5.349 4.86 5.399 4.899" fill="#fff" fill-rule="evenodd" />
          <polygon points="5.337 4.949 5.388 4.909 5.337 4.869 5.286 4.909 5.337 4.949" fill="#fff" fill-rule="evenodd" />
          <polygon points="5.275 4.998 5.325 4.958 5.275 4.918 5.224 4.958 5.275 4.998" fill="#fff" fill-rule="evenodd" />
          <polygon points="5.213 5.048 5.263 5.007 5.213 4.968 5.162 5.007 5.213 5.048" fill="#fff" fill-rule="evenodd" />
          <polygon points="5.15 5.097 5.201 5.057 5.15 5.017 5.1 5.057 5.15 5.097" fill="#fff" fill-rule="evenodd" />
          <polygon points="5.088 5.147 5.139 5.106 5.088 5.066 5.037 5.106 5.088 5.147" fill="#fff" fill-rule="evenodd" />
          <polygon points="5.026 5.196 5.076 5.156 5.026 5.116 4.975 5.156 5.026 5.196" fill="#fff" fill-rule="evenodd" />
          <polygon points="4.963 5.245 5.014 5.205 4.963 5.165 4.913 5.205 4.963 5.245" fill="#fff" fill-rule="evenodd" />
          <polygon points="4.901 5.295 4.952 5.255 4.901 5.214 4.851 5.255 4.901 5.295" fill="#fff" fill-rule="evenodd" />
          <polygon points="4.839 5.344 4.89 5.304 4.839 5.264 4.789 5.304 4.839 5.344" fill="#fff" fill-rule="evenodd" />
          <polygon points="4.777 5.393 4.827 5.353 4.777 5.313 4.726 5.353 4.777 5.393" fill="#fff" fill-rule="evenodd" />
          <polygon points="4.715 5.443 4.765 5.403 4.715 5.362 4.664 5.403 4.715 5.443" fill="#fff" fill-rule="evenodd" />
          <polygon points="4.652 5.492 4.703 5.452 4.652 5.412 4.602 5.452 4.652 5.492" fill="#fff" fill-rule="evenodd" />
          <polygon points="4.59 5.542 4.641 5.501 4.59 5.461 4.539 5.501 4.59 5.542" fill="#fff" fill-rule="evenodd" />
          <polygon points="4.528 5.591 4.579 5.551 4.528 5.511 4.477 5.551 4.528 5.591" fill="#fff" fill-rule="evenodd" />
          <polygon points="5.586 4.85 5.637 4.81 5.586 4.77 5.535 4.81 5.586 4.85" fill="#fff" fill-rule="evenodd" />
          <polygon points="5.524 4.899 5.574 4.86 5.524 4.819 5.473 4.86 5.524 4.899" fill="#fff" fill-rule="evenodd" />
          <polygon points="5.461 4.949 5.512 4.909 5.461 4.869 5.411 4.909 5.461 4.949" fill="#fff" fill-rule="evenodd" />
          <polygon points="5.399 4.998 5.45 4.958 5.399 4.918 5.349 4.958 5.399 4.998" fill="#fff" fill-rule="evenodd" />
          <polygon points="5.337 5.048 5.388 5.007 5.337 4.968 5.286 5.007 5.337 5.048" fill="#fff" fill-rule="evenodd" />
          <polygon points="5.275 5.097 5.325 5.057 5.275 5.017 5.224 5.057 5.275 5.097" fill="#fff" fill-rule="evenodd" />
          <polygon points="5.213 5.147 5.263 5.106 5.213 5.066 5.162 5.106 5.213 5.147" fill="#fff" fill-rule="evenodd" />
          <polygon points="5.15 5.196 5.201 5.156 5.15 5.116 5.1 5.156 5.15 5.196" fill="#fff" fill-rule="evenodd" />
          <polygon points="5.088 5.245 5.139 5.205 5.088 5.165 5.037 5.205 5.088 5.245" fill="#fff" fill-rule="evenodd" />
          <polygon points="5.026 5.295 5.076 5.255 5.026 5.214 4.975 5.255 5.026 5.295" fill="#fff" fill-rule="evenodd" />
          <polygon points="4.963 5.344 5.014 5.304 4.963 5.264 4.913 5.304 4.963 5.344" fill="#fff" fill-rule="evenodd" />
          <polygon points="4.901 5.393 4.952 5.353 4.901 5.313 4.851 5.353 4.901 5.393" fill="#fff" fill-rule="evenodd" />
          <polygon points="4.839 5.443 4.89 5.403 4.839 5.362 4.789 5.403 4.839 5.443" fill="#fff" fill-rule="evenodd" />
          <polygon points="4.777 5.492 4.827 5.452 4.777 5.412 4.726 5.452 4.777 5.492" fill="#fff" fill-rule="evenodd" />
          <polygon points="4.715 5.542 4.765 5.501 4.715 5.461 4.664 5.501 4.715 5.542" fill="#fff" fill-rule="evenodd" />
          <polygon points="4.652 5.591 4.703 5.551 4.652 5.511 4.602 5.551 4.652 5.591" fill="#fff" fill-rule="evenodd" />
          <polygon points="4.59 5.64 4.641 5.6 4.59 5.56 4.539 5.6 4.59 5.64" fill="#fff" fill-rule="evenodd" />
          <polygon points="5.586 4.949 5.637 4.909 5.586 4.869 5.535 4.909 5.586 4.949" fill="#fff" fill-rule="evenodd" />
          <polygon points="5.524 4.998 5.574 4.958 5.524 4.918 5.473 4.958 5.524 4.998" fill="#fff" fill-rule="evenodd" />
          <polygon points="5.461 5.048 5.512 5.007 5.461 4.968 5.411 5.007 5.461 5.048" fill="#fff" fill-rule="evenodd" />
          <polygon points="5.399 5.097 5.45 5.057 5.399 5.017 5.349 5.057 5.399 5.097" fill="#fff" fill-rule="evenodd" />
          <polygon points="5.337 5.147 5.388 5.106 5.337 5.066 5.286 5.106 5.337 5.147" fill="#fff" fill-rule="evenodd" />
          <polygon points="5.275 5.196 5.325 5.156 5.275 5.116 5.224 5.156 5.275 5.196" fill="#fff" fill-rule="evenodd" />
          <polygon points="5.213 5.245 5.263 5.205 5.213 5.165 5.162 5.205 5.213 5.245" fill="#fff" fill-rule="evenodd" />
          <polygon points="5.15 5.295 5.201 5.255 5.15 5.214 5.1 5.255 5.15 5.295" fill="#fff" fill-rule="evenodd" />
          <polygon points="5.088 5.344 5.139 5.304 5.088 5.264 5.037 5.304 5.088 5.344" fill="#fff" fill-rule="evenodd" />
          <polygon points="5.026 5.393 5.076 5.353 5.026 5.313 4.975 5.353 5.026 5.393" fill="#fff" fill-rule="evenodd" />
          <polygon points="4.963 5.443 5.014 5.403 4.963 5.362 4.913 5.403 4.963 5.443" fill="#fff" fill-rule="evenodd" />
          <polygon points="4.901 5.492 4.952 5.452 4.901 5.412 4.851 5.452 4.901 5.492" fill="#fff" fill-rule="evenodd" />
          <polygon points="4.839 5.542 4.89 5.501 4.839 5.461 4.789 5.501 4.839 5.542" fill="#fff" fill-rule="evenodd" />
          <polygon points="4.777 5.591 4.827 5.551 4.777 5.511 4.726 5.551 4.777 5.591" fill="#fff" fill-rule="evenodd" />
          <polygon points="4.715 5.64 4.765 5.6 4.715 5.56 4.664 5.6 4.715 5.64" fill="#fff" fill-rule="evenodd" />
          <polygon points="4.652 5.69 4.703 5.65 4.652 5.61 4.602 5.65 4.652 5.69" fill="#fff" fill-rule="evenodd" />
          <polygon points="5.524 5.097 5.574 5.057 5.524 5.017 5.473 5.057 5.524 5.097" fill="#fff" fill-rule="evenodd" />
          <polygon points="5.461 5.147 5.512 5.106 5.461 5.066 5.411 5.106 5.461 5.147" fill="#fff" fill-rule="evenodd" />
          <polygon points="5.399 5.196 5.45 5.156 5.399 5.116 5.349 5.156 5.399 5.196" fill="#fff" fill-rule="evenodd" />
          <polygon points="5.337 5.245 5.388 5.205 5.337 5.165 5.286 5.205 5.337 5.245" fill="#fff" fill-rule="evenodd" />
          <polygon points="5.275 5.295 5.325 5.255 5.275 5.214 5.224 5.255 5.275 5.295" fill="#fff" fill-rule="evenodd" />
          <polygon points="5.213 5.344 5.263 5.304 5.213 5.264 5.162 5.304 5.213 5.344" fill="#fff" fill-rule="evenodd" />
          <polygon points="5.15 5.393 5.201 5.353 5.15 5.313 5.1 5.353 5.15 5.393" fill="#fff" fill-rule="evenodd" />
          <polygon points="5.088 5.443 5.139 5.403 5.088 5.362 5.037 5.403 5.088 5.443" fill="#fff" fill-rule="evenodd" />
          <polygon points="5.026 5.492 5.076 5.452 5.026 5.412 4.975 5.452 5.026 5.492" fill="#fff" fill-rule="evenodd" />
          <polygon points="4.963 5.542 5.014 5.501 4.963 5.461 4.913 5.501 4.963 5.542" fill="#fff" fill-rule="evenodd" />
          <polygon points="4.901 5.591 4.952 5.551 4.901 5.511 4.851 5.551 4.901 5.591" fill="#fff" fill-rule="evenodd" />
          <polygon points="4.839 5.64 4.89 5.6 4.839 5.56 4.789 5.6 4.839 5.64" fill="#fff" fill-rule="evenodd" />
          <polygon points="4.777 5.69 4.827 5.65 4.777 5.61 4.726 5.65 4.777 5.69" fill="#fff" fill-rule="evenodd" />
          <polygon points="4.715 5.739 4.765 5.699 4.715 5.659 4.664 5.699 4.715 5.739" fill="#fff" fill-rule="evenodd" />
          <polygon points="5.524 5.196 5.574 5.156 5.524 5.116 5.473 5.156 5.524 5.196" fill="#fff" fill-rule="evenodd" />
          <polygon points="5.461 5.245 5.512 5.205 5.461 5.165 5.411 5.205 5.461 5.245" fill="#fff" fill-rule="evenodd" />
          <polygon points="5.399 5.295 5.45 5.255 5.399 5.214 5.349 5.255 5.399 5.295" fill="#fff" fill-rule="evenodd" />
          <polygon points="5.337 5.344 5.388 5.304 5.337 5.264 5.286 5.304 5.337 5.344" fill="#fff" fill-rule="evenodd" />
          <polygon points="5.275 5.393 5.325 5.353 5.275 5.313 5.224 5.353 5.275 5.393" fill="#fff" fill-rule="evenodd" />
          <polygon points="5.213 5.443 5.263 5.403 5.213 5.362 5.162 5.403 5.213 5.443" fill="#fff" fill-rule="evenodd" />
          <polygon points="5.15 5.492 5.201 5.452 5.15 5.412 5.1 5.452 5.15 5.492" fill="#fff" fill-rule="evenodd" />
          <polygon points="5.088 5.542 5.139 5.501 5.088 5.461 5.037 5.501 5.088 5.542" fill="#fff" fill-rule="evenodd" />
          <polygon points="5.026 5.591 5.076 5.551 5.026 5.511 4.975 5.551 5.026 5.591" fill="#fff" fill-rule="evenodd" />
          <polygon points="4.963 5.64 5.014 5.6 4.963 5.56 4.913 5.6 4.963 5.64" fill="#fff" fill-rule="evenodd" />
          <polygon points="4.901 5.69 4.952 5.65 4.901 5.61 4.851 5.65 4.901 5.69" fill="#fff" fill-rule="evenodd" />
          <polygon points="4.839 5.739 4.89 5.699 4.839 5.659 4.789 5.699 4.839 5.739" fill="#fff" fill-rule="evenodd" />
          <polygon points="4.777 5.788 4.827 5.748 4.777 5.708 4.726 5.748 4.777 5.788" fill="#fff" fill-rule="evenodd" />
          <polygon points="5.524 5.295 5.574 5.255 5.524 5.214 5.473 5.255 5.524 5.295" fill="#fff" fill-rule="evenodd" />
          <polygon points="5.461 5.344 5.512 5.304 5.461 5.264 5.411 5.304 5.461 5.344" fill="#fff" fill-rule="evenodd" />
          <polygon points="5.399 5.393 5.45 5.353 5.399 5.313 5.349 5.353 5.399 5.393" fill="#fff" fill-rule="evenodd" />
          <polygon points="5.337 5.443 5.388 5.403 5.337 5.362 5.286 5.403 5.337 5.443" fill="#fff" fill-rule="evenodd" />
          <polygon points="5.275 5.492 5.325 5.452 5.275 5.412 5.224 5.452 5.275 5.492" fill="#fff" fill-rule="evenodd" />
          <polygon points="5.213 5.542 5.263 5.501 5.213 5.461 5.162 5.501 5.213 5.542" fill="#fff" fill-rule="evenodd" />
          <polygon points="5.15 5.591 5.201 5.551 5.15 5.511 5.1 5.551 5.15 5.591" fill="#fff" fill-rule="evenodd" />
          <polygon points="5.088 5.64 5.139 5.6 5.088 5.56 5.037 5.6 5.088 5.64" fill="#fff" fill-rule="evenodd" />
          <polygon points="5.026 5.69 5.076 5.65 5.026 5.61 4.975 5.65 5.026 5.69" fill="#fff" fill-rule="evenodd" />
          <polygon points="4.963 5.739 5.014 5.699 4.963 5.659 4.913 5.699 4.963 5.739" fill="#fff" fill-rule="evenodd" />
          <polygon points="4.901 5.788 4.952 5.748 4.901 5.708 4.851 5.748 4.901 5.788" fill="#fff" fill-rule="evenodd" />
          <polygon points="5.399 5.492 5.45 5.452 5.399 5.412 5.349 5.452 5.399 5.492" fill="#fff" fill-rule="evenodd" />
          <polygon points="5.337 5.542 5.388 5.501 5.337 5.461 5.286 5.501 5.337 5.542" fill="#fff" fill-rule="evenodd" />
          <polygon points="5.275 5.591 5.325 5.551 5.275 5.511 5.224 5.551 5.275 5.591" fill="#fff" fill-rule="evenodd" />
          <polygon points="5.213 5.64 5.263 5.6 5.213 5.56 5.162 5.6 5.213 5.64" fill="#fff" fill-rule="evenodd" />
          <polygon points="5.15 5.69 5.201 5.65 5.15 5.61 5.1 5.65 5.15 5.69" fill="#fff" fill-rule="evenodd" />
          <polygon points="5.088 5.739 5.139 5.699 5.088 5.659 5.037 5.699 5.088 5.739" fill="#fff" fill-rule="evenodd" />
          <polygon points="4.602 5.748 4.652 5.788 4.703 5.748 4.652 5.708 4.602 5.748" fill="#fff" fill-rule="evenodd" />
          <polygon points="4.539 5.699 4.59 5.739 4.641 5.699 4.59 5.659 4.539 5.699" fill="#fff" fill-rule="evenodd" />
          <polygon points="4.477 5.65 4.528 5.69 4.579 5.65 4.528 5.61 4.477 5.65" fill="#fff" fill-rule="evenodd" />
          <polygon points="4.579 5.748 4.528 5.708 4.477 5.748 4.528 5.788 4.579 5.748" fill="#fff" fill-rule="evenodd" />
          <polygon points="5.638 4.595 5.638 4.531 5.598 4.563 5.638 4.595" fill="#fff" fill-rule="evenodd" />
          <polygon points="5.638 4.694 5.638 4.63 5.598 4.662 5.638 4.694" fill="#fff" fill-rule="evenodd" />
          <polygon points="5.638 4.793 5.638 4.729 5.598 4.761 5.638 4.793" fill="#fff" fill-rule="evenodd" />
          <polygon points="5.638 4.891 5.638 4.827 5.598 4.86 5.638 4.891" fill="#fff" fill-rule="evenodd" />
          <path d="M5.636,4.989c.001-.018.002-.037.002-.056v-.007l-.04.032.039.031Z" fill="#fff" fill-rule="evenodd" />
          <polygon points="5.635 5.009 5.635 5.007 5.586 4.968 5.535 5.007 5.586 5.048 5.635 5.009" fill="#fff" fill-rule="evenodd" />
          <path d="M5.626,5.08c.003-.017.005-.034.007-.051l-.035.028.029.023Z" fill="#fff" fill-rule="evenodd" />
          <path d="M5.619,5.121c.002-.008.003-.016.005-.025l-.037-.03-.05.04.05.04.033-.026Z" fill="#fff" fill-rule="evenodd" />
          <path d="M5.583,5.243c.008-.021.015-.042.021-.064l-.018-.014-.05.04.048.038Z" fill="#fff" fill-rule="evenodd" />
          <path d="M5.552,5.317c.006-.013.012-.027.018-.041l-.035.028.016.013Z" fill="#fff" fill-rule="evenodd" />
          <path d="M5.515,5.386c.011-.018.021-.037.03-.056l-.022-.017-.05.04.042.033Z" fill="#fff" fill-rule="evenodd" />
          <path d="M5.499,5.413s.006-.009.009-.014l-.046-.037-.051.04.051.04.037-.03Z" fill="#fff" fill-rule="evenodd" />
          <path d="M5.425,5.513c.014-.016.027-.033.039-.049l-.003-.002-.051.04.014.012Z" fill="#fff" fill-rule="evenodd" />
          <path d="M5.372,5.57c.008-.008.017-.017.025-.026.006-.007.012-.013.018-.02l-.017-.013-.05.04.024.019Z" fill="#fff" fill-rule="evenodd" />
          <path d="M5.314,5.623c.016-.014.032-.028.048-.043l-.025-.02-.051.04.028.022Z" fill="#fff" fill-rule="evenodd" />
          <path d="M5.251,5.671c.018-.012.035-.025.052-.039l-.028-.022-.05.04.027.021Z" fill="#fff" fill-rule="evenodd" />
          <path d="M5.181,5.714c.02-.011.039-.023.057-.035l-.025-.02-.051.04.019.015Z" fill="#fff" fill-rule="evenodd" />
          <path d="M5.105,5.752c.021-.009.042-.02.062-.031l-.017-.014-.051.04.005.004Z" fill="#fff" fill-rule="evenodd" />
          <polygon points="5.083 5.762 5.09 5.759 5.088 5.757 5.083 5.762" fill="#fff" fill-rule="evenodd" />
          <path d="M5.021,5.785c.006-.002.011-.004.017-.006l.038-.031-.05-.04-.051.04.046.036Z" fill="#fff" fill-rule="evenodd" />
          <path d="M4.928,5.809c.026-.005.052-.012.076-.02l-.041-.032-.05.04.015.012Z" fill="#fff" fill-rule="evenodd" />
          <path d="M4.889,5.817c.007,0,.014-.002.02-.003l-.008-.006-.012.01Z" fill="#fff" fill-rule="evenodd" />
          <path d="M4.823,5.825c.012-.001.025-.003.037-.004l.03-.023-.051-.04-.05.04.035.028Z" fill="#fff" fill-rule="evenodd" />
          <path d="M4.748,5.829c.018,0,.036-.002.054-.003l-.025-.02-.028.022Z" fill="#fff" fill-rule="evenodd" />
          <path d="M4.705,5.831c.006,0,.012,0,.019,0l.041-.033-.05-.04-.051.04.042.033Z" fill="#fff" fill-rule="evenodd" />
          <path d="M4.622,5.831h.061l-.03-.024-.031.024Z" fill="#fff" fill-rule="evenodd" />
          <polygon points="4.581 5.831 4.599 5.831 4.641 5.798 4.59 5.757 4.539 5.798 4.581 5.831" fill="#fff" fill-rule="evenodd" />
          <path d="M4.5,5.829c.02,0,.039.002.057.002l-.029-.023-.027.022Z" fill="#fff" fill-rule="evenodd" />
          <path d="M4.446,5.773c.003.018.006.036.01.054h.022s.038-.029.038-.029l-.05-.04-.019.015Z" fill="#fff" fill-rule="evenodd" />
          <path d="M4.441,5.738c0,.006.002.012.003.019l.01-.008-.013-.011Z" fill="#fff" fill-rule="evenodd" />
          <path d="M4.434,5.684c.001.011.003.022.004.033l.028.022.05-.04-.05-.04-.032.025Z" fill="#fff" fill-rule="evenodd" />
          <path d="M4.427,5.629c.001.013.002.026.004.039l.022-.018-.026-.021Z" fill="#fff" fill-rule="evenodd" />
          <polygon points="4.424 5.593 4.425 5.609 4.466 5.64 4.516 5.6 4.466 5.56 4.424 5.593" fill="#fff" fill-rule="evenodd" />
          <path d="M4.419,5.523c0,.017.002.035.003.052l.031-.025-.035-.028Z" fill="#fff" fill-rule="evenodd" />
          <polygon points="4.418 5.499 4.418 5.504 4.466 5.542 4.516 5.501 4.466 5.461 4.418 5.499" fill="#fff" fill-rule="evenodd" />
          <path d="M4.415,5.421c0,.02.001.04.002.06l.037-.03-.039-.031Z" fill="#fff" fill-rule="evenodd" />
          <path d="M4.414,5.321v.011c0,.018,0,.035,0,.053l.04-.032-.04-.032Z" fill="#fff" fill-rule="evenodd" />
          <path d="M4.415,5.224c0,.021-.001.041-.001.062l.04-.032-.038-.031Z" fill="#fff" fill-rule="evenodd" />
          <polygon points="4.416 5.204 4.416 5.206 4.466 5.245 4.516 5.205 4.466 5.165 4.416 5.204" fill="#fff" fill-rule="evenodd" />
          <path d="M4.42,5.129c-.001.019-.002.037-.003.056l.037-.029-.034-.027Z" fill="#fff" fill-rule="evenodd" />
          <polygon points="4.422 5.101 4.421 5.111 4.466 5.147 4.516 5.106 4.466 5.066 4.422 5.101" fill="#fff" fill-rule="evenodd" />
          <path d="M4.427,5.036c-.001.015-.003.03-.004.045l.03-.024-.026-.021Z" fill="#fff" fill-rule="evenodd" />
          <path d="M4.432,4.994c0,.008-.002.016-.003.025l.037.029.05-.04-.05-.04-.034.027Z" fill="#fff" fill-rule="evenodd" />
          <path d="M4.438,4.946c-.001.009-.002.019-.004.028l.019-.015-.016-.012Z" fill="#fff" fill-rule="evenodd" />
          <path d="M4.448,4.883c-.003.016-.005.031-.007.047l.025.02.05-.04-.05-.04-.018.014Z" fill="#fff" fill-rule="evenodd" />
          <path d="M4.491,4.79c-.008.023-.018.042-.029.057l.003.003.05-.04-.025-.02Z" fill="#fff" fill-rule="evenodd" />
          <path d="M4.507,4.737s-.002.007-.003.01c-.002.01-.005.02-.008.029l.031.025.051-.04-.051-.04-.02.016Z" fill="#fff" fill-rule="evenodd" />
          <polygon points="4.513 4.709 4.512 4.715 4.516 4.711 4.513 4.709" fill="#fff" fill-rule="evenodd" />
          <path d="M4.523,4.625c-.001.024-.004.046-.007.067l.012.01.051-.04-.051-.04-.004.004Z" fill="#fff" fill-rule="evenodd" />
          <path d="M4.525,4.525v.047c0,.01,0,.019,0,.029l.003.003.051-.04-.051-.04-.003.002Z" fill="#fff" fill-rule="evenodd" />
          <path d="M5.602,4.468l.036.029v-.034c-.009.002-.019.004-.029.005-.002,0-.004,0-.006,0Z" fill="#fff" fill-rule="evenodd" />
          <path d="M5.494,4.448l-.021.016.05.04.046-.037c-.027-.002-.053-.008-.076-.02Z" fill="#fff" fill-rule="evenodd" />
          <path d="M5.432,4.398l-.021.017.051.04.018-.015c-.018-.011-.035-.025-.048-.042Z" fill="#fff" fill-rule="evenodd" />
          <path d="M5.37,4.349l-.021.017.05.04.025-.019c-.007-.011-.014-.024-.018-.037h-.036Z" fill="#fff" fill-rule="evenodd" />
          <polygon points="5.328 4.349 5.337 4.356 5.346 4.349 5.328 4.349" fill="#fff" fill-rule="evenodd" />
          <polygon points="5.246 4.348 5.224 4.366 5.275 4.406 5.325 4.366 5.304 4.349 5.249 4.349 5.246 4.348" fill="#fff" fill-rule="evenodd" />
          <polygon points="5.168 4.311 5.162 4.316 5.213 4.356 5.242 4.333 5.242 4.311 5.168 4.311" fill="#fff" fill-rule="evenodd" />
          <polygon points="5.044 4.311 5.037 4.316 5.088 4.356 5.139 4.316 5.132 4.311 5.044 4.311" fill="#fff" fill-rule="evenodd" />
          <polygon points="4.919 4.311 4.913 4.316 4.963 4.356 5.014 4.316 5.008 4.311 4.919 4.311" fill="#fff" fill-rule="evenodd" />
          <path d="M4.821,4.342l.018.014.051-.04-.006-.005h-.06v.008c0,.008,0,.016-.001.024Z" fill="#fff" fill-rule="evenodd" />
          <path d="M4.814,4.376l.013-.011-.008-.007c-.001.006-.003.012-.005.017Z" fill="#fff" fill-rule="evenodd" />
          <path d="M4.793,4.419l.046.037.051-.04-.051-.04-.037.03c-.002.005-.006.01-.009.014Z" fill="#fff" fill-rule="evenodd" />
          <path d="M4.734,4.471l.042.034.051-.04-.043-.034c-.007.008-.015.016-.023.022-.008.007-.017.013-.027.018Z" fill="#fff" fill-rule="evenodd" />
          <path d="M4.698,4.487l-.034.027.051.04.05-.04-.045-.036c-.007.003-.015.006-.022.008Z" fill="#fff" fill-rule="evenodd" />
          <path d="M4.643,4.497l.009.008.012-.01c-.007.001-.015.002-.022.002Z" fill="#fff" fill-rule="evenodd" />
          <path d="M4.571,4.489l-.031.025.051.04.05-.04-.021-.017c-.017,0-.033-.003-.049-.008h0Z" fill="#fff" fill-rule="evenodd" />
          <path d="M4.525,4.469v.034l.003.002.027-.021c-.01-.004-.02-.009-.03-.015Z" fill="#fff" fill-rule="evenodd" />
          <path d="M4.583,4.012c.04.005.08.009.121.013-.008-.006-.017-.011-.028-.015-.014-.005-.029-.008-.044-.008-.015,0-.03.003-.044.008-.001,0-.003,0-.004.002Z" fill="#fff" fill-rule="evenodd" />
          <path d="M4.626,4.032c-.022-.002-.043-.005-.064-.008-.003.002-.006.005-.009.007l.037.029.036-.029Z" fill="#fff" fill-rule="evenodd" />
          <polygon points="4.66 4.035 4.647 4.034 4.602 4.069 4.647 4.105 4.658 4.105 4.703 4.069 4.66 4.035" fill="#fff" fill-rule="evenodd" />
          <path d="M4.721,4.041c-.011,0-.023-.002-.034-.003l.028.022.012-.01s-.004-.006-.006-.009Z" fill="#fff" fill-rule="evenodd" />
          <path d="M4.851,4.05c-.009,0-.018-.001-.027-.002l.014.012.012-.01Z" fill="#fff" fill-rule="evenodd" />
          <path d="M4.932,4.054c-.019,0-.039-.001-.058-.002l-.023.018.045.036h.011l.045-.036-.02-.016Z" fill="#fff" fill-rule="evenodd" />
          <polygon points="4.97 4.055 4.956 4.054 4.963 4.06 4.97 4.055" fill="#fff" fill-rule="evenodd" />
          <path d="M5.06,4.056c-.022,0-.045,0-.067,0l-.018.014.045.036h.011l.045-.036-.016-.013Z" fill="#fff" fill-rule="evenodd" />
          <polygon points="5.093 4.056 5.083 4.056 5.088 4.06 5.093 4.056" fill="#fff" fill-rule="evenodd" />
          <path d="M5.183,4.055c-.022,0-.044,0-.067.001l-.017.013.045.036h.011l.045-.036-.018-.014Z" fill="#fff" fill-rule="evenodd" />
          <polygon points="5.22 4.054 5.206 4.054 5.213 4.06 5.22 4.054" fill="#fff" fill-rule="evenodd" />
          <path d="M5.302,4.051c-.015,0-.029.002-.044.002h-.013s-.02.017-.02.017l.018.014v-.009s.003-.007.007-.007h.073l-.021-.017Z" fill="#fff" fill-rule="evenodd" />
          <path d="M5.353,4.048c-.01,0-.019.001-.029.002l.014.011.016-.013Z" fill="#fff" fill-rule="evenodd" />
          <path d="M5.416,4.043c-.012.001-.025.002-.038.003l-.027.021h.054c.003-.008.006-.017.01-.024Z" fill="#fff" fill-rule="evenodd" />
          <path d="M3.062,1.677l-.19.087c-.007-.018-.014-.036-.021-.054-.033-.086-.065-.175-.086-.265-.003-.015-.016-.061,0-.07.016-.009.052.027.064.037.07.065.132.14.192.214.014.017.027.034.041.051h0ZM2.875,1.533c-.019,0-.035.016-.035.035,0,.019.016.035.035.035s.035-.016.035-.035c0-.019-.016-.035-.035-.035h0ZM2.875,1.519c-.027,0-.05.022-.05.05s.022.049.05.049c.027,0,.049-.022.049-.049s-.022-.05-.049-.05Z" fill="#fff" fill-rule="evenodd" />
          <path d="M4.082,3.193l-.416.184c-.037-.068-.073-.136-.109-.204-.064-.12-.128-.241-.191-.363-.124-.24-.246-.484-.358-.73-.046-.1-.09-.201-.13-.302l.194-.089c.069.087.135.177.201.269.162.227.318.461.469.696.077.119.152.238.227.358.038.06.076.121.113.182Z" fill="#fff" fill-rule="evenodd" />
          <path d="M3.673,3.39l.417-.184c.045.073.09.147.133.221.05.087.099.173.148.261l-.418.185c-.057-.095-.113-.19-.168-.285-.038-.065-.074-.131-.11-.197h0ZM4.014,3.528l.021-.173-.194.086.172.087h0ZM3.844,3.458l.148.255.021-.17-.169-.085h0ZM4.199,3.638l-.173-.088-.022.173.194-.086h0ZM4.028,3.535l.169.086-.148-.255-.021.169h0ZM3.999,3.742l.221-.097s.004-.006.002-.01l-.171-.294s-.006-.005-.009-.003l-.22.097s-.005.006-.003.01l.171.295s.006.005.009.003h0ZM4.306,3.668l-.235-.405-.336.149.235.405.337-.148h0ZM3.97,3.832l.351-.155s.004-.006.003-.01l-.243-.417s-.006-.005-.009-.003l-.35.155s-.004.007-.003.01l.242.418s.006.005.009.003Z" fill="#fff" fill-rule="evenodd" />
          <path d="M4.235,3.42c-.081-.141-.168-.278-.254-.416-.075-.12-.151-.239-.228-.359-.152-.235-.307-.469-.47-.697-.081-.113-.164-.225-.251-.332-.061-.075-.124-.15-.194-.215-.017-.016-.056-.054-.081-.039-.025.014-.012.063-.007.086.021.091.054.18.087.267.048.124.101.248.157.371.112.246.234.49.358.73.063.121.126.243.191.364.074.139.148.278.227.414.054.093.108.185.164.277-.012-.001-.024-.003-.036-.003-.006,0-.013,0-.02,0-.05-.083-.099-.166-.147-.25-.079-.137-.568-1.025-.846-1.667-.151-.348-.241-.622-.17-.663.071-.041.271.182.505.496.431.58.974,1.473,1.055,1.613.051.088.101.177.15.267l-.042.019c-.049-.088-.098-.175-.148-.262Z" fill="#fff" fill-rule="evenodd" />
          <path d="M8.215,7.455c.031.023.084.066.115.111.019.028.03.056.02.081-.016.039-.082.054-.175.047-.095-.007-.219-.038-.347-.091-.168-.069-.333-.158-.491-.262-.161-.106-.315-.229-.46-.362l.633-.163c.111.12.227.234.344.341.119.108.24.208.361.299h0ZM7.001,7.008c.129.113.267.218.412.31.14.089.286.167.438.229.098.041.208.075.314.085.034.003.097.006.128-.01-.003-.013-.023-.038-.032-.047-.025-.027-.053-.051-.082-.073-.066-.049-.131-.101-.195-.154.003.007.004.014.006.021.004.023.002.047-.008.069-.009.025-.003.054.016.073.013.014.031.02.049.02.018,0,.036-.007.049-.02.003-.003.007-.003.01,0,.003.003.003.007,0,.01-.016.016-.038.025-.059.025s-.043-.008-.059-.025c-.023-.023-.031-.058-.019-.089.008-.019.011-.04.007-.061-.004-.02-.013-.039-.029-.054-.02-.02-.047-.031-.074-.031-.027,0-.054.011-.074.031-.02.017-.041.031-.063.043-.023.012-.047.02-.072.025-.003,0-.005,0-.007-.002-.003-.003-.002-.008,0-.01.024-.021.042-.044.052-.075.008-.023.011-.048.008-.073-.012-.012-.023-.027-.031-.043-.005-.01-.009-.02-.011-.031-.014.016-.034.025-.056.025-.019,0-.038-.007-.052-.021-.015-.015-.023-.036-.021-.057-.021.017-.038.041-.048.067-.008.021-.012.044-.011.067,0,.029-.023.053-.052.053-.032,0-.055-.028-.051-.06.006-.023,0-.048-.017-.065-.018-.018-.044-.024-.068-.017-.025.008-.051.001-.069-.017-.015-.015-.021-.033-.02-.05,0-.019.01-.037.025-.052.022-.022.051-.033.081-.033s.058.011.08.033c.009.009.02.013.032.013.011,0,.023-.005.032-.013.011-.011.015-.025.013-.039,0-.004.002-.008.006-.008.004,0,.008.002.008.006.003.02-.003.039-.017.053-.012.011-.027.017-.042.017-.015,0-.031-.006-.042-.017-.019-.019-.045-.029-.07-.029-.025,0-.051.01-.07.029-.012.012-.02.028-.02.042,0,.014.004.028.016.04.014.014.035.02.055.014.029-.009.061-.002.082.02.02.021.028.05.021.078-.003.022.015.042.037.042.021,0,.037-.017.037-.038-.001-.024.003-.049.011-.072.013-.035.037-.065.069-.085.003-.002.008-.001.01.002.001.002.001.004,0,.006-.008.021-.002.045.014.061.012.011.027.017.042.017.022,0,.043-.013.053-.033.002-.004.006-.005.01-.003.002.001.004.003.004.006.002.015.006.03.013.044.008.016.017.028.03.041.001.001.002.003.002.004.003.027,0,.055-.009.081-.007.022-.02.043-.036.061.014-.005.028-.01.042-.017.021-.011.041-.024.06-.04.023-.023.053-.035.084-.035.008,0,.016,0,.025.003-.023-.02-.046-.041-.069-.062-.118-.106-.23-.217-.338-.332l-.49.126h0ZM7.491,6.868l-.506.13c-.006,0-.008.008-.004.013.132.117.274.225.424.32.141.09.288.167.44.23.1.041.211.075.318.086.04.004.09.006.129-.008.005-.002.015-.006.016-.012,0-.007-.003-.016-.009-.025-.009-.014-.021-.03-.027-.035-.025-.028-.055-.052-.084-.075-.12-.09-.237-.186-.349-.288-.118-.107-.232-.219-.34-.334-.002-.002-.004-.003-.007-.002Z" fill="#fff" fill-rule="evenodd" />
          <path d="M4.33,4.447c.029.035.058.07.088.106.029.035.059.07.088.105.003-.027.004-.056.004-.085v-.113c-.021-.016-.039-.037-.051-.063-.003.003-.007.006-.01.009-.033.027-.074.042-.118.042h0Z" fill="#fff" fill-rule="evenodd" />
          <path d="M3.961,3.983l.027.035.042.054h.027c-.023-.039-.056-.07-.096-.089Z" fill="#fff" fill-rule="evenodd" />
          <path d="M4.51,3.874c-.02-.026-.043-.056-.068-.088-.022-.029-.044-.058-.065-.086l-.404.179c.032.007.063.018.092.032.054.027.1.066.128.118.037-.037.085-.06.138-.06.044,0,.084.016.118.042.003.003.007.006.01.009.013-.026.03-.047.051-.063v-.084Z" fill="#fff" fill-rule="evenodd" />
          <path d="M5.61,5.157s0,0,0-.001c.001-.004.002-.008.003-.012l-.016.013.01.008.002-.007Z" fill="#fff" fill-rule="evenodd" />
          <path d="M5.763,5.627s.001.008-.002.01c-.003.002-.008.002-.01-.002-.006-.008-.01-.017-.013-.026-.027.013-.056.017-.085.013-.031-.004-.061-.019-.084-.042-.031-.031-.047-.074-.043-.119.001-.018,0-.036-.006-.053-.032.052-.069.101-.111.146-.014.015-.029.03-.044.044.237.242.481.477.73.704.252.229.509.451.772.664l.182-.047c-.024-.022-.036-.056-.037-.088,0-.018.002-.036.007-.054-.032.029-.071.046-.108.05-.04.004-.08-.007-.108-.035-.025-.026-.037-.061-.036-.098.001-.037.016-.076.043-.109.003-.003.007-.003.01,0,.003.003.003.007,0,.01-.025.031-.039.067-.04.101-.001.033.009.064.032.087.025.025.06.035.096.031.056-.006.107-.043.136-.09.008-.014.014-.027.018-.042.001-.004.005-.006.009-.005.004,0,.006.005.005.009-.005.019-.014.037-.025.053-.019.029-.028.062-.027.092,0,.033.014.064.04.085l.342-.088c-.314-.253-.62-.517-.918-.792-.298-.276-.588-.564-.868-.863-.021.078-.052.152-.092.22.009.022.013.047.011.071-.004.04.01.079.038.107.022.022.048.034.076.038.027.004.055,0,.079-.013,0-.002,0-.004,0-.006-.001-.017.001-.034.009-.049.002-.004.006-.005.01-.003.004.002.005.006.003.01-.006.013-.009.028-.008.042.001.014.006.028.015.039h0ZM6.564,6.46c.005-.024.016-.046.034-.064.005-.005.011-.01.017-.014.003-.002.008-.001.01.002.002.003.002.008-.002.01-.005.004-.01.008-.015.013-.021.021-.032.049-.032.077s.011.056.032.078c.021.021.049.032.078.032.036,0,.062-.015.085-.041.022-.022.057-.023.08-.002.011.011.018.024.019.039,0,.004-.003.007-.007.008s-.007-.003-.008-.006c-.001-.012-.006-.021-.014-.029-.017-.016-.044-.015-.06.001-.027.028-.055.045-.095.045-.032,0-.064-.012-.088-.037-.021-.022-.034-.049-.036-.078l-.002.002c-.012.013-.029.019-.046.019-.017,0-.033-.006-.046-.019-.008-.008-.014-.019-.017-.03-.001-.004.001-.008.005-.009.004-.001.008.001.009.005.002.009.007.017.013.024.01.01.023.014.036.014.013,0,.026-.005.035-.014.007-.007.012-.016.014-.025h0ZM5.975,5.727c-.038-.038-.086-.06-.136-.065-.05-.005-.102.006-.146.034-.003.002-.008.001-.01-.002-.002-.003-.001-.008.002-.01.047-.03.102-.043.156-.037.052.006.104.029.144.069.02.02.037.044.048.07.007-.001.014-.002.021-.002.028-.001.056.002.082.011.004.001.006.005.005.009-.001.004-.005.006-.009.005-.025-.008-.052-.012-.078-.011-.026.001-.052.007-.076.017-.004.001-.008,0-.01-.004-.001-.004,0-.008.004-.009.015-.006.03-.011.046-.013-.011-.023-.025-.044-.044-.062h0ZM6.151,5.977c-.025-.001-.05-.012-.068-.03-.017-.018-.028-.041-.03-.065-.014.009-.03.015-.046.019-.021.005-.042.005-.063.001-.004,0-.006-.005-.006-.009,0-.004.004-.006.008-.006.019.004.039.003.057-.001.019-.005.036-.012.052-.024.001-.001.003-.002.005-.001.004,0,.007.003.007.007-.001.025.008.05.026.068.016.016.037.025.059.026.021,0,.042.008.057.024.016.016.024.037.024.058s-.008.041-.024.057c-.006.006-.012.011-.019.014-.006.004-.01.01-.01.017,0,.011.009.02.02.02.005,0,.01-.002.014-.006.003-.003.007-.003.01,0,.003.003.003.007,0,.01-.007.007-.016.01-.024.01-.019,0-.034-.015-.034-.035,0-.013.006-.024.018-.03.006-.003.011-.007.016-.012.013-.013.019-.03.019-.047s-.006-.034-.02-.047c-.012-.013-.029-.02-.048-.02h0ZM6.236,6.171c.035-.024.077-.035.118-.031.041.004.08.021.111.052.031.031.048.07.052.11.003.041-.007.083-.032.118-.002.003-.007.004-.01.002-.003-.002-.004-.007-.002-.01.023-.032.032-.071.029-.109-.003-.037-.019-.073-.047-.102-.028-.028-.064-.044-.101-.047-.038-.003-.076.007-.108.029-.003.002-.008.001-.01-.002-.002-.003-.001-.008.002-.01Z" fill="#fff" fill-rule="evenodd" />
          <path d="M7.102,1.677l.19.087c.007-.018.014-.036.021-.054.033-.086.065-.175.086-.265.003-.015.016-.061,0-.07-.016-.009-.052.027-.064.037-.07.065-.132.14-.193.214-.014.017-.027.034-.04.051h0ZM7.288,1.533c.019,0,.035.016.035.035,0,.019-.016.035-.035.035s-.035-.016-.035-.035c0-.019.016-.035.035-.035h0ZM7.288,1.519c.027,0,.049.022.049.05s-.022.049-.049.049-.05-.022-.05-.049.022-.05.05-.05Z" fill="#fff" fill-rule="evenodd" />
          <path d="M6.082,3.193l.416.184c.037-.068.073-.136.109-.204.064-.12.128-.241.191-.363.124-.24.245-.484.358-.73.046-.1.09-.201.13-.302l-.194-.089c-.069.087-.135.177-.201.269-.162.227-.318.461-.469.696-.077.119-.153.238-.228.358-.038.06-.076.121-.113.182Z" fill="#fff" fill-rule="evenodd" />
          <path d="M6.491,3.39l-.417-.184c-.045.073-.089.147-.133.221-.05.087-.099.173-.147.261l.418.185c.057-.095.113-.19.169-.285.038-.065.074-.131.11-.197h0ZM6.149,3.528l-.021-.173.194.086-.172.087h0ZM6.135,3.535l-.169.086.148-.255.021.169h0ZM5.964,3.638l.173-.088.021.173-.194-.086h0ZM6.32,3.458l-.148.255-.021-.17.169-.085h0ZM6.164,3.742l-.221-.097s-.005-.006-.003-.01l.171-.294s.006-.005.009-.003l.22.097s.004.006.003.01l-.171.295s-.006.005-.009.003h0ZM5.857,3.668l.235-.405.336.149-.235.405-.336-.148h0ZM6.194,3.832l-.351-.155s-.005-.006-.003-.01l.243-.417s.006-.005.009-.003l.35.155s.005.007.003.01l-.242.418s-.006.005-.009.003Z" fill="#fff" fill-rule="evenodd" />
          <path d="M5.929,3.42c.081-.141.168-.278.254-.416.075-.12.151-.239.228-.359.152-.235.307-.469.47-.697.081-.113.164-.225.251-.332.06-.075.123-.15.194-.215.017-.016.055-.054.081-.039.025.014.012.063.007.086-.021.091-.053.18-.087.267-.048.124-.101.248-.157.371-.112.246-.234.49-.358.73-.063.121-.126.243-.191.364-.074.139-.148.278-.227.414-.054.093-.108.186-.164.278.014-.002.028-.003.043-.004.004,0,.009,0,.014,0,.05-.083.099-.166.147-.25.079-.137.568-1.025.846-1.667.151-.348.24-.622.17-.663-.071-.041-.271.182-.505.496-.431.58-.974,1.473-1.055,1.613-.051.088-.101.177-.151.267l.042.019c.048-.088.098-.175.148-.262Z" fill="#fff" fill-rule="evenodd" />
          <path d="M1.948,7.455c-.032.023-.084.066-.115.111-.019.028-.029.056-.019.081.016.039.082.054.175.047.095-.007.219-.038.347-.091.168-.069.333-.158.491-.262.161-.106.315-.229.459-.362l-.633-.163c-.111.12-.227.234-.344.341-.119.108-.24.208-.36.299h0ZM2.216,7.319c.02-.02.046-.031.074-.031.027,0,.054.011.074.031.02.017.041.031.063.043.023.012.047.02.072.025.003,0,.005,0,.007-.002.003-.003.002-.008,0-.01-.024-.021-.042-.044-.053-.075-.008-.023-.011-.048-.008-.073.013-.012.023-.027.031-.043.005-.01.008-.02.011-.031.014.016.034.025.056.025.019,0,.037-.007.052-.021.015-.015.023-.036.021-.057.021.017.038.041.048.067.008.021.012.044.01.067,0,.029.023.053.052.053.032,0,.055-.028.051-.06-.007-.023,0-.048.017-.065.018-.018.044-.024.068-.017.024.008.051.001.069-.017.015-.015.021-.033.02-.05,0-.019-.01-.037-.025-.052-.022-.022-.052-.033-.081-.033-.029,0-.058.011-.08.033-.009.009-.02.013-.032.013-.011,0-.023-.005-.032-.013-.01-.011-.015-.025-.013-.039,0-.004-.002-.008-.006-.008-.004,0-.008.002-.008.006-.003.02.003.039.017.053.012.011.027.017.042.017.015,0,.031-.006.042-.017.02-.019.045-.029.07-.029.026,0,.051.01.07.029.012.012.02.028.021.042,0,.014-.004.028-.016.04-.014.014-.035.02-.055.014-.029-.009-.061-.002-.082.02-.02.021-.029.05-.021.078.003.022-.014.042-.037.042-.021,0-.038-.017-.037-.038.001-.024-.003-.049-.011-.072-.013-.035-.037-.065-.069-.085-.003-.002-.008-.001-.01.002-.001.002-.002.004,0,.006.008.021.002.045-.014.061-.011.011-.026.017-.041.017-.023,0-.043-.013-.053-.033-.002-.004-.006-.005-.01-.003-.002.001-.004.003-.004.006-.002.015-.006.03-.013.044-.008.016-.018.028-.03.041-.001.001-.002.003-.002.004-.003.027,0,.055.009.081.008.022.02.043.036.061-.014-.005-.028-.01-.041-.017-.021-.011-.041-.024-.06-.04-.023-.023-.053-.035-.084-.035-.008,0-.017,0-.025.003.023-.02.047-.041.069-.062.118-.106.23-.217.338-.332l.49.126c-.129.113-.267.218-.412.31-.14.089-.286.167-.438.229-.099.041-.208.075-.314.085-.034.003-.097.006-.128-.01.003-.013.023-.038.032-.047.024-.027.053-.051.082-.073.066-.049.131-.101.195-.154-.003.007-.004.014-.006.021-.004.023-.002.047.008.069.009.025.003.054-.016.073-.014.014-.031.02-.049.02-.018,0-.036-.007-.049-.02-.003-.003-.007-.003-.01,0-.003.003-.003.007,0,.01.016.016.038.025.059.025.021,0,.043-.008.059-.025.024-.023.031-.058.019-.089-.008-.019-.011-.04-.007-.061.004-.02.013-.039.029-.054h0ZM2.325,7.204c.118-.107.232-.219.34-.334.002-.002.004-.003.007-.002l.506.13c.006,0,.008.008.003.013-.132.117-.274.225-.424.32-.14.09-.288.167-.44.23-.1.041-.211.075-.319.086-.04.004-.09.006-.129-.008-.005-.002-.015-.006-.016-.012,0-.007.003-.016.009-.025.009-.014.021-.03.027-.035.025-.028.054-.052.084-.075.121-.09.237-.186.349-.288Z" fill="#fff" fill-rule="evenodd" />
          <path d="M5.653,4.663c.048-.056.096-.114.145-.173.05-.06.098-.119.146-.179h-.168c-.008.074-.058.126-.123.147v.205Z" fill="#fff" fill-rule="evenodd" />
          <path d="M6.108,4.105c.017-.022.036-.046.054-.069.013-.016.026-.033.039-.05-.01.005-.019.011-.028.018-.035.025-.062.061-.078.102h.014Z" fill="#fff" fill-rule="evenodd" />
          <path d="M5.786,3.7c-.021.028-.043.056-.065.086-.025.032-.047.061-.068.088v.084c.065.021.115.073.123.147h.17c.016-.079.063-.138.126-.177.035-.022.076-.038.118-.048l-.405-.179Z" fill="#fff" fill-rule="evenodd" />
          <path d="M3.255,6.813c.037.004.072-.006.097-.031.023-.023.033-.054.032-.087-.001-.034-.015-.07-.04-.101-.003-.003-.002-.007.001-.01.003-.003.008-.002.01,0,.027.034.042.073.043.109.001.037-.01.072-.036.098-.028.028-.067.04-.108.035-.037-.004-.076-.021-.108-.05.005.018.008.036.007.054-.001.033-.013.064-.036.087h-.001s.182.048.182.048c.219-.178.434-.361.646-.55.207-.185.41-.376.61-.571-.031,0-.062-.002-.094-.003l.003.014s-.002.008-.006.008c0,0-.001,0-.002,0-.032-.002-.064-.003-.095-.006-.032-.002-.064-.005-.095-.007-.003,0-.006-.003-.006-.006-.001-.006-.003-.012-.004-.018-.102-.008-.211-.02-.323-.035-.19.183-.384.362-.581.535-.194.171-.392.338-.593.499l.342.088s.002-.002.002-.002c.002-.001.003-.003.005-.005.021-.02.031-.048.032-.077,0-.03-.008-.063-.027-.092-.011-.016-.019-.034-.025-.053-.001-.004.001-.008.005-.009.004-.001.008,0,.009.005.004.014.01.028.018.042.029.047.08.084.136.09h0ZM4.012,5.977c-.018,0-.035.007-.048.02-.013.013-.019.03-.019.047s.006.034.019.047c.004.005.01.009.016.012.011.006.018.018.018.03,0,.019-.015.035-.034.035-.009,0-.018-.003-.025-.01-.003-.003-.003-.007,0-.01.003-.003.007-.003.01,0,.004.004.009.006.014.006.011,0,.02-.009.02-.02,0-.008-.004-.013-.01-.017-.007-.004-.013-.009-.019-.014-.016-.016-.023-.037-.023-.057s.008-.042.024-.058c.015-.015.035-.024.057-.024.022-.001.043-.011.058-.026.018-.018.027-.042.026-.068,0-.004.003-.007.007-.007.002,0,.003,0,.005.001.016.012.033.02.052.024.019.004.038.005.057.001.004,0,.008.002.008.006,0,.004-.002.008-.006.009-.021.004-.043.004-.063-.001-.016-.004-.031-.01-.046-.019-.002.024-.013.047-.03.065-.018.018-.042.029-.068.03h0ZM3.599,6.46c.002.01.007.018.014.025.01.01.023.014.036.014.013,0,.026-.005.035-.014.007-.007.011-.014.013-.024,0-.004.005-.006.009-.005.004,0,.006.005.005.009-.003.011-.009.022-.017.03-.013.013-.029.019-.046.019s-.033-.006-.046-.019v-.002c-.004.028-.016.056-.037.078-.024.024-.056.037-.088.037-.04,0-.069-.016-.096-.045-.016-.016-.043-.017-.06-.001-.008.008-.014.017-.014.029,0,.004-.004.007-.008.006s-.007-.004-.007-.008c.001-.016.008-.028.019-.039.023-.02.058-.02.08.002.023.025.05.041.085.041.028,0,.056-.011.078-.032.021-.022.032-.05.032-.078s-.01-.056-.032-.077c-.004-.005-.01-.009-.015-.013-.003-.002-.004-.007-.002-.01.003-.003.007-.004.01-.002.006.005.011.009.017.014.018.018.029.041.034.064h0ZM3.927,6.171s.004.007.002.01c-.002.003-.007.004-.01.002-.032-.022-.07-.032-.108-.029-.037.003-.073.019-.102.047-.028.029-.044.065-.047.102-.003.038.006.076.029.109.002.003.001.008-.002.01-.003.002-.008.001-.01-.002-.025-.035-.035-.077-.031-.118.004-.04.021-.08.052-.11.031-.031.07-.048.11-.052.041-.003.083.007.118.031Z" fill="#fff" fill-rule="evenodd" />
          <path d="M4.573,3.408c.027,0,.048.013.048.029,0,.017-.022.03-.048.03s-.048-.013-.048-.03c0-.016.021-.029.048-.029Z" fill="#fff" fill-rule="evenodd" />
          <path d="M4.776,3.427c.027,0,.048.013.048.03,0,.016-.022.029-.048.029-.026,0-.048-.013-.048-.029,0-.016.021-.03.048-.03Z" fill="#fff" fill-rule="evenodd" />
          <path d="M4.98,3.438c.026,0,.048.013.048.029,0,.016-.022.03-.048.03-.027,0-.048-.013-.048-.03,0-.016.021-.029.048-.029Z" fill="#fff" fill-rule="evenodd" />
          <path d="M5.388,3.427c.027,0,.048.013.048.03,0,.016-.022.029-.048.029-.026,0-.048-.013-.048-.029,0-.016.021-.03.048-.03Z" fill="#fff" fill-rule="evenodd" />
          <path d="M5.184,3.438c.027,0,.048.013.048.029,0,.016-.021.03-.048.03-.026,0-.048-.013-.048-.03,0-.016.022-.029.048-.029Z" fill="#fff" fill-rule="evenodd" />
          <path d="M5.59,3.408c.026,0,.048.013.048.029,0,.017-.021.03-.048.03-.027,0-.048-.013-.048-.03,0-.016.022-.029.048-.029Z" fill="#fff" fill-rule="evenodd" />
          <path d="M4.525,3.508c.084.012.173.022.266.028.093.006.19.01.29.01s.197-.003.29-.01c.093-.006.182-.016.266-.028v-.042c-.011.01-.029.016-.048.016-.034,0-.063-.02-.063-.044,0-.024.028-.044.063-.044.019,0,.037.006.048.016v-.056c-.083.012-.172.021-.265.028-.093.006-.191.01-.291.01s-.198-.003-.291-.01c-.093-.006-.182-.016-.266-.028v.056c.012-.01.029-.016.048-.016.035,0,.063.02.063.044,0,.024-.028.044-.063.044-.019,0-.037-.006-.048-.016v.042h0ZM5.388,3.413c.034,0,.063.02.063.044,0,.024-.028.044-.063.044s-.062-.019-.062-.044c0-.024.028-.044.062-.044h0ZM4.776,3.413c.034,0,.063.02.063.044,0,.024-.028.044-.063.044s-.062-.019-.062-.044c0-.024.028-.044.062-.044h0ZM4.98,3.423c.034,0,.062.02.062.044,0,.024-.028.044-.062.044-.035,0-.063-.02-.063-.044,0-.024.028-.044.063-.044h0ZM5.184,3.423c.035,0,.063.02.063.044,0,.024-.028.044-.063.044s-.062-.02-.062-.044c0-.024.028-.044.062-.044Z" fill="#fff" fill-rule="evenodd" />
          <path d="M4.525,3.675c.084.012.173.022.266.028.093.007.19.01.29.01s.197-.003.29-.01c.093-.006.182-.016.266-.028v-.153c-.083.012-.172.021-.265.028-.093.007-.191.01-.291.01s-.198-.003-.291-.01c-.093-.006-.182-.016-.266-.028v.153Z" fill="#fff" fill-rule="evenodd" />
          <path d="M4.525,3.835c.084.012.173.022.266.028.093.006.19.01.29.01s.197-.003.29-.01c.093-.006.182-.016.266-.028v-.145c-.083.012-.172.022-.265.028-.093.006-.191.01-.291.01s-.198-.003-.291-.01c-.093-.006-.182-.016-.266-.028v.145Z" fill="#fff" fill-rule="evenodd" />
          <path d="M4.615,3.919c-.008-.009-.024-.016-.042-.016-.027,0-.048.013-.048.029,0,.004.001.008.004.012.013-.008.027-.014.042-.018.014-.004.029-.007.044-.008Z" fill="#fff" fill-rule="evenodd" />
          <path d="M4.781,3.982c.024-.002.043-.014.043-.029,0-.016-.022-.029-.048-.029-.021,0-.038.008-.045.019.011.006.021.012.031.02.007.006.014.012.02.019Z" fill="#fff" fill-rule="evenodd" />
          <path d="M5.628,3.952c.007-.005.01-.011.01-.018,0-.016-.021-.029-.048-.029-.027,0-.048.013-.048.029,0,.006.003.012.009.017.019-.003.039-.003.058-.001.007,0,.013.002.019.003Z" fill="#fff" fill-rule="evenodd" />
          <path d="M5.59,3.89c.019,0,.037.006.048.016v-.056c-.083.012-.172.022-.265.028-.093.007-.191.01-.291.01s-.198-.003-.291-.01c-.093-.006-.182-.016-.266-.028v.056c.012-.01.029-.016.048-.016.027,0,.05.012.059.029.013,0,.026.001.039.003.016.003.032.008.047.015.009-.016.032-.028.058-.028.034,0,.063.02.063.044,0,.02-.02.038-.046.043.008.011.015.024.02.037.043.003.087.005.132.007.045.001.091.002.138.002.06,0,.118-.001.175-.003.057-.003.113-.006.168-.011.025-.038.065-.063.109-.074-.004-.006-.007-.013-.007-.02,0-.024.028-.044.063-.044h0ZM5.388,3.909c.034,0,.063.02.063.044s-.028.044-.063.044-.062-.02-.062-.044.028-.044.062-.044h0ZM4.98,3.919c.034,0,.062.02.062.044,0,.024-.028.044-.062.044-.035,0-.063-.02-.063-.044,0-.024.028-.044.063-.044h0ZM5.184,3.919c.035,0,.063.02.063.044,0,.024-.028.044-.063.044s-.062-.02-.062-.044c0-.024.028-.044.062-.044Z" fill="#fff" fill-rule="evenodd" />
          <path d="M5.388,3.924c.027,0,.048.013.048.029,0,.016-.022.03-.048.03-.026,0-.048-.013-.048-.03,0-.016.021-.029.048-.029Z" fill="#fff" fill-rule="evenodd" />
          <path d="M5.184,3.934c.027,0,.048.013.048.03,0,.016-.021.029-.048.029-.026,0-.048-.013-.048-.029,0-.016.022-.03.048-.03Z" fill="#fff" fill-rule="evenodd" />
          <path d="M4.98,3.934c.026,0,.048.013.048.03,0,.016-.022.029-.048.029-.027,0-.048-.013-.048-.029,0-.016.021-.03.048-.03Z" fill="#fff" fill-rule="evenodd" />
          <path d="M5.638,3.256h-1.113v.083c.084.012.173.022.266.028.093.006.19.01.29.01s.197-.003.29-.01c.093-.006.182-.016.266-.028v-.083Z" fill="#fff" fill-rule="evenodd" />
          <path d="M4.769,3.058c.06,0,.109.041.109.092,0,.051-.049.092-.109.092s-.109-.041-.109-.092c0-.05.049-.092.109-.092Z" fill="#fff" fill-rule="evenodd" />
          <path d="M5.082,2.995c.081,0,.146.055.146.123s-.065.123-.146.123-.146-.055-.146-.123.065-.123.146-.123Z" fill="#fff" fill-rule="evenodd" />
          <path d="M5.394,3.058c.061,0,.109.041.109.092,0,.051-.049.092-.109.092-.06,0-.109-.041-.109-.092,0-.05.049-.092.109-.092Z" fill="#fff" fill-rule="evenodd" />
          <path d="M4.807,2.887l.147.147c.029-.033.076-.054.128-.054.052,0,.098.021.128.054l.147-.147h-.55Z" fill="#fff" fill-rule="evenodd" />
          <path d="M5.369,2.895l-.151.151c.015.021.024.046.024.072,0,.054-.036.1-.088.123h.178c-.037-.019-.062-.053-.062-.092,0-.059.056-.106.124-.106s.124.048.124.106c0,.039-.025.073-.061.092h.181v-.151h-.034c-.06,0-.115-.022-.158-.059-.039-.035-.067-.082-.077-.135Z" fill="#fff" fill-rule="evenodd" />
          <path d="M4.769,3.043c.068,0,.124.048.124.106,0,.039-.025.073-.061.092h.178c-.053-.023-.089-.069-.089-.123,0-.026.009-.051.024-.072l-.15-.151c-.01.053-.038.1-.077.135-.042.037-.097.059-.158.059h-.035v.151h.182c-.037-.019-.062-.053-.062-.092,0-.059.056-.106.124-.106Z" fill="#fff" fill-rule="evenodd" />
          <rect x="4.845" y="2.688" width=".473" height=".185" fill="#fff" />
          <rect x="4.891" y="2.489" width=".38" height=".185" fill="#fff" />
          <rect x="4.891" y="2.289" width=".38" height=".185" fill="#fff" />
          <rect x="4.938" y="2.021" width=".287" height=".253" fill="#fff" />
          <path d="M5.083,1.148c.059,0,.107.042.107.094s-.048.094-.107.094c-.059,0-.108-.042-.108-.094s.048-.094.108-.094Z" fill="#fff" fill-rule="evenodd" />
          <path d="M4.618,1.487c.06,0,.108.042.108.094,0,.052-.048.094-.108.094s-.108-.042-.108-.094c0-.052.048-.094.108-.094Z" fill="#fff" fill-rule="evenodd" />
          <path d="M5.083,1.487c.059,0,.108.042.108.094,0,.052-.048.094-.108.094-.059,0-.108-.042-.108-.094,0-.052.048-.094.108-.094Z" fill="#fff" fill-rule="evenodd" />
          <path d="M5.25,1.878c-.052.014-.108.021-.167.021-.06,0-.117-.008-.17-.022v.13h.337v-.129Z" fill="#fff" fill-rule="evenodd" />
          <path d="M4.732,1.771l.09-.145c.01-.015.013-.038.012-.061-.001-.026-.008-.052-.019-.069l-.082-.133c-.04.033-.07.071-.088.113.055.011.096.054.096.106,0,.048-.035.089-.083.103.018.032.044.061.075.087Z" fill="#fff" fill-rule="evenodd" />
          <path d="M4.796,1.814l.091-.148c.017-.027.025-.065.024-.103-.001-.039-.012-.078-.031-.109l-.084-.136c-.012.007-.024.014-.035.021-.006.004-.012.008-.018.013l.084.134c.012.019.02.048.021.076.001.026-.003.052-.014.07l-.091.146c.016.012.033.024.052.034Z" fill="#fff" fill-rule="evenodd" />
          <path d="M5.358,1.821l-.092-.147c-.018-.03-.027-.07-.025-.111.001-.041.012-.083.033-.116l.084-.135c-.046-.024-.098-.042-.154-.052-.009.052-.06.092-.12.092s-.111-.04-.121-.092c-.056.011-.108.029-.154.052l.084.135c.02.033.031.075.033.116.001.041-.007.082-.025.111l-.092.147s.008.004.012.006c.074.036.165.057.262.057.097,0,.188-.021.262-.057.005-.002.009-.004.013-.006h0ZM5.083,1.472c.067,0,.122.049.122.109,0,.06-.055.109-.122.109s-.122-.049-.122-.109.055-.109.122-.109Z" fill="#fff" fill-rule="evenodd" />
          <path d="M5.423,1.78l-.091-.146c-.011-.018-.015-.044-.014-.07.001-.028.009-.057.021-.076l.084-.134c-.006-.004-.012-.008-.018-.013-.011-.008-.022-.015-.034-.021l-.084.136c-.019.031-.029.07-.031.109-.001.038.006.076.023.103l.092.148c.019-.01.036-.022.052-.034Z" fill="#fff" fill-rule="evenodd" />
          <path d="M5.545,1.487c.06,0,.108.042.108.094,0,.052-.048.094-.108.094s-.108-.042-.108-.094c0-.052.048-.094.108-.094Z" fill="#fff" fill-rule="evenodd" />
          <path d="M5.509,1.685c-.05-.014-.086-.055-.086-.104,0-.053.042-.097.099-.107-.018-.042-.048-.08-.088-.112l-.083.133c-.011.017-.018.043-.019.069-.001.023.002.046.012.061l.09.145c.031-.025.056-.054.074-.086Z" fill="#fff" fill-rule="evenodd" />
          <rect x="6.458" y="4.082" width=".469" height=".289" fill="#fff" />
        </g>
      </g>
    </g>
  </g>
</g></svg>