<?xml version="1.0" encoding="UTF-8"?>
<svg id="Layer_2" data-name="Layer 2" xmlns="http://www.w3.org/2000/svg" viewBox="0 0 119.037 79.168">
  <g id="Layer_1-2" data-name="Layer 1">
    <g>
      <rect width="119.037" height="79.168" fill="#fff"/>
      <rect x="29.964" width="89.073" height="79.168" fill="#00401f"/>
      <path d="M80.325,56.121c-11.986,0-21.703-9.983-21.703-22.301,0-6.953,3.096-13.158,7.947-17.249-9.413,3.303-16.17,12.194-16.17,22.674,0,13.29,10.849,24.066,24.231,24.066,10.383,0,19.212-6.497,22.663-15.607-3.976,5.127-10.092,8.417-16.969,8.417Z" fill="#fff"/>
      <polygon points="83.656 22.839 87.365 26.344 91.418 24.4 89.517 28.397 92.289 32.397 87.488 31.939 84.687 35.788 84.362 31.041 79.617 29.754 83.656 27.721 83.656 22.839" fill="#fff"/>
    </g>
  </g>
</svg>