<?xml version="1.0" encoding="UTF-8"?>
<svg id="Layer_2" data-name="Layer 2" xmlns="http://www.w3.org/2000/svg" xmlns:xlink="http://www.w3.org/1999/xlink" viewBox="0 0 119.037 79.171">
  <defs>
    <clipPath id="clippath">
      <path d="M19.97,39.585c0,21.862,17.723,39.586,39.585,39.586s39.585-17.724,39.585-39.586S81.417,0,59.555,0,19.97,17.724,19.97,39.585Z" fill="none"/>
    </clipPath>
  </defs>
  <g id="Layer_1-2" data-name="Layer 1">
    <g clip-path="url(#clippath)">
      <g>
        <rect width="119.036" height="79.168" fill="#fff"/>
        <rect y="39.586" width="59.518" height="39.582" fill="#0068b3"/>
        <rect x="59.518" width="59.52" height="39.582" fill="#dc253a"/>
        <polygon points="29.76 10.975 31.867 16.937 38.358 17.072 33.586 20.825 34.487 26.412 29.76 23.775 25.031 26.412 25.936 20.825 21.253 17.21 27.43 16.937 29.76 10.975" fill="#0068b3"/>
        <polygon points="89.232 50.539 91.336 56.501 97.83 56.637 93.055 60.391 93.959 65.977 89.232 63.34 84.503 65.977 85.407 60.391 80.725 56.775 86.902 56.501 89.232 50.539" fill="#dc253a"/>
      </g>
    </g>
  </g>
</svg>