<svg xmlns="http://www.w3.org/2000/svg" id="Layer_2" data-name="Layer 2" viewBox="0 0 33.945 22.631">
  <defs><clipPath id="circleClip"><circle cx="16.9725" cy="11.3155" r="11.3155" /></clipPath></defs><g clip-path="url(#circleClip)"><g id="_&#209;&#235;&#238;&#233;_1" data-name="&#209;&#235;&#238;&#233; 1">
    <g>
      <g>
        <rect width="33.945" height="22.631" fill="red" />
        <polygon points="0 0 33.945 22.631 0 22.631 0 0" fill-rule="evenodd" />
      </g>
      <g>
        <polygon points="6.407 8.367 7.565 8.367 7.923 7.266 8.28 8.367 9.438 8.367 8.501 9.046 8.859 10.148 7.923 9.465 6.986 10.148 7.344 9.046 6.407 8.367" fill="#fff" fill-rule="evenodd" />
        <polygon points="2.905 12.861 4.063 12.861 4.421 11.76 4.778 12.861 5.936 12.861 4.999 13.539 5.357 14.642 4.421 13.959 3.484 14.642 3.842 13.539 2.905 12.861" fill="#fff" fill-rule="evenodd" />
        <polygon points="9.942 12.529 11.1 12.529 11.458 11.428 11.816 12.529 12.973 12.529 12.036 13.208 12.394 14.31 11.458 13.627 10.521 14.31 10.879 13.208 9.942 12.529" fill="#fff" fill-rule="evenodd" />
        <polygon points="6.408 18.936 7.565 18.936 7.923 17.835 8.281 18.936 9.438 18.936 8.501 19.615 8.859 20.717 7.923 20.034 6.987 20.717 7.345 19.615 6.408 18.936" fill="#fff" fill-rule="evenodd" />
        <polygon points="8.691 15.914 9.3 15.914 9.488 15.335 9.675 15.914 10.284 15.914 9.791 16.271 9.98 16.85 9.488 16.491 8.995 16.85 9.184 16.271 8.691 15.914" fill="#fff" fill-rule="evenodd" />
      </g>
      <path d="M19.289,6.442c.336-.304.838-.408,1.282-.218l.529.227c.156.067.336-.005.403-.161.067-.156-.005-.336-.161-.403l-.595-.255c-.074-.032-.128-.077-.176-.137-.047-.059-.104-.104-.173-.133l-.672-.288c-.016-.007-.024-.026-.017-.042.006-.014.019-.02.033-.019l.65.035c.126.005.249-.026.357-.087.174-.099.391-.118.588-.033.075.033.137.083.182.145.09.114.196.215.319.299l.247.172c.139.097.33.063.427-.077.112-.162.107-.528.072-.697-.099-.469-.027-.957.195-1.378.378-.742,1.001-1.289,1.725-1.586l-.341.795c.101-.021.203-.035.307-.041l-.187.437c.121-.016.243-.022.367-.016l-.332.542c.128-.002.257.007.385.03l-.395.448c.095.054.184.115.267.182l-.601.68c.607-.38,1.383-.467,2.091-.164.103.044.202.096.295.153l-.489.209c.498.229.917.561,1.244.96l-.287.032c.446.381.783.864.989,1.398l-.243-.104c.317.444.527.957.612,1.495l-.713-.584c.114.225.203.462.267.706l-.525-.428c.486.517.747,1.213.717,1.924.515.774.642,1.784.249,2.702-.364.85-1.205,1.339-2.107.952-.172-.074-.324-.175-.453-.296.074.05.153.093.238.129.845.362,1.632-.096,1.973-.892.292-.681.278-1.417.02-2.054-.034.131-.077.26-.132.388-.352.822-1.204,1.648-2.171,1.234-.266-.114-.476-.305-.615-.535.107.107.235.195.383.258.89.382,1.676-.379,2-1.136.114-.265.176-.539.193-.812-.021-.028-.043-.056-.065-.083-.494-.626-1.068-1.198-1.715-1.696,0,.079-.002.158-.004.238l-.981-.536c.1.266.191.536.273.808l-.412-.177.991,1.275c-.154-.048-.306-.102-.457-.163l.815,1.154c-.136-.047-.272-.099-.406-.157-.046-.02-.091-.04-.136-.06l.344.594c-.056-.022-.112-.045-.168-.069-.863-.37-1.596-.917-2.174-1.581l.01.434c-.255-.188-.492-.393-.711-.614l.013.521c-.872-.577-1.654-1.416-1.534-2.402-.187.291-.4.559-.633.803l.037-.647-.719.635c.007-.186.026-.373.057-.56l-.691.61c.022-.198.058-.395.106-.592l-.488.43c.019-.156.046-.313.082-.468l-.627.459c.034-.159.077-.318.13-.475l-.547.583c.055-.201.124-.401.208-.598.276-.644.684-1.191,1.179-1.623h0ZM26.586,8.614l-.859-.344c.656.479,1.245,1.027,1.762,1.629-.09-.607-.406-1.169-.899-1.558,0,.091-.001.182-.004.273Z" fill="#fed700" fill-rule="evenodd" />
    </g>
  </g>
</g></svg>