<?xml version="1.0" encoding="UTF-8"?>
<svg id="Layer_2" data-name="Layer 2" xmlns="http://www.w3.org/2000/svg" viewBox="0 0 33.945 22.63">
  <g id="_Ñëîé_1" data-name="Ñëîé 1">
    <g>
      <g>
        <rect width="33.945" height="7.543" fill="red"/>
        <rect y="15.086" width="33.945" height="7.544" fill="#039"/>
        <rect y="7.543" width="33.945" height="7.543" fill="#fff"/>
      </g>
      <g>
        <path d="M16.973,8.449c1.583,0,2.866,1.283,2.866,2.866s-1.283,2.866-2.866,2.866-2.866-1.283-2.866-2.866,1.283-2.866,2.866-2.866h0ZM16.973,8.492c-1.559,0-2.824,1.264-2.824,2.824s1.264,2.824,2.824,2.824,2.823-1.264,2.823-2.824-1.264-2.824-2.823-2.824h0ZM16.973,9.212c-1.161,0-2.103.941-2.103,2.103s.941,2.103,2.103,2.103,2.103-.941,2.103-2.103-.941-2.103-2.103-2.103h0ZM16.973,9.255c-1.138,0-2.06.922-2.06,2.06s.922,2.06,2.06,2.06,2.06-.922,2.06-2.06-.922-2.06-2.06-2.06Z" fill-rule="evenodd"/>
        <path d="M16.973,7.951c1.858,0,3.364,1.506,3.364,3.364s-1.506,3.364-3.364,3.364-3.364-1.506-3.364-3.364,1.506-3.364,3.364-3.364h0ZM16.973,8.038c-1.81,0-3.277,1.467-3.277,3.277s1.467,3.277,3.277,3.277,3.277-1.467,3.277-3.277-1.467-3.277-3.277-3.277Z" fill-rule="evenodd"/>
        <path d="M16.288,11.072h.517l.16-.492s.006-.006.01-.005c.003,0,.004.003.005.005l.16.492h.517s.008.004.008.008c0,.003-.002.005-.004.007l-.419.303.16.493s0,.009-.005.01c-.003.001-.006,0-.008-.001l-.418-.305-.418.305s-.009.002-.012-.002c-.001-.002-.002-.005-.001-.007l.16-.493-.419-.303s-.004-.008-.002-.012c.002-.002.004-.003.007-.003Z" fill-rule="evenodd"/>
        <polygon points="16.811 11.089 16.313 11.089 16.716 11.381 16.719 11.39 16.565 11.864 16.968 11.571 16.978 11.57 17.381 11.864 17.226 11.39 17.23 11.381 17.632 11.089 17.135 11.089 17.127 11.083 16.973 10.61 16.819 11.083 16.811 11.089" fill="#fed700" fill-rule="evenodd"/>
        <g>
          <path d="M18.03,10.24c.052.016.1.042.142.074-.009-.019-.017-.038-.023-.058-.01-.032-.015-.066-.016-.1-.029-.003-.051-.028-.051-.058,0-.032.026-.058.058-.058s.058.026.058.058c0,.029-.021.052-.048.057,0,.033.006.065.015.096.006.02.014.04.023.059,0-.005,0-.01,0-.015,0-.078.033-.152.091-.204.003-.003.008-.002.012,0,.002.002.002.004.002.007,0,.062.022.121.063.167.05.057.078.129.078.205,0,.04-.008.079-.022.114-.013.034-.033.065-.056.091.057.044.104.1.137.165.004.009.008.017.012.026-.001-.038,0-.076.005-.113.004-.027.008-.053.015-.079-.026-.005-.046-.029-.046-.057,0-.032.026-.058.058-.058s.058.026.058.058c0,.03-.024.056-.054.058-.007.026-.012.052-.016.079-.005.039-.007.079-.005.119.012-.043.029-.083.05-.121.031-.054.07-.102.116-.143.003-.003.008-.003.011,0,.002.002.003.005.002.008-.009.042-.014.084-.014.128,0,.058.009.117.026.173.004.016.007.035.007.052,0,.036-.01.069-.026.098-.017.03-.042.055-.071.072-.032.022-.062.048-.088.077.014.04.025.082.032.125.002.012.004.024.005.037.005-.019.011-.038.018-.057.014-.037.033-.072.056-.104-.003-.007-.005-.015-.005-.024,0-.032.026-.058.058-.058s.058.026.058.058-.026.058-.058.058c-.017,0-.033-.007-.043-.019-.02.029-.037.061-.05.095-.008.022-.015.044-.02.068.008-.013.018-.025.028-.037.02-.024.044-.045.071-.063.004-.003.011,0,.012.005.007.023.012.047.016.072.005.036.007.072.004.109.017-.012.032-.026.046-.041.028-.029.05-.063.067-.101.002-.004.006-.006.01-.004.003.001.005.004.005.007.003.024.005.048.005.072,0,.111-.035.215-.094.3-.061.088-.147.156-.249.194-.03.012-.058.03-.081.052-.019.018-.035.039-.048.063.021-.007.042-.015.061-.026.028-.014.054-.032.078-.052.003-.003.008-.003.011,0,.002.002.002.004.002.006-.001.019-.004.037-.007.056.028-.02.059-.036.092-.047-.001-.005-.002-.009-.002-.014,0-.032.026-.058.058-.058s.058.026.058.058c0,.032-.026.058-.058.058-.021,0-.04-.012-.05-.029-.038.012-.073.032-.104.057-.01.039-.025.076-.045.11.006,0,.012-.002.018-.003.076-.011.149-.036.216-.074.004-.002.009,0,.011.003.001.002.001.005,0,.007-.048.117-.131.216-.235.285-.101.068-.222.107-.352.107-.034,0-.068-.003-.101-.008-.034.058-.075.112-.122.16.012-.005.025-.009.038-.013.027-.007.055-.011.084-.012.004-.028.028-.05.057-.05.032,0,.058.026.058.058s-.026.058-.058.058c-.029,0-.053-.021-.057-.05-.027,0-.054.005-.08.011-.021.006-.041.013-.061.023.043.009.083.025.119.047.044.026.082.061.113.101.003.004.002.009-.001.012-.002.001-.004.002-.006.002-.012-.001-.024-.002-.035-.002-.081,0-.16.026-.225.073-.069.051-.151.077-.236.077-.03,0-.061-.003-.091-.01.033.032.062.065.084.094.003.005.006.01.006.016,0,.027-.05.049-.112.049-.051,0-.094-.015-.107-.036-.041-.058-.089-.111-.143-.157-.037.03-.08.035-.126.023-.06-.016-.117-.039-.171-.067-.019-.01-.038-.021-.057-.032-.048.03-.093.065-.134.104-.042.039-.079.082-.112.129-.019.029-.076.036-.108.036-.061,0-.112-.022-.112-.049,0-.006.002-.01.004-.014.026-.039.067-.083.101-.115.03-.029.063-.056.097-.08-.013,0-.027,0-.04,0-.125,0-.249-.006-.371-.018-.01-.001-.02-.002-.03-.003.032.062.058.127.079.193.001.005-.001.009-.005.011-.003,0-.006,0-.008-.002-.117-.108-.254-.193-.402-.251-.003,0-.005-.003-.006-.005-.007-.02-.015-.041-.023-.062-.013-.034-.026-.069-.037-.103-.002-.005.003-.011.009-.011.044,0,.087.001.13.003-.081-.056-.166-.107-.253-.154l-.014-.008c0,.039-.004.078-.01.116-.006.043-.017.084-.03.126-.001.005-.006.007-.01.005-.003,0-.004-.003-.005-.006-.019-.072-.049-.14-.087-.202-.038-.063-.086-.121-.14-.171-.002-.002-.003-.005-.002-.008.015-.077.034-.154.055-.229-.041-.077-.092-.149-.151-.214-.06-.065-.107-.142-.14-.226-.031-.081-.048-.169-.048-.261,0-.041.003-.081.01-.121,0-.004.005-.007.009-.006.003,0,.006.003.006.006.025.083.064.159.115.226.029.039.062.074.098.107-.034-.089-.061-.182-.079-.278-.02-.104-.031-.211-.031-.321,0-.172.026-.342.078-.506.001-.005.006-.007.01-.005.002,0,.004.003.005.005.031.065.058.132.082.201.006-.115.03-.225.07-.328.047-.12.114-.23.198-.324.003-.003.008-.004.012,0,.001.001.003.003.003.005.004.033.007.067.009.101.001.023.002.045.002.068.05-.102.109-.199.179-.288.077-.099.165-.19.262-.269.003-.003.009-.002.011.001.002.002.002.004.002.006-.017.099-.044.194-.079.285.068-.046.148-.07.23-.07.085,0,.167-.021.238-.07.004-.002.009-.002.011.002.002.003.002.006,0,.008-.038.075-.101.136-.178.17-.113.05-.205.139-.259.251.063-.003.123-.014.179-.034.065-.023.125-.056.178-.097.004-.003.009-.002.011.001.002.003.002.006,0,.009-.078.133-.198.238-.341.297-.134.054-.255.132-.359.229.049-.032.104-.057.161-.073.062-.018.122-.045.176-.081.004-.003.009-.001.011.002.002.003.002.006,0,.009-.063.111-.147.21-.247.29-.087.068-.163.149-.223.242-.047.072-.085.15-.112.233.051-.083.117-.156.194-.216.045-.037.087-.078.123-.124.036-.045.068-.094.094-.147.002-.004.007-.006.011-.004.003.002.005.005.005.009-.009.077-.024.152-.046.224-.022.074-.051.144-.086.212-.048.09-.085.186-.11.288-.008.032-.014.064-.02.096.004-.016.009-.032.014-.048.031-.096.077-.185.135-.265.003-.004.008-.004.012-.002.003.002.004.005.003.008-.008.071-.012.142-.012.213,0,.208.033.409.094.596.012.037.025.073.039.108-.004-.025-.006-.05-.006-.076,0-.012,0-.024.001-.036,0-.005.004-.008.008-.008h.062s.005,0,.007.003c.06.07.13.132.207.184.076.051.159.092.249.12.004.001.006.006.005.01-.001.003-.004.005-.007.006-.027.002-.054.003-.081.003-.056,0-.112-.005-.167-.014.067.065.139.126.215.18.098.07.204.131.315.181.029-.016.057-.025.086-.028.029-.002.06.003.096.016.031-.019.066-.03.102-.03.049,0,.103.015.158.04.023-.026.048-.05.075-.073.007-.127.062-.242.149-.324.098-.094.229-.142.365-.133.004,0,.008.004.008.009,0,.002,0,.004-.003.005-.028.026-.051.057-.069.091-.017.033-.029.07-.034.109-.002.018-.005.035-.009.053.025-.014.048-.032.068-.052.023-.023.042-.049.057-.078-.014-.01-.022-.027-.022-.046,0-.032.026-.058.058-.058s.058.026.058.058-.026.058-.058.058c-.008,0-.015-.001-.022-.004-.016.03-.036.057-.059.081-.016.016-.033.029-.051.042.018-.002.036-.003.054-.004.069-.005.136-.018.201-.041,0-.047-.011-.093-.029-.135-.023-.048-.034-.102-.034-.155,0-.064.016-.126.048-.181.031-.054.045-.116.04-.178,0-.005.003-.008.008-.009.002,0,.005.001.006.003.037.039.067.085.088.136.007.016.012.034.017.051.005-.012.01-.025.014-.038.005-.018.008-.036.01-.054-.03-.002-.054-.027-.054-.058,0-.032.026-.058.058-.058s.058.026.058.058c0,.028-.019.051-.046.057-.002.02-.006.04-.011.06-.003.011-.007.021-.01.031.016-.011.033-.019.051-.025.029-.01.06-.014.091-.011.006,0,.009.007.006.012-.014.03-.023.062-.026.096.017-.006.033-.01.051-.015-.001-.087-.032-.17-.087-.238h0c-.053-.062-.086-.136-.093-.218-.003-.029-.003-.059.001-.089.004-.027.004-.055.002-.082-.003-.028-.009-.057-.018-.084-.001-.004,0-.009.005-.011.002,0,.004,0,.005,0,.043.016.083.037.12.064h0c.03.022.057.047.082.075-.002-.02-.006-.039-.012-.057-.008-.024-.019-.046-.033-.067-.008.005-.018.007-.027.007-.032,0-.058-.026-.058-.058,0-.032.026-.058.058-.058s.058.026.058.058c0,.016-.007.031-.018.041.015.022.027.046.035.072.005.015.008.031.011.047.031-.079.073-.151.126-.215-.031-.011-.063-.015-.095-.014-.07.002-.134-.02-.181-.06-.046-.04-.078-.097-.085-.166-.004-.052-.024-.102-.057-.142-.003-.003-.002-.008.001-.011.002-.001.004-.002.006-.002.042.003.082.014.12.032.031.014.06.034.085.056-.002-.033,0-.067.006-.1-.009-.008-.019-.015-.029-.021-.009-.005-.019-.009-.029-.013-.007.024-.029.041-.055.041-.032,0-.058-.026-.058-.058s.026-.058.058-.058.058.026.058.058h0c.012.005.024.01.034.016.009.005.017.011.025.017.002-.009.005-.018.008-.026.009-.028.012-.058.011-.087-.027-.01-.056-.013-.084-.007-.02.005-.041.007-.062.007-.101,0-.195-.053-.248-.14-.027-.045-.066-.083-.113-.106-.004-.002-.006-.007-.004-.011.001-.002.002-.003.004-.004.039-.019.082-.029.126-.029.03,0,.06.005.089.014-.013-.015-.028-.029-.045-.041-.021-.015-.045-.026-.071-.034-.003.028-.028.051-.057.051-.032,0-.058-.026-.058-.058,0-.032.026-.058.058-.058.029,0,.053.021.057.048.029.008.056.021.08.038.016.012.032.025.045.04-.001-.011-.003-.022-.005-.033-.006-.027-.02-.052-.04-.072-.047-.047-.124-.055-.184-.032-.03.013-.063.02-.095.02-.089,0-.169-.048-.213-.125-.015-.027-.038-.048-.067-.061-.006-.002-.006-.01-.002-.014.042-.035.096-.054.151-.054.008,0,.016,0,.023.001-.002-.004-.004-.008-.006-.013h0c-.011-.027-.026-.053-.044-.077-.018-.023-.039-.044-.062-.062-.003-.002-.004-.004-.004-.008,0-.005.004-.008.009-.007.075.006.146.027.21.058-.007-.045-.003-.091.01-.135.009-.029.023-.056.041-.081.003-.004.008-.005.011-.002.002.002.004.004.003.007-.002.047.023.092.064.114.052.027.096.068.127.118.038.063.053.136.044.209-.004.031-.003.062.003.092Z" fill-rule="evenodd"/>
          <path d="M17.505,13.027c.053,0,.095.015.095.033,0,.018-.043.033-.095.033s-.095-.015-.095-.033c0-.018.043-.033.095-.033Z" fill="#007c29" fill-rule="evenodd"/>
          <path d="M16.824,12.767c.044.035.091.066.141.092.053.028.109.049.168.065.039.01.076.006.109-.018-.008-.006-.015-.012-.023-.018-.069-.053-.146-.095-.229-.125-.036-.014-.066-.019-.094-.017-.024.002-.048.009-.072.022Z" fill="#007c29" fill-rule="evenodd"/>
          <path d="M15.935,12.794c.115.052.221.121.316.205-.02-.059-.044-.116-.073-.17-.082-.009-.162-.02-.243-.034Z" fill="#007c29" fill-rule="evenodd"/>
          <path d="M16.547,13.027c.053,0,.095.015.095.033,0,.018-.043.033-.095.033s-.095-.015-.095-.033c0-.018.043-.033.095-.033Z" fill="#007c29" fill-rule="evenodd"/>
          <path d="M16.547,13.01c.051,0,.094.015.107.036.03-.041.064-.079.101-.114.035-.033.073-.064.113-.091-.067.005-.134.008-.201.009-.041.028-.08.058-.115.092-.025.024-.049.05-.072.077.019-.006.042-.01.067-.01Z" fill="#007c29" fill-rule="evenodd"/>
          <path d="M15.937,12.722s-.008-.004-.008-.008c0-.005.004-.008.008-.008.154.002.307.009.457.022.141.012.281.029.42.052-.003-.002-.006-.005-.009-.007-.16-.051-.324-.09-.493-.116-.162-.025-.329-.039-.498-.04.01.03.021.061.033.092.007.019.015.039.022.058.119.023.239.041.36.052.121.012.244.018.369.018.093,0,.185-.003.278-.01-.012-.008-.023-.016-.035-.024-.148-.024-.297-.043-.449-.056-.151-.013-.303-.021-.456-.022Z" fill="#007c29" fill-rule="evenodd"/>
          <path d="M16.217,12.331c.014.015.028.029.042.044.062.011.124.017.187.017.013,0,.026,0,.039,0-.076-.028-.147-.065-.213-.109-.066-.044-.127-.096-.181-.154.013.03.027.059.044.088.024.041.052.08.083.115Z" fill="#007c29" fill-rule="evenodd"/>
          <path d="M16.389,12.652c-.065-.049-.125-.104-.179-.164-.062-.069-.117-.145-.163-.226-.002-.004,0-.009.003-.011.004-.002.009,0,.011.003.045.08.099.155.16.223.061.068.13.129.204.182.096.019.191.041.285.068-.079-.041-.155-.087-.227-.139-.101-.073-.195-.155-.279-.246-.032-.036-.061-.076-.085-.118-.023-.04-.043-.082-.059-.126h-.049c0,.009,0,.018,0,.028,0,.075.017.147.05.214.05.101.108.198.174.289.026.004.053.007.079.012.025.004.05.008.074.012Z" fill="#007c29" fill-rule="evenodd"/>
          <path d="M15.65,12.432c-.073-.038-.148-.074-.224-.106.042.044.08.092.112.145.034.056.061.116.081.18.009-.032.016-.065.022-.097.006-.04.009-.081.01-.122Z" fill="#007c29" fill-rule="evenodd"/>
          <path d="M16.208,12.625c-.109-.108-.226-.208-.351-.298-.128-.092-.264-.173-.406-.244-.02.071-.037.143-.052.215.099.04.196.085.289.136.095.052.188.108.276.17.048.003.095.006.143.01-.074-.074-.155-.141-.242-.199-.093-.061-.193-.113-.298-.154-.004-.002-.006-.006-.005-.011.002-.004.007-.006.011-.005.106.041.207.093.301.156.094.062.181.134.258.215.025.003.051.005.076.008Z" fill="#007c29" fill-rule="evenodd"/>
          <path d="M15.42,11.865c-.043-.041-.082-.086-.116-.134-.035-.048-.065-.098-.091-.152-.002-.004,0-.009.004-.011.004-.002.009,0,.011.004.025.053.056.103.09.149.034.047.072.091.114.132.098.092.178.204.232.327.039.023.078.048.115.073-.027-.056-.048-.114-.064-.175-.044-.169-.153-.319-.299-.416-.073-.047-.138-.107-.19-.177-.045-.06-.081-.126-.106-.198-.003.028-.005.056-.005.084,0,.09.017.176.047.255.032.082.079.157.137.221.06.066.112.139.154.218.064.031.126.065.187.1-.053-.113-.128-.215-.219-.301Z" fill="#007c29" fill-rule="evenodd"/>
          <path d="M15.899,12.337c-.038-.097-.07-.198-.093-.302-.025-.111-.041-.225-.048-.342,0-.005.003-.008.008-.008.004,0,.008.003.008.008.007.116.023.23.048.34.025.112.06.22.103.324.087.066.171.137.25.213-.096-.144-.173-.302-.228-.47-.062-.189-.095-.392-.095-.601,0-.061.003-.123.009-.184-.049.072-.088.151-.115.235-.029.091-.045.188-.045.289,0,.078.009.153.027.225.018.074.045.144.079.209.02.014.04.028.06.042.011.008.021.016.032.024Z" fill="#007c29" fill-rule="evenodd"/>
          <path d="M15.485,11.694c-.042-.091-.075-.187-.1-.286-.027-.109-.044-.222-.049-.339,0-.005.003-.008.008-.008.004,0,.008.003.008.008.005.115.021.228.048.336.026.101.06.199.103.292.009-.083.014-.167.014-.25,0-.17-.019-.335-.054-.494-.035-.156-.086-.307-.151-.449-.047.156-.071.318-.071.481,0,.109.01.215.03.318.02.105.051.206.09.302.019.016.04.031.061.044.021.014.042.029.061.045Z" fill="#007c29" fill-rule="evenodd"/>
          <path d="M15.582,11.789c-.009-.05-.014-.1-.014-.15,0-.095.016-.186.045-.27.031-.088.076-.169.132-.24.003-.003.008-.004.012-.001s.004.008.001.012c-.056.07-.1.149-.13.235-.029.083-.044.172-.044.265,0,.06.006.12.02.179.034.046.064.096.087.148-.007-.054-.01-.109-.01-.164,0-.107.013-.211.038-.31.025-.102.063-.2.111-.291.034-.066.062-.137.084-.209.017-.057.031-.116.04-.177-.022.038-.047.075-.074.11-.037.047-.08.089-.126.126-.093.073-.169.165-.224.27.002.041.003.083.003.125,0,.092-.005.185-.016.276.023.021.044.044.064.068Z" fill="#007c29" fill-rule="evenodd"/>
          <path d="M15.512,10.967c.055-.113.097-.232.126-.358.028-.121.042-.248.042-.378,0-.034,0-.067-.003-.099-.002-.027-.004-.055-.007-.081-.077.09-.139.193-.183.305-.044.114-.069.237-.07.365.016.047.03.096.043.144.006-.075.017-.149.033-.221.02-.091.047-.179.081-.263.002-.004.006-.006.01-.005.004.002.006.007.004.011-.033.083-.06.17-.08.26-.019.087-.031.177-.036.269.003.01.005.021.007.032.004.02.008.039.012.06.006-.014.012-.028.019-.041Z" fill="#007c29" fill-rule="evenodd"/>
          <path d="M15.659,10.765c-.029.037-.056.075-.081.115.022-.027.046-.052.071-.075.069-.063.151-.113.24-.145.004-.002.009,0,.01.005.002.004,0,.009-.005.01-.088.032-.167.08-.235.142-.067.062-.123.136-.162.219.014.076.024.154.03.233.028-.092.069-.179.12-.258.061-.094.138-.177.226-.245.09-.072.167-.16.227-.258-.048.028-.099.05-.152.066-.06.017-.117.044-.167.078-.047.032-.088.07-.123.114Z" fill="#007c29" fill-rule="evenodd"/>
          <path d="M16.017,10.366c-.078.015-.15.048-.213.093-.063.046-.116.105-.155.173-.017.072-.039.141-.065.209.02-.03.042-.061.064-.089.03-.037.062-.073.096-.107.111-.11.244-.198.391-.257.127-.052.235-.141.311-.255-.046.031-.095.056-.148.074-.064.022-.133.035-.204.036-.058.001-.112.014-.161.037-.051.024-.097.058-.134.1-.039.044-.081.086-.125.126-.004.026-.009.052-.014.077.037-.053.082-.1.134-.138.064-.046.139-.08.219-.095.063-.012.124-.036.178-.069.004-.003.009-.001.011.003.002.004.001.009-.003.011-.056.034-.119.058-.184.071Z" fill="#007c29" fill-rule="evenodd"/>
          <path d="M15.693,10.347c.073-.172.176-.331.304-.468.003-.003.008-.003.012,0,.003.003.003.008,0,.012-.138.149-.247.322-.32.511-.003.026-.006.052-.01.078.116-.106.215-.231.292-.369.075-.136.13-.284.16-.442-.09.075-.171.159-.243.252-.075.097-.139.203-.191.316,0,.037-.001.074-.004.11Z" fill="#007c29" fill-rule="evenodd"/>
          <path d="M16.367,9.961c.064-.028.118-.076.155-.135-.067.039-.142.055-.219.055-.088,0-.172.029-.242.083-.02.049-.043.097-.069.144.027-.029.058-.055.09-.078.064-.046.137-.081.216-.102.004-.001.009.002.01.006.001.005-.001.009-.006.01-.077.02-.148.054-.211.099-.064.046-.119.103-.162.169h0c-.02.03-.041.059-.062.087.019-.013.039-.025.061-.035.053-.025.111-.037.169-.039.055-.118.151-.213.27-.266Z" fill="#007c29" fill-rule="evenodd"/>
          <path d="M18.087,12.565c.023,0,.042.019.042.042s-.019.042-.042.042-.042-.019-.042-.042.019-.042.042-.042Z" fill="red" fill-rule="evenodd"/>
          <path d="M17.408,12.848c.129-.013.248-.057.351-.124.101-.065.185-.153.248-.255-.061.02-.126.032-.19.037-.109.005-.212.032-.305.076-.091.043-.172.103-.241.176.103.001.199-.013.297-.049.09-.033.173-.082.245-.143.004-.003.009-.002.012,0s.002.009,0,.012c-.073.062-.158.112-.25.146-.089.033-.184.05-.284.05.021.011.042.023.063.036.019.012.037.025.056.038Z" fill="#007c29" fill-rule="evenodd"/>
          <path d="M17.502,12.926c.038.012.076.018.116.018.082,0,.161-.026.226-.074.068-.05.15-.077.235-.077.006,0,.012,0,.018,0-.027-.033-.06-.061-.097-.083-.04-.024-.085-.041-.133-.048-.031.028-.064.053-.099.076-.088.057-.189.098-.296.118.068.005.136,0,.203-.016.052-.012.102-.029.149-.052.004-.002.009,0,.011.004.002.004,0,.009-.004.011-.048.023-.099.041-.153.054-.079.018-.162.023-.243.013.024.018.046.037.067.057Z" fill="#007c29" fill-rule="evenodd"/>
          <path d="M17.726,12.438c.005-.041.018-.079.036-.114.016-.03.035-.058.059-.083-.127-.001-.242.041-.334.129-.08.077-.133.181-.142.298.049-.04.103-.074.161-.101.01-.005.02-.009.03-.014.012-.047.031-.09.057-.129.027-.041.06-.077.098-.107.004-.003.009-.002.012.001.003.004.002.009-.001.012-.037.029-.069.064-.095.103-.022.034-.04.072-.051.113.051-.02.104-.035.16-.045.005-.021.009-.042.012-.063Z" fill="#007c29" fill-rule="evenodd"/>
          <path d="M17.893,12.275c.023,0,.042.019.042.042s-.019.042-.042.042-.042-.019-.042-.042.019-.042.042-.042Z" fill="red" fill-rule="evenodd"/>
          <path d="M18.355,12.05c-.093.021-.174.075-.232.147-.05.064-.083.143-.089.229.049-.072.113-.134.186-.182.033-.022.062-.043.091-.072.024-.024.046-.05.065-.078.002-.004.007-.005.011-.002.004.002.004.008.002.011-.02.029-.042.056-.067.081-.003.003-.007.007-.011.01.044-.019.09-.034.138-.044.033-.053.054-.114.062-.177-.021.016-.043.03-.066.042-.029.015-.059.026-.091.034Z" fill="#007c29" fill-rule="evenodd"/>
          <path d="M18.672,11.908c.023,0,.042.019.042.042,0,.023-.019.042-.042.042s-.042-.018-.042-.042c0-.023.019-.042.042-.042Z" fill="red" fill-rule="evenodd"/>
          <path d="M18.058,12.42c.06-.043.123-.08.19-.112.08-.038.164-.068.252-.088.004-.001.009.002.01.006.001.005-.002.009-.006.01-.087.02-.17.05-.249.087-.074.035-.144.078-.21.127.028.004.057.006.085.006.127,0,.245-.038.343-.104.095-.063.172-.152.22-.256-.063.032-.131.054-.201.064-.096.013-.185.047-.263.098-.067.043-.124.099-.171.163Z" fill="#007c29" fill-rule="evenodd"/>
          <path d="M18.002,12.306c.01.022.017.044.022.068.005-.025.012-.05.021-.074.012-.034.022-.068.028-.104.012-.067.012-.136.002-.203,0-.005.003-.009.007-.009.004,0,.008.002.009.007.011.069.01.14-.002.208-.001.008-.003.015-.004.023.008-.012.016-.024.025-.035.014-.017.028-.033.044-.048.002-.016.003-.033.003-.05,0-.054-.01-.106-.029-.153-.017-.042-.041-.081-.07-.115,0,.058-.015.114-.043.164-.03.053-.045.112-.045.173,0,.051.011.101.033.148Z" fill="#007c29" fill-rule="evenodd"/>
          <path d="M18.188,11.789c.023,0,.042.019.042.042s-.019.042-.042.042-.042-.019-.042-.042.019-.042.042-.042Z" fill="red" fill-rule="evenodd"/>
          <path d="M18.285,12.055c.001-.034.009-.067.023-.098-.025,0-.05.003-.073.011-.025.009-.049.023-.069.041.005.026.007.053.007.08v.007c.003-.007.007-.013.01-.02.012-.02.025-.04.039-.058.003-.004.008-.004.011-.002.004.003.004.008.002.012-.014.018-.026.037-.037.057-.005.01-.01.02-.015.03.031-.024.065-.044.102-.059Z" fill="#007c29" fill-rule="evenodd"/>
          <path d="M18.361,11.889c.006.033.01.068.01.102.033-.09.06-.182.081-.277.024-.109.041-.221.049-.335,0-.005.004-.008.008-.008.004,0,.008.004.008.009-.008.115-.025.228-.049.337-.017.077-.038.151-.063.225h0c.049-.066.088-.14.115-.22.025-.077.039-.159.039-.245,0-.045-.004-.088-.011-.131-.006-.039-.016-.077-.028-.113-.054.067-.098.143-.128.226-.031.084-.047.175-.047.27,0,.053.005.106.016.159Z" fill="#007c29" fill-rule="evenodd"/>
          <path d="M18.47,11.911c.063-.035.119-.082.165-.138.044-.055.079-.118.101-.187.001-.004.006-.007.01-.005.004.001.007.006.005.01-.022.071-.058.137-.104.193-.025.031-.054.06-.085.085.072-.039.133-.094.18-.16.057-.082.091-.183.091-.291,0-.014,0-.028-.002-.042-.015.029-.035.056-.057.08-.029.031-.064.056-.103.075-.039.019-.074.045-.104.077-.007.041-.017.082-.03.121-.025.076-.061.146-.107.21.013-.011.026-.02.04-.028Z" fill="#007c29" fill-rule="evenodd"/>
          <path d="M18.298,11.235c.023,0,.042.018.042.042,0,.023-.019.042-.042.042s-.042-.019-.042-.042c0-.023.019-.042.042-.042Z" fill="red" fill-rule="evenodd"/>
          <path d="M18.278,11.784c.031.038.054.08.07.126-.001-.006-.002-.012-.003-.019-.012-.058-.017-.116-.016-.176,0-.047-.001-.088-.01-.135-.008-.043-.022-.085-.04-.125-.002-.004,0-.009.004-.011.004-.002.009,0,.011.004.019.041.033.084.041.129.002.008.003.016.004.025.007-.043.017-.085.031-.126-.027-.033-.058-.062-.092-.087h0c-.031-.022-.064-.041-.099-.056.007.023.012.047.014.071.003.028.002.057-.002.085-.004.028-.004.057-.001.086.007.078.039.149.09.208Z" fill="#007c29" fill-rule="evenodd"/>
          <path d="M18.697,11.155c.023,0,.042.019.042.042,0,.023-.019.042-.042.042s-.042-.018-.042-.042c0-.023.019-.042.042-.042Z" fill="red" fill-rule="evenodd"/>
          <path d="M18.638,11.425s.006-.006.01-.005c.004.002.006.006.005.011-.017.044-.036.086-.059.127.021-.017.044-.032.069-.043.012-.006.023-.012.034-.019.004-.039.002-.079-.003-.118-.003-.02-.007-.04-.012-.059-.022.015-.041.033-.058.053-.019.022-.035.047-.048.074,0,.011,0,.022,0,.032,0,.029-.001.058-.004.086.025-.044.047-.091.066-.139Z" fill="#007c29" fill-rule="evenodd"/>
          <path d="M18.5,11.196c-.034-.054-.062-.111-.084-.172-.024-.069-.041-.142-.046-.217,0-.005.003-.008.007-.009.004,0,.008.003.009.007.006.074.022.145.046.213.022.061.05.118.085.172,0-.025.003-.051.006-.075.003-.019.004-.039.004-.059,0-.075-.018-.146-.05-.209-.03-.06-.073-.113-.126-.154,0,.028-.004.055-.012.081-.029.086-.023.176.011.254.03.069.082.128.151.167Z" fill="#007c29" fill-rule="evenodd"/>
          <path d="M18.414,11.191c.017,0,.034,0,.05.002-.009-.006-.017-.012-.025-.019-.046-.02-.088-.048-.124-.083-.037-.035-.067-.075-.091-.121-.002-.004,0-.009.004-.011.004-.002.009,0,.011.003.022.044.052.083.087.116.022.02.046.038.071.054-.026-.029-.047-.063-.063-.098-.013-.031-.022-.063-.027-.096-.027-.028-.059-.05-.095-.067-.03-.014-.062-.024-.096-.028.028.04.045.087.049.136.006.065.036.118.079.154.044.038.104.058.17.056Z" fill="#007c29" fill-rule="evenodd"/>
          <path d="M18.612,11.129c.027-.016.051-.04.066-.067.015-.026.024-.057.024-.09,0-.016-.002-.032-.006-.047-.018-.057-.027-.117-.027-.177,0-.036.003-.072.01-.107-.037.035-.069.077-.095.121-.029.051-.049.106-.06.166.009.031.015.063.017.096.017-.064.043-.124.076-.18.002-.004.007-.005.011-.003.004.002.005.007.003.011-.032.054-.057.114-.074.176-.015.054-.023.111-.025.169.024-.025.051-.048.08-.068Z" fill="#007c29" fill-rule="evenodd"/>
          <path d="M18.536,10.577c.023,0,.042.019.042.042s-.019.042-.042.042-.042-.019-.042-.042.019-.042.042-.042Z" fill="red" fill-rule="evenodd"/>
          <path d="M18.198,10.722c.023,0,.042.019.042.042s-.019.042-.042.042-.042-.019-.042-.042.019-.042.042-.042Z" fill="red" fill-rule="evenodd"/>
          <path d="M18.256,10.239s.003-.008.008-.009c.005,0,.009.003.009.008.003.04.016.078.038.112h0c.039.062.06.133.06.206,0,.029-.003.058-.01.087.014-.02.026-.041.035-.064.013-.033.021-.07.021-.108,0-.072-.026-.14-.073-.194-.039-.045-.062-.102-.066-.161-.047.048-.072.112-.072.179,0,.017.001.034.005.051.019.018.036.038.052.058.047.063.078.139.087.221.004-.023.006-.046.006-.07,0-.07-.02-.138-.057-.197h0c-.023-.036-.037-.077-.04-.12Z" fill="#007c29" fill-rule="evenodd"/>
          <path d="M17.869,10.284c.023,0,.042.019.042.042,0,.023-.019.042-.042.042s-.042-.018-.042-.042c0-.023.019-.042.042-.042Z" fill="red" fill-rule="evenodd"/>
          <path d="M18.278,10.657c-.048-.02-.093-.048-.13-.084-.025-.022-.051-.041-.08-.057-.029-.017-.061-.03-.094-.04-.004-.002-.007-.006-.005-.01.001-.004.006-.007.01-.005.034.01.067.024.097.042.008.004.015.009.023.014-.018-.026-.031-.054-.039-.085-.034-.015-.07-.021-.106-.021-.036,0-.071.007-.104.02.043.025.079.061.105.105.05.082.138.132.234.132.02,0,.039-.002.059-.007.01-.002.021-.003.032-.003Z" fill="#007c29" fill-rule="evenodd"/>
          <path d="M18.304,10.65c.008.003.016.006.024.01-.017-.05-.04-.098-.069-.142-.033-.05-.073-.096-.118-.134-.003-.003-.004-.008-.001-.011.003-.003.008-.004.012-.001.047.04.088.086.121.138.022.034.042.071.057.109-.01-.076-.039-.145-.083-.204-.052-.071-.126-.126-.211-.155.016.043.027.088.032.135.007.057.034.108.072.149.044.047.102.084.163.107Z" fill="#007c29" fill-rule="evenodd"/>
          <path d="M18.14,10.057c.023,0,.042.019.042.042s-.019.042-.042.042-.042-.019-.042-.042.019-.042.042-.042Z" fill="red" fill-rule="evenodd"/>
          <path d="M17.93,10.232c.018.003.034.009.049.017-.031-.039-.063-.077-.099-.113-.052-.053-.109-.101-.171-.145-.004-.003-.004-.008-.002-.011.003-.004.008-.005.012-.002.062.044.12.093.173.147.05.05.095.104.136.162-.03-.095-.083-.179-.153-.247-.089-.086-.205-.145-.334-.162.016.014.031.031.044.048.019.024.034.051.046.08.026.06.067.113.12.153.051.039.112.065.179.073Z" fill="#007c29" fill-rule="evenodd"/>
          <path d="M17.529,10.144c.04.073.115.117.198.117.031,0,.061-.006.089-.018.012-.005.025-.008.039-.011-.033-.011-.063-.025-.092-.044-.025-.016-.052-.029-.081-.04-.028-.011-.058-.019-.089-.024-.004,0-.008-.005-.007-.009,0-.005.005-.007.009-.007.032.005.063.014.092.025.004.002.008.003.012.005-.028-.028-.052-.06-.071-.095-.011-.002-.021-.002-.032-.002-.047,0-.093.015-.131.042.026.014.047.036.062.061Z" fill="#007c29" fill-rule="evenodd"/>
          <path d="M18.011,10.146c.009-.069-.005-.139-.042-.199-.029-.048-.07-.087-.12-.113h0c-.039-.021-.065-.06-.072-.103-.01.017-.019.036-.025.056-.014.044-.017.093-.008.139.033.017.064.037.093.06-.003-.005-.006-.01-.01-.015-.02-.032-.036-.067-.048-.103-.001-.004,0-.009.005-.011.004-.001.009,0,.01.005.012.035.028.068.047.1.019.032.041.061.066.089.04.043.074.091.1.144,0-.016,0-.032.002-.048Z" fill="#007c29" fill-rule="evenodd"/>
          <path d="M17.505,13.01c.025,0,.047.004.066.009-.056-.065-.139-.139-.228-.196-.085-.054-.175-.092-.25-.092-.029,0-.057.007-.082.021.079.03.152.071.218.122.064.049.121.107.169.172.014-.021.056-.036.107-.036Z" fill="#007c29" fill-rule="evenodd"/>
        </g>
        <g>
          <path d="M19.366,12.593l-.069.107-.224-.023.114.195-.069.107-.171-.315-.132-.085.061-.095.132.085.357.025h0ZM18.166,9.263l-.073.127-.099-.057.235-.408.169.097c.087.05.118.139.068.227-.052.09-.144.103-.232.053l-.067-.039h0ZM18.21,9.185l.049.028c.041.023.08.018.104-.023.024-.041.008-.078-.032-.101l-.048-.028-.072.124h0ZM18.422,9.619l.091-.05.118.112-.046.093.088.084.21-.45-.109-.105-.44.231.088.084h0ZM18.67,9.6l-.078-.075.159-.088-.08.163h0ZM18.933,9.945l-.136.086-.061-.096.397-.253.105.164c.054.084.046.174-.04.229-.058.037-.112.033-.158.003l-.099.179-.067-.105.09-.159-.031-.049h0ZM19.009,9.897l.03.047c.023.036.054.059.096.032.042-.026.036-.064.013-.101l-.03-.047-.108.069h0ZM19.023,10.436l-.044-.114.497-.023.055.141-.382.319-.044-.114.081-.065-.059-.152-.103.007h0ZM19.256,10.524l.141-.113-.181.012.039.101h0ZM19.374,11.131l-.012-.092.082-.011.026.201-.062.008c-.125.016-.211-.06-.227-.18-.019-.145.073-.238.21-.256.134-.018.251.049.27.192.013.098-.032.198-.132.223l-.015-.114c.039-.016.054-.052.049-.094-.011-.082-.084-.101-.155-.092-.071.009-.138.046-.127.129.006.051.035.092.093.086h0ZM19.645,11.72l-.014.113-.302-.038c-.116-.014-.16-.114-.147-.219.013-.106.08-.191.197-.176l.302.038-.014.113-.292-.037c-.051-.006-.088.025-.094.075-.006.049.023.089.073.095l.292.037h0ZM19.102,11.987l.04-.115.393.304-.05.143-.497-.004.04-.116.104.003.053-.154-.083-.062h0ZM19.223,12.205l.181.005-.145-.108-.036.103Z" fill-rule="evenodd"/>
          <path d="M17.337,9.114l.105-.459.111.025-.084.369.191.044-.021.09-.302-.069h0ZM16.548,9.129l-.171.03-.082-.464.171-.03c.146-.026.245.05.27.191.025.141-.042.247-.188.273h0ZM16.472,9.044l.055-.01c.093-.017.111-.075.097-.158-.015-.084-.053-.131-.147-.114l-.053.009.048.273h0ZM16.891,9.086l.012-.471.328.009-.002.092-.215-.006-.002.097.197.005-.002.092-.198-.006-.002.097.215.006-.003.092-.328-.009Z" fill-rule="evenodd"/>
          <path d="M15.679,9.275l.094-.054-.133-.123.038.177h0ZM15.012,12.693l.136-.086.061.096-.397.253-.105-.164c-.054-.084-.046-.174.04-.229.057-.037.112-.033.158-.004l.099-.179.067.105-.09.159.031.049h0ZM14.936,12.741l-.03-.047c-.023-.036-.054-.059-.095-.032-.042.026-.036.065-.013.101l.03.047.108-.069h0ZM14.959,12.296l-.119-.306-.086.034.078.2-.09.035-.072-.185-.086.034.071.184-.09.035-.078-.2-.086.034.119.306.439-.171h0ZM14.643,11.79l.144-.026.02.112-.463.084-.034-.192c-.018-.099.03-.18.13-.198.102-.018.172.043.19.144l.014.076h0ZM14.554,11.806l-.01-.055c-.008-.046-.038-.073-.085-.064-.047.008-.064.044-.056.09l.01.055.141-.025h0ZM14.277,11.113l.003-.114.304.009c.115.004.17.097.167.204-.003.108-.063.198-.179.194l-.304-.009.003-.114.294.008c.05.002.085-.033.087-.083.001-.05-.031-.086-.082-.088l-.294-.009h0ZM14.774,10.895l-.453-.128.053-.189c.021-.075.072-.147.158-.122.052.015.078.06.074.113h.005c.02-.058.078-.087.138-.07.089.025.105.115.082.194l-.058.203h0ZM14.538,10.71l.017-.061c.009-.032.002-.066-.033-.076-.035-.01-.057.014-.066.046l-.018.062.099.028h0ZM14.717,10.761l.019-.068c.01-.034.009-.072-.031-.084-.039-.011-.066.015-.076.051l-.02.07.108.031h0ZM14.918,10.44l.139-.276-.082-.042-.088.175-.338-.171-.051.102.421.212h0ZM14.8,9.712l.385.272-.065.093-.385-.272.066-.093h0ZM15.35,9.369c-.021-.019-.044-.032-.067-.039-.076-.026-.15.002-.206.056-.059.057-.085.133-.063.214.021.08.103.165.182.19.08.026.156.003.216-.055.058-.056.087-.132.062-.212-.006-.021-.016-.041-.029-.057l-.084.079c.007.01.011.019.014.029.008.034-.006.063-.03.086-.033.032-.072.038-.113.021-.043-.018-.091-.069-.108-.112-.016-.043-.008-.083.025-.114.025-.024.057-.036.09-.024.01.003.02.009.029.016l.083-.08h0ZM15.84,9.283l-.141.081.022.101-.106.061-.096-.488.131-.075.372.33-.106.061-.076-.07Z" fill-rule="evenodd"/>
        </g>
      </g>
    </g>
  </g>
</svg>