<svg xmlns="http://www.w3.org/2000/svg" id="Layer_2" data-name="Layer 2" viewBox="0 0 33.945 22.631">
  <defs><clipPath id="circleClip"><circle cx="16.9725" cy="11.3155" r="11.3155" /></clipPath></defs><g clip-path="url(#circleClip)"><g id="_&#209;&#235;&#238;&#233;_1" data-name="&#209;&#235;&#238;&#233; 1">
    <g>
      <rect x="0" width="33.945" height="22.63" fill="#fff" />
      <polygon points="0 0 19.398 11.315 0 22.631 0 0" fill="#fff" fill-rule="evenodd" />
      <g>
        <polygon points="0 0 33.945 0 33.945 11.315 19.398 11.315 0 0" fill="#039" fill-rule="evenodd" />
        <polygon points="19.398 11.315 33.945 11.315 33.945 22.63 0 22.63 19.398 11.315 19.398 11.315" fill="red" fill-rule="evenodd" />
      </g>
      <g>
        <polygon points=".538 3.309 1.319 2.855 1.128 1.972 1.801 2.575 2.581 2.121 2.216 2.946 2.89 3.548 1.99 3.455 1.627 4.283 1.436 3.399 .538 3.309" fill="#fed700" fill-rule="evenodd" />
        <polygon points=".536 19.3 1.435 19.213 1.629 18.331 1.99 19.158 2.888 19.071 2.213 19.669 2.574 20.497 1.795 20.038 1.12 20.639 1.315 19.756 .536 19.3" fill="#fed700" fill-rule="evenodd" />
        <polygon points="15.072 10.567 15.929 10.851 16.464 10.124 16.458 11.027 17.315 11.312 16.454 11.584 16.448 12.488 15.923 11.752 15.062 12.027 15.598 11.3 15.072 10.567" fill="#fed700" fill-rule="evenodd" />
        <path d="M7.202,9.052c.05.003.1.008.15.014l.26-1.977.236.236-.349,1.765c.296.059.571.175.814.337l1.001-1.495h.334l-1.214,1.581c.04.031.078.062.116.095l1.473-1.677h.414v.414l-1.677,1.473c.033.038.065.076.095.116l1.582-1.214v.334l-1.495,1.001c.162.242.278.518.337.814l1.765-.349.236.236-1.977.259c.006.05.011.1.015.15l2.227-.145.293.293-.293.293-2.227-.145c-.003.05-.008.101-.015.15l1.977.26-.236.236-1.765-.349c-.059.296-.175.571-.337.814l1.495,1.001v.334l-1.582-1.214c-.031.04-.062.079-.095.117l1.677,1.473v.414h-.414l-1.473-1.677c-.038.033-.076.065-.116.096l1.214,1.581h-.334s-1.001-1.495-1.001-1.495c-.242.162-.518.279-.814.337l.349,1.765-.236.236-.26-1.977c-.05.007-.099.011-.15.015l.144,2.227-.293.292-.293-.293.145-2.227c-.05-.003-.101-.008-.15-.015l-.26,1.977-.236-.236.349-1.765c-.296-.059-.571-.175-.814-.337l-1.001,1.495h-.334l1.214-1.581c-.04-.031-.079-.063-.116-.096l-1.473,1.677h-.414v-.414l1.677-1.473c-.033-.038-.065-.077-.096-.117l-1.581,1.214v-.334l1.495-1.001c-.162-.242-.278-.518-.337-.814l-1.765.349-.236-.236,1.976-.26c-.006-.049-.011-.1-.014-.15l-2.227.145-.293-.293.292-.293,2.227.145c.003-.05.008-.1.015-.15l-1.977-.259.236-.236,1.765.349c.059-.296.176-.571.337-.814l-1.495-1.001v-.334l1.581,1.214c.03-.04.062-.079.096-.116l-1.677-1.473v-.414h.414l1.473,1.677c.038-.033.077-.065.116-.095l-1.214-1.582h.334l1.001,1.495c.242-.162.518-.278.814-.337l-.349-1.765.236-.236.26,1.977c.049-.006.099-.011.15-.014l-.145-2.227.293-.293.293.293-.144,2.227Z" fill="#fed700" fill-rule="evenodd" />
      </g>
    </g>
  </g>
</g></svg>