<?xml version="1.0" encoding="UTF-8"?>
<svg id="Layer_2" data-name="Layer 2" xmlns="http://www.w3.org/2000/svg" viewBox="0 0 33.945 22.631">
  <g id="_Ñëîé_1" data-name="Ñëîé 1">
    <g>
      <g>
        <rect width="33.945" height="22.631" fill="red"/>
        <rect width="13.525" height="22.631" fill="#007c29"/>
      </g>
      <g>
        <path d="M18.471,8.676c.241.429.425.886.547,1.364.118.46.177.935.177,1.41,0,.434-.05.87-.148,1.292-.124.531-.326,1.045-.597,1.519-.097.17-.204.336-.319.496l-.003.004c-.495.687-1.14,1.26-1.887,1.668-.834.456-1.768.692-2.716.692-1.022,0-2.032-.276-2.912-.804-.884-.53-1.609-1.294-2.093-2.201-.221-.414-.391-.86-.503-1.314-.124-.508-.177-1.03-.159-1.552.014-.402.071-.801.169-1.191.129-.512.334-1.012.601-1.468.524-.896,1.288-1.637,2.205-2.132.825-.446,1.754-.679,2.692-.679.976,0,1.942.252,2.795.736.9.511,1.647,1.263,2.151,2.161h0ZM8.575,10.745c.139-.051.279-.1.421-.147.157-.052.315-.101.475-.148-.115-.093-.229-.186-.341-.28-.119-.099-.236-.198-.35-.297-.02.059-.038.118-.055.177-.065.225-.116.457-.149.694h0ZM10.099,7.924v-.114c-.031.03-.063.06-.093.09-.02.02-.04.04-.06.061.051-.013.102-.025.153-.037h0ZM13.86,7.533h2.77c-.383-.304-.81-.552-1.272-.735-.469-.185-.972-.301-1.498-.336v1.071h0ZM11.205,14.511c-.213-.191-.4-.409-.558-.651-.378.076-.752.168-1.122.275.276.079.555.151.836.214.277.062.559.116.844.162h0ZM10.419,7.533h2.771v-1.071c-.526.035-1.029.151-1.498.336-.462.182-.89.431-1.272.735h0ZM10.332,13.241c-.094-.245-.161-.505-.198-.778-.269-.047-.535-.099-.799-.157-.256-.056-.511-.117-.764-.183.02.15.047.299.081.445.082.357.201.7.355,1.023.125-.039.251-.077.377-.113.312-.089.629-.168.949-.237h0ZM10.099,11.776v-.803c-.368.095-.729.204-1.084.327-.132.046-.263.093-.393.143.232.062.465.12.701.173.257.058.516.111.776.159h0ZM16.95,7.809v.114c.051.012.102.024.154.037-.02-.02-.04-.041-.06-.061-.031-.03-.062-.06-.093-.09h0ZM16.95,8.613v.16c.074-.014.153-.029.234-.044l.12-.024c-.118-.032-.236-.062-.354-.091h0ZM16.95,9.453v.828c.374.091.742.197,1.103.317.141.047.281.096.421.147-.047-.331-.126-.653-.235-.96-.067-.188-.144-.371-.232-.548-.179.042-.36.081-.543.119-.172.035-.343.068-.514.098h0ZM16.95,10.973v.803c.26-.048.519-.101.776-.159.236-.054.469-.111.701-.173-.13-.05-.261-.097-.393-.143-.355-.123-.716-.233-1.084-.327h0ZM16.047,14.314c-.065.069-.132.135-.202.198.162-.026.323-.055.482-.086l-.09-.035c-.062-.025-.125-.05-.19-.076h0ZM17.103,14.941c-.509.124-1.03.222-1.559.293-.552.074-1.114.118-1.684.13v1.074c.76-.05,1.473-.271,2.103-.623.421-.236.805-.531,1.14-.874h0ZM18.479,12.123c-.216.056-.434.109-.653.158-.209.047-.419.091-.63.13.215.168.426.339.634.513.123.103.245.207.366.312.104-.272.185-.555.241-.846.017-.088.031-.177.043-.267h0ZM13.189,15.364c-.57-.012-1.132-.056-1.684-.13-.529-.071-1.049-.169-1.559-.293.312.32.666.598,1.055.826.65.381,1.393.619,2.188.672v-1.074Z" fill-rule="evenodd"/>
        <path d="M13.525,15.289c1.905,0,3.347-1.422,3.347-3.331v-4.346h-6.693v4.346c0,1.91,1.442,3.331,3.347,3.331h0ZM10.248,7.659h6.554c.012,0,.022.01.022.022v4.276c0,1.883-1.421,3.284-3.3,3.284s-3.299-1.401-3.299-3.284v-4.276c0-.012.01-.022.022-.022Z" fill="#fff" fill-rule="evenodd"/>
        <path d="M16.779,7.703h-6.509v4.254c0,1.859,1.401,3.24,3.255,3.24s3.255-1.381,3.255-3.24v-4.254Z" fill="red" fill-rule="evenodd"/>
        <g>
          <path d="M13.189,5.916v-.048c-.836.05-1.622.283-2.319.66-.716.387-1.339.926-1.823,1.574l.048.015c.482-.64,1.101-1.173,1.812-1.555.687-.369,1.461-.597,2.283-.646Z" fill="#fed700" fill-rule="evenodd"/>
          <path d="M9.563,10.423l.056-.016c-.132-.106-.264-.213-.395-.323-.135-.112-.268-.226-.4-.34l-.017.048c.124.107.249.213.373.317.127.106.255.211.383.313Z" fill="#fed700" fill-rule="evenodd"/>
          <path d="M8.441,10.795l.05-.019c.034-.256.087-.505.157-.747.07-.24.157-.472.26-.696l-.045-.015c-.107.235-.198.479-.269.732-.068.242-.119.49-.152.745Z" fill="#fed700" fill-rule="evenodd"/>
          <path d="M8.048,10.95c.115-.047.23-.093.346-.137.033-.265.085-.523.156-.774.071-.253.162-.498.27-.734-.105-.034-.211-.068-.317-.1-.124.276-.225.564-.302.862-.074.286-.126.581-.153.883Z" fill="#fed700" fill-rule="evenodd"/>
          <path d="M7.952,10.99l.049-.021c.027-.313.08-.618.156-.914.077-.298.179-.587.303-.864l-.046-.014c-.128.288-.233.589-.312.901-.075.296-.126.6-.151.912Z" fill="#fed700" fill-rule="evenodd"/>
          <path d="M8.885,13.629l.045-.014c-.154-.326-.274-.67-.356-1.03-.079-.345-.123-.704-.127-1.073l-.047.019c.006.37.051.731.131,1.078.082.356.201.697.353,1.02Z" fill="#fed700" fill-rule="evenodd"/>
          <path d="M8.528,13.75c.104-.037.209-.072.314-.107-.152-.324-.272-.667-.354-1.024-.08-.345-.125-.703-.132-1.07-.109.044-.218.09-.325.137.015.363.066.718.148,1.06.084.349.202.684.349,1.004Z" fill="#fed700" fill-rule="evenodd"/>
          <path d="M8.441,13.781l.045-.016c-.148-.321-.266-.658-.35-1.009-.082-.339-.133-.691-.149-1.051l-.046.021c.017.362.07.716.153,1.057.085.346.202.68.348.998Z" fill="#fed700" fill-rule="evenodd"/>
          <path d="M8.807,14.363l-.045.016c.471.764,1.121,1.407,1.891,1.87.749.45,1.613.729,2.536.783v-.048c-.912-.054-1.765-.329-2.505-.772-.764-.457-1.409-1.093-1.877-1.849Z" fill="#fed700" fill-rule="evenodd"/>
          <path d="M9.173,14.242c-.108.034-.216.07-.323.106.464.747,1.102,1.374,1.857,1.826.734.439,1.579.712,2.482.766v-.33c-.83-.053-1.607-.302-2.284-.702-.7-.412-1.294-.984-1.732-1.666Z" fill="#fed700" fill-rule="evenodd"/>
          <path d="M9.264,14.213l-.046.014c.434.672,1.02,1.235,1.71,1.642.671.395,1.44.642,2.262.695v-.047c-.809-.053-1.566-.295-2.228-.683-.684-.401-1.266-.957-1.698-1.621Z" fill="#fed700" fill-rule="evenodd"/>
          <path d="M13.86,16.565c.779-.05,1.51-.275,2.156-.634.667-.372,1.243-.889,1.684-1.508l-.035-.031c-.436.613-1.005,1.125-1.664,1.494-.641.359-1.367.583-2.141.633v.047Z" fill="#fed700" fill-rule="evenodd"/>
          <path d="M13.86,16.94c.833-.05,1.616-.285,2.308-.666.716-.393,1.334-.941,1.811-1.598-.081-.075-.163-.15-.245-.224-.445.623-1.024,1.143-1.696,1.517-.652.363-1.391.59-2.178.64v.33Z" fill="#fed700" fill-rule="evenodd"/>
          <path d="M18.012,14.706c-.48.661-1.103,1.212-1.823,1.607-.698.383-1.488.621-2.329.671v.048c.845-.05,1.64-.288,2.343-.672.728-.398,1.358-.953,1.844-1.621l-.035-.033Z" fill="#fed700" fill-rule="evenodd"/>
          <path d="M17.113,12.347c.233-.043.465-.091.696-.143.228-.051.455-.107.681-.166l.006-.05c-.239.063-.48.122-.723.176-.234.052-.47.1-.709.144l.05.039Z" fill="#fed700" fill-rule="evenodd"/>
          <path d="M18.649,11.531l-.047-.019c-.004.304-.034.603-.089.892-.058.306-.144.603-.255.887l.038.033c.11-.279.196-.571.255-.871.06-.299.093-.607.098-.922Z" fill="#fed700" fill-rule="evenodd"/>
          <path d="M19.019,11.686c-.108-.047-.216-.093-.325-.137-.006.312-.039.617-.098.912-.061.309-.15.608-.264.894.087.077.174.155.261.233.125-.295.224-.604.296-.923.071-.317.116-.644.13-.979Z" fill="#fed700" fill-rule="evenodd"/>
          <path d="M19.109,11.726l-.046-.021c-.015.332-.059.656-.13.97-.073.327-.176.642-.305.944l.037.034c.127-.297.23-.608.305-.929.075-.323.123-.657.139-.998Z" fill="#fed700" fill-rule="evenodd"/>
          <path d="M17.972,8.902l-.067-.022c.163.277.3.571.409.878.115.325.198.665.244,1.018l.05.019c-.043-.334-.117-.657-.221-.967-.108-.324-.248-.634-.415-.925Z" fill="#fed700" fill-rule="evenodd"/>
          <path d="M18.488,9.08c-.15-.055-.301-.108-.453-.157.158.281.29.579.394.89.107.32.183.655.226.999.116.044.231.09.346.137-.029-.324-.087-.641-.17-.947-.087-.32-.202-.628-.343-.922Z" fill="#fed700" fill-rule="evenodd"/>
          <path d="M18.611,9.126l-.063-.023c.133.284.242.581.326.888.086.316.145.643.173.978l.049.021c-.026-.319-.078-.63-.156-.931-.082-.323-.194-.635-.33-.933Z" fill="#fed700" fill-rule="evenodd"/>
          <path d="M18.028,8.217l.075.024c-.476-.678-1.099-1.246-1.823-1.657-.722-.41-1.544-.664-2.42-.716v.048c.844.05,1.638.29,2.338.676.724.4,1.35.957,1.83,1.625Z" fill="#fed700" fill-rule="evenodd"/>
          <polygon points="13.781 15.359 13.734 15.362 13.734 17.038 13.781 17.036 13.781 16.481 13.781 16.48 13.781 16.479 13.781 15.359" fill="#fed700" fill-rule="evenodd"/>
          <path d="M14.624,15.202c-.073.023-.146.043-.221.062.381-.022.758-.058,1.131-.108.566-.076,1.123-.183,1.669-.321.019-.021.038-.042.057-.063-.424.109-.856.2-1.295.272-.441.072-.889.125-1.341.158Z" fill="#fed700" fill-rule="evenodd"/>
          <path d="M15.579,14.724c-.239.172-.503.314-.787.42.393-.033.782-.081,1.166-.144.459-.075.91-.171,1.355-.287.103-.12.201-.245.293-.374l-.041-.037c-.326.094-.656.176-.989.247-.328.069-.66.128-.996.175Z" fill="#fed700" fill-rule="evenodd"/>
          <path d="M15.729,14.609c-.025.02-.049.04-.075.059.307-.045.61-.1.911-.164.324-.069.644-.149.959-.238l-.042-.037c-.285.081-.574.153-.865.216-.293.064-.589.119-.888.164Z" fill="#fed700" fill-rule="evenodd"/>
          <path d="M16.136,14.215c-.01.012-.022.024-.032.036l.162.065c.075.03.143.056.204.08l.082-.017-.175-.068c-.08-.031-.16-.063-.242-.096Z" fill="#fed700" fill-rule="evenodd"/>
          <path d="M16.607,13.496c-.119.247-.268.477-.441.683.075.03.151.06.228.09.079.031.159.062.238.092.263-.058.523-.122.78-.194l-.076-.066c-.238-.205-.48-.407-.729-.605Z" fill="#fed700" fill-rule="evenodd"/>
          <path d="M16.661,13.378l-.02.045c.253.201.501.407.746.618.239.206.475.418.706.633l.028-.04c-.237-.22-.477-.435-.722-.646-.242-.208-.488-.412-.738-.61Z" fill="#fed700" fill-rule="evenodd"/>
          <path d="M16.922,12.417c-.04.325-.123.633-.243.919.254.202.504.408.749.619.244.21.484.424.719.642.082-.121.161-.246.234-.375.075-.131.145-.266.21-.404-.271-.248-.548-.49-.83-.728-.275-.23-.554-.455-.838-.674Z" fill="#fed700" fill-rule="evenodd"/>
          <path d="M16.934,12.308c-.002.019-.004.038-.006.056.293.225.58.456.861.692.279.234.553.474.821.72l.021-.046c-.278-.254-.563-.504-.853-.745-.276-.231-.558-.456-.845-.677Z" fill="#fed700" fill-rule="evenodd"/>
          <path d="M16.95,11.95v.007c0,.087-.003.173-.009.258l.075.057c.25-.046.499-.096.747-.151.247-.055.493-.115.737-.18.011-.114.018-.23.022-.346-.257.069-.516.134-.777.193-.263.059-.528.113-.795.162Z" fill="#fed700" fill-rule="evenodd"/>
          <path d="M16.95,11.856v.048c.263-.048.525-.101.785-.16.265-.06.528-.125.788-.196v-.05c-.258.07-.518.135-.779.194-.262.06-.527.114-.793.162Z" fill="#fed700" fill-rule="evenodd"/>
          <path d="M16.95,10.843v.049c.376.096.746.208,1.11.334.358.124.709.263,1.053.416v-.051c-.348-.154-.706-.295-1.072-.421-.357-.123-.721-.233-1.091-.327Z" fill="#fed700" fill-rule="evenodd"/>
          <path d="M16.95,10.458v.34c.375.095.744.206,1.106.33.36.124.713.263,1.06.415,0-.028,0-.059,0-.092,0-.09-.002-.179-.006-.269-.351-.15-.708-.286-1.071-.407-.357-.119-.72-.225-1.088-.316Z" fill="#fed700" fill-rule="evenodd"/>
          <path d="M16.95,10.363v.049c.373.092.741.199,1.102.32.359.12.71.253,1.055.4l-.003-.053c-.351-.148-.709-.284-1.075-.405-.354-.117-.714-.221-1.079-.31Z" fill="#fed700" fill-rule="evenodd"/>
          <path d="M16.95,9.326v.048c.168-.03.334-.061.499-.095.173-.035.348-.074.522-.114l-.022-.043c-.167.039-.336.076-.506.11-.164.034-.328.065-.492.094Z" fill="#fed700" fill-rule="evenodd"/>
          <path d="M16.95,8.946v.334c.162-.029.323-.06.483-.092.164-.034.329-.07.494-.108-.043-.08-.088-.158-.135-.235l-.02-.006-.116-.035c-.116.026-.233.05-.35.074-.118.024-.237.047-.356.068Z" fill="#fed700" fill-rule="evenodd"/>
          <path d="M16.95,8.852v.048c.116-.021.232-.043.347-.067.09-.018.18-.037.27-.056l-.097-.028c-.092.019-.182.038-.272.056-.079.015-.162.031-.249.047Z" fill="#fed700" fill-rule="evenodd"/>
          <path d="M16.95,8.483v.049c.285.069.567.146.845.232.26.08.516.166.768.26l-.03-.061c-.26-.096-.523-.183-.79-.264-.261-.079-.526-.151-.793-.215Z" fill="#fed700" fill-rule="evenodd"/>
          <path d="M16.95,8.099v.338c.271.065.54.138.806.218.252.076.502.159.748.249-.033-.064-.067-.127-.102-.19-.047-.083-.095-.164-.146-.245-.215-.072-.433-.139-.654-.202-.216-.061-.433-.117-.652-.169Z" fill="#fed700" fill-rule="evenodd"/>
          <path d="M16.95,8.005v.048c.223.052.445.11.664.172.203.058.404.119.604.185l-.042-.064c-.207-.068-.416-.131-.626-.189-.198-.055-.398-.106-.599-.153Z" fill="#fed700" fill-rule="evenodd"/>
          <path d="M16.95,7.638v.064c.05.046.1.093.149.142.05.049.098.1.147.152l.084.022c-.12-.133-.247-.259-.379-.379Z" fill="#fed700" fill-rule="evenodd"/>
          <path d="M16.898,7.533h.013c.022,0,.04.018.04.04v.006c.162.143.315.297.458.46.054.014.108.029.163.044.13.036.258.073.386.113-.472-.641-1.079-1.177-1.78-1.563-.694-.383-1.48-.621-2.317-.671v.331c.694.044,1.352.226,1.944.518.396.195.763.439,1.094.724Z" fill="#fed700" fill-rule="evenodd"/>
          <path d="M16.755,7.533h.074c-.317-.268-.668-.498-1.044-.684-.587-.289-1.237-.468-1.925-.513v.047c.536.035,1.049.153,1.526.341.5.197.961.471,1.369.808Z" fill="#fed700" fill-rule="evenodd"/>
          <rect x="13.734" y="5.863" width=".047" height="1.669" fill="#fed700"/>
          <path d="M13.36,7.533h.329v-1.672c-.055-.002-.11-.003-.165-.003s-.11,0-.165.003v1.672Z" fill="#fed700" fill-rule="evenodd"/>
          <rect x="13.268" y="5.863" width=".047" height="1.669" fill="#fed700"/>
          <path d="M10.22,7.533h.074c.408-.337.869-.611,1.369-.808.477-.188.99-.306,1.526-.341v-.048c-.687.044-1.338.225-1.925.513-.376.185-.727.416-1.044.684Z" fill="#fed700" fill-rule="evenodd"/>
          <path d="M10.099,7.578v-.006c0-.022.018-.04.04-.04h.013c.33-.285.698-.529,1.093-.724.593-.292,1.25-.473,1.945-.518v-.331c-.815.049-1.581.275-2.262.641-.701.376-1.311.9-1.788,1.53l.078.025c.14-.042.281-.081.423-.119.143-.162.296-.316.458-.46Z" fill="#fed700" fill-rule="evenodd"/>
          <path d="M10.099,7.702v-.064c-.133.12-.26.246-.379.379l.084-.022c.048-.052.097-.102.147-.152.049-.049.099-.096.149-.141Z" fill="#fed700" fill-rule="evenodd"/>
          <path d="M10.099,8.053v-.048c-.138.032-.276.066-.413.102-.112.03-.224.061-.336.093l.079.027c.109-.031.22-.061.333-.091.112-.029.224-.057.336-.083Z" fill="#fed700" fill-rule="evenodd"/>
          <path d="M10.099,8.438v-.339c-.109.026-.218.053-.325.081-.089.023-.179.047-.269.073l.07.024c.162.055.324.113.485.171l.039-.009Z" fill="#fed700" fill-rule="evenodd"/>
          <path d="M10.099,8.594v-.049c-.183-.067-.366-.132-.55-.195-.183-.062-.367-.123-.552-.182l-.028.039c.19.06.379.123.567.187.189.065.376.131.562.2Z" fill="#fed700" fill-rule="evenodd"/>
          <path d="M10.099,9.576v-.934c-.192-.071-.384-.139-.576-.206-.193-.066-.386-.13-.58-.191-.087.125-.17.253-.247.385-.074.126-.143.256-.207.389.273.084.544.172.813.266.268.093.534.19.797.291Z" fill="#fed700" fill-rule="evenodd"/>
          <path d="M10.099,9.675v-.051c-.269-.104-.54-.203-.812-.297-.271-.094-.544-.183-.818-.267l-.021.044c.557.171,1.108.36,1.651.57Z" fill="#fed700" fill-rule="evenodd"/>
          <path d="M10.099,10.282v-.522c-.368-.143-.741-.277-1.116-.401-.052.112-.099.226-.143.342.136.118.273.235.412.35.138.115.278.229.42.342.141-.039.284-.076.427-.111Z" fill="#fed700" fill-rule="evenodd"/>
          <path d="M10.099,10.411v-.049c-.364.09-.724.194-1.079.311-.365.121-.724.256-1.075.405l-.003.053c.344-.147.696-.28,1.055-.4.361-.121.729-.228,1.102-.32Z" fill="#fed700" fill-rule="evenodd"/>
          <path d="M10.099,10.797v-.34c-.368.091-.731.197-1.088.316-.363.122-.721.258-1.071.407l-.003.071c-.003.097-.004.194-.003.291.347-.152.7-.291,1.06-.415.362-.125.731-.235,1.106-.33Z" fill="#fed700" fill-rule="evenodd"/>
          <path d="M10.099,10.892v-.049c-.37.094-.734.203-1.091.327-.365.126-.723.266-1.073.421v.051c.347-.153.698-.291,1.054-.416.364-.126.734-.238,1.11-.334Z" fill="#fed700" fill-rule="evenodd"/>
          <path d="M10.099,11.904v-.048c-.267-.049-.531-.103-.793-.162-.262-.059-.522-.124-.78-.194v.05c.26.07.523.136.788.196.26.059.522.112.785.16Z" fill="#fed700" fill-rule="evenodd"/>
          <path d="M10.114,12.286c-.01-.108-.015-.218-.015-.329v-.007c-.267-.049-.532-.102-.795-.162-.261-.059-.52-.123-.777-.193.003.116.011.231.022.346.259.069.52.132.784.19.259.057.519.109.78.155Z" fill="#fed700" fill-rule="evenodd"/>
          <path d="M10.123,12.381l-.005-.049c-.267-.047-.532-.1-.794-.158-.258-.057-.514-.119-.77-.186l.006.05c.261.069.524.132.791.19.256.056.514.107.772.152Z" fill="#fed700" fill-rule="evenodd"/>
          <path d="M10.38,13.359c-.006-.015-.013-.029-.019-.044-.322.069-.641.149-.957.239-.314.09-.622.188-.93.298l.021.042c.308-.11.621-.21.937-.3.312-.088.628-.167.948-.235Z" fill="#fed700" fill-rule="evenodd"/>
          <path d="M10.552,13.705c-.056-.098-.108-.199-.154-.304-.322.069-.64.148-.954.237-.314.089-.624.188-.93.297.024.048.049.096.074.143.027.05.055.1.083.15.308-.109.62-.207.938-.295.31-.086.624-.162.942-.228Z" fill="#fed700" fill-rule="evenodd"/>
          <path d="M10.602,13.789l-.026-.043c-.322.066-.64.143-.954.23-.313.087-.622.184-.927.291l.025.042c.614-.216,1.245-.39,1.883-.521Z" fill="#fed700" fill-rule="evenodd"/>
          <path d="M11.394,14.668c-.025-.019-.05-.039-.075-.059-.328-.05-.653-.111-.976-.183-.325-.073-.645-.156-.96-.249l-.042.013.019.029c.345.103.696.193,1.052.271.324.071.651.13.981.179Z" fill="#fed700" fill-rule="evenodd"/>
          <path d="M12.257,15.144c-.284-.106-.548-.248-.787-.42-.36-.05-.716-.114-1.066-.191-.339-.074-.673-.159-1.003-.256.104.151.216.297.336.435.444.116.896.212,1.355.287.383.063.772.111,1.166.144Z" fill="#fed700" fill-rule="evenodd"/>
          <path d="M12.646,15.264c-.074-.019-.148-.039-.22-.062-.453-.033-.901-.086-1.342-.158-.439-.072-.871-.163-1.295-.272.019.021.038.042.057.063.546.138,1.103.245,1.67.321.373.05.75.086,1.131.108Z" fill="#fed700" fill-rule="evenodd"/>
          <polygon points="13.315 15.362 13.268 15.359 13.268 16.478 13.268 16.482 13.268 17.036 13.315 17.038 13.315 15.362" fill="#fed700" fill-rule="evenodd"/>
          <path d="M13.525,15.367c-.055,0-.11-.001-.165-.004v1.676c.055.001.11.002.165.002s.11,0,.165-.002v-1.676c-.054.002-.109.004-.165.004Z" fill="#fed700" fill-rule="evenodd"/>
        </g>
        <g>
          <g>
            <path d="M11.359,8.158h-.012l.011.154h.052c.012,0,.022.01.022.022v.169c0,.012-.01.022-.022.022h-.036l.028.388c0,.012-.01.022-.022.022h-.905c-.012,0-.022-.01-.022-.022l.028-.388h-.036c-.012,0-.022-.01-.022-.022v-.169c0-.012.01-.022.022-.022h.052l.011-.154h-.012c-.013,0-.022-.01-.022-.022v-.132c0-.012.01-.022.022-.022h.057c.012,0,.023.01.023.022v.011h.012v-.011c0-.012.01-.022.022-.022h.057c.012,0,.022.01.022.022v.011h.012v-.011c0-.012.01-.022.022-.022h.057c.005,0,.01.002.014.005l.002-.024h-.012c-.012,0-.022-.01-.022-.022v-.132c0-.012.01-.022.022-.022h.057c.012,0,.022.01.022.022v.011h.013v-.011c0-.012.01-.022.022-.022h.057c.012,0,.022.01.022.022v.011h.012v-.011c0-.012.01-.022.022-.022h.057c.012,0,.022.01.022.022v.132c0,.013-.01.022-.022.022h-.012l.002.024s.008-.005.014-.005h.057c.012,0,.023.01.023.022v.011h.012v-.011c0-.012.01-.022.022-.022h.057c.012,0,.022.01.022.022v.011h.012v-.011c0-.012.01-.022.022-.022h.057c.012,0,.022.01.022.022v.132c0,.012-.01.022-.022.022h0ZM11.078,8.253l.007-.094h-.014l.007.094h0ZM10.775,8.253l.007-.094h-.014l.007.094Z" fill-rule="evenodd"/>
            <g>
              <rect x="10.466" y="8.357" width=".921" height=".124" fill="#fed700"/>
              <path d="M10.926,8.651c-.041.033-.077.071-.107.113-.027.039-.05.081-.066.126h.347c-.017-.044-.039-.087-.067-.126-.03-.042-.065-.081-.107-.113Z" fill="#fed700" fill-rule="evenodd"/>
              <path d="M10.926,8.529c-.068.043-.128.098-.177.162-.044.059-.079.127-.102.199h.058c.018-.054.044-.105.077-.152.036-.05.079-.096.13-.134.008-.006.02-.006.028,0,.05.038.094.083.13.134.033.047.059.098.077.152h.058c-.023-.073-.057-.14-.102-.199-.048-.064-.108-.119-.177-.162Z" fill="#fed700" fill-rule="evenodd"/>
              <path d="M10.854,8.525h-.329l-.027.365h.103c.024-.083.063-.159.113-.226.04-.053.087-.1.139-.139Z" fill="#fed700" fill-rule="evenodd"/>
              <path d="M11.329,8.525h-.329c.053.04.099.086.139.139.05.067.089.143.113.226h.103l-.026-.365Z" fill="#fed700" fill-rule="evenodd"/>
              <path d="M10.54,8.312h.194l-.011-.154h-.172l-.011.154h0ZM10.593,8.265v-.04c0-.022.016-.038.038-.038s.038.016.038.038v.04c0,.013-.01.022-.022.022h-.031c-.012,0-.022-.01-.022-.022Z" fill="#fed700" fill-rule="evenodd"/>
              <path d="M11.038,8.312l-.026-.35h-.172l-.025.35h.223ZM10.883,8.12v-.04c0-.022.016-.038.038-.038s.038.016.038.038v.04c0,.013-.01.022-.022.022h-.031c-.013,0-.022-.01-.022-.022h0ZM10.883,8.265v-.04c0-.021.016-.038.038-.038s.038.016.038.038v.04c0,.013-.01.022-.022.022h-.031c-.013,0-.022-.01-.022-.022Z" fill="#fed700" fill-rule="evenodd"/>
              <path d="M10.806,7.917h.241v-.087h-.013v.011c0,.012-.01.022-.022.022h-.057c-.012,0-.022-.01-.022-.022v-.011h-.012v.011c0,.012-.01.022-.022.022h-.057c-.012,0-.022-.01-.022-.022v-.011h-.012v.087Z" fill="#fed700" fill-rule="evenodd"/>
              <path d="M11.095,8.114h.241v-.088h-.012v.011c0,.012-.01.022-.022.022h-.057c-.012,0-.022-.01-.022-.022v-.011h-.012v.011c0,.012-.01.022-.022.022h-.057c-.012,0-.022-.01-.022-.022v-.011h-.012v.088Z" fill="#fed700" fill-rule="evenodd"/>
              <path d="M11.313,8.312l-.011-.154h-.172l-.011.154h.194ZM11.184,8.265v-.04c0-.021.016-.038.038-.038s.038.016.038.038v.04c0,.013-.01.022-.022.022h-.031c-.012,0-.022-.01-.022-.022Z" fill="#fed700" fill-rule="evenodd"/>
              <path d="M10.517,8.114h.241v-.088h-.012v.011c0,.012-.01.022-.022.022h-.057c-.012,0-.022-.01-.022-.022v-.011h-.012v.011c0,.012-.01.022-.022.022h-.057c-.012,0-.022-.01-.022-.022v-.011h-.012v.088Z" fill="#fed700" fill-rule="evenodd"/>
            </g>
          </g>
          <g>
            <path d="M13.957,8.158h-.012l.011.154h.051c.012,0,.022.01.022.022v.169c0,.012-.01.022-.022.022h-.036l.028.388c0,.012-.01.022-.022.022h-.905c-.012,0-.022-.01-.022-.022l.028-.388h-.036c-.012,0-.022-.01-.022-.022v-.169c0-.012.01-.022.022-.022h.051l.011-.154h-.012c-.012,0-.022-.01-.022-.022v-.132c0-.012.01-.022.022-.022h.057c.012,0,.022.01.022.022v.011h.012v-.011c0-.012.01-.022.022-.022h.057c.012,0,.022.01.022.022v.011h.012v-.011c0-.012.01-.022.022-.022h.057c.005,0,.01.002.014.005l.002-.024h-.012c-.012,0-.022-.01-.022-.022v-.132c0-.012.01-.022.022-.022h.057c.012,0,.022.01.022.022v.011h.012v-.011c0-.012.01-.022.022-.022h.057c.012,0,.022.01.022.022v.011h.013v-.011c0-.012.01-.022.022-.022h.057c.012,0,.022.01.022.022v.132c0,.013-.01.022-.022.022h-.012l.002.024s.008-.005.014-.005h.057c.012,0,.022.01.022.022v.011h.012v-.011c0-.012.01-.022.022-.022h.057c.013,0,.022.01.022.022v.011h.012v-.011c0-.012.01-.022.022-.022h.057c.012,0,.022.01.022.022v.132c0,.012-.01.022-.022.022h0ZM13.677,8.253l.007-.094h-.014l.007.094h0ZM13.373,8.253l.007-.094h-.014l.007.094Z" fill-rule="evenodd"/>
            <g>
              <rect x="13.064" y="8.357" width=".921" height=".124" fill="#fed700"/>
              <path d="M13.525,8.651c-.041.033-.077.071-.107.113-.027.039-.05.081-.066.126h.346c-.017-.044-.039-.087-.066-.126-.03-.042-.066-.081-.107-.113Z" fill="#fed700" fill-rule="evenodd"/>
              <path d="M13.525,8.529c-.068.043-.128.098-.177.162-.044.059-.079.127-.102.199h.058c.019-.054.045-.105.077-.152.036-.05.079-.096.129-.134.008-.006.02-.006.028,0,.05.038.094.083.129.134.033.047.059.098.077.152h.058c-.023-.073-.057-.14-.102-.199-.048-.064-.108-.119-.177-.162Z" fill="#fed700" fill-rule="evenodd"/>
              <path d="M13.452,8.525h-.329l-.027.365h.103c.024-.083.063-.159.113-.226.04-.053.087-.1.139-.139Z" fill="#fed700" fill-rule="evenodd"/>
              <path d="M13.927,8.525h-.329c.053.04.099.086.139.139.05.067.089.143.113.226h.103l-.027-.365Z" fill="#fed700" fill-rule="evenodd"/>
              <path d="M13.138,8.312h.194l-.011-.154h-.172l-.011.154h0ZM13.191,8.265v-.04c0-.022.017-.038.038-.038.022,0,.038.016.038.038v.04c0,.013-.01.022-.023.022h-.031c-.012,0-.022-.01-.022-.022Z" fill="#fed700" fill-rule="evenodd"/>
              <path d="M13.636,8.312l-.025-.35h-.172l-.025.35h.223ZM13.481,8.12v-.04c0-.022.017-.038.038-.038.022,0,.038.016.038.038v.04c0,.013-.01.022-.022.022h-.031c-.012,0-.023-.01-.023-.022h0ZM13.481,8.265v-.04c0-.021.017-.038.038-.038.022,0,.038.016.038.038v.04c0,.013-.01.022-.022.022h-.031c-.012,0-.023-.01-.023-.022Z" fill="#fed700" fill-rule="evenodd"/>
              <path d="M13.404,7.917h.241v-.087h-.012v.011c0,.012-.01.022-.022.022h-.057c-.012,0-.022-.01-.022-.022v-.011h-.012v.011c0,.012-.01.022-.022.022h-.057c-.012,0-.022-.01-.022-.022v-.011h-.012v.087Z" fill="#fed700" fill-rule="evenodd"/>
              <path d="M13.694,8.114h.241v-.088h-.012v.011c0,.012-.01.022-.022.022h-.057c-.012,0-.022-.01-.022-.022v-.011h-.012v.011c0,.012-.01.022-.022.022h-.057c-.012,0-.022-.01-.022-.022v-.011h-.012v.088Z" fill="#fed700" fill-rule="evenodd"/>
              <path d="M13.911,8.312l-.011-.154h-.172l-.011.154h.194ZM13.782,8.265v-.04c0-.021.016-.038.038-.038s.038.016.038.038v.04c0,.013-.01.022-.022.022h-.031c-.012,0-.022-.01-.022-.022Z" fill="#fed700" fill-rule="evenodd"/>
              <path d="M13.114,8.114h.241v-.088h-.012v.011c0,.012-.01.022-.022.022h-.057c-.012,0-.022-.01-.022-.022v-.011h-.012v.011c0,.012-.01.022-.022.022h-.057c-.012,0-.022-.01-.022-.022v-.011h-.012v.088Z" fill="#fed700" fill-rule="evenodd"/>
            </g>
          </g>
          <g>
            <path d="M16.555,8.158h-.012l.011.154h.051c.012,0,.022.01.022.022v.169c0,.012-.01.022-.022.022h-.036l.028.388c0,.012-.01.022-.022.022h-.905c-.012,0-.022-.01-.022-.022l.028-.388h-.036c-.012,0-.022-.01-.022-.022v-.169c0-.012.01-.022.022-.022h.052l.011-.154h-.012c-.012,0-.022-.01-.022-.022v-.132c0-.012.01-.022.022-.022h.057c.012,0,.022.01.022.022v.011h.012v-.011c0-.012.01-.022.022-.022h.057c.012,0,.022.01.022.022v.011h.012v-.011c0-.012.01-.022.022-.022h.057c.005,0,.01.002.014.005l.002-.024h-.012c-.012,0-.022-.01-.022-.022v-.132c0-.012.01-.022.022-.022h.057c.012,0,.022.01.022.022v.011h.013v-.011c0-.012.01-.022.022-.022h.057c.012,0,.022.01.022.022v.011h.012v-.011c0-.012.01-.022.023-.022h.057c.012,0,.022.01.022.022v.132c0,.013-.01.022-.022.022h-.012l.002.024s.009-.005.014-.005h.057c.012,0,.022.01.022.022v.011h.012v-.011c0-.012.01-.022.022-.022h.057c.013,0,.022.01.022.022v.011h.012v-.011c0-.012.01-.022.022-.022h.057c.012,0,.022.01.022.022v.132c0,.012-.01.022-.022.022h0ZM16.275,8.253l.007-.094h-.014l.007.094h0ZM15.971,8.253l.007-.094h-.014l.007.094Z" fill-rule="evenodd"/>
            <g>
              <rect x="15.662" y="8.357" width=".921" height=".124" fill="#fed700"/>
              <path d="M16.123,8.651c-.041.033-.077.071-.106.113-.027.039-.05.081-.067.126h.347c-.017-.044-.039-.087-.067-.126-.03-.042-.065-.081-.107-.113Z" fill="#fed700" fill-rule="evenodd"/>
              <path d="M16.123,8.529c-.068.043-.128.098-.176.162-.045.059-.079.127-.102.199h.058c.018-.054.044-.105.077-.152.036-.05.079-.096.13-.134.008-.006.02-.006.028,0,.05.038.094.083.13.134.033.047.059.098.077.152h.058c-.023-.073-.057-.14-.102-.199-.048-.064-.108-.119-.177-.162Z" fill="#fed700" fill-rule="evenodd"/>
              <path d="M16.05,8.525h-.329l-.027.365h.104c.024-.083.062-.159.113-.226.039-.053.086-.1.139-.139Z" fill="#fed700" fill-rule="evenodd"/>
              <path d="M16.525,8.525h-.329c.053.04.099.086.139.139.05.067.089.143.113.226h.103l-.026-.365Z" fill="#fed700" fill-rule="evenodd"/>
              <path d="M15.736,8.312h.194l-.011-.154h-.172l-.011.154h0ZM15.79,8.265v-.04c0-.022.016-.038.038-.038s.038.016.038.038v.04c0,.013-.01.022-.022.022h-.031c-.012,0-.022-.01-.022-.022Z" fill="#fed700" fill-rule="evenodd"/>
              <path d="M16.234,8.312l-.025-.35h-.172l-.025.35h.223ZM16.079,8.12v-.04c0-.022.016-.038.038-.038s.038.016.038.038v.04c0,.013-.01.022-.022.022h-.031c-.012,0-.022-.01-.022-.022h0ZM16.079,8.265v-.04c0-.021.016-.038.038-.038s.038.016.038.038v.04c0,.013-.01.022-.022.022h-.031c-.012,0-.022-.01-.022-.022Z" fill="#fed700" fill-rule="evenodd"/>
              <path d="M16.002,7.917h.241v-.087h-.012v.011c0,.012-.01.022-.022.022h-.057c-.012,0-.022-.01-.022-.022v-.011h-.012v.011c0,.012-.01.022-.022.022h-.057c-.012,0-.022-.01-.022-.022v-.011h-.012v.087Z" fill="#fed700" fill-rule="evenodd"/>
              <path d="M16.292,8.114h.241v-.088h-.012v.011c0,.012-.01.022-.022.022h-.057c-.012,0-.022-.01-.022-.022v-.011h-.012v.011c0,.012-.01.022-.022.022h-.057c-.012,0-.022-.01-.022-.022v-.011h-.012v.088Z" fill="#fed700" fill-rule="evenodd"/>
              <path d="M16.509,8.312l-.011-.154h-.172l-.011.154h.194ZM16.38,8.265v-.04c0-.021.016-.038.038-.038s.038.016.038.038v.04c0,.013-.01.022-.022.022h-.031c-.012,0-.022-.01-.022-.022Z" fill="#fed700" fill-rule="evenodd"/>
              <path d="M15.713,8.114h.241v-.088h-.012v.011c0,.012-.01.022-.022.022h-.057c-.012,0-.022-.01-.022-.022v-.011h-.012v.011c0,.012-.01.022-.022.022h-.057c-.012,0-.022-.01-.022-.022v-.011h-.012v.088Z" fill="#fed700" fill-rule="evenodd"/>
            </g>
          </g>
          <g>
            <path d="M16.555,10.751h-.012l.011.154h.051c.012,0,.022.01.022.022v.169c0,.013-.01.022-.022.022h-.036l.028.388c0,.012-.01.022-.022.022h-.905c-.012,0-.022-.01-.022-.022l.028-.388h-.036c-.012,0-.022-.01-.022-.022v-.169c0-.012.01-.022.022-.022h.052l.011-.154h-.012c-.012,0-.022-.01-.022-.022v-.132c0-.012.01-.022.022-.022h.057c.012,0,.022.01.022.022v.011h.012v-.011c0-.012.01-.022.022-.022h.057c.012,0,.022.01.022.022v.011h.012v-.011c0-.012.01-.022.022-.022h.057c.005,0,.01.002.014.005l.002-.024h-.012c-.012,0-.022-.01-.022-.022v-.132c0-.013.01-.022.022-.022h.057c.012,0,.022.01.022.022v.01h.013v-.01c0-.013.01-.022.022-.022h.057c.012,0,.022.01.022.022v.01h.012v-.01c0-.013.01-.022.023-.022h.057c.012,0,.022.01.022.022v.132c0,.013-.01.022-.022.022h-.012l.002.024s.009-.005.014-.005h.057c.012,0,.022.01.022.022v.011h.012v-.011c0-.012.01-.022.022-.022h.057c.013,0,.022.01.022.022v.011h.012v-.011c0-.012.01-.022.022-.022h.057c.012,0,.022.01.022.022v.132c0,.012-.01.022-.022.022h0ZM16.275,10.845l.007-.094h-.014l.007.094h0ZM15.971,10.845l.007-.094h-.014l.007.094Z" fill-rule="evenodd"/>
            <g>
              <rect x="15.662" y="10.95" width=".921" height=".124" fill="#fed700"/>
              <path d="M16.123,11.244c-.041.033-.077.071-.106.113-.027.039-.05.081-.067.126h.347c-.017-.044-.039-.087-.067-.126-.03-.042-.065-.081-.107-.113Z" fill="#fed700" fill-rule="evenodd"/>
              <path d="M16.123,11.122c-.068.043-.128.098-.176.162-.045.059-.079.127-.102.199h.058c.018-.054.044-.105.077-.151.036-.051.079-.096.13-.134.008-.006.02-.006.028,0,.05.038.094.083.13.134.033.047.059.097.077.151h.058c-.023-.072-.057-.14-.102-.199-.048-.064-.108-.119-.177-.162Z" fill="#fed700" fill-rule="evenodd"/>
              <path d="M16.05,11.118h-.329l-.027.365h.104c.024-.083.062-.159.113-.226.039-.053.086-.1.139-.139Z" fill="#fed700" fill-rule="evenodd"/>
              <path d="M16.525,11.118h-.329c.053.04.099.086.139.139.05.067.089.143.113.226h.103l-.026-.365Z" fill="#fed700" fill-rule="evenodd"/>
              <path d="M15.736,10.905h.194l-.011-.154h-.172l-.011.154h0ZM15.79,10.858v-.04c0-.022.016-.038.038-.038s.038.017.038.038v.04c0,.012-.01.022-.022.022h-.031c-.012,0-.022-.01-.022-.022Z" fill="#fed700" fill-rule="evenodd"/>
              <path d="M16.234,10.905l-.025-.35h-.172l-.025.35h.223ZM16.079,10.712v-.04c0-.021.016-.038.038-.038s.038.016.038.038v.04c0,.012-.01.022-.022.022h-.031c-.012,0-.022-.01-.022-.022h0ZM16.079,10.858v-.04c0-.021.016-.038.038-.038s.038.016.038.038v.04c0,.012-.01.022-.022.022h-.031c-.012,0-.022-.01-.022-.022Z" fill="#fed700" fill-rule="evenodd"/>
              <path d="M16.002,10.51h.241v-.087h-.012v.011c0,.012-.01.022-.022.022h-.057c-.012,0-.022-.01-.022-.022v-.011h-.012v.011c0,.012-.01.022-.022.022h-.057c-.012,0-.022-.01-.022-.022v-.011h-.012v.087Z" fill="#fed700" fill-rule="evenodd"/>
              <path d="M16.292,10.706h.241v-.088h-.012v.011c0,.012-.01.022-.022.022h-.057c-.012,0-.022-.01-.022-.022v-.011h-.012v.011c0,.012-.01.022-.022.022h-.057c-.012,0-.022-.01-.022-.022v-.011h-.012v.088Z" fill="#fed700" fill-rule="evenodd"/>
              <path d="M16.509,10.905l-.011-.154h-.172l-.011.154h.194ZM16.38,10.858v-.04c0-.021.016-.038.038-.038s.038.016.038.038v.04c0,.012-.01.022-.022.022h-.031c-.012,0-.022-.01-.022-.022Z" fill="#fed700" fill-rule="evenodd"/>
              <path d="M15.713,10.706h.241v-.088h-.012v.011c0,.012-.01.022-.022.022h-.057c-.012,0-.022-.01-.022-.022v-.011h-.012v.011c0,.012-.01.022-.022.022h-.057c-.012,0-.022-.01-.022-.022v-.011h-.012v.088Z" fill="#fed700" fill-rule="evenodd"/>
            </g>
          </g>
          <g>
            <path d="M11.359,10.751h-.012l.011.154h.052c.012,0,.022.01.022.022v.169c0,.013-.01.022-.022.022h-.036l.028.388c0,.012-.01.022-.022.022h-.905c-.012,0-.022-.01-.022-.022l.028-.388h-.036c-.012,0-.022-.01-.022-.022v-.169c0-.012.01-.022.022-.022h.052l.011-.154h-.012c-.013,0-.022-.01-.022-.022v-.132c0-.012.01-.022.022-.022h.057c.012,0,.023.01.023.022v.011h.012v-.011c0-.012.01-.022.022-.022h.057c.012,0,.022.01.022.022v.011h.012v-.011c0-.012.01-.022.022-.022h.057c.005,0,.01.002.014.005l.002-.024h-.012c-.012,0-.022-.01-.022-.022v-.132c0-.013.01-.022.022-.022h.057c.012,0,.022.01.022.022v.01h.013v-.01c0-.013.01-.022.022-.022h.057c.012,0,.022.01.022.022v.01h.012v-.01c0-.013.01-.022.022-.022h.057c.012,0,.022.01.022.022v.132c0,.013-.01.022-.022.022h-.012l.002.024s.008-.005.014-.005h.057c.012,0,.023.01.023.022v.011h.012v-.011c0-.012.01-.022.022-.022h.057c.012,0,.022.01.022.022v.011h.012v-.011c0-.012.01-.022.022-.022h.057c.012,0,.022.01.022.022v.132c0,.012-.01.022-.022.022h0ZM11.078,10.845l.007-.094h-.014l.007.094h0ZM10.775,10.845l.007-.094h-.014l.007.094Z" fill-rule="evenodd"/>
            <g>
              <rect x="10.466" y="10.95" width=".921" height=".124" fill="#fed700"/>
              <path d="M10.926,11.244c-.041.033-.077.071-.107.113-.027.039-.05.081-.066.126h.347c-.017-.044-.039-.087-.067-.126-.03-.042-.065-.081-.107-.113Z" fill="#fed700" fill-rule="evenodd"/>
              <path d="M10.926,11.122c-.068.043-.128.098-.177.162-.044.059-.079.127-.102.199h.058c.018-.054.044-.105.077-.151.036-.051.079-.096.13-.134.008-.006.02-.006.028,0,.05.038.094.083.13.134.033.047.059.097.077.151h.058c-.023-.072-.057-.14-.102-.199-.048-.064-.108-.119-.177-.162Z" fill="#fed700" fill-rule="evenodd"/>
              <path d="M10.854,11.118h-.329l-.027.365h.103c.024-.083.063-.159.113-.226.04-.053.087-.1.139-.139Z" fill="#fed700" fill-rule="evenodd"/>
              <path d="M11.329,11.118h-.329c.053.04.099.086.139.139.05.067.089.143.113.226h.103l-.026-.365Z" fill="#fed700" fill-rule="evenodd"/>
              <path d="M10.54,10.905h.194l-.011-.154h-.172l-.011.154h0ZM10.593,10.858v-.04c0-.022.016-.038.038-.038s.038.017.038.038v.04c0,.012-.01.022-.022.022h-.031c-.012,0-.022-.01-.022-.022Z" fill="#fed700" fill-rule="evenodd"/>
              <path d="M11.038,10.905l-.026-.35h-.172l-.025.35h.223ZM10.883,10.712v-.04c0-.021.016-.038.038-.038s.038.016.038.038v.04c0,.012-.01.022-.022.022h-.031c-.013,0-.022-.01-.022-.022h0ZM10.883,10.858v-.04c0-.021.016-.038.038-.038s.038.016.038.038v.04c0,.012-.01.022-.022.022h-.031c-.013,0-.022-.01-.022-.022Z" fill="#fed700" fill-rule="evenodd"/>
              <path d="M10.806,10.51h.241v-.087h-.013v.011c0,.012-.01.022-.022.022h-.057c-.012,0-.022-.01-.022-.022v-.011h-.012v.011c0,.012-.01.022-.022.022h-.057c-.012,0-.022-.01-.022-.022v-.011h-.012v.087Z" fill="#fed700" fill-rule="evenodd"/>
              <path d="M11.095,10.706h.241v-.088h-.012v.011c0,.012-.01.022-.022.022h-.057c-.012,0-.022-.01-.022-.022v-.011h-.012v.011c0,.012-.01.022-.022.022h-.057c-.012,0-.022-.01-.022-.022v-.011h-.012v.088Z" fill="#fed700" fill-rule="evenodd"/>
              <path d="M11.313,10.905l-.011-.154h-.172l-.011.154h.194ZM11.184,10.858v-.04c0-.021.016-.038.038-.038s.038.016.038.038v.04c0,.012-.01.022-.022.022h-.031c-.012,0-.022-.01-.022-.022Z" fill="#fed700" fill-rule="evenodd"/>
              <path d="M10.517,10.706h.241v-.088h-.012v.011c0,.012-.01.022-.022.022h-.057c-.012,0-.022-.01-.022-.022v-.011h-.012v.011c0,.012-.01.022-.022.022h-.057c-.012,0-.022-.01-.022-.022v-.011h-.012v.088Z" fill="#fed700" fill-rule="evenodd"/>
            </g>
          </g>
          <g>
            <path d="M11.835,13.352l-.009.008.117.101.036-.036c.009-.009.023-.009.031,0l.119.119c.009.009.009.023,0,.032l-.026.025.294.254c.009.008.009.023,0,.032l-.32.32-.32.32c-.009.009-.023.009-.031,0l-.254-.294-.025.025c-.009.008-.023.008-.032,0l-.119-.119c-.009-.009-.009-.023,0-.032l.036-.036-.101-.117-.009.008c-.009.009-.023.009-.031,0l-.094-.093c-.009-.009-.009-.023,0-.032l.04-.04c.009-.009.023-.009.032,0l.008.008.009-.009-.008-.007c-.009-.009-.009-.023,0-.032l.041-.04c.009-.009.023-.009.031,0l.008.008.009-.009-.008-.007c-.009-.009-.008-.023,0-.032l.04-.041s.009-.006.013-.006l-.016-.019-.008.008c-.009.009-.023.009-.032,0l-.094-.093c-.008-.009-.009-.023,0-.032l.041-.04c.008-.009.023-.009.031,0l.008.007.009-.009-.007-.008c-.009-.008-.009-.023,0-.031l.04-.041c.009-.009.023-.009.032,0l.007.008.009-.009-.007-.008c-.009-.008-.009-.023,0-.032l.04-.04c.008-.008.023-.008.031,0l.093.094c.009.009.009.023,0,.031l-.009.009.018.016s.003-.009.007-.013l.04-.041c.009-.009.023-.009.032,0l.008.008.009-.009-.008-.008c-.009-.009-.009-.023,0-.032l.041-.04c.008-.009.023-.009.031,0l.008.007.009-.009-.008-.008c-.008-.008-.008-.023,0-.032l.041-.04c.009-.009.023-.009.032,0l.094.093c.008.009.008.023,0,.032h0ZM11.703,13.617l-.062-.071-.01.01.072.061h0ZM11.488,13.832l-.062-.071-.01.01.071.062Z" fill-rule="evenodd"/>
            <g>
              <rect x="11.253" y="13.78" width=".921" height=".124" transform="translate(-6.357 12.338) rotate(-45.004)" fill="#fed700"/>
              <path d="M11.877,14.007c-.006.052-.004.105.005.156.008.047.022.092.042.136l.123-.123.122-.122c-.043-.02-.089-.034-.136-.042-.051-.009-.103-.011-.156-.005Z" fill="#fed700" fill-rule="evenodd"/>
              <path d="M11.791,13.92c-.018.079-.021.16-.01.24.01.073.033.146.069.213l.041-.041c-.025-.051-.043-.106-.052-.162-.011-.061-.012-.124-.003-.186.001-.01.01-.018.02-.019.062-.009.125-.008.186.003.056.01.111.028.162.053l.041-.041c-.067-.035-.139-.058-.213-.069-.08-.011-.161-.008-.24.01Z" fill="#fed700" fill-rule="evenodd"/>
              <path d="M11.737,13.969l-.232.232.239.277.073-.073c-.041-.075-.068-.156-.08-.239-.009-.065-.009-.132,0-.197Z" fill="#fed700" fill-rule="evenodd"/>
              <path d="M12.073,13.633l-.233.233c.065-.009.132-.009.197,0,.083.012.164.039.239.08l.073-.073-.277-.239Z" fill="#fed700" fill-rule="evenodd"/>
              <path d="M11.364,14.04l.137-.137-.117-.101-.122.122.101.117h0ZM11.369,13.969l-.029-.029c-.015-.015-.015-.039,0-.053.015-.015.039-.015.054,0l.028.028c.009.009.009.023,0,.032l-.022.022c-.009.008-.023.009-.031,0Z" fill="#fed700" fill-rule="evenodd"/>
              <path d="M11.716,13.688l-.266-.23-.122.122.23.266.158-.158h0ZM11.471,13.662l-.028-.028c-.015-.015-.015-.039,0-.054.015-.015.038-.015.053,0l.028.029c.009.009.009.023,0,.031l-.022.022c-.009.009-.023.009-.032,0h0ZM11.574,13.765l-.029-.028c-.015-.015-.015-.039,0-.054.015-.015.038-.015.054,0l.028.028c.009.009.009.023,0,.032l-.022.022c-.009.009-.023.009-.031,0Z" fill="#fed700" fill-rule="evenodd"/>
              <path d="M11.273,13.573l.171-.171-.062-.062-.009.009.007.007c.009.009.009.023,0,.032l-.041.041c-.008.008-.023.008-.031,0l-.008-.008-.009.009.008.008c.008.008.009.023,0,.031l-.041.041c-.009.009-.023.009-.032,0l-.007-.008-.009.009.062.062Z" fill="#fed700" fill-rule="evenodd"/>
              <path d="M11.617,13.507l.171-.171-.062-.062-.009.008.008.008c.008.009.008.023,0,.032l-.04.041c-.009.009-.023.009-.032,0l-.008-.008-.009.009.008.008c.009.009.009.023,0,.032l-.04.04c-.009.009-.023.009-.031,0l-.008-.008-.009.009.062.062Z" fill="#fed700" fill-rule="evenodd"/>
              <path d="M11.911,13.493l-.117-.101-.122.122.101.117.138-.137h0ZM11.787,13.552l-.029-.029c-.015-.015-.015-.038,0-.054.015-.015.039-.015.054,0l.028.028c.009.009.009.023,0,.032l-.022.022c-.009.009-.023.009-.031,0Z" fill="#fed700" fill-rule="evenodd"/>
              <path d="M11.207,13.916l.171-.171-.062-.062-.009.009.007.007c.009.009.009.023,0,.032l-.04.041c-.009.008-.023.008-.032,0l-.008-.008-.009.009.008.008c.009.009.009.023,0,.031l-.04.041c-.009.009-.023.009-.031,0l-.008-.008-.009.009.062.062Z" fill="#fed700" fill-rule="evenodd"/>
            </g>
          </g>
          <g>
            <path d="M15.214,13.352l.009.008-.117.101-.036-.036c-.009-.009-.023-.009-.031,0l-.119.119c-.009.009-.009.023,0,.032l.026.025-.294.254c-.009.008-.009.023,0,.032l.32.32.32.32c.009.009.023.009.031,0l.254-.294.026.025c.008.008.023.008.031,0l.119-.119c.009-.009.009-.023,0-.032l-.036-.036.101-.117.009.008c.009.009.023.009.031,0l.094-.093c.009-.009.009-.023,0-.032l-.04-.04c-.009-.009-.023-.009-.032,0l-.008.008-.009-.009.008-.007c.009-.009.009-.023,0-.032l-.041-.04c-.009-.009-.023-.009-.031,0l-.008.008-.009-.009.008-.007c.009-.009.008-.023,0-.032l-.041-.041s-.008-.006-.013-.006l.016-.019.008.008c.009.009.023.009.032,0l.094-.093c.009-.009.009-.023,0-.032l-.041-.04c-.008-.009-.023-.009-.031,0l-.008.007-.009-.009.007-.008c.009-.008.009-.023,0-.031l-.041-.041c-.009-.009-.023-.009-.032,0l-.007.008-.009-.009.007-.008c.009-.008.009-.023,0-.032l-.04-.04c-.008-.008-.023-.008-.031,0l-.093.094c-.009.009-.009.023,0,.031l.008.009-.018.016s-.003-.009-.006-.013l-.04-.041c-.009-.009-.023-.009-.032,0l-.007.008-.009-.009.008-.008c.009-.009.009-.023,0-.032l-.04-.04c-.008-.009-.023-.009-.031,0l-.008.007-.009-.009.008-.008c.008-.008.008-.023,0-.032l-.041-.04c-.009-.009-.023-.009-.032,0l-.094.093c-.008.009-.008.023,0,.032h0ZM15.346,13.617l.062-.071.01.01-.071.061h0ZM15.561,13.832l.062-.071.01.01-.071.062Z" fill-rule="evenodd"/>
            <g>
              <rect x="15.274" y="13.382" width=".124" height=".921" transform="translate(-5.296 14.897) rotate(-44.996)" fill="#fed700"/>
              <path d="M15.172,14.007c.006.052.004.105-.005.156-.008.047-.022.092-.042.136l-.123-.123-.122-.122c.043-.02.089-.034.136-.042.051-.009.103-.011.156-.005Z" fill="#fed700" fill-rule="evenodd"/>
              <path d="M15.258,13.92c.018.079.021.16.01.24-.01.073-.033.146-.069.213l-.041-.041c.025-.051.043-.106.052-.162.011-.061.012-.124.003-.186-.001-.01-.01-.018-.019-.019-.062-.009-.125-.008-.186.003-.056.01-.11.028-.162.053l-.041-.041c.067-.035.139-.058.213-.069.08-.011.161-.008.24.01Z" fill="#fed700" fill-rule="evenodd"/>
              <path d="M15.312,13.969l.232.232-.239.277-.073-.073c.041-.075.068-.156.08-.239.009-.065.009-.132,0-.197Z" fill="#fed700" fill-rule="evenodd"/>
              <path d="M14.976,13.633l.233.233c-.065-.009-.131-.009-.197,0-.083.012-.164.039-.239.08l-.073-.073.277-.239Z" fill="#fed700" fill-rule="evenodd"/>
              <path d="M15.685,14.04l-.137-.137.117-.101.122.122-.101.117h0ZM15.68,13.969l.029-.029c.015-.015.015-.039,0-.053-.015-.015-.039-.015-.054,0l-.028.028c-.009.009-.009.023,0,.032l.022.022c.009.008.023.009.032,0Z" fill="#fed700" fill-rule="evenodd"/>
              <path d="M15.333,13.688l.266-.23.122.122-.23.266-.158-.158h0ZM15.579,13.662l.028-.028c.015-.015.015-.039,0-.054-.015-.015-.038-.015-.053,0l-.028.029c-.009.009-.009.023,0,.031l.022.022c.009.009.023.009.032,0h0ZM15.476,13.765l.028-.028c.015-.015.015-.039,0-.054-.015-.015-.038-.015-.054,0l-.028.028c-.009.009-.009.023,0,.032l.022.022c.009.009.023.009.032,0Z" fill="#fed700" fill-rule="evenodd"/>
              <path d="M15.776,13.573l-.171-.171.062-.062.009.009-.007.007c-.009.009-.009.023,0,.032l.041.041c.008.008.023.008.031,0l.008-.008.009.009-.008.008c-.008.008-.009.023,0,.031l.04.041c.009.009.023.009.032,0l.007-.008.009.009-.062.062Z" fill="#fed700" fill-rule="evenodd"/>
              <path d="M15.433,13.507l-.171-.171.062-.062.009.008-.008.008c-.008.009-.008.023,0,.032l.04.041c.009.009.023.009.032,0l.008-.008.009.009-.008.008c-.009.009-.009.023,0,.032l.04.04c.009.009.023.009.031,0l.008-.008.009.009-.062.062Z" fill="#fed700" fill-rule="evenodd"/>
              <path d="M15.138,13.493l.117-.101.122.122-.101.117-.137-.137h0ZM15.263,13.552l.029-.029c.015-.015.015-.038,0-.054-.015-.015-.039-.015-.054,0l-.028.028c-.009.009-.009.023,0,.032l.022.022c.009.009.023.009.031,0Z" fill="#fed700" fill-rule="evenodd"/>
              <path d="M15.842,13.916l-.171-.171.062-.062.009.009-.007.007c-.009.009-.009.023,0,.032l.04.041c.009.008.023.008.032,0l.008-.008.009.009-.008.008c-.009.009-.009.023,0,.031l.04.041c.009.009.023.009.031,0l.008-.008.009.009-.062.062Z" fill="#fed700" fill-rule="evenodd"/>
            </g>
          </g>
        </g>
        <g>
          <g>
            <path d="M13.525,13.901c-.979,0-1.958-.648-1.958-1.944v-2.918c0-.022.018-.039.039-.039h3.838c.022,0,.039.017.039.039v2.918c0,.647-.245,1.133-.613,1.457l-.003.002c-.367.322-.855.484-1.343.484Z" fill-rule="evenodd"/>
            <path d="M11.645,11.957c0,1.243.94,1.865,1.88,1.865.47,0,.939-.155,1.291-.464l.002-.002c.352-.31.586-.776.586-1.398v-2.879h-3.759v2.879Z" fill="#fff" fill-rule="evenodd"/>
          </g>
          <g>
            <g>
              <g>
                <path d="M13.525,10.541c-.257,0-.444-.181-.444-.44v-.641c0-.013.01-.022.022-.022h.843c.012,0,.022.01.022.022v.641c0,.259-.186.44-.444.44Z" fill-rule="evenodd"/>
                <path d="M13.525,10.496c.233,0,.399-.161.399-.396v-.619h-.798v.619c0,.234.166.396.399.396Z" fill="#039" fill-rule="evenodd"/>
              </g>
              <g>
                <g>
                  <path d="M13.3,9.558c.067,0,.122.054.122.122s-.055.122-.122.122-.122-.054-.122-.122.055-.122.122-.122Z" fill-rule="evenodd"/>
                  <path d="M13.3,9.602c.043,0,.077.035.077.077s-.035.077-.077.077c-.042,0-.077-.035-.077-.077s.035-.077.077-.077Z" fill="#fff" fill-rule="evenodd"/>
                </g>
                <g>
                  <path d="M13.75,9.558c.067,0,.122.054.122.122s-.055.122-.122.122c-.067,0-.122-.054-.122-.122s.055-.122.122-.122Z" fill-rule="evenodd"/>
                  <path d="M13.75,9.602c.042,0,.077.035.077.077s-.035.077-.077.077c-.043,0-.077-.035-.077-.077s.035-.077.077-.077Z" fill="#fff" fill-rule="evenodd"/>
                </g>
                <g>
                  <path d="M13.3,10.009c.067,0,.122.054.122.122s-.055.122-.122.122-.122-.055-.122-.122.055-.122.122-.122Z" fill-rule="evenodd"/>
                  <path d="M13.3,10.053c.043,0,.077.035.077.077s-.035.077-.077.077c-.042,0-.077-.035-.077-.077s.035-.077.077-.077Z" fill="#fff" fill-rule="evenodd"/>
                </g>
                <g>
                  <path d="M13.75,10.009c.067,0,.122.054.122.122s-.055.122-.122.122c-.067,0-.122-.055-.122-.122s.055-.122.122-.122Z" fill-rule="evenodd"/>
                  <path d="M13.75,10.053c.042,0,.077.035.077.077s-.035.077-.077.077c-.043,0-.077-.035-.077-.077s.035-.077.077-.077Z" fill="#fff" fill-rule="evenodd"/>
                </g>
                <g>
                  <path d="M13.525,9.783c.068,0,.122.054.122.122s-.055.122-.122.122-.122-.055-.122-.122.055-.122.122-.122Z" fill-rule="evenodd"/>
                  <path d="M13.525,9.828c.043,0,.077.035.077.077s-.035.077-.077.077-.077-.034-.077-.077.035-.077.077-.077Z" fill="#fff" fill-rule="evenodd"/>
                </g>
              </g>
            </g>
            <g>
              <g>
                <path d="M13.525,13.463c-.257,0-.444-.181-.444-.441v-.641c0-.012.01-.022.022-.022h.843c.012,0,.022.01.022.022v.641c0,.259-.186.441-.444.441Z" fill-rule="evenodd"/>
                <path d="M13.525,13.418c.233,0,.399-.161.399-.396v-.619h-.798v.619c0,.234.166.396.399.396Z" fill="#039" fill-rule="evenodd"/>
              </g>
              <g>
                <g>
                  <path d="M13.3,12.48c.067,0,.122.055.122.122s-.055.122-.122.122-.122-.054-.122-.122.055-.122.122-.122Z" fill-rule="evenodd"/>
                  <path d="M13.3,12.525c.043,0,.077.035.077.077s-.035.077-.077.077c-.042,0-.077-.035-.077-.077s.035-.077.077-.077Z" fill="#fff" fill-rule="evenodd"/>
                </g>
                <g>
                  <path d="M13.75,12.48c.067,0,.122.055.122.122s-.055.122-.122.122c-.067,0-.122-.054-.122-.122s.055-.122.122-.122Z" fill-rule="evenodd"/>
                  <path d="M13.75,12.525c.042,0,.077.035.077.077s-.035.077-.077.077c-.043,0-.077-.035-.077-.077s.035-.077.077-.077Z" fill="#fff" fill-rule="evenodd"/>
                </g>
                <g>
                  <path d="M13.3,12.931c.067,0,.122.054.122.122s-.055.122-.122.122-.122-.055-.122-.122.055-.122.122-.122Z" fill-rule="evenodd"/>
                  <path d="M13.3,12.976c.043,0,.077.035.077.077s-.035.077-.077.077c-.042,0-.077-.035-.077-.077s.035-.077.077-.077Z" fill="#fff" fill-rule="evenodd"/>
                </g>
                <g>
                  <path d="M13.75,12.931c.067,0,.122.054.122.122s-.055.122-.122.122c-.067,0-.122-.055-.122-.122s.055-.122.122-.122Z" fill-rule="evenodd"/>
                  <path d="M13.75,12.976c.042,0,.077.035.077.077s-.035.077-.077.077c-.043,0-.077-.035-.077-.077s.035-.077.077-.077Z" fill="#fff" fill-rule="evenodd"/>
                </g>
                <g>
                  <path d="M13.525,12.706c.068,0,.122.054.122.122s-.055.122-.122.122-.122-.055-.122-.122.055-.122.122-.122Z" fill-rule="evenodd"/>
                  <circle cx="13.525" cy="12.828" r=".077" fill="#fff"/>
                </g>
              </g>
            </g>
            <g>
              <g>
                <path d="M13.525,12.002c-.257,0-.444-.182-.444-.441v-.641c0-.012.01-.022.022-.022h.843c.012,0,.022.01.022.022v.641c0,.259-.186.441-.444.441Z" fill-rule="evenodd"/>
                <path d="M13.525,11.957c.233,0,.399-.161.399-.396v-.619h-.798v.619c0,.234.166.396.399.396Z" fill="#039" fill-rule="evenodd"/>
              </g>
              <g>
                <g>
                  <path d="M13.3,11.019c.067,0,.122.055.122.122,0,.067-.055.122-.122.122s-.122-.055-.122-.122c0-.068.055-.122.122-.122Z" fill-rule="evenodd"/>
                  <path d="M13.3,11.064c.043,0,.077.035.077.077,0,.042-.035.077-.077.077-.042,0-.077-.035-.077-.077,0-.043.035-.077.077-.077Z" fill="#fff" fill-rule="evenodd"/>
                </g>
                <g>
                  <path d="M13.75,11.019c.067,0,.122.055.122.122,0,.067-.055.122-.122.122-.067,0-.122-.055-.122-.122,0-.068.055-.122.122-.122Z" fill-rule="evenodd"/>
                  <path d="M13.75,11.064c.042,0,.077.035.077.077,0,.042-.035.077-.077.077-.043,0-.077-.035-.077-.077,0-.043.035-.077.077-.077Z" fill="#fff" fill-rule="evenodd"/>
                </g>
                <g>
                  <path d="M13.3,11.47c.067,0,.122.055.122.122s-.055.122-.122.122-.122-.054-.122-.122.055-.122.122-.122Z" fill-rule="evenodd"/>
                  <path d="M13.3,11.515c.043,0,.077.035.077.077s-.035.077-.077.077c-.042,0-.077-.035-.077-.077s.035-.077.077-.077Z" fill="#fff" fill-rule="evenodd"/>
                </g>
                <g>
                  <path d="M13.75,11.47c.067,0,.122.055.122.122s-.055.122-.122.122c-.067,0-.122-.054-.122-.122s.055-.122.122-.122Z" fill-rule="evenodd"/>
                  <path d="M13.75,11.515c.042,0,.077.035.077.077s-.035.077-.077.077c-.043,0-.077-.035-.077-.077s.035-.077.077-.077Z" fill="#fff" fill-rule="evenodd"/>
                </g>
                <g>
                  <path d="M13.525,11.244c.068,0,.122.054.122.122s-.055.122-.122.122-.122-.055-.122-.122.055-.122.122-.122Z" fill-rule="evenodd"/>
                  <circle cx="13.525" cy="11.366" r=".077" fill="#fff"/>
                </g>
              </g>
            </g>
            <g>
              <g>
                <path d="M14.699,12.002c-.257,0-.444-.182-.444-.441v-.641c0-.012.01-.022.022-.022h.843c.012,0,.022.01.022.022v.641c0,.259-.186.441-.444.441Z" fill-rule="evenodd"/>
                <path d="M14.699,11.957c.233,0,.399-.161.399-.396v-.619h-.798v.619c0,.234.166.396.399.396Z" fill="#039" fill-rule="evenodd"/>
              </g>
              <g>
                <g>
                  <path d="M14.475,11.019c.067,0,.122.055.122.122,0,.067-.054.122-.122.122s-.122-.055-.122-.122c0-.068.054-.122.122-.122Z" fill-rule="evenodd"/>
                  <path d="M14.475,11.064c.043,0,.077.035.077.077,0,.042-.035.077-.077.077s-.077-.035-.077-.077c0-.043.035-.077.077-.077Z" fill="#fff" fill-rule="evenodd"/>
                </g>
                <g>
                  <path d="M14.924,11.019c.067,0,.122.055.122.122,0,.067-.054.122-.122.122s-.122-.055-.122-.122c0-.068.055-.122.122-.122Z" fill-rule="evenodd"/>
                  <path d="M14.924,11.064c.043,0,.077.035.077.077,0,.042-.035.077-.077.077s-.077-.035-.077-.077c0-.043.034-.077.077-.077Z" fill="#fff" fill-rule="evenodd"/>
                </g>
                <g>
                  <path d="M14.475,11.47c.067,0,.122.055.122.122s-.054.122-.122.122-.122-.054-.122-.122.054-.122.122-.122Z" fill-rule="evenodd"/>
                  <path d="M14.475,11.515c.043,0,.077.035.077.077s-.035.077-.077.077-.077-.035-.077-.077.035-.077.077-.077Z" fill="#fff" fill-rule="evenodd"/>
                </g>
                <g>
                  <path d="M14.924,11.47c.067,0,.122.055.122.122s-.054.122-.122.122-.122-.054-.122-.122.055-.122.122-.122Z" fill-rule="evenodd"/>
                  <path d="M14.924,11.515c.043,0,.077.035.077.077s-.035.077-.077.077-.077-.035-.077-.077.034-.077.077-.077Z" fill="#fff" fill-rule="evenodd"/>
                </g>
                <g>
                  <path d="M14.699,11.244c.067,0,.122.054.122.122s-.055.122-.122.122-.122-.055-.122-.122.055-.122.122-.122Z" fill-rule="evenodd"/>
                  <circle cx="14.699" cy="11.366" r=".077" fill="#fff"/>
                </g>
              </g>
            </g>
            <g>
              <g>
                <path d="M12.35,12.002c-.257,0-.444-.182-.444-.441v-.641c0-.012.01-.022.022-.022h.843c.012,0,.022.01.022.022v.641c0,.259-.186.441-.444.441Z" fill-rule="evenodd"/>
                <path d="M12.349,11.957c.233,0,.399-.161.399-.396v-.619h-.798v.619c0,.234.166.396.399.396Z" fill="#039" fill-rule="evenodd"/>
              </g>
              <g>
                <g>
                  <path d="M12.125,11.019c.067,0,.122.055.122.122,0,.067-.055.122-.122.122s-.122-.055-.122-.122c0-.068.054-.122.122-.122Z" fill-rule="evenodd"/>
                  <path d="M12.125,11.064c.043,0,.077.035.077.077,0,.042-.035.077-.077.077s-.077-.035-.077-.077c0-.043.035-.077.077-.077Z" fill="#fff" fill-rule="evenodd"/>
                </g>
                <g>
                  <path d="M12.574,11.019c.067,0,.122.055.122.122,0,.067-.055.122-.122.122s-.122-.055-.122-.122c0-.068.054-.122.122-.122Z" fill-rule="evenodd"/>
                  <path d="M12.574,11.064c.043,0,.077.035.077.077,0,.042-.035.077-.077.077s-.077-.035-.077-.077c0-.043.035-.077.077-.077Z" fill="#fff" fill-rule="evenodd"/>
                </g>
                <g>
                  <path d="M12.125,11.47c.067,0,.122.055.122.122s-.055.122-.122.122-.122-.054-.122-.122.054-.122.122-.122Z" fill-rule="evenodd"/>
                  <path d="M12.125,11.515c.043,0,.077.035.077.077s-.035.077-.077.077-.077-.035-.077-.077.035-.077.077-.077Z" fill="#fff" fill-rule="evenodd"/>
                </g>
                <g>
                  <path d="M12.574,11.47c.067,0,.122.055.122.122s-.055.122-.122.122-.122-.054-.122-.122.054-.122.122-.122Z" fill-rule="evenodd"/>
                  <path d="M12.574,11.515c.043,0,.077.035.077.077s-.035.077-.077.077-.077-.035-.077-.077.035-.077.077-.077Z" fill="#fff" fill-rule="evenodd"/>
                </g>
                <g>
                  <path d="M12.35,11.244c.068,0,.122.054.122.122s-.054.122-.122.122-.122-.055-.122-.122.055-.122.122-.122Z" fill-rule="evenodd"/>
                  <circle cx="12.35" cy="11.366" r=".077" fill="#fff"/>
                </g>
              </g>
            </g>
          </g>
        </g>
      </g>
    </g>
  </g>
</svg>