<?xml version="1.0" encoding="UTF-8"?>
<svg id="Layer_2" data-name="Layer 2" xmlns="http://www.w3.org/2000/svg" viewBox="0 0 118.972 79.168">
  <g id="Layer_1-2" data-name="Layer 1">
    <g>
      <rect width="118.972" height="79.168" fill="#ed1f24"/>
      <rect width="59.485" height="39.582" fill="#292a76"/>
      <polygon points="32.513 9.748 29.878 7.816 27.221 9.746 28.195 7.087 26.265 4.916 29.134 4.916 29.824 2.043 30.594 4.928 33.493 4.928 31.574 7.097 32.513 9.748" fill="#fff"/>
      <polygon points="22.956 19.306 20.321 17.375 17.664 19.305 18.637 16.645 16.707 14.475 19.576 14.475 20.266 11.602 21.036 14.485 23.936 14.485 22.017 16.654 22.956 19.306" fill="#fff"/>
      <polygon points="41.471 17.451 38.837 15.521 36.179 17.45 37.152 14.791 35.222 12.62 38.091 12.62 38.781 9.748 39.552 12.631 42.451 12.631 40.532 14.801 41.471 17.451" fill="#fff"/>
      <polygon points="33.191 37.402 29.874 34.973 26.527 37.4 27.754 34.053 25.324 31.32 28.936 31.32 29.805 27.703 30.774 31.334 34.424 31.334 32.008 34.065 33.191 37.402" fill="#fff"/>
      <polygon points="36.033 24.137 34.646 23.121 33.247 24.136 33.76 22.736 32.744 21.595 34.255 21.595 34.617 20.082 35.023 21.601 36.548 21.601 35.538 22.742 36.033 24.137" fill="#fff"/>
    </g>
  </g>
</svg>