<?xml version="1.0" encoding="UTF-8"?>
<svg id="Layer_2" data-name="Layer 2" xmlns="http://www.w3.org/2000/svg" xmlns:xlink="http://www.w3.org/1999/xlink" viewBox="0 0 118.972 79.17">
  <defs>
    <clipPath id="clippath">
      <path d="M0,39.584c0,21.862,17.723,39.586,39.585,39.586s39.585-17.724,39.585-39.586S61.447,0,39.585,0,0,17.723,0,39.584Z" fill="none"/>
    </clipPath>
  </defs>
  <g id="Layer_1-2" data-name="Layer 1">
    <g clip-path="url(#clippath)">
      <g>
        <rect y="0" width="118.972" height="79.168" fill="#ed1f24"/>
        <rect y="0" width="59.485" height="39.582" fill="#292a76"/>
        <polygon points="32.513 9.749 29.878 7.817 27.221 9.747 28.195 7.088 26.265 4.917 29.134 4.917 29.824 2.044 30.594 4.929 33.493 4.929 31.574 7.098 32.513 9.749" fill="#fff"/>
        <polygon points="22.956 19.307 20.321 17.376 17.664 19.306 18.637 16.646 16.706 14.476 19.576 14.476 20.266 11.602 21.036 14.486 23.935 14.486 22.017 16.655 22.956 19.307" fill="#fff"/>
        <polygon points="41.471 17.452 38.837 15.522 36.179 17.451 37.152 14.792 35.222 12.621 38.091 12.621 38.781 9.749 39.552 12.632 42.451 12.632 40.532 14.802 41.471 17.452" fill="#fff"/>
        <polygon points="33.191 37.403 29.874 34.974 26.527 37.401 27.754 34.054 25.324 31.321 28.936 31.321 29.805 27.704 30.774 31.335 34.424 31.335 32.008 34.066 33.191 37.403" fill="#fff"/>
        <polygon points="36.033 24.138 34.646 23.122 33.247 24.137 33.76 22.737 32.744 21.596 34.255 21.596 34.617 20.083 35.023 21.602 36.548 21.602 35.538 22.743 36.033 24.138" fill="#fff"/>
      </g>
    </g>
  </g>
</svg>