<?xml version="1.0" encoding="UTF-8"?>
<svg id="Layer_2" data-name="Layer 2" xmlns="http://www.w3.org/2000/svg" viewBox="0 0 33.945 22.63">
  <g id="_Ñëîé_1" data-name="Ñëîé 1">
    <g>
      <rect width="33.945" height="22.63" fill="#007c29"/>
      <g>
        <path d="M10.713,16.036h10.225c-.039-.049-.063-.114-.063-.187,0-.152.106-.275.238-.275s.238.123.238.275c0,.072-.024.138-.063.187h1.466c.218,0,.375.204.443.441.079.276.037.598-.169.699-.134.066-.306.024-.429-.134h-1.255c-.041.092-.105.152-.177.152-.123,0-.223-.174-.223-.39v-.275h-8.828c-.519,0-1.002-.182-1.401-.492h0ZM22.455,16.528h-1.051c-.067,0-.121.063-.121.14s.054.14.121.14h.34c.039-.071.108-.118.186-.118s.147.047.186.118h.34c.067,0,.121-.063.121-.14s-.054-.14-.121-.14Z" fill="#fff" fill-rule="evenodd"/>
        <g>
          <path d="M9.068,6.457c-.013.022-.036.038-.061.038-.04,0-.073-.036-.074-.081,0-.011.002-.022.005-.032.011-.034.017-.071.016-.109,0-.109-.051-.205-.127-.26-.052-.031-.088-.093-.089-.164,0-.104.073-.189.165-.19.055,0,.105.03.136.077.076.102.122.233.123.376.001.128-.034.248-.095.346Z" fill="#fff" fill-rule="evenodd"/>
          <path d="M8.549,10.126c.008-.012.021-.021.035-.021.023,0,.043.021.043.048,0,.007-.001.013-.003.019-.022.085-.04.186-.052.295-.034.314,0,.576.076.585.035.004.065-.045.08-.074.037-.064.087-.1.131-.087.053.015.083.095.078.193-.009.243-.145.436-.314.438-.26.003-.33-.343-.333-.576-.003-.312.095-.598.259-.821Z" fill="#fff" fill-rule="evenodd"/>
          <path d="M24.009,10.901c-.025.02-.039.045-.034.067.007.029.043.043.087.038.096-.013.166.003.181.048.023.073-.109.194-.294.271-.186.077-.356.08-.38.007-.017-.053.048-.131.157-.2.031-.022.054-.062.054-.106,0-.046-.022-.085-.055-.106-.059-.026-.097-.069-.097-.119,0-.079.099-.144.222-.144s.222.064.222.144c0,.039-.024.074-.062.1Z" fill="#fff" fill-rule="evenodd"/>
          <path d="M18.086,10.913c.105-.052.203-.087.313-.123.095-.029.184,0,.199.062.015.063-.05.138-.145.166-.151.048-.297.11-.437.184-.123.066-.254-.028-.217-.179.019-.073-.034-.147-.102-.128-.07.018-.126.011-.146-.027-.031-.062.047-.179.175-.263.128-.084.258-.101.289-.04.017.033.003.081-.033.131-.041.057-.048.172.016.213.026.017.057.017.087.003Z" fill="#fff" fill-rule="evenodd"/>
          <path d="M13.861,11.52c-.287,0-.512-.199-.619-.501-.022-.058-.075-.07-.122-.043-.24.131-.488.247-.742.348-1.124.427-.721-.124,0-.483.263-.127.518-.272.763-.433.036-.024.052-.042.062-.096.048-.249.154-.475.294-.65.025-.028.049-.042.064-.032.02.013.013.061.007.082-.024.086-.042.176-.054.27-.005.039-.009.078-.012.117,0,.047.041.021.061.007.196-.153.384-.316.565-.491.11-.112.18-.274.18-.455,0-.215-.115-.416-.264-.525-.086-.065-.143-.176-.143-.301,0-.2.144-.363.322-.363.089,0,.169.04.227.106.117.122.207.276.261.449.015.056.01.14-.056.092-.035-.023-.072-.042-.11-.057-.007-.003-.016-.004-.022.002-.009.011-.002.027.004.038.112.184.178.407.178.647,0,.387-.17.729-.431.936-.196.166-.4.32-.611.463-.053.035-.061.098-.026.153.068.104.158.164.263.164.496,0,1.035-.652,1.257-1.104.002-.398-.1-1.101-.369-1.544-.077-.127-.084-.303.002-.426.022-.032.046-.062.071-.09.045-.051.12-.049.169-.006.355.298.566.834.547,1.464-.002.082.04.137.093.064.282-.372.701-.608,1.169-.608.094,0,.165-.098.146-.201-.009-.044-.014-.091-.014-.139,0-.348.25-.63.558-.63s.558.282.558.63c0,.187-.072.354-.186.469-.239.238-.554.382-.899.382-.039,0-.071.015-.071.034,0,.018.032.034.071.034h1.515c.072,0,.161.03.105.126-.078.133-.138.283-.174.443-.013.063-.045.093-.096.112-.405.15-.832.244-1.275.272-.203.023-.357.141-.357.283,0,.064.031.122.083.17.118.094.247.17.386.224.042.022.07.069.07.124,0,.024-.005.047-.016.068-.028.056-.06.109-.095.158-.017.023-.036.035-.065.035-.633.019-1.235-.291-1.638-.843-.087-.12-.186-.013-.241.085-.308.544-.787.972-1.347.972h0ZM16.583,9.996c.054-.01.114-.05.114-.119,0-.082-.083-.122-.145-.122-.205.001-.407-.016-.609-.053-.143-.018-.268.088-.268.256,0,.064.02.124.057.172.115.149.247.282.392.393.021.015.039.023.065.023.06,0,.109-.052.113-.118.005-.23.111-.401.28-.432h0ZM17.313,8.319c-.022.043.023.119.102.17.078.051.159.057.181.014.022-.043-.023-.119-.101-.17-.078-.051-.16-.057-.182-.014Z" fill="#fff" fill-rule="evenodd"/>
          <path d="M16.39,8.083c.007.027.023.047.04.047.018,0,.033-.019.04-.047.014-.066.048-.112.087-.112.052,0,.093.082.093.183,0,.204-.176.318-.346.318-.167,0-.346-.112-.346-.318,0-.101.042-.183.093-.183.039,0,.072.046.086.111.005.02.019.048.04.048.017,0,.033-.019.04-.046.014-.067.047-.114.086-.114.039,0,.072.046.086.112Z" fill="#fff" fill-rule="evenodd"/>
          <path d="M12.962,10.047c.01-.036.015-.075.015-.116,0-.117-.045-.222-.118-.294-.1-.097-.14-.234-.087-.303.053-.069.177-.047.277.051.051.049.085.108.101.163.014.053.023.12.023.175,0,.139-.043.267-.114.368-.017.024-.053.055-.081.037-.019-.012-.025-.044-.017-.08Z" fill="#fff" fill-rule="evenodd"/>
          <path d="M10.756,5.809c.007.027.023.047.04.047.018,0,.033-.019.04-.047.014-.066.048-.112.086-.112.052,0,.094.082.094.183,0,.204-.176.318-.346.318-.167,0-.346-.112-.346-.318,0-.101.042-.183.094-.183.038,0,.072.046.086.111.005.02.019.048.04.048.018,0,.033-.019.04-.046.014-.067.047-.114.086-.114.039,0,.072.046.086.112Z" fill="#fff" fill-rule="evenodd"/>
          <path d="M19.632,7.075c.007.027.023.047.04.047.018,0,.033-.019.04-.047.014-.066.048-.112.087-.112.052,0,.093.082.093.183,0,.204-.176.318-.346.318-.167,0-.346-.112-.346-.318,0-.101.042-.183.093-.183.039,0,.072.046.086.111.004.021.018.048.04.048.017,0,.033-.019.04-.046.014-.067.047-.114.086-.114.039,0,.072.046.086.112Z" fill="#fff" fill-rule="evenodd"/>
          <path d="M19.459,6.548c.012-.044.018-.09.018-.138,0-.14-.054-.265-.141-.351-.12-.117-.167-.279-.104-.362.063-.082.211-.055.331.061.06.058.102.128.12.194.017.063.028.143.028.209,0,.166-.051.319-.137.439-.02.028-.063.066-.097.044-.023-.015-.03-.053-.02-.095Z" fill="#fff" fill-rule="evenodd"/>
          <path d="M8.56,9.457c-.041.02-.08.017-.093-.009-.008-.015-.004-.034.003-.048.204-.405,1.142-1.291,1.447-.684.015.034.006.07-.025.085l-1.332.656Z" fill="#fff" fill-rule="evenodd"/>
          <path d="M13.675,7.504c-.138.204-.336.298-.461.209-.146-.104-.126-.446-.002-.57.061-.06.136-.076.173-.034.029.033.027.091,0,.148-.036.073-.04.149-.003.191.043.048.126.036.198-.025.037-.042.087-.055.111-.029.021.024.014.071-.014.11Z" fill="#fff" fill-rule="evenodd"/>
          <path d="M15.49,6.09c-.005-.147.02-.322.07-.459.08-.22.267-.199.255.07-.008.16-.047.323-.112.464-.083.181-.206.142-.214-.075Z" fill="#fff" fill-rule="evenodd"/>
          <path d="M14.569,5.676c-.043.044-.12.171-.064.227.018.018.046.019.077.007.025-.013.048-.014.062,0,.025.025.012.086-.028.137-.065.082-.211.132-.283.07-.094-.081-.063-.305.069-.501.035-.052.073-.096.113-.132.032-.029.094-.067.129-.032.058.058-.031.179-.074.224Z" fill="#fff" fill-rule="evenodd"/>
          <path d="M12.431,7.273h.429c.038,0,.08-.027.107-.057l.782-.827c.018-.019.017-.051-.001-.069l-.083-.085c-.019-.019-.017-.045.005-.059.073-.053.12-.135.12-.227,0-.159-.14-.288-.313-.288s-.314.129-.314.288c0,.1.056.189.14.24.065.04.074.142.014.193l-.919.789c-.012.011-.02.027-.02.046,0,.031.023.057.05.057h0ZM13.396,5.936c.029-.034.092-.017.139.036.047.054.062.124.032.158-.03.033-.092.017-.14-.036-.047-.054-.062-.124-.032-.158Z" fill="#fff" fill-rule="evenodd"/>
          <path d="M22.94,8.511l-.877.627c-.009.007-.023.01-.034.01-.038,0-.069-.035-.069-.078v-.22c0-.023.01-.047.027-.06l.912-.652c.009-.006.019-.01.03-.01.029,0,.056.028.056.062.002.029.003.059.003.089,0,.053-.003.106-.008.158-.003.029-.018.056-.04.073Z" fill="#fff" fill-rule="evenodd"/>
          <path d="M17.238,6.373c.056.131.095.272.117.42.017.159.138.282.283.282.078,0,.135-.031.193-.084.076-.07.147-.1.183-.068.057.049.008.23-.109.403-.117.173-.258.274-.315.225-.025-.022-.029-.068-.017-.128.008-.049.024-.124-.022-.153-.046-.03-.128.03-.181.134-.105.215-.249.386-.484.386-.158,0-.3-.09-.401-.235-.051-.079-.131-.13-.219-.13-.092,0-.167.051-.221.133-.131.198-.304.321-.482.321-.333,0-.567-.429-.537-.969.001-.028.002-.091-.029-.1-.029-.008-.055.042-.064.066-.048.123-.084.252-.109.386-.046.259-.194.448-.37.448-.101,0-.172-.056-.237-.132-.211-.248-.34-.584-.34-.955,0-.132.016-.26.047-.381.022-.096.061-.161.104-.161.066,0,.12.146.123.331.01.229.061.446.147.64.022.05.055.119.112.119.084,0,.125-.149.141-.225.08-.371.253-.701.489-.957.037-.038.086-.061.14-.061.114,0,.207.105.207.234v.736c0,.219.159.398.353.398s.353-.179.353-.398v-.312c0-.192-.044-.372-.12-.529-.02-.042-.028-.086-.028-.134,0-.056.011-.1.035-.147l.133-.259c.024-.047.058-.091.11-.091.072,0,.112.085.135.152.105.316.143.658.108.997-.009.088,0,.191.028.296.07.26.239.433.376.386.137-.048.191-.297.12-.557-.033-.121-.087-.223-.149-.293-.061-.071-.11-.168-.134-.282-.056-.266.044-.52.223-.567.159-.042.303.1.393.231.123.178.164.374.091.438-.032.028-.081.025-.136-.002-.016-.008-.031-.019-.049-.008-.041.026-.007.119.009.157Z" fill="#fff" fill-rule="evenodd"/>
          <path d="M22.798,9.621c.023-.113,0-.234-.063-.326-.027-.041-.052-.091-.069-.147-.052-.173-.021-.341.07-.376.077-.03.172.047.231.176.054.116.082.236.082.368,0,.162-.041.3-.118.435-.032.059-.071.093-.102.082-.042-.015-.054-.107-.031-.211Z" fill="#fff" fill-rule="evenodd"/>
          <path d="M19.458,11.51c-.161,0-.305-.08-.403-.206-.029-.037-.026-.084.018-.103.399-.171.69-.423,1.064-.741.209-.178.241-.354.212-.617l-.378-3.407c-.032-.287.022-.566.139-.802.012-.024.029-.038.054-.038.026,0,.043.016.055.039l.362.709c.045.089.017.187-.074.217-.096.032-.124.108-.103.213.22,1.063.315,2.151.287,3.243-.003.122-.025.209-.068.313-.212.514-.605,1.179-1.166,1.179Z" fill="#fff" fill-rule="evenodd"/>
          <path d="M24.692,7.004c-.04.105-.099.176-.138.159-.036-.016-.042-.103-.016-.205.035-.14.026-.291-.077-.395-.101-.1-.218-.404-.076-.489.078-.047.199.036.269.186.101.213.122.519.038.743Z" fill="#fff" fill-rule="evenodd"/>
          <path d="M21.778,7.662c-.029-.041-.048-.094-.048-.15,0-.13.093-.236.209-.236.081,0,.151.052.186.128.01.021.03.035.052.035.033,0,.06-.03.06-.067,0-.01-.002-.017-.004-.025-.01-.028-.015-.058-.015-.089,0-.13.093-.236.209-.236.084,0,.157.057.19.138.038.091.063.192.072.297.003.037-.012.06-.046.049l-.06-.018c-.07-.021-.126.03-.126.114v.499c0,.024-.002.049-.022.065-.019.016-.04.01-.06,0-.236-.107-.441-.283-.595-.506Z" fill="#fff" fill-rule="evenodd"/>
          <path d="M21.229,9.622l-.511-3.209c-.046-.285-.004-.566.101-.809.011-.025.027-.04.052-.042.026-.002.044.013.057.036l.526.911c.017.03-.002.066-.034.066h-.135c-.046,0-.08.048-.071.099l.44,2.756c.01.072.016.146.016.222,0,.344-.11.659-.291.903-.026.036-.054.054-.076.044-.022-.01-.028-.046-.028-.07.002-.056.002-.111.002-.168,0-.251-.017-.498-.049-.739Z" fill="#fff" fill-rule="evenodd"/>
          <path d="M23.961,5.562c.131.299.251.605.359.918.015.044.029.11-.033.11h-.096c-.079,0-.061.084-.047.147.245,1.009.376,2.072.376,3.168,0,.13,0,.211-.083.305-.08.09-.164.177-.251.261-.018.017-.042.04-.066.028-.025-.013-.025-.053-.024-.081.009-.202.014-.406.014-.611,0-1.317-.188-2.585-.536-3.771-.016-.053-.025-.091-.025-.152,0-.109.024-.179.092-.247.049-.05.101-.096.155-.138.019-.015.037-.025.062-.025.05,0,.084.042.104.09Z" fill="#fff" fill-rule="evenodd"/>
          <path d="M25.354,6.492c.203.996.299,2.024.3,3.049.001.993.013,1.619-1.002,1.933-.267.082-.489.071-.524-.038-.039-.121.169-.32.471-.456.789-.34.709-1.102.609-1.872l-.385-2.938c-.028-.212,0-.413.096-.601.019-.034.045-.059.083-.059.032,0,.055.018.074.044l.519.703c.045.061.011.153-.06.153h-.12c-.039,0-.068.041-.06.084Z" fill="#fff" fill-rule="evenodd"/>
          <path d="M21.983,10.889c-.038.33-.2.58-.394.58-.373,0-.717-.585-.717-1.025,0-.209.044-.402.118-.552.008-.016.025-.044.043-.038.019.006.018.041.018.061-.002.036-.003.073-.003.111,0,.493.162.892.363.892.119,0,.225-.142.291-.361.072-.244.301-.838.61-.838.103,0,.198.064.277.173.136.223.296.345.429.3.152-.052.226-.309.207-.64l-.162-2.289c-.032-.483-.108-.952-.225-1.402-.023-.089-.026-.167.029-.244.034-.048.071-.093.111-.135.028-.03.058-.022.079.014l.456.782c.03.051.091.18.037.227-.034.029-.086-.006-.119-.028-.071-.047-.078.015-.065.085.204,1.05.312,2.139.314,3.257,0,.501-.167,1.021-.703,1.021-.238,0-.449-.143-.576-.362-.042-.064-.091-.101-.144-.101-.127,0-.235.215-.272.513Z" fill="#fff" fill-rule="evenodd"/>
          <path d="M11.378,6.755c.046.08.088.171.12.271.09.276.144.689-.097.886-.096.078-.204.138-.32.177-.195.065-.393-.009-.561-.133-.018-.014-.039-.022-.063-.022-.072,0-.116.067-.11.145.03.322.049.648.054.978.003.175-.044.811-.268.811-.109,0-.134-.234-.132-.332.008-.288.006-.576-.005-.863,0-.155-.088-.409-.26-.355-.024.011-.05.017-.076.017-.19,0-.345-.313-.345-.699v-.194c0-.203-.034-.368-.076-.368-.042,0-.076.165-.076.368,0,.254-.018.75-.324.757-.443-.011-.505-.948-.484-1.33.008-.178.052-.313.105-.313.057,0,.112.207.127.261.043.149.077.321.097.506.017.176.066.302.123.302.062,0,.114-.149.127-.348.005-.069.014-.141.028-.214.081-.417.296-.718.479-.672.179.044.262.4.192.803-.008.043-.013.091-.013.142,0,.172.054.312.119.312s.119-.14.119-.312c0-.237-.113-.701-.168-.94-.033-.148-.087-.585.073-.619.088-.019.192.145.243.375.092.355.169.718.23,1.087.01.063.072.211.133.184.061-.027.023-.168-.004-.218-.052-.09-.097-.208-.128-.34-.076-.325-.035-.618.09-.655.125-.037.288.196.364.521.043.183.049.357.023.48.13.188.339.414.449.314.128-.117-.113-.467-.179-.589-.177-.325-.192-.677-.034-.787.169-.117.436.106.527.266.063.11.071.231.018.269-.024.017-.056.015-.09-.003-.012-.006-.023-.007-.032,0-.016.012-.014.045.003.075Z" fill="#fff" fill-rule="evenodd"/>
          <path d="M22.273,5.533c.194.173.372.37.529.585.025.035.049.084-.011.084h-.048c-.057,0-.035.059-.007.09.898,1.009,1.699,2.125,2.389,3.331.042.074.057.131.058.216.001.125-.006.246-.026.361-.007.046-.029.121-.071.121-.026,0-.039-.026-.051-.046-.758-1.346-1.657-2.581-2.672-3.682-.179-.194-.212-.218-.231-.508-.008-.11-.012-.221-.012-.334,0-.087.038-.322.154-.217Z" fill="#fff" fill-rule="evenodd"/>
          <path d="M18.503,5.548c.291.266.498.63.604,1.048.006.023.016.073-.006.086-.013.008-.028-.003-.039-.011-.015-.011-.03-.022-.046-.033-.045-.032-.038.038-.033.069.16.917.243,1.864.243,2.833,0,.224-.005.446-.014.667-.005.126-.013.204-.075.305-.075.123-.158.24-.247.35-.017.021-.045.062-.075.053-.053-.016-.042-.17-.039-.232.014-.278.021-.558.021-.84,0-1.355-.163-2.668-.469-3.913-.017-.071-.018-.111.012-.176.029-.062.059-.123.09-.183.019-.035.041-.051.072-.022Z" fill="#fff" fill-rule="evenodd"/>
          <path d="M17.64,5.516c.322.181.613.421.862.709.039.044.045.085-.021.085h-.234c-.098,0-.048.074-.003.126.718.838,1.342,1.78,1.852,2.803.143.287.152.367.113.706-.016.143-.08.304-.169.101-.585-1.329-1.363-2.532-2.293-3.561-.13-.143-.183-.244-.218-.444-.019-.108-.032-.218-.036-.331-.002-.074.006-.195.079-.213.028-.007.045.006.068.019Z" fill="#fff" fill-rule="evenodd"/>
          <path d="M11.988,6.887c.08.42.144.847.192,1.28.009.086.013.152.098.1.054-.032.108-.041.154-.02.064.029.104.108.116.214.013.095.055.166.115.177.063.012.128-.048.165-.144.071-.193.19-.317.298-.293.062.014.109.073.139.16.026.072.064.117.101.113.052-.006.086-.103.086-.228,0-.068.024-.093.069-.115.054-.027.111-.048.171-.06.045-.009.06.002.061.056.001.194-.016.381-.055.57-.038.211-.204.371-.402.371-.12,0-.229-.058-.304-.152-.095.16-.258.265-.442.265-.086,0-.168-.023-.24-.065-.052-.029-.053.008-.052.062.005.099.008.198.011.297.077,1.26-.834,2.115-1.905,2.115-.838,0-1.294-.428-1.152-1.485.012-.094.049-.265.141-.265.097,0,.135.192.143.28.074.762.609.997,1.151.867.732-.175,1.187-.869,1.221-1.673.001-.03.003-.099-.027-.106-.038-.009-.068.102-.074.134-.162.819-.707,1.422-1.354,1.422-.524,0-.86-.294-.86-.954,0-.11.036-.564.18-.564.103,0,.134.207.137.295.011.326.132.689.444.677.494-.006.918-.348,1.109-.837.013-.037.014-.071-.002-.083-.015-.012-.041-.002-.066.023-.158.166-.37.222-.541.122-.231-.135-.299-.505-.151-.826.147-.321.454-.472.685-.337.076.044.134.114.173.199.063.124.155.196.226.167.062-.026.093-.12.086-.237-.056-.802-.169-1.586-.336-2.346-.018-.082-.02-.177.052-.23.058-.043.119-.08.183-.111.072-.035.124.018.158.083.139.274.256.565.348.868.015.051.017.098-.039.098-.052,0-.104-.005-.154-.011-.067-.009-.067.074-.057.127h0ZM11.066,8.739c-.071.026-.113.101-.094.167.019.066.092.098.163.072.071-.026.113-.101.094-.167-.019-.066-.092-.098-.163-.072Z" fill="#fff" fill-rule="evenodd"/>
        </g>
      </g>
    </g>
  </g>
</svg>