<?xml version="1.0" encoding="UTF-8"?>
<svg id="Layer_2" data-name="Layer 2" xmlns="http://www.w3.org/2000/svg" viewBox="0 0 118.972 79.168">
  <g id="Layer_1-2" data-name="Layer 1">
    <g>
      <rect width="118.972" height="79.168" fill="#fff"/>
      <rect width="118.972" height="39.584" fill="#ef4848"/>
      <path d="M31.271,32.277c-7.489,0-13.559-6.071-13.559-13.559,0-7.243,5.679-13.159,12.829-13.539-1.4-.444-2.89-.685-4.436-.685-8.105,0-14.676,6.57-14.676,14.676s6.57,14.676,14.676,14.676c2.453,0,4.764-.605,6.797-1.669-.535.063-1.079.101-1.631.101Z" fill="#fff"/>
      <polygon points="35.847 13.265 34.037 12.049 32.221 13.265 32.774 11.178 31.024 9.781 33.323 9.745 34.074 7.578 34.753 9.741 37.165 9.746 35.301 11.178 35.847 13.265" fill="#fff"/>
      <polygon points="43.62 19.17 41.809 17.955 39.994 19.17 40.547 17.082 38.797 15.688 41.096 15.65 41.847 13.482 42.525 15.646 44.938 15.652 43.073 17.082 43.62 19.17" fill="#fff"/>
      <polygon points="27.921 19.17 26.111 17.955 24.295 19.17 24.848 17.082 23.098 15.688 25.397 15.65 26.148 13.482 26.828 15.646 29.239 15.652 27.375 17.082 27.921 19.17" fill="#fff"/>
      <polygon points="30.992 28.49 29.182 27.274 27.366 28.49 27.918 26.402 26.169 25.007 28.468 24.971 29.219 22.803 29.898 24.967 32.31 24.972 30.446 26.402 30.992 28.49" fill="#fff"/>
      <polygon points="40.819 28.49 39.009 27.274 37.193 28.49 37.746 26.402 35.996 25.007 38.296 24.971 39.046 22.803 39.726 24.967 42.138 24.972 40.273 26.402 40.819 28.49" fill="#fff"/>
    </g>
  </g>
</svg>