<?xml version="1.0" encoding="UTF-8"?>
<svg id="Layer_2" data-name="Layer 2" xmlns="http://www.w3.org/2000/svg" xmlns:xlink="http://www.w3.org/1999/xlink" viewBox="0 0 119.071 79.17">
  <defs>
    <clipPath id="clippath">
      <path d="M0,39.584c0,21.861,17.723,39.586,39.585,39.586s39.585-17.725,39.585-39.586S61.447,0,39.585,0,0,17.723,0,39.584Z" fill="none"/>
    </clipPath>
  </defs>
  <g id="Layer_1-2" data-name="Layer 1">
    <g clip-path="url(#clippath)">
      <g>
        <rect x=".099" y="0" width="118.972" height="79.168" fill="#fff"/>
        <rect x=".099" y="0" width="118.972" height="39.584" fill="#ef4848"/>
        <path d="M31.37,32.278c-7.489,0-13.559-6.071-13.559-13.56,0-7.243,5.679-13.159,12.829-13.539-1.4-.444-2.89-.685-4.436-.685-8.105,0-14.676,6.57-14.676,14.676s6.57,14.676,14.676,14.676c2.453,0,4.764-.605,6.797-1.669-.535.064-1.079.101-1.631.101Z" fill="#fff"/>
        <polygon points="35.946 13.266 34.136 12.05 32.32 13.266 32.873 11.179 31.123 9.782 33.422 9.746 34.173 7.579 34.852 9.742 37.265 9.747 35.4 11.179 35.946 13.266" fill="#fff"/>
        <polygon points="43.719 19.171 41.909 17.956 40.093 19.171 40.645 17.083 38.896 15.688 41.194 15.651 41.946 13.483 42.624 15.647 45.038 15.653 43.173 17.083 43.719 19.171" fill="#fff"/>
        <polygon points="28.02 19.171 26.21 17.956 24.394 19.171 24.947 17.083 23.197 15.688 25.496 15.651 26.247 13.483 26.927 15.647 29.338 15.653 27.474 17.083 28.02 19.171" fill="#fff"/>
        <polygon points="31.091 28.491 29.281 27.275 27.465 28.491 28.017 26.403 26.268 25.008 28.567 24.972 29.318 22.804 29.997 24.968 32.41 24.973 30.545 26.403 31.091 28.491" fill="#fff"/>
        <polygon points="40.919 28.491 39.108 27.275 37.292 28.491 37.845 26.403 36.095 25.008 38.395 24.972 39.145 22.804 39.825 24.968 42.237 24.973 40.372 26.403 40.919 28.491" fill="#fff"/>
      </g>
    </g>
  </g>
</svg>