<svg xmlns="http://www.w3.org/2000/svg" id="Layer_2" data-name="Layer 2" viewBox="0 0 33.945 22.631">
  <defs><clipPath id="circleClip"><circle cx="16.9725" cy="11.3155" r="11.3155" /></clipPath></defs><g clip-path="url(#circleClip)"><g id="_&#209;&#235;&#238;&#233;_1" data-name="&#209;&#235;&#238;&#233; 1">
    <g>
      <g>
        <rect width="33.945" height="7.543" fill="#fff" />
        <rect y="15.087" width="33.945" height="7.544" fill="red" />
        <rect y="7.543" width="33.945" height="7.543" fill="#039" />
      </g>
      <g>
        <path d="M13.677,5.193v5.276c0,3.08-1.938,5.837-4.814,6.907l-.166.062-.166-.062c-2.876-1.07-4.814-3.827-4.814-6.907v-5.276h9.959Z" fill="#fff" fill-rule="evenodd" />
        <path d="M13.202,5.668v4.801c0,2.952-1.881,5.486-4.504,6.462-2.623-.976-4.504-3.51-4.504-6.462v-4.801h9.008Z" fill="red" fill-rule="evenodd" />
        <path d="M12.372,13.737c-.794,1.461-2.1,2.608-3.674,3.194-1.574-.586-2.881-1.733-3.674-3.194.291-.366.74-.6,1.243-.6.351,0,.675.114.937.306.22-.612.806-1.049,1.494-1.049s1.274.437,1.494,1.049c.263-.192.587-.306.938-.306.504,0,.952.234,1.243.6Z" fill="red" fill-rule="evenodd" />
        <path d="M9.089,16.771c-.128.057-.259.111-.391.16-.132-.049-.263-.103-.392-.16v-6.083h-.341c-.703,0-1.389.101-2.042.291.016-.224.024-.45.024-.678,0-.231-.009-.46-.025-.687.653.19,1.34.291,2.043.291h.341v-1.246c-.644.015-1.273.114-1.874.289.016-.224.025-.45.025-.678,0-.231-.009-.46-.025-.687.6.174,1.227.274,1.87.289-.021-.616-.12-1.218-.287-1.794.224.016.45.025.678.025.231,0,.46-.009.687-.025-.168.576-.266,1.178-.287,1.795.643-.015,1.271-.115,1.87-.289-.016.227-.025.456-.025.687,0,.228.009.454.025.678-.601-.175-1.23-.275-1.874-.289v1.246h.341c.703,0,1.39-.101,2.043-.291-.016.227-.025.456-.025.687,0,.228.008.454.024.678-.653-.19-1.339-.291-2.042-.291h-.341v6.083Z" fill="#fff" fill-rule="evenodd" />
        <path d="M12.372,13.737c-.794,1.461-2.1,2.608-3.674,3.194-1.574-.586-2.881-1.733-3.674-3.194.291-.366.74-.6,1.243-.6.351,0,.675.114.937.306.22-.612.806-1.049,1.494-1.049s1.274.437,1.494,1.049c.263-.192.587-.306.938-.306.504,0,.952.234,1.243.6Z" fill="#039" fill-rule="evenodd" />
      </g>
    </g>
  </g>
</g></svg>