<?xml version="1.0" encoding="UTF-8"?>
<svg id="Layer_2" data-name="Layer 2" xmlns="http://www.w3.org/2000/svg" viewBox="0 0 33.945 22.631">
  <g id="_Ñëîé_1" data-name="Ñëîé 1">
    <g>
      <g>
        <rect y="15.087" width="33.945" height="7.543" fill="red"/>
        <rect y="7.543" width="33.945" height="7.544" fill="#039"/>
        <rect width="33.945" height="7.543" fill="#fff"/>
      </g>
      <g>
        <path d="M6.483,7.741l-.182-3.345c.9-.432,1.909-.674,2.974-.674s2.074.242,2.974.674l-.182,3.345c-.076,1.707-1.227,3.135-2.792,3.623-1.565-.488-2.716-1.916-2.792-3.623Z" fill="red" fill-rule="evenodd"/>
        <path d="M9.275,11.147c1.482-.491,2.515-1.851,2.585-3.416l.186-3.428c-.848-.373-1.785-.581-2.771-.581s-1.924.208-2.771.581l.186,3.428c.07,1.565,1.103,2.925,2.585,3.416Z" fill="#039" fill-rule="evenodd"/>
        <path d="M9.275,10.911c.577-.204,1.078-.55,1.468-.989-.173-.003-.34-.057-.482-.155-.074-.044-.158-.067-.244-.067-.086,0-.169.023-.243.066-.147.102-.321.155-.5.155s-.352-.054-.499-.155c-.074-.044-.157-.066-.243-.066s-.17.023-.244.067c-.142.098-.309.151-.482.155.391.44.892.785,1.468.989h0ZM10.923,9.701c-.052.013-.107.02-.163.02-.145,0-.279-.045-.39-.123-.103-.062-.224-.099-.353-.099s-.249.036-.352.098c-.111.078-.245.123-.39.123s-.28-.046-.39-.123c-.103-.062-.223-.098-.352-.098s-.25.036-.353.099c-.11.078-.245.123-.389.123-.056,0-.111-.007-.163-.02-.067-.089-.13-.181-.188-.276.108.047.227.073.352.073.179,0,.352-.053.499-.155.074-.044.158-.067.244-.067s.169.023.243.066c.147.102.321.155.499.155s.352-.054.5-.155c.074-.044.157-.066.243-.066.086,0,.17.023.244.067.147.101.32.155.499.155.125,0,.244-.026.351-.073-.059.095-.122.187-.189.276h0ZM11.377,8.904c.059-.145.109-.294.149-.446l-1.131-1.534-.459.623-.66-1.38-.66,1.38-.46-.623-1.131,1.534c.04.152.089.3.148.444.107.234.343.396.618.396.145,0,.279-.045.389-.123.103-.063.224-.099.353-.099s.25.036.352.098c.11.078.245.123.39.123s.28-.046.39-.123c.103-.062.223-.098.352-.098s.25.036.353.099c.111.077.245.123.39.123.273,0,.508-.162.616-.394Z" fill="#fff" fill-rule="evenodd"/>
        <g>
          <polygon points="9.275 4.972 9.348 5.206 9.588 5.152 9.421 5.332 9.588 5.513 9.348 5.459 9.275 5.694 9.202 5.459 8.963 5.513 9.129 5.332 8.963 5.152 9.202 5.206 9.275 4.972" fill="#fed700" fill-rule="evenodd"/>
          <g>
            <polygon points="8.479 3.942 8.552 4.177 8.792 4.123 8.625 4.303 8.792 4.484 8.552 4.429 8.479 4.664 8.406 4.429 8.167 4.484 8.333 4.303 8.167 4.123 8.406 4.177 8.479 3.942" fill="#fed700" fill-rule="evenodd"/>
            <polygon points="10.071 3.942 10.144 4.177 10.384 4.123 10.217 4.303 10.384 4.484 10.144 4.429 10.071 4.664 9.998 4.429 9.759 4.484 9.925 4.303 9.759 4.123 9.998 4.177 10.071 3.942" fill="#fed700" fill-rule="evenodd"/>
          </g>
        </g>
      </g>
    </g>
  </g>
</svg>