<?xml version="1.0" encoding="UTF-8"?>
<svg id="Layer_2" data-name="Layer 2" xmlns="http://www.w3.org/2000/svg" viewBox="0 0 118.973 79.162">
  <g id="Layer_1-2" data-name="Layer 1">
    <g>
      <rect width="118.973" height="79.162" fill="#2657a7"/>
      <polygon points="0 75.212 113.11 0 118.97 0 118.97 4.256 6.465 79.162 0 79.162 0 75.212" fill="#fbd116"/>
      <polygon points="118.973 79.162 118.97 4.256 6.465 79.162 118.973 79.162" fill="#225b34"/>
      <polygon points="9.949 1.755 11.818 6.776 17.572 6.814 12.983 10.22 14.659 14.998 9.949 12.222 5.238 14.998 6.814 10.407 2.325 6.814 7.842 6.776 9.949 1.755" fill="#fff"/>
      <polygon points="31.675 1.755 33.544 6.776 39.299 6.814 34.71 10.22 36.386 14.998 31.675 12.222 26.964 14.998 28.54 10.407 24.052 6.814 29.569 6.776 31.675 1.755" fill="#fff"/>
      <polygon points="20.975 16.174 22.844 21.195 28.598 21.233 24.009 24.639 25.685 29.418 20.975 26.641 16.264 29.418 17.84 24.826 13.351 21.233 18.868 21.195 20.975 16.174" fill="#fff"/>
      <polygon points="9.949 30.837 11.818 35.857 17.572 35.895 12.983 39.301 14.659 44.081 9.949 41.304 5.238 44.081 6.814 39.489 2.325 35.895 7.842 35.857 9.949 30.837" fill="#fff"/>
      <polygon points="31.675 30.837 33.544 35.857 39.299 35.895 34.71 39.301 36.386 44.081 31.675 41.304 26.964 44.081 28.54 39.489 24.052 35.895 29.569 35.857 31.675 30.837" fill="#fff"/>
    </g>
  </g>
</svg>