<?xml version="1.0" encoding="UTF-8"?>
<svg id="Layer_2" data-name="Layer 2" xmlns="http://www.w3.org/2000/svg" xmlns:xlink="http://www.w3.org/1999/xlink" viewBox="0 0 119.073 79.17">
  <defs>
    <clipPath id="clippath">
      <path d="M0,39.584c0,21.862,17.723,39.586,39.585,39.586s39.585-17.724,39.585-39.586S61.447,0,39.585,0,0,17.723,0,39.584Z" fill="none"/>
    </clipPath>
  </defs>
  <g id="Layer_1-2" data-name="Layer 1">
    <g clip-path="url(#clippath)">
      <g>
        <rect x=".1" y=".004" width="118.973" height="79.162" fill="#2657a7"/>
        <polygon points=".1 75.216 113.21 .004 119.07 .004 119.07 4.26 6.565 79.166 .1 79.166 .1 75.216" fill="#fbd116"/>
        <polygon points="119.073 79.166 119.07 4.26 6.565 79.166 119.073 79.166" fill="#225b34"/>
        <polygon points="10.049 1.759 11.918 6.78 17.672 6.818 13.083 10.224 14.759 15.002 10.049 12.226 5.338 15.002 6.914 10.411 2.425 6.818 7.942 6.78 10.049 1.759" fill="#fff"/>
        <polygon points="31.775 1.759 33.644 6.78 39.399 6.818 34.81 10.224 36.486 15.002 31.775 12.226 27.064 15.002 28.641 10.411 24.152 6.818 29.669 6.78 31.775 1.759" fill="#fff"/>
        <polygon points="21.075 16.178 22.944 21.199 28.698 21.237 24.109 24.642 25.786 29.422 21.075 26.645 16.364 29.422 17.94 24.83 13.451 21.237 18.968 21.199 21.075 16.178" fill="#fff"/>
        <polygon points="10.049 30.841 11.918 35.861 17.672 35.899 13.083 39.305 14.759 44.084 10.049 41.308 5.338 44.084 6.914 39.493 2.425 35.899 7.942 35.861 10.049 30.841" fill="#fff"/>
        <polygon points="31.775 30.841 33.644 35.861 39.399 35.899 34.81 39.305 36.486 44.084 31.775 41.308 27.064 44.084 28.641 39.493 24.152 35.899 29.669 35.861 31.775 30.841" fill="#fff"/>
      </g>
    </g>
  </g>
</svg>