<svg xmlns="http://www.w3.org/2000/svg" id="Layer_2" data-name="Layer 2" viewBox="0 0 23.552 18.235">
  <defs><clipPath id="circleClip"><circle cx="11.776" cy="9.1175" r="9.1175" /></clipPath></defs><g clip-path="url(#circleClip)"><g id="_&#209;&#235;&#238;&#233;_1" data-name="&#209;&#235;&#238;&#233; 1">
    <g>
      <g>
        <path d="M11.776,14.761c-3.116,0-5.643-2.527-5.643-5.643s2.526-5.643,5.643-5.643,5.643,2.526,5.643,5.643-2.526,5.643-5.643,5.643Z" fill="red" fill-rule="evenodd" />
        <path d="M11.776,14.761c-3.116,0-5.643-2.527-5.643-5.643,0-1.178.361-2.271.978-3.176-.308.452-.488.998-.488,1.586,0,1.559,1.263,2.822,2.821,2.822.964,0,1.815-.484,2.324-1.221.507-.75,1.366-1.244,2.34-1.244,1.558,0,2.821,1.263,2.821,2.822,0,.592-.183,1.142-.494,1.595-1.016,1.485-2.724,2.459-4.659,2.459Z" fill="#039" fill-rule="evenodd" />
      </g>
      <path d="M.794,5.194L3.911.499l-.751-.499L.042,4.695l.751.499h0ZM3.135,6.749l-.751-.499L5.502,1.555l.751.499-3.118,4.695h0ZM1.964,5.971l-.751-.499L4.331.777l.751.499L1.964,5.971Z" fill-rule="evenodd" />
      <path d="M18.092,16.68l1.42-2.138-.751-.499-1.42,2.138.751.499h0ZM19.79,14.123l-.751-.499,1.42-2.138.751.499-1.42,2.138h0ZM20.434,18.235l1.419-2.138-.751-.499-1.419,2.138.751.499h0ZM22.132,15.678l-.751-.499,1.42-2.138.751.499-1.42,2.138h0ZM19.263,17.458l-.751-.499,1.42-2.138.751.499-1.42,2.138h0ZM20.961,14.901l1.42-2.138-.751-.499-1.42,2.138.751.499Z" fill-rule="evenodd" />
      <path d="M21.587,5.971l-3.118-4.695.751-.499,3.118,4.695-.751.499h0ZM20.416,6.749l.751-.499-1.419-2.138-.751.499,1.42,2.138h0ZM18.718,4.191l.751-.499-1.419-2.138-.751.499,1.42,2.138h0ZM22.758,5.194l.751-.499-1.42-2.138-.751.499,1.419,2.138h0ZM21.06,2.636l.751-.499-1.42-2.138-.751.499,1.42,2.138Z" fill-rule="evenodd" />
      <path d="M2.59,14.901l-1.42-2.138.751-.499,1.42,2.138-.751.499h0ZM3.118,18.235l.751-.499L.751,13.041l-.751.499,3.118,4.695h0ZM5.459,16.68l.751-.499-3.118-4.695-.751.499,3.118,4.695h0ZM4.288,17.458l.751-.499-1.419-2.138-.751.499,1.419,2.138Z" fill-rule="evenodd" />
    </g>
  </g>
</g></svg>