<?xml version="1.0" encoding="UTF-8"?>
<svg id="Layer_2" data-name="Layer 2" xmlns="http://www.w3.org/2000/svg" viewBox="0 0 118.973 79.137">
  <g id="Layer_1-2" data-name="Layer 1">
    <g>
      <rect width="118.973" height="79.137" fill="#de3930"/>
      <polygon points="24.026 0 63.324 26.373 118.973 26.373 118.973 31.659 61.662 31.659 14.411 0 24.026 0" fill="#fff"/>
      <polygon points="14.411 0 0 0 0 9.6 45.042 39.567 0 69.676 0 79.137 14.411 79.137 61.662 47.414 118.973 47.516 118.973 31.659 61.662 31.659 14.411 0" fill="#007b4e"/>
      <polygon points="0 9.6 45.042 39.567 0 69.676 0 63.374 35.426 39.567 0 15.83 0 9.6" fill="#fdb516"/>
      <polygon points="0 15.83 35.426 39.567 0 63.374 0 15.83"/>
      <polygon points="14.411 79.137 61.662 47.414 118.973 47.516 118.973 52.598 63.444 52.802 23.909 79.137 14.411 79.137" fill="#fff"/>
      <polygon points="23.909 79.137 118.973 79.137 118.973 52.598 63.444 52.802 23.909 79.137" fill="#293689"/>
    </g>
  </g>
</svg>