<svg xmlns="http://www.w3.org/2000/svg" id="Layer_2" data-name="Layer 2" viewBox="0 0 33.878 22.631">
  <defs><clipPath id="circleClip"><circle cx="16.939" cy="11.3155" r="11.3155" /></clipPath></defs><g clip-path="url(#circleClip)"><g id="_&#209;&#235;&#238;&#233;_1" data-name="&#209;&#235;&#238;&#233; 1">
    <g>
      <rect width="33.878" height="22.631" fill="#fed700" />
      <g>
        <g>
          <rect x="1.581" y="1.564" width="4.401" height="19.486" fill="#007c29" />
          <rect x="5.983" y="1.564" width="4.401" height="19.486" fill="#f60" />
        </g>
        <g>
          <rect x="11.965" y="1.564" width="20.332" height="19.486" fill="#8d153a" />
          <path d="M15.532,11.959l1.341,1.342c-.037-.174-.056-.354-.056-.54,0-.51.148-.987.403-1.388.264-.414.642-.748,1.09-.958.176-.086.339-.198.483-.331.066-.066.077-.16.008-.229-.081-.08-.186-.048-.251.035-.055.071-.088.171-.099.246-.005.035-.046.052-.075.032-.092-.064-.174-.144-.24-.235-.045-.061-.083-.128-.113-.199-.029.062-.05.127-.062.194-.006.033-.035.044-.065.036-.136-.052-.248-.154-.313-.284-.092.04-.187.075-.285.104-.11.033-.225.059-.342.078-.041.006-.069-.038-.048-.072l.175-.303c-.091.028-.183.05-.277.066-.136.023-.274.032-.414.028-.034,0-.049-.029-.045-.06l.192-.717c.02-.076.073-.138.144-.172-.091-.055-.162-.125-.205-.194-.051-.081-.063-.164-.025-.23.036-.063.109-.093.2-.093.081,0,.178.025.272.075.281.148.579.267.891.354.271.076.552.128.84.152-.028-.035-.057-.069-.087-.102-.141-.153-.267-.32-.376-.498-.022.082-.035.166-.041.251-.002.036-.043.056-.074.037-.109-.061-.209-.136-.298-.223v.164c0,.038-.041.06-.072.041-.293-.145-.647-.441-.909-.78-.222-.289-.379-.61-.379-.903,0-.268.217-.485.485-.485.13,0,.248.051.335.134.092.088.146.208.15.335l1.297-.175c.106-.015.196-.07.256-.149.086-.113.103-.264.046-.392-.012-.027.002-.055.029-.065.127-.039.258-.059.391-.059.318,0,.622.114.862.324.053-.16.068-.314.057-.483-.002-.032.022-.052.053-.051.189.013.368.067.526.153.143.077.27.18.374.302.064-.124.107-.258.125-.396.004-.027.028-.044.054-.041.304.044.581.196.786.425.068.065.157.1.251.1.081,0,.159-.026.223-.076.11-.088.203-.192.278-.312.024-.04.085-.024.088.022.014.221-.03.444-.125.643-.077.16-.185.303-.317.419.158.152.248.361.248.58v1.495c0,.037-.04.06-.072.041-.04-.019-.079-.04-.117-.062.003.103.017.205.041.305.03.127.075.251.136.367.02.039-.019.082-.06.067-.105-.032-.205-.075-.3-.126.039.246.136.48.282.681h4.598c.306,0,.79-.089,1.138-.296.241-.143.416-.344.416-.611,0-.171-.069-.325-.181-.437-.112-.112-.267-.181-.437-.181h-.449c-.274,0-.547.023-.817.069-.462.08-.907.143-1.35.133-.442-.01-.88-.095-1.328-.311-.104-.05-.268-.113-.384-.113-.091,0-.173.037-.232.096-.06.06-.096.142-.096.233,0,.062.017.122.05.175.014.022.007.052-.015.066-.015.009-.032.009-.047.002-.13-.06-.24-.157-.317-.277-.075-.117-.118-.256-.118-.405,0-.175.061-.344.172-.479-.136-.106-.248-.241-.328-.395-.085-.164-.133-.35-.133-.547,0-.131.022-.259.061-.378v-.002c.042-.122.102-.235.177-.336.227-.31.524-.53.857-.675.376-.165.797-.236,1.214-.236.466,0,.958.113,1.427.294.532.206,1.037.499,1.447.814l1.082.852c.036.026.074.036.118.036-.006-.031-.009-.058-.009-.09,0-.239.194-.433.433-.433.287,0,.454.254.454.521,0,.39-.306.625-.679.625-.281,0-.552-.09-.776-.259l-.941-.741c.027.192.107.372.229.522.027.033,0,.08-.04.078-.193-.012-.374-.071-.53-.166-.139-.084-.258-.196-.351-.328-.169.271-.453.45-.772.484-.026.003-.05-.016-.052-.042-.002-.015.004-.029.014-.039.124-.136.191-.311.191-.496,0-.16-.051-.308-.138-.429-.067-.093-.154-.169-.255-.223.033.093.05.193.05.293,0,.241-.098.459-.256.617-.187.187-.414.263-.675.253-.026-.002-.046-.024-.044-.051,0-.012.006-.022.013-.03.138-.145.214-.335.214-.536,0-.202-.077-.386-.204-.524-.112-.122-.264-.209-.434-.239.03.146.02.28-.044.418-.04.086-.099.162-.17.222-.024.02-.061.012-.074-.016-.086-.146-.242-.236-.411-.236-.131,0-.251.053-.336.139-.16.161-.185.417-.057.604.046.067.108.122.181.158.134-.233.382-.377.651-.377.195,0,.38.075.52.21.019.018.02.048.001.067-.009.009-.021.014-.032.015-.126.006-.24.061-.322.147-.081.085-.131.201-.131.328,0,.072.016.141.047.206.039-.083.097-.155.169-.21.097-.075.217-.119.348-.119.033,0,.066.003.098.008.037.006.052.05.028.078-.045.054-.063.128-.048.196.027.12.157.201.329.253.293.088.791.102,1.092.034.357-.075.723-.11,1.088-.11h.785c.337,0,.642.137.862.357.219.22.357.527.357.862-.005.459-.259.878-.669,1.086.197.219.356.473.467.752.222.557.236,1.189.04,1.755l-.523,1.508c-.062.168-.094.345-.094.524,0,.441.207,1.088.763,1.011.029-.002.054.017.054.047.003.275-.156.522-.411.628-.216.087-.358.297-.358.53,0,.162.067.314.187.423.145.136.222.327.211.526-.001.019-.014.036-.033.042-.094.031-.195.047-.294.047-.199,0-.391-.063-.551-.181-.1.103-.237.162-.381.162-.139,0-.271-.054-.37-.152-.08.095-.198.15-.323.15-.123,0-.238-.053-.318-.146-.103.119-.262.17-.417.134-.021-.004-.037-.021-.039-.043-.002-.032-.003-.064-.003-.095-.094.093-.224.151-.367.151-.14,0-.274-.056-.372-.156-.099.1-.233.156-.374.156-.139,0-.272-.054-.37-.152-.08.095-.198.15-.323.15-.123,0-.238-.053-.319-.146-.032.037-.07.068-.113.092-.093.052-.2.066-.304.042-.021-.004-.038-.021-.039-.043-.01-.232.051-.429.218-.596.189-.189.463-.263.722-.197.124.028.242.014.337-.081.058-.058.094-.139.094-.228v-.783c0-.327-.136-.642-.375-.865-.2-.19-.363-.419-.479-.673-.107-.236-.173-.494-.188-.766-.325.015-.641.066-.944.15-.358.1-.697.245-1.01.429-.21.129-.465.25-.693.347-.23.098-.467.182-.71.253-.112.195-.235.384-.366.566-.048.067-.073.117-.073.202,0,.142.097.267.235.302l.482.129c.031.008.045.044.028.071-.102.203-.255.376-.442.502-.168.114-.364.191-.575.218l.093.349c.014.051.022.104.022.157,0,.158-.064.301-.167.404-.104.103-.246.167-.404.167-.155,0-.302-.063-.41-.174-.108.111-.257.174-.412.174-.153,0-.3-.061-.408-.169-.087.106-.217.168-.355.168-.136,0-.264-.06-.351-.163-.035.042-.078.078-.127.105-.102.057-.221.073-.334.045-.021-.005-.035-.023-.036-.042-.011-.254.055-.47.239-.653.208-.207.507-.288.79-.215.221.049.454-.018.615-.179.12-.12.194-.286.194-.469,0-.047-.005-.093-.015-.139l-.304-1.136c-.385-.067-.741-.219-1.048-.437l-.272.272c-.142.142-.33.213-.517.213s-.375-.071-.517-.213l-.482-.482c-.032-.032-.074-.048-.116-.048-.069,0-.131.043-.154.107-.008.022-.012.047-.01.07.003.039-.04.064-.073.044-.147-.082-.24-.238-.24-.406v-.602l-.247-.247-.038.038c-.031.031-.071.046-.111.046-.039,0-.078-.014-.109-.043-.007-.007-.014-.014-.019-.022-.007.006-.015.011-.023.015-.032.018-.07.028-.108.025v.139c0,.027.021.048.048.048.016,0,.028-.006.038-.019.04-.049.104-.078.167-.078.12,0,.218.097.218.218s-.097.218-.218.218h-.227c.039.122.115.228.218.306.022.019.027.05.005.072-.056.057-.102.125-.133.201-.03.072-.046.152-.046.236,0,.116.032.228.093.327.042-.086.13-.142.227-.142.139,0,.253.113.253.252,0,.081-.035.145-.094.196-.099.084-.209.152-.329.202l.255.255c.029.026.017.075-.022.083-.129.026-.259.044-.39.056-.005.102-.038.195-.088.264-.058.08-.14.129-.23.129s-.172-.049-.231-.129c-.05-.069-.083-.162-.088-.264-.131-.012-.261-.03-.39-.056-.039-.008-.051-.057-.022-.083l.255-.255c-.12-.05-.23-.118-.329-.202-.06-.052-.094-.116-.094-.196,0-.139.113-.252.253-.252.098,0,.185.056.227.142.061-.099.093-.211.093-.327,0-.084-.016-.164-.046-.236-.031-.075-.077-.144-.133-.201-.022-.022-.017-.052.005-.072.102-.077.178-.184.217-.306h-.226c-.12,0-.218-.098-.218-.218s.097-.218.218-.218c.063,0,.127.029.167.078.011.013.022.019.038.019.027,0,.048-.022.048-.048v-.273l-.014-.004c-.101-.027-.161-.131-.134-.232.009-.033.026-.061.048-.084l-.051-.014c-.056-.015-.101-.051-.127-.098-.027-.047-.036-.104-.022-.16.011-.041.034-.077.064-.103-.106-.042-.164-.157-.134-.267.02-.075.078-.135.153-.157-.036-.059-.048-.122-.03-.19.011-.039.03-.073.055-.1-.304-.064-.644-.278-.644-.594,0-.244.198-.442.442-.442.035,0,.071.004.106.013v-3.339c0-.654.153-1.275.424-1.827.282-.574.692-1.075,1.193-1.466.021-.016.051-.012.067.008.012.016.013.036.004.052-.323.595-.491,1.257-.491,1.934v4.637c.035-.008.072-.013.107-.013.244,0,.442.198.442.442,0,.192-.124.346-.29.452h0ZM26.824,15.182l-.179.309c-.112.185.019.429.242.429h.414c.033,0,.058.03.047.062-.097.301-.275.48-.496.694-.145.14-.206.321-.15.516l.08.298c.008.029.014.058.017.088.153-.192.408-.299.695-.288.118,0,.226-.046.306-.121.098-.091.14-.2.144-.33v-.576c0-.238-.125-.458-.33-.58-.272-.155-.536-.323-.791-.501Z" fill-rule="evenodd" />
          <path d="M16.876,8.619c.219.09.445.157.675.203.248.049.501.073.756.071.037,0,.059.039.043.07-.04.074-.083.141-.13.211.117-.002.23.002.347.014.096.01.19.026.282.045.025.006.052-.002.07-.019.024-.025.027-.056.013-.087-.056-.115-.122-.224-.196-.328-.325-.022-.64-.077-.944-.162-.318-.089-.623-.211-.91-.362-.081-.043-.162-.064-.228-.064-.056,0-.1.015-.117.045-.018.033-.008.081.024.132.074.119.193.178.316.23Z" fill="#fed700" fill-rule="evenodd" />
          <path d="M24.491,13.91c.015.259.078.505.179.73.111.244.268.463.46.646.255.238.402.584.402.932v.783c0,.115-.047.22-.123.295-.117.117-.273.145-.428.106-.225-.058-.465.007-.63.172-.132.132-.194.299-.193.484.071.009.141-.003.203-.038.049-.027.09-.067.119-.114.014-.022.043-.03.066-.016.007.004.012.01.016.016.06.097.164.155.278.155s.218-.059.278-.155c.018-.029.059-.03.079-.004.083.102.204.16.336.16.131,0,.253-.058.336-.16.021-.028.053-.024.076-.001.081.102.204.162.335.162.118,0,.225-.048.302-.125.111-.111.152-.273.108-.422l-.08-.297c-.062-.217.004-.456.173-.608.188-.181.357-.346.453-.595h-.349c-.297,0-.473-.325-.324-.573l.183-.316-.056-.04c-.296-.214-.581-.445-.853-.692-.184-.158-.375-.275-.602-.361-.215-.081-.449-.125-.692-.125h-.052Z" fill="#fed700" fill-rule="evenodd" />
          <path d="M15.016,13.229c-.011.012-.016.027-.016.042,0,.016.006.032.018.044.012.012.028.018.044.018.016,0,.031-.006.043-.017l.34-.34c.011-.012.016-.027.016-.042,0-.016-.006-.032-.018-.044-.012-.012-.028-.018-.044-.018s-.032.006-.043.017l-.34.34Z" fill="#fed700" fill-rule="evenodd" />
          <path d="M15.011,12.924c-.012.012-.018.028-.018.044,0,.016.006.032.018.044.012.012.028.018.044.018.015,0,.029-.005.041-.015l.363-.363c.011-.012.016-.027.016-.042,0-.016-.006-.032-.018-.044-.012-.012-.028-.018-.044-.018-.015,0-.03.006-.041.016l-.36.361Z" fill="#fed700" fill-rule="evenodd" />
          <path d="M15.041,12.584c-.022.024-.021.062.002.086.023.023.06.024.085.003l.329-.329c.012-.012.018-.028.018-.044,0-.016-.006-.032-.018-.044-.012-.012-.028-.018-.044-.018s-.032.006-.044.018l-.329.329Z" fill="#fed700" fill-rule="evenodd" />
          <path d="M14.875,12.65l-.63-.169c-.069-.018-.14.022-.159.092-.019.069.022.14.091.159l.631.169c.034.008.069.003.097-.013.029-.016.051-.044.06-.079.009-.034.004-.068-.012-.096-.021-.032-.04-.052-.08-.063Z" fill="#fed700" fill-rule="evenodd" />
          <path d="M14.852,12.545c.075.016.148-.029.168-.102.02-.076-.025-.153-.1-.174l-.537-.144c-.038-.01-.076-.004-.107.014-.032.018-.056.048-.066.086-.02.075.024.152.099.173l.544.146Z" fill="#fed700" fill-rule="evenodd" />
          <path d="M14.861,13.013l-.564-.151c-.031-.008-.062-.003-.087.011-.026.015-.045.039-.054.07s-.003.062.011.087c.015.025.039.045.07.053l.566.152c.03.008.061.003.085-.012.025-.014.046-.039.054-.069.008-.031.003-.062-.011-.087-.014-.025-.039-.045-.07-.054Z" fill="#fed700" fill-rule="evenodd" />
          <path d="M14.913,13.364l-.491-.132c-.025-.006-.051-.002-.071.009-.02.012-.037.032-.043.057-.013.05.016.101.066.115l.491.131c.025.007.05.003.071-.009.02-.012.036-.031.043-.056.006-.026.005-.049-.009-.072-.012-.02-.032-.037-.057-.043Z" fill="#fed700" fill-rule="evenodd" />
          <path d="M15.001,12.025c.274,0,.726-.195.726-.518,0-.191-.155-.346-.346-.346-.104,0-.25.05-.25.174,0,.064.042.12.103.139.021.006.036.028.034.051-.015.144-.137.253-.282.253h-.62c-.145,0-.267-.109-.282-.253-.002-.023.012-.044.034-.051.061-.018.103-.075.103-.139,0-.124-.147-.174-.25-.174-.191,0-.346.155-.346.346,0,.323.451.518.726.518h.651Z" fill="#fed700" fill-rule="evenodd" />
          <path d="M14.78,13.621l-.32-.086v.247c0,.08-.064.144-.144.144-.044,0-.084-.02-.112-.053-.023-.028-.058-.044-.093-.044-.068,0-.123.055-.123.122,0,.068.055.122.123.122h.285c.032,0,.057.025.05.058-.033.15-.113.285-.228.386.049.057.089.123.118.193.035.084.054.176.054.272,0,.172-.062.338-.175.469-.009.01-.022.016-.036.016-.026,0-.048-.021-.048-.048,0-.086-.071-.157-.157-.157s-.157.07-.157.157c0,.049.022.094.061.124.107.091.232.163.365.21.034.01.046.054.021.08l-.246.245c.11.019.222.033.334.042.025.002.044.023.044.048,0,.09.017.177.07.251.04.055.095.089.154.089.059,0,.113-.034.153-.089.054-.074.071-.161.07-.251,0-.025.019-.047.044-.048.112-.008.223-.022.334-.042l-.245-.245c-.026-.026-.014-.07.02-.08.133-.047.258-.119.365-.21.039-.03.061-.075.061-.124,0-.086-.07-.157-.157-.157s-.157.07-.157.157c0,.026-.021.048-.048.048-.015,0-.028-.006-.036-.016-.113-.13-.175-.296-.175-.469,0-.096.019-.189.054-.272.029-.071.069-.136.118-.193-.115-.101-.196-.236-.228-.386-.007-.033.018-.058.05-.058h.286c.067,0,.122-.054.122-.122,0-.067-.055-.122-.122-.122-.036,0-.072.016-.094.044-.028.034-.068.053-.112.053-.079,0-.144-.064-.144-.144v-.161Z" fill="#fed700" fill-rule="evenodd" />
          <path d="M14.985,11.682c.083,0,.156-.054.18-.133-.08-.041-.131-.124-.131-.214,0-.104.061-.178.143-.221v-4.673c0-.615.136-1.219.399-1.775-.41.358-.748.795-.99,1.288-.265.54-.414,1.146-.414,1.785v3.375c.082.044.143.117.143.221,0,.09-.051.173-.13.214.024.079.097.133.18.133h.62Z" fill="#fed700" fill-rule="evenodd" />
          <path d="M16.918,13.48l-1.473-1.473c-.145.073-.309.113-.445.113h-.266l.21.056c.063.017.114.058.144.111.015.025.025.054.029.084l.184-.183c.031-.031.072-.047.111-.047.041,0,.081.016.111.046.031.031.046.071.046.112s-.015.081-.046.111l-.053.053c.019.008.037.019.052.035.031.031.046.072.046.112,0,.039-.014.078-.043.108l-.069.069c.019.008.037.019.053.035.031.031.046.072.046.112,0,.039-.014.078-.043.109l-.043.042c.019.008.037.019.053.035.031.031.046.071.046.112,0,.039-.014.078-.043.108l-.176.176.261.261c.009.009.014.021.014.034v.622c0,.108.048.21.13.28l.007-.022c.037-.102.135-.17.244-.17.066,0,.133.026.184.076l.482.482c.124.124.286.185.449.185s.326-.061.449-.185l.261-.262c-.147-.113-.281-.24-.4-.381-.234-.275-.411-.6-.514-.956Z" fill="#fed700" fill-rule="evenodd" />
          <path d="M15.369,13.187l-.281.281c-.022.024-.022.062.002.086.025.024.063.025.088,0l.281-.281c.011-.012.016-.027.016-.042,0-.016-.006-.032-.018-.044-.012-.012-.028-.018-.044-.018-.016,0-.032.006-.044.018Z" fill="#fed700" fill-rule="evenodd" />
          <path d="M18.639,8.53c.15.166.278.353.377.555.034.064.02.145-.031.196-.041.04-.102.059-.158.046-.089-.019-.18-.034-.271-.044-.149-.016-.283-.014-.431-.01-.041.003-.068-.044-.042-.077.052-.066.099-.135.142-.208-.234-.003-.466-.027-.693-.072-.236-.047-.468-.116-.693-.208-.09-.022-.183.032-.207.122l-.176.657c.112,0,.224-.009.335-.028.129-.021.256-.056.381-.103.013-.004.028-.004.041.003.023.013.03.042.017.065l-.188.325c.077-.016.154-.035.229-.057.108-.033.213-.072.315-.119.026-.011.055-.003.066.025.043.109.125.198.229.253.023-.092.061-.179.112-.258.006-.009.015-.016.026-.02.025-.008.052.006.059.032.03.099.076.19.136.272.046.063.099.12.159.169.02-.073.054-.153.103-.215.101-.13.272-.165.393-.044.102.102.097.271-.011.366-.15.138-.326.261-.51.349-.431.202-.794.523-1.047.922-.246.386-.388.845-.388,1.337,0,.616.223,1.179.593,1.614.36.423.859.725,1.426.834l-.073-.273c-.119-.417-.116-.866.009-1.281.008-.025.035-.04.06-.032.025.007.039.034.032.06-.12.397-.124.828-.009,1.228.144.451.296,1.051.405,1.516.011.052.017.107.017.16,0,.209-.085.399-.222.537-.178.177-.459.267-.705.204-.25-.065-.517.007-.7.19-.148.148-.216.334-.213.541.081.011.159-.002.231-.042.054-.031.1-.075.132-.128.018-.03.063-.031.082,0,.066.108.183.173.31.173s.243-.066.31-.173c.017-.028.057-.031.078-.005.092.114.228.18.375.18.146,0,.282-.065.374-.179.018-.025.056-.026.076-.001.091.114.227.18.372.18.131,0,.25-.053.336-.14.086-.086.139-.205.139-.336,0-.044-.006-.088-.018-.13l-.108-.403c-.006-.03.008-.059.042-.062.216-.018.417-.092.587-.208.158-.107.291-.251.385-.418l-.423-.113c-.18-.046-.307-.209-.307-.395,0-.103.032-.177.092-.259.285-.395.527-.823.717-1.278.188-.448.326-.921.408-1.413.005-.026.029-.043.055-.039.026.004.044.029.039.055-.084.5-.224.98-.414,1.434-.088.21-.186.415-.295.613.207-.064.409-.137.605-.221.242-.103.452-.215.682-.341.32-.189.667-.337,1.033-.439.356-.099.73-.153,1.116-.158.254,0,.499.046.725.131.21.079.47.224.633.379.268.243.55.471.845.685.294.213.6.411.916.592.235.141.378.388.378.662v.576c0,.152-.063.297-.175.4-.098.091-.229.146-.371.146-.427,0-.758.214-.751.674.13.016.253-.04.322-.153.019-.031.063-.03.081,0,.06.097.164.155.278.155s.218-.058.278-.155c.018-.029.059-.03.079-.004.083.102.205.16.336.16.132,0,.255-.059.337-.162.017-.021.048-.023.069-.006.149.122.334.187.526.187.079,0,.157-.01.232-.032,0-.158-.065-.309-.181-.417-.14-.126-.219-.305-.219-.493,0-.272.165-.516.417-.618.202-.084.334-.27.351-.487-.597.018-.816-.614-.816-1.111,0-.19.034-.379.099-.557l.523-1.506c.188-.545.175-1.154-.038-1.689-.115-.288-.283-.549-.492-.77-.023-.024-.014-.063.016-.076.413-.182.672-.59.672-1.041-.003-.304-.128-.579-.327-.779-.203-.203-.487-.332-.797-.332h-.785c-.359,0-.717.034-1.068.108-.318.071-.83.057-1.14-.036-.203-.061-.359-.163-.395-.323-.017-.075-.007-.137.023-.208-.109-.001-.212.032-.298.098-.082.063-.143.152-.17.254-.003.011-.008.021-.018.028-.021.016-.051.012-.067-.009-.075-.099-.115-.22-.115-.344,0-.153.06-.292.158-.394.073-.077.168-.133.275-.16-.11-.077-.24-.117-.374-.117-.249,0-.476.14-.587.363-.011.023-.037.034-.061.025-.107-.042-.199-.117-.263-.211-.153-.225-.125-.532.068-.726.104-.103.246-.167.404-.167.184,0,.356.088.463.237.043-.044.079-.096.105-.153.06-.129.067-.281.02-.415-.015-.033.011-.07.048-.067.224.019.424.124.567.28.142.155.229.362.229.589,0,.189-.061.371-.173.522.196-.012.372-.096.502-.226.14-.14.227-.334.227-.549,0-.127-.03-.25-.089-.362-.006-.011-.007-.025-.003-.037.008-.025.036-.038.061-.03.167.056.31.164.41.305.098.136.156.304.156.484,0,.165-.049.325-.14.462.266-.063.492-.24.618-.482.017-.033.064-.035.083-.003.09.149.214.273.362.363.114.069.243.118.381.141-.118-.177-.185-.382-.194-.595-.001-.012.002-.024.01-.034.016-.021.047-.024.067-.008l1.027.809c.208.156.458.239.718.239.321,0,.584-.192.584-.53,0-.213-.126-.425-.359-.425-.186,0-.337.151-.337.337,0,.039.006.076.019.113.008.027-.004.054-.032.061-.085.025-.177.009-.249-.043l-1.084-.854c-.402-.31-.899-.598-1.422-.8-.459-.177-.938-.287-1.393-.287-.405,0-.813.068-1.176.227-.318.139-.602.349-.818.644h0c-.07.093-.125.198-.163.31v.002c-.037.108-.056.226-.056.347,0,.182.044.353.122.504.081.156.199.291.341.393.025.017.027.052.006.073-.117.123-.181.283-.181.452,0,.13.038.251.103.353.043.067.098.126.162.174-.006-.028-.009-.058-.009-.088,0-.117.048-.223.124-.3.077-.077.183-.124.3-.124.136,0,.304.066.426.123.434.209.859.291,1.288.302.434.01.873-.053,1.331-.132.275-.047.554-.071.833-.071h.449c.196,0,.375.08.504.209.13.13.209.308.209.505,0,.306-.194.533-.462.692-.365.217-.869.31-1.187.31h-4.523c.095.111.205.209.326.29.035.023.025.077-.015.086-.144.039-.293.059-.442.059-.083,0-.166-.006-.248-.019v.46c0,.031-.025.049-.054.047-.264-.018-.518-.097-.744-.232-.146.176-.328.318-.534.417-.029.014-.056-.003-.066-.031l-.204-.76c-.088.225-.226.428-.403.594-.023.022-.061.015-.075-.013l-.216-.374c-.034.082-.075.159-.124.232-.068.102-.15.195-.243.275-.027.023-.068.01-.077-.024l-.083-.31c-.039.076-.088.145-.145.208-.088.097-.196.176-.317.231-.029.013-.056-.003-.066-.031l-.142-.532-.429.247c-.037.022-.081-.014-.07-.054.036-.128.088-.25.153-.363.066-.115.147-.221.239-.315.019-.019.049-.019.068,0,.019.018.019.049,0,.067-.087.089-.162.189-.225.297-.041.071-.077.146-.106.225l.372-.215c.027-.018.064-.004.072.028l.143.536c.088-.048.168-.11.235-.184.079-.086.141-.189.181-.301.005-.016.017-.029.034-.033.025-.007.052.008.058.034l.098.366c.063-.061.12-.129.169-.203.063-.094.113-.196.149-.306.003-.011.011-.02.021-.027.023-.013.052-.005.065.017l.237.41c.181-.184.314-.41.384-.658.004-.016.017-.03.034-.034.025-.006.052.008.058.034l.229.856c.184-.098.347-.234.475-.398.015-.019.042-.024.063-.011.208.132.443.213.688.236v-.465c.003-.03.024-.053.056-.047.095.017.19.026.287.026.107,0,.213-.011.318-.032-.117-.089-.221-.194-.312-.31-.215-.019-.419-.078-.604-.169-.171-.084-.327-.196-.461-.329l-.054.2c-.008.032-.039.041-.068.03-.097-.041-.189-.091-.276-.148,0,.017,0,.033,0,.05,0,.083-.009.164-.027.242-.018.08-.045.157-.08.23-.011.024-.04.034-.064.022-.009-.004-.016-.011-.021-.019-.065-.112-.153-.211-.255-.29-.086-.066-.183-.119-.289-.154-.013.139-.053.273-.117.396-.012.024-.041.033-.064.021-.012-.006-.02-.016-.024-.028-.033-.106-.083-.204-.147-.291-.055-.075-.12-.141-.192-.198-.1.162-.233.304-.389.413-.022.015-.051.01-.066-.012-.007-.011-.01-.024-.008-.036.008-.047.012-.092.012-.139,0-.073-.01-.147-.031-.217-.02.042-.042.082-.068.12-.05.074-.111.14-.182.196-.027.022-.067.008-.075-.025l-.112-.416c-.007-.025.008-.052.034-.059.025-.006.052.009.058.034l.092.343c.039-.038.075-.08.106-.126.043-.064.077-.135.1-.211.003-.014.012-.027.026-.033.024-.011.052-.001.064.023.055.116.084.244.084.372v.042c.119-.101.221-.223.298-.359.015-.026.045-.035.07-.018.099.069.185.154.256.251.047.064.087.134.119.207.038-.099.059-.204.064-.31-.001-.032.029-.057.06-.048.139.038.267.103.378.188.088.068.166.149.23.24.016-.042.028-.085.038-.129.016-.071.025-.145.025-.221,0-.041-.003-.082-.007-.123-.09-.069-.174-.148-.249-.234l-.118.205c-.013.023-.042.031-.065.018-.01-.006-.017-.015-.021-.025-.041-.11-.097-.212-.166-.304-.059-.078-.128-.15-.204-.212l-.148.256c-.013.023-.042.031-.065.018h-.001c-.094-.059-.18-.13-.256-.209l-.003-.003c-.075-.079-.139-.168-.192-.264-.012-.023-.004-.052.019-.065.023-.012.052-.004.065.019.048.089.108.172.177.245l.002.003c.059.062.125.118.196.166l.153-.265c.016-.021.046-.026.067-.01.1.075.19.164.265.265.055.073.103.153.141.237l.102-.177c.003-.006.007-.011.013-.016.02-.016.05-.013.067.007.084.104.181.198.289.279.092.069.192.129.297.178l.061-.229c.002-.008.007-.016.014-.023.019-.018.05-.016.068.003.138.152.305.278.491.37.151.074.315.126.488.15-.144-.22-.234-.47-.263-.732-.071-.045-.139-.096-.202-.151-.154-.134-.283-.296-.38-.477l-.19.329c-.013.023-.044.031-.066.017-.08-.05-.154-.109-.22-.177l-.169.293c-.013.023-.044.031-.066.017-.158-.098-.293-.235-.388-.394-.014-.023-.007-.052.016-.066s.052-.006.065.016c.08.133.188.248.316.335l.159-.277c-.042-.05-.079-.104-.112-.161-.013-.023-.005-.052.017-.065.023-.013.052-.005.065.017.045.077.098.148.16.212.05.052.106.099.166.14l.208-.359c.017-.035.069-.036.086.001.094.202.229.382.396.526.137.12.295.216.468.283-.04-.092-.072-.188-.095-.285-.029-.127-.044-.257-.044-.388-.15-.102-.283-.228-.392-.373-.087-.114-.159-.24-.215-.375-.02.127-.063.248-.127.36-.019.033-.067.031-.084-.002-.051-.1-.118-.19-.199-.265-.066-.062-.14-.114-.221-.155-.025.136-.076.265-.151.381-.018.028-.05.027-.074.008l-.207-.206c-.024.095-.064.184-.117.267-.018.028-.05.027-.074.008l-.146-.145c-.008.112-.035.221-.08.324-.014.031-.054.038-.077.015l-.287-.286-.177.308c-.012.021-.038.029-.06.02-.101-.044-.194-.103-.276-.175-.082-.072-.154-.156-.211-.25-.014-.023-.006-.052.016-.066.022-.014.052-.007.066.016.052.086.117.163.192.228.064.056.136.103.213.141l.184-.32c.014-.03.054-.038.077-.014l.279.279c.038-.11.05-.212.048-.328-.005-.044.049-.071.081-.039l.183.183c.045-.083.076-.174.09-.267.006-.038.053-.055.081-.026l.226.226c.061-.109.101-.229.115-.354.004-.031.037-.051.066-.038.113.049.217.117.305.2.067.063.126.134.175.213.058-.126.087-.261.087-.4,0-.062-.006-.119-.017-.18-.004-.026.013-.051.039-.056.026-.004.051.013.056.039.044.251.148.482.296.677.135.178.308.327.505.435v-1.417c0-.211-.092-.408-.254-.543-.022-.022-.027-.054,0-.075.141-.113.255-.257.334-.422.065-.137.106-.288.116-.448-.062.078-.133.148-.21.21-.075.063-.186.098-.284.098-.112,0-.243-.048-.32-.131-.178-.201-.419-.338-.684-.388-.027.156-.082.305-.162.441-.016.031-.059.036-.081.008-.104-.136-.237-.25-.389-.332-.132-.071-.279-.119-.435-.137.004.189-.021.358-.091.534-.012.033-.053.043-.079.018-.228-.222-.53-.346-.848-.346-.106,0-.211.014-.314.041.045.151.022.309-.077.438-.075.098-.187.168-.32.186l-1.353.183c-.031,0-.057-.018-.054-.052.005-.125-.029-.233-.122-.319-.069-.065-.163-.105-.266-.105-.216,0-.39.174-.39.389,0,.27.149.572.359.845.234.304.543.57.81.718v-.205c0-.044.055-.065.084-.031.086.099.185.185.295.255.012-.103.036-.204.07-.302.014-.038.066-.043.087-.008.116.206.257.4.417.574h0ZM22.333,7.6c-.019-.019-.019-.049,0-.068.019-.019.049-.019.068,0l.294.294c.019.019.019.049,0,.068-.019.019-.049.019-.067,0l-.294-.294h0ZM19.205,7.161c-.026,0-.048-.021-.048-.048s.021-.048.048-.048c.124,0,.225.1.225.225,0,.138-.111.227-.244.227-.173,0-.313-.141-.313-.314s.14-.314.313-.314c.146,0,.319.067.438.148.248.168.539.266.838.282-.063-.08-.113-.169-.148-.265-.015-.041.028-.078.066-.059.12.059.248.105.382.136.13.03.265.046.404.046.095,0,.189-.007.283-.022-.097-.091-.187-.19-.268-.296-.016-.021-.012-.051.009-.067.009-.007.02-.01.031-.01.218,0,.429-.031.63-.087.207-.058.403-.145.583-.255.022-.014.052-.006.065.016.014.023.007.052-.016.066-.187.114-.391.204-.607.265-.179.05-.366.081-.56.088.081.097.169.187.265.27.032.024.022.076-.019.085-.13.028-.264.042-.397.042-.146,0-.289-.017-.426-.049-.099-.023-.194-.054-.287-.091.04.075.091.142.151.202.029.03.009.081-.033.081-.355.004-.706-.102-1.001-.301-.104-.071-.258-.131-.385-.131-.12,0-.218.097-.218.218s.097.218.218.218c.08,0,.148-.046.148-.131,0-.071-.058-.129-.129-.129Z" fill="#fed700" fill-rule="evenodd" />
          <g>
            <path d="M14.189,4.173c.124.124.225.267.3.426.019.04.079.031.085-.013.03-.211.01-.428-.058-.63-.095-.288-.156-.584-.182-.886-.024-.286-.139-.601-.345-.807-.236-.236-.607-.276-.888-.095-.109.069-.246.085-.369.042-.036-.013-.07.022-.057.057.043.122.027.259-.043.369-.181.282-.142.651.095.888.124.123.285.196.459.207.379.017.734.172,1.002.441Z" fill-rule="evenodd" />
            <path d="M14.256,4.112c-.285-.285-.659-.451-1.062-.469-.151-.009-.292-.072-.4-.178-.207-.207-.245-.529-.086-.775.071-.111.097-.243.073-.372.128.023.26-.002.369-.072.245-.159.569-.124.776.082.19.189.297.486.319.749.027.308.089.613.186.907.048.141.071.289.067.439-.068-.114-.149-.218-.242-.311Z" fill="#fed700" fill-rule="evenodd" />
          </g>
          <g>
            <path d="M30.073,4.173c-.124.124-.225.267-.3.426-.019.04-.079.031-.085-.013-.03-.211-.01-.428.058-.63.095-.288.156-.584.182-.886.024-.286.139-.601.345-.807.236-.236.607-.276.888-.095.109.069.246.085.368.042.036-.013.07.022.058.057-.043.122-.027.259.043.369.181.282.142.651-.095.888-.124.123-.285.196-.46.207-.379.017-.734.172-1.002.441Z" fill-rule="evenodd" />
            <path d="M30.006,4.112c.285-.285.659-.451,1.061-.469.151-.009.293-.072.4-.178.207-.207.245-.529.086-.775-.07-.111-.097-.243-.073-.372-.128.023-.259-.002-.369-.072-.245-.159-.569-.124-.776.082-.19.189-.297.486-.319.749-.027.308-.089.613-.186.907-.048.141-.071.289-.067.439.068-.114.149-.218.242-.311Z" fill="#fed700" fill-rule="evenodd" />
          </g>
          <g>
            <path d="M14.189,18.441c.124-.124.225-.267.3-.426.019-.041.079-.031.085.013.03.211.01.428-.058.63-.095.288-.156.584-.182.885-.024.286-.139.601-.345.807-.236.236-.607.276-.888.095-.109-.069-.246-.085-.369-.042-.036.013-.07-.022-.057-.057.043-.122.027-.259-.043-.368-.181-.282-.142-.651.095-.888.124-.123.285-.196.459-.207.379-.016.734-.172,1.002-.44Z" fill-rule="evenodd" />
            <path d="M14.256,18.502c-.285.285-.659.451-1.062.469-.151.009-.292.072-.4.178-.207.207-.245.529-.086.775.071.111.097.243.073.372.128-.023.26.002.369.072.245.159.569.124.776-.082.19-.189.297-.486.319-.749.027-.309.089-.614.186-.907.048-.142.071-.289.067-.439-.068.113-.149.218-.242.311Z" fill="#fed700" fill-rule="evenodd" />
          </g>
          <g>
            <path d="M30.073,18.441c-.124-.124-.225-.267-.3-.426-.019-.041-.079-.031-.085.013-.03.211-.01.428.058.63.095.288.156.584.182.885.024.286.139.601.345.807.236.236.607.276.888.095.109-.069.246-.085.368-.042.036.013.07-.022.058-.057-.043-.122-.027-.259.043-.368.181-.282.142-.651-.095-.888-.124-.123-.285-.196-.46-.207-.379-.016-.734-.172-1.002-.44Z" fill-rule="evenodd" />
            <path d="M30.006,18.502c.285.285.659.451,1.061.469.151.009.293.072.4.178.207.207.245.529.086.775-.07.111-.097.243-.073.372-.128-.023-.259.002-.369.072-.245.159-.569.124-.776-.082-.19-.189-.297-.486-.319-.749-.027-.309-.089-.614-.186-.907-.048-.142-.071-.289-.067-.439.068.113.149.218.242.311Z" fill="#fed700" fill-rule="evenodd" />
          </g>
        </g>
      </g>
    </g>
  </g>
</g></svg>