<?xml version="1.0" encoding="UTF-8"?>
<svg id="Layer_2" data-name="Layer 2" xmlns="http://www.w3.org/2000/svg" xmlns:xlink="http://www.w3.org/1999/xlink" viewBox="0 0 79.17 79.17">
  <defs>
    <clipPath id="clippath">
      <path d="M0,39.584c0,21.862,17.723,39.586,39.585,39.586s39.585-17.724,39.585-39.586S61.447,0,39.585,0,0,17.723,0,39.584Z" fill="none"/>
    </clipPath>
  </defs>
  <g id="Layer_1-2" data-name="Layer 1">
    <g clip-path="url(#clippath)">
      <g>
        <rect x="-7" y=".001" width="118.972" height="79.168" fill="#ef4848"/>
        <rect x="-7" y=".001" width="59.476" height="39.584" fill="#2b2f85"/>
        <path d="M15.79,19.685c0,3.812,3.092,6.903,6.906,6.903s6.905-3.091,6.905-6.903-3.091-6.907-6.905-6.907-6.906,3.093-6.906,6.907Z" fill="#fff"/>
        <polygon points="21.661 11.939 23.681 11.939 22.67 6.972 21.661 11.939" fill="#fff"/>
        <polygon points="23.552 27.646 21.532 27.646 22.542 32.614 23.552 27.646" fill="#fff"/>
        <polygon points="30.535 18.959 30.535 20.977 35.503 19.968 30.535 18.959" fill="#fff"/>
        <polygon points="14.767 20.977 14.767 18.959 9.798 19.97 14.767 20.977" fill="#fff"/>
        <polygon points="15.183 16.977 16.172 15.216 11.346 13.664 15.183 16.977" fill="#fff"/>
        <polygon points="17.745 13.548 19.48 12.514 16.07 8.763 17.745 13.548" fill="#fff"/>
        <polygon points="25.696 12.441 27.403 13.523 29.21 8.787 25.696 12.441" fill="#fff"/>
        <polygon points="29.134 15.186 30.151 16.933 33.936 13.559 29.134 15.186" fill="#fff"/>
        <polygon points="27.48 26.194 25.696 27.144 28.921 31.056 27.48 26.194" fill="#fff"/>
        <polygon points="29.819 23.044 28.784 24.78 33.568 26.457 29.819 23.044" fill="#fff"/>
        <polygon points="17.856 26.128 19.621 27.109 16.323 30.96 17.856 26.128" fill="#fff"/>
        <polygon points="16.493 24.779 15.436 23.057 11.729 26.513 16.493 24.779" fill="#fff"/>
      </g>
    </g>
  </g>
</svg>