<?xml version="1.0" encoding="UTF-8"?>
<svg id="Layer_2" data-name="Layer 2" xmlns="http://www.w3.org/2000/svg" viewBox="0 0 118.972 79.168">
  <g id="Layer_1-2" data-name="Layer 1">
    <g>
      <rect width="118.972" height="79.168" fill="#ef4848"/>
      <rect width="59.476" height="39.584" fill="#2b2f85"/>
      <path d="M22.79,19.685c0,3.812,3.092,6.903,6.906,6.903s6.905-3.091,6.905-6.903-3.091-6.907-6.905-6.907-6.906,3.093-6.906,6.907Z" fill="#fff"/>
      <polygon points="28.661 11.939 30.681 11.939 29.67 6.971 28.661 11.939" fill="#fff"/>
      <polygon points="30.552 27.645 28.532 27.645 29.542 32.613 30.552 27.645" fill="#fff"/>
      <polygon points="37.535 18.958 37.535 20.977 42.503 19.967 37.535 18.958" fill="#fff"/>
      <polygon points="21.767 20.977 21.767 18.958 16.798 19.969 21.767 20.977" fill="#fff"/>
      <polygon points="22.183 16.977 23.172 15.215 18.346 13.663 22.183 16.977" fill="#fff"/>
      <polygon points="24.745 13.547 26.48 12.513 23.07 8.762 24.745 13.547" fill="#fff"/>
      <polygon points="32.696 12.44 34.403 13.522 36.21 8.786 32.696 12.44" fill="#fff"/>
      <polygon points="36.134 15.185 37.151 16.932 40.936 13.559 36.134 15.185" fill="#fff"/>
      <polygon points="34.48 26.193 32.696 27.143 35.921 31.055 34.48 26.193" fill="#fff"/>
      <polygon points="36.819 23.043 35.784 24.779 40.568 26.456 36.819 23.043" fill="#fff"/>
      <polygon points="24.856 26.127 26.621 27.108 23.323 30.959 24.856 26.127" fill="#fff"/>
      <polygon points="23.493 24.778 22.437 23.056 18.729 26.512 23.493 24.778" fill="#fff"/>
    </g>
  </g>
</svg>