<svg xmlns="http://www.w3.org/2000/svg" id="Layer_2" data-name="Layer 2" viewBox="0 0 33.945 22.631">
  <defs><clipPath id="circleClip"><circle cx="16.9725" cy="11.3155" r="11.3155" /></clipPath></defs><g clip-path="url(#circleClip)"><g id="_&#209;&#235;&#238;&#233;_1" data-name="&#209;&#235;&#238;&#233; 1">
    <g>
      <g>
        <rect width="33.945" height="22.631" fill="#fff" />
        <rect y="16.169" width="33.945" height="6.462" fill="#007c29" />
        <rect width="33.945" height="6.462" fill="red" />
      </g>
      <g>
        <path d="M16.977,14.713c1.113,0,2.188.166,3.201.473l-.133.495c-.97-.296-2.001-.456-3.068-.456s-2.098.16-3.068.456l-.133-.495c1.013-.307,2.087-.473,3.201-.473Z" fill="#f8c300" fill-rule="evenodd" />
        <path d="M16.409,14.194c.101-.078.231-.118.364-.103-.004-.17.063-.322.199-.426.137.104.203.256.199.426.133-.015.263.025.364.103-.091.224-.331.341-.563.341s-.472-.116-.564-.341Z" fill="#f8c300" fill-rule="evenodd" />
        <path d="M14.49,14.451c.086-.094.208-.155.342-.163-.032-.167.008-.328.126-.453.152.079.243.218.268.386.129-.036.263-.019.376.041-.053.236-.269.391-.499.43-.229.039-.485-.036-.612-.242Z" fill="#f8c300" fill-rule="evenodd" />
        <path d="M19.456,14.451c-.087-.094-.208-.155-.342-.163.032-.167-.008-.328-.125-.453-.152.079-.243.218-.268.386-.129-.036-.263-.019-.376.041.053.236.269.391.499.43.229.039.485-.036.612-.242Z" fill="#f8c300" fill-rule="evenodd" />
        <path d="M16.973,12.823c-.193.538-.619.974-1.083,1.057-.442.078-.81-.198-1.037-.56-.269,1.198-1.915,1.259-2.024.174.526.482,1.582.29,1.942-.57.576.689,2.052.393,2.052-1.003v-.706c0-.229-.185-.415-.414-.415-.143,0-.269.072-.343.182-.03-.092-.046-.19-.046-.292,0-.527.427-.954.954-.954s.954.427.954.954c0,.102-.016.2-.046.292-.075-.11-.2-.182-.343-.182-.229,0-.414.186-.414.415v.706c0,1.396,1.475,1.692,2.052,1.003.36.86,1.416,1.051,1.942.57-.108,1.086-1.755,1.024-2.024-.174-.227.361-.595.638-1.037.56-.464-.083-.891-.519-1.084-1.057h0ZM16.973,9.971c-.354,0-.649.256-.709.593.046-.01.095-.016.144-.016.238,0,.447.124.565.312.118-.188.327-.312.565-.312.049,0,.097.006.144.016-.06-.337-.354-.593-.709-.593Z" fill="#f8c300" fill-rule="evenodd" />
        <polygon points="16.973 6.949 17.146 7.485 17.71 7.485 17.253 7.815 17.428 8.351 16.973 8.018 16.517 8.351 16.692 7.815 16.236 7.485 16.799 7.485 16.973 6.949" fill="#f8c300" fill-rule="evenodd" />
        <g>
          <polygon points="14.709 7.562 14.882 8.099 15.446 8.098 14.99 8.428 15.164 8.964 14.709 8.631 14.253 8.964 14.428 8.428 13.972 8.098 14.535 8.099 14.709 7.562" fill="#f8c300" fill-rule="evenodd" />
          <polygon points="19.237 7.562 19.41 8.099 19.974 8.098 19.517 8.428 19.692 8.964 19.237 8.631 18.781 8.964 18.956 8.428 18.5 8.098 19.063 8.099 19.237 7.562" fill="#f8c300" fill-rule="evenodd" />
        </g>
        <g>
          <polygon points="13.058 9.203 13.231 9.739 13.795 9.738 13.339 10.069 13.514 10.605 13.058 10.272 12.602 10.605 12.778 10.069 12.321 9.738 12.885 9.739 13.058 9.203" fill="#f8c300" fill-rule="evenodd" />
          <polygon points="20.887 9.203 21.061 9.739 21.624 9.738 21.168 10.069 21.343 10.605 20.887 10.272 20.432 10.605 20.607 10.069 20.15 9.738 20.714 9.739 20.887 9.203" fill="#f8c300" fill-rule="evenodd" />
        </g>
        <g>
          <polygon points="12.443 11.479 12.616 12.015 13.18 12.014 12.724 12.345 12.898 12.881 12.443 12.548 11.987 12.881 12.162 12.345 11.706 12.014 12.269 12.015 12.443 11.479" fill="#f8c300" fill-rule="evenodd" />
          <polygon points="21.503 11.479 21.676 12.015 22.24 12.014 21.783 12.345 21.958 12.881 21.503 12.548 21.047 12.881 21.222 12.345 20.766 12.014 21.329 12.015 21.503 11.479" fill="#f8c300" fill-rule="evenodd" />
        </g>
      </g>
    </g>
  </g>
</g></svg>