<?xml version="1.0" encoding="UTF-8"?>
<svg id="Layer_2" data-name="Layer 2" xmlns="http://www.w3.org/2000/svg" viewBox="0 0 118.972 79.983">
  <g id="Layer_1-2" data-name="Layer 1">
    <g>
      <rect width="118.972" height="79.983" fill="#e51e25"/>
      <path d="M39.556,40.215c0,11.122,8.877,20.137,19.826,20.137s19.826-9.015,19.826-20.137-8.876-20.135-19.826-20.135-19.826,9.015-19.826,20.135Z" fill="#fff"/>
      <path d="M63.312,51.996c-6.464,0-11.705-5.353-11.705-11.953s5.241-11.95,11.705-11.95c3.979,0,7.489,2.033,9.604,5.13-2.47-4.908-7.507-8.278-13.332-8.278-8.262,0-14.959,6.76-14.959,15.103s6.697,15.101,14.959,15.101c5.831,0,10.871-3.376,13.337-8.289-2.115,3.103-5.626,5.138-9.609,5.138Z" fill="#e51e25"/>
      <polygon points="70.427 45.147 64.759 43.128 60.771 48.022 60.544 41.909 55.072 40.046 60.578 38.064 60.851 31.86 64.818 36.904 70.427 35.079 66.944 39.668 70.427 45.147" fill="#e51e25"/>
    </g>
  </g>
</svg>