<?xml version="1.0" encoding="UTF-8"?>
<svg id="Layer_2" data-name="Layer 2" xmlns="http://www.w3.org/2000/svg" viewBox="0 0 118.972 79.168">
  <g id="Layer_1-2" data-name="Layer 1">
    <g>
      <rect width="118.972" height="79.168" fill="#e21f26"/>
      <path d="M46.961,55.449c-8.699,0-15.752-7.143-15.752-15.956s7.053-15.954,15.752-15.954c5.013,0,9.468,2.379,12.352,6.074-3.454-5.872-9.81-9.825-17.098-9.825-10.967,0-19.859,8.924-19.859,19.931s8.893,19.932,19.859,19.932c8.008,0,14.889-4.766,18.031-11.614-2.793,4.453-7.695,7.413-13.286,7.413Z" fill="#fff"/>
      <polygon points="75.308 45.008 69.312 43.374 64.849 48.125 64.767 42.023 58.511 39.576 64.689 37.346 64.849 31.041 69.201 35.991 75.308 34.296 71.654 39.583 75.308 45.008" fill="#fff"/>
    </g>
  </g>
</svg>