<svg xmlns="http://www.w3.org/2000/svg" id="Layer_2" data-name="Layer 2" viewBox="0 0 33.945 22.631">
  <defs><clipPath id="circleClip"><circle cx="16.9725" cy="11.3155" r="11.3155" /></clipPath></defs><g clip-path="url(#circleClip)"><g id="_&#209;&#235;&#238;&#233;_1" data-name="&#209;&#235;&#238;&#233; 1">
    <g>
      <rect width="33.945" height="22.631" fill="#007c29" />
      <g>
        <polygon points="15.09 3.501 15.405 3.27 15.283 2.898 15.6 3.127 15.916 2.895 15.796 3.267 16.114 3.496 15.722 3.497 15.603 3.871 15.481 3.498 15.09 3.501" fill="#fff" fill-rule="evenodd" />
        <polygon points="13.651 4.207 13.966 3.976 13.844 3.604 14.161 3.833 14.477 3.602 14.357 3.974 14.675 4.203 14.283 4.204 14.164 4.577 14.041 4.205 13.651 4.207" fill="#fff" fill-rule="evenodd" />
        <polygon points="13.651 2.751 13.966 2.52 13.844 2.148 14.161 2.377 14.477 2.146 14.357 2.518 14.675 2.747 14.283 2.748 14.164 3.121 14.041 2.749 13.651 2.751" fill="#fff" fill-rule="evenodd" />
        <polygon points="13.651 5.663 13.966 5.432 13.844 5.06 14.161 5.289 14.477 5.057 14.357 5.43 14.675 5.658 14.283 5.659 14.164 6.033 14.041 5.661 13.651 5.663" fill="#fff" fill-rule="evenodd" />
        <polygon points="12.211 4.914 12.527 4.682 12.404 4.311 12.722 4.539 13.037 4.308 12.917 4.68 13.235 4.909 12.843 4.91 12.725 5.283 12.602 4.911 12.211 4.914" fill="#fff" fill-rule="evenodd" />
        <path d="M16.737,2.457c1.065.406,1.821,1.437,1.821,2.644,0,1.562-1.266,2.829-2.829,2.829-.675,0-1.296-.237-1.782-.632.313.119.653.185,1.007.185,1.562,0,2.829-1.266,2.829-2.829,0-.887-.408-1.678-1.046-2.197Z" fill="#fff" fill-rule="evenodd" />
      </g>
      <g>
        <rect x="4.077" width="6.107" height="22.631" fill="red" />
        <g>
          <g>
            <path d="M7.999,21.98c.229.068.472.104.723.104.042,0,.084,0,.125-.003-.177.062-.367.095-.565.095-.205,0-.402-.036-.584-.102-.106-.038-.221-.059-.34-.059-.323,0-.611.152-.796.388l-.137-.079c.294-.257.679-.413,1.101-.413.164,0,.323.024.474.068Z" fill="#fed700" fill-rule="evenodd" />
            <path d="M8.569,21.571c-.044.113-.122.209-.222.275.01,0,.02,0,.03,0,.081,0,.158-.017.229-.047.073-.033.154-.051.239-.051.041,0,.081.004.12.012.035.006.072.01.11.01.027,0,.053-.002.079-.005-.165.116-.366.184-.583.184-.054,0-.107-.004-.159-.013-.045-.006-.091-.009-.138-.009-.053,0-.104.004-.155.012.092-.071.168-.164.218-.27.063-.127.18-.222.321-.255-.037.047-.067.099-.088.156Z" fill="#fed700" fill-rule="evenodd" />
            <path d="M8.971,21.639c-.094.01-.183.035-.265.072,0-.014-.001-.028-.001-.042,0-.147.054-.282.143-.385.046-.054.076-.122.085-.197.033.051.052.111.052.176,0,.087-.034.165-.089.223-.024.026-.043.056-.057.089.111-.027.213-.076.302-.141.065-.047.138-.084.215-.111.083-.027.159-.071.223-.127-.011.094-.056.178-.123.238-.133.113-.3.187-.483.205Z" fill="#fed700" fill-rule="evenodd" />
            <path d="M9.541,20.889c.083-.04.158-.094.22-.161-.048.206-.197.374-.392.448-.073.028-.139.069-.196.12.003-.021.004-.042.004-.064,0-.081-.018-.157-.049-.226-.019-.044-.029-.092-.029-.143,0-.089.033-.171.087-.234-.002.017-.004.034-.004.052,0,.062.017.12.047.169.032.051.051.111.051.175,0,.037-.006.072-.017.105.071-.102.166-.185.278-.241Z" fill="#fed700" fill-rule="evenodd" />
            <path d="M9.8,20.344c-.03.194-.157.355-.33.434-.029.013-.056.029-.081.047.003-.015.004-.03.004-.045,0-.067-.025-.129-.069-.179-.052-.058-.083-.134-.083-.218,0-.045.009-.088.025-.127.016.063.05.118.096.161.06.057.098.139.098.228,0,.01,0,.019-.001.029.058-.048.103-.111.131-.183.042-.112.128-.203.238-.251-.012.033-.022.067-.027.103Z" fill="#fed700" fill-rule="evenodd" />
            <path d="M9.624,20.156c-.051.061-.083.139-.084.225-.053-.079-.084-.173-.084-.275,0-.112.038-.216.101-.299.03-.038.045-.085.044-.133.065.065.105.155.105.254,0,.087-.031.166-.082.228Z" fill="#fed700" fill-rule="evenodd" />
          </g>
          <g>
            <path d="M6.264,21.98c-.229.068-.472.104-.723.104-.042,0-.084,0-.126-.003.177.062.367.095.565.095.205,0,.402-.036.584-.102.106-.038.221-.059.34-.059.323,0,.611.152.797.388l.137-.079c-.294-.257-.679-.413-1.101-.413-.164,0-.323.024-.474.068Z" fill="#fed700" fill-rule="evenodd" />
            <path d="M5.693,21.571c.044.113.122.209.222.275-.01,0-.02,0-.03,0-.081,0-.158-.017-.229-.047-.073-.033-.154-.051-.239-.051-.041,0-.081.004-.12.012-.035.006-.072.01-.11.01-.027,0-.053-.002-.079-.005.165.116.366.184.583.184.054,0,.107-.004.159-.013.045-.006.091-.009.138-.009.053,0,.104.004.155.012-.092-.071-.168-.164-.218-.27-.063-.127-.18-.222-.321-.255.037.047.067.099.088.156Z" fill="#fed700" fill-rule="evenodd" />
            <path d="M5.292,21.639c.094.01.183.035.265.072,0-.014.001-.028.001-.042,0-.147-.054-.282-.143-.385-.046-.054-.077-.122-.085-.197-.033.051-.052.111-.052.176,0,.087.034.165.089.223.023.026.043.056.057.089-.111-.027-.213-.076-.302-.141-.065-.047-.138-.084-.215-.111-.083-.027-.159-.071-.223-.127.011.094.056.178.123.238.133.113.3.187.483.205Z" fill="#fed700" fill-rule="evenodd" />
            <path d="M4.721,20.889c-.083-.04-.158-.094-.22-.161.048.206.197.374.392.448.073.028.139.069.196.12-.003-.021-.004-.042-.004-.064,0-.081.018-.157.049-.226.019-.044.029-.092.029-.143,0-.089-.033-.171-.087-.234.003.017.004.034.004.052,0,.062-.017.12-.047.169-.032.051-.051.111-.051.175,0,.037.006.072.017.105-.071-.102-.166-.185-.278-.241Z" fill="#fed700" fill-rule="evenodd" />
            <path d="M4.462,20.344c.03.194.157.355.33.434.029.013.056.029.081.047-.003-.015-.004-.03-.004-.045,0-.067.025-.129.069-.179.052-.058.083-.134.083-.218,0-.045-.009-.088-.025-.127-.016.063-.05.118-.096.161-.06.057-.098.139-.098.228,0,.01,0,.019.001.029-.058-.048-.103-.111-.131-.183-.042-.112-.128-.203-.238-.251.013.033.022.067.027.103Z" fill="#fed700" fill-rule="evenodd" />
            <path d="M4.638,20.156c.051.061.083.139.085.225.053-.079.084-.173.084-.275,0-.112-.038-.216-.101-.299-.03-.038-.045-.085-.044-.133-.065.065-.105.155-.105.254,0,.087.031.166.082.228Z" fill="#fed700" fill-rule="evenodd" />
          </g>
        </g>
        <g>
          <g>
            <polygon points="4.077 16.382 4.216 16.521 4.216 16.812 4.507 16.812 4.576 16.882 4.507 16.951 4.216 16.951 4.216 17.242 4.077 17.381 4.077 16.382" fill="#ffda0c" fill-rule="evenodd" />
            <polygon points="5.068 16.98 5.068 16.783 5.166 16.882 5.068 16.98" fill="#ffda0c" fill-rule="evenodd" />
            <polygon points="4.576 17.275 4.773 17.472 4.576 17.668 4.675 17.766 4.077 18.364 4.077 18.167 4.478 17.766 4.38 17.668 4.576 17.472 4.478 17.373 4.42 17.431 4.42 17.521 4.281 17.521 4.281 17.373 4.675 16.98 4.97 16.98 4.97 17.119 4.814 17.119 4.97 17.275 5.363 16.882 4.97 16.489 4.814 16.645 4.97 16.645 4.97 16.783 4.675 16.783 4.281 16.39 4.281 16.243 4.42 16.243 4.42 16.332 4.478 16.39 4.576 16.292 4.38 16.095 4.478 15.997 4.077 15.596 4.077 15.399 4.675 15.997 4.576 16.095 4.773 16.292 4.576 16.489 4.675 16.587 4.97 16.292 5.56 16.882 4.97 17.472 4.675 17.176 4.576 17.275" fill="#ffda0c" fill-rule="evenodd" />
          </g>
          <g>
            <polygon points="10.185 16.382 10.046 16.521 10.046 16.812 9.755 16.812 9.686 16.882 9.755 16.951 10.046 16.951 10.046 17.242 10.185 17.381 10.185 16.382" fill="#ffda0c" fill-rule="evenodd" />
            <polygon points="9.194 16.98 9.194 16.783 9.096 16.882 9.194 16.98" fill="#ffda0c" fill-rule="evenodd" />
            <polygon points="9.686 17.275 9.489 17.472 9.686 17.668 9.588 17.766 10.185 18.364 10.185 18.167 9.784 17.766 9.882 17.668 9.686 17.472 9.784 17.373 9.842 17.431 9.842 17.521 9.981 17.521 9.981 17.373 9.588 16.98 9.293 16.98 9.293 17.119 9.448 17.119 9.293 17.275 8.899 16.882 9.293 16.489 9.448 16.645 9.293 16.645 9.293 16.783 9.588 16.783 9.981 16.39 9.981 16.243 9.842 16.243 9.842 16.332 9.784 16.39 9.686 16.292 9.882 16.095 9.784 15.997 10.185 15.596 10.185 15.399 9.588 15.997 9.686 16.095 9.489 16.292 9.686 16.489 9.588 16.587 9.293 16.292 8.703 16.882 9.293 17.472 9.588 17.176 9.686 17.275" fill="#ffda0c" fill-rule="evenodd" />
          </g>
        </g>
        <g>
          <g>
            <polygon points="4.077 12.125 4.216 12.264 4.216 12.555 4.507 12.555 4.576 12.624 4.507 12.693 4.216 12.693 4.216 12.984 4.077 13.123 4.077 12.125" fill="#ffda0c" fill-rule="evenodd" />
            <polygon points="5.068 12.722 5.068 12.526 5.166 12.624 5.068 12.722" fill="#ffda0c" fill-rule="evenodd" />
            <polygon points="4.576 13.017 4.773 13.214 4.576 13.411 4.675 13.509 4.077 14.106 4.077 13.91 4.478 13.509 4.38 13.411 4.576 13.214 4.478 13.116 4.42 13.173 4.42 13.263 4.281 13.263 4.281 13.116 4.675 12.722 4.97 12.722 4.97 12.861 4.814 12.861 4.97 13.017 5.363 12.624 4.97 12.231 4.814 12.387 4.97 12.387 4.97 12.526 4.675 12.526 4.281 12.133 4.281 11.985 4.42 11.985 4.42 12.075 4.478 12.133 4.576 12.034 4.38 11.838 4.478 11.739 4.077 11.339 4.077 11.142 4.675 11.739 4.576 11.838 4.773 12.034 4.576 12.231 4.675 12.329 4.97 12.034 5.56 12.624 4.97 13.214 4.675 12.919 4.576 13.017" fill="#ffda0c" fill-rule="evenodd" />
          </g>
          <g>
            <polygon points="10.185 12.125 10.046 12.264 10.046 12.555 9.755 12.555 9.686 12.624 9.755 12.693 10.046 12.693 10.046 12.984 10.185 13.123 10.185 12.125" fill="#ffda0c" fill-rule="evenodd" />
            <polygon points="9.194 12.722 9.194 12.526 9.096 12.624 9.194 12.722" fill="#ffda0c" fill-rule="evenodd" />
            <polygon points="9.686 13.017 9.489 13.214 9.686 13.411 9.588 13.509 10.185 14.106 10.185 13.91 9.784 13.509 9.882 13.411 9.686 13.214 9.784 13.116 9.842 13.173 9.842 13.263 9.981 13.263 9.981 13.116 9.588 12.722 9.293 12.722 9.293 12.861 9.448 12.861 9.293 13.017 8.899 12.624 9.293 12.231 9.448 12.387 9.293 12.387 9.293 12.526 9.588 12.526 9.981 12.133 9.981 11.985 9.842 11.985 9.842 12.075 9.784 12.133 9.686 12.034 9.882 11.838 9.784 11.739 10.185 11.339 10.185 11.142 9.588 11.739 9.686 11.838 9.489 12.034 9.686 12.231 9.588 12.329 9.293 12.034 8.703 12.624 9.293 13.214 9.588 12.919 9.686 13.017" fill="#ffda0c" fill-rule="evenodd" />
          </g>
        </g>
        <g>
          <g>
            <polygon points="4.077 7.868 4.216 8.007 4.216 8.297 4.507 8.297 4.576 8.367 4.507 8.436 4.216 8.436 4.216 8.727 4.077 8.866 4.077 7.868" fill="#ffda0c" fill-rule="evenodd" />
            <polygon points="5.068 8.465 5.068 8.268 5.166 8.367 5.068 8.465" fill="#ffda0c" fill-rule="evenodd" />
            <polygon points="4.576 8.76 4.773 8.956 4.576 9.153 4.675 9.251 4.077 9.849 4.077 9.652 4.478 9.251 4.38 9.153 4.576 8.956 4.478 8.858 4.42 8.916 4.42 9.006 4.281 9.006 4.281 8.858 4.675 8.465 4.97 8.465 4.97 8.604 4.814 8.604 4.97 8.76 5.363 8.367 4.97 7.973 4.814 8.129 4.97 8.129 4.97 8.268 4.675 8.268 4.281 7.875 4.281 7.728 4.42 7.728 4.42 7.818 4.478 7.875 4.576 7.777 4.38 7.58 4.478 7.482 4.077 7.081 4.077 6.885 4.675 7.482 4.576 7.58 4.773 7.777 4.576 7.973 4.675 8.072 4.97 7.777 5.56 8.367 4.97 8.956 4.675 8.662 4.576 8.76" fill="#ffda0c" fill-rule="evenodd" />
          </g>
          <g>
            <polygon points="10.185 7.868 10.046 8.007 10.046 8.297 9.755 8.297 9.686 8.367 9.755 8.436 10.046 8.436 10.046 8.727 10.185 8.866 10.185 7.868" fill="#ffda0c" fill-rule="evenodd" />
            <polygon points="9.194 8.465 9.194 8.268 9.096 8.367 9.194 8.465" fill="#ffda0c" fill-rule="evenodd" />
            <polygon points="9.686 8.76 9.489 8.956 9.686 9.153 9.588 9.251 10.185 9.849 10.185 9.652 9.784 9.251 9.882 9.153 9.686 8.956 9.784 8.858 9.842 8.916 9.842 9.006 9.981 9.006 9.981 8.858 9.588 8.465 9.293 8.465 9.293 8.604 9.448 8.604 9.293 8.76 8.899 8.367 9.293 7.973 9.448 8.129 9.293 8.129 9.293 8.268 9.588 8.268 9.981 7.875 9.981 7.728 9.842 7.728 9.842 7.818 9.784 7.875 9.686 7.777 9.882 7.58 9.784 7.482 10.185 7.081 10.185 6.885 9.588 7.482 9.686 7.58 9.489 7.777 9.686 7.973 9.588 8.072 9.293 7.777 8.703 8.367 9.293 8.956 9.588 8.662 9.686 8.76" fill="#ffda0c" fill-rule="evenodd" />
          </g>
        </g>
        <g>
          <g>
            <polygon points="4.077 3.61 4.216 3.749 4.216 4.04 4.507 4.04 4.576 4.109 4.507 4.178 4.216 4.178 4.216 4.469 4.077 4.608 4.077 3.61" fill="#ffda0c" fill-rule="evenodd" />
            <polygon points="5.068 4.208 5.068 4.011 5.166 4.109 5.068 4.208" fill="#ffda0c" fill-rule="evenodd" />
            <polygon points="4.576 4.502 4.773 4.699 4.576 4.895 4.675 4.994 4.077 5.591 4.077 5.395 4.478 4.994 4.38 4.895 4.576 4.699 4.478 4.601 4.42 4.658 4.42 4.748 4.281 4.748 4.281 4.601 4.675 4.208 4.97 4.208 4.97 4.346 4.814 4.346 4.97 4.502 5.363 4.109 4.97 3.716 4.814 3.872 4.97 3.872 4.97 4.011 4.675 4.011 4.281 3.618 4.281 3.47 4.42 3.47 4.42 3.56 4.478 3.618 4.576 3.519 4.38 3.323 4.478 3.224 4.077 2.824 4.077 2.627 4.675 3.224 4.576 3.323 4.773 3.519 4.576 3.716 4.675 3.814 4.97 3.519 5.56 4.109 4.97 4.699 4.675 4.404 4.576 4.502" fill="#ffda0c" fill-rule="evenodd" />
          </g>
          <g>
            <polygon points="10.185 3.61 10.046 3.749 10.046 4.04 9.755 4.04 9.686 4.109 9.755 4.178 10.046 4.178 10.046 4.469 10.185 4.608 10.185 3.61" fill="#ffda0c" fill-rule="evenodd" />
            <polygon points="9.194 4.208 9.194 4.011 9.096 4.109 9.194 4.208" fill="#ffda0c" fill-rule="evenodd" />
            <polygon points="9.686 4.502 9.489 4.699 9.686 4.895 9.588 4.994 10.185 5.591 10.185 5.395 9.784 4.994 9.882 4.895 9.686 4.699 9.784 4.601 9.842 4.658 9.842 4.748 9.981 4.748 9.981 4.601 9.588 4.208 9.293 4.208 9.293 4.346 9.448 4.346 9.293 4.502 8.899 4.109 9.293 3.716 9.448 3.872 9.293 3.872 9.293 4.011 9.588 4.011 9.981 3.618 9.981 3.47 9.842 3.47 9.842 3.56 9.784 3.618 9.686 3.519 9.882 3.323 9.784 3.224 10.185 2.824 10.185 2.627 9.588 3.224 9.686 3.323 9.489 3.519 9.686 3.716 9.588 3.814 9.293 3.519 8.703 4.109 9.293 4.699 9.588 4.404 9.686 4.502" fill="#ffda0c" fill-rule="evenodd" />
          </g>
        </g>
        <g>
          <g>
            <polygon points="4.077 0 4.576 0 4.507 .07 4.216 .07 4.216 .36 4.077 .499 4.077 0" fill="#ffda0c" fill-rule="evenodd" />
            <polygon points="5.068 .098 5.068 0 5.166 0 5.068 .098" fill="#ffda0c" fill-rule="evenodd" />
            <polygon points="4.576 .393 4.773 .59 4.576 .787 4.675 .885 4.077 1.482 4.077 1.285 4.478 .885 4.38 .787 4.576 .59 4.478 .492 4.42 .549 4.42 .639 4.281 .639 4.281 .492 4.675 .098 4.97 .098 4.97 .237 4.814 .237 4.97 .393 5.363 0 5.56 0 4.97 .59 4.675 .295 4.576 .393" fill="#ffda0c" fill-rule="evenodd" />
          </g>
          <g>
            <polygon points="10.185 0 9.686 0 9.755 .07 10.046 .07 10.046 .36 10.185 .499 10.185 0" fill="#ffda0c" fill-rule="evenodd" />
            <polygon points="9.194 .098 9.194 0 9.096 0 9.194 .098" fill="#ffda0c" fill-rule="evenodd" />
            <polygon points="9.686 .393 9.489 .59 9.686 .787 9.588 .885 10.185 1.482 10.185 1.285 9.784 .885 9.882 .787 9.686 .59 9.784 .492 9.842 .549 9.842 .639 9.981 .639 9.981 .492 9.588 .098 9.293 .098 9.293 .237 9.448 .237 9.293 .393 8.899 0 8.703 0 9.293 .59 9.588 .295 9.686 .393" fill="#ffda0c" fill-rule="evenodd" />
          </g>
        </g>
        <g>
          <polygon points="6.347 17.221 4.812 18.107 4.812 19.465 6.347 20.351 7.915 20.351 9.45 19.465 9.45 18.107 7.915 17.221 6.347 17.221" fill="#007c29" fill-rule="evenodd" />
          <polygon points="7.878 17.36 9.311 18.188 9.311 19.385 7.878 20.212 6.384 20.212 4.951 19.385 4.951 18.188 6.384 17.36 7.878 17.36" fill="#fff" fill-rule="evenodd" />
          <polygon points="7.131 18.786 7.131 17.36 6.384 17.36 4.951 18.188 4.951 18.786 7.131 18.786" fill="#fed700" fill-rule="evenodd" />
          <polygon points="5.827 17.811 5.29 18.121 5.827 18.121 5.827 17.811" fill="#fff" fill-rule="evenodd" />
          <polygon points="6.142 18.216 6.451 18.216 6.852 17.984 6.852 17.63 6.578 17.472 6.964 17.472 6.964 17.92 7.131 17.823 7.131 18.786 6.142 18.786 6.142 18.216" fill="#fff" fill-rule="evenodd" />
          <polygon points="5.314 18.274 5.485 18.274 5.485 18.446 5.656 18.446 5.656 18.274 5.827 18.274 5.827 18.702 5.656 18.702 5.656 18.531 5.485 18.531 5.485 18.702 5.314 18.702 5.314 18.274" fill="red" fill-rule="evenodd" />
          <polygon points="5.981 17.693 6.152 17.693 6.152 17.864 6.323 17.864 6.323 17.693 6.494 17.693 6.494 18.121 6.323 18.121 6.323 17.95 6.152 17.95 6.152 18.121 5.981 18.121 5.981 17.693" fill="red" fill-rule="evenodd" />
          <polygon points="8.435 17.811 8.972 18.121 8.435 18.121 8.435 17.811" fill="#fed700" fill-rule="evenodd" />
          <polygon points="8.12 18.216 7.811 18.216 7.41 17.984 7.41 17.63 7.684 17.472 7.298 17.472 7.298 17.92 7.131 17.823 7.131 18.786 8.12 18.786 8.12 18.216" fill="#fed700" fill-rule="evenodd" />
          <polygon points="8.948 18.274 8.777 18.274 8.777 18.446 8.606 18.446 8.606 18.274 8.435 18.274 8.435 18.702 8.606 18.702 8.606 18.531 8.777 18.531 8.777 18.702 8.948 18.702 8.948 18.274" fill="red" fill-rule="evenodd" />
          <polygon points="8.282 17.693 8.11 17.693 8.11 17.864 7.939 17.864 7.939 17.693 7.768 17.693 7.768 18.121 7.939 18.121 7.939 17.95 8.11 17.95 8.11 18.121 8.282 18.121 8.282 17.693" fill="red" fill-rule="evenodd" />
          <polygon points="5.827 19.762 5.29 19.451 5.827 19.451 5.827 19.762" fill="#fed700" fill-rule="evenodd" />
          <polygon points="6.142 19.356 6.451 19.356 6.852 19.588 6.852 19.942 6.578 20.101 6.964 20.101 6.964 19.653 7.131 19.749 7.131 18.786 6.142 18.786 6.142 19.356" fill="#fed700" fill-rule="evenodd" />
          <polygon points="5.314 19.298 5.485 19.298 5.485 19.127 5.656 19.127 5.656 19.298 5.827 19.298 5.827 18.87 5.656 18.87 5.656 19.041 5.485 19.041 5.485 18.87 5.314 18.87 5.314 19.298" fill="red" fill-rule="evenodd" />
          <polygon points="5.981 19.879 6.152 19.879 6.152 19.708 6.323 19.708 6.323 19.879 6.494 19.879 6.494 19.451 6.323 19.451 6.323 19.622 6.152 19.622 6.152 19.451 5.981 19.451 5.981 19.879" fill="red" fill-rule="evenodd" />
          <polygon points="7.131 18.786 7.131 20.212 7.878 20.212 9.311 19.385 9.311 18.786 7.131 18.786" fill="#fed700" fill-rule="evenodd" />
          <polygon points="8.435 19.762 8.972 19.451 8.435 19.451 8.435 19.762" fill="#fff" fill-rule="evenodd" />
          <polygon points="8.12 19.356 7.811 19.356 7.41 19.588 7.41 19.942 7.684 20.101 7.298 20.101 7.298 19.653 7.131 19.749 7.131 18.786 8.12 18.786 8.12 19.356" fill="#fff" fill-rule="evenodd" />
          <polygon points="8.948 19.298 8.777 19.298 8.777 19.127 8.606 19.127 8.606 19.298 8.435 19.298 8.435 18.87 8.606 18.87 8.606 19.041 8.777 19.041 8.777 18.87 8.948 18.87 8.948 19.298" fill="red" fill-rule="evenodd" />
          <polygon points="8.282 19.879 8.11 19.879 8.11 19.708 7.939 19.708 7.939 19.879 7.768 19.879 7.768 19.451 7.939 19.451 7.939 19.622 8.11 19.622 8.11 19.451 8.282 19.451 8.282 19.879" fill="red" fill-rule="evenodd" />
          <polygon points="6.254 19.245 6.254 18.786 6.254 18.328 6.481 18.328 7.131 17.952 7.781 18.328 8.008 18.328 8.008 18.786 8.008 19.245 7.781 19.245 7.131 19.621 6.481 19.245 6.254 19.245" fill="red" fill-rule="evenodd" />
          <polygon points="7.614 18.842 7.614 18.954 7.726 18.954 7.726 19.022 7.651 19.022 7.243 18.786 7.651 18.551 7.726 18.551 7.726 18.619 7.614 18.619 7.614 18.73 7.837 18.73 7.837 18.439 7.63 18.439 7.63 18.24 7.187 18.24 7.187 18.535 7.354 18.535 7.354 18.423 7.298 18.423 7.298 18.352 7.518 18.352 7.518 18.498 7.131 18.722 6.744 18.498 6.744 18.352 6.964 18.352 6.964 18.423 6.908 18.423 6.908 18.535 7.075 18.535 7.075 18.24 6.632 18.24 6.632 18.439 6.425 18.439 6.425 18.73 6.648 18.73 6.648 18.619 6.536 18.619 6.536 18.551 6.612 18.551 7.019 18.786 6.612 19.022 6.536 19.022 6.536 18.954 6.648 18.954 6.648 18.842 6.425 18.842 6.425 19.133 6.632 19.133 6.632 19.332 7.075 19.332 7.075 19.038 6.908 19.038 6.908 19.149 6.964 19.149 6.964 19.221 6.744 19.221 6.744 19.074 7.131 18.851 7.518 19.074 7.518 19.221 7.298 19.221 7.298 19.149 7.354 19.149 7.354 19.038 7.187 19.038 7.187 19.332 7.63 19.332 7.63 19.133 7.837 19.133 7.837 18.842 7.614 18.842" fill="#fff" fill-rule="evenodd" />
        </g>
        <g>
          <polygon points="6.612 13.367 6.992 13.148 6.649 12.95 6.269 12.95 6.13 13.089 6.816 13.089 6.575 13.228 5.794 13.228 6.211 12.811 6.686 12.811 7.131 13.068 7.576 12.811 8.05 12.811 8.468 13.228 7.687 13.228 7.446 13.089 8.132 13.089 7.993 12.95 7.613 12.95 7.27 13.148 7.65 13.367 9.049 13.367 9.049 13.787 9.469 13.787 9.469 14.208 9.889 14.208 9.889 15.298 9.469 15.298 9.469 15.718 9.049 15.718 9.049 16.139 7.65 16.139 7.27 16.358 7.613 16.556 7.993 16.556 8.132 16.417 7.446 16.417 7.687 16.278 8.468 16.278 8.05 16.695 7.576 16.695 7.131 16.438 6.686 16.695 6.211 16.695 5.794 16.278 6.575 16.278 6.816 16.417 6.13 16.417 6.269 16.556 6.649 16.556 6.992 16.358 6.612 16.139 5.213 16.139 5.213 15.718 4.793 15.718 4.793 15.298 4.372 15.298 4.372 14.208 4.793 14.208 4.793 13.787 5.213 13.787 5.213 13.367 6.612 13.367" fill="#ffda0c" fill-rule="evenodd" />
          <polygon points="6.649 13.506 7.131 13.228 7.612 13.506 8.91 13.506 8.91 13.927 9.33 13.927 9.33 14.347 9.75 14.347 9.75 15.159 9.33 15.159 9.33 15.579 8.91 15.579 8.91 16 7.612 16 7.131 16.278 6.649 16 5.352 16 5.352 15.579 4.932 15.579 4.932 15.159 4.512 15.159 4.512 14.347 4.932 14.347 4.932 13.927 5.352 13.927 5.352 13.506 6.649 13.506" fill="red" fill-rule="evenodd" />
          <polygon points="5.491 13.645 5.491 14.066 5.071 14.066 5.071 14.486 4.651 14.486 4.651 15.02 5.071 15.02 5.071 15.44 5.491 15.44 5.491 15.86 6.687 15.86 7.131 16.117 7.575 15.86 8.77 15.86 8.77 15.44 9.191 15.44 9.191 15.02 9.611 15.02 9.611 14.486 9.191 14.486 9.191 14.066 8.77 14.066 8.77 13.645 7.575 13.645 7.131 13.389 6.687 13.645 5.491 13.645" fill="#007c29" fill-rule="evenodd" />
          <polygon points="8.589 13.827 8.589 14.247 7.861 13.827 8.589 13.827" fill="red" fill-rule="evenodd" />
          <polygon points="5.673 15.679 5.673 15.258 6.401 15.679 5.673 15.679" fill="red" fill-rule="evenodd" />
          <polygon points="8.589 15.679 8.589 15.258 7.861 15.679 8.589 15.679" fill="red" fill-rule="evenodd" />
          <polygon points="5.673 13.827 5.673 14.247 6.401 13.827 5.673 13.827" fill="red" fill-rule="evenodd" />
          <g>
            <polygon points="7.492 13.807 7.131 13.599 6.77 13.807 7.492 13.807" fill="#ffda0c" fill-rule="evenodd" />
            <polygon points="7.492 14.501 7.131 14.709 6.77 14.501 7.492 14.501" fill="#ffda0c" fill-rule="evenodd" />
            <g>
              <g>
                <rect x="6.686" y="13.847" width=".424" height=".177" fill="red" />
                <rect x="6.81" y="13.908" width=".177" height=".057" fill="#fff" />
              </g>
              <g>
                <rect x="7.15" y="13.847" width=".425" height=".177" fill="red" />
                <rect x="7.275" y="13.908" width=".177" height=".057" fill="#fff" />
              </g>
              <g>
                <rect x="6.686" y="14.283" width=".424" height=".178" fill="red" />
                <rect x="6.81" y="14.343" width=".177" height=".057" fill="#fff" />
              </g>
              <g>
                <rect x="7.15" y="14.283" width=".425" height=".178" fill="red" />
                <rect x="7.275" y="14.343" width=".177" height=".057" fill="#fff" />
              </g>
              <g>
                <rect x="6.453" y="14.065" width=".425" height=".178" fill="red" />
                <rect x="6.577" y="14.125" width=".176" height=".057" fill="#fff" />
              </g>
              <g>
                <rect x="6.918" y="14.065" width=".425" height=".178" fill="red" />
                <rect x="7.042" y="14.125" width=".177" height=".057" fill="#fff" />
              </g>
              <g>
                <rect x="7.383" y="14.065" width=".425" height=".178" fill="red" />
                <rect x="7.507" y="14.125" width=".177" height=".057" fill="#fff" />
              </g>
            </g>
          </g>
          <g>
            <polygon points="7.492 15.005 7.131 14.797 6.77 15.005 7.492 15.005" fill="#ffda0c" fill-rule="evenodd" />
            <polygon points="7.492 15.699 7.131 15.907 6.77 15.699 7.492 15.699" fill="#ffda0c" fill-rule="evenodd" />
            <g>
              <g>
                <rect x="6.686" y="15.045" width=".424" height=".178" fill="red" />
                <rect x="6.81" y="15.105" width=".177" height=".057" fill="#fff" />
              </g>
              <g>
                <rect x="7.15" y="15.045" width=".425" height=".178" fill="red" />
                <rect x="7.275" y="15.105" width=".177" height=".057" fill="#fff" />
              </g>
              <g>
                <rect x="6.686" y="15.481" width=".424" height=".177" fill="red" />
                <rect x="6.81" y="15.541" width=".177" height=".057" fill="#fff" />
              </g>
              <g>
                <rect x="7.15" y="15.481" width=".425" height=".177" fill="red" />
                <rect x="7.275" y="15.541" width=".177" height=".057" fill="#fff" />
              </g>
              <g>
                <rect x="6.453" y="15.263" width=".425" height=".178" fill="red" />
                <rect x="6.577" y="15.324" width=".176" height=".057" fill="#fff" />
              </g>
              <g>
                <rect x="6.918" y="15.263" width=".425" height=".178" fill="red" />
                <rect x="7.042" y="15.324" width=".177" height=".057" fill="#fff" />
              </g>
              <g>
                <rect x="7.383" y="15.263" width=".425" height=".178" fill="red" />
                <rect x="7.507" y="15.324" width=".177" height=".057" fill="#fff" />
              </g>
            </g>
          </g>
          <g>
            <polygon points="8.505 14.406 8.144 14.198 7.784 14.406 8.505 14.406" fill="#ffda0c" fill-rule="evenodd" />
            <polygon points="8.505 15.1 8.144 15.308 7.784 15.1 8.505 15.1" fill="#ffda0c" fill-rule="evenodd" />
            <g>
              <g>
                <rect x="7.699" y="14.446" width=".425" height=".178" fill="red" />
                <rect x="7.823" y="14.507" width=".176" height=".057" fill="#fff" />
              </g>
              <g>
                <rect x="8.164" y="14.446" width=".425" height=".178" fill="red" />
                <rect x="8.288" y="14.507" width=".177" height=".057" fill="#fff" />
              </g>
              <g>
                <rect x="7.699" y="14.882" width=".425" height=".178" fill="red" />
                <rect x="7.823" y="14.942" width=".176" height=".057" fill="#fff" />
              </g>
              <g>
                <rect x="8.164" y="14.882" width=".425" height=".178" fill="red" />
                <rect x="8.288" y="14.942" width=".177" height=".057" fill="#fff" />
              </g>
              <g>
                <rect x="7.467" y="14.664" width=".425" height=".177" fill="red" />
                <rect x="7.591" y="14.725" width=".176" height=".057" fill="#fff" />
              </g>
              <g>
                <rect x="7.932" y="14.664" width=".425" height=".177" fill="red" />
                <rect x="8.056" y="14.725" width=".176" height=".057" fill="#fff" />
              </g>
              <g>
                <rect x="8.396" y="14.664" width=".425" height=".177" fill="red" />
                <rect x="8.52" y="14.725" width=".177" height=".057" fill="#fff" />
              </g>
            </g>
          </g>
          <g>
            <polygon points="6.479 14.406 6.118 14.198 5.757 14.406 6.479 14.406" fill="#ffda0c" fill-rule="evenodd" />
            <polygon points="6.479 15.1 6.118 15.308 5.757 15.1 6.479 15.1" fill="#ffda0c" fill-rule="evenodd" />
            <g>
              <g>
                <rect x="5.673" y="14.446" width=".425" height=".178" fill="red" />
                <rect x="5.797" y="14.507" width=".176" height=".057" fill="#fff" />
              </g>
              <g>
                <rect x="6.138" y="14.446" width=".425" height=".178" fill="red" />
                <rect x="6.262" y="14.507" width=".176" height=".057" fill="#fff" />
              </g>
              <g>
                <rect x="5.673" y="14.882" width=".425" height=".178" fill="red" />
                <rect x="5.797" y="14.942" width=".176" height=".057" fill="#fff" />
              </g>
              <g>
                <rect x="6.138" y="14.882" width=".425" height=".178" fill="red" />
                <rect x="6.262" y="14.942" width=".176" height=".057" fill="#fff" />
              </g>
              <g>
                <rect x="5.441" y="14.664" width=".424" height=".177" fill="red" />
                <rect x="5.565" y="14.725" width=".177" height=".057" fill="#fff" />
              </g>
              <g>
                <rect x="5.905" y="14.664" width=".425" height=".177" fill="red" />
                <rect x="6.03" y="14.725" width=".177" height=".057" fill="#fff" />
              </g>
              <g>
                <rect x="6.37" y="14.664" width=".425" height=".177" fill="red" />
                <rect x="6.494" y="14.725" width=".176" height=".057" fill="#fff" />
              </g>
            </g>
          </g>
        </g>
        <g>
          <polygon points="4.713 10.496 4.533 10.315 4.707 10.315 4.8 10.408 4.991 10.217 4.8 10.027 4.707 10.12 4.533 10.12 4.713 9.94 4.533 9.759 4.707 9.759 4.8 9.852 5.068 9.585 5.068 9.759 4.887 9.94 5.068 10.12 5.068 10.315 4.887 10.496 5.068 10.676 5.068 10.871 4.887 11.051 5.068 11.232 5.068 11.406 4.8 11.138 4.707 11.232 4.533 11.232 4.713 11.051 4.533 10.871 4.707 10.871 4.8 10.964 4.991 10.773 4.8 10.583 4.707 10.676 4.533 10.676 4.713 10.496" fill="#007c29" fill-rule="evenodd" />
          <polygon points="9.549 10.496 9.73 10.315 9.556 10.315 9.462 10.408 9.271 10.217 9.462 10.027 9.556 10.12 9.73 10.12 9.549 9.94 9.73 9.759 9.556 9.759 9.462 9.852 9.194 9.585 9.194 9.759 9.375 9.94 9.194 10.12 9.194 10.315 9.375 10.496 9.194 10.676 9.194 10.871 9.375 11.051 9.194 11.232 9.194 11.406 9.462 11.138 9.556 11.232 9.73 11.232 9.549 11.051 9.73 10.871 9.556 10.871 9.462 10.964 9.271 10.773 9.462 10.583 9.556 10.676 9.73 10.676 9.549 10.496" fill="#007c29" fill-rule="evenodd" />
          <path d="M7.131,12.154l.18.181v-.174l-.093-.093.171-.171h-.174l-.084.084-.084-.084h-.174l.171.171-.093.093v.174l.181-.181h0ZM7.429,11.896l.171.171-.093.093v.174l.18-.181.181.181v-.174l-.094-.093.171-.171h-.174l-.084.084-.084-.084h-.174ZM6.659,11.896l-.084.084-.084-.084h-.174l.171.171-.094.093v.174l.181-.181.18.181v-.174l-.093-.093.171-.171h-.174Z" fill="#007c29" fill-rule="evenodd" />
          <path d="M7.131,8.837l.18-.181v.174l-.093.094.171.171h-.174l-.084-.084-.084.084h-.174l.171-.171-.093-.094v-.174l.181.181h0ZM7.429,9.095l.171-.171-.093-.094v-.174l.18.181.181-.181v.174l-.094.094.171.171h-.174l-.084-.084-.084.084h-.174ZM6.659,9.095l-.084-.084-.084.084h-.174l.171-.171-.094-.094v-.174l.181.181.18-.181v.174l-.093.094.171.171h-.174Z" fill="#007c29" fill-rule="evenodd" />
          <polygon points="5.16 11.709 5.037 11.709 5.037 11.576 4.905 11.576 4.905 11.453 5.16 11.453 5.16 11.709" fill="#007c29" fill-rule="evenodd" />
          <polygon points="5.641 12.059 5.518 12.059 5.518 11.927 5.386 11.927 5.386 11.803 5.641 11.803 5.641 12.059" fill="#007c29" fill-rule="evenodd" />
          <polygon points="9.102 11.709 9.225 11.709 9.225 11.576 9.357 11.576 9.357 11.453 9.102 11.453 9.102 11.709" fill="#007c29" fill-rule="evenodd" />
          <polygon points="8.621 12.059 8.744 12.059 8.744 11.927 8.876 11.927 8.876 11.803 8.621 11.803 8.621 12.059" fill="#007c29" fill-rule="evenodd" />
          <polygon points="5.16 9.283 5.037 9.283 5.037 9.415 4.905 9.415 4.905 9.538 5.16 9.538 5.16 9.283" fill="#007c29" fill-rule="evenodd" />
          <polygon points="5.641 8.932 5.518 8.932 5.518 9.064 5.386 9.064 5.386 9.188 5.641 9.188 5.641 8.932" fill="#007c29" fill-rule="evenodd" />
          <polygon points="9.102 9.283 9.225 9.283 9.225 9.415 9.357 9.415 9.357 9.538 9.102 9.538 9.102 9.283" fill="#007c29" fill-rule="evenodd" />
          <polygon points="8.621 8.932 8.744 8.932 8.744 9.064 8.876 9.064 8.876 9.188 8.621 9.188 8.621 8.932" fill="#007c29" fill-rule="evenodd" />
          <polygon points="5.068 9.446 5.549 9.446 5.549 9.095 8.713 9.095 8.713 9.446 9.194 9.446 9.194 11.545 8.713 11.545 8.713 11.896 5.549 11.896 5.549 11.545 5.068 11.545 5.068 9.446" fill="#ffda0c" fill-rule="evenodd" />
          <polygon points="5.207 9.585 5.207 11.406 5.688 11.406 5.688 11.757 8.574 11.757 8.574 11.406 9.055 11.406 9.055 9.585 8.574 9.585 8.574 9.234 5.688 9.234 5.688 9.585 5.207 9.585" fill="red" fill-rule="evenodd" />
          <polygon points="5.207 10.925 5.688 11.406 6.038 11.757 8.224 11.757 8.574 11.406 9.055 10.925 9.055 10.066 8.574 9.585 8.224 9.234 6.038 9.234 5.688 9.585 5.207 10.066 5.207 10.925" fill="#007c29" fill-rule="evenodd" />
          <polygon points="6.214 11.582 7.131 11.582 8.048 11.582 8.224 11.406 8.574 11.056 8.574 10.496 8.574 9.935 8.224 9.585 8.048 9.41 7.131 9.41 6.214 9.41 6.038 9.585 5.688 9.935 5.688 10.496 5.688 11.056 6.038 11.406 6.214 11.582" fill="#007c29" fill-rule="evenodd" />
          <polygon points="6.25 11.494 6.483 11.494 6.674 11.303 6.607 11.237 6.607 11.113 6.736 11.241 6.864 11.113 6.864 11.237 6.797 11.303 6.933 11.439 7.069 11.303 7.003 11.237 7.003 11.113 7.131 11.241 7.26 11.113 7.26 11.237 7.193 11.303 7.329 11.439 7.464 11.303 7.398 11.237 7.398 11.113 7.527 11.241 7.655 11.113 7.655 11.237 7.589 11.303 7.779 11.494 8.012 11.494 8.425 11.082 8.296 10.953 8.23 11.019 8.106 11.019 8.234 10.891 8.106 10.762 8.23 10.762 8.296 10.829 8.432 10.693 8.296 10.557 8.23 10.624 8.106 10.624 8.234 10.496 8.106 10.367 8.23 10.367 8.296 10.433 8.432 10.298 8.296 10.162 8.23 10.228 8.106 10.228 8.234 10.1 8.106 9.971 8.23 9.971 8.296 10.038 8.425 9.91 8.012 9.497 7.779 9.497 7.589 9.688 7.655 9.754 7.655 9.878 7.527 9.749 7.398 9.878 7.398 9.754 7.464 9.688 7.329 9.552 7.193 9.688 7.26 9.754 7.26 9.878 7.131 9.749 7.003 9.878 7.003 9.754 7.069 9.688 6.933 9.552 6.797 9.688 6.864 9.754 6.864 9.878 6.736 9.749 6.607 9.878 6.607 9.754 6.674 9.688 6.483 9.497 6.25 9.497 5.838 9.91 5.966 10.038 6.032 9.971 6.157 9.971 6.028 10.1 6.157 10.228 6.032 10.228 5.966 10.162 5.83 10.298 5.966 10.433 6.032 10.367 6.157 10.367 6.028 10.496 6.157 10.624 6.032 10.624 5.966 10.557 5.83 10.693 5.966 10.829 6.032 10.762 6.157 10.762 6.028 10.891 6.157 11.019 6.032 11.019 5.966 10.953 5.838 11.082 6.25 11.494" fill="red" fill-rule="evenodd" />
          <path d="M7.655,11.494l-.128-.128-.128.128h.257ZM6.864,11.494l-.128-.128-.129.128h.257ZM7.26,11.494l-.128-.128-.128.128h.257Z" fill="#fff" fill-rule="evenodd" />
          <path d="M7.655,9.497l-.128.128-.128-.128h.257ZM6.864,9.497l-.128.128-.129-.128h.257ZM7.26,9.497l-.128.128-.128-.128h.257Z" fill="#fff" fill-rule="evenodd" />
          <path d="M5.776,9.971l.128.129-.128.128v-.257h0ZM5.776,10.763l.128.128-.128.128v-.257h0ZM5.776,10.367l.128.129-.128.128v-.257Z" fill="#fff" fill-rule="evenodd" />
          <path d="M8.487,9.971l-.128.129.128.128v-.257h0ZM8.487,10.763l-.128.128.128.128v-.257h0ZM8.487,10.367l-.128.129.128.128v-.257Z" fill="#fff" fill-rule="evenodd" />
          <polygon points="5.688 9.935 5.446 9.935 5.334 10.047 5.446 10.159 5.688 10.159 5.688 10.047 5.688 9.935" fill="#ffda0c" fill-rule="evenodd" />
          <polygon points="5.688 10.383 5.446 10.383 5.334 10.271 5.446 10.159 5.688 10.159 5.688 10.271 5.688 10.383" fill="red" fill-rule="evenodd" />
          <polygon points="5.688 10.832 5.446 10.832 5.334 10.719 5.446 10.608 5.688 10.608 5.688 10.719 5.688 10.832" fill="red" fill-rule="evenodd" />
          <polygon points="5.688 10.383 5.446 10.383 5.334 10.496 5.446 10.608 5.688 10.608 5.688 10.496 5.688 10.383" fill="#ffda0c" fill-rule="evenodd" />
          <polygon points="5.688 10.832 5.446 10.832 5.334 10.944 5.446 11.056 5.688 11.056 5.688 10.944 5.688 10.832" fill="#ffda0c" fill-rule="evenodd" />
          <g>
            <polygon points="8.574 9.935 8.817 9.935 8.929 10.047 8.817 10.159 8.574 10.159 8.574 10.047 8.574 9.935" fill="#ffda0c" fill-rule="evenodd" />
            <polygon points="8.574 10.383 8.817 10.383 8.929 10.271 8.817 10.159 8.574 10.159 8.574 10.271 8.574 10.383" fill="red" fill-rule="evenodd" />
            <polygon points="8.574 10.832 8.817 10.832 8.929 10.719 8.817 10.608 8.574 10.608 8.574 10.719 8.574 10.832" fill="red" fill-rule="evenodd" />
            <polygon points="8.574 10.383 8.817 10.383 8.929 10.496 8.817 10.608 8.574 10.608 8.574 10.496 8.574 10.383" fill="#ffda0c" fill-rule="evenodd" />
            <polygon points="8.574 10.832 8.817 10.832 8.929 10.944 8.817 11.056 8.574 11.056 8.574 10.944 8.574 10.832" fill="#ffda0c" fill-rule="evenodd" />
          </g>
          <g>
            <polygon points="6.571 9.41 6.571 9.346 6.683 9.234 6.795 9.346 6.795 9.41 6.571 9.41" fill="red" fill-rule="evenodd" />
            <polygon points="7.019 9.41 7.019 9.346 6.907 9.234 6.795 9.346 6.795 9.41 7.019 9.41" fill="#ffda0c" fill-rule="evenodd" />
            <polygon points="7.467 9.41 7.467 9.346 7.355 9.234 7.243 9.346 7.243 9.41 7.467 9.41" fill="#ffda0c" fill-rule="evenodd" />
            <polygon points="7.019 9.41 7.019 9.346 7.131 9.234 7.243 9.346 7.243 9.41 7.019 9.41" fill="red" fill-rule="evenodd" />
            <polygon points="7.467 9.41 7.467 9.346 7.579 9.234 7.691 9.346 7.691 9.41 7.467 9.41" fill="red" fill-rule="evenodd" />
          </g>
          <polygon points="6.571 11.582 6.571 11.645 6.683 11.757 6.795 11.645 6.795 11.582 6.571 11.582" fill="red" fill-rule="evenodd" />
          <polygon points="7.019 11.582 7.019 11.645 6.907 11.757 6.795 11.645 6.795 11.582 7.019 11.582" fill="#ffda0c" fill-rule="evenodd" />
          <polygon points="7.467 11.582 7.467 11.645 7.355 11.757 7.243 11.645 7.243 11.582 7.467 11.582" fill="#ffda0c" fill-rule="evenodd" />
          <polygon points="7.019 11.582 7.019 11.645 7.131 11.757 7.243 11.645 7.243 11.582 7.019 11.582" fill="red" fill-rule="evenodd" />
          <polygon points="7.467 11.582 7.467 11.645 7.579 11.757 7.691 11.645 7.691 11.582 7.467 11.582" fill="red" fill-rule="evenodd" />
          <g>
            <g>
              <polygon points="7.403 10.06 7.403 10.199 7.577 10.199 7.577 10.338 7.752 10.338 7.752 10.49 7.752 10.641 7.577 10.641 7.577 10.78 7.403 10.78 7.403 10.92 6.877 10.92 6.877 10.78 6.703 10.78 6.703 10.641 6.528 10.641 6.528 10.49 6.528 10.338 6.703 10.338 6.703 10.199 6.877 10.199 6.877 10.06 7.403 10.06" fill="#fff" fill-rule="evenodd" />
              <polygon points="6.528 10.49 7.14 10.49 7.14 10.06 6.877 10.06 6.877 10.199 6.703 10.199 6.703 10.338 6.528 10.338 6.528 10.49" fill="#ffda0c" fill-rule="evenodd" />
              <polygon points="7.752 10.49 7.14 10.49 7.14 10.92 7.403 10.92 7.403 10.78 7.577 10.78 7.577 10.641 7.752 10.641 7.752 10.49" fill="#ffda0c" fill-rule="evenodd" />
            </g>
            <g>
              <polygon points="7.14 10.241 7.355 10.365 7.355 10.614 7.14 10.738 6.925 10.614 6.925 10.365 7.14 10.241" fill="red" fill-rule="evenodd" />
              <polygon points="7.355 10.49 7.14 10.49 7.14 10.738 7.355 10.614 7.355 10.49" fill="#007c29" fill-rule="evenodd" />
              <polygon points="6.925 10.49 7.14 10.49 7.14 10.241 6.925 10.365 6.925 10.49" fill="#007c29" fill-rule="evenodd" />
            </g>
          </g>
          <g>
            <polygon points="8.224 9.409 8.048 9.409 8.224 9.585 8.224 9.409" fill="red" fill-rule="evenodd" />
            <polygon points="8.574 9.585 8.224 9.585 8.574 9.935 8.574 9.585" fill="red" fill-rule="evenodd" />
          </g>
          <g>
            <polygon points="6.038 9.409 6.214 9.409 6.038 9.585 6.038 9.409" fill="red" fill-rule="evenodd" />
            <polygon points="5.688 9.585 6.038 9.585 5.688 9.935 5.688 9.585" fill="red" fill-rule="evenodd" />
          </g>
          <g>
            <g>
              <polygon points="8.224 11.582 8.048 11.582 8.224 11.406 8.224 11.582" fill="red" fill-rule="evenodd" />
              <polygon points="8.574 11.406 8.224 11.406 8.574 11.056 8.574 11.406" fill="red" fill-rule="evenodd" />
            </g>
            <g>
              <polygon points="6.038 11.582 6.214 11.582 6.038 11.406 6.038 11.582" fill="red" fill-rule="evenodd" />
              <polygon points="5.688 11.406 6.038 11.406 5.688 11.056 5.688 11.406" fill="red" fill-rule="evenodd" />
            </g>
          </g>
        </g>
        <g>
          <polygon points="4.654 5.254 5.266 5.254 5.266 5.028 5.878 5.028 5.878 4.802 6.49 4.802 6.49 4.577 7.131 4.577 7.771 4.577 7.771 4.802 8.384 4.802 8.384 5.028 8.996 5.028 8.996 5.254 9.608 5.254 9.608 7.222 8.996 7.222 8.996 7.448 8.384 7.448 8.384 7.673 7.771 7.673 7.771 7.899 7.131 7.899 6.49 7.899 6.49 7.673 5.878 7.673 5.878 7.448 5.266 7.448 5.266 7.222 4.654 7.222 4.654 5.254" fill="#ffda0c" fill-rule="evenodd" />
          <polygon points="5.405 5.393 4.793 5.393 4.793 6.099 4.654 6.099 4.654 6.377 4.793 6.377 4.793 7.083 5.405 7.083 5.405 5.393" fill="#007c29" fill-rule="evenodd" />
          <g>
            <polygon points="4.946 5.546 4.946 5.393 4.793 5.393 4.946 5.546" fill="red" fill-rule="evenodd" />
            <polygon points="5.099 5.393 4.946 5.393 5.099 5.546 5.252 5.393 5.099 5.393" fill="red" fill-rule="evenodd" />
            <polygon points="5.252 5.546 5.252 5.393 5.405 5.393 5.252 5.546" fill="red" fill-rule="evenodd" />
          </g>
          <g>
            <polygon points="4.946 6.93 4.946 7.083 4.793 7.083 4.946 6.93" fill="red" fill-rule="evenodd" />
            <polygon points="5.099 7.083 4.946 7.083 5.099 6.93 5.252 7.083 5.099 7.083" fill="red" fill-rule="evenodd" />
            <polygon points="5.252 6.93 5.252 7.083 5.405 7.083 5.252 6.93" fill="red" fill-rule="evenodd" />
          </g>
          <rect x="5.405" y="5.167" width=".612" height="2.141" fill="#ffda0c" />
          <g>
            <polygon points="5.558 5.32 5.558 5.167 5.405 5.167 5.558 5.32" fill="red" fill-rule="evenodd" />
            <polygon points="5.712 5.167 5.558 5.167 5.712 5.32 5.864 5.167 5.712 5.167" fill="red" fill-rule="evenodd" />
            <polygon points="5.864 5.32 5.864 5.167 6.017 5.167 5.864 5.32" fill="red" fill-rule="evenodd" />
          </g>
          <g>
            <polygon points="5.558 7.155 5.558 7.309 5.405 7.309 5.558 7.155" fill="red" fill-rule="evenodd" />
            <polygon points="5.712 7.309 5.558 7.309 5.712 7.155 5.864 7.309 5.712 7.309" fill="red" fill-rule="evenodd" />
            <polygon points="5.864 7.155 5.864 7.309 6.017 7.309 5.864 7.155" fill="red" fill-rule="evenodd" />
          </g>
          <rect x="6.017" y="4.942" width=".612" height="2.593" fill="#007c29" />
          <g>
            <polygon points="6.17 5.094 6.17 4.942 6.017 4.942 6.17 5.094" fill="red" fill-rule="evenodd" />
            <polygon points="6.324 4.942 6.17 4.942 6.324 5.094 6.477 4.942 6.324 4.942" fill="red" fill-rule="evenodd" />
            <polygon points="6.477 5.094 6.477 4.942 6.63 4.942 6.477 5.094" fill="red" fill-rule="evenodd" />
          </g>
          <g>
            <polygon points="6.17 7.381 6.17 7.534 6.017 7.534 6.17 7.381" fill="red" fill-rule="evenodd" />
            <polygon points="6.324 7.534 6.17 7.534 6.324 7.381 6.477 7.534 6.324 7.534" fill="red" fill-rule="evenodd" />
            <polygon points="6.477 7.381 6.477 7.534 6.63 7.534 6.477 7.381" fill="red" fill-rule="evenodd" />
          </g>
          <rect x="6.63" y="4.716" width="1.003" height="3.044" fill="#ffda0c" />
          <g>
            <polygon points="6.88 4.967 6.88 4.716 6.63 4.716 6.88 4.967" fill="red" fill-rule="evenodd" />
            <polygon points="7.131 4.716 6.88 4.716 7.131 4.967 7.382 4.716 7.131 4.716" fill="red" fill-rule="evenodd" />
            <polygon points="7.382 4.967 7.382 4.716 7.633 4.716 7.382 4.967" fill="red" fill-rule="evenodd" />
          </g>
          <g>
            <polygon points="6.88 7.509 6.88 7.76 6.63 7.76 6.88 7.509" fill="red" fill-rule="evenodd" />
            <polygon points="7.131 7.76 6.88 7.76 7.131 7.509 7.382 7.76 7.131 7.76" fill="red" fill-rule="evenodd" />
            <polygon points="7.382 7.509 7.382 7.76 7.633 7.76 7.382 7.509" fill="red" fill-rule="evenodd" />
          </g>
          <rect x="8.245" y="5.167" width=".612" height="2.141" fill="#ffda0c" />
          <rect x="7.633" y="4.942" width=".612" height="2.593" fill="#007c29" />
          <g>
            <polygon points="7.786 5.094 7.786 4.942 7.633 4.942 7.786 5.094" fill="red" fill-rule="evenodd" />
            <polygon points="7.939 4.942 7.786 4.942 7.939 5.094 8.092 4.942 7.939 4.942" fill="red" fill-rule="evenodd" />
            <polygon points="8.092 5.094 8.092 4.942 8.245 4.942 8.092 5.094" fill="red" fill-rule="evenodd" />
          </g>
          <g>
            <polygon points="8.398 5.32 8.398 5.167 8.245 5.167 8.398 5.32" fill="red" fill-rule="evenodd" />
            <polygon points="8.551 5.167 8.398 5.167 8.551 5.32 8.704 5.167 8.551 5.167" fill="red" fill-rule="evenodd" />
            <polygon points="8.704 5.32 8.704 5.167 8.857 5.167 8.704 5.32" fill="red" fill-rule="evenodd" />
          </g>
          <g>
            <polygon points="8.398 7.155 8.398 7.309 8.245 7.309 8.398 7.155" fill="red" fill-rule="evenodd" />
            <polygon points="8.551 7.309 8.398 7.309 8.551 7.155 8.704 7.309 8.551 7.309" fill="red" fill-rule="evenodd" />
            <polygon points="8.704 7.155 8.704 7.309 8.857 7.309 8.704 7.155" fill="red" fill-rule="evenodd" />
          </g>
          <g>
            <polygon points="7.786 7.381 7.786 7.534 7.633 7.534 7.786 7.381" fill="red" fill-rule="evenodd" />
            <polygon points="7.939 7.534 7.786 7.534 7.939 7.381 8.092 7.534 7.939 7.534" fill="red" fill-rule="evenodd" />
            <polygon points="8.092 7.381 8.092 7.534 8.245 7.534 8.092 7.381" fill="red" fill-rule="evenodd" />
          </g>
          <polygon points="8.857 5.393 9.469 5.393 9.469 6.099 9.608 6.099 9.608 6.377 9.469 6.377 9.469 7.083 8.857 7.083 8.857 5.393" fill="#007c29" fill-rule="evenodd" />
          <g>
            <polygon points="9.01 5.546 9.01 5.393 8.857 5.393 9.01 5.546" fill="red" fill-rule="evenodd" />
            <polygon points="9.163 5.393 9.01 5.393 9.163 5.546 9.316 5.393 9.163 5.393" fill="red" fill-rule="evenodd" />
            <polygon points="9.316 5.546 9.316 5.393 9.469 5.393 9.316 5.546" fill="red" fill-rule="evenodd" />
          </g>
          <g>
            <polygon points="9.01 6.93 9.01 7.083 8.857 7.083 9.01 6.93" fill="red" fill-rule="evenodd" />
            <polygon points="9.163 7.083 9.01 7.083 9.163 6.93 9.316 7.083 9.163 7.083" fill="red" fill-rule="evenodd" />
            <polygon points="9.316 6.93 9.316 7.083 9.469 7.083 9.316 6.93" fill="red" fill-rule="evenodd" />
          </g>
          <polygon points="6.215 7.169 6.289 7.094 6.289 6.905 6.221 6.974 6.221 7.067 6.127 6.972 6.324 6.775 6.521 6.972 6.426 7.067 6.426 6.974 6.358 6.905 6.358 7.094 6.433 7.169 6.324 7.278 6.215 7.169" fill="#fff" fill-rule="evenodd" />
          <polygon points="5.602 6.944 5.677 6.869 5.677 6.68 5.609 6.748 5.609 6.841 5.514 6.746 5.712 6.549 5.909 6.746 5.814 6.841 5.814 6.748 5.746 6.68 5.746 6.869 5.82 6.944 5.712 7.053 5.602 6.944" fill="red" fill-rule="evenodd" />
          <path d="M5.099,6.478c.065,0,.118.053.118.118v.147l-.059-.102-.059.102-.059-.102-.059.102v-.147c0-.065.053-.118.118-.118Z" fill="#fff" fill-rule="evenodd" />
          <path d="M9.163,6.478c.065,0,.118.053.118.118v.147l-.059-.102-.059.102-.059-.102-.059.102v-.147c0-.065.053-.118.118-.118Z" fill="#fff" fill-rule="evenodd" />
          <polygon points="8.442 6.944 8.517 6.869 8.517 6.68 8.449 6.748 8.449 6.841 8.354 6.746 8.551 6.549 8.748 6.746 8.653 6.841 8.653 6.748 8.585 6.68 8.585 6.869 8.66 6.944 8.551 7.053 8.442 6.944" fill="red" fill-rule="evenodd" />
          <polygon points="7.83 7.169 7.905 7.094 7.905 6.905 7.836 6.974 7.836 7.067 7.741 6.972 7.939 6.775 8.136 6.972 8.041 7.067 8.041 6.974 7.973 6.905 7.973 7.094 8.048 7.169 7.939 7.278 7.83 7.169" fill="#fff" fill-rule="evenodd" />
          <polygon points="6.912 7.29 7.027 7.176 7.027 6.96 6.916 7.071 6.916 7.181 6.804 7.069 6.992 6.881 6.843 6.731 7.42 6.731 7.27 6.881 7.458 7.069 7.347 7.181 7.347 7.071 7.236 6.96 7.236 7.176 7.35 7.29 7.131 7.509 6.912 7.29" fill="red" fill-rule="evenodd" />
          <rect x="7.056" y="7.215" width=".15" height=".15" transform="translate(-3.066 7.178) rotate(-45)" fill="#007c29" />
          <polygon points="6.215 5.307 6.289 5.381 6.289 5.57 6.221 5.502 6.221 5.408 6.127 5.504 6.324 5.701 6.521 5.504 6.426 5.408 6.426 5.502 6.358 5.57 6.358 5.381 6.433 5.307 6.324 5.198 6.215 5.307" fill="#fff" fill-rule="evenodd" />
          <polygon points="5.602 5.532 5.677 5.607 5.677 5.796 5.609 5.728 5.609 5.634 5.514 5.729 5.712 5.926 5.909 5.729 5.814 5.634 5.814 5.728 5.746 5.796 5.746 5.607 5.82 5.532 5.712 5.423 5.602 5.532" fill="red" fill-rule="evenodd" />
          <path d="M5.099,5.997c.065,0,.118-.053.118-.118v-.147l-.059.102-.059-.102-.059.102-.059-.102v.147c0,.065.053.118.118.118Z" fill="#fff" fill-rule="evenodd" />
          <path d="M9.163,5.997c.065,0,.118-.053.118-.118v-.147l-.059.102-.059-.102-.059.102-.059-.102v.147c0,.065.053.118.118.118Z" fill="#fff" fill-rule="evenodd" />
          <polygon points="8.442 5.532 8.517 5.607 8.517 5.796 8.449 5.728 8.449 5.634 8.354 5.729 8.551 5.926 8.748 5.729 8.653 5.634 8.653 5.728 8.585 5.796 8.585 5.607 8.66 5.532 8.551 5.423 8.442 5.532" fill="red" fill-rule="evenodd" />
          <polygon points="7.83 5.307 7.905 5.381 7.905 5.57 7.836 5.502 7.836 5.408 7.741 5.504 7.939 5.701 8.136 5.504 8.041 5.408 8.041 5.502 7.973 5.57 7.973 5.381 8.048 5.307 7.939 5.198 7.83 5.307" fill="#fff" fill-rule="evenodd" />
          <polygon points="6.912 5.186 7.027 5.3 7.027 5.516 6.916 5.405 6.916 5.295 6.804 5.406 6.992 5.595 6.843 5.744 7.42 5.744 7.27 5.595 7.458 5.406 7.347 5.295 7.347 5.405 7.236 5.516 7.236 5.3 7.35 5.186 7.131 4.967 6.912 5.186" fill="red" fill-rule="evenodd" />
          <rect x="7.056" y="5.111" width=".15" height=".15" transform="translate(-1.579 6.557) rotate(-44.973)" fill="#007c29" />
          <g>
            <polygon points="4.946 6.307 5.259 6.307 5.259 6.447 6.275 6.447 6.63 6.801 7.633 6.801 7.987 6.447 9.003 6.447 9.003 6.307 9.316 6.307 9.316 6.168 9.003 6.168 9.003 6.029 7.987 6.029 7.633 5.675 6.63 5.675 6.275 6.029 5.259 6.029 5.259 6.168 4.946 6.168 4.946 6.307" fill="red" fill-rule="evenodd" />
            <g>
              <g>
                <polygon points="7.34 6.731 6.599 5.99 6.661 5.928 6.785 6.052 6.847 5.99 6.661 5.804 6.475 5.99 7.216 6.731 7.34 6.731" fill="#ffda0c" fill-rule="evenodd" />
                <polygon points="7.34 5.744 6.599 6.486 6.661 6.548 6.785 6.424 6.847 6.486 6.661 6.672 6.475 6.486 7.216 5.744 7.34 5.744" fill="#ffda0c" fill-rule="evenodd" />
                <polygon points="6.922 5.744 7.663 6.486 7.601 6.548 7.477 6.424 7.415 6.486 7.601 6.672 7.787 6.486 7.046 5.744 6.922 5.744" fill="#ffda0c" fill-rule="evenodd" />
                <polygon points="6.922 6.731 7.663 5.99 7.601 5.928 7.477 6.052 7.415 5.99 7.601 5.804 7.787 5.99 7.046 6.731 6.922 6.731" fill="#ffda0c" fill-rule="evenodd" />
              </g>
              <g>
                <rect x="7.018" y="6.124" width=".227" height=".227" transform="translate(-2.322 6.87) rotate(-45.001)" fill="#007c29" />
                <rect x="6.369" y="6.168" width=".139" height=".139" transform="translate(-2.525 6.384) rotate(-45.027)" fill="#007c29" />
                <rect x="7.754" y="6.168" width=".139" height=".139" transform="translate(-2.12 7.354) rotate(-44.971)" fill="#007c29" />
              </g>
            </g>
          </g>
        </g>
        <g>
          <polygon points="4.38 1.644 4.888 1.35 4.888 1.047 5.41 .746 5.688 .746 6.368 .353 7.897 .353 8.577 .746 8.855 .746 9.377 1.047 9.377 1.35 9.885 1.644 9.885 2.465 9.377 2.759 9.377 3.062 8.855 3.363 8.577 3.363 7.897 3.756 6.368 3.756 5.688 3.363 5.41 3.363 4.888 3.062 4.888 2.759 4.38 2.465 4.38 1.644" fill="#007c29" fill-rule="evenodd" />
          <polygon points="6.405 .493 5.725 .885 5.447 .885 5.027 1.128 5.027 1.431 4.519 1.724 4.519 2.385 5.027 2.678 5.027 2.981 5.447 3.224 5.725 3.224 6.405 3.616 7.859 3.616 8.539 3.224 8.817 3.224 9.238 2.981 9.238 2.678 9.746 2.385 9.746 1.724 9.238 1.431 9.238 1.128 8.817 .885 8.539 .885 7.859 .493 6.405 .493" fill="#fff" fill-rule="evenodd" />
          <polygon points="7.132 3.616 7.859 3.616 8.539 3.224 8.817 3.224 9.238 2.981 9.238 2.678 9.746 2.385 9.746 2.055 7.132 2.055 7.132 3.616" fill="#ffda0c" fill-rule="evenodd" />
          <polygon points="6.405 .493 5.725 .885 5.447 .885 5.027 1.128 5.027 1.431 4.519 1.724 4.519 2.055 7.132 2.055 7.132 .493 6.405 .493" fill="#ffda0c" fill-rule="evenodd" />
          <polygon points="6.407 1.337 7.132 .918 7.858 1.337 8.421 1.337 8.421 1.78 8.695 2.055 8.421 2.329 8.421 2.772 7.858 2.772 7.132 3.191 6.407 2.772 5.844 2.772 5.844 2.329 5.569 2.055 5.844 1.78 5.844 1.337 6.407 1.337" fill="#fff" fill-rule="evenodd" />
          <polygon points="7.132 .918 7.858 1.337 8.421 1.337 8.421 1.78 8.695 2.055 7.132 2.055 7.132 .918" fill="#fff" fill-rule="evenodd" />
          <polygon points="5.844 1.78 5.71 1.548 5.791 1.245 5.599 1.356 5.537 1.249 5.484 1.28 5.431 1.311 5.492 1.418 5.3 1.528 5.603 1.61 5.754 1.87 5.844 1.78" fill="red" fill-rule="evenodd" />
          <polygon points="5.491 2.055 5.491 1.78 5.3 1.78 5.3 1.528 4.774 2.055 5.3 2.581 5.3 2.329 5.491 2.329 5.491 2.055" fill="red" fill-rule="evenodd" />
          <polygon points="5.986 1.337 5.897 1.184 5.979 .881 5.787 .992 5.725 .885 5.672 .916 5.619 .947 5.68 1.053 5.488 1.164 5.791 1.245 5.844 1.337 5.986 1.337" fill="red" fill-rule="evenodd" />
          <polygon points="6.513 1.275 6.431 1.132 6.512 .829 6.32 .94 6.258 .833 6.205 .864 6.152 .895 6.213 1.002 6.021 1.112 6.324 1.193 6.407 1.337 6.513 1.275" fill="red" fill-rule="evenodd" />
          <polygon points="6.795 1.113 6.422 .739 6.258 .833 6.197 .727 6.389 .616 6.71 .616 6.833 .493 7.132 .493 7.432 .493 7.555 .616 7.876 .616 8.068 .727 8.006 .833 7.843 .739 7.469 1.113 7.132 .918 6.795 1.113" fill="red" fill-rule="evenodd" />
          <polygon points="8.421 1.78 8.555 1.548 8.474 1.245 8.665 1.356 8.727 1.249 8.781 1.28 8.834 1.311 8.772 1.418 8.964 1.528 8.662 1.61 8.511 1.87 8.421 1.78" fill="red" fill-rule="evenodd" />
          <polygon points="8.773 2.055 8.773 1.78 8.964 1.78 8.964 1.528 9.49 2.055 8.964 2.581 8.964 2.329 8.773 2.329 8.773 2.055" fill="red" fill-rule="evenodd" />
          <polygon points="8.279 1.337 8.367 1.184 8.286 .881 8.478 .992 8.539 .885 8.593 .916 8.646 .947 8.584 1.053 8.776 1.164 8.474 1.245 8.421 1.337 8.279 1.337" fill="red" fill-rule="evenodd" />
          <polygon points="7.751 1.275 7.834 1.132 7.753 .829 7.945 .94 8.006 .833 8.06 .864 8.113 .895 8.052 1.002 8.243 1.112 7.941 1.193 7.858 1.337 7.751 1.275" fill="red" fill-rule="evenodd" />
          <polygon points="5.844 2.329 5.71 2.561 5.791 2.864 5.599 2.753 5.537 2.86 5.484 2.829 5.431 2.798 5.492 2.691 5.3 2.581 5.603 2.5 5.754 2.239 5.844 2.329" fill="red" fill-rule="evenodd" />
          <polygon points="5.986 2.772 5.897 2.925 5.979 3.228 5.787 3.117 5.725 3.224 5.672 3.193 5.619 3.162 5.68 3.056 5.488 2.945 5.791 2.864 5.844 2.772 5.986 2.772" fill="red" fill-rule="evenodd" />
          <polygon points="6.513 2.834 6.431 2.977 6.512 3.28 6.32 3.169 6.258 3.276 6.205 3.245 6.152 3.214 6.213 3.108 6.021 2.997 6.324 2.916 6.407 2.772 6.513 2.834" fill="red" fill-rule="evenodd" />
          <polygon points="6.795 2.996 6.422 3.37 6.258 3.276 6.197 3.383 6.389 3.493 6.71 3.493 6.833 3.616 7.132 3.616 7.432 3.616 7.555 3.493 7.876 3.493 8.068 3.383 8.006 3.276 7.843 3.37 7.469 2.996 7.132 3.191 6.795 2.996" fill="red" fill-rule="evenodd" />
          <polygon points="8.421 2.329 8.555 2.561 8.474 2.864 8.665 2.753 8.727 2.86 8.781 2.829 8.834 2.798 8.772 2.691 8.964 2.581 8.662 2.5 8.511 2.239 8.421 2.329" fill="red" fill-rule="evenodd" />
          <polygon points="8.279 2.772 8.367 2.925 8.286 3.228 8.478 3.117 8.539 3.224 8.593 3.193 8.646 3.162 8.584 3.056 8.776 2.945 8.474 2.864 8.421 2.772 8.279 2.772" fill="red" fill-rule="evenodd" />
          <polygon points="7.751 2.834 7.834 2.977 7.753 3.28 7.945 3.169 8.006 3.276 8.06 3.245 8.113 3.214 8.052 3.108 8.243 2.997 7.941 2.916 7.858 2.772 7.751 2.834" fill="red" fill-rule="evenodd" />
          <polygon points="7.064 3.286 7.064 3.122 7.132 3.122 7.2 3.122 7.2 3.286 7.273 3.359 7.39 3.242 7.449 3.3 7.132 3.616 6.816 3.3 6.874 3.242 6.991 3.359 7.064 3.286" fill="#fff" fill-rule="evenodd" />
          <polygon points="7.2 .824 7.2 .987 7.132 .987 7.064 .987 7.064 .824 6.991 .751 6.874 .867 6.816 .809 7.132 .493 7.449 .809 7.39 .867 7.273 .751 7.2 .824" fill="#fff" fill-rule="evenodd" />
          <g>
            <g>
              <polygon points="7.858 1.337 7.132 .918 6.407 1.337 5.844 1.337 5.844 1.78 5.569 2.055 5.844 2.329 5.844 2.772 6.407 2.772 7.132 3.191 7.858 2.772 8.421 2.772 8.421 2.329 8.695 2.055 8.421 1.78 8.421 1.337 7.858 1.337" fill="#fff" fill-rule="evenodd" />
              <polygon points="7.132 3.191 6.407 2.772 5.844 2.772 5.844 2.329 5.569 2.055 7.132 2.055 7.132 3.191" fill="#ffda0c" fill-rule="evenodd" />
              <polygon points="7.132 .918 7.858 1.337 8.421 1.337 8.421 1.78 8.695 2.055 7.132 2.055 7.132 .918" fill="#ffda0c" fill-rule="evenodd" />
            </g>
            <g>
              <polygon points="5.912 1.405 6.425 1.405 7.132 .997 7.839 1.405 8.353 1.405 8.353 1.808 8.599 2.055 8.353 2.301 8.353 2.704 7.839 2.704 7.132 3.112 6.425 2.704 5.912 2.704 5.912 2.301 5.666 2.055 5.912 1.808 5.912 1.405" fill="red" fill-rule="evenodd" />
              <polygon points="8.353 2.704 7.839 2.704 7.132 3.112 7.132 2.055 8.599 2.055 8.353 2.301 8.353 2.704" fill="#007c29" fill-rule="evenodd" />
              <polygon points="8.05 1.669 7.789 1.739 7.682 1.924 7.576 1.862 7.682 1.677 7.612 1.416 7.778 1.512 7.839 1.405 7.946 1.467 7.885 1.573 8.05 1.669" fill="#007c29" fill-rule="evenodd" />
              <polygon points="8.05 2.44 7.789 2.37 7.682 2.185 7.576 2.247 7.682 2.432 7.612 2.693 7.778 2.597 7.839 2.704 7.946 2.642 7.885 2.536 8.05 2.44" fill="red" fill-rule="evenodd" />
              <polygon points="5.912 1.405 6.425 1.405 7.132 .997 7.132 2.055 5.666 2.055 5.912 1.808 5.912 1.405" fill="#007c29" fill-rule="evenodd" />
              <polygon points="6.214 1.669 6.476 1.739 6.582 1.924 6.689 1.862 6.582 1.677 6.652 1.416 6.487 1.512 6.425 1.405 6.318 1.467 6.38 1.573 6.214 1.669" fill="red" fill-rule="evenodd" />
              <polygon points="7.132 2.503 6.356 2.055 7.132 1.606 7.909 2.055 7.132 2.503" fill="#fff" fill-rule="evenodd" />
              <polygon points="6.689 1.862 6.94 1.862 6.94 1.717 7.325 1.717 7.325 1.862 7.576 1.862 7.576 2.247 7.325 2.247 7.325 2.392 6.94 2.392 6.94 2.247 6.689 2.247 6.689 1.862" fill="red" fill-rule="evenodd" />
              <polygon points="6.214 2.44 6.476 2.37 6.582 2.185 6.689 2.247 6.582 2.432 6.652 2.693 6.487 2.597 6.425 2.704 6.318 2.642 6.38 2.536 6.214 2.44" fill="#007c29" fill-rule="evenodd" />
            </g>
          </g>
          <polygon points="7.132 3.616 7.132 3.122 7.064 3.122 7.064 3.286 6.991 3.359 6.874 3.242 6.816 3.3 7.132 3.616" fill="#ffda0c" fill-rule="evenodd" />
          <g>
            <polygon points="7.132 3.5 7.215 3.417 7.132 3.334 7.049 3.417 7.132 3.5" fill="#fff" fill-rule="evenodd" />
            <polygon points="7.132 3.5 7.215 3.417 7.132 3.334 7.132 3.5" fill="#ffda0c" fill-rule="evenodd" />
          </g>
          <polygon points="7.132 .493 7.132 .987 7.2 .987 7.2 .824 7.273 .751 7.39 .867 7.449 .809 7.132 .493" fill="#ffda0c" fill-rule="evenodd" />
          <g>
            <rect x="7.074" y=".634" width=".117" height=".117" transform="translate(1.6 5.246) rotate(-45)" fill="#fff" />
            <polygon points="7.132 .609 7.049 .692 7.132 .775 7.132 .609" fill="#ffda0c" fill-rule="evenodd" />
          </g>
          <g>
            <polygon points="9.037 1.986 8.599 1.986 8.599 2.055 8.599 2.123 9.037 2.123 9.11 2.196 9.11 2.312 9.368 2.055 9.11 1.797 9.11 1.913 9.037 1.986" fill="#fff" fill-rule="evenodd" />
            <polygon points="9.368 2.055 8.599 2.055 8.599 1.986 9.037 1.986 9.11 1.913 9.11 1.797 9.368 2.055" fill="#ffda0c" fill-rule="evenodd" />
            <rect x="9.11" y="1.996" width=".117" height=".117" transform="translate(1.233 7.085) rotate(-45)" fill="#fff" />
            <polygon points="9.251 2.055 9.168 2.137 9.086 2.055 9.251 2.055" fill="#ffda0c" fill-rule="evenodd" />
          </g>
          <g>
            <polygon points="5.228 2.123 5.666 2.123 5.666 2.055 5.666 1.986 5.228 1.986 5.155 1.913 5.155 1.797 4.897 2.055 5.155 2.312 5.155 2.196 5.228 2.123" fill="#fff" fill-rule="evenodd" />
            <polygon points="4.897 2.055 5.666 2.055 5.666 2.123 5.228 2.123 5.155 2.196 5.155 2.312 4.897 2.055" fill="#ffda0c" fill-rule="evenodd" />
            <rect x="5.038" y="1.996" width=".117" height=".117" transform="translate(.04 4.205) rotate(-45)" fill="#fff" />
            <polygon points="5.014 2.055 5.096 1.972 5.179 2.055 5.014 2.055" fill="#ffda0c" fill-rule="evenodd" />
          </g>
        </g>
      </g>
    </g>
  </g>
</g></svg>