<?xml version="1.0" encoding="UTF-8"?>
<svg id="Layer_2" data-name="Layer 2" xmlns="http://www.w3.org/2000/svg" xmlns:xlink="http://www.w3.org/1999/xlink" viewBox="0 0 79.17 79.17">
  <defs>
    <clipPath id="clippath">
      <path d="M0,39.584c0,21.862,17.723,39.586,39.585,39.586s39.585-17.724,39.585-39.586S61.447,0,39.585,0,0,17.723,0,39.584Z" fill="none"/>
    </clipPath>
  </defs>
  <g id="Layer_1-2" data-name="Layer 1">
    <g clip-path="url(#clippath)">
      <g>
        <rect x="-17.468" y=".002" width="118.972" height="79.168" fill="#e21f26"/>
        <path d="M29.493,55.451c-8.699,0-15.752-7.142-15.752-15.956s7.053-15.954,15.752-15.954c5.013,0,9.468,2.379,12.352,6.074-3.454-5.872-9.81-9.825-17.098-9.825-10.967,0-19.859,8.924-19.859,19.931s8.893,19.932,19.859,19.932c8.008,0,14.889-4.766,18.031-11.614-2.793,4.453-7.695,7.413-13.286,7.413Z" fill="#fff"/>
        <polygon points="57.84 45.01 51.844 43.376 47.381 48.127 47.299 42.025 41.043 39.578 47.221 37.348 47.381 31.043 51.732 35.993 57.84 34.298 54.186 39.585 57.84 45.01" fill="#fff"/>
      </g>
    </g>
  </g>
</svg>