<svg xmlns="http://www.w3.org/2000/svg" id="Layer_2" data-name="Layer 2" viewBox="0 0 33.945 22.631">
  <defs><clipPath id="circleClip"><circle cx="16.9725" cy="11.3155" r="11.3155" /></clipPath></defs><g clip-path="url(#circleClip)"><g id="_&#209;&#235;&#238;&#233;_1" data-name="&#209;&#235;&#238;&#233; 1">
    <g>
      <rect width="33.945" height="22.631" fill="#fff" />
      <polygon points="16.939 0 33.945 0 33.945 22.631 0 22.631 0 11.315 16.939 11.315 16.939 0" fill="#00adfe" fill-rule="evenodd" />
      <g>
        <polygon points="0 3.84 0 1.358 3.552 3.84 0 3.84" fill="#039" fill-rule="evenodd" />
        <polygon points="0 9.987 0 7.504 3.552 7.504 0 9.987" fill="#039" fill-rule="evenodd" />
        <polygon points="6.715 11.315 1.942 11.315 6.715 7.979 6.715 11.315" fill="#039" fill-rule="evenodd" />
        <polygon points="15.038 11.315 10.223 11.315 10.223 7.95 15.038 11.315" fill="#039" fill-rule="evenodd" />
        <polygon points="16.939 7.475 16.939 9.957 13.387 7.475 16.939 7.475" fill="#039" fill-rule="evenodd" />
        <polygon points="16.939 1.329 16.939 3.811 13.387 3.811 16.939 1.329" fill="#039" fill-rule="evenodd" />
        <polygon points="14.996 0 10.223 3.336 10.223 0 14.996 0" fill="#039" fill-rule="evenodd" />
        <polygon points="6.715 0 6.715 3.365 1.9 0 6.715 0" fill="#039" fill-rule="evenodd" />
        <rect y="4.561" width="16.939" height="2.223" fill="red" />
        <rect x="7.405" width="2.129" height="11.315" fill="red" />
        <polygon points="1.263 11.315 6.715 7.504 5.452 7.504 0 11.315 1.263 11.315" fill="red" fill-rule="evenodd" />
        <polygon points="4.231 3.84 0 .883 0 0 5.495 3.84 4.231 3.84" fill="red" fill-rule="evenodd" />
        <polygon points="15.676 0 10.223 3.811 11.486 3.811 16.939 0 15.676 0" fill="red" fill-rule="evenodd" />
        <polygon points="12.707 7.475 16.939 10.432 16.939 11.315 11.444 7.475 12.707 7.475" fill="red" fill-rule="evenodd" />
      </g>
      <g>
        <polygon points="18.362 19.119 18.679 20.101 19.712 20.099 18.876 20.704 19.196 21.686 18.362 21.077 17.528 21.686 17.849 20.704 17.013 20.099 18.045 20.101 18.362 19.119" fill="#fed700" fill-rule="evenodd" />
        <polygon points="27.786 13.056 28.103 14.039 29.136 14.036 28.299 14.642 28.62 15.623 27.786 15.015 26.952 15.623 27.273 14.642 26.436 14.036 27.468 14.039 27.786 13.056" fill="#fed700" fill-rule="evenodd" />
        <polygon points="31.593 9.948 31.91 10.93 32.943 10.928 32.107 11.533 32.428 12.515 31.593 11.906 30.76 12.515 31.08 11.533 30.244 10.928 31.276 10.93 31.593 9.948" fill="#fed700" fill-rule="evenodd" />
        <polygon points="30.715 .945 31.032 1.928 32.064 1.926 31.228 2.531 31.549 3.512 30.715 2.904 29.88 3.512 30.202 2.531 29.365 1.926 30.397 1.928 30.715 .945" fill="#fed700" fill-rule="evenodd" />
        <polygon points="24.655 16.401 25.485 17.016 26.323 16.412 25.995 17.391 26.828 18.002 25.796 17.994 25.472 18.974 25.161 17.989 24.129 17.985 24.969 17.385 24.655 16.401" fill="#fed700" fill-rule="evenodd" />
        <polygon points="21.698 17.934 22.528 18.549 23.366 17.945 23.039 18.924 23.871 19.535 22.839 19.526 22.516 20.507 22.205 19.522 21.172 19.518 22.013 18.918 21.698 17.934" fill="#fed700" fill-rule="evenodd" />
        <polygon points="21.698 13.409 22.528 14.023 23.366 13.42 23.039 14.399 23.871 15.01 22.839 15.001 22.516 15.982 22.205 14.997 21.172 14.993 22.013 14.393 21.698 13.409" fill="#fed700" fill-rule="evenodd" />
        <polygon points="27.297 5.595 28.127 6.209 28.965 5.606 28.638 6.585 29.47 7.195 28.438 7.187 28.114 8.167 27.804 7.182 26.771 7.178 27.611 6.578 27.297 5.595" fill="#fed700" fill-rule="evenodd" />
        <polygon points="23.822 7.077 24.652 7.691 25.49 7.088 25.163 8.067 25.996 8.677 24.963 8.669 24.64 9.649 24.329 8.664 23.296 8.66 24.137 8.06 23.822 7.077" fill="#fed700" fill-rule="evenodd" />
      </g>
    </g>
  </g>
</g></svg>