<?xml version="1.0" encoding="UTF-8"?>
<svg id="Layer_2" data-name="Layer 2" xmlns="http://www.w3.org/2000/svg" viewBox="0 0 33.946 22.63">
  <g id="_Ñëîé_1" data-name="Ñëîé 1">
    <g>
      <g>
        <rect width="33.946" height="22.63" fill="#fed700"/>
        <rect y="11.315" width="33.946" height="3.772"/>
        <rect y="18.859" width="33.946" height="3.771" fill="red"/>
        <rect y="7.544" width="33.946" height="3.772" fill="red"/>
        <rect width="33.946" height="3.772"/>
      </g>
      <g>
        <path d="M16.973,7.921c1.875,0,3.394,1.52,3.394,3.394s-1.52,3.395-3.394,3.395-3.394-1.52-3.394-3.395,1.52-3.394,3.394-3.394Z" fill="#fff" fill-rule="evenodd"/>
        <g>
          <path d="M17.184,12.989v.927h.182c.154,0,.298.067.399.183.008.01.001.026-.012.026h-.336c-.184,0-.358.042-.514.116-.162.077-.305.19-.418.328-.005.007-.015.008-.022.002-.004-.003-.006-.008-.006-.012v-.037c0-.153.066-.297.181-.397h-.442c-.009,0-.016-.007-.016-.016,0-.004.002-.008.005-.011.101-.115.245-.182.398-.182h.377v-.927h-.578c-.072,0-.137.03-.185.077-.047.047-.077.113-.077.185v.159c0,.012-.014.02-.024.013-.054-.036-.099-.085-.13-.142-.02-.038-.035-.08-.042-.124-.012.036-.018.074-.018.112v.194s-.001.007-.004.01c-.006.006-.015.007-.022.002-.06-.051-.105-.119-.126-.196-.044.059-.084.123-.117.19-.002.006-.008.01-.014.01-.008,0-.016-.007-.016-.016v-.304c0-.108.044-.206.115-.277s.169-.115.277-.115h.959v-.568c-.069-.039-.138-.074-.205-.102-.137-.059-.256-.129-.364-.213-.106-.082-.201-.179-.293-.291-.027.002-.054.004-.081.005-.004,0-.008,0-.01-.003-.192-.148-.304-.376-.304-.619.004-.297.087-.58.229-.822.102-.174.236-.329.392-.455-.023,0-.046-.007-.066-.019-.067-.039-.09-.124-.051-.191l.071-.123h-.477c-.012,0-.02-.014-.013-.024.026-.048.061-.091.104-.125.042-.033.09-.059.145-.073l.194-.052c.006-.121.056-.231.133-.314l-.301-.301c-.006-.006-.006-.016,0-.022.176-.176.413-.274.662-.274.214,0,.411.072.569.193.161.124.281.299.335.501.002.008-.003.017-.011.019l-.412.11c.023.098.016.203-.023.3-.024.06-.06.113-.104.159-.186.205-.288.468-.288.745,0,.116.018.232.054.342.018-.005.037-.008.057-.008.031,0,.062.007.09.021l1.597.762c.351.163.575.515.575.902,0,.249-.085.485-.226.685-.15.214-.364.389-.605.5-.006.003-.013.002-.018-.003-.006-.006-.006-.016,0-.022.033-.033.062-.071.085-.113.017-.03.031-.063.041-.097-.045.023-.093.037-.143.041-.004,0-.008,0-.012-.003-.006-.005-.008-.015-.002-.022.02-.024.036-.05.049-.078-.023.014-.048.025-.073.034-.061.021-.126.027-.189.017-.005,0-.01-.004-.012-.009-.004-.008,0-.017.008-.021.042-.02.08-.048.112-.082-.038-.004-.075-.014-.11-.028-.004-.001-.008-.005-.009-.009-.003-.008,0-.017.008-.02.109-.045.202-.122.267-.22.063-.094.1-.208.1-.33,0-.017,0-.034-.002-.05-.023.089-.073.17-.142.23-.009.008-.024.003-.026-.009-.011-.072-.029-.142-.054-.209-.021-.053-.056-.098-.102-.13-.048-.035-.107-.055-.171-.055h-.26c-.028,0-.053.011-.071.029-.031.031-.038.08-.018.119l.219.38c.034.063.023.141-.027.192-.029.029-.07.047-.114.047h-.481ZM17.184,12.345v.42h.224c.023,0,.045-.009.06-.025.025-.025.036-.074.014-.105-.078-.105-.183-.204-.298-.291Z" fill-rule="evenodd"/>
          <path d="M17.089,11.216l.132.063c.17.081.315.203.425.356h.171l-.209-.209s-.005-.01-.004-.015c.002-.009.011-.013.019-.011l.383.103-.181-.202s-.006-.01-.003-.016c.003-.008.012-.012.02-.009l.427.16-.137-.137-.881-.42c-.047-.022-.098-.024-.143-.007-.045.016-.084.049-.107.096-.022.047-.023.098-.008.143.016.045.049.084.096.106Z" fill="#fff" fill-rule="evenodd"/>
          <path d="M18.296,12.576c.073-.076.115-.176.118-.282,0-.008.008-.015.016-.015.007,0,.013.005.014.012.013.051.019.103.019.155,0,.128-.039.248-.105.347-.061.091-.146.166-.246.215.031.009.064.015.096.016.008,0,.015.007.015.016,0,.003-.001.007-.003.009-.027.035-.06.065-.097.088.043,0,.084-.006.124-.02.039-.014.075-.033.106-.058.007-.005.017-.004.022.003.003.004.004.01.003.014-.012.037-.028.072-.05.104.045-.009.088-.026.127-.051.007-.005.017-.002.021.005.002.004.003.008.002.012-.011.05-.029.097-.053.14-.012.021-.025.042-.04.061.208-.109.391-.267.524-.456.137-.196.22-.424.22-.667,0-.375-.217-.716-.557-.874-.147-.067-.296-.136-.446-.206h-.105l.319.319c.006.006.006.016,0,.022-.004.005-.012.006-.017.003l-.433-.163.174.195c.006.006.005.016-.001.022-.004.004-.01.005-.015.003l-.377-.101.195.194c.006.006.006.016,0,.022-.003.003-.008.005-.012.005h-.147l.059.028c.18.086.32.223.411.386.084.15.127.323.12.497Z" fill="red" fill-rule="evenodd"/>
          <path d="M16.288,9.283h-.225c-.046,0-.091.007-.133.02-.026.008-.051.018-.074.031h.433v-.051Z" fill="#fff" fill-rule="evenodd"/>
          <path d="M15.848,9.303c.023-.012.048-.022.073-.03.045-.014.093-.021.143-.021h.225v-.101c0-.011-.003-.022-.012-.029-.008-.007-.019-.007-.029-.005l-.205.055c-.05.014-.095.037-.133.067-.023.019-.044.04-.061.063Z" fill-rule="evenodd"/>
          <path d="M16.58,8.643l-.107-.397c-.141.04-.271.115-.379.219l.29.29c.057-.054.125-.091.196-.113Z" fill="red" fill-rule="evenodd"/>
          <path d="M17.061,8.755l.29-.29c-.025-.024-.051-.047-.079-.068-.152-.117-.343-.187-.55-.187-.075,0-.148.009-.219.027l.106.397c.157-.036.328.004.452.12Z" fill="#fed700" fill-rule="evenodd"/>
          <path d="M17.373,8.487l-.29.29c.053.057.091.124.113.196l.397-.106c-.041-.145-.118-.274-.219-.38Z" fill="red" fill-rule="evenodd"/>
          <path d="M16.272,9.651c.038.022.085.02.121-.007.038-.028.08-.055.121-.08-.042-.02-.082-.045-.116-.076-.036-.031-.068-.068-.093-.109l-.071.123c-.03.052-.012.118.039.148Z" fill="red" fill-rule="evenodd"/>
          <path d="M16.813,10.559c-.037-.114-.056-.233-.056-.353,0-.284.105-.556.296-.766.042-.042.075-.093.098-.15.07-.172.03-.371-.101-.503-.178-.178-.471-.18-.651-.004-.08.077-.132.184-.139.302.012,0,.025.004.035.013.016.013.024.033.024.053v.194c.026.046.059.086.098.12.04.035.086.063.136.083.012.005.013.021.002.028-.246.141-.453.346-.597.592-.14.238-.221.513-.225.805,0,.232.105.449.288.592.148-.005.289-.037.419-.089.133-.054.254-.129.359-.222-.068-.114-.107-.247-.107-.389v-.118c0-.057.023-.109.06-.146.017-.017.037-.031.059-.041Z" fill-rule="evenodd"/>
          <path d="M17.491,12.762c-.021.021-.051.035-.083.035h-1.406c-.099,0-.19.041-.255.106s-.106.156-.106.255v.242c.032-.058.069-.114.111-.166.005-.007.015-.008.021-.003.003.002.005.006.006.009.013.071.047.135.097.187v-.159c0-.064.016-.127.046-.184.004-.008.013-.01.021-.006.007.004.008.01.008.017,0,.062.016.12.043.171.024.044.056.083.095.114v-.128c0-.08.033-.153.086-.206s.126-.086.207-.086h1.283c.036,0,.069-.015.092-.038.041-.041.05-.104.022-.155-.067-.127-.15-.253-.219-.38-.027-.051-.018-.115.023-.155.024-.024.057-.038.093-.038h.26c.07,0,.135.022.189.061.007.005.014.011.02.016-.025-.047-.054-.093-.087-.136-.105-.14-.244-.254-.409-.33l-.514-.245c-.13-.06-.241-.157-.319-.277-.107.094-.23.17-.364.225-.1.04-.206.068-.317.082.087.104.176.193.275.27.105.082.222.151.357.209.139.059.29.145.426.247.122.092.233.196.316.307.03.04.016.108-.018.142Z" fill-rule="evenodd"/>
          <path d="M16.991,12.989v.942c0,.009-.007.016-.016.016h-.393c-.133,0-.258.053-.352.147h.451s.009.002.012.006c.005.007.004.017-.003.022-.126.093-.201.238-.203.395.111-.127.247-.231.401-.304.16-.076.339-.119.527-.119h.301c-.094-.094-.219-.147-.352-.147h-.197c-.009,0-.016-.007-.016-.016v-.942h-.162Z" fill-rule="evenodd"/>
          <path d="M17.153,12.765v-.443c-.052-.038-.107-.074-.162-.107v.55h.162Z" fill-rule="evenodd"/>
          <path d="M16.8,11.924c-.005-.032-.01-.065-.012-.098-.003-.033-.004-.066-.004-.099,0-.043.002-.087.007-.129.005-.043.012-.086.021-.127.002-.008.01-.014.019-.012.004.001.008.004.01.008.048.077.105.148.17.211.064.063.137.119.215.165.008.004.01.014.006.021-.003.005-.009.008-.014.008h-.019c-.065,0-.129.005-.191.016-.063.011-.126.027-.185.048-.008.003-.017-.001-.02-.009v-.002Z" fill-rule="evenodd"/>
          <path d="M16.132,11.231c-.04-.142-.059-.289-.059-.436,0-.255.059-.496.163-.71.109-.223.268-.417.461-.568.006-.005.016-.004.021.003.005.006.004.014,0,.019-.157.198-.242.441-.242.694,0,.174.04.344.118.499.004.008,0,.017-.007.021-.002.001-.005.002-.007.002h-.055l.045.077c.004.007.002.017-.006.021-.002.001-.005.002-.008.002h-.132s.045.078.045.078c.004.007.001.017-.006.021-.002.001-.005.002-.008.002h-.132l.044.077c.005.007.002.017-.005.021-.003.001-.006.002-.009.002h-.146l-.047.176c-.002.008-.011.013-.019.011-.006-.001-.01-.006-.011-.012Z" fill-rule="evenodd"/>
          <path d="M16.544,9.003c.051,0,.093.041.093.093s-.041.092-.093.092-.093-.041-.093-.092.042-.093.093-.093Z" fill-rule="evenodd"/>
          <path d="M16.888,8.811c.192.105.24.359.102.526-.06.073-.21.17-.301.098-.069-.055-.056-.162.024-.2.149-.071.216-.252.154-.405-.003-.008,0-.017.008-.02.004-.002.009-.001.013,0Z" fill-rule="evenodd"/>
          <path d="M16.544,9.034c.034,0,.062.028.062.062,0,.034-.028.062-.062.062s-.062-.028-.062-.062c0-.034.027-.062.062-.062Z" fill="#fff" fill-rule="evenodd"/>
          <path d="M16.909,8.861c.042.159-.035.331-.183.402-.058.028-.069.107-.018.148.075.059.211-.035.258-.093.114-.139.088-.349-.057-.456Z" fill="#999" fill-rule="evenodd"/>
          <path d="M17.148,11.529l.514.245c.169.078.313.196.421.339.081.107.142.229.18.36-.01-.133-.049-.263-.114-.379-.088-.157-.224-.29-.398-.373l-.121-.057s-.004-.003-.006-.005c-.106-.152-.25-.272-.417-.352l-.132-.063c-.055-.026-.093-.071-.112-.124-.019-.053-.017-.113.009-.167.026-.054.072-.093.124-.112.053-.019.112-.017.167.008l.802.383-.092-.092s-.005-.007-.005-.011c0-.008.007-.016.016-.016h.076c-.365-.171-.733-.35-1.084-.525-.024-.011-.05-.017-.077-.017-.048,0-.092.019-.124.051-.032.032-.051.075-.051.124v.118c0,.145.042.28.114.393.075.117.182.212.31.271Z" fill="#999" fill-rule="evenodd"/>
          <path d="M16.818,11.823c.002.026.005.052.009.077.056-.019.113-.033.173-.044.053-.009.108-.015.163-.016-.063-.041-.122-.089-.175-.141-.057-.056-.109-.118-.154-.186-.006.029-.01.058-.013.087-.005.041-.007.083-.007.126,0,.033.001.065.004.096Z" fill="#999" fill-rule="evenodd"/>
          <path d="M16.147,11.167l.035-.13c.002-.006.008-.011.015-.011h.132l-.044-.077s-.003-.005-.003-.008c0-.008.007-.016.016-.016h.132l-.044-.077s-.003-.005-.003-.009c0-.008.007-.016.015-.016h.132l-.044-.077s-.002-.005-.002-.008c0-.008.007-.015.016-.015h.057c-.073-.154-.11-.321-.11-.491,0-.218.061-.43.177-.613-.148.135-.271.297-.36.479-.103.21-.161.447-.161.697,0,.126.015.25.044.372Z" fill="#999" fill-rule="evenodd"/>
        </g>
      </g>
    </g>
  </g>
</svg>