<?xml version="1.0" encoding="UTF-8"?>
<svg id="Layer_2" data-name="Layer 2" xmlns="http://www.w3.org/2000/svg" xmlns:xlink="http://www.w3.org/1999/xlink" viewBox="0 0 119.166 79.564">
  <defs>
    <clipPath id="clippath">
      <path d="M0,39.978c0,21.862,17.723,39.586,39.585,39.586s39.585-17.724,39.585-39.586S61.447.394,39.585.394,0,18.117,0,39.978Z" fill="none"/>
    </clipPath>
  </defs>
  <g id="Layer_1-2" data-name="Layer 1">
    <g clip-path="url(#clippath)">
      <g>
        <rect x=".193" width="47.509" height="43.052" fill="#315aa9"/>
        <rect x="47.702" width="71.464" height="6.145" fill="#d14242"/>
        <rect x="47.702" y="6.145" width="71.464" height="6.159" fill="#fff"/>
        <rect x="47.702" y="12.305" width="71.464" height="6.15" fill="#d14242"/>
        <rect x="47.702" y="18.455" width="71.464" height="6.145" fill="#fff"/>
        <rect x="47.702" y="24.6" width="71.464" height="6.152" fill="#d14242"/>
        <rect x="47.702" y="30.752" width="71.464" height="6.155" fill="#fff"/>
        <rect x="47.702" y="36.907" width="71.464" height="6.145" fill="#d14242"/>
        <rect x=".193" y="43.052" width="118.973" height="6.013" fill="#fff"/>
        <rect x=".193" y="49.064" width="118.973" height="6.025" fill="#d14242"/>
        <rect x=".193" y="55.09" width="118.973" height="6.021" fill="#fff"/>
        <rect x=".193" y="61.111" width="118.973" height="6.014" fill="#d14242"/>
        <rect x=".193" y="73.145" width="118.973" height="6.023" fill="#d14242"/>
        <rect x=".193" y="67.125" width="118.973" height="6.02" fill="#fff"/>
        <polygon points="5.43 6.172 4.191 5.343 2.987 6.172 3.38 4.742 2.229 3.863 3.703 3.828 4.191 2.457 4.672 3.815 6.132 3.876 4.949 4.734 5.43 6.172" fill="#fff"/>
        <polygon points="13.513 6.172 12.274 5.343 11.07 6.172 11.463 4.742 10.312 3.863 11.786 3.828 12.274 2.457 12.755 3.815 14.215 3.876 13.032 4.734 13.513 6.172" fill="#fff"/>
        <polygon points="21.224 6.172 19.985 5.343 18.781 6.172 19.174 4.742 18.023 3.863 19.497 3.828 19.985 2.457 20.466 3.815 21.926 3.876 20.743 4.734 21.224 6.172" fill="#fff"/>
        <polygon points="29.224 6.172 27.985 5.343 26.781 6.172 27.174 4.742 26.023 3.863 27.497 3.828 27.985 2.457 28.466 3.815 29.926 3.876 28.743 4.734 29.224 6.172" fill="#fff"/>
        <polygon points="37.106 6.172 35.868 5.343 34.664 6.172 35.057 4.742 33.906 3.863 35.38 3.828 35.868 2.457 36.349 3.815 37.809 3.876 36.626 4.734 37.106 6.172" fill="#fff"/>
        <polygon points="44.966 6.172 43.728 5.343 42.523 6.172 42.916 4.742 41.766 3.863 43.239 3.828 43.728 2.457 44.208 3.815 45.668 3.876 44.485 4.734 44.966 6.172" fill="#fff"/>
        <polygon points="41.023 10.96 39.785 10.131 38.581 10.96 38.974 9.53 37.823 8.651 39.297 8.616 39.785 7.245 40.266 8.603 41.726 8.664 40.543 9.522 41.023 10.96" fill="#fff"/>
        <polygon points="33.11 10.96 31.872 10.131 30.668 10.96 31.061 9.53 29.91 8.651 31.384 8.616 31.872 7.245 32.353 8.603 33.812 8.664 32.63 9.522 33.11 10.96" fill="#fff"/>
        <polygon points="25.197 10.96 23.959 10.131 22.755 10.96 23.147 9.53 21.997 8.651 23.471 8.616 23.959 7.245 24.439 8.603 25.899 8.664 24.717 9.522 25.197 10.96" fill="#fff"/>
        <polygon points="17.353 10.96 16.115 10.131 14.911 10.96 15.304 9.53 14.153 8.651 15.627 8.616 16.115 7.245 16.596 8.603 18.056 8.664 16.873 9.522 17.353 10.96" fill="#fff"/>
        <polygon points="9.534 10.96 8.296 10.131 7.092 10.96 7.484 9.53 6.334 8.651 7.808 8.616 8.296 7.245 8.776 8.603 10.236 8.664 9.054 9.522 9.534 10.96" fill="#fff"/>
        <polygon points="5.43 14.854 4.191 14.025 2.987 14.854 3.38 13.425 2.229 12.546 3.703 12.511 4.191 11.14 4.672 12.498 6.132 12.559 4.949 13.417 5.43 14.854" fill="#fff"/>
        <polygon points="13.513 14.854 12.274 14.025 11.07 14.854 11.463 13.425 10.312 12.546 11.786 12.511 12.274 11.14 12.755 12.498 14.215 12.559 13.032 13.417 13.513 14.854" fill="#fff"/>
        <polygon points="21.224 14.854 19.985 14.025 18.781 14.854 19.174 13.425 18.023 12.546 19.497 12.511 19.985 11.14 20.466 12.498 21.926 12.559 20.743 13.417 21.224 14.854" fill="#fff"/>
        <polygon points="29.242 14.854 28.004 14.025 26.8 14.854 27.192 13.425 26.042 12.546 27.516 12.511 28.004 11.14 28.484 12.498 29.944 12.559 28.762 13.417 29.242 14.854" fill="#fff"/>
        <polygon points="37.106 14.854 35.868 14.025 34.664 14.854 35.057 13.425 33.906 12.546 35.38 12.511 35.868 11.14 36.349 12.498 37.809 12.559 36.626 13.417 37.106 14.854" fill="#fff"/>
        <polygon points="44.965 14.854 43.727 14.025 42.522 14.854 42.915 13.425 41.765 12.546 43.238 12.511 43.727 11.14 44.207 12.498 45.667 12.559 44.484 13.417 44.965 14.854" fill="#fff"/>
        <polygon points="41.022 19.102 39.784 18.273 38.58 19.102 38.973 17.673 37.822 16.794 39.296 16.759 39.784 15.388 40.265 16.746 41.725 16.807 40.542 17.665 41.022 19.102" fill="#fff"/>
        <polygon points="33.11 19.102 31.872 18.273 30.668 19.102 31.061 17.673 29.91 16.794 31.384 16.759 31.872 15.388 32.353 16.746 33.812 16.807 32.63 17.665 33.11 19.102" fill="#fff"/>
        <polygon points="25.196 19.102 23.958 18.273 22.754 19.102 23.146 17.673 21.996 16.794 23.47 16.759 23.958 15.388 24.438 16.746 25.898 16.807 24.716 17.665 25.196 19.102" fill="#fff"/>
        <polygon points="17.353 19.102 16.115 18.273 14.911 19.102 15.304 17.673 14.153 16.794 15.627 16.759 16.115 15.388 16.596 16.746 18.056 16.807 16.873 17.665 17.353 19.102" fill="#fff"/>
        <polygon points="9.534 19.102 8.296 18.273 7.092 19.102 7.484 17.673 6.334 16.794 7.808 16.759 8.296 15.388 8.776 16.746 10.236 16.807 9.054 17.665 9.534 19.102" fill="#fff"/>
        <polygon points="5.43 23.458 4.191 22.629 2.987 23.458 3.38 22.028 2.229 21.149 3.703 21.114 4.191 19.743 4.672 21.101 6.132 21.162 4.949 22.02 5.43 23.458" fill="#fff"/>
        <polygon points="13.513 23.458 12.274 22.629 11.07 23.458 11.463 22.028 10.312 21.149 11.786 21.114 12.274 19.743 12.755 21.101 14.215 21.162 13.032 22.02 13.513 23.458" fill="#fff"/>
        <polygon points="21.224 23.458 19.985 22.629 18.781 23.458 19.174 22.028 18.023 21.149 19.497 21.114 19.985 19.743 20.466 21.101 21.926 21.162 20.743 22.02 21.224 23.458" fill="#fff"/>
        <polygon points="29.243 23.458 28.005 22.629 26.801 23.458 27.193 22.028 26.043 21.149 27.517 21.114 28.005 19.743 28.485 21.101 29.945 21.162 28.763 22.02 29.243 23.458" fill="#fff"/>
        <polygon points="37.11 23.458 35.872 22.629 34.668 23.458 35.061 22.028 33.91 21.149 35.384 21.114 35.872 19.743 36.353 21.101 37.812 21.162 36.63 22.02 37.11 23.458" fill="#fff"/>
        <polygon points="44.965 23.458 43.727 22.629 42.522 23.458 42.915 22.028 41.765 21.149 43.238 21.114 43.727 19.743 44.207 21.101 45.667 21.162 44.484 22.02 44.965 23.458" fill="#fff"/>
        <polygon points="41.022 27.69 39.784 26.861 38.58 27.69 38.973 26.261 37.822 25.382 39.296 25.347 39.784 23.976 40.265 25.334 41.725 25.394 40.542 26.253 41.022 27.69" fill="#fff"/>
        <polygon points="33.11 28.1 31.872 27.27 30.668 28.1 31.061 26.67 29.91 25.791 31.384 25.756 31.872 24.385 32.353 25.743 33.812 25.804 32.63 26.662 33.11 28.1" fill="#fff"/>
        <polygon points="25.2 27.69 23.962 26.861 22.758 27.69 23.15 26.261 22 25.382 23.474 25.347 23.962 23.976 24.442 25.334 25.902 25.394 24.72 26.253 25.2 27.69" fill="#fff"/>
        <polygon points="17.354 27.69 16.116 26.861 14.912 27.69 15.305 26.261 14.154 25.382 15.628 25.347 16.116 23.976 16.597 25.334 18.057 25.394 16.874 26.253 17.354 27.69" fill="#fff"/>
        <polygon points="9.534 27.69 8.296 26.861 7.092 27.69 7.484 26.261 6.334 25.382 7.808 25.347 8.296 23.976 8.776 25.334 10.236 25.394 9.054 26.253 9.534 27.69" fill="#fff"/>
        <polygon points="5.43 32.131 4.191 31.302 2.987 32.131 3.38 30.701 2.229 29.822 3.703 29.787 4.191 28.416 4.672 29.774 6.132 29.835 4.949 30.693 5.43 32.131" fill="#fff"/>
        <polygon points="13.514 32.131 12.275 31.302 11.071 32.131 11.464 30.701 10.313 29.822 11.787 29.787 12.275 28.416 12.756 29.774 14.216 29.835 13.033 30.693 13.514 32.131" fill="#fff"/>
        <polygon points="21.224 32.131 19.985 31.302 18.781 32.131 19.174 30.701 18.023 29.822 19.497 29.787 19.985 28.416 20.466 29.774 21.926 29.835 20.743 30.693 21.224 32.131" fill="#fff"/>
        <polygon points="29.242 32.131 28.004 31.302 26.8 32.131 27.192 30.701 26.042 29.822 27.516 29.787 28.004 28.416 28.484 29.774 29.944 29.835 28.762 30.693 29.242 32.131" fill="#fff"/>
        <polygon points="37.106 32.131 35.868 31.302 34.664 32.131 35.057 30.701 33.906 29.822 35.38 29.787 35.868 28.416 36.349 29.774 37.809 29.835 36.626 30.693 37.106 32.131" fill="#fff"/>
        <polygon points="44.965 32.131 43.727 31.302 42.522 32.131 42.915 30.701 41.765 29.822 43.238 29.787 43.727 28.416 44.207 29.774 45.667 29.835 44.484 30.693 44.965 32.131" fill="#fff"/>
        <polygon points="41.023 36.581 39.785 35.752 38.581 36.581 38.974 35.151 37.823 34.272 39.297 34.237 39.785 32.866 40.266 34.225 41.726 34.285 40.543 35.144 41.023 36.581" fill="#fff"/>
        <polygon points="33.11 36.581 31.872 35.752 30.668 36.581 31.061 35.151 29.91 34.272 31.384 34.237 31.872 32.866 32.353 34.225 33.812 34.285 32.63 35.144 33.11 36.581" fill="#fff"/>
        <polygon points="25.196 36.581 23.958 35.752 22.754 36.581 23.146 35.151 21.996 34.272 23.47 34.237 23.958 32.866 24.438 34.225 25.898 34.285 24.716 35.144 25.196 36.581" fill="#fff"/>
        <polygon points="17.353 36.581 16.115 35.752 14.911 36.581 15.304 35.151 14.153 34.272 15.627 34.237 16.115 32.866 16.596 34.225 18.056 34.285 16.873 35.144 17.353 36.581" fill="#fff"/>
        <polygon points="9.534 36.581 8.296 35.752 7.092 36.581 7.484 35.151 6.334 34.272 7.808 34.237 8.296 32.866 8.776 34.225 10.236 34.285 9.054 35.144 9.534 36.581" fill="#fff"/>
        <polygon points="5.43 40.96 4.191 40.131 2.987 40.96 3.38 39.53 2.229 38.651 3.703 38.616 4.191 37.245 4.672 38.603 6.132 38.664 4.949 39.522 5.43 40.96" fill="#fff"/>
        <polygon points="13.513 40.96 12.274 40.131 11.07 40.96 11.463 39.53 10.312 38.651 11.786 38.616 12.274 37.245 12.755 38.603 14.215 38.664 13.032 39.522 13.513 40.96" fill="#fff"/>
        <polygon points="21.224 40.961 19.985 40.132 18.781 40.961 19.174 39.531 18.023 38.652 19.497 38.617 19.985 37.246 20.466 38.604 21.926 38.665 20.743 39.523 21.224 40.961" fill="#fff"/>
        <polygon points="29.242 40.961 28.004 40.132 26.8 40.961 27.192 39.531 26.042 38.652 27.516 38.617 28.004 37.246 28.484 38.604 29.944 38.665 28.762 39.523 29.242 40.961" fill="#fff"/>
        <polygon points="37.106 40.961 35.868 40.132 34.664 40.961 35.057 39.531 33.906 38.652 35.38 38.617 35.868 37.246 36.349 38.604 37.809 38.665 36.626 39.523 37.106 40.961" fill="#fff"/>
        <polygon points="44.966 40.961 43.728 40.132 42.523 40.961 42.916 39.531 41.766 38.652 43.239 38.617 43.728 37.246 44.208 38.604 45.668 38.665 44.485 39.523 44.966 40.961" fill="#fff"/>
      </g>
    </g>
  </g>
</svg>