<?xml version="1.0" encoding="UTF-8"?>
<svg id="Layer_2" data-name="Layer 2" xmlns="http://www.w3.org/2000/svg" viewBox="0 0 118.973 79.168">
  <g id="Layer_1-2" data-name="Layer 1">
    <g>
      <rect width="47.509" height="43.052" fill="#315aa9"/>
      <rect x="47.509" width="71.464" height="6.145" fill="#d14242"/>
      <rect x="47.509" y="6.145" width="71.464" height="6.159" fill="#fff"/>
      <rect x="47.509" y="12.305" width="71.464" height="6.15" fill="#d14242"/>
      <rect x="47.509" y="18.455" width="71.464" height="6.145" fill="#fff"/>
      <rect x="47.509" y="24.6" width="71.464" height="6.152" fill="#d14242"/>
      <rect x="47.509" y="30.752" width="71.464" height="6.155" fill="#fff"/>
      <rect x="47.509" y="36.907" width="71.464" height="6.145" fill="#d14242"/>
      <rect y="43.052" width="118.973" height="6.013" fill="#fff"/>
      <rect y="49.064" width="118.973" height="6.025" fill="#d14242"/>
      <rect y="55.09" width="118.973" height="6.022" fill="#fff"/>
      <rect y="61.111" width="118.973" height="6.014" fill="#d14242"/>
      <rect y="73.145" width="118.973" height="6.023" fill="#d14242"/>
      <rect y="67.125" width="118.973" height="6.02" fill="#fff"/>
      <polygon points="5.236 6.172 3.998 5.343 2.794 6.172 3.186 4.742 2.036 3.863 3.51 3.828 3.998 2.457 4.478 3.815 5.938 3.876 4.756 4.734 5.236 6.172" fill="#fff"/>
      <polygon points="13.319 6.172 12.081 5.343 10.877 6.172 11.269 4.742 10.119 3.863 11.593 3.828 12.081 2.457 12.561 3.815 14.021 3.876 12.839 4.734 13.319 6.172" fill="#fff"/>
      <polygon points="21.03 6.172 19.792 5.343 18.588 6.172 18.98 4.742 17.83 3.863 19.304 3.828 19.792 2.457 20.272 3.815 21.732 3.876 20.55 4.734 21.03 6.172" fill="#fff"/>
      <polygon points="29.03 6.172 27.792 5.343 26.588 6.172 26.98 4.742 25.83 3.863 27.304 3.828 27.792 2.457 28.272 3.815 29.732 3.876 28.55 4.734 29.03 6.172" fill="#fff"/>
      <polygon points="36.913 6.172 35.675 5.343 34.471 6.172 34.863 4.742 33.713 3.863 35.186 3.828 35.675 2.457 36.155 3.815 37.615 3.876 36.433 4.734 36.913 6.172" fill="#fff"/>
      <polygon points="44.772 6.172 43.534 5.343 42.33 6.172 42.723 4.742 41.572 3.863 43.046 3.828 43.534 2.457 44.015 3.815 45.475 3.876 44.292 4.734 44.772 6.172" fill="#fff"/>
      <polygon points="40.83 10.96 39.592 10.131 38.388 10.96 38.78 9.53 37.63 8.651 39.103 8.616 39.592 7.245 40.072 8.603 41.532 8.664 40.35 9.522 40.83 10.96" fill="#fff"/>
      <polygon points="32.917 10.96 31.679 10.131 30.475 10.96 30.867 9.53 29.717 8.651 31.19 8.616 31.679 7.245 32.159 8.603 33.619 8.664 32.436 9.522 32.917 10.96" fill="#fff"/>
      <polygon points="25.004 10.96 23.766 10.131 22.561 10.96 22.954 9.53 21.804 8.651 23.277 8.616 23.766 7.245 24.246 8.603 25.706 8.664 24.523 9.522 25.004 10.96" fill="#fff"/>
      <polygon points="17.16 10.96 15.922 10.131 14.718 10.96 15.11 9.53 13.96 8.651 15.434 8.616 15.922 7.245 16.402 8.603 17.862 8.664 16.68 9.522 17.16 10.96" fill="#fff"/>
      <polygon points="9.341 10.96 8.102 10.131 6.898 10.96 7.291 9.53 6.141 8.651 7.614 8.616 8.102 7.245 8.583 8.603 10.043 8.664 8.86 9.522 9.341 10.96" fill="#fff"/>
      <polygon points="5.236 14.854 3.998 14.025 2.794 14.854 3.186 13.425 2.036 12.546 3.51 12.511 3.998 11.14 4.478 12.498 5.938 12.559 4.756 13.417 5.236 14.854" fill="#fff"/>
      <polygon points="13.319 14.854 12.081 14.025 10.877 14.854 11.269 13.425 10.119 12.546 11.593 12.511 12.081 11.14 12.561 12.498 14.021 12.559 12.839 13.417 13.319 14.854" fill="#fff"/>
      <polygon points="21.03 14.854 19.792 14.025 18.588 14.854 18.98 13.425 17.83 12.546 19.304 12.511 19.792 11.14 20.272 12.498 21.732 12.559 20.55 13.417 21.03 14.854" fill="#fff"/>
      <polygon points="29.049 14.854 27.81 14.025 26.606 14.854 26.999 13.425 25.849 12.546 27.322 12.511 27.81 11.14 28.291 12.498 29.751 12.559 28.568 13.417 29.049 14.854" fill="#fff"/>
      <polygon points="36.913 14.854 35.675 14.025 34.471 14.854 34.863 13.425 33.713 12.546 35.186 12.511 35.675 11.14 36.155 12.498 37.615 12.559 36.433 13.417 36.913 14.854" fill="#fff"/>
      <polygon points="44.771 14.854 43.533 14.025 42.329 14.854 42.722 13.425 41.571 12.546 43.045 12.511 43.533 11.14 44.014 12.498 45.474 12.559 44.291 13.417 44.771 14.854" fill="#fff"/>
      <polygon points="40.829 19.102 39.591 18.273 38.387 19.102 38.779 17.673 37.629 16.794 39.102 16.759 39.591 15.388 40.071 16.746 41.531 16.807 40.349 17.665 40.829 19.102" fill="#fff"/>
      <polygon points="32.917 19.102 31.679 18.273 30.475 19.102 30.867 17.673 29.717 16.794 31.19 16.759 31.679 15.388 32.159 16.746 33.619 16.807 32.436 17.665 32.917 19.102" fill="#fff"/>
      <polygon points="25.003 19.102 23.765 18.273 22.56 19.102 22.953 17.673 21.803 16.794 23.276 16.759 23.765 15.388 24.245 16.746 25.705 16.807 24.522 17.665 25.003 19.102" fill="#fff"/>
      <polygon points="17.16 19.102 15.922 18.273 14.718 19.102 15.11 17.673 13.96 16.794 15.434 16.759 15.922 15.388 16.402 16.746 17.862 16.807 16.68 17.665 17.16 19.102" fill="#fff"/>
      <polygon points="9.341 19.102 8.102 18.273 6.898 19.102 7.291 17.673 6.141 16.794 7.614 16.759 8.102 15.388 8.583 16.746 10.043 16.807 8.86 17.665 9.341 19.102" fill="#fff"/>
      <polygon points="5.236 23.458 3.998 22.629 2.794 23.458 3.186 22.028 2.036 21.149 3.51 21.114 3.998 19.743 4.478 21.102 5.938 21.162 4.756 22.02 5.236 23.458" fill="#fff"/>
      <polygon points="13.319 23.458 12.081 22.629 10.877 23.458 11.269 22.028 10.119 21.149 11.593 21.114 12.081 19.743 12.561 21.102 14.021 21.162 12.839 22.02 13.319 23.458" fill="#fff"/>
      <polygon points="21.03 23.458 19.792 22.629 18.588 23.458 18.98 22.028 17.83 21.149 19.304 21.114 19.792 19.743 20.272 21.102 21.732 21.162 20.55 22.02 21.03 23.458" fill="#fff"/>
      <polygon points="29.05 23.458 27.811 22.629 26.607 23.458 27 22.028 25.85 21.149 27.323 21.114 27.811 19.743 28.292 21.102 29.752 21.162 28.569 22.02 29.05 23.458" fill="#fff"/>
      <polygon points="36.917 23.458 35.679 22.629 34.475 23.458 34.867 22.028 33.717 21.149 35.19 21.114 35.679 19.743 36.159 21.102 37.619 21.162 36.436 22.02 36.917 23.458" fill="#fff"/>
      <polygon points="44.771 23.458 43.533 22.629 42.329 23.458 42.722 22.028 41.571 21.149 43.045 21.114 43.533 19.743 44.014 21.102 45.474 21.162 44.291 22.02 44.771 23.458" fill="#fff"/>
      <polygon points="40.829 27.69 39.591 26.861 38.387 27.69 38.779 26.261 37.629 25.382 39.102 25.347 39.591 23.976 40.071 25.334 41.531 25.395 40.349 26.253 40.829 27.69" fill="#fff"/>
      <polygon points="32.917 28.1 31.679 27.27 30.475 28.1 30.867 26.67 29.717 25.791 31.19 25.756 31.679 24.385 32.159 25.743 33.619 25.804 32.436 26.662 32.917 28.1" fill="#fff"/>
      <polygon points="25.007 27.69 23.768 26.861 22.564 27.69 22.957 26.261 21.807 25.382 23.28 25.347 23.768 23.976 24.249 25.334 25.709 25.395 24.526 26.253 25.007 27.69" fill="#fff"/>
      <polygon points="17.161 27.69 15.923 26.861 14.719 27.69 15.111 26.261 13.961 25.382 15.435 25.347 15.923 23.976 16.403 25.334 17.863 25.395 16.681 26.253 17.161 27.69" fill="#fff"/>
      <polygon points="9.341 27.69 8.102 26.861 6.898 27.69 7.291 26.261 6.141 25.382 7.614 25.347 8.102 23.976 8.583 25.334 10.043 25.395 8.86 26.253 9.341 27.69" fill="#fff"/>
      <polygon points="5.236 32.131 3.998 31.302 2.794 32.131 3.186 30.701 2.036 29.822 3.51 29.787 3.998 28.416 4.478 29.774 5.938 29.835 4.756 30.693 5.236 32.131" fill="#fff"/>
      <polygon points="13.32 32.131 12.082 31.302 10.878 32.131 11.27 30.701 10.12 29.822 11.594 29.787 12.082 28.416 12.562 29.774 14.022 29.835 12.84 30.693 13.32 32.131" fill="#fff"/>
      <polygon points="21.03 32.131 19.792 31.302 18.588 32.131 18.98 30.701 17.83 29.822 19.304 29.787 19.792 28.416 20.272 29.774 21.732 29.835 20.55 30.693 21.03 32.131" fill="#fff"/>
      <polygon points="29.049 32.131 27.81 31.302 26.606 32.131 26.999 30.701 25.849 29.822 27.322 29.787 27.81 28.416 28.291 29.774 29.751 29.835 28.568 30.693 29.049 32.131" fill="#fff"/>
      <polygon points="36.913 32.131 35.675 31.302 34.471 32.131 34.863 30.701 33.713 29.822 35.186 29.787 35.675 28.416 36.155 29.774 37.615 29.835 36.433 30.693 36.913 32.131" fill="#fff"/>
      <polygon points="44.771 32.131 43.533 31.302 42.329 32.131 42.722 30.701 41.571 29.822 43.045 29.787 43.533 28.416 44.014 29.774 45.474 29.835 44.291 30.693 44.771 32.131" fill="#fff"/>
      <polygon points="40.83 36.581 39.592 35.752 38.388 36.581 38.78 35.151 37.63 34.272 39.103 34.237 39.592 32.866 40.072 34.225 41.532 34.285 40.35 35.144 40.83 36.581" fill="#fff"/>
      <polygon points="32.917 36.581 31.679 35.752 30.475 36.581 30.867 35.151 29.717 34.272 31.19 34.237 31.679 32.866 32.159 34.225 33.619 34.285 32.436 35.144 32.917 36.581" fill="#fff"/>
      <polygon points="25.003 36.581 23.765 35.752 22.56 36.581 22.953 35.151 21.803 34.272 23.276 34.237 23.765 32.866 24.245 34.225 25.705 34.285 24.522 35.144 25.003 36.581" fill="#fff"/>
      <polygon points="17.16 36.581 15.922 35.752 14.718 36.581 15.11 35.151 13.96 34.272 15.434 34.237 15.922 32.866 16.402 34.225 17.862 34.285 16.68 35.144 17.16 36.581" fill="#fff"/>
      <polygon points="9.341 36.581 8.102 35.752 6.898 36.581 7.291 35.151 6.141 34.272 7.614 34.237 8.102 32.866 8.583 34.225 10.043 34.285 8.86 35.144 9.341 36.581" fill="#fff"/>
      <polygon points="5.236 40.96 3.998 40.131 2.794 40.96 3.186 39.53 2.036 38.651 3.51 38.616 3.998 37.245 4.478 38.603 5.938 38.664 4.756 39.522 5.236 40.96" fill="#fff"/>
      <polygon points="13.319 40.96 12.081 40.131 10.877 40.96 11.269 39.53 10.119 38.651 11.593 38.616 12.081 37.245 12.561 38.603 14.021 38.664 12.839 39.522 13.319 40.96" fill="#fff"/>
      <polygon points="21.03 40.961 19.792 40.132 18.588 40.961 18.98 39.531 17.83 38.652 19.304 38.617 19.792 37.246 20.272 38.604 21.732 38.665 20.55 39.523 21.03 40.961" fill="#fff"/>
      <polygon points="29.049 40.961 27.81 40.132 26.606 40.961 26.999 39.531 25.849 38.652 27.322 38.617 27.81 37.246 28.291 38.604 29.751 38.665 28.568 39.523 29.049 40.961" fill="#fff"/>
      <polygon points="36.913 40.961 35.675 40.132 34.471 40.961 34.863 39.531 33.713 38.652 35.186 38.617 35.675 37.246 36.155 38.604 37.615 38.665 36.433 39.523 36.913 40.961" fill="#fff"/>
      <polygon points="44.772 40.961 43.534 40.132 42.33 40.961 42.723 39.531 41.572 38.652 43.046 38.617 43.534 37.246 44.015 38.604 45.475 38.665 44.292 39.523 44.772 40.961" fill="#fff"/>
    </g>
  </g>
</svg>