<?xml version="1.0" encoding="UTF-8"?>
<svg id="Layer_2" data-name="Layer 2" xmlns="http://www.w3.org/2000/svg" viewBox="0 0 33.946 22.63">
  <g id="_Ñëîé_1" data-name="Ñëîé 1">
    <g>
      <g>
        <rect width="33.946" height="22.63" fill="#fff"/>
        <path d="M0,17.602h33.946v2.515H0v-2.515h0ZM12.573,7.544h21.373v2.515H12.573v-2.515h0ZM12.573,2.515h21.373v2.514H12.573v-2.514h0ZM0,12.573h33.946v2.515H0v-2.515Z" fill="#039" fill-rule="evenodd"/>
      </g>
      <g>
        <path d="M8.301,4.874c.203.013.404-.009.595-.066.205-.061.399-.16.57-.296.158-.125.358-.193.559-.193.195,0,.385.063.542.179.014.011.017.031.006.046-.008.011-.02.015-.032.013-.174-.023-.352.009-.506.092-.12.064-.223.156-.3.268-.165.241-.316.418-.551.596-.179.136-.379.246-.594.325l2.212.416c.017.003.029.02.026.038-.002.014-.013.024-.026.026l-2.094.394c.134.153.292.279.467.374.188.102.395.168.613.194.2.023.389.117.531.259.138.138.228.316.256.51.003.018-.01.034-.028.037-.012.002-.025-.004-.031-.014-.107-.139-.255-.242-.423-.293-.13-.04-.268-.047-.401-.022-.287.053-.519.072-.811.032-.222-.031-.442-.094-.649-.19l1.27,1.858c.01.015.006.035-.008.045-.012.008-.026.007-.037,0l-1.759-1.202c-.013.202.01.404.066.595.06.205.16.399.296.57.125.157.192.358.192.559,0,.195-.062.385-.179.542-.011.015-.031.018-.046.007-.01-.008-.015-.02-.013-.032.023-.174-.009-.351-.092-.506-.064-.12-.156-.223-.268-.3-.241-.166-.418-.316-.596-.551-.136-.179-.246-.379-.325-.594l-.416,2.212c-.003.018-.02.029-.038.026-.014-.003-.024-.013-.026-.026l-.394-2.093c-.153.134-.279.292-.374.467-.102.188-.168.395-.194.613-.023.2-.117.389-.259.532-.138.138-.316.228-.51.256-.018.003-.035-.01-.037-.027-.002-.013.004-.025.014-.032.139-.106.242-.255.293-.423.04-.13.047-.268.022-.402-.053-.287-.072-.519-.032-.811.031-.223.094-.442.19-.649l-1.858,1.27c-.015.01-.035.006-.045-.008-.008-.012-.007-.026,0-.037l1.202-1.759c-.203-.013-.404.009-.595.066-.205.061-.398.16-.57.296-.158.125-.358.193-.559.193-.195,0-.385-.063-.542-.179-.014-.011-.017-.032-.007-.046.008-.01.02-.015.032-.012.173.022.351-.009.506-.092.12-.064.223-.156.3-.268.165-.241.316-.418.551-.596.179-.136.379-.246.594-.325l-2.212-.416c-.018-.003-.029-.021-.026-.038.003-.014.013-.024.026-.026l2.094-.394c-.134-.153-.292-.279-.467-.374-.188-.102-.395-.168-.613-.193-.199-.023-.389-.117-.531-.259-.138-.138-.228-.316-.256-.51-.003-.018.01-.034.027-.037.013-.002.025.004.032.014.107.139.255.242.423.293.13.04.268.047.401.022.287-.053.519-.072.811-.032.222.031.442.094.649.19l-1.27-1.858c-.011-.015-.007-.035.008-.045.011-.008.026-.007.037,0l1.759,1.202c.013-.203-.01-.404-.066-.595-.061-.205-.16-.399-.296-.57-.125-.158-.192-.358-.192-.559,0-.195.062-.385.179-.541.011-.014.031-.018.046-.007.01.008.015.02.013.032-.023.174.009.352.092.506.064.12.156.223.268.299.241.166.418.316.596.551.135.179.246.379.325.594l.416-2.212c.003-.018.02-.029.038-.026.014.003.024.013.026.026l.394,2.093c.153-.134.279-.292.374-.468.102-.188.168-.395.194-.613.023-.2.117-.389.259-.531.138-.138.316-.228.51-.256.018-.003.034.01.037.028.002.013-.004.025-.014.032-.139.107-.242.255-.293.423-.039.13-.047.268-.022.401.053.288.072.519.032.811-.031.223-.094.442-.19.649l1.859-1.27c.015-.01.035-.007.045.008.008.011.007.026,0,.037l-1.202,1.759Z" fill-rule="evenodd"/>
        <path d="M6.286,4.794c.824,0,1.492.668,1.492,1.492s-.668,1.492-1.492,1.492-1.492-.668-1.492-1.492.668-1.492,1.492-1.492h0ZM6.182,7.396c.017-.005.035-.008.052-.01.017-.002.034-.003.053-.003s.036.001.053.003c.017.002.034.006.052.01s.035-.006.04-.023c.005-.017-.006-.035-.023-.04-.019-.005-.039-.009-.06-.012-.021-.003-.041-.004-.061-.004s-.04.001-.061.004c-.021.003-.041.007-.06.012-.018.005-.028.023-.023.04.005.017.023.028.04.023h0ZM5.743,6.997c.044.023.088.048.131.076.101.067.256.1.412.1s.312-.033.412-.1c.043-.028.087-.053.131-.076-.077-.006-.158-.025-.226-.057-.047-.022-.101-.028-.152-.018-.061.012-.096.037-.165.037s-.104-.025-.165-.037c-.051-.01-.105-.004-.152.018-.068.033-.149.052-.227.058h0ZM5.975,7.062c.052-.002.104-.005.155-.006.048-.001.1-.002.156-.002s.108,0,.156.002c.051.001.103.003.155.006.018,0,.033-.013.034-.031,0-.018-.013-.033-.031-.034-.05-.003-.103-.005-.156-.006-.055-.001-.108-.002-.158-.002-.05,0-.103,0-.158.002-.054.001-.106.003-.156.006-.018.001-.032.016-.031.034.001.018.016.032.034.031h0ZM5.506,7.054c.006-.026.016-.052.029-.075.105.035.21.085.302.146.112.075.281.111.448.111s.336-.037.448-.111c.092-.061.198-.111.303-.147.013.023.023.048.029.075.004.018.021.029.039.025.018-.004.029-.021.025-.039-.009-.04-.025-.078-.047-.111-.022-.034-.05-.064-.083-.088-.015-.011-.035-.007-.046.007-.011.015-.008.035.007.046.011.008.022.017.031.027-.12.024-.248.01-.36-.041-.067-.028-.122-.038-.194-.024-.056.011-.091.036-.153.036s-.097-.025-.153-.036c-.071-.014-.127-.003-.194.024-.112.05-.239.065-.36.041.01-.01.02-.019.031-.027.014-.011.018-.031.007-.046-.01-.015-.031-.018-.046-.007-.033.024-.061.054-.083.088-.022.033-.038.071-.047.111-.004.017.007.035.025.039.018.004.035-.007.039-.025h0ZM6.274,6.703c.048,0,.093-.017.125-.044.014-.012.026-.025.035-.041.004.003.008.005.012.007.026.014.057.017.085.007.021-.005.042-.008.063-.008.036,0,.07.007.101.02.032.013.061.033.085.057.013.013.033.013.046,0,.012-.013.012-.033,0-.046-.03-.03-.067-.054-.107-.071-.036-.015-.075-.024-.116-.025.01-.025.012-.055.007-.085-.01-.051-.044-.1-.096-.114-.018-.005-.036.005-.04.023-.005.017.005.035.023.04.027.008.045.037.05.064.004.022,0,.043-.008.059-.007.014-.019.024-.033.026-.01.002-.02,0-.029-.005-.008-.004-.016-.011-.022-.019,0-.018-.003-.034-.009-.051-.006-.017-.025-.025-.042-.019-.017.007-.025.025-.019.042.003.01.005.016.005.026,0,.024-.012.046-.032.063-.021.018-.05.029-.083.029s-.062-.011-.083-.029c-.019-.016-.031-.038-.031-.063,0-.01.002-.017.005-.026.006-.017-.002-.036-.019-.042-.017-.006-.036.002-.042.019-.006.017-.009.034-.009.051-.006.008-.014.015-.022.019-.009.005-.02.007-.029.005-.014-.003-.026-.013-.033-.026-.009-.016-.012-.037-.008-.059.005-.026.022-.056.05-.064.018-.005.028-.023.023-.04-.005-.018-.023-.027-.04-.023-.052.015-.086.063-.096.114-.006.03-.003.06.007.085-.041.001-.08.01-.116.025-.04.016-.077.041-.107.071-.013.013-.013.033,0,.046.013.013.033.013.046,0,.024-.024.053-.044.085-.057.031-.013.065-.02.101-.02.021,0,.042.003.063.008.029.01.059.007.085-.007.004-.002.008-.005.012-.007.009.015.021.029.035.041.033.028.077.044.125.044h0ZM6.616,5.899c.033.04.073.073.119.097.013.007.027.013.041.018-.027-.03-.044-.07-.044-.114,0-.044.017-.085.045-.115-.014.005-.028.011-.041.018-.046.024-.086.057-.119.096h0ZM7.023,6.018c.019-.006.036-.014.053-.022.046-.024.086-.057.119-.097-.032-.04-.073-.073-.119-.096-.017-.009-.035-.017-.054-.023.03.031.049.073.049.12,0,.046-.018.088-.048.119h0ZM5.797,5.785c.028.03.045.071.045.115,0,.044-.017.084-.044.114.014-.005.028-.011.041-.018.046-.024.086-.057.119-.097-.033-.04-.073-.073-.119-.096-.013-.007-.027-.013-.042-.018h0ZM5.55,6.018c-.03-.031-.048-.073-.048-.119,0-.047.018-.089.049-.12-.019.006-.037.014-.054.023-.046.024-.087.057-.119.096.032.04.073.073.119.097.017.009.035.016.053.022h0ZM6.705,6.054c.06.031.129.048.201.048s.141-.018.201-.048c.063-.032.116-.079.157-.136.009-.012.008-.028,0-.038-.041-.056-.094-.103-.156-.135-.06-.031-.129-.049-.201-.049s-.141.018-.201.049c-.062.032-.116.079-.157.136-.008.012-.008.028,0,.039.041.056.094.103.156.135h0ZM6.025,5.919c.008-.011.009-.027,0-.039-.041-.057-.094-.104-.157-.136-.06-.031-.129-.049-.201-.049s-.141.018-.201.049c-.062.032-.116.079-.156.135-.008.011-.009.027,0,.038.04.057.094.104.157.136.06.031.128.048.201.048s.141-.018.201-.048c.062-.032.116-.078.156-.135h0ZM7.391,5.668c-.059-.065-.13-.117-.208-.153-.077-.035-.161-.054-.248-.054-.091,0-.179.021-.259.059-.08.038-.153.095-.213.166-.012.014-.01.035.004.046.014.012.035.01.046-.004.054-.064.119-.114.191-.149.071-.034.15-.053.231-.053.077,0,.152.017.221.048.07.032.133.078.186.137.012.013.033.014.046.002.013-.012.014-.033.002-.046h0ZM5.231,5.712c.053-.059.117-.105.186-.137.069-.031.144-.048.221-.048.081,0,.159.019.231.053.072.035.138.085.191.149.012.014.032.016.046.004.014-.012.016-.032.004-.046-.06-.071-.133-.128-.213-.166-.08-.038-.168-.059-.259-.059-.086,0-.171.019-.248.054-.078.035-.148.087-.208.153-.012.014-.011.034.002.046s.034.011.046-.002Z" fill="#fc0" fill-rule="evenodd"/>
        <path d="M5.162,7.365c-.119-.124-.218-.269-.291-.427l-1.548,2.266,1.839-1.839h0ZM4.871,5.635c.073-.158.172-.303.291-.427l-1.839-1.839,1.548,2.266h0ZM4.114,6.76l.585.11c-.306.064-.597.168-.868.308-.33.17-.628.391-.886.653-.172.174-.409.263-.654.245.099-.016.193-.049.278-.094.13-.069.241-.17.324-.291.162-.234.306-.405.535-.579.204-.154.435-.274.685-.352h0ZM4.807,6.915l-.492.72c-.223-.02-.445.003-.656.066-.213.063-.414.166-.592.307-.145.117-.334.179-.519.179-.099,0-.188-.016-.281-.048.27.025.534-.071.724-.263.253-.257.547-.474.87-.641.293-.151.611-.26.946-.32h0ZM4.729,6.254c.004-.178.037-.349.096-.508l-2.697.508h2.601ZM5.746,4.825c.159-.059.33-.092.508-.096v-2.601l-.508,2.697h0ZM5.208,5.162l-1.839-1.839,2.266,1.548c-.158.073-.302.172-.427.291h0ZM4.825,6.827c-.059-.159-.092-.329-.096-.508h-2.601l2.697.508h0ZM5.703,4.699c-.064-.306-.168-.597-.307-.868-.17-.329-.391-.628-.653-.886-.174-.172-.263-.41-.245-.654.016.099.049.193.094.278.069.13.169.242.29.324.234.162.405.306.579.535.154.204.275.435.352.685l-.11.585h0ZM8.459,5.813c.25-.077.482-.198.685-.352.229-.173.373-.345.535-.579.082-.121.194-.221.324-.291.086-.046.179-.078.278-.094-.244-.017-.482.072-.654.245-.258.262-.557.484-.886.653-.27.14-.562.244-.868.308l.585.11h0ZM7.766,5.657l.492-.72c.223.019.445-.003.656-.066.213-.063.414-.166.592-.307.145-.116.334-.179.519-.179.099,0,.188.016.281.048-.269-.025-.534.071-.724.263-.253.257-.546.474-.87.641-.293.151-.611.26-.946.32h0ZM8.157,7.488c.232.122.48.201.734.236.285.039.508.02.788-.031.144-.027.293-.019.435.024.093.028.182.072.264.13-.16-.185-.391-.29-.636-.289-.368.003-.736-.052-1.089-.165-.29-.093-.57-.225-.831-.396l.336.492h0ZM7.778,6.888l.857-.161c.144.171.317.312.51.417.195.106.41.175.635.201.185.02.362.109.493.241.07.069.122.144.165.233-.173-.208-.428-.327-.698-.326-.361.003-.722-.051-1.068-.162-.314-.101-.616-.248-.895-.443h0ZM6.76,8.459c.078.25.198.482.352.686.174.229.345.373.579.535.121.083.221.194.29.324.046.085.078.179.095.278.018-.244-.072-.482-.245-.654-.262-.258-.483-.557-.653-.886-.139-.27-.244-.561-.307-.868l-.11.585h0ZM6.915,7.766l.72.492c-.019.223.003.446.066.656.063.213.166.413.307.591.116.145.179.334.179.519,0,.099-.016.188-.048.282.025-.27-.071-.534-.263-.724-.257-.253-.475-.546-.641-.87-.151-.293-.26-.611-.32-.946h0ZM5.085,8.157l.492-.336c-.171.261-.303.541-.396.831-.113.353-.168.721-.165,1.088.001.245-.104.475-.289.636.059-.082.102-.171.13-.264.043-.141.051-.291.024-.435-.051-.28-.07-.503-.031-.788.035-.253.113-.502.236-.734h0ZM5.685,7.778l.161.857c-.171.144-.312.317-.417.51-.106.195-.175.41-.201.636-.02.185-.11.362-.241.493-.07.07-.145.122-.233.165.208-.173.327-.428.326-.698-.003-.361.051-.722.162-1.068.1-.314.248-.615.442-.895h0ZM6.319,4.729c.178.004.349.037.508.096l-.508-2.697v2.601h0ZM4.937,4.314c.019-.223-.004-.445-.066-.656-.063-.213-.166-.414-.307-.592-.116-.144-.179-.334-.179-.519,0-.098.016-.188.048-.282-.025.27.071.534.263.725.257.253.474.546.641.87.151.293.26.611.32.946l-.72-.492h0ZM4.795,5.685l-.857.162c-.144-.171-.317-.313-.51-.417-.195-.106-.41-.175-.635-.201-.185-.02-.362-.11-.493-.241-.07-.069-.122-.145-.165-.233.173.209.428.327.698.326.361-.003.722.051,1.068.162.314.101.616.248.895.442h0ZM6.727,3.938l.161.857c.195-.279.342-.581.442-.895.111-.346.165-.707.162-1.068-.001-.271.118-.525.326-.698-.088.043-.163.095-.233.165-.131.131-.22.309-.24.494-.026.225-.095.44-.201.635-.105.193-.245.366-.417.51h0ZM4.416,5.085l.336.492c-.262-.171-.542-.303-.831-.396-.353-.113-.721-.168-1.088-.165-.245.001-.476-.104-.636-.289.082.058.171.102.264.13.141.043.291.051.435.024.28-.051.503-.07.788-.031.253.035.502.113.734.236h0ZM6.997,4.751l.492-.336c.122-.232.201-.481.236-.734.039-.285.02-.507-.031-.788-.027-.144-.019-.293.024-.435.028-.093.072-.182.13-.264-.185.161-.29.391-.289.636.003.368-.052.736-.165,1.088-.093.29-.225.57-.396.831h0ZM6.938,4.87l2.266-1.548-1.839,1.839c-.124-.119-.268-.218-.427-.291h0ZM7.411,5.208l1.839-1.839-1.548,2.266c-.073-.158-.172-.303-.291-.427h0ZM7.748,5.746l2.697.508h-2.602c-.004-.178-.037-.349-.096-.508h0ZM7.844,6.319c-.004.178-.037.349-.096.508l2.697-.508h-2.602ZM7.702,6.938l1.549,2.266-1.839-1.84c.119-.124.218-.269.291-.427h0ZM7.365,7.411l1.839,1.839-2.266-1.548c.158-.073.302-.172.427-.291h0ZM6.827,7.748l-.508,2.697v-2.601c.178-.004.349-.037.508-.096h0ZM6.254,7.844c-.178-.004-.349-.037-.508-.096l.508,2.697v-2.601h0ZM5.635,7.702l-2.266,1.548,1.839-1.839c.124.119.268.218.427.291Z" fill="#fc0" fill-rule="evenodd"/>
      </g>
    </g>
  </g>
</svg>