<?xml version="1.0" encoding="UTF-8"?>
<svg id="Layer_2" data-name="Layer 2" xmlns="http://www.w3.org/2000/svg" viewBox="0 0 33.945 22.631">
  <g id="_Ñëîé_1" data-name="Ñëîé 1">
    <g>
      <g>
        <rect y="15.087" width="33.945" height="7.543" fill="#007c29"/>
        <rect y="7.543" width="33.945" height="7.544" fill="#fff"/>
        <rect width="33.945" height="7.543" fill="#00adfe"/>
        <rect y="7.334" width="33.945" height=".419" fill="red"/>
        <rect y="14.878" width="33.945" height=".419" fill="red"/>
      </g>
      <g>
        <g>
          <polygon points="16.187 1.275 16.577 1.275 16.697 .904 16.818 1.275 17.207 1.275 16.892 1.503 17.013 1.874 16.697 1.644 16.382 1.874 16.503 1.503 16.187 1.275" fill="#fff" fill-rule="evenodd"/>
          <polygon points="16.187 5.632 16.577 5.632 16.697 5.262 16.818 5.632 17.207 5.632 16.892 5.861 17.013 6.232 16.697 6.002 16.382 6.232 16.503 5.861 16.187 5.632" fill="#fff" fill-rule="evenodd"/>
          <polygon points="16.187 3.453 16.577 3.453 16.697 3.083 16.818 3.453 17.207 3.453 16.892 3.682 17.013 4.053 16.697 3.823 16.382 4.053 16.503 3.682 16.187 3.453" fill="#fff" fill-rule="evenodd"/>
          <polygon points="11.826 1.275 12.216 1.275 12.336 .904 12.457 1.275 12.846 1.275 12.531 1.503 12.652 1.874 12.336 1.644 12.021 1.874 12.142 1.503 11.826 1.275" fill="#fff" fill-rule="evenodd"/>
          <polygon points="11.826 5.632 12.216 5.632 12.336 5.262 12.457 5.632 12.846 5.632 12.531 5.861 12.652 6.232 12.336 6.002 12.021 6.232 12.142 5.861 11.826 5.632" fill="#fff" fill-rule="evenodd"/>
          <polygon points="11.826 3.453 12.216 3.453 12.336 3.083 12.457 3.453 12.846 3.453 12.531 3.682 12.652 4.053 12.336 3.823 12.021 4.053 12.142 3.682 11.826 3.453" fill="#fff" fill-rule="evenodd"/>
          <polygon points="14.007 1.275 14.397 1.275 14.517 .904 14.637 1.275 15.027 1.275 14.711 1.503 14.832 1.874 14.517 1.644 14.202 1.874 14.322 1.503 14.007 1.275" fill="#fff" fill-rule="evenodd"/>
          <polygon points="14.007 5.632 14.397 5.632 14.517 5.262 14.637 5.632 15.027 5.632 14.711 5.861 14.832 6.232 14.517 6.002 14.202 6.232 14.322 5.861 14.007 5.632" fill="#fff" fill-rule="evenodd"/>
          <polygon points="14.007 3.453 14.397 3.453 14.517 3.083 14.637 3.453 15.027 3.453 14.711 3.682 14.832 4.053 14.517 3.823 14.202 4.053 14.322 3.682 14.007 3.453" fill="#fff" fill-rule="evenodd"/>
          <polygon points="7.465 5.632 7.855 5.632 7.975 5.262 8.095 5.632 8.485 5.632 8.17 5.861 8.29 6.232 7.975 6.002 7.66 6.232 7.78 5.861 7.465 5.632" fill="#fff" fill-rule="evenodd"/>
          <polygon points="9.646 5.632 10.035 5.632 10.156 5.262 10.276 5.632 10.666 5.632 10.35 5.861 10.471 6.232 10.156 6.002 9.84 6.232 9.961 5.861 9.646 5.632" fill="#fff" fill-rule="evenodd"/>
          <polygon points="9.646 3.453 10.035 3.453 10.156 3.083 10.276 3.453 10.666 3.453 10.35 3.682 10.471 4.053 10.156 3.823 9.84 4.053 9.961 3.682 9.646 3.453" fill="#fff" fill-rule="evenodd"/>
        </g>
        <path d="M6.413.853c.163,0,.323.014.478.041-1.299.226-2.287,1.36-2.287,2.724s.988,2.498,2.287,2.724c-.155.027-.315.041-.478.041-1.527,0-2.765-1.238-2.765-2.765S4.886.853,6.413.853Z" fill="#fff" fill-rule="evenodd"/>
      </g>
    </g>
  </g>
</svg>