<svg xmlns="http://www.w3.org/2000/svg" id="Layer_2" data-name="Layer 2" viewBox="0 0 33.946 22.631">
  <defs><clipPath id="circleClip"><circle cx="16.973" cy="11.3155" r="11.3155" /></clipPath></defs><g clip-path="url(#circleClip)"><g id="_&#209;&#235;&#238;&#233;_1" data-name="&#209;&#235;&#238;&#233; 1">
    <g>
      <g>
        <rect width="33.946" height="22.631" fill="#fed700" />
        <polygon points="0 19.601 0 3.03 16.043 11.315 0 19.601" fill-rule="evenodd" />
        <polygon points="33.946 13.334 18 13.334 0 22.631 0 21.116 17.673 11.988 33.946 11.988 33.946 13.334" fill-rule="evenodd" />
        <polygon points="33.946 22.631 0 22.631 18 13.334 33.946 13.334 33.946 22.631" fill="#007c29" fill-rule="evenodd" />
        <polygon points="0 0 33.946 0 33.946 9.296 18 9.296 0 0" fill="red" fill-rule="evenodd" />
        <polygon points="33.946 9.297 18 9.297 0 0 0 1.515 17.673 10.642 33.946 10.642 33.946 9.297" fill-rule="evenodd" />
      </g>
      <g>
        <path d="M4.598,13.476v1.288c1.875,0,3.395-1.565,3.395-3.495,0-1.736-1.312-3.402-3.127-3.402-1.596,0-2.886,1.289-2.897,2.883,0,1.307,1.06,2.367,2.367,2.367,1.062,0,2.039-.699,2.039-1.837,0-.094-.007-.185-.021-.275-.132.873-.867,1.541-1.755,1.541-.981,0-1.776-.816-1.776-1.823s.795-1.823,1.776-1.823c1.2,0,2.172,1.025,2.172,2.288s-.973,2.289-2.172,2.289Z" fill="#fed700" fill-rule="evenodd" />
        <g>
          <path d="M3.479,11.825c-.012-.013-.029-.034-.02-.052.036-.061.073-.122.111-.182-.02-.049-.032-.139-.032-.242,0-.155.03-.281.067-.281s.067.126.067.281c0,.033-.001.065-.004.094.019-.028.038-.055.057-.083-.012-.05-.019-.125-.019-.209,0-.151.024-.274.053-.274.029,0,.053.123.053.274,0,.033,0,.064-.003.093l.053-.07c-.009-.048-.015-.113-.015-.186,0-.147.024-.266.053-.266s.053.119.053.266c0,.025,0,.05-.002.073.021-.025.042-.051.063-.076-.006-.047-.007-.112-.002-.183.01-.141.042-.254.07-.252.028.002.043.118.032.26-.002.023-.004.045-.007.066.026-.03.053-.059.08-.088-.005-.043-.006-.103-.001-.17.01-.13.038-.234.064-.232.026.002.039.109.03.239-.002.025-.004.05-.008.073.038-.039.076-.078.114-.116-.006-.039-.007-.092-.004-.152.007-.116.031-.208.055-.207.023.001.036.096.029.212-.002.027-.004.053-.008.077.029-.028.058-.055.088-.082.003-.039.012-.092.027-.148.031-.115.075-.204.099-.198.023.006.016.105-.015.221l-.01.035.072-.061c-.002-.04.008-.108.028-.183.031-.116.075-.204.098-.198.023.006.017.105-.015.221-.009.033-.019.065-.029.092l.072-.057c.005-.041.024-.102.051-.167.046-.11.102-.193.124-.183.022.009.003.106-.044.217-.007.018-.015.035-.023.051l.064-.047c.007-.039.035-.104.076-.174.06-.103.126-.177.147-.166.02.012-.012.106-.072.209-.009.015-.018.029-.026.043l.045-.031c.013-.037.046-.092.091-.15.07-.092.141-.155.16-.141.018.014-.023.098-.092.189l.04-.025c.018-.023.04-.048.065-.073.081-.082.159-.136.176-.12.016.016-.035.096-.116.178l-.026.026c.113-.016.207-.008.21.018.004.026-.087.062-.203.079-.084.013-.158.012-.194,0-.031.021-.061.042-.091.063l.035-.006c.116-.017.213-.009.217.017.004.027-.087.062-.203.079-.074.011-.141.012-.18.004l-.058.044.039-.006c.116-.017.213-.009.217.017.004.026-.087.062-.203.079-.07.01-.133.012-.173.005-.028.023-.056.046-.084.069.014-.004.029-.008.044-.012.117-.028.218-.03.224-.003.007.027-.083.072-.2.1-.078.019-.149.026-.189.021-.027.024-.054.048-.08.073l.017-.005c.117-.028.217-.03.224-.003.006.027-.083.072-.2.1-.063.015-.12.023-.161.022-.045.044-.089.089-.132.134l.018-.008c.113-.049.214-.067.226-.041.011.026-.072.086-.185.135-.075.032-.145.051-.187.052-.026.03-.053.059-.078.09l.033-.015c.123-.053.233-.073.245-.044.012.028-.078.094-.201.147-.078.033-.15.054-.196.057-.02.026-.041.052-.061.078l.006-.003c.123-.053.233-.073.245-.044.012.028-.078.094-.201.147-.061.026-.119.044-.163.052l-.046.064c.021-.011.044-.022.068-.032.123-.053.233-.073.245-.044.012.028-.078.094-.201.147-.079.034-.152.054-.198.057-.018.028-.037.056-.055.084.031-.019.07-.039.112-.057.123-.053.233-.073.245-.044.012.028-.078.094-.201.147-.093.04-.178.061-.219.057-.035.058-.069.116-.102.175-.015.025-.042.005-.057-.011Z" fill="#fed700" fill-rule="evenodd" />
          <path d="M5.716,11.825c.012-.013.029-.034.02-.052-.036-.061-.073-.122-.111-.182.02-.049.033-.139.033-.242,0-.155-.03-.281-.067-.281-.036,0-.067.126-.067.281,0,.033.001.065.004.094-.019-.028-.038-.055-.058-.083.012-.05.019-.125.019-.209,0-.151-.024-.274-.053-.274s-.053.123-.053.274c0,.033.001.064.003.093l-.053-.07c.009-.048.015-.113.015-.186,0-.147-.024-.266-.053-.266-.029,0-.053.119-.053.266,0,.025,0,.05.002.073-.021-.025-.042-.051-.063-.076.006-.047.007-.112.002-.183-.01-.141-.042-.254-.07-.252-.028.002-.043.118-.032.26.002.023.004.045.006.066-.026-.03-.053-.059-.08-.088.006-.043.007-.103.002-.17-.01-.13-.039-.234-.065-.232-.026.002-.039.109-.029.239.002.025.004.05.008.073-.038-.039-.076-.078-.114-.116.006-.039.007-.092.004-.152-.007-.116-.032-.208-.055-.207-.023.001-.036.096-.029.212.002.027.004.053.008.077-.029-.028-.058-.055-.088-.082-.003-.039-.012-.092-.027-.148-.031-.115-.075-.204-.098-.198-.023.006-.017.105.015.221l.01.035-.072-.061c.002-.04-.008-.108-.028-.183-.031-.116-.075-.204-.099-.198-.023.006-.016.105.015.221.009.033.019.065.029.092l-.072-.057c-.005-.041-.024-.102-.051-.167-.046-.11-.102-.193-.124-.183-.022.009-.002.106.044.217.008.018.015.035.023.051l-.064-.047c-.007-.039-.035-.104-.076-.174-.06-.103-.126-.177-.147-.166-.021.012.011.106.072.209.009.015.018.029.026.043l-.045-.031c-.014-.037-.046-.092-.091-.15-.069-.092-.141-.155-.159-.141-.018.014.023.098.091.189l-.04-.025c-.018-.023-.04-.048-.065-.073-.08-.082-.159-.136-.175-.12-.017.016.035.096.116.178l.026.026c-.113-.016-.207-.008-.21.018-.004.026.087.062.203.079.084.013.158.012.194,0,.031.021.061.042.091.063l-.035-.006c-.116-.017-.213-.009-.217.017-.004.027.087.062.203.079.074.011.141.012.18.004l.058.044-.039-.006c-.116-.017-.213-.009-.217.017-.004.026.087.062.203.079.07.01.133.012.173.005.028.023.056.046.084.069-.014-.004-.029-.008-.044-.012-.117-.028-.217-.03-.224-.003-.007.027.083.072.2.1.078.019.149.026.19.021.027.024.054.048.08.073l-.017-.005c-.117-.028-.218-.03-.224-.003-.006.027.083.072.2.1.063.015.12.023.162.022.045.044.089.089.132.134l-.018-.008c-.113-.049-.214-.067-.226-.041-.011.026.072.086.185.135.075.032.145.051.186.052.027.03.052.059.078.09l-.033-.015c-.123-.053-.233-.073-.245-.044-.012.028.078.094.201.147.078.033.15.054.196.057.021.026.041.052.061.078l-.006-.003c-.123-.053-.233-.073-.245-.044-.012.028.078.094.201.147.061.026.119.044.163.052l.046.064c-.021-.011-.044-.022-.068-.032-.123-.053-.233-.073-.245-.044-.012.028.078.094.201.147.079.034.152.054.198.057.019.028.037.056.055.084-.032-.019-.07-.039-.112-.057-.123-.053-.233-.073-.245-.044-.012.028.078.094.201.147.093.04.178.061.219.057.035.058.069.116.102.175.015.025.042.005.057-.011Z" fill="#fed700" fill-rule="evenodd" />
        </g>
      </g>
    </g>
  </g>
</g></svg>