<?xml version="1.0" encoding="UTF-8"?>
<svg id="Layer_2" data-name="Layer 2" xmlns="http://www.w3.org/2000/svg" viewBox="0 0 118.972 79.983">
  <g id="Layer_1-2" data-name="Layer 1">
    <g>
      <rect width="118.972" height="79.983" fill="#d92631"/>
      <rect width="118.972" height="26.62" fill="#fcd210"/>
      <rect y="26.62" width="118.972" height="26.574" fill="#1b4499"/>
      <polygon points="39.219 50.325 37.333 49.06 35.441 50.325 36.017 48.149 34.196 46.698 36.591 46.66 37.372 44.403 38.079 46.655 40.59 46.662 38.648 48.149 39.219 50.325" fill="#fff"/>
      <polygon points="44.875 40.587 42.71 41.269 42.516 43.535 41.178 41.727 38.906 42.243 40.372 40.349 39.098 38.329 41.298 39.184 42.872 37.227 42.821 39.673 44.875 40.587" fill="#fff"/>
      <polygon points="50.34 37.038 48.078 36.827 47.021 38.842 46.489 36.657 44.194 36.251 46.28 35.073 45.888 32.718 47.585 34.358 49.794 33.165 48.8 35.4 50.34 37.038" fill="#fff"/>
      <polygon points="57.765 34.827 55.681 33.925 54.052 35.513 54.224 33.27 52.168 32.174 54.516 31.7 54.872 29.339 55.978 31.425 58.448 30.976 56.81 32.792 57.765 34.827" fill="#fff"/>
      <polygon points="64.591 35.506 62.966 33.919 60.877 34.819 61.838 32.786 60.311 31.027 62.673 31.423 63.851 29.347 64.137 31.69 66.605 32.153 64.426 33.264 64.591 35.506" fill="#fff"/>
      <polygon points="71.501 37.819 70.483 35.789 68.214 35.961 69.785 34.352 68.914 32.191 71.017 33.334 72.809 31.754 72.315 34.064 74.498 35.306 72.075 35.645 71.501 37.819" fill="#fff"/>
      <polygon points="77.477 43.425 77.183 41.173 74.983 40.589 76.995 39.586 76.883 37.259 78.494 39.029 80.705 38.126 79.48 40.145 81.134 42.035 78.734 41.561 77.477 43.425" fill="#fff"/>
      <polygon points="83.216 50.325 81.331 49.06 79.44 50.325 80.017 48.149 78.195 46.698 80.59 46.66 81.37 44.403 82.078 46.655 84.589 46.662 82.647 48.149 83.216 50.325" fill="#fff"/>
    </g>
  </g>
</svg>