<?xml version="1.0" encoding="UTF-8"?>
<svg id="Layer_2" data-name="Layer 2" xmlns="http://www.w3.org/2000/svg" viewBox="0 0 33.946 22.631">
  <g id="_Ñëîé_1" data-name="Ñëîé 1">
    <g>
      <g>
        <rect width="33.946" height="22.631" fill="#fff"/>
        <path d="M14.996,0l-4.773,3.336V0h4.773ZM6.715,0v3.365L1.9,0h4.815ZM16.939,0v1.329l-3.552,2.483h3.552v3.664h-3.552l3.552,2.482v1.358h-1.9l-4.815-3.365v3.365h-3.508v-3.336l-4.773,3.336H0v11.315h33.946V0h-17.007ZM0,9.987v-2.483h3.552l-3.552,2.483h0ZM0,3.841h3.552L0,1.358v2.483Z" fill="#039" fill-rule="evenodd"/>
        <g>
          <rect y="4.561" width="16.939" height="2.223" fill="red"/>
          <rect x="7.405" y="0" width="2.129" height="11.315" fill="red"/>
          <polygon points="1.263 11.315 6.715 7.504 5.452 7.504 0 11.315 1.263 11.315" fill="red" fill-rule="evenodd"/>
          <polygon points="4.232 3.841 0 .883 0 0 5.495 3.841 4.232 3.841" fill="red" fill-rule="evenodd"/>
          <polygon points="15.676 0 10.223 3.811 11.486 3.811 16.939 0 15.676 0" fill="red" fill-rule="evenodd"/>
          <polygon points="12.707 7.475 16.939 10.433 16.939 11.315 11.444 7.475 12.707 7.475" fill="red" fill-rule="evenodd"/>
        </g>
      </g>
      <g>
        <path d="M29.464,13.495c.01,0,.019,0,.029,0,.214,0,.359.081.506.228l.798.798c.256.249.27.665.031.933l-.241.269c-.225.264-.647.258-.889.016l-.052-.052c-.456.399-.968.733-1.518.989-.843.391-1.757.591-2.685.591s-1.843-.199-2.686-.591c-.55-.255-1.062-.589-1.518-.989l-.052.052c-.242.242-.664.249-.888-.016l-.241-.269c-.24-.268-.226-.684.03-.933l.798-.798c.147-.147.292-.228.506-.228.01,0,.019,0,.029,0-.158-.288-.245-.617-.245-.958v-6.833c0-.186.151-.338.338-.338h7.857c.187,0,.338.151.338.338v6.833c0,.341-.087.67-.245.958Z" fill="#fff" fill-rule="evenodd"/>
        <g>
          <path d="M21.502,12.537v-6.833c0-.006.005-.012.011-.012h7.857c.006,0,.011.005.011.012v6.833c0,.604-.326,1.159-.854,1.454l-3.043,1.757c.731-.006,1.423-.174,2.044-.469.657-.312,1.233-.768,1.688-1.326.067-.084.168-.132.275-.132.125,0,.192.048.275.132l.8.8c.133.129.139.344.016.483l-.243.272c-.101.12-.303.109-.412,0l-.273-.274c-.484.469-1.046.858-1.665,1.145-.774.36-1.638.56-2.548.56s-1.773-.201-2.548-.56c-.619-.287-1.181-.676-1.665-1.145l-.273.274c-.109.11-.31.12-.412,0l-.243-.272c-.122-.138-.116-.354.016-.483l.8-.8c.084-.084.15-.132.275-.132.107,0,.208.049.275.132.455.558,1.031,1.014,1.688,1.326.62.295,1.313.463,2.044.469l-3.043-1.757c-.527-.295-.853-.85-.853-1.454Z" fill-rule="evenodd"/>
          <path d="M21.525,12.537c0,.596.321,1.143.842,1.434l3.076,1.776,3.075-1.776c.52-.291.842-.838.842-1.434v-6.821h-7.834v6.821Z" fill="#007c29" fill-rule="evenodd"/>
          <g>
            <path d="M27.56,7.101c-.071-.014-.134-.049-.183-.098-.013-.013-.025-.028-.036-.043-.067-.001-.13-.021-.183-.055-.057-.036-.103-.088-.131-.149-.004-.008.002-.016.01-.016h.033c.056-.077.056-.183.001-.261-.055-.078-.043-.186.031-.248.057-.051.084-.126.072-.202-.001-.01.008-.016.017-.012.101.046.144.166.096.264-.01.025-.005.053.014.072.066.062.067.166,0,.228-.042.041-.059.102-.045.158h.083l.438-.622c-.004-.011-.007-.023-.007-.036,0-.055.044-.1.099-.1.055,0,.099.044.099.1,0,.012-.002.025-.006.036l.431.613c.077-.106.199-.169.33-.17.075,0,.136.056.137.132,0,.059-.036.111-.093.13-.089.035-.162.103-.205.189-.022.043-.079.053-.114.018-.036-.036-.023-.098.025-.117.026-.008.051-.03.069-.05.052-.06.117-.106.191-.135.012-.004.021-.014.021-.028,0-.016-.014-.029-.029-.029-.122,0-.241.08-.28.197-.024.069-.07.128-.128.171-.041.03-.089.051-.14.062.014.007.027.017.039.028.027.028.044.066.044.107,0,.007-.005.012-.011.012h-.761c-.006,0-.012-.005-.012-.012,0-.041.017-.079.045-.107.011-.011.024-.021.039-.028h0ZM27.459,6.74h.22c.028-.04.065-.088.102-.123.015-.014.03-.026.045-.035-.034-.016-.057-.05-.057-.09,0-.055.044-.099.099-.099.055,0,.099.044.099.099,0,.04-.023.074-.058.09.015.008.03.02.045.035.037.035.074.083.102.123h.22l-.393-.56c-.005,0-.01.001-.016.001s-.01,0-.016-.001l-.394.56Z" fill-rule="evenodd"/>
            <path d="M27.088,6.465c.058.082.061.19.008.275h.135c-.013-.063.007-.129.053-.175.057-.053.056-.142,0-.196-.026-.026-.033-.064-.019-.098.039-.081.011-.178-.067-.225.005.076-.025.149-.082.2-.064.055-.077.149-.028.218Z" fill="red" fill-rule="evenodd"/>
            <path d="M27.324,6.937c-.031-.051-.05-.111-.052-.174h-.218c.027.05.067.093.114.123.046.029.099.047.155.051Z" fill="#fed700" fill-rule="evenodd"/>
            <path d="M28.725,6.65c.028,0,.052.023.052.051,0,.022-.014.042-.035.049-.07.028-.133.072-.182.128-.022.026-.047.042-.078.056-.033.012-.041.054-.017.079.023.023.062.017.077-.012.045-.091.123-.163.217-.2.049-.017.077-.056.078-.107-.001-.065-.051-.108-.114-.109-.129.001-.249.066-.32.173-.002.003-.006.006-.01.006h-.341s-.007-.002-.009-.005c-.028-.041-.065-.09-.102-.124-.026-.024-.051-.041-.071-.042-.02,0-.046.018-.071.042-.037.034-.074.083-.102.124-.002.004-.006.006-.01.006h-.39c.003.087.04.166.097.224.061.06.144.098.236.098h.481c.073,0,.14-.024.195-.064.054-.039.096-.094.119-.158.046-.128.167-.213.303-.213Z" fill="#fed700" fill-rule="evenodd"/>
            <path d="M27.868,6.416c.042,0,.076.034.076.076s-.034.077-.076.077-.076-.034-.076-.077.034-.076.076-.076Z" fill="#fed700" fill-rule="evenodd"/>
            <path d="M27.868,6.005c.042,0,.076.034.076.077,0,.042-.034.076-.076.076s-.076-.034-.076-.076c0-.042.034-.077.076-.077Z" fill="#fed700" fill-rule="evenodd"/>
            <path d="M28.305,6.74h.065l-.421-.599c-.011.014-.025.026-.042.033l.398.566Z" fill="#fed700" fill-rule="evenodd"/>
            <path d="M27.366,6.74h.065l.399-.566c-.017-.007-.031-.019-.042-.033l-.422.599Z" fill="#fed700" fill-rule="evenodd"/>
            <path d="M28.109,7.108h-.481c-.035,0-.067.015-.091.038-.021.021-.035.049-.037.079h.737c-.003-.031-.016-.059-.037-.079-.024-.024-.057-.038-.091-.038Z" fill="#fed700" fill-rule="evenodd"/>
          </g>
          <g>
            <path d="M27.56,8.445c-.071-.014-.134-.049-.183-.098-.013-.013-.025-.028-.036-.043-.067-.001-.13-.021-.183-.055-.057-.036-.103-.088-.131-.149-.004-.008.002-.016.01-.016h.033c.056-.078.056-.183.001-.262-.055-.078-.043-.186.031-.248.057-.051.084-.126.072-.202-.001-.009.008-.016.017-.012.101.046.144.165.096.264-.01.025-.005.053.014.072.066.062.067.166,0,.228-.042.041-.059.102-.045.158h.083l.438-.622c-.004-.011-.007-.023-.007-.036,0-.055.044-.1.099-.1.055,0,.099.044.099.1,0,.012-.002.025-.006.036l.431.614c.077-.106.199-.169.33-.171.075,0,.136.056.137.132,0,.059-.036.111-.093.13-.089.035-.162.103-.205.189-.022.043-.079.052-.114.018-.036-.036-.023-.098.025-.117.026-.008.051-.03.069-.05.052-.06.117-.106.191-.135.012-.004.021-.014.021-.028,0-.016-.014-.029-.029-.029-.122,0-.241.08-.28.197-.024.069-.07.129-.128.171-.041.03-.089.051-.14.061.014.007.027.017.039.028.027.028.044.065.044.107,0,.007-.005.012-.011.012h-.761c-.006,0-.012-.005-.012-.012,0-.041.017-.079.045-.107.011-.011.024-.021.039-.028h0ZM27.459,8.083h.22c.028-.041.065-.088.102-.123.015-.014.03-.026.045-.035-.034-.016-.057-.05-.057-.09,0-.055.044-.099.099-.099.055,0,.099.044.099.099,0,.04-.023.074-.058.09.015.008.03.02.045.035.037.035.074.082.102.123h.22l-.393-.559c-.005,0-.01.001-.016.001s-.01,0-.016-.001l-.394.559Z" fill-rule="evenodd"/>
            <path d="M27.088,7.808c.058.082.061.19.008.275h.135c-.013-.064.007-.129.053-.175.057-.053.056-.142,0-.196-.026-.026-.033-.064-.019-.098.039-.081.011-.178-.067-.225.005.076-.025.149-.082.2-.064.054-.077.149-.028.218Z" fill="red" fill-rule="evenodd"/>
            <path d="M27.324,8.281c-.031-.051-.05-.111-.052-.174h-.218c.027.05.067.092.114.123.046.029.099.047.155.051Z" fill="#fed700" fill-rule="evenodd"/>
            <path d="M28.725,7.993c.028,0,.052.023.052.052,0,.022-.014.042-.035.049-.07.028-.133.072-.182.128-.022.026-.047.043-.078.056-.033.012-.041.054-.017.079.023.023.062.017.077-.012.045-.091.123-.163.217-.2.049-.017.077-.056.078-.108-.001-.065-.051-.108-.114-.109-.129.001-.249.066-.32.173-.002.003-.006.006-.01.006h-.341s-.007-.002-.009-.005c-.028-.041-.065-.09-.102-.124-.026-.024-.051-.041-.071-.042-.02,0-.046.018-.071.042-.037.034-.074.083-.102.124-.002.003-.006.006-.01.006h-.39c.003.087.04.166.097.224.061.06.144.098.236.098h.481c.073,0,.14-.024.195-.064.054-.039.096-.094.119-.158.046-.128.167-.213.303-.213Z" fill="#fed700" fill-rule="evenodd"/>
            <path d="M27.868,7.759c.042,0,.076.034.076.076s-.034.077-.076.077-.076-.034-.076-.077.034-.076.076-.076Z" fill="#fed700" fill-rule="evenodd"/>
            <path d="M27.868,7.349c.042,0,.076.034.076.077,0,.042-.034.076-.076.076s-.076-.034-.076-.076c0-.042.034-.077.076-.077Z" fill="#fed700" fill-rule="evenodd"/>
            <path d="M28.305,8.083h.065l-.421-.599c-.011.015-.025.026-.042.033l.398.566Z" fill="#fed700" fill-rule="evenodd"/>
            <path d="M27.366,8.083h.065l.399-.566c-.017-.007-.031-.019-.042-.033l-.422.599Z" fill="#fed700" fill-rule="evenodd"/>
            <path d="M28.109,8.451h-.481c-.035,0-.067.014-.091.038-.021.021-.035.048-.037.079h.737c-.003-.031-.016-.059-.037-.079-.024-.024-.057-.038-.091-.038Z" fill="#fed700" fill-rule="evenodd"/>
          </g>
          <g>
            <path d="M27.56,9.788c-.071-.014-.134-.049-.183-.098-.013-.013-.025-.027-.036-.042-.067-.001-.13-.022-.183-.055-.057-.036-.103-.088-.131-.149-.004-.008.002-.016.01-.016h.033c.056-.078.056-.183.001-.262-.055-.078-.043-.186.031-.248.057-.051.084-.126.072-.202-.001-.009.008-.016.017-.012.101.046.144.166.096.264-.01.025-.005.053.014.072.066.062.067.166,0,.228-.042.041-.059.102-.045.158h.083l.438-.622c-.004-.011-.007-.023-.007-.036,0-.055.044-.099.099-.099.055,0,.099.044.099.099,0,.013-.002.025-.006.036l.431.614c.077-.106.199-.169.33-.17.075,0,.136.056.137.132,0,.059-.036.111-.093.129-.089.035-.162.104-.205.189-.022.043-.079.052-.114.018-.036-.036-.023-.098.025-.117.026-.008.051-.029.069-.05.052-.059.117-.106.191-.135.012-.004.021-.014.021-.028,0-.016-.014-.029-.029-.029-.122,0-.241.079-.28.196-.024.069-.07.128-.128.171-.041.03-.089.051-.14.061.014.007.027.017.039.028.027.027.044.065.044.107,0,.006-.005.011-.011.011h-.761c-.006,0-.012-.005-.012-.011,0-.042.017-.08.045-.107.011-.011.024-.021.039-.028h0ZM27.459,9.427h.22c.028-.041.065-.089.102-.123.015-.014.03-.026.045-.035-.034-.016-.057-.05-.057-.09,0-.055.044-.1.099-.1.055,0,.099.044.099.1,0,.04-.023.074-.058.09.015.008.03.02.045.035.037.034.074.082.102.123h.22l-.393-.56c-.005,0-.01.001-.016.001s-.01,0-.016-.001l-.394.56Z" fill-rule="evenodd"/>
            <path d="M27.088,9.152c.058.082.061.191.008.275h.135c-.013-.064.007-.129.053-.175.057-.053.056-.142,0-.195-.026-.026-.033-.064-.019-.098.039-.081.011-.178-.067-.225.005.076-.025.149-.082.2-.064.055-.077.149-.028.218Z" fill="red" fill-rule="evenodd"/>
            <path d="M27.324,9.624c-.031-.051-.05-.111-.052-.174h-.218c.027.05.067.093.114.123.046.029.099.047.155.051Z" fill="#fed700" fill-rule="evenodd"/>
            <path d="M28.725,9.337c.028,0,.052.023.052.052,0,.022-.014.042-.035.049-.07.027-.133.072-.182.128-.022.026-.047.043-.078.056-.033.012-.041.054-.017.079.023.023.062.017.077-.012.045-.091.123-.163.217-.2.049-.017.077-.056.078-.108-.001-.065-.051-.108-.114-.109-.129.001-.249.066-.32.173-.002.003-.006.006-.01.006h-.341s-.007-.002-.009-.005c-.028-.041-.065-.09-.102-.124-.026-.024-.051-.041-.071-.042-.02,0-.046.018-.071.042-.037.034-.074.083-.102.124-.002.003-.006.006-.01.006h-.39c.003.087.04.166.097.224.061.06.144.098.236.098h.481c.073,0,.14-.024.195-.064.054-.039.096-.094.119-.158.046-.128.167-.213.303-.213Z" fill="#fed700" fill-rule="evenodd"/>
            <path d="M27.868,9.103c.042,0,.076.034.076.077,0,.042-.034.076-.076.076s-.076-.034-.076-.076c0-.042.034-.077.076-.077Z" fill="#fed700" fill-rule="evenodd"/>
            <path d="M27.868,8.693c.042,0,.076.034.076.076s-.034.076-.076.076-.076-.034-.076-.076.034-.076.076-.076Z" fill="#fed700" fill-rule="evenodd"/>
            <path d="M28.305,9.427h.065l-.421-.6c-.011.015-.025.026-.042.033l.398.566Z" fill="#fed700" fill-rule="evenodd"/>
            <path d="M27.366,9.427h.065l.399-.566c-.017-.007-.031-.019-.042-.033l-.422.6Z" fill="#fed700" fill-rule="evenodd"/>
            <path d="M28.109,9.795h-.481c-.035,0-.067.015-.091.038-.021.021-.035.049-.037.079h.737c-.003-.031-.016-.058-.037-.079-.024-.024-.057-.038-.091-.038Z" fill="#fed700" fill-rule="evenodd"/>
          </g>
          <g>
            <path d="M27.56,12.475c-.071-.014-.134-.049-.183-.098-.013-.013-.025-.028-.036-.043-.067,0-.13-.021-.183-.055-.057-.036-.103-.088-.131-.149-.004-.008.002-.016.01-.016h.033c.056-.078.056-.183.001-.262-.055-.078-.043-.186.031-.248.057-.051.084-.126.072-.202-.001-.009.008-.016.017-.012.101.046.144.166.096.264-.01.025-.005.053.014.072.066.062.067.166,0,.228-.042.041-.059.102-.045.158h.083l.438-.622c-.004-.011-.007-.023-.007-.036,0-.055.044-.1.099-.1.055,0,.099.044.099.1,0,.012-.002.025-.006.036l.431.614c.077-.106.199-.169.33-.17.075,0,.136.056.137.132,0,.059-.036.111-.093.13-.089.035-.162.104-.205.189-.022.043-.079.052-.114.018-.036-.036-.023-.098.025-.117.026-.008.051-.029.069-.05.052-.06.117-.106.191-.135.012-.004.021-.014.021-.028,0-.016-.014-.029-.029-.029-.122,0-.241.08-.28.197-.024.069-.07.128-.128.171-.041.03-.089.051-.14.061.014.007.027.017.039.028.027.028.044.065.044.107,0,.007-.005.012-.011.012h-.761c-.006,0-.012-.005-.012-.012,0-.041.017-.079.045-.107.011-.011.024-.021.039-.028h0ZM27.459,12.114h.22c.028-.041.065-.088.102-.123.015-.014.03-.026.045-.035-.034-.016-.057-.05-.057-.09,0-.055.044-.099.099-.099.055,0,.099.044.099.099,0,.04-.023.074-.058.09.015.008.03.02.045.035.037.035.074.082.102.123h.22l-.393-.56c-.005,0-.01.001-.016.001s-.01,0-.016-.001l-.394.56Z" fill-rule="evenodd"/>
            <path d="M27.088,11.839c.058.082.061.19.008.275h.135c-.013-.064.007-.129.053-.175.057-.053.056-.142,0-.196-.026-.026-.033-.064-.019-.098.039-.081.011-.178-.067-.225.005.076-.025.149-.082.2-.064.055-.077.149-.028.218Z" fill="red" fill-rule="evenodd"/>
            <path d="M27.324,12.311c-.031-.051-.05-.111-.052-.174h-.218c.027.05.067.093.114.123.046.029.099.047.155.051Z" fill="#fed700" fill-rule="evenodd"/>
            <path d="M28.725,12.024c.028,0,.052.023.052.052,0,.022-.014.042-.035.049-.07.027-.133.071-.182.128-.022.026-.047.043-.078.056-.033.012-.041.054-.017.079.023.023.062.017.077-.012.045-.091.123-.163.217-.2.049-.017.077-.056.078-.108-.001-.065-.051-.108-.114-.109-.129.001-.249.066-.32.173-.002.003-.006.006-.01.006h-.341s-.007-.002-.009-.005c-.028-.041-.065-.09-.102-.124-.026-.024-.051-.041-.071-.042-.02,0-.046.018-.071.042-.037.034-.074.083-.102.124-.002.003-.006.006-.01.006h-.39c.003.087.04.166.097.224.061.061.144.098.236.098h.481c.073,0,.14-.024.195-.064.054-.039.096-.094.119-.158.046-.128.167-.213.303-.213Z" fill="#fed700" fill-rule="evenodd"/>
            <path d="M27.868,11.79c.042,0,.076.034.076.076s-.034.077-.076.077-.076-.034-.076-.077.034-.076.076-.076Z" fill="#fed700" fill-rule="evenodd"/>
            <path d="M27.868,11.38c.042,0,.076.034.076.077,0,.042-.034.076-.076.076s-.076-.034-.076-.076c0-.042.034-.077.076-.077Z" fill="#fed700" fill-rule="evenodd"/>
            <path d="M28.305,12.114h.065l-.421-.599c-.011.015-.025.026-.042.033l.398.566Z" fill="#fed700" fill-rule="evenodd"/>
            <path d="M27.366,12.114h.065l.399-.566c-.017-.007-.031-.019-.042-.033l-.422.599Z" fill="#fed700" fill-rule="evenodd"/>
            <path d="M28.109,12.482h-.481c-.035,0-.067.015-.091.038-.021.021-.035.048-.037.079h.737c-.003-.031-.016-.058-.037-.079-.024-.024-.057-.038-.091-.038Z" fill="#fed700" fill-rule="evenodd"/>
          </g>
          <g>
            <path d="M27.56,13.819c-.071-.014-.134-.049-.183-.098-.013-.013-.025-.027-.036-.042-.067-.001-.13-.021-.183-.055-.057-.036-.103-.088-.131-.149-.004-.008.002-.016.01-.016h.033c.056-.077.056-.183.001-.261-.055-.078-.043-.186.031-.248.057-.051.084-.126.072-.202-.001-.009.008-.016.017-.012.101.046.144.166.096.264-.01.025-.005.053.014.072.066.062.067.166,0,.228-.042.041-.059.102-.045.158h.083l.438-.622c-.004-.011-.007-.023-.007-.036,0-.055.044-.099.099-.099.055,0,.099.044.099.099,0,.013-.002.025-.006.036l.431.614c.077-.106.199-.169.33-.17.075,0,.136.056.137.132,0,.059-.036.111-.093.129-.089.036-.162.104-.205.189-.022.043-.079.052-.114.018-.036-.036-.023-.098.025-.117.026-.008.051-.029.069-.049.052-.06.117-.106.191-.135.012-.004.021-.014.021-.028,0-.016-.014-.029-.029-.029-.122,0-.241.079-.28.197-.024.069-.07.128-.128.171-.041.03-.089.051-.14.061.014.007.027.017.039.028.027.027.044.065.044.107,0,.006-.005.012-.011.012h-.761c-.006,0-.012-.005-.012-.012,0-.042.017-.08.045-.107.011-.011.024-.021.039-.028h0ZM27.459,13.457h.22c.028-.041.065-.088.102-.123.015-.014.03-.026.045-.035-.034-.016-.057-.05-.057-.09,0-.055.044-.1.099-.1.055,0,.099.044.099.1,0,.04-.023.074-.058.09.015.008.03.02.045.035.037.035.074.082.102.123h.22l-.393-.56c-.005,0-.01.001-.016.001s-.01,0-.016-.001l-.394.56Z" fill-rule="evenodd"/>
            <path d="M27.088,13.182c.058.082.061.19.008.275h.135c-.013-.064.007-.129.053-.175.057-.053.056-.142,0-.195-.026-.026-.033-.064-.019-.098.039-.081.011-.179-.067-.225.005.076-.025.149-.082.2-.064.055-.077.149-.028.218Z" fill="red" fill-rule="evenodd"/>
            <path d="M27.324,13.654c-.031-.051-.05-.11-.052-.174h-.218c.027.05.067.093.114.123.046.029.099.047.155.051Z" fill="#fed700" fill-rule="evenodd"/>
            <path d="M28.725,13.367c.028,0,.052.023.052.052,0,.022-.014.042-.035.049-.07.027-.133.072-.182.128-.022.026-.047.043-.078.056-.033.012-.041.054-.017.079.023.023.062.017.077-.012.045-.091.123-.163.217-.2.049-.017.077-.056.078-.108-.001-.064-.051-.108-.114-.109-.129,0-.249.066-.32.173-.002.003-.006.006-.01.006h-.341s-.007-.002-.009-.005c-.028-.041-.065-.09-.102-.124-.026-.024-.051-.041-.071-.042-.02.001-.046.018-.071.042-.037.034-.074.083-.102.124-.002.003-.006.006-.01.006h-.39c.003.087.04.166.097.224.061.06.144.098.236.098h.481c.073,0,.14-.023.195-.063.054-.039.096-.094.119-.158.046-.128.167-.213.303-.213Z" fill="#fed700" fill-rule="evenodd"/>
            <path d="M27.868,13.133c.042,0,.076.034.076.077,0,.042-.034.076-.076.076s-.076-.034-.076-.076c0-.042.034-.077.076-.077Z" fill="#fed700" fill-rule="evenodd"/>
            <path d="M27.868,12.723c.042,0,.076.034.076.076s-.034.076-.076.076-.076-.034-.076-.076.034-.076.076-.076Z" fill="#fed700" fill-rule="evenodd"/>
            <path d="M28.305,13.457h.065l-.421-.6c-.011.015-.025.026-.042.033l.398.566Z" fill="#fed700" fill-rule="evenodd"/>
            <path d="M27.366,13.457h.065l.399-.566c-.017-.007-.031-.019-.042-.033l-.422.6Z" fill="#fed700" fill-rule="evenodd"/>
            <path d="M28.109,13.825h-.481c-.035,0-.067.014-.091.038-.021.021-.035.049-.037.079h.737c-.003-.031-.016-.058-.037-.079-.024-.024-.057-.038-.091-.038Z" fill="#fed700" fill-rule="evenodd"/>
          </g>
          <path d="M20.877,14.862l-.158.159c.01-.001.021-.002.031-.002.159,0,.287.129.287.288,0,.038-.007.074-.021.107l.196-.196c-.116-.114-.228-.233-.336-.355Z" fill="#fed700" fill-rule="evenodd"/>
          <path d="M30.008,14.862l.158.159c-.01-.001-.021-.002-.031-.002-.159,0-.287.129-.287.288,0,.038.007.074.021.107l-.196-.196c.116-.114.229-.233.336-.355Z" fill="#fed700" fill-rule="evenodd"/>
          <path d="M29.751,13.969l.713.713c-.138-.062-.308-.029-.412.093l-.054.063c-.555.638-1.241,1.159-2.017,1.519-.772.358-1.632.558-2.538.558s-1.767-.2-2.538-.558c-.776-.36-1.463-.881-2.017-1.519l-.054-.063c-.104-.122-.274-.155-.412-.093l.713-.713c.079-.079.14-.125.259-.125.1,0,.195.045.257.124.457.561,1.036,1.018,1.696,1.332.635.302,1.346.471,2.097.471s1.461-.169,2.097-.471c.66-.314,1.239-.772,1.696-1.332.063-.079.157-.124.257-.124.119,0,.18.046.259.125Z" fill="#fed700" fill-rule="evenodd"/>
          <path d="M30.566,15.22l-.243.272c-.094.107-.275.101-.375.002-.048-.048-.078-.114-.078-.187,0-.146.118-.265.264-.265.021,0,.041.002.062.007.004.001.008,0,.012-.003.004-.005.004-.012,0-.016l-.185-.185.047-.055c.124-.146.348-.154.483-.02.122.122.128.321.014.45Z" fill="#fed700" fill-rule="evenodd"/>
          <path d="M20.318,15.22l.243.272c.094.107.275.101.374.002.048-.048.078-.114.078-.187,0-.146-.119-.265-.265-.265-.021,0-.041.002-.061.007-.004.001-.009,0-.012-.003-.004-.005-.004-.012,0-.016l.185-.185-.047-.055c-.124-.146-.348-.154-.483-.02-.122.122-.128.321-.014.45Z" fill="#fed700" fill-rule="evenodd"/>
          <path d="M23.607,11.244c-.07-.014-.134-.049-.183-.098-.013-.013-.025-.028-.036-.042-.067-.001-.13-.021-.183-.055-.057-.036-.103-.088-.131-.149-.004-.008.002-.016.01-.016h.033c.056-.077.056-.183.001-.261-.055-.078-.042-.186.031-.248.057-.052.084-.126.072-.202-.001-.009.008-.016.017-.012.101.046.144.166.096.264-.01.025-.005.053.014.072.066.062.067.166,0,.229-.042.041-.059.102-.045.158h.083l.458-.651v-.106c0-.14.036-.274.126-.383.096-.116.181-.241.253-.373.132-.241.305-.459.511-.64l.054-.334c-.013-.033-.02-.069-.02-.107,0-.069.024-.135.067-.188l.023-.143c.02-.128.1-.237.213-.298.024-.054.057-.103.099-.144.069-.067.16-.113.26-.124.023-.053.031-.113.02-.171-.048,0-.093-.005-.138-.021-.041-.014-.08-.035-.113-.061-.017-.012-.026-.031-.026-.051,0-.014.005-.028.013-.039.011-.015.012-.037.001-.052-.003-.005-.003-.011.002-.015l.025-.025c-.013-.006-.024-.017-.031-.03-.002-.004-.001-.009.001-.012.011-.015.016-.033.015-.051h-.006c-.036,0-.066-.03-.066-.066,0-.025.015-.049.038-.06.029-.013.053-.034.07-.06.016-.025.026-.055.026-.088v-.09c0-.007,0-.015.002-.022,0-.002,0-.003.001-.005h-.006c-.079,0-.143-.064-.143-.143s.064-.143.143-.143c.01,0,.018.001.028.003-.003-.029.004-.058.019-.084.013-.022.031-.04.054-.053.006-.003.013,0,.016.005.01.02.026.037.044.048.024.015.051.02.079.017.006-.074.068-.131.143-.131.071,0,.131.052.141.122.026-.006.053-.009.079-.009.098,0,.187.04.252.104.064.064.104.153.104.252v.259c.032.003.06.017.081.038.024.024.039.057.039.093,0,.034-.013.066-.035.089-.019.021-.045.035-.074.04,0,.006.001.011.001.017,0,.065-.047.118-.109.129,0,.006.001.011.001.017,0,.072-.059.131-.131.131-.045,0-.084-.022-.108-.057v.059c0,.025.01.048.027.065.017.016.039.027.065.027h.036c.06,0,.106.025.147.066l.33.331c.03.031.047.072.047.115,0,.036-.012.071-.034.1.059.185.108.374.148.567.046.222.078.449.096.68,0,.003,0,.005-.002.007-.122.219-.265.42-.39.635-.056.096-.11.195-.16.295-.042.084-.056.153-.056.247v.052c.045.025.078.068.091.117l.395,1.474c.009.033,0,.068-.025.092-.026.025-.063.033-.097.02l.125.216c.018.03.031.063.039.096l.157.585c.012.042.018.086.018.129,0,.064-.013.127-.039.186l.09.334c.008.029,0,.06-.021.082-.015.015-.036.024-.059.024h-.205c-.006.028-.03.048-.059.048h-.098c.027.033.038.078.026.119-.018.057-.057.145-.105.221-.037.058-.079.109-.122.133-.088.051-.202.021-.254-.068l-.115-.2h-.166c-.055,0-.099-.044-.099-.099,0-.027.011-.052.03-.071.005-.005.008-.011.008-.018,0-.006-.004-.012-.01-.015l-.139-.08c-.01-.006-.022-.002-.028.007-.006.01-.002.022.008.028l.048.028c.02.012.033.032.033.056,0,.017-.007.033-.019.045l-.075.075c-.013.013-.031.021-.051.021-.025,0-.049-.013-.062-.035-.005-.008-.011-.016-.018-.024l-.557.322c-.031.018-.071.012-.096-.013-.015-.015-.024-.035-.024-.057,0-.021.008-.041.022-.055h-.022c-.035,0-.063-.028-.063-.064,0-.035.029-.063.063-.063.023,0,.044-.003.065-.008.016-.004.032-.01.047-.017l-.048-.048-.021.006c-.122.034-.228-.098-.163-.21l.024-.042c.016-.031.015-.069-.003-.099-.042-.059-.045-.138-.009-.201l.096-.166v-.973s-.008.001-.012.002c-.025.005-.051-.002-.07-.02-.019-.018-.029-.043-.026-.069l.124-1.141c-.022.025-.041.054-.056.084-.022.043-.079.053-.113.018-.036-.036-.023-.098.025-.117.025-.009.051-.03.069-.05.027-.031.058-.059.091-.082l.011-.098c-.091.026-.169.094-.2.185-.025.069-.07.129-.128.171-.041.03-.089.051-.14.062.014.007.027.017.039.028.028.028.045.065.045.107,0,.006-.005.012-.012.012h-.761c-.006,0-.012-.005-.012-.012,0-.041.017-.079.044-.107.011-.011.025-.021.039-.028h0ZM26.183,9.197c-.028.042-.038.081-.021.131.017.05.027.103.029.157.022-.059.046-.116.071-.173.038-.086.079-.171.122-.253-.05-.09-.095-.182-.134-.278-.006.035-.023.067-.05.091h0c-.014.013-.022.029-.022.048,0,.014.004.024.011.036h0c.021.035.032.075.032.116,0,.045-.013.089-.038.126h0ZM24.067,10.344l.373.53c.064-.088.16-.147.265-.165l.003-.028c.016-.16.047-.318.092-.472-.012-.001-.023-.005-.032-.013-.02-.015-.028-.038-.024-.062.02-.095.043-.19.07-.282.027-.094.059-.187.093-.277.064-.159.096-.329.096-.501v-.025c-.147.19-.325.355-.525.487-.115.076-.223.163-.323.259-.005.006-.008.014-.008.022,0,.007.002.014.007.02.032.044.05.096.05.151v.079c0,.027-.01.053-.029.073-.013.015-.021.035-.021.055v.043c0,.051-.037.095-.086.105h0ZM23.85,10.394l-.344.488h.22c.028-.041.065-.088.102-.123.015-.014.03-.026.045-.035-.034-.016-.058-.05-.058-.09,0-.055.044-.099.099-.099.055,0,.099.044.099.099,0,.04-.023.074-.057.09.015.009.03.02.045.035.037.035.074.083.102.123h.22l-.29-.413c-.02.025-.05.041-.084.041-.006,0-.011-.005-.011-.012v-.035c-.041-.004-.075-.032-.089-.07Z" fill-rule="evenodd"/>
          <path d="M21.885,15.561l.205-.781-.052-.039.021-.028.287.217-.021.028-.071-.053-.13.495.351-.232c.011-.007.019-.013.026-.018.006-.005.011-.01.014-.014.006-.008.007-.016.004-.024-.004-.007-.015-.019-.035-.033l-.038-.028.021-.028.194.147-.021.028-.026-.02c-.016-.012-.031-.017-.046-.015-.015.002-.039.013-.07.034l-.588.386-.028-.021h0ZM22.596,16.009l.344.174.017-.034-.084-.043.313-.617.084.042.016-.032-.344-.174-.016.032.084.042-.313.617-.084-.042-.017.034h0ZM24.202,16.354l-.068-.02-.003.009c-.023.08-.068.134-.133.164-.066.03-.144.031-.236.004-.037-.011-.07-.026-.099-.044-.029-.018-.054-.041-.075-.067-.044-.054-.072-.113-.084-.178-.013-.065-.009-.131.011-.199.015-.053.04-.1.075-.141.034-.041.077-.075.129-.102.045-.024.09-.038.136-.044.046-.005.092-.001.136.012.036.011.068.025.095.044.026.018.048.04.064.066l.054-.032.033.01-.057.214-.041-.012c0-.069-.014-.124-.038-.167-.025-.042-.061-.071-.109-.085-.035-.011-.065-.013-.09-.007-.025.006-.047.02-.066.042-.014.016-.028.042-.042.077-.014.035-.036.106-.068.213-.044.151-.062.245-.054.284.008.039.039.066.091.081.035.01.065.011.089,0,.024-.01.04-.03.049-.059l.041-.139-.096-.028.01-.035.355.105-.01.035h0ZM24.591,16.687l.003-.038.094.008.059-.689-.094-.008.003-.035.384.033-.003.035-.094-.008-.059.689.094.008-.003.037-.385-.033h0ZM25.472,16.755l-.003-.037.079-.006-.055-.69-.079.006-.003-.035.38-.03.003.035-.105.008.055.69.111-.009c.063-.005.111-.025.144-.061.033-.036.056-.094.07-.174l.036-.003.012.255-.645.051h0ZM26.68,16.349l.201-.05-.163-.236-.038.286h0ZM26.544,16.645l-.009-.036.046-.012c.012-.003.022-.01.028-.02.006-.01.011-.027.014-.051l.089-.727.044-.011.459.65.066-.016.009.037-.36.09-.009-.037.091-.023-.109-.157-.226.056-.017.139s0,.006,0,.011c0,.005.002.01.003.016.002.006.006.011.012.013.007.002.015.002.025,0l.066-.016.009.037-.232.058h0ZM27.791,16.259l-.017-.034.084-.042-.308-.619-.037.018c-.045.022-.073.054-.085.094-.012.041-.01.101.005.182l-.027.014-.102-.225.638-.318.119.217-.027.014c-.053-.06-.1-.097-.141-.113-.041-.016-.083-.012-.126.009l-.039.02.308.619.084-.042.017.034-.345.172h0ZM28.698,15.769l-.023-.03.074-.056-.42-.55-.063.048-.022-.028.507-.387.124.158-.031.023c-.06-.036-.108-.055-.143-.056-.035-.002-.073.013-.114.044l-.105.08.191.25s.006-.003.009-.006c.003-.002.008-.006.013-.01.033-.025.052-.053.055-.083.004-.031-.007-.068-.032-.111l.031-.024.198.259-.031.024c-.035-.039-.069-.062-.1-.067-.031-.005-.065.007-.102.035l-.018.014.206.269.102-.078c.05-.038.079-.081.087-.13.008-.048-.004-.11-.035-.184l.029-.022.148.208-.536.409Z" fill-rule="evenodd"/>
          <g>
            <path d="M22.756,7.101c-.071-.014-.134-.049-.183-.098-.013-.013-.025-.028-.036-.043-.067-.001-.13-.021-.184-.055-.057-.036-.102-.088-.131-.149-.004-.008.002-.016.01-.016h.033c.055-.077.056-.183.001-.261-.056-.078-.043-.186.031-.248.057-.051.084-.126.073-.202-.001-.01.008-.016.017-.012.101.046.144.166.096.264-.01.025-.005.053.014.072.065.062.067.166,0,.228-.042.041-.059.102-.045.158h.084l.437-.622c-.004-.011-.007-.023-.007-.036,0-.055.044-.1.099-.1s.099.044.099.1c0,.012-.002.025-.007.036l.432.613c.077-.106.199-.169.33-.17.075,0,.136.056.137.132,0,.059-.036.111-.093.13-.089.035-.162.103-.205.189-.022.043-.079.053-.113.018-.036-.036-.023-.098.025-.117.025-.008.051-.03.069-.05.052-.06.117-.106.191-.135.012-.004.021-.014.021-.028,0-.016-.014-.029-.03-.029-.122,0-.24.08-.28.197-.024.069-.069.128-.128.171-.041.03-.088.051-.14.062.014.007.027.017.039.028.027.028.044.066.044.107,0,.007-.005.012-.011.012h-.761c-.006,0-.011-.005-.011-.012,0-.041.017-.079.044-.107.011-.011.024-.021.039-.028h0ZM22.655,6.74h.22c.028-.04.065-.088.102-.123.015-.014.03-.026.045-.035-.034-.016-.058-.05-.058-.09,0-.055.044-.099.099-.099s.099.044.099.099c0,.04-.023.074-.057.09.015.008.03.02.045.035.037.035.074.083.102.123h.22l-.394-.56c-.005,0-.01.001-.016.001-.005,0-.01,0-.016-.001l-.393.56Z" fill-rule="evenodd"/>
            <path d="M22.284,6.465c.057.082.061.19.008.275h.135c-.013-.063.007-.129.053-.175.057-.053.056-.142,0-.196-.026-.026-.033-.064-.019-.098.039-.081.011-.178-.067-.225.005.076-.025.149-.082.2-.065.055-.077.149-.028.218Z" fill="red" fill-rule="evenodd"/>
            <path d="M22.52,6.937c-.031-.051-.05-.111-.052-.174h-.218c.027.05.067.093.115.123.045.029.098.047.155.051Z" fill="#fed700" fill-rule="evenodd"/>
            <path d="M23.921,6.65c.028,0,.053.023.053.051,0,.022-.014.042-.036.049-.07.028-.133.072-.182.128-.022.026-.047.042-.078.056-.033.012-.041.054-.017.079.023.023.062.017.077-.012.045-.091.123-.163.217-.2.049-.017.077-.056.078-.107,0-.065-.051-.108-.114-.109-.129.001-.249.066-.32.173-.002.003-.006.006-.01.006h-.341s-.007-.002-.01-.005c-.028-.041-.065-.09-.102-.124-.026-.024-.051-.041-.071-.042-.02,0-.045.018-.071.042-.037.034-.074.083-.102.124-.002.004-.006.006-.01.006h-.39c.003.087.04.166.098.224.06.06.144.098.235.098h.48c.073,0,.14-.024.195-.064.054-.039.096-.094.119-.158.046-.128.167-.213.303-.213Z" fill="#fed700" fill-rule="evenodd"/>
            <path d="M23.064,6.416c.042,0,.076.034.076.076s-.034.077-.076.077-.076-.034-.076-.077.034-.076.076-.076Z" fill="#fed700" fill-rule="evenodd"/>
            <path d="M23.064,6.005c.042,0,.076.034.076.077,0,.042-.034.076-.076.076s-.076-.034-.076-.076c0-.042.034-.077.076-.077Z" fill="#fed700" fill-rule="evenodd"/>
            <path d="M23.501,6.74h.065l-.422-.599c-.01.014-.025.026-.042.033l.399.566Z" fill="#fed700" fill-rule="evenodd"/>
            <path d="M22.562,6.74h.065l.398-.566c-.017-.007-.031-.019-.042-.033l-.421.599Z" fill="#fed700" fill-rule="evenodd"/>
            <path d="M23.304,7.108h-.48c-.035,0-.068.015-.091.038-.021.021-.035.049-.037.079h.737c-.003-.031-.017-.059-.037-.079-.024-.024-.056-.038-.091-.038Z" fill="#fed700" fill-rule="evenodd"/>
          </g>
          <g>
            <path d="M22.756,8.445c-.071-.014-.134-.049-.183-.098-.013-.013-.025-.028-.036-.043-.067-.001-.13-.021-.184-.055-.057-.036-.102-.088-.131-.149-.004-.008.002-.016.01-.016h.033c.055-.078.056-.183.001-.262-.056-.078-.043-.186.031-.248.057-.051.084-.126.073-.202-.001-.009.008-.016.017-.012.101.046.144.165.096.264-.01.025-.005.053.014.072.065.062.067.166,0,.228-.042.041-.059.102-.045.158h.084l.437-.622c-.004-.011-.007-.023-.007-.036,0-.055.044-.1.099-.1s.099.044.099.1c0,.012-.002.025-.007.036l.432.614c.077-.106.199-.169.33-.171.075,0,.136.056.137.132,0,.059-.036.111-.093.13-.089.035-.162.103-.205.189-.022.043-.079.052-.113.018-.036-.036-.023-.098.025-.117.025-.008.051-.03.069-.05.052-.06.117-.106.191-.135.012-.004.021-.014.021-.028,0-.016-.014-.029-.03-.029-.122,0-.24.08-.28.197-.024.069-.069.129-.128.171-.041.03-.088.051-.14.061.014.007.027.017.039.028.027.028.044.065.044.107,0,.007-.005.012-.011.012h-.761c-.006,0-.011-.005-.011-.012,0-.041.017-.079.044-.107.011-.011.024-.021.039-.028h0ZM22.655,8.083h.22c.028-.041.065-.088.102-.123.015-.014.03-.026.045-.035-.034-.016-.058-.05-.058-.09,0-.055.044-.099.099-.099s.099.044.099.099c0,.04-.023.074-.057.09.015.008.03.02.045.035.037.035.074.082.102.123h.22l-.394-.559c-.005,0-.01.001-.016.001-.005,0-.01,0-.016-.001l-.393.559Z" fill-rule="evenodd"/>
            <path d="M22.284,7.808c.057.082.061.19.008.275h.135c-.013-.064.007-.129.053-.175.057-.053.056-.142,0-.196-.026-.026-.033-.064-.019-.098.039-.081.011-.178-.067-.225.005.076-.025.149-.082.2-.065.054-.077.149-.028.218Z" fill="red" fill-rule="evenodd"/>
            <path d="M22.52,8.281c-.031-.051-.05-.111-.052-.174h-.218c.027.05.067.092.115.123.045.029.098.047.155.051Z" fill="#fed700" fill-rule="evenodd"/>
            <path d="M23.921,7.993c.028,0,.053.023.053.052,0,.022-.014.042-.036.049-.07.028-.133.072-.182.128-.022.026-.047.043-.078.056-.033.012-.041.054-.017.079.023.023.062.017.077-.012.045-.091.123-.163.217-.2.049-.017.077-.056.078-.108,0-.065-.051-.108-.114-.109-.129.001-.249.066-.32.173-.002.003-.006.006-.01.006h-.341s-.007-.002-.01-.005c-.028-.041-.065-.09-.102-.124-.026-.024-.051-.041-.071-.042-.02,0-.045.018-.071.042-.037.034-.074.083-.102.124-.002.003-.006.006-.01.006h-.39c.003.087.04.166.098.224.06.06.144.098.235.098h.48c.073,0,.14-.024.195-.064.054-.039.096-.094.119-.158.046-.128.167-.213.303-.213Z" fill="#fed700" fill-rule="evenodd"/>
            <path d="M23.064,7.759c.042,0,.076.034.076.076s-.034.077-.076.077-.076-.034-.076-.077.034-.076.076-.076Z" fill="#fed700" fill-rule="evenodd"/>
            <path d="M23.064,7.349c.042,0,.076.034.076.077,0,.042-.034.076-.076.076s-.076-.034-.076-.076c0-.042.034-.077.076-.077Z" fill="#fed700" fill-rule="evenodd"/>
            <path d="M23.501,8.083h.065l-.422-.599c-.01.015-.025.026-.042.033l.399.566Z" fill="#fed700" fill-rule="evenodd"/>
            <path d="M22.562,8.083h.065l.398-.566c-.017-.007-.031-.019-.042-.033l-.421.599Z" fill="#fed700" fill-rule="evenodd"/>
            <path d="M23.304,8.451h-.48c-.035,0-.068.014-.091.038-.021.021-.035.048-.037.079h.737c-.003-.031-.017-.059-.037-.079-.024-.024-.056-.038-.091-.038Z" fill="#fed700" fill-rule="evenodd"/>
          </g>
          <g>
            <path d="M22.756,9.788c-.071-.014-.134-.049-.183-.098-.013-.013-.025-.027-.036-.042-.067-.001-.13-.022-.184-.055-.057-.036-.102-.088-.131-.149-.004-.008.002-.016.01-.016h.033c.055-.078.056-.183.001-.262-.056-.078-.043-.186.031-.248.057-.051.084-.126.073-.202-.001-.009.008-.016.017-.012.101.046.144.166.096.264-.01.025-.005.053.014.072.065.062.067.166,0,.228-.042.041-.059.102-.045.158h.084l.437-.622c-.004-.011-.007-.023-.007-.036,0-.055.044-.099.099-.099s.099.044.099.099c0,.013-.002.025-.007.036l.432.614c.077-.106.199-.169.33-.17.075,0,.136.056.137.132,0,.059-.036.111-.093.129-.089.035-.162.104-.205.189-.022.043-.079.052-.113.018-.036-.036-.023-.098.025-.117.025-.008.051-.029.069-.05.052-.059.117-.106.191-.135.012-.004.021-.014.021-.028,0-.016-.014-.029-.03-.029-.122,0-.24.079-.28.196-.024.069-.069.128-.128.171-.041.03-.088.051-.14.061.014.007.027.017.039.028.027.027.044.065.044.107,0,.006-.005.011-.011.011h-.761c-.006,0-.011-.005-.011-.011,0-.042.017-.08.044-.107.011-.011.024-.021.039-.028h0ZM22.655,9.427h.22c.028-.041.065-.089.102-.123.015-.014.03-.026.045-.035-.034-.016-.058-.05-.058-.09,0-.055.044-.1.099-.1s.099.044.099.1c0,.04-.023.074-.057.09.015.008.03.02.045.035.037.034.074.082.102.123h.22l-.394-.56c-.005,0-.01.001-.016.001-.005,0-.01,0-.016-.001l-.393.56Z" fill-rule="evenodd"/>
            <path d="M22.284,9.152c.057.082.061.191.008.275h.135c-.013-.064.007-.129.053-.175.057-.053.056-.142,0-.195-.026-.026-.033-.064-.019-.098.039-.081.011-.178-.067-.225.005.076-.025.149-.082.2-.065.055-.077.149-.028.218Z" fill="red" fill-rule="evenodd"/>
            <path d="M22.52,9.624c-.031-.051-.05-.111-.052-.174h-.218c.027.05.067.093.115.123.045.029.098.047.155.051Z" fill="#fed700" fill-rule="evenodd"/>
            <path d="M23.921,9.337c.028,0,.053.023.053.052,0,.022-.014.042-.036.049-.07.027-.133.072-.182.128-.022.026-.047.043-.078.056-.033.012-.041.054-.017.079.023.023.062.017.077-.012.045-.091.123-.163.217-.2.049-.017.077-.056.078-.108,0-.065-.051-.108-.114-.109-.129.001-.249.066-.32.173-.002.003-.006.006-.01.006h-.341s-.007-.002-.01-.005c-.028-.041-.065-.09-.102-.124-.026-.024-.051-.041-.071-.042-.02,0-.045.018-.071.042-.037.034-.074.083-.102.124-.002.003-.006.006-.01.006h-.39c.003.087.04.166.098.224.06.06.144.098.235.098h.48c.073,0,.14-.024.195-.064.054-.039.096-.094.119-.158.046-.128.167-.213.303-.213Z" fill="#fed700" fill-rule="evenodd"/>
            <path d="M23.064,9.103c.042,0,.076.034.076.077,0,.042-.034.076-.076.076s-.076-.034-.076-.076c0-.042.034-.077.076-.077Z" fill="#fed700" fill-rule="evenodd"/>
            <path d="M23.064,8.693c.042,0,.076.034.076.076s-.034.076-.076.076-.076-.034-.076-.076.034-.076.076-.076Z" fill="#fed700" fill-rule="evenodd"/>
            <path d="M23.501,9.427h.065l-.422-.6c-.01.015-.025.026-.042.033l.399.566Z" fill="#fed700" fill-rule="evenodd"/>
            <path d="M22.562,9.427h.065l.398-.566c-.017-.007-.031-.019-.042-.033l-.421.6Z" fill="#fed700" fill-rule="evenodd"/>
            <path d="M23.304,9.795h-.48c-.035,0-.068.015-.091.038-.021.021-.035.049-.037.079h.737c-.003-.031-.017-.058-.037-.079-.024-.024-.056-.038-.091-.038Z" fill="#fed700" fill-rule="evenodd"/>
          </g>
          <g>
            <path d="M22.756,12.475c-.071-.014-.134-.049-.183-.098-.013-.013-.025-.028-.036-.043-.067,0-.13-.021-.184-.055-.057-.036-.102-.088-.131-.149-.004-.008.002-.016.01-.016h.033c.055-.078.056-.183.001-.262-.056-.078-.043-.186.031-.248.057-.051.084-.126.073-.202-.001-.009.008-.016.017-.012.101.046.144.166.096.264-.01.025-.005.053.014.072.065.062.067.166,0,.228-.042.041-.059.102-.045.158h.084l.437-.622c-.004-.011-.007-.023-.007-.036,0-.055.044-.1.099-.1s.099.044.099.1c0,.012-.002.025-.007.036l.432.614c.077-.106.199-.169.33-.17.075,0,.136.056.137.132,0,.059-.036.111-.093.13-.089.035-.162.104-.205.189-.022.043-.079.052-.113.018-.036-.036-.023-.098.025-.117.025-.008.051-.029.069-.05.052-.06.117-.106.191-.135.012-.004.021-.014.021-.028,0-.016-.014-.029-.03-.029-.122,0-.24.08-.28.197-.024.069-.069.128-.128.171-.041.03-.088.051-.14.061.014.007.027.017.039.028.027.028.044.065.044.107,0,.007-.005.012-.011.012h-.761c-.006,0-.011-.005-.011-.012,0-.041.017-.079.044-.107.011-.011.024-.021.039-.028h0ZM22.655,12.114h.22c.028-.041.065-.088.102-.123.015-.014.03-.026.045-.035-.034-.016-.058-.05-.058-.09,0-.055.044-.099.099-.099s.099.044.099.099c0,.04-.023.074-.057.09.015.008.03.02.045.035.037.035.074.082.102.123h.22l-.394-.56c-.005,0-.01.001-.016.001-.005,0-.01,0-.016-.001l-.393.56Z" fill-rule="evenodd"/>
            <path d="M22.284,11.839c.057.082.061.19.008.275h.135c-.013-.064.007-.129.053-.175.057-.053.056-.142,0-.196-.026-.026-.033-.064-.019-.098.039-.081.011-.178-.067-.225.005.076-.025.149-.082.2-.065.055-.077.149-.028.218Z" fill="red" fill-rule="evenodd"/>
            <path d="M22.52,12.311c-.031-.051-.05-.111-.052-.174h-.218c.027.05.067.093.115.123.045.029.098.047.155.051Z" fill="#fed700" fill-rule="evenodd"/>
            <path d="M23.921,12.024c.028,0,.053.023.053.052,0,.022-.014.042-.036.049-.07.027-.133.071-.182.128-.022.026-.047.043-.078.056-.033.012-.041.054-.017.079.023.023.062.017.077-.012.045-.091.123-.163.217-.2.049-.017.077-.056.078-.108,0-.065-.051-.108-.114-.109-.129.001-.249.066-.32.173-.002.003-.006.006-.01.006h-.341s-.007-.002-.01-.005c-.028-.041-.065-.09-.102-.124-.026-.024-.051-.041-.071-.042-.02,0-.045.018-.071.042-.037.034-.074.083-.102.124-.002.003-.006.006-.01.006h-.39c.003.087.04.166.098.224.06.061.144.098.235.098h.48c.073,0,.14-.024.195-.064.054-.039.096-.094.119-.158.046-.128.167-.213.303-.213Z" fill="#fed700" fill-rule="evenodd"/>
            <path d="M23.064,11.79c.042,0,.076.034.076.076s-.034.077-.076.077-.076-.034-.076-.077.034-.076.076-.076Z" fill="#fed700" fill-rule="evenodd"/>
            <path d="M23.064,11.38c.042,0,.076.034.076.077,0,.042-.034.076-.076.076s-.076-.034-.076-.076c0-.042.034-.077.076-.077Z" fill="#fed700" fill-rule="evenodd"/>
            <path d="M23.501,12.114h.065l-.422-.599c-.01.015-.025.026-.042.033l.399.566Z" fill="#fed700" fill-rule="evenodd"/>
            <path d="M22.562,12.114h.065l.398-.566c-.017-.007-.031-.019-.042-.033l-.421.599Z" fill="#fed700" fill-rule="evenodd"/>
            <path d="M23.304,12.482h-.48c-.035,0-.068.015-.091.038-.021.021-.035.048-.037.079h.737c-.003-.031-.017-.058-.037-.079-.024-.024-.056-.038-.091-.038Z" fill="#fed700" fill-rule="evenodd"/>
          </g>
          <g>
            <path d="M22.756,13.819c-.071-.014-.134-.049-.183-.098-.013-.013-.025-.027-.036-.042-.067-.001-.13-.021-.184-.055-.057-.036-.102-.088-.131-.149-.004-.008.002-.016.01-.016h.033c.055-.077.056-.183.001-.261-.056-.078-.043-.186.031-.248.057-.051.084-.126.073-.202-.001-.009.008-.016.017-.012.101.046.144.166.096.264-.01.025-.005.053.014.072.065.062.067.166,0,.228-.042.041-.059.102-.045.158h.084l.437-.622c-.004-.011-.007-.023-.007-.036,0-.055.044-.099.099-.099s.099.044.099.099c0,.013-.002.025-.007.036l.432.614c.077-.106.199-.169.33-.17.075,0,.136.056.137.132,0,.059-.036.111-.093.129-.089.036-.162.104-.205.189-.022.043-.079.052-.113.018-.036-.036-.023-.098.025-.117.025-.008.051-.029.069-.049.052-.06.117-.106.191-.135.012-.004.021-.014.021-.028,0-.016-.014-.029-.03-.029-.122,0-.24.079-.28.197-.024.069-.069.128-.128.171-.041.03-.088.051-.14.061.014.007.027.017.039.028.027.027.044.065.044.107,0,.006-.005.012-.011.012h-.761c-.006,0-.011-.005-.011-.012,0-.042.017-.08.044-.107.011-.011.024-.021.039-.028h0ZM22.655,13.457h.22c.028-.041.065-.088.102-.123.015-.014.03-.026.045-.035-.034-.016-.058-.05-.058-.09,0-.055.044-.1.099-.1s.099.044.099.1c0,.04-.023.074-.057.09.015.008.03.02.045.035.037.035.074.082.102.123h.22l-.394-.56c-.005,0-.01.001-.016.001-.005,0-.01,0-.016-.001l-.393.56Z" fill-rule="evenodd"/>
            <path d="M22.284,13.182c.057.082.061.19.008.275h.135c-.013-.064.007-.129.053-.175.057-.053.056-.142,0-.195-.026-.026-.033-.064-.019-.098.039-.081.011-.179-.067-.225.005.076-.025.149-.082.2-.065.055-.077.149-.028.218Z" fill="red" fill-rule="evenodd"/>
            <path d="M22.52,13.654c-.031-.051-.05-.11-.052-.174h-.218c.027.05.067.093.115.123.045.029.098.047.155.051Z" fill="#fed700" fill-rule="evenodd"/>
            <path d="M23.921,13.367c.028,0,.053.023.053.052,0,.022-.014.042-.036.049-.07.027-.133.072-.182.128-.022.026-.047.043-.078.056-.033.012-.041.054-.017.079.023.023.062.017.077-.012.045-.091.123-.163.217-.2.049-.017.077-.056.078-.108,0-.064-.051-.108-.114-.109-.129,0-.249.066-.32.173-.002.003-.006.006-.01.006h-.341s-.007-.002-.01-.005c-.028-.041-.065-.09-.102-.124-.026-.024-.051-.041-.071-.042-.02.001-.045.018-.071.042-.037.034-.074.083-.102.124-.002.003-.006.006-.01.006h-.39c.003.087.04.166.098.224.06.06.144.098.235.098h.48c.073,0,.14-.023.195-.063.054-.039.096-.094.119-.158.046-.128.167-.213.303-.213Z" fill="#fed700" fill-rule="evenodd"/>
            <path d="M23.064,13.133c.042,0,.076.034.076.077,0,.042-.034.076-.076.076s-.076-.034-.076-.076c0-.042.034-.077.076-.077Z" fill="#fed700" fill-rule="evenodd"/>
            <path d="M23.064,12.723c.042,0,.076.034.076.076s-.034.076-.076.076-.076-.034-.076-.076.034-.076.076-.076Z" fill="#fed700" fill-rule="evenodd"/>
            <path d="M23.501,13.457h.065l-.422-.6c-.01.015-.025.026-.042.033l.399.566Z" fill="#fed700" fill-rule="evenodd"/>
            <path d="M22.562,13.457h.065l.398-.566c-.017-.007-.031-.019-.042-.033l-.421.6Z" fill="#fed700" fill-rule="evenodd"/>
            <path d="M23.304,13.825h-.48c-.035,0-.068.014-.091.038-.021.021-.035.049-.037.079h.737c-.003-.031-.017-.058-.037-.079-.024-.024-.056-.038-.091-.038Z" fill="#fed700" fill-rule="evenodd"/>
          </g>
          <g>
            <path d="M27.56,11.132c-.071-.014-.134-.049-.183-.098-.013-.013-.025-.028-.036-.043-.067-.001-.13-.021-.183-.055-.057-.036-.103-.088-.131-.149-.004-.008.002-.016.01-.016h.033c.056-.078.056-.183.001-.262-.055-.078-.043-.186.031-.248.057-.051.084-.126.072-.202-.001-.009.008-.016.017-.012.101.046.144.166.096.264-.01.025-.005.053.014.072.066.062.067.166,0,.228-.042.041-.059.102-.045.158h.083l.438-.622c-.004-.011-.007-.023-.007-.036,0-.055.044-.1.099-.1.055,0,.099.045.099.1,0,.012-.002.025-.006.036l.431.614c.077-.106.199-.169.33-.171.075,0,.136.056.137.132,0,.059-.036.111-.093.13-.089.035-.162.103-.205.189-.022.043-.079.052-.114.018-.036-.036-.023-.098.025-.116.026-.009.051-.03.069-.05.052-.06.117-.106.191-.135.012-.004.021-.014.021-.028,0-.016-.014-.029-.029-.029-.122,0-.241.08-.28.196-.024.069-.07.129-.128.171-.041.03-.089.051-.14.061.014.007.027.017.039.028.027.028.044.065.044.107,0,.006-.005.012-.011.012h-.761c-.006,0-.012-.005-.012-.012,0-.041.017-.079.045-.107.011-.011.024-.021.039-.028h0ZM27.459,10.77h.22c.028-.041.065-.088.102-.123.015-.014.03-.026.045-.035-.034-.016-.057-.05-.057-.09,0-.055.044-.099.099-.099.055,0,.099.044.099.099,0,.04-.023.074-.058.09.015.008.03.02.045.035.037.034.074.082.102.123h.22l-.393-.56c-.005,0-.01.001-.016.001s-.01,0-.016-.001l-.394.56Z" fill-rule="evenodd"/>
            <path d="M27.088,10.495c.058.082.061.19.008.275h.135c-.013-.064.007-.129.053-.175.057-.053.056-.142,0-.196-.026-.026-.033-.064-.019-.098.039-.081.011-.178-.067-.225.005.075-.025.149-.082.2-.064.054-.077.149-.028.218Z" fill="red" fill-rule="evenodd"/>
            <path d="M27.324,10.968c-.031-.051-.05-.111-.052-.174h-.218c.027.05.067.093.114.123.046.029.099.047.155.051Z" fill="#fed700" fill-rule="evenodd"/>
            <path d="M28.725,10.68c.028,0,.052.023.052.052,0,.022-.014.042-.035.049-.07.028-.133.072-.182.128-.022.026-.047.042-.078.056-.033.012-.041.054-.017.079.023.023.062.017.077-.013.045-.091.123-.163.217-.2.049-.017.077-.056.078-.107-.001-.065-.051-.108-.114-.109-.129.001-.249.066-.32.173-.002.003-.006.006-.01.006h-.341s-.007-.002-.009-.005c-.028-.041-.065-.09-.102-.124-.026-.024-.051-.041-.071-.042-.02,0-.046.018-.071.042-.037.034-.074.083-.102.124-.002.003-.006.006-.01.006h-.39c.003.087.04.166.097.224.061.06.144.098.236.098h.481c.073,0,.14-.024.195-.064.054-.039.096-.094.119-.158.046-.128.167-.213.303-.213Z" fill="#fed700" fill-rule="evenodd"/>
            <path d="M27.868,10.446c.042,0,.076.034.076.076,0,.042-.034.077-.076.077s-.076-.034-.076-.077c0-.042.034-.076.076-.076Z" fill="#fed700" fill-rule="evenodd"/>
            <path d="M27.868,10.036c.042,0,.076.034.076.077s-.034.076-.076.076-.076-.034-.076-.076.034-.077.076-.077Z" fill="#fed700" fill-rule="evenodd"/>
            <path d="M28.305,10.77h.065l-.421-.599c-.011.015-.025.026-.042.033l.398.566Z" fill="#fed700" fill-rule="evenodd"/>
            <path d="M27.366,10.77h.065l.399-.566c-.017-.007-.031-.018-.042-.033l-.422.599Z" fill="#fed700" fill-rule="evenodd"/>
            <path d="M28.109,11.138h-.481c-.035,0-.067.015-.091.038-.021.021-.035.049-.037.079h.737c-.003-.031-.016-.059-.037-.079-.024-.024-.057-.038-.091-.038Z" fill="#fed700" fill-rule="evenodd"/>
          </g>
          <path d="M25.368,6.449c.028,0,.055-.01.076-.028.019-.017.044-.027.07-.027.033,0,.061.014.081.039.022.029.054.05.089.059.008.002.011.012.005.019-.022.023-.035.054-.035.086,0,.034.014.065.036.087s.053.036.087.036c.011,0,.021-.001.031-.004.007-.002.014.002.015.01.003.05-.013.093-.052.126.012.039.036.072.068.096.044.033.086.041.139.039.006,0,.012.005.012.011.001.059.049.106.108.106.06,0,.108-.048.108-.108,0-.008,0-.016-.002-.023-.001-.007.002-.014.01-.015.028-.002.053-.015.071-.035.018-.019.029-.045.029-.073,0-.03-.012-.057-.032-.077-.02-.02-.046-.031-.076-.031-.007,0-.012-.005-.012-.012v-.27c0-.092-.037-.175-.097-.236-.06-.06-.143-.097-.235-.097-.029,0-.058.004-.086.011h-.003c-.006,0-.012-.004-.012-.011-.003-.064-.056-.114-.12-.114-.065,0-.119.053-.12.118,0,.006-.004.01-.009.012-.036.007-.073,0-.104-.018-.019-.012-.035-.028-.047-.047-.014.01-.027.023-.035.038-.015.026-.02.056-.014.086.002.008-.006.016-.015.013-.012-.004-.025-.006-.038-.006-.066,0-.12.053-.12.12,0,.135.137.12.228.12h0ZM25.719,6.13c0,.006-.004.012-.011.012-.006,0-.012-.005-.012-.011,0-.014-.007-.027-.016-.036-.01-.009-.023-.015-.037-.015-.006,0-.012-.005-.012-.011,0-.006.005-.012.012-.012.02,0,.039.008.053.021.014.013.023.031.024.052h0ZM25.26,6.252c.006,0,.011.005.011.012,0,.006-.005.012-.011.012-.015,0-.028.006-.038.016-.01.01-.016.023-.016.038,0,.006-.005.012-.011.012-.006,0-.012-.005-.012-.012,0-.021.008-.04.022-.054s.033-.023.054-.023h0ZM26.013,6.621c.006.003.007.011.004.016-.003.005-.01.007-.016.004-.021-.013-.039-.032-.052-.053-.019-.035-.024-.076-.012-.114-.059,0-.115-.021-.158-.064-.039-.039-.063-.093-.063-.153,0-.007.005-.012.011-.012.007,0,.012.005.012.012,0,.054.021.102.057.137.045.045.096.059.156.056.009-.001.016.008.012.016-.016.035-.014.077.005.11.01.019.025.034.043.045h0ZM26.272,6.85c0,.006-.005.012-.012.012-.006,0-.011-.005-.011-.012,0-.012-.005-.022-.012-.03-.008-.007-.018-.012-.03-.012-.007,0-.012-.005-.012-.011,0-.007.005-.012.012-.012.018,0,.034.007.046.019.012.012.019.028.019.046Z" fill="#630" fill-rule="evenodd"/>
          <path d="M26.099,7.127c-.067,0-.122-.051-.13-.117-.053.001-.1-.011-.143-.044-.007-.006-.014-.011-.02-.018-.012.019-.018.041-.018.064,0,.054.035.102.086.118.005.001.009.006.009.011,0,.06.048.108.108.108.059,0,.108-.048.108-.108,0-.005,0-.01,0-.015Z" fill="#630" fill-rule="evenodd"/>
          <path d="M24.791,14.049c-.018.009-.038.017-.058.022-.023.006-.046.009-.071.009-.022,0-.04.018-.04.04s.018.041.04.041h.062l.141-.038-.074-.074Z" fill="#fc9" fill-rule="evenodd"/>
          <path d="M25.273,13.93l-.199.115s-.01.002-.014-.002l-.118-.118-.19.051.144.144c.006.006.004.017-.005.019l-.162.044c-.026.006-.044.03-.044.056,0,.016.006.031.017.041.018.018.044.022.067.011l.555-.321c-.015-.016-.032-.029-.05-.041Z" fill="#fed700" fill-rule="evenodd"/>
          <path d="M24.967,13.919l.102.102.181-.104c-.038-.019-.081-.03-.126-.03-.024,0-.047.003-.071.009l-.086.023Z" fill="#fc9" fill-rule="evenodd"/>
          <path d="M26.025,14.145c-.004-.006-.002-.013.004-.016.059-.032.113-.072.16-.119.043-.043.079-.092.109-.145h-.037c-.016,0-.031.006-.042.017l-.093.093c-.032.031-.084.031-.116,0l-.062-.062c-.008-.007-.02-.007-.028,0-.008.008-.008.021,0,.029l.01.01c.012.013.019.03.019.048,0,.03-.019.056-.046.066l.111.193c.045.078.145.105.222.06.038-.022.078-.071.114-.126.047-.073.085-.159.103-.215.012-.041-.004-.086-.036-.113h-.08l.055.095c.015.027.006.061-.021.076-.01.006-.022.008-.034.007l.003.005c.02.036.008.081-.028.102-.02.011-.042.013-.062.006.009.041-.009.084-.046.105-.048.025-.105.012-.133-.036l-.047-.081Z" fill="#fed700" fill-rule="evenodd"/>
          <path d="M26.173,14.058c-.037.033-.078.062-.122.086l.042.072c.021.035.066.047.101.026.035-.021.047-.066.027-.101l-.048-.083Z" fill="#fc9" fill-rule="evenodd"/>
          <path d="M26.264,13.96c-.018.023-.037.045-.057.066-.005.005-.011.01-.016.016l.04.07c.015.025.047.033.072.018.024-.015.032-.046.019-.07l-.057-.099Z" fill="#fc9" fill-rule="evenodd"/>
          <path d="M26.318,13.878c-.012.022-.025.042-.04.063l.037.064c.009.016.029.021.045.012.016-.009.021-.029.012-.045l-.054-.094Z" fill="#fc9" fill-rule="evenodd"/>
          <path d="M25.134,13.53c0,.007-.004.012-.01.013-.006,0-.012-.004-.012-.01-.023-.219-.041-.44-.054-.662-.013-.22-.021-.442-.024-.666-.044-.013-.086-.035-.123-.063-.034.039-.073.072-.118.099-.037.022-.077.039-.119.051v.982s0,.004-.002.006l-.098.169c-.032.055-.029.124.008.176.024.035.024.086.004.123-.008.014-.017.029-.025.043-.055.095.035.205.137.177l.349-.093c.025-.007.051-.01.076-.01.101,0,.196.051.252.136.01.015.024.025.043.025.014,0,.026-.006.035-.015l.075-.075c.008-.008.012-.018.012-.029,0-.016-.008-.028-.021-.036l-.048-.028c-.021-.012-.028-.038-.016-.059.012-.021.039-.028.059-.016l.139.08c.012.007.02.019.021.033.001.014-.004.028-.014.037-.015.015-.023.034-.023.054,0,.042.034.076.076.076h.166c.026,0,.047-.021.047-.047,0-.012-.004-.023-.013-.032l-.009-.009c-.016-.017-.017-.044,0-.061.016-.017.043-.018.06-.002l.063.062c.023.023.06.023.083,0,.013-.014.084-.087.094-.094.016-.015.036-.023.058-.023h.286c.021,0,.037-.017.037-.037v-.026c0-.063-.025-.12-.067-.161-.041-.041-.098-.067-.161-.067-.041,0-.081.011-.117.032-.095.053-.199.122-.295.17-.023.013-.049.02-.075.02-.085,0-.154-.069-.154-.155v-.098c0-.007.005-.012.012-.012.006,0,.012.005.012.012v.098c0,.073.059.132.131.132.023,0,.044-.006.064-.017l.295-.17c.038-.023.083-.035.128-.035.069,0,.132.028.177.073s.073.108.073.177v.015h.204c.017,0,.032-.007.042-.018.016-.016.021-.038.015-.059l-.09-.338s0-.005,0-.008c.025-.057.038-.118.038-.18,0-.042-.006-.083-.017-.123-.052-.195-.104-.391-.157-.586-.007-.032-.02-.062-.036-.09l-.139-.242c-.038-.017-.074-.039-.107-.066-.064.043-.139.066-.216.066-.07,0-.139-.019-.199-.055-.073.081-.176.126-.285.126-.095,0-.187-.035-.258-.099-.071.064-.163.099-.258.099-.03,0-.06-.004-.089-.011.003.221.011.44.024.659.013.222.031.442.054.66h0ZM25.459,13.903c0-.006.005-.012.012-.012.006,0,.011.005.011.012,0,.032-.026.058-.058.058-.026,0-.049-.018-.056-.043l-.055-.207c-.013-.042-.052-.072-.096-.072-.018,0-.037.005-.052.015l-.224.129c-.027.017-.06.026-.092.026-.048,0-.092-.02-.124-.051-.032-.032-.051-.075-.051-.124,0-.006.005-.011.011-.011.006,0,.012.005.012.011,0,.042.017.08.044.108s.065.044.108.044c.028,0,.056-.008.08-.023.059-.028.169-.093.224-.13.019-.012.042-.018.064-.018.054,0,.102.036.118.088.02.064.039.142.056.208.004.015.017.026.033.026.019,0,.035-.016.035-.035h0ZM26.56,13.452c.003.005.002.012-.004.016-.006.003-.013.002-.016-.004-.108-.179-.202-.367-.282-.562-.079-.193-.143-.392-.192-.598-.001-.006.002-.012.009-.014.006-.001.012.002.014.008.049.205.113.404.191.595.079.194.173.381.281.559h0ZM24.973,13.08c0-.006.006-.011.012-.011.007,0,.011.006.011.012-.004.095-.01.189-.018.282-.008.093-.017.185-.028.277,0,.006-.007.011-.013.01-.006,0-.011-.006-.01-.013.011-.092.02-.184.028-.276.008-.094.013-.187.018-.281Z" fill="#fff" fill-rule="evenodd"/>
          <path d="M23.939,10.441v-.037c0-.035-.006-.068-.016-.099-.011-.032-.027-.061-.047-.088-.003-.004-.007-.008-.009-.012v.153c0,.042.031.078.073.083Z" fill="#fc9" fill-rule="evenodd"/>
          <path d="M24.805,8.431l-.049.304s-.002.006-.004.008c-.205.181-.378.396-.509.636-.072.134-.158.26-.256.377-.087.105-.121.234-.121.369,0,.028.009.056.027.077.022.028.039.061.051.095.011.033.018.069.018.106v.083c.041-.006.073-.041.073-.083v-.28c0-.006.005-.011.011-.011.006,0,.012.005.012.011v.198c.041-.006.072-.041.072-.083v-.043c0-.027.01-.051.027-.071.015-.016.023-.036.023-.057v-.079c0-.049-.015-.097-.044-.136-.008-.01-.012-.022-.012-.035,0-.014.005-.029.015-.038.1-.097.209-.185.326-.262.207-.136.389-.308.538-.506v-.434c-.086-.018-.157-.073-.198-.145Z" fill="#fc9" fill-rule="evenodd"/>
          <path d="M25.059,7.693c-.095.06-.16.157-.178.268l-.017.11c.006-.005.012-.011.018-.016.043-.034.079-.076.106-.123.026-.046.044-.098.052-.153.004-.03.01-.059.02-.086Z" fill="#fff" fill-rule="evenodd"/>
          <path d="M25.949,7.387c-.021-.005-.04-.016-.055-.031-.021-.021-.034-.049-.034-.081v-.125c-.047-.017-.081-.057-.092-.105-.005.008-.01.015-.016.022-.045.057-.096.1-.171.1-.023,0-.046-.005-.068-.013-.006-.003-.009-.009-.006-.015.003-.006.009-.009.015-.006.019.007.039.011.059.011.067,0,.112-.039.152-.091.011-.015.022-.03.031-.046,0-.027.009-.053.025-.076-.019-.023-.033-.051-.042-.08-.001-.005,0-.009.004-.012.031-.023.05-.059.05-.098-.008.001-.016.002-.024.002-.041,0-.077-.016-.103-.043-.027-.027-.043-.063-.043-.104,0-.032.01-.062.029-.088-.033-.012-.062-.034-.084-.062-.014-.019-.04-.031-.063-.031-.02,0-.039.008-.054.021-.025.021-.059.033-.092.033h-.079s-.002.007-.003.01c-.001.006-.002.012-.002.017v.09c0,.037-.011.071-.029.1-.02.03-.047.054-.08.069-.015.007-.025.022-.025.038,0,.024.019.043.043.043h.096c.006,0,.012.005.012.012,0,.007-.005.012-.012.012h-.067c.001.021-.004.041-.015.059.007.01.017.016.029.019h.053c.006,0,.012.005.012.012,0,.006-.005.011-.012.011h-.049l-.029.029c.011.023.008.05-.007.07-.006.007-.009.016-.009.025,0,.013.006.025.017.033.032.025.069.045.108.058.047.016.09.02.139.019.006,0,.011.003.012.009.014.066.006.136-.022.198.003.042.021.08.05.107.029.028.069.045.112.045.029,0,.057-.008.082-.022l.255-.147h0ZM25.475,6.66c-.024.002-.046.007-.068.014-.022.008-.043.019-.062.032-.005.004-.012.002-.016-.003-.004-.005-.003-.012.003-.016.003-.002.005-.004.008-.005-.004-.009-.006-.02-.006-.03,0-.006,0-.011.002-.017-.004-.002-.008-.004-.013-.006-.006-.003-.008-.01-.005-.016.003-.006.01-.008.015-.005.018.01.038.017.059.022.02.005.041.008.063.008h.019c.006-.001.012.004.012.01,0,.006-.004.012-.011.012Z" fill="#fc9" fill-rule="evenodd"/>
          <path d="M25.885,10.8v-.091c0-.029-.012-.056-.031-.075-.017-.016-.039-.028-.063-.03v.073c0,.02.008.039.023.052l.071.071Z" fill="#fc9" fill-rule="evenodd"/>
          <path d="M26.164,10.651l-.045-.045c-.012-.012-.029-.019-.046-.019s-.033.007-.046.019l-.088.088c-.02.02-.032.046-.032.075v.054l.008.009c.009.009.022.014.034.014s.024-.005.033-.014l.18-.18Z" fill="#fc9" fill-rule="evenodd"/>
          <path d="M25.803,10.335c.072-.118.137-.24.196-.366.059-.126.112-.256.158-.39h0c.003-.01.007-.019.01-.029.006-.073-.003-.147-.027-.216-.019-.053-.009-.104.023-.149.023-.034.035-.073.035-.114,0-.037-.01-.072-.029-.104-.009-.015-.014-.03-.014-.048,0-.026.011-.048.03-.065.043-.039.055-.098.035-.152-.027-.074-.051-.15-.071-.227-.069.082-.17.13-.277.13-.099,0-.19-.041-.255-.106-.065-.066-.106-.156-.106-.255,0-.028.003-.056.01-.084.002-.006.008-.01.014-.008.006.001.01.008.008.014-.006.026-.009.052-.009.079,0,.093.038.178.099.239.061.061.146.099.239.099.107,0,.206-.05.27-.134l-.005-.02c-.01-.04-.016-.076-.016-.117,0-.103.035-.198.094-.274.06-.078.145-.135.242-.161.006-.002.012.002.014.008.008.022.015.044.022.067.013-.022.019-.046.019-.072,0-.037-.014-.072-.04-.099l-.33-.33c-.037-.037-.077-.06-.131-.06h-.022l-.284.164c-.028.017-.06.025-.094.025-.05,0-.095-.02-.128-.051-.031-.029-.051-.069-.056-.113-.094.012-.177.055-.242.117-.067.065-.113.153-.125.251-.008.058-.027.113-.054.161-.029.05-.067.094-.111.13-.066.052-.105.131-.105.215,0,.132.095.245.225.268.006,0,.01.006.01.011v.507c0,.175-.033.347-.098.51-.034.09-.065.181-.092.274-.027.092-.05.185-.069.28-.003.015.003.03.015.04.012.009.027.011.041.004.045-.024.087-.053.125-.086.005-.004.012-.004.016.001.004.005.004.012-.001.016-.04.035-.083.065-.13.09-.003.001-.005.002-.008.003-.046.156-.077.316-.093.477l-.166,1.53c-.002.019.005.037.019.05.014.013.032.018.051.014.008-.002.016-.003.024-.005h0s0,0,0,0c.043-.011.084-.028.121-.051.045-.027.086-.062.119-.103.004-.005.011-.006.016-.002.065.053.145.082.229.082.094,0,.182-.036.25-.1.004-.004.011-.004.016,0,.068.064.156.1.25.1.106,0,.205-.046.275-.126.004-.004.01-.005.015-.002.058.037.125.057.195.057.075,0,.148-.023.209-.066.004-.003.01-.003.015,0,.042.036.092.064.144.083.025.008.051.002.069-.017.019-.018.026-.044.019-.069l-.395-1.474c-.01-.04-.035-.074-.069-.097v.106l.05.05s.004.012,0,.016l-.188.188c-.014.014-.032.021-.05.021-.018,0-.036-.007-.05-.021l-.102-.101c-.02-.018-.031-.043-.031-.069v-.231c0-.044.012-.075.035-.112h0ZM25.662,9.187s.004.012-.001.016c-.005.004-.012.004-.016,0-.05-.056-.09-.12-.117-.191-.026-.068-.041-.142-.041-.22,0-.006.005-.011.012-.011.006,0,.011.005.011.011,0,.075.014.146.04.212.026.068.065.131.112.184h0ZM25.778,10.201c.006,0,.012.004.012.011,0,.006-.004.012-.01.012-.016.001-.033.002-.05.002-.044,0-.088-.005-.13-.014-.043-.01-.084-.024-.123-.042-.006-.003-.008-.01-.005-.015.003-.006.01-.008.015-.005.037.018.077.031.118.041.04.009.082.014.125.014.016,0,.032,0,.048-.002h0ZM24.853,11.667c0,.006-.004.012-.011.012-.006,0-.012-.004-.012-.01-.008-.104-.012-.208-.012-.312,0-.202.014-.401.042-.595.028-.199.071-.393.126-.581.002-.006.007-.009.013-.008.068.01.137.017.207.022.069.005.139.009.208.01.006,0,.011.005.011.012,0,.006-.005.011-.012.011-.071-.002-.141-.005-.209-.011-.046-.004-.091-.008-.136-.013-.027.138-.047.277-.06.415-.013.143-.019.286-.017.43,0,.006-.005.012-.012.012-.006,0-.011-.005-.011-.011-.001-.145.004-.289.018-.432.013-.139.033-.278.06-.416-.014-.002-.027-.004-.04-.005-.054.185-.095.374-.123.569-.028.193-.042.391-.042.592,0,.104.004.207.012.31h0ZM25.436,10.522c0-.006.005-.011.011-.012.006,0,.012.005.012.011.005.287.003.569-.007.856-.007.193-.016.384-.029.575,0,.006-.006.011-.012.01-.006,0-.011-.006-.011-.012.012-.191.022-.382.029-.574.01-.286.011-.569.007-.855h0ZM25.279,8.684c.044-.079.078-.165.1-.255.001-.006.008-.01.014-.008.006.001.01.008.008.014-.023.092-.058.18-.103.261-.045.082-.101.158-.166.225-.004.005-.012.005-.016,0-.005-.004-.005-.012,0-.016.063-.066.118-.14.163-.22h0ZM25.992,9.124c.005.003.007.01.004.016-.003.006-.01.008-.015.005-.13-.073-.242-.172-.331-.29-.088-.116-.152-.251-.187-.396-.002-.006.002-.012.008-.014.006-.001.012.002.014.008.034.143.097.275.183.388.087.115.197.212.324.283h0ZM26.04,9.333c.006-.001.012.003.013.009,0,.006-.003.012-.01.013-.021.003-.042.005-.063.005-.073,0-.143-.02-.204-.059-.018-.012-.037-.017-.059-.017-.033,0-.058.013-.081.036-.05.052-.119.081-.192.081-.089,0-.171-.044-.222-.117-.004-.005-.003-.012.003-.016.005-.004.012-.002.016.003.046.067.122.107.203.107.066,0,.129-.026.176-.074.027-.028.058-.043.097-.043.025,0,.049.007.07.021.058.037.124.056.193.056.02,0,.04-.002.059-.005h0ZM26.147,7.921c-.055.06-.097.132-.123.209-.002.006-.008.009-.014.007-.006-.002-.009-.008-.007-.015.027-.081.071-.155.128-.218.056-.061.125-.111.204-.145.006-.002.012,0,.015.006.002.006,0,.012-.006.015-.075.033-.142.081-.196.14h0ZM25.329,8.345c.001-.006.007-.01.014-.009.006.001.01.007.009.014-.012.054-.038.102-.074.14-.037.039-.083.067-.136.082-.006.002-.012-.002-.014-.008-.002-.006.002-.012.008-.014.049-.013.092-.04.126-.076.034-.035.058-.08.069-.129h0ZM25.771,9.463c0-.006.005-.012.012-.012.006,0,.012.005.012.012v.189c0,.034.014.065.038.089.029.027.045.065.045.105v.18c0,.007-.005.012-.012.012-.006,0-.011-.005-.011-.012v-.18c0-.034-.014-.065-.038-.089-.029-.028-.045-.065-.045-.105v-.189h0ZM25.684,7.947c-.003.005-.01.007-.016.003-.005-.003-.007-.01-.003-.016.047-.073.104-.138.17-.194.073-.062.147-.105.235-.143.006-.002.012,0,.015.006.002.006,0,.012-.006.015-.086.037-.158.079-.23.14-.064.054-.12.118-.166.189h0ZM25.333,8.78c0-.006.005-.011.011-.011.006,0,.012.005.012.011,0,.071-.004.14-.012.208-.008.07-.021.138-.037.205-.001.006-.008.01-.014.008-.006-.001-.01-.008-.008-.014.016-.066.029-.133.037-.202.008-.068.012-.136.012-.206h0ZM25.204,7.635c.013-.019.029-.036.045-.051.005-.004.012-.004.016,0,.004.005.004.012,0,.016-.016.015-.03.031-.042.048-.018.025-.027.055-.027.086,0,.04.016.078.044.107.075.08.117.184.117.293v.09c0,.006-.005.011-.012.011-.005,0-.01-.004-.011-.009-.016-.069-.067-.139-.123-.183-.057-.043-.091-.11-.091-.181,0-.006.005-.012.012-.012.006,0,.011.005.011.012,0,.064.03.124.081.163.047.036.084.082.11.135v-.027c0-.103-.039-.202-.11-.277-.033-.033-.051-.076-.051-.123,0-.035.011-.07.031-.099h0ZM26.027,7.812s-.011.005-.016,0c-.005-.004-.005-.012,0-.016.024-.026.049-.051.076-.073.027-.022.056-.043.086-.061.005-.003.012-.002.016.004.003.005.002.012-.004.016-.029.018-.057.038-.083.06-.026.022-.051.046-.074.071h0ZM25.044,10.049c0,.006-.005.012-.011.012-.006,0-.012-.005-.012-.011-.001-.065.006-.129.021-.193.015-.059.036-.115.064-.168.017-.033.027-.07.027-.108v-.235c0-.006.005-.011.011-.011.006,0,.012.005.012.011v.235c0,.041-.01.082-.029.118-.027.051-.048.105-.062.163-.015.062-.021.123-.021.187Z" fill="#fff" fill-rule="evenodd"/>
          <path d="M25.822,10.346c-.02.033-.032.06-.032.1v.135c.031.003.059.017.079.037.02.021.034.048.037.079.005-.007.01-.014.016-.019l.087-.088c.017-.017.04-.026.062-.026.015,0,.029.004.042.011v-.107h0v-.06c0-.098.015-.17.059-.258.05-.1.104-.198.16-.295.125-.214.267-.415.389-.632-.019-.229-.051-.454-.096-.674-.045-.221-.104-.438-.175-.649-.088.026-.164.079-.219.15-.056.072-.089.162-.089.26,0,.04.006.073.015.111.023.096.052.19.086.281.045.12.099.238.163.35.002.003.002.008,0,.011-.044.084-.086.17-.124.257-.038.087-.073.175-.105.266-.046.134-.099.265-.159.393-.059.126-.125.249-.197.368Z" fill="#fc9" fill-rule="evenodd"/>
          <path d="M23.135,10.608c.057.082.061.191.008.275h.135c-.013-.063.006-.129.053-.175.057-.053.056-.142,0-.196-.026-.026-.033-.064-.019-.098.039-.081.011-.178-.067-.225.005.076-.025.149-.082.2-.064.054-.077.149-.028.218Z" fill="red" fill-rule="evenodd"/>
          <path d="M23.371,11.08c-.032-.051-.05-.11-.052-.174h-.218c.027.05.067.092.114.123.046.029.099.047.155.051Z" fill="#fed700" fill-rule="evenodd"/>
          <path d="M23.916,10.558c.042,0,.076.034.076.076s-.034.077-.076.077-.076-.034-.076-.077.034-.076.076-.076Z" fill="#fed700" fill-rule="evenodd"/>
          <path d="M24.156,11.25h-.48c-.035,0-.067.014-.091.038-.021.021-.034.048-.037.079h.736c-.003-.031-.016-.059-.037-.079-.024-.024-.057-.038-.091-.038Z" fill="#fed700" fill-rule="evenodd"/>
          <path d="M24.678,10.955c-.026.02-.05.042-.071.066-.022.026-.047.043-.078.056-.033.012-.041.054-.017.078.023.023.062.017.077-.012.021-.042.048-.079.081-.112l.008-.077Z" fill="#fed700" fill-rule="evenodd"/>
          <path d="M24.702,10.733c-.102.019-.194.078-.252.167-.002.003-.006.006-.01.006h-.341s-.007-.002-.009-.005c-.028-.041-.066-.09-.102-.124-.026-.024-.051-.041-.071-.042-.02,0-.046.018-.071.042-.037.034-.074.083-.102.124-.002.003-.006.006-.01.006h-.39c.003.087.04.166.098.224.06.06.144.098.235.098h.48c.073,0,.14-.024.195-.064.054-.039.096-.094.119-.158.037-.103.122-.178.225-.204l.007-.069Z" fill="#fed700" fill-rule="evenodd"/>
          <path d="M24.048,10.449l.305.434h.065l-.36-.512v.033c0,.016-.004.031-.01.045Z" fill="#fed700" fill-rule="evenodd"/>
          <polygon points="23.844 10.271 23.413 10.882 23.478 10.882 23.844 10.363 23.844 10.358 23.844 10.271" fill="#fed700" fill-rule="evenodd"/>
          <path d="M25.394,6.654s-.005-.001-.008-.002c-.01-.003-.02-.006-.03-.009,0,.003,0,.005,0,.008,0,.006.001.012.003.019.011-.006.023-.011.035-.016Z" fill="#fff" fill-rule="evenodd"/>
        </g>
      </g>
    </g>
  </g>
</svg>