<svg xmlns="http://www.w3.org/2000/svg" id="Layer_2" data-name="Layer 2" viewBox="0 0 33.945 22.63">
  <defs><clipPath id="circleClip"><circle cx="16.9725" cy="11.315" r="11.315" /></clipPath></defs><g clip-path="url(#circleClip)"><g id="_&#209;&#235;&#238;&#233;_1" data-name="&#209;&#235;&#238;&#233; 1">
    <g>
      <rect width="33.945" height="22.63" fill="#007c29" />
      <g>
        <rect x="29.702" y="8.486" width="4.243" height="14.144" fill="#f60" />
        <rect x="25.459" y="8.486" width="4.243" height="14.144" />
        <rect x="21.216" y="8.486" width="4.243" height="14.144" fill="red" />
      </g>
      <g>
        <path d="M29.541,4.898c.019.011.038.021.058.031.047.021.146.077.129.141-.015.056-.105.061-.15.059-.188-.002-.373-.047-.54-.133.056.047.114.091.175.131.031.019.074.056.063.097-.007.028-.037.045-.08.051-.061.008-.135-.008-.192-.033-.094-.038-.184-.084-.27-.137.012.012.023.023.036.034.015.013.028.032.022.053-.013.049-.094.038-.131.028-.083-.024-.162-.062-.232-.112.04.054.093.101.151.136.021.013.046.035.038.063-.008.029-.044.037-.07.036-.064-.003-.128-.016-.188-.04.026.07.067.135.119.189.018.018.034.047.02.072-.015.025-.048.024-.072.018-.055-.014-.108-.035-.155-.063v.065c0,.019.015.034.034.034h.052c.051,0,.109.02.136.067.027.014.047.036.059.062.018.039.017.083-.003.12-.005.01-.017.014-.027.009-.005-.003-.008-.007-.01-.012-.009-.025-.029-.045-.054-.055-.006.004-.011.007-.017.01.012.015.021.031.028.048.013.034.014.072,0,.105.005.015.007.03.007.045,0,.04-.016.077-.043.103-.036.036-.087.051-.137.039-.011-.003-.017-.013-.015-.024.001-.005.004-.009.008-.012.023-.016.038-.04.044-.068-.032,0-.063-.009-.091-.025-.038-.022-.071-.06-.083-.103-.004-.015-.022-.047-.042-.042-.02.006-.019.042-.015.057.005.023.009.044.009.068,0,.046-.012.089-.032.122-.019.031-.044.054-.074.064-.006.042.01.081.044.105.009.006.011.019.005.028-.003.004-.007.007-.012.008-.049.011-.101-.003-.137-.039-.027-.027-.043-.063-.043-.104,0-.015.002-.03.007-.045-.03-.039-.044-.091-.044-.14v-.005c-.038.022-.082.035-.127.036.002.033.019.062.046.08.009.006.011.019.005.027-.003.004-.007.007-.012.008-.048.011-.098-.002-.134-.037-.006.02-.014.039-.024.055-.015.026-.035.046-.058.06-.001.036.016.071.046.092.009.006.011.019.005.028-.003.004-.007.007-.012.008-.05.012-.103-.003-.139-.041-.024-.025-.039-.059-.041-.097-.033-.026-.054-.065-.066-.104-.002.003-.004.007-.005.01-.021.036-.048.065-.077.086-.026.018-.054.03-.081.034-.004.031.004.061.024.085.007.008.006.021-.002.028-.004.003-.009.005-.015.005-.014,0-.026-.003-.04-.007-.073-.024-.115-.102-.095-.176-.014-.027-.02-.06-.017-.095.001-.015.004-.031.008-.047-.019.011-.041.02-.063.025-.03.008-.06.011-.088.009-.025-.002-.05-.007-.071-.016-.03.016-.05.05-.053.084,0,.011-.01.019-.022.018-.006,0-.01-.003-.014-.007-.03-.033-.044-.077-.037-.122.004-.029.018-.056.038-.078-.004-.038.01-.077.038-.11.03-.034.074-.063.128-.077.028-.007.058-.011.087-.009.079,0,.15-.032.203-.083.04-.039.069-.09.08-.147-.005.005-.01.009-.016.014-.016.013-.037.026-.058.014-.027-.016-.02-.054-.01-.078.017-.046.033-.092.045-.14-.036.04-.079.074-.127.099-.024.012-.057.024-.079.001-.019-.02-.013-.05-.002-.072.059-.13.1-.268.121-.41l-.02.023c-.015.016-.038.031-.06.018-.018-.011-.02-.032-.016-.051.003-.017.006-.034.009-.051-.079.022-.16.039-.242.051-.09.013-.181.02-.273.02-.049,0-.138-.012-.149-.072-.007-.039.025-.071.054-.09.074-.049.145-.103.212-.162-.061.029-.123.054-.187.077-.136.047-.279.08-.426.096-.041.005-.125.003-.135-.05-.005-.026.013-.048.033-.062.051-.037.101-.075.149-.117-.128.049-.255.084-.39.106-.041.007-.13.008-.14-.046-.006-.035.028-.058.054-.073.033-.018.066-.038.099-.058-.109.027-.223.045-.339.052-.038.003-.106-.002-.114-.048-.005-.025.014-.048.034-.061.027-.016.053-.033.079-.051-.19.056-.394.061-.586.016-.03-.008-.076-.026-.076-.064,0-.03.031-.05.057-.058.078-.023.155-.053.229-.088-.124.029-.251.043-.379.043-.128,0-.257-.015-.381-.044-.03-.007-.078-.028-.078-.065,0-.038.047-.058.078-.065h0c.08-.015.158-.036.233-.062-.103.02-.208.029-.314.029-.164,0-.327-.024-.484-.071-.038-.012-.113-.05-.099-.099.008-.032.046-.041.075-.042.112-.005.222-.022.328-.05-.057.007-.115.011-.173.011-.163,0-.325-.03-.477-.088-.033-.014-.088-.048-.077-.091.011-.04.061-.042.095-.042l-.497-.195c-.113-.044-.217-.104-.309-.176-.095-.074-.177-.161-.246-.256-.022-.032-.047-.089-.009-.119.032-.023.069-.005.096.018.063.052.132.097.205.136l-.011-.008c-.095-.074-.177-.16-.246-.256-.021-.03-.045-.088-.008-.118.031-.025.079,0,.103.024.107.106.232.191.371.25-.033-.024-.065-.05-.095-.077-.11-.099-.2-.216-.268-.347-.024-.047-.051-.138.007-.172.044-.026.103.013.13.048.133.172.308.304.511.384l.207.082c-.05-.035-.097-.073-.141-.113-.131-.118-.237-.258-.317-.412-.023-.039-.041-.1-.004-.136.048-.048.134-.003.176.033.103.094.261.182.391.233l.995.391c-.081-.059-.155-.128-.22-.208-.027-.034-.062-.095-.023-.134.033-.033.084-.014.116.009.082.059.171.108.265.145l.629.247c.25.095.513.157.779.184.192.02.383.057.568.112.052-.191.163-.373.311-.505.142-.126.318-.207.509-.207.152,0,.297.059.407.164.014-.001.027-.001.04-.002.125,0,.343.05.343.214,0,.078-.054.147-.131.165-.013.003-.025-.008-.024-.021.004-.044-.015-.085-.048-.112-.045.035-.085.031-.138.031-.062,0-.119.025-.16.066-.1.1-.083.247.018.334.228-.064.464-.096.7-.096.146,0,.292.012.435.037l1.744-.445c.097-.025.19-.061.278-.109.02-.011.042-.02.066-.02.022,0,.04.008.052.024.014.017.015.041.006.066-.008.022-.023.044-.045.064-.033.031-.066.06-.102.086l1.258-.516c.035-.015.119-.045.146-.003.023.036-.021.082-.046.105-.124.124-.26.235-.407.333-.019.013-.039.026-.059.038l.093-.038c.266-.109.519-.251.751-.421.048-.034.17-.123.226-.067.059.059-.044.198-.082.244-.121.146-.263.275-.421.381l.032-.013c.097-.039.192-.084.284-.135.092-.05.181-.106.266-.167.031-.021.095-.064.129-.03.028.028.002.08-.015.108-.075.127-.17.241-.279.338-.032.028-.065.055-.099.08l.144-.059c.039-.016.134-.048.163,0,.029.045-.034.103-.064.131-.129.116-.267.224-.412.32.043-.019.152-.057.183-.003.029.051-.051.122-.086.15-.27.222-.579.399-.914.519-.204.073-.418.125-.639.154-.124.087-.262.157-.41.204-.116.037-.238.06-.364.068.018.003.034.008.046.015.022.011.036.026.036.045,0,.042-.064.057-.096.062-.077.012-.154.018-.232.018-.017,0-.034,0-.051,0,.014.003.029.005.043.007.025.002.057.012.065.039.014.052-.07.088-.109.098h0c-.08.022-.194.021-.279.012h0ZM27.51,5.409v.229c0,.015.01.028.024.033.05.012.097.034.138.064.025-.014.052-.025.079-.031.027-.006.053-.007.077-.003.082.01.154-.05.154-.133v-.091h0c-.012.019-.032.035-.055.029-.022-.006-.03-.028-.033-.047-.034-.24-.123-.462-.252-.654v.434c0,.053.006.106.018.158h0c.006.027.007.064-.02.08-.023.013-.05.002-.069-.013-.021-.017-.04-.035-.059-.054Z" fill-rule="evenodd" />
        <path d="M24.41,3.163c.115.031.238.033.354.007.006-.001.012,0,.017.004.008.007.009.02.002.028-.057.067-.125.124-.202.168-.032.018-.025.018.002.025.151.035.314.021.456-.041.072-.051.14-.109.203-.171l-.479-.188c-.103.074-.223.122-.35.138-.049.007-.051.018-.005.029Z" fill="#f60" fill-rule="evenodd" />
        <path d="M25.192,3.574c.118-.065.227-.145.324-.238-.113.023-.231.01-.336-.039-.044.038-.091.073-.139.106-.09.061-.186.113-.287.155-.004.002-.025.011-.025.016,0,.01.039.02.047.022.137.029.283.021.416-.022Z" fill="#f60" fill-rule="evenodd" />
        <path d="M25.44,3.455c-.126.101-.267.183-.417.242-.056.022-.023.034.017.041.163.029.332.015.488-.041.016-.01.031-.021.046-.032.082-.06.159-.128.228-.203-.117.039-.247.036-.362-.008Z" fill="#f60" fill-rule="evenodd" />
        <path d="M27.681,4.33c.078.066.138.151.173.247.004.01-.001.022-.012.026-.01.004-.022-.001-.026-.012-.033-.089-.088-.168-.161-.23-.096-.076-.167-.181-.202-.299-.003-.011.003-.022.013-.025.01-.003.022.003.025.013.032.11.099.208.188.279Z" fill="#fff" fill-rule="evenodd" />
        <path d="M28.691,4.339c-.088-.053-.173-.11-.256-.171-.143-.105-.277-.221-.401-.346.052.13.081.271.084.419,0,.011-.008.02-.02.02-.011,0-.02-.008-.02-.019-.003-.184-.05-.357-.13-.51-.082-.159-.201-.296-.344-.401-.056-.035-.11-.088-.148-.141-.034-.047-.062-.101-.079-.158-.003-.011.003-.022.013-.025.01-.003.021.003.025.013.016.051.039.098.069.14-.018-.085.004-.178.071-.245.048-.048.114-.078.188-.078.034,0,.068.004.099-.012-.004-.002-.009-.003-.014-.004l-.175-.047c-.011-.003-.017-.014-.014-.024.003-.011.014-.017.025-.014l.174.047c.072.016.124.077.131.15.046-.021.075-.067.075-.118,0-.137-.205-.174-.303-.174-.016,0-.029,0-.045.002-.006,0-.012-.001-.017-.006-.103-.102-.24-.159-.385-.159-.181,0-.348.077-.483.196-.143.127-.25.302-.299.486.037.011.073.023.11.036.01.004.016.015.012.025-.004.011-.015.016-.025.012-.228-.08-.466-.133-.707-.158-.27-.028-.535-.09-.789-.186l-.629-.247c-.097-.038-.19-.088-.274-.149-.013-.009-.048-.029-.064-.013-.018.018.013.066.025.081.13.157.293.273.482.347l.629.247c.018.007.021.022.008.036-.025.026-.051.051-.078.076.116.05.246.052.364.009.007-.003.015,0,.021.005.008.007.008.02,0,.028-.038.041-.079.079-.122.116.128.043.27.031.389-.033.007-.004.016-.003.022.002.008.007.01.019.003.028-.024.03-.05.058-.076.086.078.013.159.007.234-.017.01-.003.021.002.025.013s-.002.022-.013.025c-.09.029-.187.034-.28.013-.057.056-.118.108-.183.155-.107.078-.224.143-.349.193-.004.002-.02.008-.02.014,0,.009.017.015.037.019.178.037.514-.047.678-.117.19-.081.361-.198.503-.344-.002-.026-.003-.052-.003-.078,0-.011.009-.02.02-.02.011,0,.02.009.02.02,0,.133.028.262.081.379.053.118.131.224.229.312.07.062.148.113.233.152.243.114.453.288.611.502.153.208.258.455.296.723.003.021.006.016.017,0,.043-.06.073-.13.085-.203.001-.006.005-.012.011-.015.01-.005.022,0,.026.01.035.074.086.14.148.191.062.051.136.088.216.108.031.007.037.002.015-.022-.068-.07-.117-.155-.144-.248-.001-.005-.001-.01.001-.015.005-.01.017-.014.027-.009.067.033.141.051.216.054.026,0,.036-.005.012-.022-.065-.038-.122-.089-.167-.148-.045-.059-.079-.127-.099-.201-.032-.11-.082-.213-.145-.306-.065-.094-.144-.177-.234-.246-.009-.007-.01-.019-.004-.028.007-.009.019-.011.028-.004.018.014.035.028.052.042.078.071.164.136.255.192.106.066.22.121.339.163.013.004.035.012.056.015.021.003.041.005.029-.02-.006-.012-.018-.026-.033-.041-.067-.062-.13-.128-.188-.2-.057-.071-.109-.146-.155-.225-.005-.01-.002-.022.007-.027.009-.006.022-.002.027.007.036.062.076.121.119.178.072.053.148.103.227.147.072.041.192.107.271.128.027.007.063.014.093.016.024,0,.044-.001.047-.009.002-.005-.016-.019-.018-.021-.07-.052-.137-.108-.201-.167-.063-.059-.122-.121-.178-.187h0ZM27.342,2.712c-.073,0-.143-.024-.202-.067-.01-.008-.01-.024,0-.032.058-.044.128-.068.201-.068.049,0,.094.031.094.083s-.044.084-.094.084Z" fill="#f60" fill-rule="evenodd" />
        <path d="M26.526,3.779c-.037-.084-.063-.173-.075-.265-.128.126-.278.231-.443.308-.104.105-.223.196-.352.268-.037.02-.007.028.022.03.131.009.375-.07.492-.122.13-.057.249-.132.357-.22Z" fill="#f60" fill-rule="evenodd" />
        <path d="M25.137,4.127c.009-.003.019,0,.024.008.006.009.003.021-.006.027-.125.077-.259.137-.4.179-.005.002-.028.012-.028.02,0,.011.036.024.045.026.219.052.453.035.662-.048.11-.044.211-.105.3-.18-.021.001-.041.002-.059,0-.079-.006-.106-.067-.039-.105.096-.054.186-.117.268-.19-.182.067-.478.133-.647.097-.037-.008-.069-.024-.069-.058,0-.026.023-.043.045-.051.059-.023.116-.05.171-.08-.122.025-.249.026-.372.004-.031-.005-.081-.023-.081-.062,0-.027.026-.044.05-.053.012-.005.026-.01.038-.015-.09.01-.183.006-.271-.012-.031-.006-.08-.022-.08-.061,0-.029.026-.044.049-.053.051-.021.124-.053.17-.083-.111.023-.228.021-.338-.005-.02-.005-.042-.011-.048-.034-.008-.028.02-.051.042-.063.055-.032.106-.071.151-.116-.109.014-.209.01-.317-.019-.026-.007-.062-.02-.062-.052,0-.035.046-.05.075-.054.111-.014.217-.054.311-.117l-.067-.026-1.302-.511c-.156-.061-.272-.136-.402-.239-.023-.02-.092-.064-.122-.035-.021.021-.001.067.01.088.077.15.182.288.309.403.122.111.266.202.428.265l.537.211c.01.004.015.016.011.026s-.016.015-.026.011l-1.057-.415c-.209-.082-.391-.218-.528-.396-.014-.017-.054-.053-.079-.038-.033.019-.005.095.008.119.066.127.153.241.259.336.104.093.226.169.365.223l1.046.411c.01.004.015.016.011.026s-.016.015-.026.011l-1.308-.513c-.157-.062-.3-.155-.42-.274-.008-.008-.038-.03-.05-.021-.015.012.01.056.016.063.066.093.146.176.238.248.087.068.185.125.293.167l.754.296c.01.004.015.016.011.026-.004.01-.015.015-.026.011l-.943-.37c-.12-.047-.233-.113-.333-.195-.008-.006-.035-.026-.046-.018-.014.011.008.054.017.065.067.093.146.177.238.248.089.069.188.127.298.17l.584.229c.059-.003.118-.01.175-.02.091-.015.179-.038.265-.068.01-.004.021.002.025.012s-.002.021-.012.025c-.088.031-.178.054-.271.07-.091.016-.185.024-.28.024-.011,0-.056,0-.059.013-.004.015.042.04.053.044.148.057.304.085.462.085.199,0,.394-.045.572-.133h0c.009-.005.021-.001.026.008.005.009.002.021-.008.027-.115.063-.237.116-.366.154-.12.035-.247.057-.377.062-.007,0-.036.004-.039.013-.004.018.06.047.073.051.153.047.312.07.473.07.192,0,.383-.034.564-.1.01-.004.02,0,.025.009.005.01.002.022-.008.027-.077.042-.156.078-.24.107-.081.029-.166.052-.252.068-.009.002-.046.014-.046.026,0,.011.038.024.046.026.122.029.247.043.373.043.185,0,.369-.031.544-.093Z" fill="#f60" fill-rule="evenodd" />
        <path d="M27.211,5.506c.04-.036.076-.077.105-.122.032-.049.057-.104.074-.162.001-.006.005-.011.011-.013.01-.005.022,0,.026.01.038.083.095.156.166.213.004.003.018.013.024.009.007-.004.003-.03.001-.036-.013-.055-.02-.111-.02-.167v-.49c-.153-.206-.356-.373-.591-.484-.036-.016-.071-.035-.105-.055.04.057.075.118.102.183.085.204.084.359.053.57.018-.012.056-.063.071-.083.004-.005.011-.008.018-.008.011.001.019.011.018.022-.018.17-.062.335-.133.49-.002.005-.011.025-.006.029.004.005.027-.005.032-.008.07-.037.129-.093.169-.162.012-.063.021-.127.025-.192,0-.011.01-.02.021-.019.011,0,.019.01.019.021-.005.077-.015.152-.031.225-.016.074-.037.146-.063.215-.006.016-.009.025-.008.028.001.002.008-.002.021-.014Z" fill="#f60" fill-rule="evenodd" />
        <path d="M28.232,5.494c-.012-.009-.025-.018-.037-.028-.053-.044-.098-.097-.133-.156-.01.035-.023.069-.04.101v.155c0,.105-.093.186-.197.173-.02-.003-.042-.002-.065.003-.065.014-.131.06-.158.121-.015.033-.018.067.002.099.003.005.004.011.002.017-.014.039-.005.083.025.113.015.015.035.026.057.03-.022-.031-.03-.064-.027-.101.001-.011.011-.019.022-.018.052.005.109-.016.151-.047.006-.026.016-.051.03-.073.006-.009.018-.012.028-.006.009.006.012.018.006.028-.02.031-.029.07-.029.107,0,.043.012.09.042.123.005.006.006.014.003.021-.005.013-.008.027-.008.041,0,.03.012.056.031.076.015.015.035.026.058.03-.026-.035-.034-.081-.023-.124.001-.007.007-.013.015-.015.024-.005.045-.024.061-.05.016-.027.026-.063.026-.102,0-.019-.002-.04-.008-.058-.01-.039-.001-.094.043-.106.044-.012.079.032.09.069.01.034.034.062.065.08.027.016.059.023.09.019.012-.001.024.006.024.02,0,.031-.009.062-.028.087.022-.004.042-.015.057-.03.019-.019.031-.046.031-.075,0-.013-.002-.025-.007-.038-.002-.005-.002-.012,0-.017.012-.025.013-.054.003-.082-.018-.046-.061-.08-.109-.089-.011-.002-.018-.012-.016-.023.002-.011.012-.018.023-.016.029.005.057.018.08.036.011-.004.022-.01.031-.018.005-.004.012-.006.018-.004.025.007.048.021.065.041,0-.016-.002-.031-.009-.045-.009-.02-.025-.036-.045-.045-.004-.002-.008-.005-.01-.01-.017-.036-.067-.05-.103-.05h-.052c-.04,0-.074-.033-.074-.074v-.091Z" fill="#f60" fill-rule="evenodd" />
        <path d="M27.637,5.758c-.033-.023-.071-.039-.11-.048-.032-.008-.055-.039-.055-.072v-.274c-.022-.027-.04-.055-.057-.085-.017.045-.039.087-.064.127-.018.028-.038.055-.061.079-.003.086-.04.165-.098.221-.059.059-.141.095-.231.095-.026-.002-.052.001-.077.008-.045.012-.083.036-.108.064-.023.027-.034.058-.028.087.001.007,0,.014-.006.019-.018.016-.03.039-.034.062-.003.018-.001.037.005.054.015-.033.039-.057.071-.073.005-.003.012-.003.017,0,.019.009.041.014.065.016.024.001.049-.001.075-.008.043-.011.086-.035.113-.071.009-.013.019-.026.031-.037.008-.008.02-.008.028,0,.008.008.008.02,0,.028-.037.037-.063.091-.067.144-.003.03.002.057.015.079.003.005.004.011.003.018-.016.052.006.107.057.13-.011-.029-.012-.061-.004-.091.002-.008.009-.015.019-.015.024,0,.05-.011.075-.028s.048-.042.065-.073c.011-.018.019-.037.024-.056.005-.019.008-.038.007-.056,0-.011.008-.02.019-.02.011,0,.02.008.02.02,0,.01,0,.018-.001.028-.004.06.013.136.066.172.008.005.009.012.009.02,0,.03.011.057.03.077.015.016.036.028.059.031-.022-.03-.031-.068-.027-.104,0-.007.005-.013.011-.016.02-.01.038-.027.051-.05.013-.022.022-.049.027-.078-.016-.033-.018-.07-.008-.104-.002-.004-.004-.008-.006-.013-.015-.037-.045-.076-.087-.083-.011-.001-.018-.012-.017-.022.002-.011.012-.018.023-.017.029.005.055.02.076.041.003-.011.007-.023.012-.034.015-.034.041-.065.071-.089Z" fill="#f60" fill-rule="evenodd" />
        <path d="M26.774,4.114l-.008-.009c-.049-.043-.092-.091-.131-.142-.011.012-.023.025-.035.037-.051.083-.112.161-.18.23-.023.024-.003.022.025.021.122-.006.238-.055.33-.136Z" fill="#f60" fill-rule="evenodd" />
        <path d="M27.036,4.855c.015-.152-.007-.307-.066-.448-.041-.098-.098-.187-.168-.264-.1.09-.227.141-.361.147-.058.002-.104-.034-.051-.087.023-.023.045-.047.066-.071-.122.1-.256.186-.4.255-.079.038-.161.07-.245.097-.064.047-.131.09-.201.128-.008.004-.036.02-.034.031.004.022.083.015.098.013.247-.04.483-.13.695-.262.009-.006.021-.003.027.006.006.009.003.021-.007.028-.069.043-.14.082-.214.116-.072.071-.151.136-.233.195-.006.004-.02.015-.018.023.004.02.069.02.083.019.148-.015.29-.048.426-.095.139-.048.271-.113.393-.19.009-.006.022-.003.027.006.006.009.003.022-.006.028-.028.018-.057.035-.086.052-.098.1-.207.189-.325.265-.012.009-.034.028-.031.046.006.033.083.039.108.039.092,0,.182-.007.27-.019.086-.013.171-.031.253-.055Z" fill="#f60" fill-rule="evenodd" />
        <path d="M27.98,3.704c.101.018.205.021.307.012.008,0,.039-.004.042-.014.003-.01-.026-.03-.033-.035l-.037-.026c-.007-.004-.011-.012-.009-.021.002-.011.013-.018.024-.015.084.019.17.028.256.028.017,0,.088.003.092-.014.002-.01-.022-.028-.029-.033-.023-.017-.046-.035-.067-.054-.007-.005-.01-.014-.007-.022.004-.01.015-.016.026-.012.127.046.261.069.396.069.02,0,.116.004.121-.016.002-.008-.015-.022-.021-.027-.033-.026-.064-.053-.095-.083-.005-.004-.008-.011-.006-.019.002-.011.012-.018.023-.016.146.026.322.025.465-.013.032-.008.059-.021.077-.035.006-.005.023-.018.021-.027-.003-.011-.04-.013-.049-.014-.059-.006-.116-.016-.173-.031-.009-.001-.017-.01-.017-.02,0-.011.009-.02.02-.02.163,0,.324-.021.481-.064l.502-.128c.197-.05.374-.145.522-.285h0c.017-.016.029-.033.035-.049.004-.012.004-.022,0-.028-.004-.005-.012-.008-.021-.008-.016,0-.033.006-.047.014-.091.05-.187.088-.287.113l-1.748.446s-.005,0-.008,0c-.143-.024-.288-.037-.433-.037-.223,0-.445.029-.66.086.139.105.255.24.337.395Z" fill="#f60" fill-rule="evenodd" />
        <path d="M29.093,3.576c.126.059.259.106.397.139.145.035.296.055.452.058.03,0,.061-.001.091-.008.021-.005.038-.011.039-.018,0-.007-.032-.018-.038-.02-.044-.012-.088-.027-.131-.044-.042-.016-.084-.035-.124-.055-.088-.014-.174-.032-.258-.054-.01-.003-.017-.014-.014-.024.003-.011.014-.017.024-.014.101.027.206.048.312.061.104.014.21.02.318.02.006,0,.045,0,.047-.005.002-.009-.06-.038-.062-.038-.054-.021-.106-.044-.157-.071-.008-.005-.012-.015-.009-.024.003-.01.015-.016.025-.012.148.049.309.056.46.018.033-.008.257-.085.247-.121-.005-.02-.129-.011-.148-.011-.136,0-.269-.011-.399-.032-.131-.021-.258-.052-.382-.093-.097.026-.196.043-.296.053.018.002.032.003.049.011.015.007.026.019.03.033.007.027-.015.054-.036.069-.022.017-.054.032-.091.042-.129.035-.285.039-.418.023.015.013.03.026.045.037.021.016.042.041.035.069-.001.005-.004.01-.007.014Z" fill="#f60" fill-rule="evenodd" />
        <path d="M28.616,3.667c.236.166.514.254.802.254.025,0,.182.002.182-.03,0-.006-.031-.017-.037-.019-.189-.054-.365-.147-.517-.272-.036.009-.083.008-.106.007-.103,0-.207-.013-.307-.04.017.015.034.037.027.062-.005.02-.022.031-.044.037Z" fill="#f60" fill-rule="evenodd" />
        <path d="M28.365,3.815h0c.197.145.411.27.637.369.222.098.457.172.702.22.123.021.254.013.372-.027.007-.002.038-.014.038-.023,0-.016-.067-.031-.078-.033-.243-.044-.488-.116-.71-.209-.259-.109-.542-.269-.768-.44-.011,0-.021,0-.029,0-.06,0-.12-.004-.179-.013.013.014.022.033.017.052-.008.031-.048.042-.077.043-.09.008-.181.007-.271-.005.135.141.282.27.439.386.171.126.354.235.548.327.109.052.223.08.343.08.021,0,.073-.003.109-.014.016-.005.027-.011.027-.017,0-.004-.024-.015-.028-.016-.205-.071-.402-.161-.587-.269-.19-.11-.368-.238-.533-.381-.008-.007-.009-.019-.002-.028.007-.008.02-.009.028-.002Z" fill="#f60" fill-rule="evenodd" />
        <path d="M29.739,4.537c.092.019.188.028.285.028.155,0,.305-.024.445-.069.119-.038.232-.091.335-.156-.102.01-.205.015-.31.015-.115,0-.23-.006-.344-.019.003.006.004.012.004.018,0,.034-.039.052-.067.061-.122.041-.269.052-.395.027-.246-.048-.482-.124-.705-.222-.079-.035-.157-.073-.232-.113.045.029.091.057.137.084.197.114.587.294.847.345Z" fill="#f60" fill-rule="evenodd" />
        <path d="M30.486,3.31l.716-.293c.162-.066.319-.149.465-.247.144-.096.278-.206.4-.328.007-.006.046-.045.04-.056-.01-.013-.085.014-.096.019l-1.553.636c-.051.021-.105.038-.158.051l-.446.114c.103.031.208.055.315.073.103.016.209.027.317.03Z" fill="#f60" fill-rule="evenodd" />
        <path d="M32.342,3.559c-.069.032-.139.06-.21.087-.154.088-.315.164-.483.229-.398.153-.829.237-1.281.237-.123,0-.244-.007-.364-.019-.122-.012-.242-.031-.36-.055-.011-.002-.018-.013-.016-.023.002-.011.013-.018.023-.016.116.024.235.042.355.054.118.012.238.018.361.018.446,0,.874-.083,1.266-.234.408-.157.78-.387,1.099-.675.012-.01.067-.062.057-.08-.014-.019-.098.01-.114.017l-1.421.582c-.01.004-.022,0-.026-.011-.004-.01,0-.022.011-.026l.988-.405c.132-.056.255-.134.362-.228.107-.094.199-.205.272-.328.004-.008.029-.052.021-.059-.01-.011-.069.027-.078.034-.086.062-.176.119-.27.17-.093.051-.189.097-.288.137l-1.633.669c-.01.004-.021,0-.026-.011-.004-.01,0-.022.011-.026l1.257-.515c.285-.12.537-.309.734-.547.021-.025.118-.157.084-.19-.031-.032-.148.051-.175.071-.235.172-.49.315-.759.426l-1.147.47c.055-.003.145-.007.158.042.022.082-.22.157-.276.17-.097.024-.198.031-.297.021.027.012.079.041.069.079-.01.036-.057.033-.085.035-.082,0-.164-.004-.245-.012.042.016.085.031.129.043.028.007.069.025.068.06-.002.03-.033.047-.07.056-.032.008-.067.01-.1.009-.158-.003-.312-.023-.461-.059-.093-.022-.183-.051-.271-.085.113.072.236.128.366.165.027.008.066.024.066.057,0,.072-.173.069-.222.07-.161,0-.315-.026-.468-.078.126.073.256.138.391.194.222.093.456.162.699.206.15.022.302.034.454.034.359,0,.703-.062,1.022-.177.331-.118.635-.292.902-.511.015-.011.091-.077.078-.1-.016-.028-.135.02-.155.03Z" fill="#f60" fill-rule="evenodd" />
        <path d="M29.285,4.58c.185.081.384.122.587.122.075,0,.151-.006.226-.017.008-.001.062-.013.062-.023,0-.011-.063-.023-.072-.024-.052-.009-.103-.021-.153-.035-.069-.004-.137-.013-.204-.026-.07-.014-.139-.033-.205-.056-.005.022-.026.037-.054.045-.041.013-.098.017-.122.017-.022,0-.044-.001-.065-.003Z" fill="#f60" fill-rule="evenodd" />
        <path d="M28.367,5.006c.086.083.19.144.305.177.017.005.078.014.082,0-.002-.006-.006-.01-.011-.014-.047-.042-.09-.09-.125-.143-.004-.007-.005-.016,0-.023.006-.009.019-.011.028-.004.116.084.241.154.374.208.044.022.124.036.172.03.026-.003.044-.011.047-.022.005-.02-.033-.043-.046-.053-.118-.077-.227-.168-.324-.27-.007-.007-.007-.018-.001-.026.006-.009.019-.011.027-.004.199.147.438.226.685.229.025,0,.103,0,.111-.03.009-.036-.085-.084-.11-.096-.11-.056-.214-.123-.309-.199-.096-.077-.184-.163-.262-.257-.006-.003-.013-.006-.019-.008-.063-.03-.125-.062-.186-.096.03.032.061.063.094.093.063.059.128.113.197.164.022.016.041.039.032.068-.011.027-.046.035-.086.034-.035-.001-.074-.009-.102-.017-.089-.024-.202-.087-.28-.132-.039-.022-.077-.045-.115-.069.039.044.081.086.125.125.019.018.033.036.042.053.028.055-.014.085-.069.077-.025-.003-.05-.012-.063-.016-.122-.043-.238-.099-.347-.167-.021-.013-.044-.028-.065-.042.007.01.014.02.022.03.066.096.117.203.15.317.008.029.018.057.03.084Z" fill="#f60" fill-rule="evenodd" />
        <path d="M29.089,4.539c.063.07.133.135.206.194.05.04.101.077.155.111.101.02.258.03.359.003.013-.003.086-.031.081-.05-.002-.006-.025-.009-.03-.01-.044-.006-.087-.014-.13-.026-.042-.012-.083-.026-.123-.042-.161-.028-.316-.083-.46-.162-.02-.005-.04-.011-.059-.018Z" fill="#f60" fill-rule="evenodd" />
        <path d="M27.342,2.672c.027,0,.054-.013.054-.044,0-.03-.027-.044-.054-.044-.055,0-.108.015-.154.044.046.029.099.044.154.044Z" fill="#f60" fill-rule="evenodd" />
        <path d="M25.803,4.151c-.094.088-.203.159-.322.211-.061.048-.124.092-.19.133-.004.003-.017.014-.016.02.003.016.056.017.071.016.246-.016.48-.079.692-.181.217-.103.411-.247.573-.421-.025-.037-.048-.075-.067-.114-.108.088-.228.162-.358.219-.091.04-.249.094-.382.116Z" fill="#f60" fill-rule="evenodd" />
      </g>
    </g>
  </g>
</g></svg>