<svg xmlns="http://www.w3.org/2000/svg" id="Layer_2" data-name="Layer 2" viewBox="0 0 33.945 22.63">
  <defs><clipPath id="circleClip"><circle cx="16.9725" cy="11.315" r="11.315" /></clipPath></defs><g clip-path="url(#circleClip)"><g id="_&#209;&#235;&#238;&#233;_1" data-name="&#209;&#235;&#238;&#233; 1">
    <g>
      <g>
        <rect width="33.945" height="22.63" fill="#fff" />
        <polygon points="28.88 0 33.945 0 33.945 3.377 5.065 22.63 0 22.63 0 19.253 28.88 0" fill="red" fill-rule="evenodd" />
        <polygon points="33.945 4.558 33.945 22.63 6.837 22.63 33.945 4.558" fill="#007c29" fill-rule="evenodd" />
        <polygon points="0 0 27.108 0 0 18.072 0 0" fill="#039" fill-rule="evenodd" />
      </g>
      <g>
        <path d="M6.825,4.276c1.046,0,1.895.848,1.895,1.894s-.848,1.895-1.895,1.895-1.894-.848-1.894-1.895.848-1.894,1.894-1.894Z" fill="#fed700" fill-rule="evenodd" />
        <g>
          <path d="M9,5.587l1.588.583-1.588.583c.05-.186.076-.381.076-.583s-.027-.397-.076-.583Z" fill="#fed700" fill-rule="evenodd" />
          <path d="M8.417,4.578c-.275-.275-.622-.48-1.009-.584l1.298-1.084-.289,1.667Z" fill="#fed700" fill-rule="evenodd" />
          <path d="M8.417,4.578l1.667-.29-1.084,1.299c-.104-.387-.308-.734-.583-1.009Z" fill="#fed700" fill-rule="evenodd" />
          <path d="M6.242,3.995l.583-1.588.583,1.588c-.186-.05-.381-.076-.583-.076s-.397.027-.583.076Z" fill="#fed700" fill-rule="evenodd" />
          <path d="M4.649,5.587l-1.588.583,1.588.583c-.05-.186-.076-.381-.076-.583s.027-.397.076-.583Z" fill="#fed700" fill-rule="evenodd" />
          <path d="M5.232,4.578c.275-.275.622-.48,1.009-.584l-1.298-1.084.289,1.667Z" fill="#fed700" fill-rule="evenodd" />
          <path d="M5.232,4.578l-1.667-.29,1.084,1.299c.104-.387.308-.734.583-1.009Z" fill="#fed700" fill-rule="evenodd" />
          <path d="M8.417,7.762c-.275.275-.622.48-1.009.583l1.298,1.084-.289-1.667Z" fill="#fed700" fill-rule="evenodd" />
          <path d="M8.417,7.762l1.667.29-1.084-1.299c-.104.387-.308.734-.583,1.009Z" fill="#fed700" fill-rule="evenodd" />
          <path d="M6.242,8.346l.583,1.588.583-1.588c-.186.05-.381.076-.583.076s-.397-.027-.583-.076Z" fill="#fed700" fill-rule="evenodd" />
          <path d="M5.232,7.762c.275.275.622.48,1.009.583l-1.298,1.084.289-1.667Z" fill="#fed700" fill-rule="evenodd" />
          <path d="M5.232,7.762l-1.667.29,1.084-1.299c.104.387.308.734.583,1.009Z" fill="#fed700" fill-rule="evenodd" />
        </g>
      </g>
    </g>
  </g>
</g></svg>