<svg xmlns="http://www.w3.org/2000/svg" id="Layer_2" data-name="Layer 2" viewBox="0 0 33.945 22.631">
  <defs><clipPath id="circleClip"><circle cx="16.9725" cy="11.3155" r="11.3155" /></clipPath></defs><g clip-path="url(#circleClip)"><g id="_&#209;&#235;&#238;&#233;_1" data-name="&#209;&#235;&#238;&#233; 1">
    <g>
      <g>
        <rect width="33.945" height="22.631" fill="#fff" />
        <polygon points="1.041 22.631 0 22.631 15.064 11.315 0 0 1.041 0 13.953 9.699 33.945 9.699 33.945 12.932 13.953 12.932 1.041 22.631" fill-rule="evenodd" />
        <polygon points="1.041 0 33.945 0 33.945 3.233 5.345 3.233 1.041 0" fill="#007c29" fill-rule="evenodd" />
        <polygon points="9.649 6.466 33.945 6.466 33.945 9.699 13.953 9.699 9.649 6.466" fill="red" fill-rule="evenodd" />
        <polygon points="5.345 3.233 33.945 3.233 33.945 6.466 9.649 6.466 5.345 3.233" fill="#fed700" fill-rule="evenodd" />
        <polygon points="5.345 19.398 33.945 19.398 33.945 22.631 1.041 22.631 5.345 19.398" fill="#007c29" fill-rule="evenodd" />
        <polygon points="13.953 12.932 33.945 12.932 33.945 16.165 9.649 16.165 13.953 12.932" fill="red" fill-rule="evenodd" />
        <polygon points="5.345 19.398 33.945 19.398 33.945 16.165 9.649 16.165 5.345 19.398" fill="#fed700" fill-rule="evenodd" />
        <polygon points="0 0 0 22.631 15.064 11.315 0 0" fill="#fff" fill-rule="evenodd" />
      </g>
      <g>
        <polygon points="1.035 9.18 4.644 9.18 5.759 5.747 6.874 9.18 10.482 9.18 7.562 11.296 8.678 14.732 5.759 12.603 2.839 14.732 3.956 11.296 1.035 9.18" fill="red" fill-rule="evenodd" />
        <g>
          <path d="M8.304,11.318c-.042.041-.099.056-.156.042l-.109-.029c-.205.134-.38.31-.513.518-.129.204-.218.437-.251.691l-.148,1.128c-.002.014-.014.025-.028.025h-2.631c-.014,0-.025-.01-.028-.022l-.359-1.339c-.081-.098-.125-.22-.125-.347,0-.123.042-.242.118-.338l.441-.544c.052-.064.08-.14.08-.222v-.822c.001-.07.02-.139.056-.2v-1.311c0-.076-.031-.145-.081-.195-.05-.05-.119-.081-.195-.081h-.248c-.016,0-.028-.013-.028-.029v-.06c0-.102.041-.195.108-.262.067-.067.16-.108.262-.108h.165c.055-.071.126-.129.208-.17.082-.041.175-.065.274-.065.169,0,.321.068.432.179.111.111.179.264.179.432v.925l2.558,1.958c.042.032.066.078.066.13,0,.045-.018.086-.048.115Z" fill-rule="evenodd" />
          <g>
            <path d="M4.71,9.811l.962-.697v-.925c0-.153-.062-.292-.162-.392-.1-.1-.239-.162-.392-.162-.09,0-.174.021-.249.058-.077.039-.144.095-.196.164-.005.007-.014.012-.023.012h-.179c-.086,0-.165.035-.222.092-.056.057-.091.135-.091.222v.032h.625c.016,0,.028.013.028.028,0,.016-.013.029-.028.029h-.22c.018.012.034.026.049.041.06.06.098.143.098.236v1.263h0ZM5.117,7.858c.097,0,.177.079.177.177s-.079.176-.177.176-.177-.079-.177-.176.079-.177.177-.177h0ZM5.117,7.915c.066,0,.12.054.12.12s-.054.12-.12.12-.12-.054-.12-.12.053-.12.12-.12Z" fill="#fed700" fill-rule="evenodd" />
            <polygon points="4.339 12.446 4.163 12.183 4.137 12.317 4.171 12.446 4.339 12.446" fill="#fed700" fill-rule="evenodd" />
            <polygon points="4.649 12.446 4.535 12.191 4.434 12.446 4.649 12.446" fill="#fed700" fill-rule="evenodd" />
            <path d="M4.822,13.637v-.538l-.134-.501c-.008-.032-.014-.063-.019-.095h-.482l.304,1.134h.332Z" fill="#fed700" fill-rule="evenodd" />
            <polygon points="7.142 13.124 4.879 13.124 4.879 13.637 7.074 13.637 7.142 13.124" fill="#fed700" fill-rule="evenodd" />
            <path d="M5.489,10.537h-.054c-.086,0-.156.07-.156.156v.142c0,.199-.117.38-.298.461-.18.081-.328.211-.431.371-.103.16-.162.35-.162.547,0,.054.004.108.012.161l.106-.268c.006-.015.022-.022.037-.016.008.003.013.009.016.016l.104.231c.021-.255.182-.48.415-.586l.747-.357c.219-.106.382-.304.442-.539l-.499-.134c-.115-.031-.211-.098-.28-.185Z" fill="#fed700" fill-rule="evenodd" />
            <path d="M4.092,12.25l.029-.146c.003-.015.018-.025.033-.022.008.002.015.007.019.013l.166.248c-.005-.042-.008-.086-.008-.128,0-.209.062-.409.171-.578.109-.169.265-.307.455-.392.161-.073.265-.233.265-.409v-.142c0-.118.095-.213.213-.213h.015c-.048-.081-.075-.176-.075-.273v-.225c0-.016.013-.028.028-.028s.029.012.029.028v.225c0,.106.036.208.099.291.061.08.149.142.253.17l2.379.638c.035.01.074-.001.1-.026.019-.019.032-.047.032-.076,0-.035-.016-.064-.043-.085l-2.552-1.953-.997.722c-.031.052-.048.112-.049.173v.821c0,.095-.033.184-.093.257l-.441.544c-.069.086-.106.192-.106.303,0,.094.027.186.078.265Z" fill="#fed700" fill-rule="evenodd" />
            <polygon points="6.851 12.503 7.017 12.693 7.182 12.503 6.851 12.503" fill="#fed700" fill-rule="evenodd" />
            <polygon points="6.395 12.503 6.561 12.693 6.726 12.503 6.395 12.503" fill="#fed700" fill-rule="evenodd" />
            <polygon points="5.94 12.503 6.106 12.693 6.271 12.503 5.94 12.503" fill="#fed700" fill-rule="evenodd" />
            <polygon points="5.484 12.503 5.65 12.693 5.816 12.503 5.484 12.503" fill="#fed700" fill-rule="evenodd" />
            <polygon points="5.029 12.503 5.194 12.693 5.36 12.503 5.029 12.503" fill="#fed700" fill-rule="evenodd" />
            <path d="M4.764,12.663l.14-.161h-.178c.004.027.009.054.016.08l.022.08Z" fill="#fed700" fill-rule="evenodd" />
            <polygon points="5.132 13.067 4.967 12.876 4.856 13.004 4.872 13.067 5.132 13.067" fill="#fed700" fill-rule="evenodd" />
            <polygon points="5.588 13.067 5.422 12.876 5.257 13.067 5.588 13.067" fill="#fed700" fill-rule="evenodd" />
            <polygon points="6.043 13.067 5.878 12.876 5.712 13.067 6.043 13.067" fill="#fed700" fill-rule="evenodd" />
            <polygon points="6.499 13.067 6.333 12.876 6.168 13.067 6.499 13.067" fill="#fed700" fill-rule="evenodd" />
            <polygon points="6.954 13.067 6.789 12.876 6.623 13.067 6.954 13.067" fill="#fed700" fill-rule="evenodd" />
            <polygon points="7.162 12.971 7.079 13.067 7.149 13.067 7.162 12.971" fill="#fed700" fill-rule="evenodd" />
            <path d="M4.838,12.938l.107-.123c.01-.012.028-.013.04-.003l.209.24.209-.24c.012-.01.03-.009.04.003l.206.237.206-.237c.01-.012.028-.013.04-.003l.209.24.206-.237c.01-.012.028-.013.04-.003l.209.24.206-.237c.01-.012.028-.013.04-.003l.209.24.159-.182.042-.321-.182.209c-.012.01-.029.009-.04-.003l-.206-.237-.209.24c-.012.01-.03.009-.04-.003l-.206-.237-.209.24c-.012.01-.03.009-.04-.003l-.206-.237-.206.237c-.01.012-.028.013-.04.003l-.209-.24-.207.237c-.01.012-.028.013-.04.003l-.209-.24-.184.212.056.208Z" fill="#fed700" fill-rule="evenodd" />
            <path d="M6.155,11.205h.384c.078,0,.152-.021.215-.056.055-.031.102-.074.139-.124l-.571-.153c-.031.123-.089.237-.167.334Z" fill="#fed700" fill-rule="evenodd" />
            <path d="M7.584,11.671h-2.203l-.279.133c-.249.114-.401.368-.382.641h2.513c.042-.229.127-.441.246-.627.033-.051.068-.1.105-.147h0ZM6.685,11.77c.159,0,.289.129.289.289s-.129.289-.289.289-.288-.129-.288-.289.129-.289.288-.289h0ZM5.66,11.77c.16,0,.289.129.289.289s-.129.289-.289.289-.288-.129-.288-.289.129-.289.288-.289h0ZM5.66,11.827c.128,0,.232.104.232.232s-.104.232-.232.232-.231-.104-.231-.232.104-.232.231-.232h0ZM6.685,11.827c.128,0,.232.104.232.232s-.104.232-.232.232-.232-.104-.232-.232.103-.232.232-.232Z" fill="#fed700" fill-rule="evenodd" />
            <path d="M5.499,11.614h2.131c.099-.115.212-.217.336-.303l-1.015-.272c-.043.065-.101.12-.169.158-.072.041-.155.064-.243.064h-.434c-.072.075-.158.138-.255.185l-.351.168Z" fill="#fed700" fill-rule="evenodd" />
          </g>
        </g>
      </g>
    </g>
  </g>
</g></svg>