<?xml version="1.0" encoding="UTF-8"?>
<svg id="Layer_2" data-name="Layer 2" xmlns="http://www.w3.org/2000/svg" viewBox="0 0 175.048 176.851">
  <g id="Color">
    <path d="M14.443,133.056c.083-3.267.112-7.303.146-11.925.224-31.017.633-87.569,18.428-101.828,2.921-2.34,5.202-3.882,7.742-4.847,2.623-.997,5.273-1.293,8.839-1.1l-.187,3.67.2-3.679c2.031.11,3.59,1.848,3.479,3.879-.047.863-.388,1.641-.919,2.241-1.456,1.881-3.01,3.56-4.522,5.194-1.467,1.585-2.891,3.124-4.186,4.91-7.769,10.715-3.304,61.701-.857,89.63.498,5.692.913,10.425,1.139,14.034l-3.67.23,3.677-.23c.128,2.03-1.415,3.78-3.446,3.907-.077.005-.154.007-.23.007h0s-21.97,0-21.97,0c-2.035,0-3.685-1.65-3.685-3.685,0-.14.008-.276.023-.411Z" fill="#64b5f6"/>
    <path d="M7.307,24.668c-.342-2.003-2.243-3.35-4.246-3.008-2.003.342-3.35,2.242-3.008,4.245.012.068,3.88,23.713,20.506,29.255,1.923.636,3.998-.408,4.634-2.332.636-1.923-.408-3.998-2.331-4.634-12.367-4.122-15.546-23.471-15.555-23.526Z" fill="#64b5f6"/>
    <path d="M35.327,54.157c-1.979.445-3.223,2.41-2.777,4.39.445,1.979,2.411,3.223,4.39,2.777.068-.016,23.919-5.263,22.632-20.76-.167-2.026-1.945-3.534-3.973-3.367-2.026.167-3.534,1.945-3.367,3.973.754,9.072-16.853,12.976-16.904,12.987Z" fill="#64b5f6"/>
    <path d="M17.687,93.851c2.019.231,3.842-1.22,4.072-3.238.23-2.019-1.219-3.843-3.238-4.073-.033-.004-11.895-1.217-10.99-15.583.127-2.026-1.413-3.773-3.439-3.899-2.027-.128-3.773,1.412-3.901,3.439-1.349,21.413,17.442,23.349,17.497,23.354Z" fill="#64b5f6"/>
    <path d="M36.793,84.469c-2.019-.175-3.798,1.32-3.973,3.339-.175,2.018,1.32,3.798,3.339,3.973.057.005,19.431,2.019,28.613-20.29.771-1.876-.125-4.021-2.001-4.793-1.876-.77-4.021.125-4.792,2.001-7.1,17.247-21.146,15.773-21.186,15.77Z" fill="#64b5f6"/>
  </g>
  <g id="Grey">
    <path d="M131.698,14.424c7.987,0,15.219,3.238,20.453,8.473,5.235,5.235,8.474,12.467,8.474,20.454s-3.238,15.219-8.474,20.453c-5.234,5.235-12.466,8.473-20.453,8.473s-15.219-3.237-20.454-8.473c-5.234-5.234-8.473-12.466-8.473-20.453s3.238-15.22,8.473-20.454c5.235-5.234,12.467-8.473,20.454-8.473Z" fill="#424242"/>
    <path d="M135.382,3.685c0-2.035-1.65-3.685-3.685-3.685s-3.685,1.649-3.685,3.685v2.974c0,2.034,1.649,3.685,3.685,3.685s3.685-1.65,3.685-3.685v-2.974Z" fill="#424242"/>
    <path d="M154.711,10.826c1.009-1.756.403-3.999-1.352-5.008-1.757-1.01-4-.404-5.009,1.352l-1.487,2.575c-1.009,1.757-.403,3.999,1.353,5.008,1.756,1.01,3.999.404,5.008-1.353l1.487-2.575Z" fill="#424242"/>
    <path d="M167.891,26.698c1.757-1.018,2.356-3.267,1.339-5.023-1.018-1.756-3.267-2.355-5.023-1.338l-2.574,1.486c-1.757,1.018-2.355,3.267-1.339,5.023,1.017,1.756,3.267,2.355,5.022,1.338l2.575-1.486Z" fill="#424242"/>
    <path d="M171.364,47.035c2.034,0,3.684-1.65,3.684-3.685s-1.65-3.684-3.684-3.684h-2.974c-2.035,0-3.685,1.649-3.685,3.684s1.649,3.685,3.685,3.685h2.974Z" fill="#424242"/>
    <path d="M164.206,66.364c1.757,1.018,4.006.418,5.023-1.339,1.018-1.757.418-4.005-1.339-5.022l-2.575-1.486c-1.756-1.017-4.005-.419-5.022,1.338-1.017,1.757-.418,4.006,1.339,5.022l2.574,1.487Z" fill="#424242"/>
    <path d="M148.35,79.544c1.018,1.757,3.267,2.356,5.023,1.339,1.757-1.018,2.355-3.267,1.339-5.022l-1.487-2.575c-1.018-1.757-3.266-2.356-5.022-1.339-1.757,1.018-2.355,3.267-1.339,5.023l1.487,2.574Z" fill="#424242"/>
    <path d="M128.013,83.017c0,2.035,1.649,3.685,3.685,3.685s3.685-1.649,3.685-3.685v-2.974c0-2.035-1.65-3.685-3.685-3.685s-3.685,1.649-3.685,3.685v2.974Z" fill="#424242"/>
    <path d="M108.684,75.874c-1.01,1.757-.404,3.999,1.352,5.009,1.757,1.01,3.999.403,5.009-1.353l1.486-2.575c1.01-1.757.403-3.999-1.352-5.009-1.757-1.01-3.999-.403-5.009,1.353l-1.486,2.574Z" fill="#424242"/>
    <path d="M95.503,60.003c-1.757,1.018-2.355,3.266-1.338,5.022,1.017,1.757,3.266,2.356,5.022,1.339l2.575-1.487c1.756-1.017,2.355-3.266,1.338-5.022-1.017-1.757-3.266-2.355-5.022-1.338l-2.575,1.486Z" fill="#424242"/>
    <path d="M92.032,39.666c-2.035,0-3.684,1.649-3.684,3.684s1.649,3.685,3.684,3.685h2.974c2.034,0,3.684-1.65,3.684-3.685s-1.649-3.684-3.684-3.684h-2.974Z" fill="#424242"/>
    <path d="M99.188,20.337c-1.757-1.018-4.006-.418-5.022,1.338-1.018,1.757-.419,4.006,1.338,5.023l2.575,1.486c1.757,1.018,4.006.418,5.022-1.338,1.017-1.757.418-4.006-1.338-5.023l-2.575-1.486Z" fill="#424242"/>
    <path d="M115.045,7.171c-1.01-1.757-3.252-2.362-5.009-1.352-1.757,1.009-2.362,3.252-1.352,5.008l1.486,2.575c1.01,1.757,3.252,2.362,5.009,1.353,1.756-1.009,2.362-3.251,1.352-5.008l-1.486-2.575Z" fill="#424242"/>
    <path d="M57.079,126.207l-11.955-18.004c.299,3.566.608,7.132.921,10.697.243,2.77.495,5.546.722,8.322l10.313-1.016h0ZM11.27,108.18H1.983l9.188,8.383c.025-2.795.056-5.589.099-8.383Z" fill="#424242" fill-rule="evenodd"/>
    <path d="M11.131,121.779l-9.328-8.511v39.404l12.426-13.211c-1.963-1.272-3.264-3.482-3.264-5.995,0-.219.017-.429.031-.645.246-3.623.126-7.387.135-11.042Z" fill="#424242" fill-rule="evenodd"/>
    <polygon points="54.06 160.122 48.327 151.047 33.943 140.604 18.477 140.605 1.803 158.332 1.803 176.806 38.497 176.806 54.06 160.122" fill="#424242" fill-rule="evenodd"/>
    <polygon points="77.694 176.851 84.745 160.762 57.383 162.246 43.759 176.851 77.694 176.851" fill="#424242" fill-rule="evenodd"/>
    <polygon points="86.523 156.782 91.199 146.773 53.045 151.259 57.528 158.354 86.523 156.782" fill="#424242" fill-rule="evenodd"/>
    <polygon points="93.486 142.596 102.721 132.398 61.646 129.836 53.066 147.348 93.486 142.596" fill="#424242" fill-rule="evenodd"/>
    <path d="M49.039,146.768l8.172-16.679-10.135.998.121,1.933c.007.107.012.213.014.318l.196,3.13-.89.056c-1.082,2.262-3.324,3.895-5.988,4.067l8.51,6.177Z" fill="#424242" fill-rule="evenodd"/>
    <polygon points="103.065 128.534 89.452 108.232 49.8 108.232 61.561 125.944 103.065 128.534" fill="#424242" fill-rule="evenodd"/>
    <polygon points="151.08 139.211 126.018 108.232 94.117 108.232 108.04 128.997 151.08 139.211" fill="#424242" fill-rule="evenodd"/>
    <polygon points="156.009 139.123 175.048 110.034 175.048 108.18 130.975 108.18 156.009 139.123" fill="#424242" fill-rule="evenodd"/>
    <polygon points="175.048 150.511 175.048 117.125 158.948 141.724 175.048 150.511" fill="#424242" fill-rule="evenodd"/>
    <polygon points="175.048 176.851 175.048 154.923 156.145 144.607 128.635 158.738 142.485 176.851 175.048 176.851" fill="#424242" fill-rule="evenodd"/>
    <polygon points="137.602 176.851 124.739 160.027 89.06 160.572 81.925 176.851 137.602 176.851" fill="#424242" fill-rule="evenodd"/>
    <polygon points="125.206 156.147 150.618 143.095 107.519 132.867 96.059 145.52 90.848 156.672 125.206 156.147" fill="#424242" fill-rule="evenodd"/>
  </g>
</svg>