<?xml version="1.0" encoding="UTF-8"?>
<svg id="Layer_2" data-name="Layer 2" xmlns="http://www.w3.org/2000/svg" viewBox="0 0 129.829 179.82">
  <g id="Color">
    <path d="M60.211,94.639c2.623,3.41,5.023,13.89,5.775,17.56.622,3.039,1.139,6.155,1.389,9.248.142,1.765.231,3.736-.04,5.489l-.883,5.7-4.849-3.125c-4.407-2.84-9.026-9.214-11.968-13.655.197,3.412-1.711,8.611-2.712,11.661-4.04,12.302-8.099,25.669,2.28,36.281.851.87,1.772,1.671,2.736,2.413,5.983,4.607,13.84,6.647,21.327,6.337,7.491-.311,15.094-2.978,20.516-8.281.832-.814,1.601-1.692,2.311-2.614,4.498-5.842,5.186-13.104,4.036-20.174-.717-4.412-2.098-8.593-3.929-12.648-.015.21-.029.42-.047.63l-3.882,7.6c-6.346-13.374-4.97-22.819-17.925-33.77-4.186-3.54-9.065-6.519-14.135-8.652Z" fill="#64b5f6" fill-rule="evenodd"/>
  </g>
  <g id="Grey">
    <path d="M114.514,76.76c-5.603-13.453-10.345-24.841-8.905-30.215h.005c.538-2-.647-4.058-2.648-4.596-1.066-.287-2.148-.083-3.008.47-1.772,1.025-8.85,5.926-11.445,19.994C80.367,45.366,63.275,20.388,28.44.504l.005-.01c-1.8-1.027-4.091-.401-5.118,1.398-.846,1.482-.57,3.298.559,4.466,2.386,2.879,31.55,39.846,7.993,101.461-4.063-3.712-10.401-13.007-9.239-34.457h.01c.112-2.068-1.474-3.836-3.542-3.949-1.468-.08-2.785.696-3.466,1.892-2.123,3.234-28.071,44.001-8.184,76.606,1.423,2.333,3.015,4.562,4.757,6.681,11.021,13.409,27.616,21.658,45.094,24.298,17.442,2.635,35.852-.304,50.547-9.267,2.413-1.472,4.743-3.121,6.97-4.951,27.042-22.228,11.586-59.344-.31-87.913h0ZM61.092,90.949c2.572.972,28.806,11.506,31.327,38.212.029-.373.056-.755.077-1.148l-.009-.013c.107-1.982,1.802-3.502,3.784-3.395,1.418.077,2.6.966,3.117,2.192,1.223,2.442,10.799,22.689-.329,37.141-.853,1.108-1.742,2.11-2.658,3.006-6.018,5.886-14.437,8.991-22.98,9.346-8.488.352-17.166-2.029-23.768-7.112-1.14-.878-2.187-1.799-3.128-2.761-12.218-12.492-7.063-28.189-3.161-40.07,1.518-4.623,2.812-8.564,2.501-10.571l-.014.002c-.305-1.961,1.038-3.799,3-4.104,1.477-.229,2.885.476,3.62,1.677,5.33,7.575,8.899,11.553,11.162,13.01.175-1.127.16-2.73.008-4.614-.76-9.424-4.774-23.249-6.487-24.93l-.007.007c-1.426-1.381-1.464-3.657-.083-5.083,1.075-1.11,2.691-1.378,4.028-.792Z" fill="#424242" fill-rule="evenodd"/>
  </g>
</svg>