<?xml version="1.0" encoding="UTF-8"?>
<svg id="Layer_2" data-name="Layer 2" xmlns="http://www.w3.org/2000/svg" viewBox="0 0 179.848 143.04">
  <g id="Color">
    <path d="M30.503,89.951c4.781-4.061,12.782-3.732,14.542-3.604.094,0,.188.003.282.011,2.061.155,3.606,1.952,3.451,4.014h-.004c-1.792,23.791,10.265,31.264,24.417,32.33,13.583,1.024,29.263-3.392,37.784-5.816,0,8.714.057,17.432-.043,26.144H16.185c-.826,0-1.658-.271-2.351-.83l.006-.008c-7.182-5.8-11.342-18.357-12.986-32.7-1.822-15.883-.661-34.256,2.837-47.746.011-.058.023-.115.037-.173h.005C11.005,30.866,27.372,16.47,44.94,12.845c13.085-2.7,26.745.669,37.773,7.776,11.06,7.128,19.543,18.053,22.228,30.434,3.349,15.446-2.192,32.955-22.743,47.945-.165.137-.345.261-.537.37l-.006-.009c-16.144,9.162-22.521,11.247-24.39,7.957-1.631-2.875.982-6.009,4.682-10.445,2.864-3.435,6.636-7.958,9.432-12.568,2.7-4.452,3.845-9.028,3.773-13.649-.073-4.705-1.425-9.551-3.697-14.43-3.65-7.836-9.62-10.949-15.839-10.564-3.296.204-6.708,1.342-9.946,3.25-3.334,1.963-6.467,4.732-9.104,8.14-6.302,8.144-9.663,19.871-6.063,32.899Z" fill="#64b5f6"/>
    <path d="M105.315,16.291c.237-.109.505-.203.798-.281,2.273-.609,7.048-.217,11.717,1.484,4.705,1.713,9.447,4.756,11.735,9.446.378.774.689,1.598.923,2.47.522,1.952-.094,3.702-1.39,5.088-.862.924-2.03,1.666-3.335,2.164-1.249.478-2.658.741-4.064.731-2.74-.023-5.459-1.088-7.064-3.627-.41-.648-.671-1.532-1.005-2.662-.91-3.077-2.494-8.439-8.416-11.426l-.002.004c-.923-.466-1.294-1.591-.829-2.514.206-.409.542-.709.932-.877Z" fill="#64b5f6"/>
    <path d="M79.335,3.31c.123-.141.268-.283.433-.426,1.315-1.138,4.567-2.41,8.133-2.774,3.603-.368,7.66.126,10.662,2.483.495.389.967.836,1.408,1.348,1.067,1.233,1.239,2.71.791,4.155-.286.926-.84,1.824-1.565,2.596-.692.736-1.558,1.376-2.506,1.826-1.887.895-4.115,1.062-6.082-.161-.522-.323-.978-.825-1.562-1.467-1.452-1.595-3.981-4.373-8.368-4.442l.029-1.865-.029,1.872c-1.034-.017-1.858-.868-1.843-1.901.008-.481.196-.916.499-1.243Z" fill="#64b5f6"/>
  </g>
  <g id="Grey">
    <path d="M118.463,87.814h47.728c2.067,0,3.744,1.676,3.744,3.743v51.483h-14.617v-34.081h-25.981v34.081h-14.618v-51.483c0-2.067,1.677-3.743,3.744-3.743Z" fill="#424242"/>
    <path d="M142.326,58.576l-37.497,34.847c-.006.006-.017.017-.023.02l75.042.004-37.523-34.87Z" fill="#424242" fill-rule="evenodd"/>
  </g>
</svg>