<?xml version="1.0" encoding="UTF-8"?>
<svg id="Layer_2" data-name="Layer 2" xmlns="http://www.w3.org/2000/svg" viewBox="0 0 178.601 179.815">
  <g id="Color">
    <path d="M119.533,133.443c11.565-33.047-3.552-52.842-5.21-54.874-1.118-1.167-1.389-2.973-.547-4.448,1.025-1.797,3.314-2.422,5.111-1.396l-.006.01c18.213,10.396,28.236,23.196,33.655,33.031,1.999-5.703,5.229-8.027,6.298-8.666.852-.536,1.918-.729,2.968-.447,1.998.537,3.182,2.593,2.645,4.591l-.004-.002c-.696,2.612,1.963,9,5.105,16.545,7.104,17.06,16.333,39.223-.272,52.871-1.358,1.116-2.77,2.117-4.226,3.005-8.86,5.403-19.933,7.181-30.408,5.598-10.512-1.588-20.506-6.568-27.167-14.671-1.063-1.295-2.032-2.648-2.892-4.059-11.886-19.487,3.076-43.543,4.72-46.076.679-1.201,1.997-1.979,3.466-1.9,2.066.112,3.65,1.878,3.538,3.944h-.009c-.5,9.232,1.398,14.271,3.234,16.945Z" fill="#64b5f6"/>
  </g>
  <g id="Grey">
    <path d="M17.002,39.414L55.319,1.097h0c1.463-1.463,3.835-1.463,5.298,0l.021.021,38.319,38.318h0c1.463,1.463,1.463,3.835,0,5.298-.731.731-1.69,1.098-2.649,1.098h-12.38l24.331,24.33h0c1.463,1.463,1.463,3.835,0,5.298-.731.732-1.69,1.098-2.649,1.098h-13.295l22.523,22.522h0c1.463,1.463,1.463,3.835,0,5.298-.731.732-1.69,1.098-2.649,1.098H3.747c-2.069,0-3.747-1.678-3.747-3.746,0-1.047.429-1.992,1.121-2.672l22.5-22.5h-13.294c-2.069,0-3.747-1.678-3.747-3.747,0-1.046.429-1.991,1.121-2.671l24.307-24.308h-12.379c-2.069,0-3.746-1.678-3.746-3.747,0-1.046.429-1.991,1.121-2.671Z" fill="#424242"/>
    <rect x="40.162" y="97.984" width="35.612" height="79.787" rx="3.746" ry="3.746" fill="#424242"/>
  </g>
</svg>