<?xml version="1.0" encoding="UTF-8"?>
<svg id="Layer_2" data-name="Layer 2" xmlns="http://www.w3.org/2000/svg" viewBox="0 0 118.909 179.819">
  <g id="Color">
    <path d="M72.741,20.303h40.607c3.071,0,5.561,2.491,5.561,5.562s-2.49,5.561-5.561,5.561h-40.607c-3.071,0-5.561-2.49-5.561-5.561s2.491-5.562,5.561-5.562Z" fill="#64b5f6" fill-rule="evenodd"/>
    <path d="M87.483,5.561v40.606c0,3.071,2.491,5.561,5.562,5.561s5.561-2.49,5.561-5.561V5.561c0-3.071-2.491-5.561-5.561-5.561s-5.562,2.49-5.562,5.561Z" fill="#64b5f6" fill-rule="evenodd"/>
    <path d="M50.301,129.519c-2.78-2.78-6.377-4.744-10.399-5.5V50.419c0-2.048-1.66-3.708-3.707-3.708s-3.708,1.66-3.708,3.708v73.601c-4.022.756-7.619,2.72-10.399,5.5-3.61,3.609-5.844,8.598-5.844,14.106s2.233,10.496,5.844,14.106c3.61,3.611,8.598,5.844,14.107,5.844s10.496-2.232,14.107-5.844c3.611-3.61,5.844-8.598,5.844-14.106s-2.233-10.497-5.844-14.106Z" fill="#64b5f6" fill-rule="evenodd"/>
  </g>
  <g id="Grey">
    <path d="M28.74,121.127V50.419c0-4.115,3.338-7.454,7.454-7.454s7.454,3.339,7.454,7.454v70.708c3.493,1.157,6.679,3.12,9.302,5.743,4.456,4.456,6.941,10.453,6.941,16.756s-2.485,12.3-6.941,16.756c-4.456,4.456-10.453,6.94-16.756,6.94s-12.3-2.484-16.756-6.94c-4.456-4.456-6.941-10.453-6.941-16.756s2.485-12.3,6.941-16.756c2.623-2.623,5.809-4.586,9.302-5.743h0ZM51.721,8.308c-3.982-3.982-9.478-6.454-15.527-6.454s-11.545,2.472-15.527,6.454c-3.982,3.981-6.454,9.478-6.454,15.526v91.048c-4.135,3.166-7.569,7.209-10.025,11.852-2.673,5.052-4.187,10.802-4.187,16.893,0,9.994,4.052,19.043,10.602,25.592,6.55,6.551,15.598,10.601,25.592,10.601s19.042-4.051,25.593-10.601c6.55-6.549,10.601-15.598,10.601-25.592,0-6.091-1.514-11.841-4.187-16.893-2.456-4.643-5.891-8.686-10.026-11.852V23.834c0-6.048-2.472-11.545-6.454-15.526Z" fill="#424242" fill-rule="evenodd"/>
  </g>
</svg>