<?xml version="1.0" encoding="UTF-8"?>
<svg id="Layer_2" data-name="Layer 2" xmlns="http://www.w3.org/2000/svg" viewBox="0 0 174.111 179.821">
  <g id="Color">
    <path d="M69.161,79.588c-2.855,4.945-3.438,10.571-2.072,15.67,1.345,5.023,4.577,9.542,9.384,12.404.079.054.161.105.245.154l.015-.011c4.945,2.855,10.572,3.437,15.67,2.071,5.023-1.346,9.541-4.576,12.403-9.384.054-.079.106-.16.154-.245l-.01-.015c2.855-4.945,3.438-10.571,2.072-15.67-1.346-5.022-4.577-9.541-9.384-12.403-.079-.055-.161-.106-.245-.154l-.015.01c-4.945-2.854-10.572-3.437-15.67-2.071-5.023,1.346-9.541,4.577-12.403,9.384-.054.079-.106.161-.155.245l.011.015Z" fill="#64b5f6" fill-rule="evenodd"/>
  </g>
  <g id="Grey">
    <path d="M36.254,44.835c-5.087,10.528-6.744,21.186-6.839,30.371-8.432-23.733-5.087-40.59-4.684-42.412.546-1.934-.535-3.966-2.463-4.583-1.97-.631-4.079.455-4.71,2.426l.011.003c-9.53,29.77-8.114,51.838-1.63,68.116,6.659,16.718,18.588,27.233,29.574,33.724-24.561-4.519-37.474-15.683-39.041-17.107-1.397-1.482-3.73-1.579-5.245-.203-1.532,1.391-1.646,3.761-.254,5.292l.007-.002c27.036,29.767,52.069,37.484,72.409,35.991,11.672-.857,21.743-4.759,29.756-9.279-16.013,18.804-31.954,24.492-34.263,25.242-2.022.439-3.305,2.434-2.867,4.456.439,2.022,2.434,3.305,4.456,2.866v-.003c39.304-8.533,58.506-26.368,67.385-44.743,5.087-10.53,6.746-21.187,6.841-30.375,8.433,23.734,5.087,40.591,4.684,42.414-.546,1.933.535,3.966,2.463,4.583,1.971.631,4.08-.455,4.71-2.426l-.011-.004c12.27-38.326,6.417-63.879-5.065-80.752-6.572-9.657-14.97-16.415-22.878-21.088,24.559,4.519,37.472,15.683,39.039,17.107,1.397,1.482,3.73,1.579,5.245.203,1.532-1.391,1.645-3.76.254-5.291h-.007c-27.035-29.765-52.067-37.482-72.407-35.989-11.673.856-21.744,4.758-29.758,9.279,16.015-18.804,31.955-24.492,34.264-25.243,2.022-.438,3.305-2.434,2.866-4.456-.438-2.021-2.434-3.305-4.456-2.866v.004c-39.305,8.532-58.508,26.369-67.386,44.745h0ZM64.795,79.904l-.088-.126,1.199-2.077c.077-.134.159-.26.241-.39,3.394-5.314,8.468-9.346,14.592-10.986,5.454-1.461,11.22-.973,16.324,1.325l.125-.089,2.078,1.199c.133.077.26.159.389.242,5.314,3.394,9.345,8.467,10.986,14.591,1.461,5.455.973,11.221-1.325,16.324l.088.125-1.199,2.078c-.077.133-.159.26-.241.389-3.394,5.314-8.468,9.346-14.592,10.986-5.455,1.461-11.22.973-16.324-1.325l-.125.089-2.078-1.199c-.133-.076-.26-.159-.389-.241-5.314-3.395-9.345-8.468-10.986-14.592-1.461-5.455-.973-11.22,1.325-16.323Z" fill="#424242" fill-rule="evenodd"/>
  </g>
</svg>