<?xml version="1.0" encoding="UTF-8"?>
<svg id="Layer_2" data-name="Layer 2" xmlns="http://www.w3.org/2000/svg" viewBox="0 0 179.82 166.314">
  <g id="Color">
    <path d="M36.167,88.46L75.158,9.282l-.008-.004c.877-1.782,3.033-2.515,4.814-1.638.821.405,1.42,1.081,1.74,1.866l42.145,85.582-24.172,13.802-18.7-13c-1.209-.929-2.926-1.016-4.243-.1l.002.002-18.358,12.763-22.212-20.097Z" fill="#64b5f6"/>
  </g>
  <g id="Grey">
    <path d="M153.093,166.314H3.597c-1.986,0-3.597-1.61-3.597-3.596,0-.663.18-1.284.492-1.817l32.376-65.743,22.824,20.642v.005c1.307,1.176,3.24,1.215,4.587.183l18.509-12.867,18.642,12.96-.002.003c1.258.873,2.877.834,4.072.024l25.525-14.572,29.348,59.595-3.218,1.587,3.228-1.589c.877,1.782.144,3.938-1.638,4.815-.532.262-1.098.38-1.652.37Z" fill="#424242"/>
    <path d="M94.775,2.759c-.885-1.769-3.035-2.486-4.805-1.602-1.769.884-2.485,3.036-1.602,4.804l61.584,123.167c.884,1.769,3.035,2.486,4.804,1.602,1.77-.884,2.486-3.036,1.602-4.805L94.775,2.759Z" fill="#424242"/>
    <path d="M149.728,116.964c-1.311-1.482,2.536,6.528,1.054,7.839-1.481,1.311-1.62,3.575-.309,5.057,1.596,1.799,3.538,3.213,5.682,4.177,2.152.968,4.491,1.484,6.873,1.484,4.637,0,8.835-1.879,11.874-4.919,3.039-3.039,4.919-7.237,4.919-11.874s-1.88-8.835-4.919-11.874c-.953-.953-2.021-1.793-3.18-2.496.396-.419.771-.859,1.123-1.317,2.194-2.86,3.472-6.42,3.472-10.211,0-4.637-1.88-8.835-4.919-11.874-2.097-2.098-4.746-3.643-7.711-4.399,1.078-2.225,1.675-4.707,1.675-7.297,0-4.637-1.88-8.835-4.919-11.874s-7.237-4.919-11.874-4.919c-2.206,0-4.384.445-6.413,1.286-1.203.498-2.344,1.129-3.397,1.884-2.945,2.02-12.884,9.876-12.884,23.922l3.597,3.597,20.257,33.807Z" fill="#424242"/>
    <path d="M118.834,0c3.118,0,5.942,1.265,7.986,3.309,2.045,2.044,3.309,4.868,3.309,7.987s-1.264,5.942-3.309,7.986c-2.044,2.044-4.867,3.309-7.986,3.309s-5.942-1.265-7.987-3.309c-2.044-2.044-3.309-4.868-3.309-7.986s1.265-5.943,3.309-7.987c2.045-2.044,4.869-3.309,7.987-3.309Z" fill="#424242"/>
    <path d="M132.26,27.157c3.119,0,5.943,1.265,7.987,3.309,2.044,2.044,3.309,4.868,3.309,7.987s-1.265,5.942-3.309,7.987c-2.044,2.044-4.868,3.309-7.987,3.309s-5.942-1.265-7.986-3.309c-2.044-2.044-3.309-4.868-3.309-7.987s1.265-5.943,3.309-7.987c2.044-2.044,4.868-3.309,7.986-3.309Z" fill="#424242"/>
  </g>
</svg>