<?xml version="1.0" encoding="UTF-8"?>
<svg id="Layer_2" data-name="Layer 2" xmlns="http://www.w3.org/2000/svg" viewBox="0 0 120.148 179.819">
  <g id="Color">
    <path d="M73.498,18.642h41.03c3.103,0,5.619,2.517,5.619,5.619s-2.517,5.619-5.619,5.619h-41.03c-3.103,0-5.62-2.517-5.62-5.619s2.517-5.619,5.62-5.619Z" fill="#64b5f6" fill-rule="evenodd"/>
    <path d="M50.825,128.995c-2.81-2.81-6.444-4.793-10.508-5.557v-29.176c0-2.068-1.677-3.746-3.747-3.746s-3.746,1.678-3.746,3.746v29.176c-4.064.764-7.699,2.747-10.507,5.557-3.648,3.648-5.905,8.687-5.905,14.254s2.256,10.605,5.905,14.254c3.648,3.647,8.687,5.904,14.253,5.904s10.606-2.257,14.254-5.904c3.648-3.648,5.904-8.688,5.904-14.254s-2.256-10.605-5.904-14.254Z" fill="#64b5f6" fill-rule="evenodd"/>
  </g>
  <g id="Grey">
    <path d="M36.57,86.77c4.137,0,7.493,3.356,7.493,7.492v26.281c3.534,1.166,6.758,3.149,9.411,5.803,4.495,4.494,7.001,10.544,7.001,16.902s-2.506,12.407-7.001,16.902c-4.495,4.495-10.545,7.002-16.903,7.002s-12.407-2.507-16.903-7.002c-4.495-4.495-7.002-10.544-7.002-16.902s2.507-12.408,7.002-16.902c2.653-2.653,5.876-4.637,9.411-5.803v-26.281c0-4.136,3.356-7.492,7.492-7.492h0ZM52.259,6.52c-4.023-4.023-9.577-6.52-15.689-6.52s-11.665,2.497-15.688,6.52c-4.023,4.024-6.521,9.577-6.521,15.688v91.996c-4.178,3.2-7.648,7.284-10.13,11.976-2.701,5.104-4.231,10.914-4.231,17.068,0,10.098,4.094,19.24,10.712,25.858,6.618,6.618,15.76,10.712,25.858,10.712s19.241-4.094,25.859-10.712c6.618-6.618,10.712-15.761,10.712-25.858,0-6.154-1.53-11.964-4.231-17.068-2.482-4.691-5.952-8.775-10.13-11.976V22.209c0-6.111-2.498-11.664-6.521-15.688Z" fill="#424242" fill-rule="evenodd"/>
  </g>
</svg>