<?xml version='1.0' encoding='utf-8'?>
<svg xmlns="http://www.w3.org/2000/svg" id="Layer_1" data-name="Layer 1" viewBox="0 0 385.087 333.146">
  <g id="Grey">
    <path d="M145.443,261.193c-2.152,1.898-2.358,5.181-.46,7.333s5.181,2.358,7.333.46l23.872-20.898.006.008c1.624-1.422,2.152-3.629,1.513-5.557l-8.639-36.777c-.659-2.787-3.453-4.512-6.24-3.853-2.787.659-4.512,3.453-3.853,6.24l8.026,34.171-21.559,18.874Z" fill="#a6b1be" />
    <path d="M136.58,232.585c-2.469-1.469-5.662-.657-7.132,1.812-1.469,2.469-.657,5.662,1.812,7.131.058.035,20.437,12.305,30.838,2.017,2.032-2.017,2.045-5.3.029-7.333-2.017-2.032-5.3-2.045-7.333-.029-4.607,4.557-18.175-3.576-18.213-3.599Z" fill="#a6b1be" />
    <path d="M0,278.499l20.199-3.385,51.261-51.261c7.866,7.866,13.152,13.152,21.018,21.018l.318.065-39.067,55.499.917,32.711L0,278.499Z" fill="#a6b1be" fill-rule="evenodd" />
    <path d="M71.46,223.853l-3.9-29.728,83.768-83.768,25.49,25.49-96.681,96.682-8.676-8.676h0ZM180.484,139.513l-96.681,96.682,8.675,8.675,27.929,5.699,85.567-85.567-25.49-25.49Z" fill="#a6b1be" fill-rule="evenodd" />
    <rect x="174.998" y="113.996" width="24.951" height="29.724" transform="translate(-36.206 170.308) rotate(-45.001)" fill="#a6b1be" />
    <path d="M245.452,36.337l-66.428,66.428,15.438,15.438,66.429-66.428-15.438-15.438h0ZM198.128,121.87l66.429-66.428,15.438,15.438-66.428,66.428-15.438-15.438Z" fill="#a6b1be" fill-rule="evenodd" />
    <rect x="253.267" y="19.538" width="64.574" height="22.478" transform="translate(61.874 210.931) rotate(-45)" fill="#a6b1be" />
    <polygon points="230.051 20.936 245.452 36.337 225.934 55.855 230.051 20.936" fill="#a6b1be" fill-rule="evenodd" />
    <path d="M133.529,234.396l-13.965,13.966,21.066,66.855s3.498,3.763,13.746-5.19c6.617-5.782,16.893-5.632,18.281-8.192.761-1.404-.322-3.649-4.41-8.18-6.32-7.006-19.218-29.839-25.604-41.662-5.274-9.763-9.114-17.597-9.114-17.597Z" fill="#a6b1be" fill-rule="evenodd" />
    <path d="M189.338,179.208l-25.735,25.735s64.527,58.692,78.83,40.542l21.532-30.68c-29.38,4.104-74.627-35.597-74.627-35.597Z" fill="#a6b1be" fill-rule="evenodd" />
    <rect x="92.479" y="134.582" width="24.817" height="19.908" transform="translate(-71.482 116.5) rotate(-45)" fill="#a6b1be" />
    <g>
      <rect x="49.067" y="117.413" width="81.299" height="23.904" transform="translate(-65.198 101.329) rotate(-45)" fill="#a6b1be" />
      <rect x="47.26" y="155.816" width="17.503" height="14.508" transform="translate(-98.903 87.368) rotate(-45)" fill="#a6b1be" />
      <polygon points="125.69 110.305 141.9 101.762 117.321 77.182 108.777 93.392 125.69 110.305" fill="#a6b1be" fill-rule="evenodd" />
    </g>
  </g>
  <g id="Color">
    <path d="M324.969,241.848l1.411-3.255,16.381,1.064-.817,2.902c-2.573,11.474-12.495,46.417-39.585,56.803l-20.163-10.081s32.456-12.171,42.773-47.432Z" fill="#8a2c2c" fill-rule="evenodd" />
    <path d="M307.18,267.914c-8.888,2.992-18.655,4.264-28.392,1.757l-10.09-18.958s27.431,7.272,53.323-8.941c-3.006,9.872-8.086,18.648-14.841,26.142Z" fill="#8a2c2c" fill-rule="evenodd" />
    <path d="M240.26,182.055c-.539,1.077-1.35,2.695-2.096,4.601-.064.165-.149.316-.251.451,3.82,2.198,8.194,2.975,12.898,3.175-.032-.372.044-.756.243-1.104.754-1.315,1.75-2.22,2.708-3.091,1.134-1.031,2.189-1.99,1.873-3.517,0,.005,0,.01-.003-.002-.292-1.037-3.423-1.446-6.689-1.574-3.529-.138-7.086.179-8.345.379-.099.204-.213.431-.339.682Z" fill="#8a2c2c" fill-rule="evenodd" />
    <path d="M259.342,181.814c.753,3.637-1.069,5.293-3.029,7.075-.507.46-1.027.933-1.453,1.443,11.263-.136,23.95-2.089,35.279,4.571,20.436,12.013,14.944,29.859,20.597,39.603,2.743,4.728,8.386,6.546,14.241,7.325,3.669.488,7.42.569,10.593.702,2.072.087,4.207.104,6.372.035,15.691-.501,32.952-5.552,39.294-21.728,7.34-18.724,3.61-40.28-6.303-57.875-1.014,1.027-2.104,1.921-3.184,2.511-1.27.694-2.558.989-3.782.681-12.919-3.259-12.073-6.821-11.371-9.773.1-.42.187-.79-.51-1.078-2.825-1.166-4.239-.524-5.194-.09-3.178,1.444-4.223,1.916-7.352-7.375-1.219-2.167-.415-3.208,1.302-4.236.327-.196.56-.317.813-.448,1.134-.59,2.755-1.434,3.453-3.717.195-.637.677-1.239,1.392-1.768.309-.23.673-.46,1.081-.685-9.575-6.72-20.337-11.005-31.501-12.924-.026.456-.216.904-.569,1.248-.314.305-.562.53-.813.758-1.571,1.428-3.287,2.988-1.985,6.97.945,2.892,1.205,5.084.948,6.709-.312,1.97-1.313,3.191-2.793,3.839-1.259.551-2.792.588-4.467.271-3.295-.625-7.376-2.667-10.752-4.66-3.186-1.881-4.379-4.789-4.477-7.979-.08-2.587.601-5.329,1.48-7.773-11.731,1.356-23.315,5.19-33.886,11.423-13.189,7.777-23.308,18.88-28.601,31.846-3.607,8.834-2.874,14.452.67,18.072.723-1.775,1.509-3.345,2.047-4.42.282-.563.48-.958.494-1.009h-.004c.178-.635.658-1.103,1.241-1.293l.454-.196-.003-.008c.154-.067.311-.111.469-.135l.043-.009c1.06-.219,5.367-.663,9.503-.501,4.697.183,9.325,1.224,10.202,4.331.018.063.039.152.063.269h0ZM305.345,191.393c.892-2.42,3-4.902,4.994-7.251l.421-.496c3.47-4.098,2.89-4.856,1.825-6.247-1.509-1.972-3.574-4.669-3.47-11.034.043-2.663.619-5.259,2.022-7.176,1.292-1.765,3.2-2.923,5.903-3.04,8.571-.371,10.234,4.091,10.419,8.377.034.797.014,1.551-.025,2.248l-.176,1.876c.163.022.611.123.768.149,6.517,1.067,7.992,5.395,7.627,10.69-.193,2.799-.947,5.798-1.668,8.663-.606,2.411-1.188,4.724-1.334,6.558-.026.329-.097.647-.21.954-.869,2.359-4.318,3.547-8.373,4.029-3.538.42-7.651.382-10.579.15-1.788-.142-3.221-.372-3.929-.633-4.726-1.742-5.415-4.567-4.217-7.817h0ZM327.307,215.69c.486-1.468,2.134-4.039,3.941-5.811,1.667-1.634,3.608-2.735,5.393-2.284,9.942,2.508,9.26,5.381,8.693,7.763-.02.084-.037.158.071.202,1.864.769,2.781.353,3.4.071,2.704-1.228,3.596-1.632,6.054,5.651,1.07,1.917.359,2.837-1.157,3.744-.272.163-.438.25-.621.344-.753.392-1.829.952-2.276,2.416-.286.934-1.502,1.935-3.239,2.656-1.471.612-3.473,1.173-5.618,1.418-2.182.25-4.546.177-6.724-.488-2.789-.852-5.219-2.632-6.556-5.847-1.117-2.686-.349-4.011.344-5.209.245-.423.455-.786-1.301-2.577l-.006.002c-.548-.559-.68-1.371-.4-2.051h0ZM354.883,180.066l.043-.009c1.06-.22,5.367-.663,9.503-.501,4.697.183,9.325,1.224,10.202,4.331.018.063.039.152.063.269.753,3.637-1.069,5.293-3.029,7.074-1.571,1.428-3.287,2.988-1.985,6.971.945,2.892,1.206,5.084.948,6.709-.312,1.97-1.313,3.191-2.793,3.839-1.259.551-2.792.588-4.467.271-3.295-.625-7.376-2.667-10.751-4.66-8.663-5.115-2.58-17.266-.384-21.653.282-.563.48-.958.494-1.009h-.004c.178-.635.658-1.103,1.241-1.293l.454-.196-.003-.008c.154-.067.311-.111.469-.135h0ZM272.516,174.844c-3.625-1.108-6.782-3.419-8.518-7.593-1.394-3.354-.436-5.008.43-6.505.477-.823.886-1.53-1.884-4.355l-.006.002c-.542-.553-.677-1.353-.409-2.029.591-1.892,2.8-5.344,5.237-7.733,2.12-2.078,4.551-3.488,6.715-2.942,12.919,3.259,12.073,6.821,11.371,9.773-.1.42-.187.79.51,1.078,2.825,1.166,4.239.523,5.194.09,3.178-1.444,4.223-1.916,7.352,7.374,1.219,2.167.416,3.208-1.302,4.236-.327.196-.56.317-.813.448-1.134.59-2.755,1.434-3.453,3.717-.33,1.081-1.843,2.281-4.029,3.19-1.958.814-4.626,1.561-7.489,1.888-2.9.332-6.035.238-8.908-.64Z" fill="#8a2c2c" fill-rule="evenodd" />
    <path d="M267.497,165.798c1.238,2.977,3.507,4.631,6.116,5.428,2.314.707,4.924.773,7.381.492,2.493-.285,4.793-.926,6.466-1.622,1.162-.483,1.861-.779,1.864-.789,1.169-3.824,3.612-5.096,5.321-5.985l.269-.141c-1.776-5.291-1.882-5.244-2.201-5.1-1.55.704-3.846,1.748-8.189-.045-3.696-1.526-3.26-3.361-2.763-5.451.31-1.305.685-2.88-8.599-5.222-.664-.167-1.882.728-3.142,1.964-1.704,1.67-3.239,3.832-3.944,5.294,3.82,4.234,2.801,5.994,1.627,8.021-.42.725-.884,1.527-.207,3.154Z" fill="#8a2c2c" fill-rule="evenodd" />
    <path d="M315.595,175.102c2.262,2.956,3.495,4.567-1.944,10.991l-.421.496c-1.783,2.099-3.667,4.318-4.327,6.109-.426,1.157-.068,2.205,1.964,2.954.394.145,1.46.295,2.92.411,2.734.217,6.564.254,9.838-.135,2.725-.324,4.939-.824,5.25-1.543.173-2.133.791-4.589,1.435-7.15.682-2.711,1.395-5.547,1.564-7.996.249-3.614-.85-6.511-5.836-6.855-2.72-.188-2.594-2.287-2.425-5.097.049-.817.105-1.736.067-2.596-.106-2.447-1.132-4.991-6.475-4.76-1.408.061-2.378.632-3.013,1.498-.895,1.222-1.264,3.051-1.296,4.997-.082,5.043,1.524,7.142,2.699,8.677Z" fill="#8a2c2c" fill-rule="evenodd" />
    <path d="M333.902,212.577c-1.103,1.082-2.102,2.439-2.636,3.431,2.773,3.186,1.96,4.592,1.025,6.207-.247.427-.521.9-.122,1.859.839,2.018,2.381,3.14,4.154,3.682,1.618.494,3.459.539,5.197.34,1.775-.203,3.409-.658,4.595-1.151.713-.296,1.033-.118,1.074-.255.877-2.869,2.647-3.9,3.961-4.589-.946-2.943-.645-3.08-.786-3.017-1.214.552-3.013,1.369-6.394-.027-3.107-1.282-2.741-2.822-2.324-4.576.175-.734.385-1.621-5.921-3.212-.285-.072-1.014.515-1.821,1.306Z" fill="#8a2c2c" fill-rule="evenodd" />
    <path d="M354.544,201.099c3.084,1.821,6.748,3.674,9.521,4.2.965.183,1.755.202,2.258-.018.282-.123.484-.425.569-.963.166-1.046-.063-2.647-.815-4.945-2.062-6.308.6-8.728,3.038-10.944,1.134-1.031,2.189-1.99,1.872-3.516,0,.005,0,.01-.003-.003-.292-1.037-3.422-1.446-6.688-1.574-3.529-.138-7.086.179-8.345.379-.099.204-.213.431-.339.683-1.776,3.548-6.697,13.378-1.069,16.701Z" fill="#8a2c2c" fill-rule="evenodd" />
    <path d="M360.287,157.258c-.31,1.305-.685,2.88,8.599,5.222.222.056.595-.074,1.054-.325.807-.441,1.695-1.208,2.553-2.113.145-.152.309-.275.485-.368-3.483-5.568-7.592-10.669-12.156-15.066-1.944-1.873-3.961-3.623-6.042-5.251-.186.271-.444.497-.763.646-.418.194-.764.379-1.029.546-.361.287-.275.086-.499.681l-.091.233c-1.254,3.111-3.43,4.245-4.993,5.058l-.27.141c1.776,5.291,1.882,5.244,2.201,5.099,1.55-.704,3.846-1.748,8.189.045,3.696,1.526,3.26,3.361,2.763,5.451Z" fill="#8a2c2c" fill-rule="evenodd" />
    <path d="M313.108,134.208c-2.002-6.124.448-8.583,2.824-10.749-5.079-.603-10.221-.727-15.354-.376.043.309.011.632-.109.943-.865,2.246-1.59,4.809-1.519,7.087.061,1.956.76,3.72,2.624,4.821,3.084,1.821,6.748,3.675,9.521,4.2.965.183,1.755.202,2.258-.018.282-.123.484-.425.569-.963.166-1.047-.063-2.647-.815-4.945Z" fill="#8a2c2c" fill-rule="evenodd" />
  </g>
</svg>