<?xml version="1.0" encoding="UTF-8"?>
<svg id="Layer_2" data-name="Layer 2" xmlns="http://www.w3.org/2000/svg" viewBox="0 0 179.82 179.819">
  <g id="Color">
    <path d="M64.687,19.086l12.482,39.971c4.023-1.661,8.348-2.52,12.74-2.52s8.717.859,12.741,2.521l12.488-39.993c-3.818-1.611-7.788-2.85-11.845-3.702-4.4-.923-8.887-1.39-13.384-1.39s-8.983.467-13.383,1.39c-4.061.852-7.992,2.187-11.839,3.724Z" fill="#64b5f6" fill-rule="evenodd"/>
    <path d="M89.91,67.812c-5.884,0-11.464,2.311-15.624,6.472-4.16,4.16-6.473,9.741-6.473,15.625s2.312,11.465,6.473,15.625,9.74,6.473,15.624,6.473,11.465-2.312,15.625-6.473c4.16-4.16,6.473-9.74,6.473-15.625s-2.312-11.465-6.473-15.625-9.741-6.472-15.625-6.472Z" fill="#64b5f6" fill-rule="evenodd"/>
    <path d="M122.995,94.302c-.955,7.236-4.258,13.977-9.487,19.206-1.022,1.022-2.108,1.977-3.252,2.857l28.393,30.815c3.305-2.501,6.363-5.319,9.129-8.407,3-3.35,5.647-7.001,7.896-10.895,2.248-3.894,4.087-8.013,5.487-12.285,1.292-3.942,2.101-8.015,2.695-12.114l-40.861-9.177Z" fill="#64b5f6" fill-rule="evenodd"/>
    <path d="M66.311,113.508c-5.229-5.228-8.532-11.97-9.487-19.206l-40.882,9.181c.514,4.113,1.425,8.17,2.717,12.11,1.4,4.272,3.239,8.391,5.487,12.285,2.248,3.895,4.895,7.546,7.895,10.895,2.769,3.09,5.89,5.827,9.144,8.392l28.379-30.8c-1.144-.88-2.23-1.835-3.253-2.857Z" fill="#64b5f6" fill-rule="evenodd"/>
  </g>
  <g id="Grey">
    <path d="M0,89.909c0-23.923,9.42-46.662,26.333-63.576C43.248,9.419,65.986,0,89.91,0s46.663,9.419,63.577,26.333c16.914,16.914,26.334,39.653,26.334,63.576s-9.42,46.663-26.334,63.577c-16.914,16.913-39.653,26.333-63.577,26.333s-46.662-9.42-63.576-26.333C9.42,136.572,0,113.833,0,89.909h0ZM63.299,15.605l-3.221,1.286,14.737,47.191,3.785-1.563c3.585-1.48,7.431-2.237,11.31-2.237s7.725.757,11.311,2.237l3.785,1.563,14.723-47.147-3.133-1.322c-4.04-1.704-8.241-3.017-12.532-3.917-4.652-.977-9.4-1.471-14.153-1.471s-9.501.494-14.153,1.471c-4.272.896-8.409,2.294-12.458,3.909h0ZM89.91,64.066c-6.876,0-13.411,2.707-18.273,7.569-4.863,4.862-7.57,11.397-7.57,18.273s2.707,13.411,7.57,18.274c4.862,4.862,11.397,7.569,18.273,7.569s13.412-2.707,18.274-7.569c4.863-4.863,7.57-11.397,7.57-18.274s-2.707-13.411-7.57-18.273c-4.862-4.862-11.396-7.569-18.274-7.569h0ZM119.817,89.748l-.536,4.063c-.853,6.467-3.811,12.436-8.422,17.047-.907.908-1.873,1.757-2.89,2.539l-3.242,2.497,33.471,36.326,2.711-2.053c3.496-2.646,6.733-5.629,9.659-8.895,3.171-3.54,5.973-7.405,8.35-11.521,2.376-4.116,4.323-8.476,5.803-12.992,1.359-4.147,2.219-8.43,2.844-12.743l.497-3.433-48.244-10.835h0ZM68.961,110.858c-4.611-4.611-7.568-10.58-8.422-17.048l-.536-4.062-48.199,10.824.421,3.375c.543,4.35,1.508,8.645,2.874,12.811,1.48,4.517,3.427,8.876,5.803,12.992,2.376,4.116,5.178,7.981,8.35,11.521,2.913,3.251,6.191,6.137,9.615,8.835l2.724,2.147,33.501-36.359-3.242-2.497c-1.017-.783-1.982-1.631-2.889-2.539Z" fill="#424242" fill-rule="evenodd"/>
  </g>
</svg>