<?xml version="1.0" encoding="UTF-8"?>
<svg id="Layer_2" data-name="Layer 2" xmlns="http://www.w3.org/2000/svg" viewBox="0 0 116.32 179.82">
  <g id="Color">
    <path d="M53.198,4.721c1.282-1.132,2.721-2.092,4.28-2.846,2.488-1.201,5.265-1.875,8.183-1.875,1.502,0,2.967.178,4.375.513.928.222,1.836.516,2.718.877.222-.078.417-.152.6-.222,1.99-.759,3.064-1.168,12.552-1.168,6.984,0,14.915,2.553,20.826,6.704,5.648,3.968,9.589,9.447,9.589,15.773,0,6.071-1.367,11.813-5.119,16.406-3.349,4.101-8.468,7.124-16.022,8.412-.46,1.511-1.106,2.945-1.912,4.275-.758,1.251-1.656,2.406-2.672,3.442.131.348.25.702.356,1.062.417,1.402.642,2.87.642,4.368,0,4.244-1.721,8.086-4.502,10.867-2.503,2.503-5.865,4.146-9.605,4.451-.323,3.379-1.751,6.447-3.92,8.84-1.71,1.887-3.882,3.346-6.338,4.2-.14,1.814-.656,3.533-1.471,5.081-.094.179-.192.356-.295.53.374.311.724.643,1.046.991,1.655,1.792,2.635,4.044,2.635,6.519,0,3.038-1.482,5.743-3.878,7.659-2.162,1.73-5.088,2.801-8.261,2.801h-10.05c-3.616,0-6.891-1.466-9.262-3.837-2.371-2.37-3.837-5.644-3.837-9.262,0-1.867.397-3.653,1.112-5.274l.06-.137c-.721-.519-1.386-1.108-1.984-1.759-1.358-1.475-2.382-3.269-2.951-5.259-1.759-1.242-3.246-2.845-4.352-4.7-1.38-2.315-2.173-5.005-2.173-7.859,0-1.077.118-2.15.342-3.203.04-.188.083-.376.131-.562-.858-1.027-1.587-2.169-2.158-3.399-.915-1.971-1.425-4.157-1.425-6.451,0-2.096.435-4.116,1.221-5.975.245-.578.523-1.138.832-1.677-.111-.111-.221-.224-.329-.339-.7-.744-1.324-1.553-1.861-2.414-5.702-1.914-10.587-5.006-14.122-8.875C2.288,37.118,0,31.896,0,26.224c0-7.456,3.941-14.131,10.312-18.894C16.37,2.801,24.681,0,33.81,0c4.12,0,8.078.571,11.737,1.615,2.727.778,5.296,1.827,7.652,3.105Z" fill="#64b5f6"/>
  </g>
  <g id="Grey">
    <path d="M25.521,138.758h54.227c2.068,0,3.747,1.679,3.747,3.747v33.569c0,2.068-1.679,3.746-3.746,3.746H25.52c-2.068,0-3.746-1.679-3.746-3.746v-33.569c0-2.068,1.679-3.747,3.747-3.747Z" fill="#424242"/>
    <path d="M8.735,115.26h87.798c2.068,0,3.746,1.679,3.746,3.746v23.498c0,2.068-1.679,3.747-3.747,3.747H8.735c-2.068,0-3.746-1.679-3.746-3.746v-23.499c0-2.068,1.679-3.746,3.746-3.746Z" fill="#424242"/>
  </g>
</svg>