<?xml version="1.0" encoding="UTF-8"?>
<svg id="Layer_2" data-name="Layer 2" xmlns="http://www.w3.org/2000/svg" viewBox="0 0 179.82 168.249">
  <g id="Color">
    <path d="M90.271,37.195c8.929,0,17.397,1.973,24.993,5.506-1.254,2.41-2.881,4.64-4.848,6.605-1.017,1.017-2.104,1.942-3.25,2.773-5.25-1.996-10.945-3.089-16.895-3.089-5.374,0-10.54.892-15.358,2.535-.877-.683-1.717-1.423-2.513-2.22-2.189-2.189-3.958-4.704-5.26-7.433,7.108-3.013,14.926-4.679,23.132-4.679h0ZM137.596,60.733c3.4,4.487,6.177,9.474,8.201,14.829-4.402-1.017-8.933-1.422-13.456-1.198-.295-.559-.601-1.11-.917-1.655,2.612-3.701,4.685-7.731,6.172-11.976h0ZM149.209,103.469c-1.585,13.614-7.778,25.823-16.979,35.024-2.384,2.385-4.971,4.565-7.731,6.518-1.488-2.361-2.612-4.97-3.346-7.707-.35-1.306-.606-2.637-.767-3.978,1.22-1,2.39-2.059,3.504-3.173,6.612-6.612,11.286-15.165,13.095-24.729,1.034-.41,2.096-.761,3.177-1.051,2.943-.788,6.018-1.104,9.047-.904h0ZM97.914,155.385c-2.502.322-5.053.489-7.643.489-3.327,0-6.589-.274-9.768-.801,3.118-3.29,5.762-7,7.858-11.034.633.025,1.27.039,1.91.039.085,0,.169-.002.254-.002,1.932,4.109,4.42,7.911,7.388,11.309h0ZM54.654,143.998c-2.242-1.686-4.361-3.525-6.341-5.505-9.591-9.591-15.914-22.451-17.156-36.764,2.819-.154,5.667.132,8.428.871,1.275.342,2.513.772,3.708,1.287,1.581,10.186,6.394,19.301,13.359,26.266.825.824,1.68,1.619,2.563,2.382-.149,1.006-.356,2.007-.622,2.997-.822,3.067-2.162,5.924-3.94,8.466h0ZM35.48,73.717c2.28-5.468,5.353-10.521,9.078-15.017,1.303,4.314,3.199,8.431,5.643,12.236-.385.601-.756,1.21-1.113,1.829-4.564-.324-9.134.027-13.607.951Z" fill="#64b5f6"/>
  </g>
  <g id="Grey">
    <path d="M98.079,0v.164c0,.015.003.036.009.054,6.855,1.516,12.976,5.355,17.363,10.824,4.394,5.477,6.751,12.237,6.751,19.256,0,8.191-3.228,15.983-9.019,21.774-5.791,5.791-13.583,9.018-21.774,9.018s-15.983-3.227-21.774-9.018-9.018-13.583-9.018-21.774c0-7.019,2.356-13.779,6.75-19.256,4.334-5.402,10.3-9.517,17.191-10.781.048-.009.133-.036.181-.074V.046c0-.017,0-.034,0-.044-10.681,1.589-20.402,6.985-27.445,15.163-7.06,8.196-10.91,18.545-10.91,29.365,0,11.985,4.714,23.363,13.187,31.837,8.474,8.475,19.852,13.188,31.837,13.188s23.364-4.714,31.837-13.188c8.474-8.474,13.188-19.852,13.188-31.837,0-10.82-3.85-21.169-10.909-29.365C118.5,7.01,108.722,1.924,98.185.018c-.034-.006-.07-.014-.106-.018Z" fill="#424242" fill-rule="evenodd"/>
    <path d="M3.043,137.931l.205-.103h0c-2.108-6.669-1.857-13.942.677-20.455,2.068-5.315,5.453-10.016,9.998-13.38l-.088-.152,3.391-1.956c7.062-4.072,15.501-5.171,23.373-3.061,7.909,2.119,14.608,7.241,18.705,14.336,4.087,7.079,5.185,15.492,3.07,23.386-2.121,7.913-7.255,14.607-14.352,18.704-6.065,3.502-13.147,4.825-20.068,3.761-6.832-1.05-13.389-4.129-17.906-9.473-.032-.038-.097-.098-.156-.126l-.166.083h0c6.72,8.465,16.263,14.183,26.868,16.193,10.6,2.01,21.511.144,30.853-5.25,10.379-5.993,17.887-15.756,20.989-27.333,3.082-11.502,1.033-23.571-4.43-34.036-.049-.094-.107-.186-.165-.274-6.444-9.862-15.732-17.741-27.242-20.826-11.493-3.079-23.502-.898-33.997,4.414-.107.055-.211.115-.312.181-8.899,5.809-16.284,13.887-19.827,24.024-3.55,10.16-3.173,21.228.561,31.289.006.018.013.036.02.055Z" fill="#424242" fill-rule="evenodd"/>
    <path d="M170.017,151.279l-.176-.116-.002.002c-4.736,5.178-11.12,8.553-18.045,9.617-6.853,1.054-13.998-.029-19.948-3.695-.082-.051-.166-.099-.251-.145-7.202-3.901-12.118-10.784-14.219-18.624-2.097-7.825-1.28-16.29,3.005-23.253.05-.081.098-.164.144-.249,3.898-7.205,10.785-12.119,18.625-14.22,7.825-2.097,16.288-1.277,23.251,3.005.082.05.166.099.251.144,6.168,3.335,10.647,8.915,13.17,15.399,2.06,5.295,2.687,11.108,1.652,16.673l.501.198c2.678-9.03,2.436-18.711-.69-27.656-3.569-10.213-10.622-18.706-19.99-24.114-10.342-5.972-22.611-7.596-34.146-4.505-11.573,3.101-21.342,10.597-27.333,20.975-5.974,10.347-7.597,22.621-4.505,34.162,3.102,11.577,10.61,21.34,20.99,27.333,9.342,5.393,20.253,7.261,30.853,5.251,10.58-2.007,19.833-7.979,26.79-16.094.023-.027.05-.058.073-.088Z" fill="#424242" fill-rule="evenodd"/>
  </g>
</svg>