<?xml version="1.0" encoding="UTF-8"?>
<svg id="Layer_2" data-name="Layer 2" xmlns="http://www.w3.org/2000/svg" viewBox="0 0 160.144 179.808">
  <g id="Color">
    <path d="M21.658,130.669c-3.988-6.997-1.793-17.467,16.616-28.052.073-.049.148-.098.225-.143,1.786-1.044,4.081-.443,5.125,1.343l-3.234,1.891,3.234-1.888c10.837,18.536,7.496,28.781.504,32.869-3.638,2.126-8.24,2.444-12.393,1.332-4.158-1.114-7.99-3.691-10.076-7.351Z" fill="#64b5f6"/>
    <path d="M66.427,130.669c-3.989-6.997-1.793-17.467,16.615-28.052.073-.049.148-.098.226-.143,1.786-1.044,4.081-.443,5.125,1.343l-.013.007c10.837,18.538,7.502,28.78.517,32.864-3.638,2.126-8.241,2.444-12.394,1.332-4.158-1.114-7.99-3.691-10.076-7.351Z" fill="#64b5f6"/>
    <path d="M111.195,130.669c-3.988-6.997-1.793-17.467,16.615-28.052.073-.049.147-.098.225-.143,1.786-1.044,4.08-.443,5.125,1.343l-3.234,1.891,3.234-1.888c10.837,18.536,7.495,28.781.504,32.869-3.638,2.126-8.241,2.444-12.394,1.332-4.158-1.114-7.99-3.691-10.076-7.351Z" fill="#64b5f6"/>
    <path d="M44.043,171.828c-3.989-6.996-1.794-17.467,16.615-28.052.073-.05.148-.098.225-.143,1.786-1.044,4.081-.443,5.125,1.343l-.012.007c10.837,18.538,7.501,28.78.516,32.864-3.638,2.127-8.241,2.444-12.393,1.331-4.158-1.114-7.99-3.691-10.076-7.352Z" fill="#64b5f6"/>
    <path d="M88.811,171.828c-3.988-6.996-1.793-17.467,16.616-28.052.073-.05.147-.098.225-.143,1.787-1.044,4.081-.443,5.125,1.343l-.012.007c10.837,18.538,7.502,28.78.516,32.864-3.638,2.127-8.24,2.444-12.394,1.331-4.158-1.114-7.989-3.691-10.076-7.352Z" fill="#64b5f6"/>
  </g>
  <g id="Grey">
    <path d="M149.839,86.639c-6.222,5.376-14.773,8.701-24.18,8.701-27.599,0-33.314.006-39.191.013-19.574.022-39.691.044-42.942.044-11.79,0-22.515-3.509-30.323-9.183C5.045,80.289,0,71.998,0,62.749c0-8.206,3.98-15.66,10.589-21.385,5.893-5.105,13.925-8.827,23.051-10.407.101-.308.207-.616.319-.923,2.355-6.466,7.112-11.844,12.755-15.275,5.74-3.489,12.453-5.002,18.596-3.664.113.024.226.05.34.077,3.42-3.147,6.986-5.773,11.664-7.714,5.327-2.211,11.944-3.458,21.223-3.458,9.997,0,21.405,3.883,29.932,10.078,7.993,5.807,13.594,13.708,13.594,22.57,0,1.498-.145,3.016-.428,4.543-.056.302-.117.602-.183.9,5.042,2.284,9.362,5.629,12.57,9.697,3.863,4.9,6.122,10.837,6.122,17.247,0,8.467-3.938,16.103-10.306,21.604Z" fill="#424242"/>
  </g>
</svg>