<?xml version="1.0" encoding="UTF-8"?>
<svg id="Layer_2" data-name="Layer 2" xmlns="http://www.w3.org/2000/svg" viewBox="0 0 165.16 179.82">
  <g id="Color">
    <path d="M31.234,7.321L48.522.838l-.005-.013c1.01-.379,2.081-.293,2.977.15l8.816,4.104v-.002c1.632.76,2.459,2.545,2.072,4.231l-2.263,13.253-3.688-.629,3.693.631c-.252,1.477-1.339,2.605-2.694,2.98l-17.29,6.483.005.013c-1.396.524-2.907.16-3.914-.809l-7.061-5.768,2.356-2.897-2.37,2.901c-1.038-.848-1.503-2.138-1.346-3.377l.688-11.379,3.732.22-3.74-.226c.099-1.642,1.241-2.972,2.742-3.386Z" fill="#64b5f6"/>
    <path d="M56.973,31.471l20.852-5.037.878,3.629-.879-3.641c1.775-.429,3.561.484,4.289,2.088l11.286,19.631.014-.008c1.031,1.793.413,4.084-1.381,5.115-.281.162-.573.283-.872.365l-14.121,5.295.005.013c-.827.31-1.694.309-2.473.055l-11.597-3.133.966-3.615-.977,3.617c-1.324-.357-2.29-1.383-2.633-2.615l-6.28-16.747-.014.005c-.726-1.938.255-4.097,2.193-4.823.245-.092.494-.156.743-.195Z" fill="#64b5f6"/>
    <path d="M110.089,45.55l11.063,4.665-1.449,3.439,1.455-3.452c1.013.427,1.74,1.248,2.079,2.209l7.084,16.134.01-.004c.478,1.089.396,2.284-.12,3.26l-4.932,11.699-3.439-1.449,3.452,1.455c-.804,1.906-3.001,2.801-4.908,1.997-.102-.043-.202-.091-.298-.142l-13.901-5.861,1.449-3.439-1.455,3.452c-.838-.353-1.48-.976-1.869-1.725l-6.236-10.191-.008.005c-.717-1.172-.713-2.581-.114-3.713l6.946-16.476,3.439,1.448-3.452-1.455c.804-1.906,3.001-2.8,4.907-1.996.102.042.202.09.297.141Z" fill="#64b5f6"/>
    <path d="M157.959,93.803l6.659,11.18-3.205,1.917,3.219-1.917c.783,1.316.668,2.916-.166,4.089l-9.57,16.366.012.007c-.529.906-1.38,1.506-2.323,1.743l-17.84,4.84h0c-1.762.479-3.57-.383-4.344-1.963l-8.363-14.039,3.205-1.917-3.219,1.917c-.65-1.092-.681-2.38-.197-3.457l4.212-11.593,3.512,1.274-3.521-1.279c.444-1.222,1.457-2.072,2.632-2.36l24.951-6.769h0c1.761-.479,3.57.383,4.344,1.963Z" fill="#64b5f6"/>
  </g>
  <g id="Grey">
    <path d="M5.616.499l4.279,2.073-1.625,3.366,1.633-3.372c.681.33,1.216.838,1.578,1.441l38.126,53.749,58.647,28.215-1.61,3.366,1.624-3.376c1.09.525,1.811,1.509,2.042,2.608l10.865,35.666,40.575,49.466-2.883,2.371,2.896-2.376c1.312,1.6,1.079,3.96-.52,5.272-.697.572-1.54.851-2.376.85h0s-.009,0-.009,0H3.746c-2.069,0-3.746-1.677-3.746-3.746V3.746C0,1.677,1.677,0,3.746,0c.681,0,1.32.182,1.87.499Z" fill="#424242"/>
  </g>
</svg>