<?xml version="1.0" encoding="UTF-8"?>
<svg id="Layer_2" data-name="Layer 2" xmlns="http://www.w3.org/2000/svg" viewBox="0 0 164.804 179.819">
  <g id="Color">
    <path d="M35.005,107.168c0-1.045-.848-1.893-1.893-1.893s-1.894.848-1.894,1.893v25.443c0,1.045.848,1.892,1.894,1.892s1.893-.848,1.893-1.892v-25.443Z" fill="#64b5f6"/>
    <path d="M43.446,112.232c.738-.739.738-1.938,0-2.677-.74-.739-1.939-.739-2.678,0l-17.99,17.991c-.739.739-.739,1.938,0,2.676.738.739,1.937.739,2.677,0l17.991-17.991Z" fill="#64b5f6"/>
    <path d="M45.833,121.782c1.046,0,1.894-.847,1.894-1.893s-.848-1.893-1.894-1.893h-25.442c-1.046,0-1.893.847-1.893,1.893s.848,1.893,1.893,1.893h25.442Z" fill="#64b5f6"/>
    <path d="M40.769,130.223c.739.739,1.937.739,2.678,0,.738-.739.738-1.938,0-2.676l-17.991-17.991c-.739-.739-1.938-.739-2.677,0-.739.739-.739,1.938,0,2.677l17.99,17.991Z" fill="#64b5f6"/>
    <path d="M84.295,107.168c0-1.045-.848-1.893-1.894-1.893s-1.893.848-1.893,1.893v25.443c0,1.045.848,1.892,1.893,1.892s1.894-.848,1.894-1.892v-25.443Z" fill="#64b5f6"/>
    <path d="M92.735,112.232c.739-.739.739-1.938,0-2.677-.739-.739-1.938-.739-2.677,0l-17.99,17.991c-.739.739-.739,1.938,0,2.676.738.739,1.938.739,2.677,0l17.99-17.991Z" fill="#64b5f6"/>
    <path d="M95.123,121.782c1.046,0,1.893-.847,1.893-1.893s-.847-1.893-1.893-1.893h-25.442c-1.046,0-1.894.847-1.894,1.893s.848,1.893,1.894,1.893h25.442Z" fill="#64b5f6"/>
    <path d="M90.059,130.223c.739.739,1.938.739,2.677,0,.739-.739.739-1.938,0-2.676l-17.991-17.991c-.738-.739-1.938-.739-2.676,0-.739.739-.739,1.938,0,2.677l17.99,17.991Z" fill="#64b5f6"/>
    <path d="M133.585,107.168c0-1.045-.848-1.893-1.894-1.893s-1.893.848-1.893,1.893v25.443c0,1.045.848,1.892,1.893,1.892s1.894-.848,1.894-1.892v-25.443Z" fill="#64b5f6"/>
    <path d="M142.025,112.232c.739-.739.739-1.938,0-2.677-.739-.739-1.938-.739-2.677,0l-17.99,17.991c-.739.739-.739,1.938,0,2.676.738.739,1.938.739,2.676,0l17.991-17.991Z" fill="#64b5f6"/>
    <path d="M144.413,121.782c1.046,0,1.893-.847,1.893-1.893s-.848-1.893-1.893-1.893h-25.442c-1.046,0-1.894.847-1.894,1.893s.848,1.893,1.894,1.893h25.442Z" fill="#64b5f6"/>
    <path d="M139.349,130.223c.739.739,1.938.739,2.677,0,.739-.739.739-1.938,0-2.676l-17.991-17.991c-.738-.739-1.938-.739-2.676,0-.739.739-.739,1.938,0,2.677l17.99,17.991Z" fill="#64b5f6"/>
    <path d="M108.939,152.484c0-1.045-.848-1.893-1.892-1.893s-1.893.848-1.893,1.893v25.443c0,1.045.848,1.893,1.893,1.893s1.892-.847,1.892-1.893v-25.443Z" fill="#64b5f6"/>
    <path d="M117.381,157.548c.739-.739.739-1.938,0-2.677-.739-.739-1.939-.739-2.677,0l-17.991,17.991c-.739.739-.739,1.938,0,2.677.739.739,1.938.739,2.677,0l17.991-17.991Z" fill="#64b5f6"/>
    <path d="M119.769,167.098c1.045,0,1.892-.847,1.892-1.893s-.848-1.893-1.892-1.893h-25.443c-1.045,0-1.893.848-1.893,1.893s.848,1.893,1.893,1.893h25.443Z" fill="#64b5f6"/>
    <path d="M114.704,175.539c.738.739,1.938.739,2.677,0,.739-.739.739-1.938,0-2.677l-17.991-17.991c-.739-.739-1.938-.739-2.677,0-.739.739-.739,1.938,0,2.677l17.991,17.991Z" fill="#64b5f6"/>
    <path d="M59.649,152.484c0-1.045-.848-1.893-1.893-1.893s-1.892.848-1.892,1.893v25.443c0,1.045.848,1.893,1.892,1.893s1.893-.847,1.893-1.893v-25.443Z" fill="#64b5f6"/>
    <path d="M68.091,157.548c.739-.739.739-1.938,0-2.677-.739-.739-1.937-.739-2.677,0l-17.991,17.991c-.738.739-.738,1.938,0,2.677.739.739,1.938.739,2.677,0l17.991-17.991Z" fill="#64b5f6"/>
    <path d="M70.479,167.098c1.045,0,1.893-.847,1.893-1.893s-.848-1.893-1.893-1.893h-25.443c-1.045,0-1.893.848-1.893,1.893s.848,1.893,1.893,1.893h25.443Z" fill="#64b5f6"/>
    <path d="M65.414,175.539c.739.739,1.937.739,2.677,0,.739-.739.739-1.938,0-2.677l-17.991-17.991c-.739-.739-1.937-.739-2.677,0-.738.739-.738,1.938,0,2.677l17.991,17.991Z" fill="#64b5f6"/>
  </g>
  <g id="Grey">
    <path d="M154.214,89.111c-6.396,5.526-15.187,8.944-24.856,8.944-28.169,0-34.182.007-40.368.014-20.037.022-40.621.045-44.231.045-12.128,0-23.159-3.609-31.19-9.444-8.383-6.091-13.568-14.609-13.568-24.111,0-8.43,4.091-16.089,10.882-21.972,6.069-5.258,14.347-9.089,23.751-10.709.107-.331.222-.661.341-.991,2.421-6.644,7.309-12.17,13.107-15.695,5.897-3.585,12.792-5.14,19.1-3.766.128.028.257.058.387.089,3.526-3.248,7.199-5.957,12.021-7.958,5.478-2.274,12.284-3.557,21.832-3.557,10.282,0,22.017,3.994,30.787,10.367,8.215,5.969,13.972,14.086,13.972,23.189,0,1.54-.15,3.099-.44,4.666-.061.329-.128.656-.201.982,5.206,2.348,9.666,5.795,12.975,9.991,3.97,5.034,6.29,11.134,6.29,17.72,0,8.698-4.047,16.544-10.59,22.197Z" fill="#424242"/>
  </g>
</svg>