<?xml version="1.0" encoding="UTF-8"?>
<svg xmlns="http://www.w3.org/2000/svg" viewBox="0 0 551.185 185.601">
  <g isolation="isolate">
    <g id="Layer_2" data-name="Layer 2">
      <g id="Color">
        <path d="M527.981,145.608c-2.417-2.901,23.204-43.024,23.204-45.924s-68.161,1.934-73.962,3.384c-5.801,1.45-41.09,24.654-41.09,24.654,0,0-54.625,1.45-70.578,0-4.834-3.384-20.787-14.019-20.787-14.019,0,0-67.194-2.417-70.578-.967-3.384,1.45-17.886,14.986-17.886,14.986h-91.365s-20.303-14.019-30.455-17.403c-9.193-1.149-53.382-.932-88.032-.568-1.647,1.214-4.154,3.257-7.862,6.685-6.668,0-30.152.582-36.814.75-.977,5.877-2.118,13.812-1.681,16.577,1.934,5.559,35.289,14.502,37.223,15.469,1.934.967,5.559,10.393,3.626,12.81-1.934,2.417-11.118,3.626-11.118,3.626l-.242,3.626s3.867,6.284,16.436,9.668c31.905,9.185,454.407,6.768,471.809,4.834,17.403-1.934,30.455-13.052,30.455-20.787s-17.886-14.502-20.303-17.403ZM64.551,116.094h-9.306s-1.924-.212-1.879-1.671c.18-1.14,1.205-1.671,1.879-1.671h9.261s1.709.265,1.888,1.591c.18,1.326-1.259,1.75-1.844,1.75ZM85.237,116.094h-9.306s-1.924-.212-1.879-1.671c.18-1.14,1.205-1.671,1.879-1.671h9.261s1.709.265,1.888,1.591c.18,1.326-1.259,1.75-1.844,1.75ZM105.923,116.094h-9.306s-1.924-.212-1.879-1.671c.18-1.14,1.205-1.671,1.879-1.671h9.261s1.709.265,1.889,1.591c.18,1.326-1.259,1.75-1.844,1.75ZM126.609,116.094h-9.306s-1.924-.212-1.879-1.671c.18-1.14,1.205-1.671,1.879-1.671h9.261s1.709.265,1.889,1.591c.18,1.326-1.259,1.75-1.844,1.75ZM291.644,119.676c-.584-.007-9.305-.115-9.305-.115,0,0-1.922-.236-1.859-1.694.194-1.138,1.225-1.656,1.9-1.647.315.004,9.26.114,9.26.114,0,0,1.705.286,1.869,1.614.164,1.328-1.28,1.735-1.865,1.727ZM313.7,119.948c-.585-.007-9.305-.115-9.305-.115,0,0-1.922-.236-1.859-1.694.194-1.138,1.226-1.656,1.9-1.647.315.004,9.26.114,9.26.114,0,0,1.705.286,1.869,1.614.163,1.328-1.28,1.735-1.865,1.727ZM335.756,120.22c-.585-.007-9.305-.115-9.305-.115,0,0-1.922-.236-1.859-1.694.194-1.138,1.226-1.656,1.9-1.647.315.004,9.26.114,9.26.114,0,0,1.705.286,1.869,1.614.163,1.328-1.28,1.735-1.865,1.727ZM497.418,109.09c-.584.034-9.29.542-9.29.542,0,0-1.933-.1-1.974-1.559.113-1.149,1.106-1.738,1.779-1.777.314-.018,9.245-.539,9.245-.539,0,0,1.721.165,1.978,1.479.257,1.313-1.155,1.821-1.739,1.855ZM517.202,107.711c-.584.034-9.29.542-9.29.542,0,0-1.934-.1-1.974-1.559.113-1.149,1.106-1.738,1.779-1.777.314-.018,9.245-.539,9.245-.539,0,0,1.721.165,1.978,1.479.257,1.313-1.155,1.821-1.739,1.855ZM525.722,105.315c.113-1.149,1.106-1.738,1.779-1.777.314-.018,9.245-.539,9.245-.539,0,0,1.721.165,1.978,1.479.257,1.313-1.155,1.821-1.739,1.855-.584.034-9.29.542-9.29.542,0,0-1.934-.1-1.974-1.559Z" fill="#d32e3b"/>
      </g>
      <g id="Grey">
        <path d="M208.181,83.27c-.318-3.501,0-4.775,0-4.775h1.167l-.212-1.273s-10.822-.955-20.478-.955-20.478.955-20.478.955l-.212,1.273h1.167s.318,1.273,0,4.775c-28.647,9.974-31.512,43.396-31.724,44.881l51.247.424,51.247-.424c-.212-1.485-3.077-34.907-31.724-44.881Z" fill="#b4c2d0" mix-blend-mode="overlay"/>
        <path d="M329.532,83.27c-.325-3.501,0-4.775,0-4.775h1.192l-.217-1.273s-11.056-.955-20.919-.955-20.919.955-20.919.955l-.217,1.273h1.192s.325,1.273,0,4.775c-29.265,9.974-32.191,43.396-32.408,44.881l52.351.424,52.351-.424c-.217-1.485-3.143-34.907-32.408-44.881Z" fill="#b4c2d0"/>
        <path d="M439.264,83.27c-.318-3.501,0-4.775,0-4.775h1.167l-.212-1.273s-10.822-.955-20.478-.955-20.478.955-20.478.955l-.212,1.273h1.167s.318,1.273,0,4.775c-28.647,9.974-31.512,43.396-31.724,44.881l51.247.424,51.247-.424c-.212-1.485-3.077-34.907-31.724-44.881Z" fill="#b4c2d0"/>
        <path d="M58.571,31.146c.159-.477-1.432-30.392,0-30.711,1.432-.318,16.867-.796,16.867,0v2.228s-10.979-.318-10.979.159,7.797,28.324,7.797,28.324h-13.684Z" fill="#b4c2d0"/>
        <path d="M44.892,42.918s0-7.161.734-7.437c.734-.275,3.122,0,3.122,0,0,0-.092-4.774.367-4.866.459-.092,31.124.092,33.419.734.643,1.928.826,13.129.826,13.129l-38.469-1.561Z" fill="#b4c2d0"/>
        <path d="M122.811,40.898H38.815s-3.764,3.305-3.581,4.407,7.161,10.834,7.161,10.834v61.253s17.6,2.263,34.862,4.466v.907c1.173-.149,2.361-.301,3.555-.453,1.195.152,2.382.304,3.555.453v-.907c17.262-2.203,34.862-4.466,34.862-4.466v-61.253s6.978-9.732,7.161-10.834c.184-1.102-3.581-4.407-3.581-4.407Z" fill="#b4c2d0"/>
        <path d="M54.324,125.984c.251-.918,4.098-44.689,4.833-45.791.734-1.102,14.506-.918,14.506-.918,0,0,17.26-42.6,18.546-42.784,1.285-.184,10.834,0,10.834,0v89.493h-48.718Z" fill="#b4c2d0"/>
        <path d="M26.01,165.733c-.081-.242-1.934-9.185-.564-11.441,1.37-2.256,2.095-2.336,2.336-1.45.242.886-.564,13.374-.564,13.374l-1.209-.483Z" fill="#b4c2d0"/>
        <path d="M26.01,168.95c-.081.242-1.934,9.185-.564,11.441,1.37,2.256,2.095,2.336,2.336,1.45.242-.886-.564-13.374-.564-13.374l-1.209.483Z" fill="#b4c2d0"/>
        <path d="M23.36,167.341c0,.645.746,2.186,4.391,2.886.382-.106.201-1.879.201-1.879h3.525v-2.014h-3.525s.181-1.772-.201-1.879c-3.645.7-4.391,2.241-4.391,2.886Z" fill="#b4c2d0"/>
      </g>
      <g id="Color2">
        <path d="M317.819,69.365c-1.034-2.067-5.207-5.385-9.393-5.877-.789-.093-48.518-.147-49.77,0-4.186.493-8.359,3.81-9.393,5.877-.913,1.825-1.32,8.695-1.423,10.756v50.954l2.87.931v-51.742c.197-3.938.682-8.734,1.123-9.615.647-1.294,4.034-3.941,7.159-4.309,1.129-.133,48.388-.084,49.099,0,3.125.368,6.512,3.015,7.159,4.309.441.881.926,5.677,1.123,9.615l2.87-.144c-.103-2.062-.51-8.931-1.423-10.756Z" fill="#4f4a78"/>
        <path d="M243.93,69.365c-1.034-2.067-5.207-5.385-9.393-5.877-.584-.069-32.181-.124-33.235,0-4.186.493-8.359,3.81-9.393,5.877-.913,1.825-1.32,8.695-1.423,10.756l2.87.144c.197-3.938.682-8.734,1.123-9.615.647-1.294,4.034-3.941,7.159-4.309.915-.108,31.988-.068,32.563,0,3.125.368,6.512,3.015,7.159,4.309.441.881.926,5.677,1.123,9.615v51.742l2.87-.931v-50.954c-.103-2.062-.51-8.931-1.423-10.756Z" fill="#4f4a78"/>
        <path d="M548.284,163.011c0-7.1-15.072-13.386-19.413-16.612-106.193,8.814-491.552,2.835-491.552,2.835,1.934.967,5.559,10.393,3.626,12.81-1.934,2.417-11.118,3.626-11.118,3.626l-.242,3.626s3.867,6.284,16.436,9.668c31.905,9.185,454.407,6.768,471.809,4.834,17.403-1.934,30.455-13.052,30.455-20.787Z" fill="#4f4a78"/>
        <path d="M12.544,139.082s.604,4.834,0,5.076c-.604.242-9.306-2.852-10.152-1.97-.846.882,3.048,25.657,5.21,34.359.953,2.296,11.709,1.209,11.951-.604.242-1.813,1.329-28.159.604-28.642-.725-.483-4.592-1.813-4.713-2.538-.121-.725.121-5.68.121-5.68h-3.021Z" fill="#4f4a78"/>
        <path d="M75.438,56.132c1.501-4.977.547-10.894.547-10.894,0,0-29.874-.397-40.734-.187-.021.093-.028.178-.016.253.18,1.079,6.87,10.427,7.151,10.819.007.005.01.008.01.008,0,0,29.526.289,33.043,0Z" fill="#4f4a78"/>
        <path d="M126.379,45.066c-8.865.073-16.383.173-16.383.173,0,0-.955,5.916.546,10.894,1.055.087,4.451.121,8.688.127v-.121s6.978-9.732,7.161-10.834c.012-.071.007-.151-.012-.239Z" fill="#4f4a78"/>
        <path d="M119.23,73.836v-.884h-15.304v-16.82h6.8v-.866h-6.8v-9.162h6.216v-.866h-6.216v-4.341h-15.062c-.273.595-.572,1.255-.903,1.994-.324.724-.671,1.509-1.039,2.346h-10.938v.866h10.56c-1.126,2.58-2.436,5.642-3.92,9.162h-7.186v.866h6.822c-.204.485-.41.976-.621,1.478-2.357,5.619-4.683,11.269-6.351,15.342h-32.892v.884h32.53c-.876,2.141-1.531,3.751-1.855,4.549-.38-.003-.921-.006-1.571-.006-12.196,0-12.727.796-13.078,1.323-.311.466-.719,3.133-1.942,15.294h-14.084v.884h13.995c-.421,4.204-.933,9.479-1.565,16.101h49.101v-16.101h15.304v-.884h-15.304v-21.16h15.304Z" fill="#4f4a78"/>
      </g>
    </g>
  </g>
</svg>