<?xml version="1.0" encoding="UTF-8"?>
<svg id="Layer_2" data-name="Layer 2" xmlns="http://www.w3.org/2000/svg" viewBox="0 0 156.963 179.82">
  <g id="Color">
    <path d="M77.394,63.719h22.27c2.069,0,3.746,1.678,3.746,3.747,0,.569-.127,1.107-.353,1.59l-14.593,37.141h22.329c2.069,0,3.747,1.677,3.747,3.746,0,1.042-.426,1.985-1.113,2.664l-57.079,65.911-2.825-2.443,2.832,2.452c-1.354,1.564-3.721,1.734-5.285.379-1.22-1.057-1.591-2.729-1.053-4.156l14.411-48.816h-15.253c-2.069,0-3.747-1.678-3.747-3.747,0-.713.2-1.381.546-1.948l28.047-54.483-.008-.004c.673-1.307,2.007-2.05,3.382-2.032Z" fill="#64b5f6"/>
  </g>
  <g id="Grey">
    <path d="M123.119,93.511c9.229,0,17.621-3.264,23.727-8.539,6.251-5.401,10.118-12.899,10.118-21.213,0-6.295-2.218-12.125-6.011-16.936-3.136-3.978-7.355-7.25-12.28-9.491.06-.273.115-.546.166-.823.277-1.501.421-2.991.421-4.462,0-8.706-5.498-16.463-13.343-22.163C117.554,3.808,106.366,0,96.562,0c-9.098,0-15.586,1.224-20.811,3.393-4.576,1.899-8.067,4.465-11.413,7.54-.098-.023-.196-.045-.295-.066-6.034-1.315-12.628.171-18.265,3.598-5.54,3.368-10.209,8.648-12.522,14.996-.104.287-.205.575-.299.862-8.931,1.554-16.791,5.201-22.562,10.199C3.907,46.142,0,53.461,0,61.52c0,9.083,4.953,17.223,12.959,23.04,7.658,5.565,18.176,9.006,29.737,9.006,2.908,0,7.351-.003,12.798-.008l13.484-26.194-.008-.004,1.711-3.324c1.297-2.52,3.894-4.064,6.712-4.064h22.27c4.137,0,7.493,3.356,7.493,7.493,0,1.038-.236,2.001-.613,2.96l-9.075,23.096c9.006-.007,17.882-.011,25.65-.011Z" fill="#424242"/>
  </g>
</svg>