<?xml version="1.0" encoding="UTF-8"?>
<svg id="Layer_2" data-name="Layer 2" xmlns="http://www.w3.org/2000/svg" viewBox="0 0 179.82 119.468">
  <g id="Color">
    <path d="M123.2,105.302c1.666.98,3.156,1.418,4.444,1.418.945,0,1.755-.286,2.406-.786.743-.571,1.337-1.435,1.749-2.501,1.329-3.441.727-8.518-2.576-13.224h-.008c-1.185-1.686-.777-4.017.911-5.202,1.487-1.044,3.471-.852,4.733.362,49.211,43.228,37.537,7.41,35.171,3.803-.612-1.966.485-4.056,2.451-4.668,1.965-.612,4.056.485,4.668,2.451.035.112,8.286,25.726-4.398,27.97-.303.079-.621.122-.949.122l-.219.006c-.264.016-.532.026-.811.025l-41.018,1.214-6.554-10.99Z" fill="#64b5f6"/>
  </g>
  <g id="Grey">
    <path d="M26.752,119.339c-1.271.11-2.586.149-3.943.117l-.407.012c-.205,0-.405-.017-.601-.048-5.733-.284-12.226-1.843-19.532-4.974-1.893-.806-2.775-2.994-1.97-4.888.806-1.894,2.994-2.775,4.888-1.969,7.003,3.001,13.032,4.341,18.175,4.38l2.188-.064c5.791-.395,10.358-2.545,13.844-5.86,4.228-4.019,7.025-9.774,8.594-16.222,1.622-6.666,1.921-14.043,1.124-21.055-1.438-12.653-6.276-23.887-13.106-26.743-2.676,3.272-8.188,9.002-13.141,7.78v.002c-1.506-.3-3.078-1.283-4.482-2.705-1.512-1.53-2.985-3.723-3.958-6.094-.96-2.341-1.468-4.917-1.137-7.35-2.42-.639-4.292-1.612-5.695-2.832-2.43-2.112-3.44-4.794-3.411-7.741.025-2.525.853-5.164,2.193-7.697,2.915-5.512,8.53-10.946,13.225-13.267,27.261-13.472,61.437,40.366,81.636,73.559l-.049.029,24.28,40.71-98.716,2.921Z" fill="#424242"/>
  </g>
</svg>