<?xml version="1.0" encoding="UTF-8"?>
<svg id="Layer_2" data-name="Layer 2" xmlns="http://www.w3.org/2000/svg" viewBox="0 0 128.043 179.821">
  <g id="All">
    <path d="M63.307,0c16.815,0,32.115,2.23,43.257,5.835,12.388,4.008,20.05,10.052,20.05,17.183s-7.662,13.174-20.05,17.183c-11.142,3.605-26.441,5.835-43.257,5.835s-32.115-2.23-43.257-5.835C7.662,36.192,0,30.148,0,23.017S7.662,9.843,20.05,5.835C31.191,2.23,46.49,0,63.307,0h0ZM104.28,12.947c-10.415-3.37-24.896-5.454-40.974-5.454s-30.56,2.084-40.975,5.454c-9.168,2.966-14.84,6.558-14.84,10.071s5.672,7.104,14.84,10.07c10.415,3.37,24.896,5.454,40.975,5.454s30.559-2.084,40.974-5.454c9.169-2.966,14.84-6.558,14.84-10.07s-5.671-7.104-14.84-10.07Z" fill="#424242"/>
    <path d="M93.99,22.142c0-2.069,1.678-3.747,3.746-3.747s3.746,1.677,3.746,3.747c0,4.199-4.961,7.457-12.981,9.33-6.502,1.519-15.414,2.458-25.194,2.458s-18.692-.939-25.194-2.458c-8.02-1.874-12.982-5.131-12.982-9.33,0-2.069,1.678-3.747,3.747-3.747s3.746,1.677,3.746,3.747c0,.243,2.746,1.005,7.186,2.042,5.96,1.392,14.263,2.253,23.497,2.253s17.537-.861,23.497-2.253c4.439-1.037,7.187-1.799,7.187-2.042h0ZM106.564,5.835C95.422,2.23,80.122,0,63.307,0S31.191,2.23,20.05,5.835C9.074,9.386,1.809,14.536.294,20.623c-.194.783-.294,1.582-.294,2.395,0,7.13,7.662,13.175,20.05,17.183,11.142,3.605,26.44,5.835,43.257,5.835s32.115-2.23,43.257-5.835c12.388-4.008,20.05-10.052,20.05-17.183,0-2.361-.841-4.604-2.415-6.693-.001-.001-.002-.002-.002-.003-.069-.091-.139-.182-.21-.272-3.237-4.1-9.319-7.593-17.423-10.215Z" fill="#64b5f6" fill-rule="evenodd"/>
  </g>
  <g id="Color">
    <path d="M93.99,22.142c0-2.069,1.678-3.747,3.746-3.747s3.746,1.677,3.746,3.747c0,4.199-4.961,7.457-12.981,9.33-6.502,1.519-15.414,2.458-25.194,2.458s-18.692-.939-25.194-2.458c-8.02-1.874-12.982-5.131-12.982-9.33,0-2.069,1.678-3.747,3.747-3.747s3.746,1.677,3.746,3.747c0,.243,2.746,1.005,7.186,2.042,5.96,1.392,14.263,2.253,23.497,2.253s17.537-.861,23.497-2.253c4.439-1.037,7.187-1.799,7.187-2.042h0ZM106.564,5.835C95.422,2.23,80.122,0,63.307,0S31.191,2.23,20.05,5.835C9.074,9.386,1.809,14.536.294,20.623c-.194.783-.294,1.582-.294,2.395,0,7.13,7.662,13.175,20.05,17.183,11.142,3.605,26.44,5.835,43.257,5.835s32.115-2.23,43.257-5.835c12.388-4.008,20.05-10.052,20.05-17.183,0-2.361-.841-4.604-2.415-6.693-.001-.001-.002-.002-.002-.003-.069-.091-.139-.182-.21-.272-3.237-4.1-9.319-7.593-17.423-10.215Z" fill="#64b5f6" fill-rule="evenodd"/>
  </g>
  <g id="Grey">
    <path d="M60.548,102.342C14.935,83.379,3.567,50.959.818,33.627c4.739,5.016,12.26,8.254,18.078,10.137,13.789,4.461,29.976,6.017,44.41,6.017s30.621-1.555,44.41-6.017c6.858-2.219,16.081-6.321,20.326-12.998-.065,1.812-.244,3.632-.488,5.382-1.598,11.451-2.364,12.308-6.515,16.944-1.026,1.146-2.318,2.59-4.147,4.915-12.821,16.298-8.038,27.173-3.396,37.73,4.727,10.749,9.333,21.222.337,35.806-4.962,8.044-8.318,10.27-14.477,14.353-1.183.785-2.465,1.634-2.882,1.918-23.076,15.672-26.294,26.874-26.667,28.598-.054.603-.255,1.201-.614,1.74-1.148,1.722-3.474,2.187-5.195,1.039-21.283-14.189-12.066-27.761-2.558-41.763,7.707-11.348,15.653-23.056-.894-35.086Z" fill="#424242"/>
  </g>
</svg>