<?xml version="1.0" encoding="UTF-8"?>
<svg id="Layer_2" data-name="Layer 2" xmlns="http://www.w3.org/2000/svg" viewBox="0 0 159.742 179.785">
  <g id="Color">
    <path d="M144.014,77.385c.889,1.858,3.117,2.645,4.976,1.756,1.858-.89,2.646-3.117,1.756-4.976-.04-.086-13.86-29.785-47.733-23.435-2.028.38-3.365,2.332-2.985,4.361.38,2.028,2.333,3.364,4.361,2.984,28.184-5.284,39.593,19.238,39.626,19.309Z" fill="#64b5f6"/>
    <path d="M100.025,64.988c-2.054.185-3.566,2.001-3.381,4.054s2.001,3.566,4.054,3.38c.061-.005,21.13-2.172,26.967,21.173.501,2.005,2.532,3.224,4.536,2.723,2.004-.502,3.223-2.533,2.722-4.537-7.402-29.611-34.819-26.799-34.897-26.792Z" fill="#64b5f6"/>
    <path d="M7.439,59.215c-1.276,1.617-1.002,3.963.615,5.239,1.616,1.277,3.962,1.002,5.238-.614.054-.067,18.202-23.647,46.409-7.21,1.786,1.034,4.073.425,5.107-1.361,1.034-1.786.426-4.072-1.36-5.106C29.599,30.437,7.504,59.134,7.439,59.215Z" fill="#64b5f6"/>
    <path d="M61.239,67.741c2.053.186,3.868-1.328,4.054-3.381.186-2.053-1.328-3.867-3.381-4.054-.079-.007-27.495-2.818-34.897,26.793-.501,2.004.718,4.035,2.722,4.536,2.004.501,4.035-.718,4.536-2.722,5.837-23.346,26.906-21.179,26.967-21.173Z" fill="#64b5f6"/>
    <path d="M79.823,29.544c.028.02.056.041.084.062-.085-.143-.099-.139-.084-.062Z" fill="#424242"/>
    <path d="M77.499,72.814c-1.953-.024-3.494-.784-4.68-2.112l1.091-.976v-.002s-1.105.985-1.105.985c-.065-.072-.126-.147-.184-.224-1.329-1.629-1.899-3.952-1.92-6.609-.017-2.206.333-4.724.904-7.216.786-3.431,2.105-6.966,3.559-9.743-1.608-1.01-2.815-2.262-3.662-3.624-1.014-1.629-1.504-3.416-1.548-5.159-.045-1.767.375-3.479,1.178-4.935,1.175-2.13,3.137-3.744,5.669-4.298v-.002c-3.267-1.773-5.955-4.892-2.729-12.222.566-2.052,3.307-10.117,11.429-10.11.793-2.874,2.83-6.093,7.948-6.393,2.649-.6,6.387.455,10.285,1.555,3.33.94,6.817,1.924,8.024,1.65l-.002-.008c.478-.11.957-.123,1.415-.052,2.072.189,11.773,1.524,10.353,9.822l-3.688-.629,3.692.632c-.04.236-.102.463-.183.679-.549,1.866-2.953,8.33-10.224,9.642-.792.972-1.789,2.563-.865,3.585l.012-.011c.458.506.752,1.103.887,1.726.19.757.2,1.547.054,2.361-.602,3.329-4.827,7.625-8.915,11.091-2.175,1.843-4.491,3.553-6.129,4.711-.92,3.416-3.636,8.102-6.744,12.484-4.594,6.473-10.53,12.687-12.951,13.282l.004.016c-.327.079-.654.111-.976.103Z" fill="#64b5f6"/>
  </g>
  <g id="Grey">
    <path d="M79.871,74.42c6.947,0,13.296.554,17.943,1.447,6.293,1.21,10.186,3.636,10.186,6.989s-3.893,5.779-10.186,6.989c-4.647.894-10.996,1.447-17.943,1.447s-13.295-.553-17.942-1.447c-6.293-1.21-10.186-3.636-10.186-6.989s3.893-5.779,10.186-6.989c4.647-.894,10.996-1.447,17.942-1.447h0ZM94.311,82.857c-3.94-.591-8.95-.943-14.44-.943s-10.5.352-14.44.943c3.94.591,8.95.943,14.44.943s10.5-.353,14.44-.943Z" fill="#424242"/>
    <path d="M53.771,91.06c2.768,14.939,3.369,52.95-51.642,81.599-1.26.603-2.13,1.89-2.13,3.38,0,2.068,1.678,3.746,3.747,3.746h152.249c2.069,0,3.746-1.678,3.746-3.746,0-1.49-.87-2.777-2.13-3.381-55.01-28.647-54.408-66.658-51.641-81.598-2.373,1.25-5.107,2.015-7.449,2.465-6.007,1.155-12.543,1.515-18.651,1.515s-12.644-.359-18.65-1.515c-2.342-.45-5.076-1.215-7.449-2.465Z" fill="#424242"/>
  </g>
</svg>