<?xml version="1.0" encoding="UTF-8"?>
<svg id="Layer_2" data-name="Layer 2" xmlns="http://www.w3.org/2000/svg" viewBox="0 0 159.732 179.819">
  <g id="All">
    <g>
      <g id="Color">
        <path d="M107.004,17.092l25.45,11.338c.695,2.018.913,4.456.878,6.707-.006.413-.039.874-.086,1.349-.05.502-.111.987-.171,1.45l1.814.237-1.819-.237c-.007.053-.012.105-.014.157-.086.651-.187,1.329-.298,2.024-.121.765-.246,1.492-.372,2.189-.341,1.877-.736,3.803-1.191,5.764-.421,1.817-.895,3.654-1.425,5.497-.553,1.925-1.171,3.889-1.867,5.749-.702,1.878-1.497,3.708-2.404,5.374-1.116,2.052-2.581,4.202-4.287,5.685l-27.7-2.905c1.228-1.801,2.253-3.733,3.044-5.413.671-1.426,1.289-2.885,1.865-4.355.588-1.501,1.121-2.976,1.617-4.418.582-1.695,1.128-3.395,1.642-5.094.505-1.668.991-3.387,1.461-5.143.464-1.737.91-3.516,1.333-5.338.417-1.797.801-3.592,1.145-5.378.301-1.568.58-3.152.811-4.725.235-1.599.426-3.204.547-4.797.132-1.733.182-3.728.028-5.719Z" fill="#64b5f6" fill-rule="evenodd"/>
      </g>
      <g id="Grey">
        <path d="M11.009,16.932v157.384c0,3.039-2.465,5.504-5.505,5.504S0,177.354,0,174.315V16.932C0,13.892,2.465,11.427,5.504,11.427s5.505,2.465,5.505,5.505Z" fill="#424242" fill-rule="evenodd"/>
        <path d="M76.243,34l.024.007-.476,1.777c-.018.066-.037.132-.058.198l-.421,1.57-.053-.014c-1.887,6.041-4.498,12.648-8.096,17.72-3.275,4.617-8.641,9.597-14.802,7.946-6.173-1.654-8.318-8.655-8.847-14.3-.627-6.692.669-14.39,2.199-20.899.041-.174.087-.348.139-.519,1.931-6.409,4.66-13.728,8.552-19.215,3.275-4.618,8.641-9.598,14.801-7.947,6.174,1.654,8.32,8.655,8.849,14.301.586,6.262-.304,13.179-1.812,19.376h0ZM66.287,11.243c-.982.766-2.476,2.76-2.925,3.393-3.241,4.57-5.574,10.323-6.898,15.743-.017.07-.032.141-.052.211l-.228.858c-1.318,5.175-2.226,11.188-1.733,16.454.071.77.366,3.231.832,4.382.982-.765,2.476-2.76,2.925-3.392,3.243-4.573,5.58-10.314,6.897-15.738.017-.07.032-.14.051-.21l.003-.01c.019-.069.04-.136.059-.205,1.567-5.361,2.424-11.518,1.901-17.104-.072-.77-.367-3.232-.833-4.382Z" fill="#424242" fill-rule="evenodd"/>
        <path d="M136.662,30.305l17,7.573c3.795,1.322,5.488,5.19,5.927,8.986.414,3.582-.116,7.554-1.045,11.02-.909,3.393-2.386,6.977-4.447,9.839-2.068,2.872-5.13,5.351-8.787,5.157-.167-.001-.335-.011-.504-.029l-19.015-1.994c1.13-1.39,2.109-2.932,2.918-4.418.994-1.828,1.86-3.816,2.619-5.847.767-2.049,1.412-4.085,1.968-6.021.529-1.842,1.019-3.743,1.468-5.684.447-1.928.854-3.914,1.22-5.936.142-.783.273-1.54.387-2.261.109-.685.213-1.39.31-2.121.012-.052.021-.105.028-.16h-.006c.066-.514.134-1.048.185-1.565.054-.544.093-1.102.102-1.664.023-1.58-.065-3.253-.326-4.876Z" fill="#424242" fill-rule="evenodd"/>
        <path d="M54.378,52.317l2.567.7,13.825-10.703c.092-.162.197-.325.323-.501,1.274-1.767,2.175-4.176,2.734-6.264.567-2.12.997-4.729.743-6.926-.019-.157-.026-.305-.026-.447l-6.453-17.778-2.55.252c-2.765-1.232-4.007-4.504-2.769-7.264,1.237-2.759,4.498-3.997,7.258-2.768l33.077,14.736c.408,2.355.378,4.99.212,7.182-.114,1.499-.295,3.019-.519,4.539-.227,1.545-.495,3.072-.783,4.567-.339,1.765-.713,3.516-1.115,5.249-.397,1.709-.834,3.449-1.305,5.208-.439,1.645-.915,3.321-1.432,5.028-.507,1.676-1.039,3.334-1.6,4.965-.5,1.458-1.02,2.897-1.56,4.274-.552,1.408-1.138,2.792-1.765,4.126-.979,2.077-2.334,4.561-3.968,6.531l-36.025-3.778c-3.005-.315-5.21-3.017-4.902-6.025.308-3.009,3.02-5.222,6.03-4.906Z" fill="#424242" fill-rule="evenodd"/>
        <path d="M68.759,11.04L6.463,22.332c-2.984.541-5.842-1.451-6.376-4.435-.535-2.983,1.451-5.832,4.431-6.373L66.815.233c2.984-.541,5.841,1.451,6.376,4.435.535,2.982-1.451,5.832-4.432,6.372Z" fill="#424242" fill-rule="evenodd"/>
        <path d="M50.243,62.051L1.94,21.124c-2.305-1.953-2.597-5.439-.644-7.746,1.951-2.307,5.441-2.599,7.747-.645l48.304,40.927c2.305,1.953,2.597,5.439.645,7.745-1.951,2.307-5.441,2.599-7.747.645Z" fill="#424242" fill-rule="evenodd"/>
      </g>
    </g>
  </g>
</svg>